<?xml version="1.0" encoding="UTF-8" standalone="no"?>
<!DOCTYPE svg PUBLIC "-//W3C//DTD SVG 1.1//EN"
 "http://www.w3.org/Graphics/SVG/1.1/DTD/svg11.dtd">
<!-- Generated by graphviz version 2.36.0 (20140111.2315)
 -->
<!-- Title: KuszkAPI/App/Base/Declarations.h Pages: 1 -->
<svg width="178pt" height="196pt"
 viewBox="0.00 0.00 178.00 196.00" xmlns="http://www.w3.org/2000/svg" xmlns:xlink="http://www.w3.org/1999/xlink">
<g id="graph0" class="graph" transform="scale(1 1) rotate(0) translate(4 192)">
<title>KuszkAPI/App/Base/Declarations.h</title>
<polygon fill="white" stroke="none" points="-4,4 -4,-192 174,-192 174,4 -4,4"/>
<!-- Node1 -->
<g id="node1" class="node"><title>Node1</title>
<polygon fill="#bfbfbf" stroke="black" points="-0.5,-168.5 -0.5,-187.5 170.5,-187.5 170.5,-168.5 -0.5,-168.5"/>
<text text-anchor="middle" x="85" y="-175.5" font-family="Helvetica,sans-Serif" font-size="10.00">KuszkAPI/App/Base/Declarations.h</text>
</g>
<!-- Node2 -->
<g id="node2" class="node"><title>Node2</title>
<g id="a_node2"><a xlink:href="_app_2_base_8h.html" target="_top" xlink:title="Dołącza bazowe składniki modułu App.h. ">
<polygon fill="white" stroke="black" points="28,-112.5 28,-131.5 142,-131.5 142,-112.5 28,-112.5"/>
<text text-anchor="middle" x="85" y="-119.5" font-family="Helvetica,sans-Serif" font-size="10.00">KuszkAPI/App/Base.h</text>
</a>
</g>
</g>
<!-- Node1&#45;&gt;Node2 -->
<g id="edge1" class="edge"><title>Node1&#45;&gt;Node2</title>
<path fill="none" stroke="midnightblue" d="M85,-157.805C85,-148.91 85,-138.78 85,-131.751"/>
<polygon fill="midnightblue" stroke="midnightblue" points="81.5001,-158.083 85,-168.083 88.5001,-158.083 81.5001,-158.083"/>
</g>
<!-- Node3 -->
<g id="node3" class="node"><title>Node3</title>
<g id="a_node3"><a xlink:href="_app_8h.html" target="_top" xlink:title="Dołącza do projektu moduł aplikacji. ">
<polygon fill="white" stroke="black" points="40.5,-56.5 40.5,-75.5 129.5,-75.5 129.5,-56.5 40.5,-56.5"/>
<text text-anchor="middle" x="85" y="-63.5" font-family="Helvetica,sans-Serif" font-size="10.00">KuszkAPI/App.h</text>
</a>
</g>
</g>
<!-- Node2&#45;&gt;Node3 -->
<g id="edge2" class="edge"><title>Node2&#45;&gt;Node3</title>
<path fill="none" stroke="midnightblue" d="M85,-101.805C85,-92.9102 85,-82.7798 85,-75.7511"/>
<polygon fill="midnightblue" stroke="midnightblue" points="81.5001,-102.083 85,-112.083 88.5001,-102.083 81.5001,-102.083"/>
</g>
<!-- Node4 -->
<g id="node4" class="node"><title>Node4</title>
<g id="a_node4"><a xlink:href="_kuszk_a_p_i_8h.html" target="_top" xlink:title="Główny plik dołączający do projektu całe środowisko. ">
<polygon fill="white" stroke="black" points="27.5,-0.5 27.5,-19.5 142.5,-19.5 142.5,-0.5 27.5,-0.5"/>
<text text-anchor="middle" x="85" y="-7.5" font-family="Helvetica,sans-Serif" font-size="10.00">KuszkAPI/KuszkAPI.h</text>
</a>
</g>
</g>
<!-- Node3&#45;&gt;Node4 -->
<g id="edge3" class="edge"><title>Node3&#45;&gt;Node4</title>
<path fill="none" stroke="midnightblue" d="M85,-45.8045C85,-36.9102 85,-26.7798 85,-19.7511"/>
<polygon fill="midnightblue" stroke="midnightblue" points="81.5001,-46.083 85,-56.083 88.5001,-46.083 81.5001,-46.083"/>
</g>
</g>
</svg>
