<?xml version="1.0" encoding="UTF-8" standalone="no"?>
<!DOCTYPE svg PUBLIC "-//W3C//DTD SVG 1.1//EN"
 "http://www.w3.org/Graphics/SVG/1.1/DTD/svg11.dtd">
<!-- Generated by graphviz version 2.36.0 (20140111.2315)
 -->
<!-- Title: KuszkAPI/App/Base.h Pages: 1 -->
<svg width="122pt" height="140pt"
 viewBox="0.00 0.00 122.00 140.00" xmlns="http://www.w3.org/2000/svg" xmlns:xlink="http://www.w3.org/1999/xlink">
<g id="graph0" class="graph" transform="scale(1 1) rotate(0) translate(4 136)">
<title>KuszkAPI/App/Base.h</title>
<polygon fill="white" stroke="none" points="-4,4 -4,-136 118,-136 118,4 -4,4"/>
<!-- Node1 -->
<g id="node1" class="node"><title>Node1</title>
<polygon fill="#bfbfbf" stroke="black" points="0,-112.5 0,-131.5 114,-131.5 114,-112.5 0,-112.5"/>
<text text-anchor="middle" x="57" y="-119.5" font-family="Helvetica,sans-Serif" font-size="10.00">KuszkAPI/App/Base.h</text>
</g>
<!-- Node2 -->
<g id="node2" class="node"><title>Node2</title>
<g id="a_node2"><a xlink:href="_app_8h.html" target="_top" xlink:title="Dołącza do projektu moduł aplikacji. ">
<polygon fill="white" stroke="black" points="12.5,-56.5 12.5,-75.5 101.5,-75.5 101.5,-56.5 12.5,-56.5"/>
<text text-anchor="middle" x="57" y="-63.5" font-family="Helvetica,sans-Serif" font-size="10.00">KuszkAPI/App.h</text>
</a>
</g>
</g>
<!-- Node1&#45;&gt;Node2 -->
<g id="edge1" class="edge"><title>Node1&#45;&gt;Node2</title>
<path fill="none" stroke="midnightblue" d="M57,-101.805C57,-92.9102 57,-82.7798 57,-75.7511"/>
<polygon fill="midnightblue" stroke="midnightblue" points="53.5001,-102.083 57,-112.083 60.5001,-102.083 53.5001,-102.083"/>
</g>
<!-- Node3 -->
<g id="node3" class="node"><title>Node3</title>
<g id="a_node3"><a xlink:href="_kuszk_a_p_i_8h.html" target="_top" xlink:title="Główny plik dołączający do projektu całe środowisko. ">
<polygon fill="white" stroke="black" points="-0.5,-0.5 -0.5,-19.5 114.5,-19.5 114.5,-0.5 -0.5,-0.5"/>
<text text-anchor="middle" x="57" y="-7.5" font-family="Helvetica,sans-Serif" font-size="10.00">KuszkAPI/KuszkAPI.h</text>
</a>
</g>
</g>
<!-- Node2&#45;&gt;Node3 -->
<g id="edge2" class="edge"><title>Node2&#45;&gt;Node3</title>
<path fill="none" stroke="midnightblue" d="M57,-45.8045C57,-36.9102 57,-26.7798 57,-19.7511"/>
<polygon fill="midnightblue" stroke="midnightblue" points="53.5001,-46.083 57,-56.083 60.5001,-46.083 53.5001,-46.083"/>
</g>
</g>
</svg>
