<?xml version="1.0" encoding="UTF-8" standalone="no"?>
<!DOCTYPE svg PUBLIC "-//W3C//DTD SVG 1.1//EN"
 "http://www.w3.org/Graphics/SVG/1.1/DTD/svg11.dtd">
<!-- Generated by graphviz version 2.36.0 (20140111.2315)
 -->
<!-- Title: KuszkAPI/App.h Pages: 1 -->
<svg width="562pt" height="140pt"
 viewBox="0.00 0.00 562.00 140.00" xmlns="http://www.w3.org/2000/svg" xmlns:xlink="http://www.w3.org/1999/xlink">
<g id="graph0" class="graph" transform="scale(1 1) rotate(0) translate(4 136)">
<title>KuszkAPI/App.h</title>
<polygon fill="white" stroke="none" points="-4,4 -4,-136 558,-136 558,4 -4,4"/>
<!-- Node1 -->
<g id="node1" class="node"><title>Node1</title>
<polygon fill="#bfbfbf" stroke="black" points="116.5,-112.5 116.5,-131.5 205.5,-131.5 205.5,-112.5 116.5,-112.5"/>
<text text-anchor="middle" x="161" y="-119.5" font-family="Helvetica,sans-Serif" font-size="10.00">KuszkAPI/App.h</text>
</g>
<!-- Node2 -->
<g id="node2" class="node"><title>Node2</title>
<polygon fill="white" stroke="#bfbfbf" points="43.5,-56.5 43.5,-75.5 108.5,-75.5 108.5,-56.5 43.5,-56.5"/>
<text text-anchor="middle" x="76" y="-63.5" font-family="Helvetica,sans-Serif" font-size="10.00">Windows.h</text>
</g>
<!-- Node1&#45;&gt;Node2 -->
<g id="edge1" class="edge"><title>Node1&#45;&gt;Node2</title>
<path fill="none" stroke="midnightblue" d="M147.343,-112.324C134.084,-103.9 113.732,-90.9709 98.1538,-81.0741"/>
<polygon fill="midnightblue" stroke="midnightblue" points="99.9404,-78.0626 89.6228,-75.6545 96.1867,-83.9711 99.9404,-78.0626"/>
</g>
<!-- Node3 -->
<g id="node3" class="node"><title>Node3</title>
<g id="a_node3"><a xlink:href="_app_2_base_8h.html" target="_top" xlink:title="Dołącza bazowe składniki modułu App.h. ">
<polygon fill="white" stroke="black" points="127,-56.5 127,-75.5 195,-75.5 195,-56.5 127,-56.5"/>
<text text-anchor="middle" x="161" y="-63.5" font-family="Helvetica,sans-Serif" font-size="10.00">App\Base.h</text>
</a>
</g>
</g>
<!-- Node1&#45;&gt;Node3 -->
<g id="edge2" class="edge"><title>Node1&#45;&gt;Node3</title>
<path fill="none" stroke="midnightblue" d="M161,-112.083C161,-105.006 161,-94.8611 161,-85.9865"/>
<polygon fill="midnightblue" stroke="midnightblue" points="164.5,-85.751 161,-75.7511 157.5,-85.7511 164.5,-85.751"/>
</g>
<!-- Node6 -->
<g id="node6" class="node"><title>Node6</title>
<g id="a_node6"><a xlink:href="_types_8h.html" target="_top" xlink:title="Dołącza wyszczególnione składniki modułu App.h. ">
<polygon fill="white" stroke="black" points="297.5,-56.5 297.5,-75.5 368.5,-75.5 368.5,-56.5 297.5,-56.5"/>
<text text-anchor="middle" x="333" y="-63.5" font-family="Helvetica,sans-Serif" font-size="10.00">App\Types.h</text>
</a>
</g>
</g>
<!-- Node1&#45;&gt;Node6 -->
<g id="edge5" class="edge"><title>Node1&#45;&gt;Node6</title>
<path fill="none" stroke="midnightblue" d="M188.254,-112.444C217.441,-103.28 263.921,-88.6876 296.309,-78.5192"/>
<polygon fill="midnightblue" stroke="midnightblue" points="297.381,-81.8512 305.874,-75.5164 295.284,-75.1726 297.381,-81.8512"/>
</g>
<!-- Node4 -->
<g id="node4" class="node"><title>Node4</title>
<g id="a_node4"><a xlink:href="_app_2_base_2_declarations_8h.html" target="_top" xlink:title="Deklaracje dla pliku App.cpp. ">
<polygon fill="white" stroke="black" points="0,-0.5 0,-19.5 104,-19.5 104,-0.5 0,-0.5"/>
<text text-anchor="middle" x="52" y="-7.5" font-family="Helvetica,sans-Serif" font-size="10.00">Base\Declarations.h</text>
</a>
</g>
</g>
<!-- Node3&#45;&gt;Node4 -->
<g id="edge3" class="edge"><title>Node3&#45;&gt;Node4</title>
<path fill="none" stroke="midnightblue" d="M143.487,-56.324C125.928,-47.6247 98.6686,-34.1202 78.4688,-24.113"/>
<polygon fill="midnightblue" stroke="midnightblue" points="79.9837,-20.9575 69.4693,-19.6545 76.8762,-27.23 79.9837,-20.9575"/>
</g>
<!-- Node5 -->
<g id="node5" class="node"><title>Node5</title>
<g id="a_node5"><a xlink:href="_app_8cpp.html" target="_top" xlink:title="Zawiera implementacje klasy App. ">
<polygon fill="white" stroke="black" points="122,-0.5 122,-19.5 200,-19.5 200,-0.5 122,-0.5"/>
<text text-anchor="middle" x="161" y="-7.5" font-family="Helvetica,sans-Serif" font-size="10.00">Base\App.cpp</text>
</a>
</g>
</g>
<!-- Node3&#45;&gt;Node5 -->
<g id="edge4" class="edge"><title>Node3&#45;&gt;Node5</title>
<path fill="none" stroke="midnightblue" d="M161,-56.083C161,-49.0059 161,-38.8611 161,-29.9865"/>
<polygon fill="midnightblue" stroke="midnightblue" points="164.5,-29.751 161,-19.7511 157.5,-29.7511 164.5,-29.751"/>
</g>
<!-- Node7 -->
<g id="node7" class="node"><title>Node7</title>
<g id="a_node7"><a xlink:href="_app_2_types_2_declarations_8h.html" target="_top" xlink:title="Deklaracje dla plików DllApp.cpp i WinApp.cpp. ">
<polygon fill="white" stroke="black" points="218,-0.5 218,-19.5 326,-19.5 326,-0.5 218,-0.5"/>
<text text-anchor="middle" x="272" y="-7.5" font-family="Helvetica,sans-Serif" font-size="10.00">Types\Declarations.h</text>
</a>
</g>
</g>
<!-- Node6&#45;&gt;Node7 -->
<g id="edge6" class="edge"><title>Node6&#45;&gt;Node7</title>
<path fill="none" stroke="midnightblue" d="M323.199,-56.324C314.182,-48.3414 300.594,-36.3128 289.682,-26.6529"/>
<polygon fill="midnightblue" stroke="midnightblue" points="291.787,-23.8416 281.979,-19.8339 287.147,-29.083 291.787,-23.8416"/>
</g>
<!-- Node8 -->
<g id="node8" class="node"><title>Node8</title>
<g id="a_node8"><a xlink:href="_win_app_8cpp.html" target="_top" xlink:title="Zawiera implementacje klasy WinApp. ">
<polygon fill="white" stroke="black" points="344.5,-0.5 344.5,-19.5 443.5,-19.5 443.5,-0.5 344.5,-0.5"/>
<text text-anchor="middle" x="394" y="-7.5" font-family="Helvetica,sans-Serif" font-size="10.00">Types\WinApp.cpp</text>
</a>
</g>
</g>
<!-- Node6&#45;&gt;Node8 -->
<g id="edge7" class="edge"><title>Node6&#45;&gt;Node8</title>
<path fill="none" stroke="midnightblue" d="M342.801,-56.324C351.818,-48.3414 365.406,-36.3128 376.318,-26.6529"/>
<polygon fill="midnightblue" stroke="midnightblue" points="378.853,-29.083 384.021,-19.8339 374.213,-23.8416 378.853,-29.083"/>
</g>
<!-- Node9 -->
<g id="node9" class="node"><title>Node9</title>
<g id="a_node9"><a xlink:href="_dll_app_8cpp.html" target="_top" xlink:title="Zawiera implementacje klasy DllApp. ">
<polygon fill="white" stroke="black" points="461.5,-0.5 461.5,-19.5 554.5,-19.5 554.5,-0.5 461.5,-0.5"/>
<text text-anchor="middle" x="508" y="-7.5" font-family="Helvetica,sans-Serif" font-size="10.00">Types\DllApp.cpp</text>
</a>
</g>
</g>
<!-- Node6&#45;&gt;Node9 -->
<g id="edge8" class="edge"><title>Node6&#45;&gt;Node9</title>
<path fill="none" stroke="midnightblue" d="M360.729,-56.4435C390.426,-47.2801 437.716,-32.6876 470.669,-22.5192"/>
<polygon fill="midnightblue" stroke="midnightblue" points="471.877,-25.8094 480.4,-19.5164 469.813,-19.1206 471.877,-25.8094"/>
</g>
</g>
</svg>
