<?xml version="1.0" encoding="UTF-8" standalone="no"?>
<!DOCTYPE svg PUBLIC "-//W3C//DTD SVG 1.1//EN"
 "http://www.w3.org/Graphics/SVG/1.1/DTD/svg11.dtd">
<!-- Generated by graphviz version 2.36.0 (20140111.2315)
 -->
<!-- Title: KuszkAPI/Sockets/Client.h Pages: 1 -->
<svg width="221pt" height="84pt"
 viewBox="0.00 0.00 221.00 84.00" xmlns="http://www.w3.org/2000/svg" xmlns:xlink="http://www.w3.org/1999/xlink">
<g id="graph0" class="graph" transform="scale(1 1) rotate(0) translate(4 80)">
<title>KuszkAPI/Sockets/Client.h</title>
<polygon fill="white" stroke="none" points="-4,4 -4,-80 217,-80 217,4 -4,4"/>
<!-- Node1 -->
<g id="node1" class="node"><title>Node1</title>
<polygon fill="#bfbfbf" stroke="black" points="43.5,-56.5 43.5,-75.5 178.5,-75.5 178.5,-56.5 43.5,-56.5"/>
<text text-anchor="middle" x="111" y="-63.5" font-family="Helvetica,sans-Serif" font-size="10.00">KuszkAPI/Sockets/Client.h</text>
</g>
<!-- Node2 -->
<g id="node2" class="node"><title>Node2</title>
<g id="a_node2"><a xlink:href="_sockets_2_client_2_declarations_8h.html" target="_top" xlink:title="Client\\Declarations.h">
<polygon fill="white" stroke="black" points="-0.5,-0.5 -0.5,-19.5 106.5,-19.5 106.5,-0.5 -0.5,-0.5"/>
<text text-anchor="middle" x="53" y="-7.5" font-family="Helvetica,sans-Serif" font-size="10.00">Client\Declarations.h</text>
</a>
</g>
</g>
<!-- Node1&#45;&gt;Node2 -->
<g id="edge1" class="edge"><title>Node1&#45;&gt;Node2</title>
<path fill="none" stroke="midnightblue" d="M101.681,-56.324C93.1074,-48.3414 80.1878,-36.3128 69.8124,-26.6529"/>
<polygon fill="midnightblue" stroke="midnightblue" points="72.1922,-24.0865 62.4883,-19.8339 67.4223,-29.2098 72.1922,-24.0865"/>
</g>
<!-- Node3 -->
<g id="node3" class="node"><title>Node3</title>
<g id="a_node3"><a xlink:href="_client_8cpp.html" target="_top" xlink:title="Client\\Client.cpp">
<polygon fill="white" stroke="black" points="125,-0.5 125,-19.5 213,-19.5 213,-0.5 125,-0.5"/>
<text text-anchor="middle" x="169" y="-7.5" font-family="Helvetica,sans-Serif" font-size="10.00">Client\Client.cpp</text>
</a>
</g>
</g>
<!-- Node1&#45;&gt;Node3 -->
<g id="edge2" class="edge"><title>Node1&#45;&gt;Node3</title>
<path fill="none" stroke="midnightblue" d="M120.319,-56.324C128.893,-48.3414 141.812,-36.3128 152.188,-26.6529"/>
<polygon fill="midnightblue" stroke="midnightblue" points="154.578,-29.2098 159.512,-19.8339 149.808,-24.0865 154.578,-29.2098"/>
</g>
</g>
</svg>
