<?xml version="1.0" encoding="UTF-8" standalone="no"?>
<!DOCTYPE svg PUBLIC "-//W3C//DTD SVG 1.1//EN"
 "http://www.w3.org/Graphics/SVG/1.1/DTD/svg11.dtd">
<!-- Generated by graphviz version 2.36.0 (20140111.2315)
 -->
<!-- Title: KuszkAPI/Containers/Common.h Pages: 1 -->
<svg width="711pt" height="96pt"
 viewBox="0.00 0.00 711.00 96.00" xmlns="http://www.w3.org/2000/svg" xmlns:xlink="http://www.w3.org/1999/xlink">
<g id="graph0" class="graph" transform="scale(1 1) rotate(0) translate(4 92)">
<title>KuszkAPI/Containers/Common.h</title>
<polygon fill="white" stroke="none" points="-4,4 -4,-92 707,-92 707,4 -4,4"/>
<!-- Node1 -->
<g id="node1" class="node"><title>Node1</title>
<polygon fill="#bfbfbf" stroke="black" points="309,-57 309,-87 419,-87 419,-57 309,-57"/>
<text text-anchor="start" x="317" y="-75" font-family="Helvetica,sans-Serif" font-size="10.00">KuszkAPI/Containers</text>
<text text-anchor="middle" x="364" y="-64" font-family="Helvetica,sans-Serif" font-size="10.00">/Common.h</text>
</g>
<!-- Node2 -->
<g id="node2" class="node"><title>Node2</title>
<g id="a_node2"><a xlink:href="_containers_2_common_2_declarations_8h.html" target="_top" xlink:title="Common\\Declarations.h">
<polygon fill="white" stroke="black" points="-0.5,-0.5 -0.5,-19.5 120.5,-19.5 120.5,-0.5 -0.5,-0.5"/>
<text text-anchor="middle" x="60" y="-7.5" font-family="Helvetica,sans-Serif" font-size="10.00">Common\Declarations.h</text>
</a>
</g>
</g>
<!-- Node1&#45;&gt;Node2 -->
<g id="edge1" class="edge"><title>Node1&#45;&gt;Node2</title>
<path fill="none" stroke="midnightblue" d="M308.948,-60.1345C253.376,-49.1664 168.133,-32.342 113.223,-21.5046"/>
<polygon fill="midnightblue" stroke="midnightblue" points="113.826,-18.0561 103.338,-19.5535 112.471,-24.9236 113.826,-18.0561"/>
</g>
<!-- Node3 -->
<g id="node3" class="node"><title>Node3</title>
<g id="a_node3"><a xlink:href="_list_8cpp.html" target="_top" xlink:title="Zawiera implementacje szablonu klasy List. ">
<polygon fill="white" stroke="black" points="138.5,-0.5 138.5,-19.5 231.5,-19.5 231.5,-0.5 138.5,-0.5"/>
<text text-anchor="middle" x="185" y="-7.5" font-family="Helvetica,sans-Serif" font-size="10.00">Common\List.cpp</text>
</a>
</g>
</g>
<!-- Node1&#45;&gt;Node3 -->
<g id="edge2" class="edge"><title>Node1&#45;&gt;Node3</title>
<path fill="none" stroke="midnightblue" d="M322.032,-56.9327C291.067,-46.553 249.406,-32.5887 220.178,-22.7916"/>
<polygon fill="midnightblue" stroke="midnightblue" points="220.99,-19.3724 210.396,-19.5127 218.765,-26.0095 220.99,-19.3724"/>
</g>
<!-- Node4 -->
<g id="node4" class="node"><title>Node4</title>
<g id="a_node4"><a xlink:href="_vector_8cpp.html" target="_top" xlink:title="Common\\Vector.cpp">
<polygon fill="white" stroke="black" points="250,-0.5 250,-19.5 356,-19.5 356,-0.5 250,-0.5"/>
<text text-anchor="middle" x="303" y="-7.5" font-family="Helvetica,sans-Serif" font-size="10.00">Common\Vector.cpp</text>
</a>
</g>
</g>
<!-- Node1&#45;&gt;Node4 -->
<g id="edge3" class="edge"><title>Node1&#45;&gt;Node4</title>
<path fill="none" stroke="midnightblue" d="M349.544,-56.7808C340.406,-47.7925 328.581,-36.162 319.138,-26.8731"/>
<polygon fill="midnightblue" stroke="midnightblue" points="321.46,-24.2477 311.876,-19.7305 316.551,-29.2382 321.46,-24.2477"/>
</g>
<!-- Node5 -->
<g id="node5" class="node"><title>Node5</title>
<g id="a_node5"><a xlink:href="_array_8cpp.html" target="_top" xlink:title="Zawiera implementacje szablonu klasy Array. ">
<polygon fill="white" stroke="black" points="374.5,-0.5 374.5,-19.5 475.5,-19.5 475.5,-0.5 374.5,-0.5"/>
<text text-anchor="middle" x="425" y="-7.5" font-family="Helvetica,sans-Serif" font-size="10.00">Common\Array.cpp</text>
</a>
</g>
</g>
<!-- Node1&#45;&gt;Node5 -->
<g id="edge4" class="edge"><title>Node1&#45;&gt;Node5</title>
<path fill="none" stroke="midnightblue" d="M378.456,-56.7808C387.594,-47.7925 399.419,-36.162 408.862,-26.8731"/>
<polygon fill="midnightblue" stroke="midnightblue" points="411.449,-29.2382 416.124,-19.7305 406.54,-24.2477 411.449,-29.2382"/>
</g>
<!-- Node6 -->
<g id="node6" class="node"><title>Node6</title>
<g id="a_node6"><a xlink:href="_box_8cpp.html" target="_top" xlink:title="Zawiera implementacje szablonu klasy Box. ">
<polygon fill="white" stroke="black" points="493.5,-0.5 493.5,-19.5 588.5,-19.5 588.5,-0.5 493.5,-0.5"/>
<text text-anchor="middle" x="541" y="-7.5" font-family="Helvetica,sans-Serif" font-size="10.00">Common\Box.cpp</text>
</a>
</g>
</g>
<!-- Node1&#45;&gt;Node6 -->
<g id="edge5" class="edge"><title>Node1&#45;&gt;Node6</title>
<path fill="none" stroke="midnightblue" d="M405.499,-56.9327C436.119,-46.553 477.313,-32.5887 506.215,-22.7916"/>
<polygon fill="midnightblue" stroke="midnightblue" points="507.541,-26.0379 515.888,-19.5127 505.293,-19.4084 507.541,-26.0379"/>
</g>
<!-- Node7 -->
<g id="node7" class="node"><title>Node7</title>
<g id="a_node7"><a xlink:href="_map_8cpp.html" target="_top" xlink:title="Common\\Map.cpp">
<polygon fill="white" stroke="black" points="607,-0.5 607,-19.5 703,-19.5 703,-0.5 607,-0.5"/>
<text text-anchor="middle" x="655" y="-7.5" font-family="Helvetica,sans-Serif" font-size="10.00">Common\Map.cpp</text>
</a>
</g>
</g>
<!-- Node1&#45;&gt;Node7 -->
<g id="edge6" class="edge"><title>Node1&#45;&gt;Node7</title>
<path fill="none" stroke="midnightblue" d="M419.077,-59.6439C472.216,-48.6873 552.016,-32.2339 603.806,-21.5554"/>
<polygon fill="midnightblue" stroke="midnightblue" points="604.688,-24.9474 613.775,-19.5 603.274,-18.0916 604.688,-24.9474"/>
</g>
</g>
</svg>
