<?xml version="1.0" encoding="UTF-8" standalone="no"?>
<!DOCTYPE svg PUBLIC "-//W3C//DTD SVG 1.1//EN"
 "http://www.w3.org/Graphics/SVG/1.1/DTD/svg11.dtd">
<!-- Generated by graphviz version 2.36.0 (20140111.2315)
 -->
<!-- Title: KuszkAPI/Forms/Controls.h Pages: 1 -->
<svg width="1459pt" height="84pt"
 viewBox="0.00 0.00 1459.00 84.00" xmlns="http://www.w3.org/2000/svg" xmlns:xlink="http://www.w3.org/1999/xlink">
<g id="graph0" class="graph" transform="scale(1 1) rotate(0) translate(4 80)">
<title>KuszkAPI/Forms/Controls.h</title>
<polygon fill="white" stroke="none" points="-4,4 -4,-80 1455,-80 1455,4 -4,4"/>
<!-- Node1 -->
<g id="node1" class="node"><title>Node1</title>
<polygon fill="#bfbfbf" stroke="black" points="646,-56.5 646,-75.5 784,-75.5 784,-56.5 646,-56.5"/>
<text text-anchor="middle" x="715" y="-63.5" font-family="Helvetica,sans-Serif" font-size="10.00">KuszkAPI/Forms/Controls.h</text>
</g>
<!-- Node2 -->
<g id="node2" class="node"><title>Node2</title>
<g id="a_node2"><a xlink:href="_forms_2_controls_2_declarations_8h.html" target="_top" xlink:title="Controls\\Declarations.h">
<polygon fill="white" stroke="black" points="0,-0.5 0,-19.5 118,-19.5 118,-0.5 0,-0.5"/>
<text text-anchor="middle" x="59" y="-7.5" font-family="Helvetica,sans-Serif" font-size="10.00">Controls\Declarations.h</text>
</a>
</g>
</g>
<!-- Node1&#45;&gt;Node2 -->
<g id="edge1" class="edge"><title>Node1&#45;&gt;Node2</title>
<path fill="none" stroke="midnightblue" d="M645.642,-60.9363C537.433,-54.3211 321.647,-40.0265 128.375,-20.0915"/>
<polygon fill="midnightblue" stroke="midnightblue" points="128.623,-16.5985 118.315,-19.0466 127.9,-23.5611 128.623,-16.5985"/>
</g>
<!-- Node3 -->
<g id="node3" class="node"><title>Node3</title>
<g id="a_node3"><a xlink:href="_button_8cpp.html" target="_top" xlink:title="Controls\\Button.cpp">
<polygon fill="white" stroke="black" points="136.5,-0.5 136.5,-19.5 239.5,-19.5 239.5,-0.5 136.5,-0.5"/>
<text text-anchor="middle" x="188" y="-7.5" font-family="Helvetica,sans-Serif" font-size="10.00">Controls\Button.cpp</text>
</a>
</g>
</g>
<!-- Node1&#45;&gt;Node3 -->
<g id="edge2" class="edge"><title>Node1&#45;&gt;Node3</title>
<path fill="none" stroke="midnightblue" d="M645.642,-59.4688C556.381,-52.0925 396.262,-37.9912 249.763,-20.1648"/>
<polygon fill="midnightblue" stroke="midnightblue" points="250.038,-16.6725 239.687,-18.9301 249.187,-23.6205 250.038,-16.6725"/>
</g>
<!-- Node4 -->
<g id="node4" class="node"><title>Node4</title>
<g id="a_node4"><a xlink:href="_radio_8cpp.html" target="_top" xlink:title="Controls\\Radio.cpp">
<polygon fill="white" stroke="black" points="257.5,-0.5 257.5,-19.5 356.5,-19.5 356.5,-0.5 257.5,-0.5"/>
<text text-anchor="middle" x="307" y="-7.5" font-family="Helvetica,sans-Serif" font-size="10.00">Controls\Radio.cpp</text>
</a>
</g>
</g>
<!-- Node1&#45;&gt;Node4 -->
<g id="edge3" class="edge"><title>Node1&#45;&gt;Node4</title>
<path fill="none" stroke="midnightblue" d="M645.739,-56.5489C577.476,-48.1103 469.924,-34.5241 366.552,-20.0489"/>
<polygon fill="midnightblue" stroke="midnightblue" points="366.952,-16.5708 356.562,-18.6454 365.978,-23.5028 366.952,-16.5708"/>
</g>
<!-- Node5 -->
<g id="node5" class="node"><title>Node5</title>
<g id="a_node5"><a xlink:href="_check_8cpp.html" target="_top" xlink:title="Controls\\Check.cpp">
<polygon fill="white" stroke="black" points="375,-0.5 375,-19.5 477,-19.5 477,-0.5 375,-0.5"/>
<text text-anchor="middle" x="426" y="-7.5" font-family="Helvetica,sans-Serif" font-size="10.00">Controls\Check.cpp</text>
</a>
</g>
</g>
<!-- Node1&#45;&gt;Node5 -->
<g id="edge4" class="edge"><title>Node1&#45;&gt;Node5</title>
<path fill="none" stroke="midnightblue" d="M669.207,-56.4435C618.263,-46.9246 535.966,-31.5472 481.426,-21.3563"/>
<polygon fill="midnightblue" stroke="midnightblue" points="482.051,-17.9128 471.579,-19.5164 480.766,-24.7937 482.051,-17.9128"/>
</g>
<!-- Node6 -->
<g id="node6" class="node"><title>Node6</title>
<g id="a_node6"><a xlink:href="_label_8cpp.html" target="_top" xlink:title="Controls\\Label.cpp">
<polygon fill="white" stroke="black" points="495,-0.5 495,-19.5 593,-19.5 593,-0.5 495,-0.5"/>
<text text-anchor="middle" x="544" y="-7.5" font-family="Helvetica,sans-Serif" font-size="10.00">Controls\Label.cpp</text>
</a>
</g>
</g>
<!-- Node1&#45;&gt;Node6 -->
<g id="edge5" class="edge"><title>Node1&#45;&gt;Node6</title>
<path fill="none" stroke="midnightblue" d="M687.905,-56.4435C659.012,-47.3196 613.075,-32.8133 580.895,-22.6509"/>
<polygon fill="midnightblue" stroke="midnightblue" points="581.559,-19.1903 570.969,-19.5164 579.451,-25.8654 581.559,-19.1903"/>
</g>
<!-- Node7 -->
<g id="node7" class="node"><title>Node7</title>
<g id="a_node7"><a xlink:href="_edit_8cpp.html" target="_top" xlink:title="Controls\\Edit.cpp">
<polygon fill="white" stroke="black" points="611,-0.5 611,-19.5 703,-19.5 703,-0.5 611,-0.5"/>
<text text-anchor="middle" x="657" y="-7.5" font-family="Helvetica,sans-Serif" font-size="10.00">Controls\Edit.cpp</text>
</a>
</g>
</g>
<!-- Node1&#45;&gt;Node7 -->
<g id="edge6" class="edge"><title>Node1&#45;&gt;Node7</title>
<path fill="none" stroke="midnightblue" d="M705.681,-56.324C697.107,-48.3414 684.188,-36.3128 673.812,-26.6529"/>
<polygon fill="midnightblue" stroke="midnightblue" points="676.192,-24.0865 666.488,-19.8339 671.422,-29.2098 676.192,-24.0865"/>
</g>
<!-- Node8 -->
<g id="node8" class="node"><title>Node8</title>
<g id="a_node8"><a xlink:href="_listbox_8cpp.html" target="_top" xlink:title="Controls\\Listbox.cpp">
<polygon fill="white" stroke="black" points="721,-0.5 721,-19.5 827,-19.5 827,-0.5 721,-0.5"/>
<text text-anchor="middle" x="774" y="-7.5" font-family="Helvetica,sans-Serif" font-size="10.00">Controls\Listbox.cpp</text>
</a>
</g>
</g>
<!-- Node1&#45;&gt;Node8 -->
<g id="edge7" class="edge"><title>Node1&#45;&gt;Node8</title>
<path fill="none" stroke="midnightblue" d="M724.479,-56.324C733.201,-48.3414 746.343,-36.3128 756.898,-26.6529"/>
<polygon fill="midnightblue" stroke="midnightblue" points="759.334,-29.1674 764.348,-19.8339 754.608,-24.0036 759.334,-29.1674"/>
</g>
<!-- Node9 -->
<g id="node9" class="node"><title>Node9</title>
<g id="a_node9"><a xlink:href="_combobox_8cpp.html" target="_top" xlink:title="Controls\\Combobox.cpp">
<polygon fill="white" stroke="black" points="845.5,-0.5 845.5,-19.5 966.5,-19.5 966.5,-0.5 845.5,-0.5"/>
<text text-anchor="middle" x="906" y="-7.5" font-family="Helvetica,sans-Serif" font-size="10.00">Controls\Combobox.cpp</text>
</a>
</g>
</g>
<!-- Node1&#45;&gt;Node9 -->
<g id="edge8" class="edge"><title>Node1&#45;&gt;Node9</title>
<path fill="none" stroke="midnightblue" d="M745.265,-56.4435C777.955,-47.2011 830.182,-32.4356 866.183,-22.2572"/>
<polygon fill="midnightblue" stroke="midnightblue" points="867.206,-25.6051 875.877,-19.5164 865.302,-18.8691 867.206,-25.6051"/>
</g>
<!-- Node10 -->
<g id="node10" class="node"><title>Node10</title>
<g id="a_node10"><a xlink:href="_table_8cpp.html" target="_top" xlink:title="Controls\\Table.cpp">
<polygon fill="white" stroke="black" points="985,-0.5 985,-19.5 1083,-19.5 1083,-0.5 985,-0.5"/>
<text text-anchor="middle" x="1034" y="-7.5" font-family="Helvetica,sans-Serif" font-size="10.00">Controls\Table.cpp</text>
</a>
</g>
</g>
<!-- Node1&#45;&gt;Node10 -->
<g id="edge9" class="edge"><title>Node1&#45;&gt;Node10</title>
<path fill="none" stroke="midnightblue" d="M765.546,-56.4435C822.427,-46.8149 914.719,-31.1917 974.891,-21.0058"/>
<polygon fill="midnightblue" stroke="midnightblue" points="975.723,-24.4149 984.999,-19.2948 974.555,-17.5131 975.723,-24.4149"/>
</g>
<!-- Node11 -->
<g id="node11" class="node"><title>Node11</title>
<g id="a_node11"><a xlink:href="_calendar_8cpp.html" target="_top" xlink:title="Controls\\Calendar.cpp">
<polygon fill="white" stroke="black" points="1101.5,-0.5 1101.5,-19.5 1214.5,-19.5 1214.5,-0.5 1101.5,-0.5"/>
<text text-anchor="middle" x="1158" y="-7.5" font-family="Helvetica,sans-Serif" font-size="10.00">Controls\Calendar.cpp</text>
</a>
</g>
</g>
<!-- Node1&#45;&gt;Node11 -->
<g id="edge10" class="edge"><title>Node1&#45;&gt;Node11</title>
<path fill="none" stroke="midnightblue" d="M784.181,-57.0937C857.686,-48.6136 977.579,-34.5549 1091.53,-20.0403"/>
<polygon fill="midnightblue" stroke="midnightblue" points="1092.01,-23.5086 1101.48,-18.7702 1091.12,-16.565 1092.01,-23.5086"/>
</g>
<!-- Node12 -->
<g id="node12" class="node"><title>Node12</title>
<g id="a_node12"><a xlink:href="_tab_8cpp.html" target="_top" xlink:title="Controls\\Tab.cpp">
<polygon fill="white" stroke="black" points="1233,-0.5 1233,-19.5 1323,-19.5 1323,-0.5 1233,-0.5"/>
<text text-anchor="middle" x="1278" y="-7.5" font-family="Helvetica,sans-Serif" font-size="10.00">Controls\Tab.cpp</text>
</a>
</g>
</g>
<!-- Node1&#45;&gt;Node12 -->
<g id="edge11" class="edge"><title>Node1&#45;&gt;Node12</title>
<path fill="none" stroke="midnightblue" d="M784.193,-60.4973C880.109,-53.8937 1059.1,-40.2657 1222.48,-19.9656"/>
<polygon fill="midnightblue" stroke="midnightblue" points="1223.23,-23.3986 1232.72,-18.6817 1222.36,-16.453 1223.23,-23.3986"/>
</g>
<!-- Node13 -->
<g id="node13" class="node"><title>Node13</title>
<g id="a_node13"><a xlink:href="_controls_8cpp.html" target="_top" xlink:title="Controls\\Controls.cpp">
<polygon fill="white" stroke="black" points="1341,-0.5 1341,-19.5 1451,-19.5 1451,-0.5 1341,-0.5"/>
<text text-anchor="middle" x="1396" y="-7.5" font-family="Helvetica,sans-Serif" font-size="10.00">Controls\Controls.cpp</text>
</a>
</g>
</g>
<!-- Node1&#45;&gt;Node13 -->
<g id="edge12" class="edge"><title>Node1&#45;&gt;Node13</title>
<path fill="none" stroke="midnightblue" d="M784.072,-61.4737C896.451,-55.4031 1126.07,-41.6122 1330.83,-20.0564"/>
<polygon fill="midnightblue" stroke="midnightblue" points="1331.3,-23.5269 1340.87,-18.9911 1330.56,-16.5659 1331.3,-23.5269"/>
</g>
</g>
</svg>
