<?xml version="1.0" encoding="UTF-8" standalone="no"?>
<!DOCTYPE svg PUBLIC "-//W3C//DTD SVG 1.1//EN"
 "http://www.w3.org/Graphics/SVG/1.1/DTD/svg11.dtd">
<!-- Generated by graphviz version 2.36.0 (20140111.2315)
 -->
<!-- Title: KuszkAPI/Containers.h Pages: 1 -->
<!--zoomable 140 -->
<svg id="main" version="1.1" xmlns="http://www.w3.org/2000/svg" xmlns:xlink="http://www.w3.org/1999/xlink" xml:space="preserve" onload="init(evt)">
<style type="text/css"><![CDATA[
.edge:hover path { stroke: red; }
.edge:hover polygon { stroke: red; fill: red; }
]]></style>
<script type="text/javascript"><![CDATA[
var edges = document.getElementsByTagName('g');
if (edges && edges.length) {
  for (var i=0;i<edges.length;i++) {
    if (edges[i].id.substr(0,4)=='edge') {
      edges[i].setAttribute('class','edge');
    }
  }
}
]]></script>
        <defs>
                <circle id="rim" cx="0" cy="0" r="7"/>
                <circle id="rim2" cx="0" cy="0" r="3.5"/>
                <g id="zoomPlus">
                        <use xlink:href="#rim" fill="#404040">
                                <set attributeName="fill" to="#808080" begin="zoomplus.mouseover" end="zoomplus.mouseout"/>
                        </use>
                        <path d="M-4,0h8M0,-4v8" fill="none" stroke="white" stroke-width="1.5" pointer-events="none"/>
                </g>
                <g id="zoomMin">
                        <use xlink:href="#rim" fill="#404040">
                                <set attributeName="fill" to="#808080" begin="zoomminus.mouseover" end="zoomminus.mouseout"/>
                        </use>
                        <path d="M-4,0h8" fill="none" stroke="white" stroke-width="1.5" pointer-events="none"/>
                </g>
                <g id="dirArrow">
                        <path fill="none" stroke="white" stroke-width="1.5" d="M0,-3.0v7 M-2.5,-0.5L0,-3.0L2.5,-0.5"/>
                </g>
               <g id="resetDef">
                       <use xlink:href="#rim2" fill="#404040">
                               <set attributeName="fill" to="#808080" begin="reset.mouseover" end="reset.mouseout"/>
                       </use>
               </g>
        </defs>

<script type="text/javascript">
var viewWidth = 1650;
var viewHeight = 140;
var sectionId = 'dynsection-0';
</script>
<script xlink:href="svgpan.js"/>
<svg id="graph" class="graph">
<g id="viewport">
<title>KuszkAPI/Containers.h</title>
<polygon fill="white" stroke="none" points="-4,4 -4,-136 1646,-136 1646,4 -4,4"/>
<!-- Node1 -->
<g id="node1" class="node"><title>Node1</title>
<polygon fill="#bfbfbf" stroke="black" points="784,-112.5 784,-131.5 902,-131.5 902,-112.5 784,-112.5"/>
<text text-anchor="middle" x="843" y="-119.5" font-family="Helvetica,sans-Serif" font-size="10.00">KuszkAPI/Containers.h</text>
</g>
<!-- Node2 -->
<g id="node2" class="node"><title>Node2</title>
<polygon fill="white" stroke="#bfbfbf" points="227.5,-56.5 227.5,-75.5 292.5,-75.5 292.5,-56.5 227.5,-56.5"/>
<text text-anchor="middle" x="260" y="-63.5" font-family="Helvetica,sans-Serif" font-size="10.00">Windows.h</text>
</g>
<!-- Node1&#45;&gt;Node2 -->
<g id="edge1" class="edge"><title>Node1&#45;&gt;Node2</title>
<path fill="none" stroke="midnightblue" d="M783.753,-118.667C685.571,-114.234 482.86,-102.684 302.531,-76.0522"/>
<polygon fill="midnightblue" stroke="midnightblue" points="303.009,-72.5848 292.601,-74.5669 301.973,-79.5078 303.009,-72.5848"/>
</g>
<!-- Node3 -->
<g id="node3" class="node"><title>Node3</title>
<g id="a_node3"><a xlink:href="_containers_2_base_8h.html" target="_top" xlink:title="Dołącza bazowe składniki modułu Containers.h. ">
<polygon fill="white" stroke="black" points="310.5,-56.5 310.5,-75.5 407.5,-75.5 407.5,-56.5 310.5,-56.5"/>
<text text-anchor="middle" x="359" y="-63.5" font-family="Helvetica,sans-Serif" font-size="10.00">Containers\Base.h</text>
</a>
</g>
</g>
<!-- Node1&#45;&gt;Node3 -->
<g id="edge2" class="edge"><title>Node1&#45;&gt;Node3</title>
<path fill="none" stroke="midnightblue" d="M783.652,-114.379C690.345,-103.968 510.426,-83.8947 417.59,-73.5369"/>
<polygon fill="midnightblue" stroke="midnightblue" points="417.852,-70.0445 407.526,-72.4141 417.076,-77.0014 417.852,-70.0445"/>
</g>
<!-- Node6 -->
<g id="node6" class="node"><title>Node6</title>
<g id="a_node6"><a xlink:href="_common_8h.html" target="_top" xlink:title="Dołącza powszechne składniki modułu Containers.h. ">
<polygon fill="white" stroke="black" points="611.5,-56.5 611.5,-75.5 724.5,-75.5 724.5,-56.5 611.5,-56.5"/>
<text text-anchor="middle" x="668" y="-63.5" font-family="Helvetica,sans-Serif" font-size="10.00">Containers\Common.h</text>
</a>
</g>
</g>
<!-- Node1&#45;&gt;Node6 -->
<g id="edge5" class="edge"><title>Node1&#45;&gt;Node6</title>
<path fill="none" stroke="midnightblue" d="M815.271,-112.444C785.574,-103.28 738.284,-88.6876 705.331,-78.5192"/>
<polygon fill="midnightblue" stroke="midnightblue" points="706.187,-75.1206 695.6,-75.5164 704.123,-81.8094 706.187,-75.1206"/>
</g>
<!-- Node13 -->
<g id="node13" class="node"><title>Node13</title>
<g id="a_node13"><a xlink:href="_string_8h.html" target="_top" xlink:title="Dołącza składnik obsługi łańcuchów znakowych z modułu Containers.h. ">
<polygon fill="white" stroke="black" points="968,-56.5 968,-75.5 1068,-75.5 1068,-56.5 968,-56.5"/>
<text text-anchor="middle" x="1018" y="-63.5" font-family="Helvetica,sans-Serif" font-size="10.00">Containers\String.h</text>
</a>
</g>
</g>
<!-- Node1&#45;&gt;Node13 -->
<g id="edge12" class="edge"><title>Node1&#45;&gt;Node13</title>
<path fill="none" stroke="midnightblue" d="M870.729,-112.444C900.426,-103.28 947.716,-88.6876 980.669,-78.5192"/>
<polygon fill="midnightblue" stroke="midnightblue" points="981.877,-81.8094 990.4,-75.5164 979.813,-75.1206 981.877,-81.8094"/>
</g>
<!-- Node16 -->
<g id="node16" class="node"><title>Node16</title>
<g id="a_node16"><a xlink:href="_files_8h.html" target="_top" xlink:title="Dołącza składnik obsługi plików z modułu Containers.h. ">
<polygon fill="white" stroke="black" points="1200.5,-56.5 1200.5,-75.5 1295.5,-75.5 1295.5,-56.5 1200.5,-56.5"/>
<text text-anchor="middle" x="1248" y="-63.5" font-family="Helvetica,sans-Serif" font-size="10.00">Containers\Files.h</text>
</a>
</g>
</g>
<!-- Node1&#45;&gt;Node16 -->
<g id="edge15" class="edge"><title>Node1&#45;&gt;Node16</title>
<path fill="none" stroke="midnightblue" d="M902.324,-113.09C979.599,-102.787 1113.82,-84.8901 1190.29,-74.6941"/>
<polygon fill="midnightblue" stroke="midnightblue" points="1190.78,-78.1597 1200.23,-73.3687 1189.86,-71.2211 1190.78,-78.1597"/>
</g>
<!-- Node19 -->
<g id="node19" class="node"><title>Node19</title>
<g id="a_node19"><a xlink:href="_strings_8h.html" target="_top" xlink:title="Dołącza składnik obsługi listy łańcuchów znakowych z modułu Containers.h. ">
<polygon fill="white" stroke="black" points="1414.5,-56.5 1414.5,-75.5 1519.5,-75.5 1519.5,-56.5 1414.5,-56.5"/>
<text text-anchor="middle" x="1467" y="-63.5" font-family="Helvetica,sans-Serif" font-size="10.00">Containers\Strings.h</text>
</a>
</g>
</g>
<!-- Node1&#45;&gt;Node19 -->
<g id="edge18" class="edge"><title>Node1&#45;&gt;Node19</title>
<path fill="none" stroke="midnightblue" d="M902.267,-115.871C1020.21,-105.664 1283.35,-82.8929 1404.16,-72.4379"/>
<polygon fill="midnightblue" stroke="midnightblue" points="1404.69,-75.905 1414.36,-71.5557 1404.09,-68.931 1404.69,-75.905"/>
</g>
<!-- Node4 -->
<g id="node4" class="node"><title>Node4</title>
<g id="a_node4"><a xlink:href="_containers_2_base_2_declarations_8h.html" target="_top" xlink:title="Deklaracje dla pliku Container.cpp. ">
<polygon fill="white" stroke="black" points="0,-0.5 0,-19.5 104,-19.5 104,-0.5 0,-0.5"/>
<text text-anchor="middle" x="52" y="-7.5" font-family="Helvetica,sans-Serif" font-size="10.00">Base\Declarations.h</text>
</a>
</g>
</g>
<!-- Node3&#45;&gt;Node4 -->
<g id="edge3" class="edge"><title>Node3&#45;&gt;Node4</title>
<path fill="none" stroke="midnightblue" d="M310.355,-56.4435C256.126,-46.9049 168.452,-31.4834 110.518,-21.293"/>
<polygon fill="midnightblue" stroke="midnightblue" points="110.873,-17.8018 100.417,-19.5164 109.66,-24.696 110.873,-17.8018"/>
</g>
<!-- Node5 -->
<g id="node5" class="node"><title>Node5</title>
<g id="a_node5"><a xlink:href="_container_8cpp.html" target="_top" xlink:title="Zawiera implementacje klasy Container. ">
<polygon fill="white" stroke="black" points="122,-0.5 122,-19.5 224,-19.5 224,-0.5 122,-0.5"/>
<text text-anchor="middle" x="173" y="-7.5" font-family="Helvetica,sans-Serif" font-size="10.00">Base\Container.cpp</text>
</a>
</g>
</g>
<!-- Node3&#45;&gt;Node5 -->
<g id="edge4" class="edge"><title>Node3&#45;&gt;Node5</title>
<path fill="none" stroke="midnightblue" d="M329.528,-56.4435C297.829,-47.2406 247.268,-32.5617 212.225,-22.3879"/>
<polygon fill="midnightblue" stroke="midnightblue" points="212.914,-18.9434 202.334,-19.5164 210.962,-25.6658 212.914,-18.9434"/>
</g>
<!-- Node7 -->
<g id="node7" class="node"><title>Node7</title>
<g id="a_node7"><a xlink:href="_containers_2_common_2_declarations_8h.html" target="_top" xlink:title="Common\\Declarations.h">
<polygon fill="white" stroke="black" points="242.5,-0.5 242.5,-19.5 363.5,-19.5 363.5,-0.5 242.5,-0.5"/>
<text text-anchor="middle" x="303" y="-7.5" font-family="Helvetica,sans-Serif" font-size="10.00">Common\Declarations.h</text>
</a>
</g>
</g>
<!-- Node6&#45;&gt;Node7 -->
<g id="edge6" class="edge"><title>Node6&#45;&gt;Node7</title>
<path fill="none" stroke="midnightblue" d="M611.369,-56.6217C546.384,-47.0075 439.885,-31.2514 370.61,-21.0025"/>
<polygon fill="midnightblue" stroke="midnightblue" points="371.073,-17.533 360.668,-19.5317 370.048,-24.4576 371.073,-17.533"/>
</g>
<!-- Node8 -->
<g id="node8" class="node"><title>Node8</title>
<g id="a_node8"><a xlink:href="_list_8cpp.html" target="_top" xlink:title="Zawiera implementacje szablonu klasy List. ">
<polygon fill="white" stroke="black" points="381.5,-0.5 381.5,-19.5 474.5,-19.5 474.5,-0.5 381.5,-0.5"/>
<text text-anchor="middle" x="428" y="-7.5" font-family="Helvetica,sans-Serif" font-size="10.00">Common\List.cpp</text>
</a>
</g>
</g>
<!-- Node6&#45;&gt;Node8 -->
<g id="edge7" class="edge"><title>Node6&#45;&gt;Node8</title>
<path fill="none" stroke="midnightblue" d="M629.971,-56.4435C588.192,-47.0431 521.018,-31.9291 475.73,-21.7393"/>
<polygon fill="midnightblue" stroke="midnightblue" points="476.375,-18.297 465.851,-19.5164 474.839,-25.1263 476.375,-18.297"/>
</g>
<!-- Node9 -->
<g id="node9" class="node"><title>Node9</title>
<g id="a_node9"><a xlink:href="_vector_8cpp.html" target="_top" xlink:title="Common\\Vector.cpp">
<polygon fill="white" stroke="black" points="493,-0.5 493,-19.5 599,-19.5 599,-0.5 493,-0.5"/>
<text text-anchor="middle" x="546" y="-7.5" font-family="Helvetica,sans-Serif" font-size="10.00">Common\Vector.cpp</text>
</a>
</g>
</g>
<!-- Node6&#45;&gt;Node9 -->
<g id="edge8" class="edge"><title>Node6&#45;&gt;Node9</title>
<path fill="none" stroke="midnightblue" d="M648.669,-56.4435C628.68,-47.5961 597.257,-33.6875 574.436,-23.5865"/>
<polygon fill="midnightblue" stroke="midnightblue" points="575.802,-20.3635 565.241,-19.5164 572.968,-26.7645 575.802,-20.3635"/>
</g>
<!-- Node10 -->
<g id="node10" class="node"><title>Node10</title>
<g id="a_node10"><a xlink:href="_array_8cpp.html" target="_top" xlink:title="Zawiera implementacje szablonu klasy Array. ">
<polygon fill="white" stroke="black" points="617.5,-0.5 617.5,-19.5 718.5,-19.5 718.5,-0.5 617.5,-0.5"/>
<text text-anchor="middle" x="668" y="-7.5" font-family="Helvetica,sans-Serif" font-size="10.00">Common\Array.cpp</text>
</a>
</g>
</g>
<!-- Node6&#45;&gt;Node10 -->
<g id="edge9" class="edge"><title>Node6&#45;&gt;Node10</title>
<path fill="none" stroke="midnightblue" d="M668,-56.083C668,-49.0059 668,-38.8611 668,-29.9865"/>
<polygon fill="midnightblue" stroke="midnightblue" points="671.5,-29.751 668,-19.7511 664.5,-29.7511 671.5,-29.751"/>
</g>
<!-- Node11 -->
<g id="node11" class="node"><title>Node11</title>
<g id="a_node11"><a xlink:href="_box_8cpp.html" target="_top" xlink:title="Zawiera implementacje szablonu klasy Box. ">
<polygon fill="white" stroke="black" points="736.5,-0.5 736.5,-19.5 831.5,-19.5 831.5,-0.5 736.5,-0.5"/>
<text text-anchor="middle" x="784" y="-7.5" font-family="Helvetica,sans-Serif" font-size="10.00">Common\Box.cpp</text>
</a>
</g>
</g>
<!-- Node6&#45;&gt;Node11 -->
<g id="edge10" class="edge"><title>Node6&#45;&gt;Node11</title>
<path fill="none" stroke="midnightblue" d="M686.381,-56.4435C705.216,-47.6751 734.731,-33.9355 756.379,-23.8579"/>
<polygon fill="midnightblue" stroke="midnightblue" points="758.117,-26.9098 765.705,-19.5164 755.162,-20.5637 758.117,-26.9098"/>
</g>
<!-- Node12 -->
<g id="node12" class="node"><title>Node12</title>
<g id="a_node12"><a xlink:href="_map_8cpp.html" target="_top" xlink:title="Common\\Map.cpp">
<polygon fill="white" stroke="black" points="850,-0.5 850,-19.5 946,-19.5 946,-0.5 850,-0.5"/>
<text text-anchor="middle" x="898" y="-7.5" font-family="Helvetica,sans-Serif" font-size="10.00">Common\Map.cpp</text>
</a>
</g>
</g>
<!-- Node6&#45;&gt;Node12 -->
<g id="edge11" class="edge"><title>Node6&#45;&gt;Node12</title>
<path fill="none" stroke="midnightblue" d="M704.444,-56.4435C744.399,-47.0629 808.587,-31.9926 851.985,-21.8036"/>
<polygon fill="midnightblue" stroke="midnightblue" points="852.791,-25.2095 861.726,-19.5164 851.191,-18.3948 852.791,-25.2095"/>
</g>
<!-- Node14 -->
<g id="node14" class="node"><title>Node14</title>
<g id="a_node14"><a xlink:href="_containers_2_string_2_declarations_8h.html" target="_top" xlink:title="String\\Declarations.h">
<polygon fill="white" stroke="black" points="964.5,-0.5 964.5,-19.5 1071.5,-19.5 1071.5,-0.5 964.5,-0.5"/>
<text text-anchor="middle" x="1018" y="-7.5" font-family="Helvetica,sans-Serif" font-size="10.00">String\Declarations.h</text>
</a>
</g>
</g>
<!-- Node13&#45;&gt;Node14 -->
<g id="edge13" class="edge"><title>Node13&#45;&gt;Node14</title>
<path fill="none" stroke="midnightblue" d="M1018,-56.083C1018,-49.0059 1018,-38.8611 1018,-29.9865"/>
<polygon fill="midnightblue" stroke="midnightblue" points="1021.5,-29.751 1018,-19.7511 1014.5,-29.7511 1021.5,-29.751"/>
</g>
<!-- Node15 -->
<g id="node15" class="node"><title>Node15</title>
<g id="a_node15"><a xlink:href="_string_8cpp.html" target="_top" xlink:title="String\\String.cpp">
<polygon fill="white" stroke="black" points="1089.5,-0.5 1089.5,-19.5 1178.5,-19.5 1178.5,-0.5 1089.5,-0.5"/>
<text text-anchor="middle" x="1134" y="-7.5" font-family="Helvetica,sans-Serif" font-size="10.00">String\String.cpp</text>
</a>
</g>
</g>
<!-- Node13&#45;&gt;Node15 -->
<g id="edge14" class="edge"><title>Node13&#45;&gt;Node15</title>
<path fill="none" stroke="midnightblue" d="M1036.38,-56.4435C1055.22,-47.6751 1084.73,-33.9355 1106.38,-23.8579"/>
<polygon fill="midnightblue" stroke="midnightblue" points="1108.12,-26.9098 1115.71,-19.5164 1105.16,-20.5637 1108.12,-26.9098"/>
</g>
<!-- Node17 -->
<g id="node17" class="node"><title>Node17</title>
<g id="a_node17"><a xlink:href="_containers_2_files_2_declarations_8h.html" target="_top" xlink:title="Files\\Declarations.h">
<polygon fill="white" stroke="black" points="1196.5,-0.5 1196.5,-19.5 1299.5,-19.5 1299.5,-0.5 1196.5,-0.5"/>
<text text-anchor="middle" x="1248" y="-7.5" font-family="Helvetica,sans-Serif" font-size="10.00">Files\Declarations.h</text>
</a>
</g>
</g>
<!-- Node16&#45;&gt;Node17 -->
<g id="edge16" class="edge"><title>Node16&#45;&gt;Node17</title>
<path fill="none" stroke="midnightblue" d="M1248,-56.083C1248,-49.0059 1248,-38.8611 1248,-29.9865"/>
<polygon fill="midnightblue" stroke="midnightblue" points="1251.5,-29.751 1248,-19.7511 1244.5,-29.7511 1251.5,-29.751"/>
</g>
<!-- Node18 -->
<g id="node18" class="node"><title>Node18</title>
<g id="a_node18"><a xlink:href="_file_8cpp.html" target="_top" xlink:title="Files\\File.cpp">
<polygon fill="white" stroke="black" points="1317.5,-0.5 1317.5,-19.5 1392.5,-19.5 1392.5,-0.5 1317.5,-0.5"/>
<text text-anchor="middle" x="1355" y="-7.5" font-family="Helvetica,sans-Serif" font-size="10.00">Files\File.cpp</text>
</a>
</g>
</g>
<!-- Node16&#45;&gt;Node18 -->
<g id="edge17" class="edge"><title>Node16&#45;&gt;Node18</title>
<path fill="none" stroke="midnightblue" d="M1265.19,-56.324C1282.35,-47.6641 1308.95,-34.2424 1328.75,-24.249"/>
<polygon fill="midnightblue" stroke="midnightblue" points="1330.5,-27.2847 1337.85,-19.6545 1327.35,-21.0354 1330.5,-27.2847"/>
</g>
<!-- Node20 -->
<g id="node20" class="node"><title>Node20</title>
<g id="a_node20"><a xlink:href="_containers_2_strings_2_declarations_8h.html" target="_top" xlink:title="Strings\\Declarations.h">
<polygon fill="white" stroke="black" points="1410.5,-0.5 1410.5,-19.5 1523.5,-19.5 1523.5,-0.5 1410.5,-0.5"/>
<text text-anchor="middle" x="1467" y="-7.5" font-family="Helvetica,sans-Serif" font-size="10.00">Strings\Declarations.h</text>
</a>
</g>
</g>
<!-- Node19&#45;&gt;Node20 -->
<g id="edge19" class="edge"><title>Node19&#45;&gt;Node20</title>
<path fill="none" stroke="midnightblue" d="M1467,-56.083C1467,-49.0059 1467,-38.8611 1467,-29.9865"/>
<polygon fill="midnightblue" stroke="midnightblue" points="1470.5,-29.751 1467,-19.7511 1463.5,-29.7511 1470.5,-29.751"/>
</g>
<!-- Node21 -->
<g id="node21" class="node"><title>Node21</title>
<g id="a_node21"><a xlink:href="_strings_8cpp.html" target="_top" xlink:title="Strings\\Strings.cpp">
<polygon fill="white" stroke="black" points="1542,-0.5 1542,-19.5 1642,-19.5 1642,-0.5 1542,-0.5"/>
<text text-anchor="middle" x="1592" y="-7.5" font-family="Helvetica,sans-Serif" font-size="10.00">Strings\Strings.cpp</text>
</a>
</g>
</g>
<!-- Node19&#45;&gt;Node21 -->
<g id="edge20" class="edge"><title>Node19&#45;&gt;Node21</title>
<path fill="none" stroke="midnightblue" d="M1486.81,-56.4435C1507.29,-47.5961 1539.48,-33.6875 1562.86,-23.5865"/>
<polygon fill="midnightblue" stroke="midnightblue" points="1564.49,-26.6953 1572.29,-19.5164 1561.72,-20.2692 1564.49,-26.6953"/>
</g>
</g>
</svg>
        <g id="navigator" transform="translate(0 0)" fill="#404254">
                <rect fill="#f2f5e9" fill-opacity="0.5" stroke="#606060" stroke-width=".5" x="0" y="0" width="60" height="60"/>
                <use id="zoomplus" xlink:href="#zoomPlus" x="17" y="9" onmousedown="handleZoom(evt,'in')"/>
                <use id="zoomminus" xlink:href="#zoomMin" x="42" y="9" onmousedown="handleZoom(evt,'out')"/>
                <use id="reset" xlink:href="#resetDef" x="30" y="36" onmousedown="handleReset()"/>
                <g id="arrowUp" xlink:href="#dirArrow" transform="translate(30 24)" onmousedown="handlePan(0,-1)">
                  <use xlink:href="#rim" fill="#404040">
                        <set attributeName="fill" to="#808080" begin="arrowUp.mouseover" end="arrowUp.mouseout"/>
                  </use>
                  <path fill="none" stroke="white" stroke-width="1.5" d="M0,-3.0v7 M-2.5,-0.5L0,-3.0L2.5,-0.5"/>
                </g>
                <g id="arrowRight" xlink:href="#dirArrow" transform="rotate(90) translate(36 -43)" onmousedown="handlePan(1,0)">
                  <use xlink:href="#rim" fill="#404040">
                        <set attributeName="fill" to="#808080" begin="arrowRight.mouseover" end="arrowRight.mouseout"/>
                  </use>
                  <path fill="none" stroke="white" stroke-width="1.5" d="M0,-3.0v7 M-2.5,-0.5L0,-3.0L2.5,-0.5"/>
                </g>
                <g id="arrowDown" xlink:href="#dirArrow" transform="rotate(180) translate(-30 -48)" onmousedown="handlePan(0,1)">
                  <use xlink:href="#rim" fill="#404040">
                        <set attributeName="fill" to="#808080" begin="arrowDown.mouseover" end="arrowDown.mouseout"/>
                  </use>
                  <path fill="none" stroke="white" stroke-width="1.5" d="M0,-3.0v7 M-2.5,-0.5L0,-3.0L2.5,-0.5"/>
                </g>
                <g id="arrowLeft" xlink:href="#dirArrow" transform="rotate(270) translate(-36 17)" onmousedown="handlePan(-1,0)">
                  <use xlink:href="#rim" fill="#404040">
                        <set attributeName="fill" to="#808080" begin="arrowLeft.mouseover" end="arrowLeft.mouseout"/>
                  </use>
                  <path fill="none" stroke="white" stroke-width="1.5" d="M0,-3.0v7 M-2.5,-0.5L0,-3.0L2.5,-0.5"/>
                </g>
        </g>
        <svg viewBox="0 0 15 15" width="100%" height="30px" preserveAspectRatio="xMaxYMin meet">
         <g id="arrow_out" transform="scale(0.3 0.3)">
          <a xlink:href="_containers_8h__incl_org.svg" target="_base">
           <rect id="button" ry="5" rx="5" y="6" x="6" height="38" width="38"
                fill="#f2f5e9" fill-opacity="0.5" stroke="#606060" stroke-width="1.0"/>
           <path id="arrow"
             d="M 11.500037,31.436501 C 11.940474,20.09759 22.043105,11.32322 32.158766,21.979434 L 37.068811,17.246167 C 37.068811,17.246167 37.088388,32 37.088388,32 L 22.160133,31.978069 C 22.160133,31.978069 26.997745,27.140456 26.997745,27.140456 C 18.528582,18.264221 13.291696,25.230495 11.500037,31.436501 z"
             style="fill:#404040;"/>
          </a>
         </g>
        </svg>
</svg>
