<?xml version="1.0" encoding="UTF-8" standalone="no"?>
<!DOCTYPE svg PUBLIC "-//W3C//DTD SVG 1.1//EN"
 "http://www.w3.org/Graphics/SVG/1.1/DTD/svg11.dtd">
<!-- Generated by graphviz version 2.36.0 (20140111.2315)
 -->
<!-- Title: KuszkAPI/Containers/Base.h Pages: 1 -->
<svg width="232pt" height="96pt"
 viewBox="0.00 0.00 232.00 96.00" xmlns="http://www.w3.org/2000/svg" xmlns:xlink="http://www.w3.org/1999/xlink">
<g id="graph0" class="graph" transform="scale(1 1) rotate(0) translate(4 92)">
<title>KuszkAPI/Containers/Base.h</title>
<polygon fill="white" stroke="none" points="-4,4 -4,-92 228,-92 228,4 -4,4"/>
<!-- Node1 -->
<g id="node1" class="node"><title>Node1</title>
<polygon fill="#bfbfbf" stroke="black" points="57,-57 57,-87 167,-87 167,-57 57,-57"/>
<text text-anchor="start" x="65" y="-75" font-family="Helvetica,sans-Serif" font-size="10.00">KuszkAPI/Containers</text>
<text text-anchor="middle" x="112" y="-64" font-family="Helvetica,sans-Serif" font-size="10.00">/Base.h</text>
</g>
<!-- Node2 -->
<g id="node2" class="node"><title>Node2</title>
<g id="a_node2"><a xlink:href="_containers_2_base_2_declarations_8h.html" target="_top" xlink:title="Deklaracje dla pliku Container.cpp. ">
<polygon fill="white" stroke="black" points="0,-0.5 0,-19.5 104,-19.5 104,-0.5 0,-0.5"/>
<text text-anchor="middle" x="52" y="-7.5" font-family="Helvetica,sans-Serif" font-size="10.00">Base\Declarations.h</text>
</a>
</g>
</g>
<!-- Node1&#45;&gt;Node2 -->
<g id="edge1" class="edge"><title>Node1&#45;&gt;Node2</title>
<path fill="none" stroke="midnightblue" d="M97.7808,-56.7808C88.7925,-47.7925 77.162,-36.162 67.8731,-26.8731"/>
<polygon fill="midnightblue" stroke="midnightblue" points="70.2765,-24.3267 60.7305,-19.7305 65.3267,-29.2765 70.2765,-24.3267"/>
</g>
<!-- Node3 -->
<g id="node3" class="node"><title>Node3</title>
<g id="a_node3"><a xlink:href="_container_8cpp.html" target="_top" xlink:title="Zawiera implementacje klasy Container. ">
<polygon fill="white" stroke="black" points="122,-0.5 122,-19.5 224,-19.5 224,-0.5 122,-0.5"/>
<text text-anchor="middle" x="173" y="-7.5" font-family="Helvetica,sans-Serif" font-size="10.00">Base\Container.cpp</text>
</a>
</g>
</g>
<!-- Node1&#45;&gt;Node3 -->
<g id="edge2" class="edge"><title>Node1&#45;&gt;Node3</title>
<path fill="none" stroke="midnightblue" d="M126.456,-56.7808C135.594,-47.7925 147.419,-36.162 156.862,-26.8731"/>
<polygon fill="midnightblue" stroke="midnightblue" points="159.449,-29.2382 164.124,-19.7305 154.54,-24.2477 159.449,-29.2382"/>
</g>
</g>
</svg>
