<?xml version="1.0" encoding="UTF-8" standalone="no"?>
<!DOCTYPE svg PUBLIC "-//W3C//DTD SVG 1.1//EN"
 "http://www.w3.org/Graphics/SVG/1.1/DTD/svg11.dtd">
<!-- Generated by graphviz version 2.36.0 (20140111.2315)
 -->
<!-- Title: KuszkAPI/Core/Threads/Declarations.h Pages: 1 -->
<svg width="136pt" height="208pt"
 viewBox="0.00 0.00 136.00 208.00" xmlns="http://www.w3.org/2000/svg" xmlns:xlink="http://www.w3.org/1999/xlink">
<g id="graph0" class="graph" transform="scale(1 1) rotate(0) translate(4 204)">
<title>KuszkAPI/Core/Threads/Declarations.h</title>
<polygon fill="white" stroke="none" points="-4,4 -4,-204 132,-204 132,4 -4,4"/>
<!-- Node1 -->
<g id="node1" class="node"><title>Node1</title>
<polygon fill="#bfbfbf" stroke="black" points="3.5,-169 3.5,-199 124.5,-199 124.5,-169 3.5,-169"/>
<text text-anchor="start" x="11.5" y="-187" font-family="Helvetica,sans-Serif" font-size="10.00">KuszkAPI/Core/Threads</text>
<text text-anchor="middle" x="64" y="-176" font-family="Helvetica,sans-Serif" font-size="10.00">/Declarations.h</text>
</g>
<!-- Node2 -->
<g id="node2" class="node"><title>Node2</title>
<g id="a_node2"><a xlink:href="_threads_8h.html" target="_top" xlink:title="KuszkAPI/Core/Threads.h">
<polygon fill="white" stroke="black" points="-0.5,-112.5 -0.5,-131.5 128.5,-131.5 128.5,-112.5 -0.5,-112.5"/>
<text text-anchor="middle" x="64" y="-119.5" font-family="Helvetica,sans-Serif" font-size="10.00">KuszkAPI/Core/Threads.h</text>
</a>
</g>
</g>
<!-- Node1&#45;&gt;Node2 -->
<g id="edge1" class="edge"><title>Node1&#45;&gt;Node2</title>
<path fill="none" stroke="midnightblue" d="M64,-158.586C64,-149.074 64,-138.786 64,-131.731"/>
<polygon fill="midnightblue" stroke="midnightblue" points="60.5001,-158.781 64,-168.781 67.5001,-158.781 60.5001,-158.781"/>
</g>
<!-- Node3 -->
<g id="node3" class="node"><title>Node3</title>
<g id="a_node3"><a xlink:href="_core_8h.html" target="_top" xlink:title="Dołącza do projektu moduł jądra. ">
<polygon fill="white" stroke="black" points="18,-56.5 18,-75.5 110,-75.5 110,-56.5 18,-56.5"/>
<text text-anchor="middle" x="64" y="-63.5" font-family="Helvetica,sans-Serif" font-size="10.00">KuszkAPI/Core.h</text>
</a>
</g>
</g>
<!-- Node2&#45;&gt;Node3 -->
<g id="edge2" class="edge"><title>Node2&#45;&gt;Node3</title>
<path fill="none" stroke="midnightblue" d="M64,-101.805C64,-92.9102 64,-82.7798 64,-75.7511"/>
<polygon fill="midnightblue" stroke="midnightblue" points="60.5001,-102.083 64,-112.083 67.5001,-102.083 60.5001,-102.083"/>
</g>
<!-- Node4 -->
<g id="node4" class="node"><title>Node4</title>
<g id="a_node4"><a xlink:href="_kuszk_a_p_i_8h.html" target="_top" xlink:title="Główny plik dołączający do projektu całe środowisko. ">
<polygon fill="white" stroke="black" points="6.5,-0.5 6.5,-19.5 121.5,-19.5 121.5,-0.5 6.5,-0.5"/>
<text text-anchor="middle" x="64" y="-7.5" font-family="Helvetica,sans-Serif" font-size="10.00">KuszkAPI/KuszkAPI.h</text>
</a>
</g>
</g>
<!-- Node3&#45;&gt;Node4 -->
<g id="edge3" class="edge"><title>Node3&#45;&gt;Node4</title>
<path fill="none" stroke="midnightblue" d="M64,-45.8045C64,-36.9102 64,-26.7798 64,-19.7511"/>
<polygon fill="midnightblue" stroke="midnightblue" points="60.5001,-46.083 64,-56.083 67.5001,-46.083 60.5001,-46.083"/>
</g>
</g>
</svg>
