<?xml version="1.0" encoding="UTF-8" standalone="no"?>
<!DOCTYPE svg PUBLIC "-//W3C//DTD SVG 1.1//EN"
 "http://www.w3.org/Graphics/SVG/1.1/DTD/svg11.dtd">
<!-- Generated by graphviz version 2.36.0 (20140111.2315)
 -->
<!-- Title: KuszkAPI/Core.h Pages: 1 -->
<svg width="1774pt" height="140pt"
 viewBox="0.00 0.00 1774.00 140.00" xmlns="http://www.w3.org/2000/svg" xmlns:xlink="http://www.w3.org/1999/xlink">
<g id="graph0" class="graph" transform="scale(1 1) rotate(0) translate(4 136)">
<title>KuszkAPI/Core.h</title>
<polygon fill="white" stroke="none" points="-4,4 -4,-136 1770,-136 1770,4 -4,4"/>
<!-- Node1 -->
<g id="node1" class="node"><title>Node1</title>
<polygon fill="#bfbfbf" stroke="black" points="444,-112.5 444,-131.5 536,-131.5 536,-112.5 444,-112.5"/>
<text text-anchor="middle" x="490" y="-119.5" font-family="Helvetica,sans-Serif" font-size="10.00">KuszkAPI/Core.h</text>
</g>
<!-- Node2 -->
<g id="node2" class="node"><title>Node2</title>
<polygon fill="white" stroke="#bfbfbf" points="159.5,-56.5 159.5,-75.5 224.5,-75.5 224.5,-56.5 159.5,-56.5"/>
<text text-anchor="middle" x="192" y="-63.5" font-family="Helvetica,sans-Serif" font-size="10.00">Windows.h</text>
</g>
<!-- Node1&#45;&gt;Node2 -->
<g id="edge1" class="edge"><title>Node1&#45;&gt;Node2</title>
<path fill="none" stroke="midnightblue" d="M443.929,-113.543C394.526,-105.411 313.535,-91.6888 234.743,-76.2839"/>
<polygon fill="midnightblue" stroke="midnightblue" points="235.135,-72.794 224.647,-74.2983 233.784,-79.6625 235.135,-72.794"/>
</g>
<!-- Node3 -->
<g id="node3" class="node"><title>Node3</title>
<g id="a_node3"><a xlink:href="_parts_8h.html" target="_top" xlink:title="Core\\Parts.h">
<polygon fill="white" stroke="black" points="242.5,-56.5 242.5,-75.5 313.5,-75.5 313.5,-56.5 242.5,-56.5"/>
<text text-anchor="middle" x="278" y="-63.5" font-family="Helvetica,sans-Serif" font-size="10.00">Core\Parts.h</text>
</a>
</g>
</g>
<!-- Node1&#45;&gt;Node3 -->
<g id="edge2" class="edge"><title>Node1&#45;&gt;Node3</title>
<path fill="none" stroke="midnightblue" d="M456.408,-112.444C419.813,-103.122 361.162,-88.1828 321.174,-77.9972"/>
<polygon fill="midnightblue" stroke="midnightblue" points="321.989,-74.5932 311.435,-75.5164 320.261,-81.3766 321.989,-74.5932"/>
</g>
<!-- Node7 -->
<g id="node7" class="node"><title>Node7</title>
<g id="a_node7"><a xlink:href="_data_8h.html" target="_top" xlink:title="Core\\Data.h">
<polygon fill="white" stroke="black" points="456,-56.5 456,-75.5 524,-75.5 524,-56.5 456,-56.5"/>
<text text-anchor="middle" x="490" y="-63.5" font-family="Helvetica,sans-Serif" font-size="10.00">Core\Data.h</text>
</a>
</g>
</g>
<!-- Node1&#45;&gt;Node7 -->
<g id="edge6" class="edge"><title>Node1&#45;&gt;Node7</title>
<path fill="none" stroke="midnightblue" d="M490,-112.083C490,-105.006 490,-94.8611 490,-85.9865"/>
<polygon fill="midnightblue" stroke="midnightblue" points="493.5,-85.751 490,-75.7511 486.5,-85.7511 493.5,-85.751"/>
</g>
<!-- Node11 -->
<g id="node11" class="node"><title>Node11</title>
<g id="a_node11"><a xlink:href="_run_8h.html" target="_top" xlink:title="Core\\Run.h">
<polygon fill="white" stroke="black" points="761.5,-56.5 761.5,-75.5 826.5,-75.5 826.5,-56.5 761.5,-56.5"/>
<text text-anchor="middle" x="794" y="-63.5" font-family="Helvetica,sans-Serif" font-size="10.00">Core\Run.h</text>
</a>
</g>
</g>
<!-- Node1&#45;&gt;Node11 -->
<g id="edge10" class="edge"><title>Node1&#45;&gt;Node11</title>
<path fill="none" stroke="midnightblue" d="M536.171,-112.799C594.652,-102.41 694.626,-84.6519 751.371,-74.5722"/>
<polygon fill="midnightblue" stroke="midnightblue" points="752.21,-77.978 761.444,-72.7829 750.986,-71.0859 752.21,-77.978"/>
</g>
<!-- Node16 -->
<g id="node16" class="node"><title>Node16</title>
<g id="a_node16"><a xlink:href="_threads_8h.html" target="_top" xlink:title="Core\\Threads.h">
<polygon fill="white" stroke="black" points="1295.5,-56.5 1295.5,-75.5 1378.5,-75.5 1378.5,-56.5 1295.5,-56.5"/>
<text text-anchor="middle" x="1337" y="-63.5" font-family="Helvetica,sans-Serif" font-size="10.00">Core\Threads.h</text>
</a>
</g>
</g>
<!-- Node1&#45;&gt;Node16 -->
<g id="edge15" class="edge"><title>Node1&#45;&gt;Node16</title>
<path fill="none" stroke="midnightblue" d="M536.14,-118.058C681.923,-108.764 1132.04,-80.067 1285.29,-70.2967"/>
<polygon fill="midnightblue" stroke="midnightblue" points="1285.62,-73.783 1295.38,-69.6537 1285.17,-66.7971 1285.62,-73.783"/>
</g>
<!-- Node4 -->
<g id="node4" class="node"><title>Node4</title>
<g id="a_node4"><a xlink:href="_core_2_parts_2_declarations_8h.html" target="_top" xlink:title="Parts\\Declarations.h">
<polygon fill="white" stroke="black" points="-0.5,-0.5 -0.5,-19.5 104.5,-19.5 104.5,-0.5 -0.5,-0.5"/>
<text text-anchor="middle" x="52" y="-7.5" font-family="Helvetica,sans-Serif" font-size="10.00">Parts\Declarations.h</text>
</a>
</g>
</g>
<!-- Node3&#45;&gt;Node4 -->
<g id="edge3" class="edge"><title>Node3&#45;&gt;Node4</title>
<path fill="none" stroke="midnightblue" d="M242.439,-56.5031C203.312,-47.1541 140.317,-32.1023 97.5893,-21.893"/>
<polygon fill="midnightblue" stroke="midnightblue" points="98.2662,-18.4563 87.7266,-19.5364 96.6394,-25.2646 98.2662,-18.4563"/>
</g>
<!-- Node5 -->
<g id="node5" class="node"><title>Node5</title>
<g id="a_node5"><a xlink:href="_console_8cpp.html" target="_top" xlink:title="Parts\\Console.cpp">
<polygon fill="white" stroke="black" points="122.5,-0.5 122.5,-19.5 219.5,-19.5 219.5,-0.5 122.5,-0.5"/>
<text text-anchor="middle" x="171" y="-7.5" font-family="Helvetica,sans-Serif" font-size="10.00">Parts\Console.cpp</text>
</a>
</g>
</g>
<!-- Node3&#45;&gt;Node5 -->
<g id="edge4" class="edge"><title>Node3&#45;&gt;Node5</title>
<path fill="none" stroke="midnightblue" d="M260.809,-56.324C243.649,-47.6641 217.054,-34.2424 197.253,-24.249"/>
<polygon fill="midnightblue" stroke="midnightblue" points="198.653,-21.0354 188.149,-19.6545 195.499,-27.2847 198.653,-21.0354"/>
</g>
<!-- Node6 -->
<g id="node6" class="node"><title>Node6</title>
<g id="a_node6"><a xlink:href="_tray_8cpp.html" target="_top" xlink:title="Parts\\Tray.cpp">
<polygon fill="white" stroke="black" points="238,-0.5 238,-19.5 318,-19.5 318,-0.5 238,-0.5"/>
<text text-anchor="middle" x="278" y="-7.5" font-family="Helvetica,sans-Serif" font-size="10.00">Parts\Tray.cpp</text>
</a>
</g>
</g>
<!-- Node3&#45;&gt;Node6 -->
<g id="edge5" class="edge"><title>Node3&#45;&gt;Node6</title>
<path fill="none" stroke="midnightblue" d="M278,-56.083C278,-49.0059 278,-38.8611 278,-29.9865"/>
<polygon fill="midnightblue" stroke="midnightblue" points="281.5,-29.751 278,-19.7511 274.5,-29.7511 281.5,-29.751"/>
</g>
<!-- Node8 -->
<g id="node8" class="node"><title>Node8</title>
<g id="a_node8"><a xlink:href="_core_2_data_2_declarations_8h.html" target="_top" xlink:title="Data\\Declarations.h">
<polygon fill="white" stroke="black" points="336,-0.5 336,-19.5 438,-19.5 438,-0.5 336,-0.5"/>
<text text-anchor="middle" x="387" y="-7.5" font-family="Helvetica,sans-Serif" font-size="10.00">Data\Declarations.h</text>
</a>
</g>
</g>
<!-- Node7&#45;&gt;Node8 -->
<g id="edge7" class="edge"><title>Node7&#45;&gt;Node8</title>
<path fill="none" stroke="midnightblue" d="M473.451,-56.324C457.008,-47.7034 431.565,-34.3643 412.532,-24.3855"/>
<polygon fill="midnightblue" stroke="midnightblue" points="413.989,-21.198 403.508,-19.6545 410.739,-27.3977 413.989,-21.198"/>
</g>
<!-- Node9 -->
<g id="node9" class="node"><title>Node9</title>
<g id="a_node9"><a xlink:href="_ini_8cpp.html" target="_top" xlink:title="Data\\Ini.cpp">
<polygon fill="white" stroke="black" points="456,-0.5 456,-19.5 524,-19.5 524,-0.5 456,-0.5"/>
<text text-anchor="middle" x="490" y="-7.5" font-family="Helvetica,sans-Serif" font-size="10.00">Data\Ini.cpp</text>
</a>
</g>
</g>
<!-- Node7&#45;&gt;Node9 -->
<g id="edge8" class="edge"><title>Node7&#45;&gt;Node9</title>
<path fill="none" stroke="midnightblue" d="M490,-56.083C490,-49.0059 490,-38.8611 490,-29.9865"/>
<polygon fill="midnightblue" stroke="midnightblue" points="493.5,-29.751 490,-19.7511 486.5,-29.7511 493.5,-29.751"/>
</g>
<!-- Node10 -->
<g id="node10" class="node"><title>Node10</title>
<g id="a_node10"><a xlink:href="_reg_8cpp.html" target="_top" xlink:title="Data\\Reg.cpp">
<polygon fill="white" stroke="black" points="542,-0.5 542,-19.5 618,-19.5 618,-0.5 542,-0.5"/>
<text text-anchor="middle" x="580" y="-7.5" font-family="Helvetica,sans-Serif" font-size="10.00">Data\Reg.cpp</text>
</a>
</g>
</g>
<!-- Node7&#45;&gt;Node10 -->
<g id="edge9" class="edge"><title>Node7&#45;&gt;Node10</title>
<path fill="none" stroke="midnightblue" d="M504.46,-56.324C518.5,-47.9002 540.048,-34.9709 556.543,-25.0741"/>
<polygon fill="midnightblue" stroke="midnightblue" points="558.802,-27.8007 565.576,-19.6545 555.2,-21.7983 558.802,-27.8007"/>
</g>
<!-- Node12 -->
<g id="node12" class="node"><title>Node12</title>
<g id="a_node12"><a xlink:href="_core_2_run_2_declarations_8h.html" target="_top" xlink:title="Run\\Declarations.h">
<polygon fill="white" stroke="black" points="636.5,-0.5 636.5,-19.5 735.5,-19.5 735.5,-0.5 636.5,-0.5"/>
<text text-anchor="middle" x="686" y="-7.5" font-family="Helvetica,sans-Serif" font-size="10.00">Run\Declarations.h</text>
</a>
</g>
</g>
<!-- Node11&#45;&gt;Node12 -->
<g id="edge11" class="edge"><title>Node11&#45;&gt;Node12</title>
<path fill="none" stroke="midnightblue" d="M776.648,-56.324C759.328,-47.6641 732.485,-34.2424 712.498,-24.249"/>
<polygon fill="midnightblue" stroke="midnightblue" points="713.819,-20.9962 703.309,-19.6545 710.688,-27.2572 713.819,-20.9962"/>
</g>
<!-- Node13 -->
<g id="node13" class="node"><title>Node13</title>
<g id="a_node13"><a xlink:href="_script_8cpp.html" target="_top" xlink:title="Run\\Script.cpp">
<polygon fill="white" stroke="black" points="753.5,-0.5 753.5,-19.5 834.5,-19.5 834.5,-0.5 753.5,-0.5"/>
<text text-anchor="middle" x="794" y="-7.5" font-family="Helvetica,sans-Serif" font-size="10.00">Run\Script.cpp</text>
</a>
</g>
</g>
<!-- Node11&#45;&gt;Node13 -->
<g id="edge12" class="edge"><title>Node11&#45;&gt;Node13</title>
<path fill="none" stroke="midnightblue" d="M794,-56.083C794,-49.0059 794,-38.8611 794,-29.9865"/>
<polygon fill="midnightblue" stroke="midnightblue" points="797.5,-29.751 794,-19.7511 790.5,-29.7511 797.5,-29.751"/>
</g>
<!-- Node14 -->
<g id="node14" class="node"><title>Node14</title>
<g id="a_node14"><a xlink:href="_dll_8cpp.html" target="_top" xlink:title="Run\\Dll.cpp">
<polygon fill="white" stroke="black" points="852.5,-0.5 852.5,-19.5 919.5,-19.5 919.5,-0.5 852.5,-0.5"/>
<text text-anchor="middle" x="886" y="-7.5" font-family="Helvetica,sans-Serif" font-size="10.00">Run\Dll.cpp</text>
</a>
</g>
</g>
<!-- Node11&#45;&gt;Node14 -->
<g id="edge13" class="edge"><title>Node11&#45;&gt;Node14</title>
<path fill="none" stroke="midnightblue" d="M808.781,-56.324C823.267,-47.8215 845.573,-34.7288 862.493,-24.7975"/>
<polygon fill="midnightblue" stroke="midnightblue" points="864.403,-27.735 871.255,-19.6545 860.859,-21.6981 864.403,-27.735"/>
</g>
<!-- Node15 -->
<g id="node15" class="node"><title>Node15</title>
<g id="a_node15"><a xlink:href="_hook_8cpp.html" target="_top" xlink:title="Run\\Hook.cpp">
<polygon fill="white" stroke="black" points="938,-0.5 938,-19.5 1016,-19.5 1016,-0.5 938,-0.5"/>
<text text-anchor="middle" x="977" y="-7.5" font-family="Helvetica,sans-Serif" font-size="10.00">Run\Hook.cpp</text>
</a>
</g>
</g>
<!-- Node11&#45;&gt;Node15 -->
<g id="edge14" class="edge"><title>Node11&#45;&gt;Node15</title>
<path fill="none" stroke="midnightblue" d="M822.997,-56.4435C854.185,-47.2406 903.93,-32.5617 938.408,-22.3879"/>
<polygon fill="midnightblue" stroke="midnightblue" points="939.538,-25.7036 948.139,-19.5164 937.557,-18.9898 939.538,-25.7036"/>
</g>
<!-- Node17 -->
<g id="node17" class="node"><title>Node17</title>
<g id="a_node17"><a xlink:href="_core_2_threads_2_declarations_8h.html" target="_top" xlink:title="Threads\\Declarations.h">
<polygon fill="white" stroke="black" points="1034,-0.5 1034,-19.5 1150,-19.5 1150,-0.5 1034,-0.5"/>
<text text-anchor="middle" x="1092" y="-7.5" font-family="Helvetica,sans-Serif" font-size="10.00">Threads\Declarations.h</text>
</a>
</g>
</g>
<!-- Node16&#45;&gt;Node17 -->
<g id="edge16" class="edge"><title>Node16&#45;&gt;Node17</title>
<path fill="none" stroke="midnightblue" d="M1298.18,-56.4435C1255.44,-47.0234 1186.67,-31.8656 1140.43,-21.6752"/>
<polygon fill="midnightblue" stroke="midnightblue" points="1141.16,-18.251 1130.64,-19.5164 1139.65,-25.0869 1141.16,-18.251"/>
</g>
<!-- Node18 -->
<g id="node18" class="node"><title>Node18</title>
<g id="a_node18"><a xlink:href="_thread_8cpp.html" target="_top" xlink:title="Threads\\Thread.cpp">
<polygon fill="white" stroke="black" points="1168,-0.5 1168,-19.5 1270,-19.5 1270,-0.5 1168,-0.5"/>
<text text-anchor="middle" x="1219" y="-7.5" font-family="Helvetica,sans-Serif" font-size="10.00">Threads\Thread.cpp</text>
</a>
</g>
</g>
<!-- Node16&#45;&gt;Node18 -->
<g id="edge17" class="edge"><title>Node16&#45;&gt;Node18</title>
<path fill="none" stroke="midnightblue" d="M1318.3,-56.4435C1299.06,-47.6356 1268.85,-33.8116 1246.8,-23.722"/>
<polygon fill="midnightblue" stroke="midnightblue" points="1248.16,-20.4951 1237.61,-19.5164 1245.25,-26.8603 1248.16,-20.4951"/>
</g>
<!-- Node19 -->
<g id="node19" class="node"><title>Node19</title>
<g id="a_node19"><a xlink:href="_event_8cpp.html" target="_top" xlink:title="Threads\\Event.cpp">
<polygon fill="white" stroke="black" points="1288.5,-0.5 1288.5,-19.5 1385.5,-19.5 1385.5,-0.5 1288.5,-0.5"/>
<text text-anchor="middle" x="1337" y="-7.5" font-family="Helvetica,sans-Serif" font-size="10.00">Threads\Event.cpp</text>
</a>
</g>
</g>
<!-- Node16&#45;&gt;Node19 -->
<g id="edge18" class="edge"><title>Node16&#45;&gt;Node19</title>
<path fill="none" stroke="midnightblue" d="M1337,-56.083C1337,-49.0059 1337,-38.8611 1337,-29.9865"/>
<polygon fill="midnightblue" stroke="midnightblue" points="1340.5,-29.751 1337,-19.7511 1333.5,-29.7511 1340.5,-29.751"/>
</g>
<!-- Node20 -->
<g id="node20" class="node"><title>Node20</title>
<g id="a_node20"><a xlink:href="_section_8cpp.html" target="_top" xlink:title="Threads\\Section.cpp">
<polygon fill="white" stroke="black" points="1404,-0.5 1404,-19.5 1510,-19.5 1510,-0.5 1404,-0.5"/>
<text text-anchor="middle" x="1457" y="-7.5" font-family="Helvetica,sans-Serif" font-size="10.00">Threads\Section.cpp</text>
</a>
</g>
</g>
<!-- Node16&#45;&gt;Node20 -->
<g id="edge19" class="edge"><title>Node16&#45;&gt;Node20</title>
<path fill="none" stroke="midnightblue" d="M1356.01,-56.4435C1375.59,-47.6356 1406.31,-33.8116 1428.73,-23.722"/>
<polygon fill="midnightblue" stroke="midnightblue" points="1430.39,-26.8119 1438.07,-19.5164 1427.52,-20.4284 1430.39,-26.8119"/>
</g>
<!-- Node21 -->
<g id="node21" class="node"><title>Node21</title>
<g id="a_node21"><a xlink:href="_process_8cpp.html" target="_top" xlink:title="Threads\\Process.cpp">
<polygon fill="white" stroke="black" points="1528.5,-0.5 1528.5,-19.5 1637.5,-19.5 1637.5,-0.5 1528.5,-0.5"/>
<text text-anchor="middle" x="1583" y="-7.5" font-family="Helvetica,sans-Serif" font-size="10.00">Threads\Process.cpp</text>
</a>
</g>
</g>
<!-- Node16&#45;&gt;Node21 -->
<g id="edge20" class="edge"><title>Node16&#45;&gt;Node21</title>
<path fill="none" stroke="midnightblue" d="M1375.98,-56.4435C1418.89,-47.0234 1487.95,-31.8656 1534.37,-21.6752"/>
<polygon fill="midnightblue" stroke="midnightblue" points="1535.19,-25.0792 1544.2,-19.5164 1533.69,-18.242 1535.19,-25.0792"/>
</g>
<!-- Node22 -->
<g id="node22" class="node"><title>Node22</title>
<g id="a_node22"><a xlink:href="_instance_8cpp.html" target="_top" xlink:title="Threads\\Instance.cpp">
<polygon fill="white" stroke="black" points="1656,-0.5 1656,-19.5 1766,-19.5 1766,-0.5 1656,-0.5"/>
<text text-anchor="middle" x="1711" y="-7.5" font-family="Helvetica,sans-Serif" font-size="10.00">Threads\Instance.cpp</text>
</a>
</g>
</g>
<!-- Node16&#45;&gt;Node22 -->
<g id="edge21" class="edge"><title>Node16&#45;&gt;Node22</title>
<path fill="none" stroke="midnightblue" d="M1378.81,-58.9627C1443.67,-49.5991 1569.01,-31.5013 1645.82,-20.4116"/>
<polygon fill="midnightblue" stroke="midnightblue" points="1646.46,-23.8549 1655.86,-18.9617 1645.46,-16.9267 1646.46,-23.8549"/>
</g>
</g>
</svg>
