<?xml version="1.0" encoding="UTF-8" standalone="no"?>
<!DOCTYPE svg PUBLIC "-//W3C//DTD SVG 1.1//EN"
 "http://www.w3.org/Graphics/SVG/1.1/DTD/svg11.dtd">
<!-- Generated by graphviz version 2.36.0 (20140111.2315)
 -->
<!-- Title: KuszkAPI/Core/Data.h Pages: 1 -->
<svg width="290pt" height="84pt"
 viewBox="0.00 0.00 290.00 84.00" xmlns="http://www.w3.org/2000/svg" xmlns:xlink="http://www.w3.org/1999/xlink">
<g id="graph0" class="graph" transform="scale(1 1) rotate(0) translate(4 80)">
<title>KuszkAPI/Core/Data.h</title>
<polygon fill="white" stroke="none" points="-4,4 -4,-80 286,-80 286,4 -4,4"/>
<!-- Node1 -->
<g id="node1" class="node"><title>Node1</title>
<polygon fill="#bfbfbf" stroke="black" points="96.5,-56.5 96.5,-75.5 211.5,-75.5 211.5,-56.5 96.5,-56.5"/>
<text text-anchor="middle" x="154" y="-63.5" font-family="Helvetica,sans-Serif" font-size="10.00">KuszkAPI/Core/Data.h</text>
</g>
<!-- Node2 -->
<g id="node2" class="node"><title>Node2</title>
<g id="a_node2"><a xlink:href="_core_2_data_2_declarations_8h.html" target="_top" xlink:title="Data\\Declarations.h">
<polygon fill="white" stroke="black" points="0,-0.5 0,-19.5 102,-19.5 102,-0.5 0,-0.5"/>
<text text-anchor="middle" x="51" y="-7.5" font-family="Helvetica,sans-Serif" font-size="10.00">Data\Declarations.h</text>
</a>
</g>
</g>
<!-- Node1&#45;&gt;Node2 -->
<g id="edge1" class="edge"><title>Node1&#45;&gt;Node2</title>
<path fill="none" stroke="midnightblue" d="M137.451,-56.324C121.008,-47.7034 95.5652,-34.3643 76.5316,-24.3855"/>
<polygon fill="midnightblue" stroke="midnightblue" points="77.9895,-21.198 67.5077,-19.6545 74.7391,-27.3977 77.9895,-21.198"/>
</g>
<!-- Node3 -->
<g id="node3" class="node"><title>Node3</title>
<g id="a_node3"><a xlink:href="_ini_8cpp.html" target="_top" xlink:title="Data\\Ini.cpp">
<polygon fill="white" stroke="black" points="120,-0.5 120,-19.5 188,-19.5 188,-0.5 120,-0.5"/>
<text text-anchor="middle" x="154" y="-7.5" font-family="Helvetica,sans-Serif" font-size="10.00">Data\Ini.cpp</text>
</a>
</g>
</g>
<!-- Node1&#45;&gt;Node3 -->
<g id="edge2" class="edge"><title>Node1&#45;&gt;Node3</title>
<path fill="none" stroke="midnightblue" d="M154,-56.083C154,-49.0059 154,-38.8611 154,-29.9865"/>
<polygon fill="midnightblue" stroke="midnightblue" points="157.5,-29.751 154,-19.7511 150.5,-29.7511 157.5,-29.751"/>
</g>
<!-- Node4 -->
<g id="node4" class="node"><title>Node4</title>
<g id="a_node4"><a xlink:href="_reg_8cpp.html" target="_top" xlink:title="Data\\Reg.cpp">
<polygon fill="white" stroke="black" points="206,-0.5 206,-19.5 282,-19.5 282,-0.5 206,-0.5"/>
<text text-anchor="middle" x="244" y="-7.5" font-family="Helvetica,sans-Serif" font-size="10.00">Data\Reg.cpp</text>
</a>
</g>
</g>
<!-- Node1&#45;&gt;Node4 -->
<g id="edge3" class="edge"><title>Node1&#45;&gt;Node4</title>
<path fill="none" stroke="midnightblue" d="M168.46,-56.324C182.5,-47.9002 204.048,-34.9709 220.543,-25.0741"/>
<polygon fill="midnightblue" stroke="midnightblue" points="222.802,-27.8007 229.576,-19.6545 219.2,-21.7983 222.802,-27.8007"/>
</g>
</g>
</svg>
