<?xml version="1.0" encoding="UTF-8" standalone="no"?>
<!DOCTYPE svg PUBLIC "-//W3C//DTD SVG 1.1//EN"
 "http://www.w3.org/Graphics/SVG/1.1/DTD/svg11.dtd">
<!-- Generated by graphviz version 2.36.0 (20140111.2315)
 -->
<!-- Title: KuszkAPI/Time/Date.h Pages: 1 -->
<svg width="207pt" height="84pt"
 viewBox="0.00 0.00 207.00 84.00" xmlns="http://www.w3.org/2000/svg" xmlns:xlink="http://www.w3.org/1999/xlink">
<g id="graph0" class="graph" transform="scale(1 1) rotate(0) translate(4 80)">
<title>KuszkAPI/Time/Date.h</title>
<polygon fill="white" stroke="none" points="-4,4 -4,-80 203,-80 203,4 -4,4"/>
<!-- Node1 -->
<g id="node1" class="node"><title>Node1</title>
<polygon fill="#bfbfbf" stroke="black" points="47,-56.5 47,-75.5 163,-75.5 163,-56.5 47,-56.5"/>
<text text-anchor="middle" x="105" y="-63.5" font-family="Helvetica,sans-Serif" font-size="10.00">KuszkAPI/Time/Date.h</text>
</g>
<!-- Node2 -->
<g id="node2" class="node"><title>Node2</title>
<g id="a_node2"><a xlink:href="_time_2_date_2_declarations_8h.html" target="_top" xlink:title="Date\\Declarations.h">
<polygon fill="white" stroke="black" points="0,-0.5 0,-19.5 102,-19.5 102,-0.5 0,-0.5"/>
<text text-anchor="middle" x="51" y="-7.5" font-family="Helvetica,sans-Serif" font-size="10.00">Date\Declarations.h</text>
</a>
</g>
</g>
<!-- Node1&#45;&gt;Node2 -->
<g id="edge1" class="edge"><title>Node1&#45;&gt;Node2</title>
<path fill="none" stroke="midnightblue" d="M96.083,-56.083C88.2195,-48.2195 76.5688,-36.5688 67.0813,-27.0813"/>
<polygon fill="midnightblue" stroke="midnightblue" points="69.2971,-24.3473 59.7511,-19.7511 64.3473,-29.2971 69.2971,-24.3473"/>
</g>
<!-- Node3 -->
<g id="node3" class="node"><title>Node3</title>
<g id="a_node3"><a xlink:href="_date_8cpp.html" target="_top" xlink:title="Date\\Date.cpp">
<polygon fill="white" stroke="black" points="120.5,-0.5 120.5,-19.5 199.5,-19.5 199.5,-0.5 120.5,-0.5"/>
<text text-anchor="middle" x="160" y="-7.5" font-family="Helvetica,sans-Serif" font-size="10.00">Date\Date.cpp</text>
</a>
</g>
</g>
<!-- Node1&#45;&gt;Node3 -->
<g id="edge2" class="edge"><title>Node1&#45;&gt;Node3</title>
<path fill="none" stroke="midnightblue" d="M114.082,-56.083C122.171,-48.1409 134.195,-36.3354 143.91,-26.7973"/>
<polygon fill="midnightblue" stroke="midnightblue" points="146.403,-29.2545 151.087,-19.7511 141.499,-24.2595 146.403,-29.2545"/>
</g>
</g>
</svg>
