<?xml version="1.0" encoding="UTF-8" standalone="no"?>
<!DOCTYPE svg PUBLIC "-//W3C//DTD SVG 1.1//EN"
 "http://www.w3.org/Graphics/SVG/1.1/DTD/svg11.dtd">
<!-- Generated by graphviz version 2.36.0 (20140111.2315)
 -->
<!-- Title: KuszkAPI/Forms/Dialogs.h Pages: 1 -->
<svg width="530pt" height="84pt"
 viewBox="0.00 0.00 530.00 84.00" xmlns="http://www.w3.org/2000/svg" xmlns:xlink="http://www.w3.org/1999/xlink">
<g id="graph0" class="graph" transform="scale(1 1) rotate(0) translate(4 80)">
<title>KuszkAPI/Forms/Dialogs.h</title>
<polygon fill="white" stroke="none" points="-4,4 -4,-80 526,-80 526,4 -4,4"/>
<!-- Node1 -->
<g id="node1" class="node"><title>Node1</title>
<polygon fill="#bfbfbf" stroke="black" points="207,-56.5 207,-75.5 341,-75.5 341,-56.5 207,-56.5"/>
<text text-anchor="middle" x="274" y="-63.5" font-family="Helvetica,sans-Serif" font-size="10.00">KuszkAPI/Forms/Dialogs.h</text>
</g>
<!-- Node2 -->
<g id="node2" class="node"><title>Node2</title>
<g id="a_node2"><a xlink:href="_forms_2_dialogs_2_declarations_8h.html" target="_top" xlink:title="Dialogs\\Declarations.h">
<polygon fill="white" stroke="black" points="0,-0.5 0,-19.5 114,-19.5 114,-0.5 0,-0.5"/>
<text text-anchor="middle" x="57" y="-7.5" font-family="Helvetica,sans-Serif" font-size="10.00">Dialogs\Declarations.h</text>
</a>
</g>
</g>
<!-- Node1&#45;&gt;Node2 -->
<g id="edge1" class="edge"><title>Node1&#45;&gt;Node2</title>
<path fill="none" stroke="midnightblue" d="M239.616,-56.4435C202.078,-47.1024 141.869,-32.1194 100.933,-21.9326"/>
<polygon fill="midnightblue" stroke="midnightblue" points="101.773,-18.5349 91.2234,-19.5164 100.082,-25.3278 101.773,-18.5349"/>
</g>
<!-- Node3 -->
<g id="node3" class="node"><title>Node3</title>
<g id="a_node3"><a xlink:href="_common_dialog_8cpp.html" target="_top" xlink:title="Dialogs\\CommonDialog.cpp">
<polygon fill="white" stroke="black" points="132.5,-0.5 132.5,-19.5 269.5,-19.5 269.5,-0.5 132.5,-0.5"/>
<text text-anchor="middle" x="201" y="-7.5" font-family="Helvetica,sans-Serif" font-size="10.00">Dialogs\CommonDialog.cpp</text>
</a>
</g>
</g>
<!-- Node1&#45;&gt;Node3 -->
<g id="edge2" class="edge"><title>Node1&#45;&gt;Node3</title>
<path fill="none" stroke="midnightblue" d="M262.271,-56.324C251.163,-48.1066 234.258,-35.6017 221.017,-25.8069"/>
<polygon fill="midnightblue" stroke="midnightblue" points="223.063,-22.9671 212.942,-19.8339 218.9,-28.5948 223.063,-22.9671"/>
</g>
<!-- Node4 -->
<g id="node4" class="node"><title>Node4</title>
<g id="a_node4"><a xlink:href="_user_dialog_8cpp.html" target="_top" xlink:title="Dialogs\\UserDialog.cpp">
<polygon fill="white" stroke="black" points="288,-0.5 288,-19.5 406,-19.5 406,-0.5 288,-0.5"/>
<text text-anchor="middle" x="347" y="-7.5" font-family="Helvetica,sans-Serif" font-size="10.00">Dialogs\UserDialog.cpp</text>
</a>
</g>
</g>
<!-- Node1&#45;&gt;Node4 -->
<g id="edge3" class="edge"><title>Node1&#45;&gt;Node4</title>
<path fill="none" stroke="midnightblue" d="M285.729,-56.324C296.837,-48.1066 313.742,-35.6017 326.983,-25.8069"/>
<polygon fill="midnightblue" stroke="midnightblue" points="329.1,-28.5948 335.058,-19.8339 324.937,-22.9671 329.1,-28.5948"/>
</g>
<!-- Node5 -->
<g id="node5" class="node"><title>Node5</title>
<g id="a_node5"><a xlink:href="_dialog_8cpp.html" target="_top" xlink:title="Dialogs\\Dialog.cpp">
<polygon fill="white" stroke="black" points="424,-0.5 424,-19.5 522,-19.5 522,-0.5 424,-0.5"/>
<text text-anchor="middle" x="473" y="-7.5" font-family="Helvetica,sans-Serif" font-size="10.00">Dialogs\Dialog.cpp</text>
</a>
</g>
</g>
<!-- Node1&#45;&gt;Node5 -->
<g id="edge4" class="edge"><title>Node1&#45;&gt;Node5</title>
<path fill="none" stroke="midnightblue" d="M305.532,-56.4435C339.592,-47.2011 394.006,-32.4356 431.515,-22.2572"/>
<polygon fill="midnightblue" stroke="midnightblue" points="432.881,-25.5132 441.615,-19.5164 431.048,-18.7575 432.881,-25.5132"/>
</g>
</g>
</svg>
