<?xml version="1.0" encoding="UTF-8" standalone="no"?>
<!DOCTYPE svg PUBLIC "-//W3C//DTD SVG 1.1//EN"
 "http://www.w3.org/Graphics/SVG/1.1/DTD/svg11.dtd">
<!-- Generated by graphviz version 2.36.0 (20140111.2315)
 -->
<!-- Title: KuszkAPI/Containers/Files.h Pages: 1 -->
<svg width="203pt" height="96pt"
 viewBox="0.00 0.00 203.00 96.00" xmlns="http://www.w3.org/2000/svg" xmlns:xlink="http://www.w3.org/1999/xlink">
<g id="graph0" class="graph" transform="scale(1 1) rotate(0) translate(4 92)">
<title>KuszkAPI/Containers/Files.h</title>
<polygon fill="white" stroke="none" points="-4,4 -4,-92 199,-92 199,4 -4,4"/>
<!-- Node1 -->
<g id="node1" class="node"><title>Node1</title>
<polygon fill="#bfbfbf" stroke="black" points="49,-57 49,-87 159,-87 159,-57 49,-57"/>
<text text-anchor="start" x="57" y="-75" font-family="Helvetica,sans-Serif" font-size="10.00">KuszkAPI/Containers</text>
<text text-anchor="middle" x="104" y="-64" font-family="Helvetica,sans-Serif" font-size="10.00">/Files.h</text>
</g>
<!-- Node2 -->
<g id="node2" class="node"><title>Node2</title>
<g id="a_node2"><a xlink:href="_containers_2_files_2_declarations_8h.html" target="_top" xlink:title="Files\\Declarations.h">
<polygon fill="white" stroke="black" points="-0.5,-0.5 -0.5,-19.5 102.5,-19.5 102.5,-0.5 -0.5,-0.5"/>
<text text-anchor="middle" x="51" y="-7.5" font-family="Helvetica,sans-Serif" font-size="10.00">Files\Declarations.h</text>
</a>
</g>
</g>
<!-- Node1&#45;&gt;Node2 -->
<g id="edge1" class="edge"><title>Node1&#45;&gt;Node2</title>
<path fill="none" stroke="midnightblue" d="M91.4397,-56.7808C83.6588,-47.9722 73.6364,-36.6262 65.516,-27.4332"/>
<polygon fill="midnightblue" stroke="midnightblue" points="67.9555,-24.9082 58.712,-19.7305 62.7092,-29.5424 67.9555,-24.9082"/>
</g>
<!-- Node3 -->
<g id="node3" class="node"><title>Node3</title>
<g id="a_node3"><a xlink:href="_file_8cpp.html" target="_top" xlink:title="Files\\File.cpp">
<polygon fill="white" stroke="black" points="120.5,-0.5 120.5,-19.5 195.5,-19.5 195.5,-0.5 120.5,-0.5"/>
<text text-anchor="middle" x="158" y="-7.5" font-family="Helvetica,sans-Serif" font-size="10.00">Files\File.cpp</text>
</a>
</g>
</g>
<!-- Node1&#45;&gt;Node3 -->
<g id="edge2" class="edge"><title>Node1&#45;&gt;Node3</title>
<path fill="none" stroke="midnightblue" d="M116.797,-56.7808C124.725,-47.9722 134.936,-36.6262 143.21,-27.4332"/>
<polygon fill="midnightblue" stroke="midnightblue" points="146.054,-29.5049 150.143,-19.7305 140.851,-24.8221 146.054,-29.5049"/>
</g>
</g>
</svg>
