<?xml version="1.0" encoding="UTF-8" standalone="no"?>
<!DOCTYPE svg PUBLIC "-//W3C//DTD SVG 1.1//EN"
 "http://www.w3.org/Graphics/SVG/1.1/DTD/svg11.dtd">
<!-- Generated by graphviz version 2.36.0 (20140111.2315)
 -->
<!-- Title: KuszkAPI/Forms/Fonts.h Pages: 1 -->
<svg width="215pt" height="84pt"
 viewBox="0.00 0.00 215.00 84.00" xmlns="http://www.w3.org/2000/svg" xmlns:xlink="http://www.w3.org/1999/xlink">
<g id="graph0" class="graph" transform="scale(1 1) rotate(0) translate(4 80)">
<title>KuszkAPI/Forms/Fonts.h</title>
<polygon fill="white" stroke="none" points="-4,4 -4,-80 211,-80 211,4 -4,4"/>
<!-- Node1 -->
<g id="node1" class="node"><title>Node1</title>
<polygon fill="#bfbfbf" stroke="black" points="45.5,-56.5 45.5,-75.5 172.5,-75.5 172.5,-56.5 45.5,-56.5"/>
<text text-anchor="middle" x="109" y="-63.5" font-family="Helvetica,sans-Serif" font-size="10.00">KuszkAPI/Forms/Fonts.h</text>
</g>
<!-- Node2 -->
<g id="node2" class="node"><title>Node2</title>
<g id="a_node2"><a xlink:href="_forms_2_fonts_2_declarations_8h.html" target="_top" xlink:title="Fonts\\Declarations.h">
<polygon fill="white" stroke="black" points="-0.5,-0.5 -0.5,-19.5 106.5,-19.5 106.5,-0.5 -0.5,-0.5"/>
<text text-anchor="middle" x="53" y="-7.5" font-family="Helvetica,sans-Serif" font-size="10.00">Fonts\Declarations.h</text>
</a>
</g>
</g>
<!-- Node1&#45;&gt;Node2 -->
<g id="edge1" class="edge"><title>Node1&#45;&gt;Node2</title>
<path fill="none" stroke="midnightblue" d="M100.003,-56.324C91.8056,-48.4196 79.4945,-36.5482 69.528,-26.9377"/>
<polygon fill="midnightblue" stroke="midnightblue" points="71.789,-24.2558 62.1611,-19.8339 66.9301,-29.2947 71.789,-24.2558"/>
</g>
<!-- Node3 -->
<g id="node3" class="node"><title>Node3</title>
<g id="a_node3"><a xlink:href="_font_8cpp.html" target="_top" xlink:title="Fonts\\Font.cpp">
<polygon fill="white" stroke="black" points="124.5,-0.5 124.5,-19.5 207.5,-19.5 207.5,-0.5 124.5,-0.5"/>
<text text-anchor="middle" x="166" y="-7.5" font-family="Helvetica,sans-Serif" font-size="10.00">Fonts\Font.cpp</text>
</a>
</g>
</g>
<!-- Node1&#45;&gt;Node3 -->
<g id="edge2" class="edge"><title>Node1&#45;&gt;Node3</title>
<path fill="none" stroke="midnightblue" d="M118.158,-56.324C126.501,-48.4196 139.032,-36.5482 149.177,-26.9377"/>
<polygon fill="midnightblue" stroke="midnightblue" points="151.823,-29.2522 156.675,-19.8339 147.009,-24.1705 151.823,-29.2522"/>
</g>
</g>
</svg>
