<?xml version="1.0" encoding="UTF-8" standalone="no"?>
<!DOCTYPE svg PUBLIC "-//W3C//DTD SVG 1.1//EN"
 "http://www.w3.org/Graphics/SVG/1.1/DTD/svg11.dtd">
<!-- Generated by graphviz version 2.36.0 (20140111.2315)
 -->
<!-- Title: KuszkAPI/Forms/Form/Declarations.h Pages: 1 -->
<svg width="132pt" height="208pt"
 viewBox="0.00 0.00 132.00 208.00" xmlns="http://www.w3.org/2000/svg" xmlns:xlink="http://www.w3.org/1999/xlink">
<g id="graph0" class="graph" transform="scale(1 1) rotate(0) translate(4 204)">
<title>KuszkAPI/Forms/Form/Declarations.h</title>
<polygon fill="white" stroke="none" points="-4,4 -4,-204 128,-204 128,4 -4,4"/>
<!-- Node1 -->
<g id="node1" class="node"><title>Node1</title>
<polygon fill="#bfbfbf" stroke="black" points="4,-169 4,-199 120,-199 120,-169 4,-169"/>
<text text-anchor="start" x="12" y="-187" font-family="Helvetica,sans-Serif" font-size="10.00">KuszkAPI/Forms/Form</text>
<text text-anchor="middle" x="62" y="-176" font-family="Helvetica,sans-Serif" font-size="10.00">/Declarations.h</text>
</g>
<!-- Node2 -->
<g id="node2" class="node"><title>Node2</title>
<g id="a_node2"><a xlink:href="_form_8h.html" target="_top" xlink:title="KuszkAPI/Forms/Form.h">
<polygon fill="white" stroke="black" points="-0.5,-112.5 -0.5,-131.5 124.5,-131.5 124.5,-112.5 -0.5,-112.5"/>
<text text-anchor="middle" x="62" y="-119.5" font-family="Helvetica,sans-Serif" font-size="10.00">KuszkAPI/Forms/Form.h</text>
</a>
</g>
</g>
<!-- Node1&#45;&gt;Node2 -->
<g id="edge1" class="edge"><title>Node1&#45;&gt;Node2</title>
<path fill="none" stroke="midnightblue" d="M62,-158.586C62,-149.074 62,-138.786 62,-131.731"/>
<polygon fill="midnightblue" stroke="midnightblue" points="58.5001,-158.781 62,-168.781 65.5001,-158.781 58.5001,-158.781"/>
</g>
<!-- Node3 -->
<g id="node3" class="node"><title>Node3</title>
<g id="a_node3"><a xlink:href="_forms_8h.html" target="_top" xlink:title="Dołącza do projektu moduł graficznego interfejsu użytkownika. ">
<polygon fill="white" stroke="black" points="12.5,-56.5 12.5,-75.5 111.5,-75.5 111.5,-56.5 12.5,-56.5"/>
<text text-anchor="middle" x="62" y="-63.5" font-family="Helvetica,sans-Serif" font-size="10.00">KuszkAPI/Forms.h</text>
</a>
</g>
</g>
<!-- Node2&#45;&gt;Node3 -->
<g id="edge2" class="edge"><title>Node2&#45;&gt;Node3</title>
<path fill="none" stroke="midnightblue" d="M62,-101.805C62,-92.9102 62,-82.7798 62,-75.7511"/>
<polygon fill="midnightblue" stroke="midnightblue" points="58.5001,-102.083 62,-112.083 65.5001,-102.083 58.5001,-102.083"/>
</g>
<!-- Node4 -->
<g id="node4" class="node"><title>Node4</title>
<g id="a_node4"><a xlink:href="_kuszk_a_p_i_8h.html" target="_top" xlink:title="Główny plik dołączający do projektu całe środowisko. ">
<polygon fill="white" stroke="black" points="4.5,-0.5 4.5,-19.5 119.5,-19.5 119.5,-0.5 4.5,-0.5"/>
<text text-anchor="middle" x="62" y="-7.5" font-family="Helvetica,sans-Serif" font-size="10.00">KuszkAPI/KuszkAPI.h</text>
</a>
</g>
</g>
<!-- Node3&#45;&gt;Node4 -->
<g id="edge3" class="edge"><title>Node3&#45;&gt;Node4</title>
<path fill="none" stroke="midnightblue" d="M62,-45.8045C62,-36.9102 62,-26.7798 62,-19.7511"/>
<polygon fill="midnightblue" stroke="midnightblue" points="58.5001,-46.083 62,-56.083 65.5001,-46.083 58.5001,-46.083"/>
</g>
</g>
</svg>
