<?xml version="1.0" encoding="UTF-8" standalone="no"?>
<!DOCTYPE svg PUBLIC "-//W3C//DTD SVG 1.1//EN"
 "http://www.w3.org/Graphics/SVG/1.1/DTD/svg11.dtd">
<!-- Generated by graphviz version 2.36.0 (20140111.2315)
 -->
<!-- Title: KuszkAPI/Forms/Base.h Pages: 1 -->
<svg width="857pt" height="84pt"
 viewBox="0.00 0.00 857.00 84.00" xmlns="http://www.w3.org/2000/svg" xmlns:xlink="http://www.w3.org/1999/xlink">
<g id="graph0" class="graph" transform="scale(1 1) rotate(0) translate(4 80)">
<title>KuszkAPI/Forms/Base.h</title>
<polygon fill="white" stroke="none" points="-4,4 -4,-80 853,-80 853,4 -4,4"/>
<!-- Node1 -->
<g id="node1" class="node"><title>Node1</title>
<polygon fill="#bfbfbf" stroke="black" points="338.5,-56.5 338.5,-75.5 463.5,-75.5 463.5,-56.5 338.5,-56.5"/>
<text text-anchor="middle" x="401" y="-63.5" font-family="Helvetica,sans-Serif" font-size="10.00">KuszkAPI/Forms/Base.h</text>
</g>
<!-- Node2 -->
<g id="node2" class="node"><title>Node2</title>
<g id="a_node2"><a xlink:href="_forms_2_base_2_declarations_8h.html" target="_top" xlink:title="Base\\Declarations.h">
<polygon fill="white" stroke="black" points="0,-0.5 0,-19.5 104,-19.5 104,-0.5 0,-0.5"/>
<text text-anchor="middle" x="52" y="-7.5" font-family="Helvetica,sans-Serif" font-size="10.00">Base\Declarations.h</text>
</a>
</g>
</g>
<!-- Node1&#45;&gt;Node2 -->
<g id="edge1" class="edge"><title>Node1&#45;&gt;Node2</title>
<path fill="none" stroke="midnightblue" d="M345.7,-56.4435C282.757,-46.7045 180.179,-30.8328 114.418,-20.6578"/>
<polygon fill="midnightblue" stroke="midnightblue" points="114.609,-17.1458 104.191,-19.0755 113.539,-24.0635 114.609,-17.1458"/>
</g>
<!-- Node3 -->
<g id="node3" class="node"><title>Node3</title>
<g id="a_node3"><a xlink:href="_window_8cpp.html" target="_top" xlink:title="Base\\Window.cpp">
<polygon fill="white" stroke="black" points="122.5,-0.5 122.5,-19.5 217.5,-19.5 217.5,-0.5 122.5,-0.5"/>
<text text-anchor="middle" x="170" y="-7.5" font-family="Helvetica,sans-Serif" font-size="10.00">Base\Window.cpp</text>
</a>
</g>
</g>
<!-- Node1&#45;&gt;Node3 -->
<g id="edge2" class="edge"><title>Node1&#45;&gt;Node3</title>
<path fill="none" stroke="midnightblue" d="M364.397,-56.4435C324.269,-47.0629 259.802,-31.9926 216.215,-21.8036"/>
<polygon fill="midnightblue" stroke="midnightblue" points="216.966,-18.3847 206.431,-19.5164 215.372,-25.2009 216.966,-18.3847"/>
</g>
<!-- Node4 -->
<g id="node4" class="node"><title>Node4</title>
<g id="a_node4"><a xlink:href="_control_8cpp.html" target="_top" xlink:title="Base\\Control.cpp">
<polygon fill="white" stroke="black" points="236,-0.5 236,-19.5 328,-19.5 328,-0.5 236,-0.5"/>
<text text-anchor="middle" x="282" y="-7.5" font-family="Helvetica,sans-Serif" font-size="10.00">Base\Control.cpp</text>
</a>
</g>
</g>
<!-- Node1&#45;&gt;Node4 -->
<g id="edge3" class="edge"><title>Node1&#45;&gt;Node4</title>
<path fill="none" stroke="midnightblue" d="M382.144,-56.4435C362.734,-47.6356 332.27,-33.8116 310.035,-23.722"/>
<polygon fill="midnightblue" stroke="midnightblue" points="311.32,-20.4615 300.768,-19.5164 308.428,-26.836 311.32,-20.4615"/>
</g>
<!-- Node5 -->
<g id="node5" class="node"><title>Node5</title>
<g id="a_node5"><a xlink:href="_text_control_8cpp.html" target="_top" xlink:title="Base\\TextControl.cpp">
<polygon fill="white" stroke="black" points="346,-0.5 346,-19.5 456,-19.5 456,-0.5 346,-0.5"/>
<text text-anchor="middle" x="401" y="-7.5" font-family="Helvetica,sans-Serif" font-size="10.00">Base\TextControl.cpp</text>
</a>
</g>
</g>
<!-- Node1&#45;&gt;Node5 -->
<g id="edge4" class="edge"><title>Node1&#45;&gt;Node5</title>
<path fill="none" stroke="midnightblue" d="M401,-56.083C401,-49.0059 401,-38.8611 401,-29.9865"/>
<polygon fill="midnightblue" stroke="midnightblue" points="404.5,-29.751 401,-19.7511 397.5,-29.7511 404.5,-29.751"/>
</g>
<!-- Node6 -->
<g id="node6" class="node"><title>Node6</title>
<g id="a_node6"><a xlink:href="_check_control_8cpp.html" target="_top" xlink:title="Base\\CheckControl.cpp">
<polygon fill="white" stroke="black" points="474.5,-0.5 474.5,-19.5 593.5,-19.5 593.5,-0.5 474.5,-0.5"/>
<text text-anchor="middle" x="534" y="-7.5" font-family="Helvetica,sans-Serif" font-size="10.00">Base\CheckControl.cpp</text>
</a>
</g>
</g>
<!-- Node1&#45;&gt;Node6 -->
<g id="edge5" class="edge"><title>Node1&#45;&gt;Node6</title>
<path fill="none" stroke="midnightblue" d="M422.074,-56.4435C444.06,-47.5171 478.734,-33.4387 503.664,-23.3168"/>
<polygon fill="midnightblue" stroke="midnightblue" points="505.076,-26.5213 513.024,-19.5164 502.442,-20.0355 505.076,-26.5213"/>
</g>
<!-- Node7 -->
<g id="node7" class="node"><title>Node7</title>
<g id="a_node7"><a xlink:href="_list_control_8cpp.html" target="_top" xlink:title="Base\\ListControl.cpp">
<polygon fill="white" stroke="black" points="611.5,-0.5 611.5,-19.5 718.5,-19.5 718.5,-0.5 611.5,-0.5"/>
<text text-anchor="middle" x="665" y="-7.5" font-family="Helvetica,sans-Serif" font-size="10.00">Base\ListControl.cpp</text>
</a>
</g>
</g>
<!-- Node1&#45;&gt;Node7 -->
<g id="edge6" class="edge"><title>Node1&#45;&gt;Node7</title>
<path fill="none" stroke="midnightblue" d="M442.832,-56.4435C489.079,-46.9839 563.612,-31.7384 613.436,-21.5472"/>
<polygon fill="midnightblue" stroke="midnightblue" points="614.268,-24.9495 623.364,-19.5164 612.866,-18.0915 614.268,-24.9495"/>
</g>
<!-- Node8 -->
<g id="node8" class="node"><title>Node8</title>
<g id="a_node8"><a xlink:href="_date_control_8cpp.html" target="_top" xlink:title="Base\\DateControl.cpp">
<polygon fill="white" stroke="black" points="737,-0.5 737,-19.5 849,-19.5 849,-0.5 737,-0.5"/>
<text text-anchor="middle" x="793" y="-7.5" font-family="Helvetica,sans-Serif" font-size="10.00">Base\DateControl.cpp</text>
</a>
</g>
</g>
<!-- Node1&#45;&gt;Node8 -->
<g id="edge7" class="edge"><title>Node1&#45;&gt;Node8</title>
<path fill="none" stroke="midnightblue" d="M463.114,-56.4435C535.073,-46.5308 653.153,-30.2646 726.805,-20.1187"/>
<polygon fill="midnightblue" stroke="midnightblue" points="727.464,-23.561 736.893,-18.729 726.509,-16.6265 727.464,-23.561"/>
</g>
</g>
</svg>
