<?xml version="1.0" encoding="UTF-8" standalone="no"?>
<!DOCTYPE svg PUBLIC "-//W3C//DTD SVG 1.1//EN"
 "http://www.w3.org/Graphics/SVG/1.1/DTD/svg11.dtd">
<!-- Generated by graphviz version 2.36.0 (20140111.2315)
 -->
<!-- Title: KuszkAPI/Forms.h Pages: 1 -->
<svg width="4206pt" height="140pt"
 viewBox="0.00 0.00 4206.00 140.00" xmlns="http://www.w3.org/2000/svg" xmlns:xlink="http://www.w3.org/1999/xlink">
<g id="graph0" class="graph" transform="scale(1 1) rotate(0) translate(4 136)">
<title>KuszkAPI/Forms.h</title>
<polygon fill="white" stroke="none" points="-4,4 -4,-136 4202,-136 4202,4 -4,4"/>
<!-- Node1 -->
<g id="node1" class="node"><title>Node1</title>
<polygon fill="#bfbfbf" stroke="black" points="952.5,-112.5 952.5,-131.5 1051.5,-131.5 1051.5,-112.5 952.5,-112.5"/>
<text text-anchor="middle" x="1002" y="-119.5" font-family="Helvetica,sans-Serif" font-size="10.00">KuszkAPI/Forms.h</text>
</g>
<!-- Node2 -->
<g id="node2" class="node"><title>Node2</title>
<polygon fill="white" stroke="#bfbfbf" points="306.5,-56.5 306.5,-75.5 371.5,-75.5 371.5,-56.5 306.5,-56.5"/>
<text text-anchor="middle" x="339" y="-63.5" font-family="Helvetica,sans-Serif" font-size="10.00">Windows.h</text>
</g>
<!-- Node1&#45;&gt;Node2 -->
<g id="edge1" class="edge"><title>Node1&#45;&gt;Node2</title>
<path fill="none" stroke="midnightblue" d="M952.244,-119.736C848.159,-116.587 599.75,-106.429 381.957,-75.9304"/>
<polygon fill="midnightblue" stroke="midnightblue" points="382.33,-72.4483 371.937,-74.5097 381.347,-79.379 382.33,-72.4483"/>
</g>
<!-- Node3 -->
<g id="node3" class="node"><title>Node3</title>
<polygon fill="white" stroke="#bfbfbf" points="390,-56.5 390,-75.5 460,-75.5 460,-56.5 390,-56.5"/>
<text text-anchor="middle" x="425" y="-63.5" font-family="Helvetica,sans-Serif" font-size="10.00">Windowsx.h</text>
</g>
<!-- Node1&#45;&gt;Node3 -->
<g id="edge2" class="edge"><title>Node1&#45;&gt;Node3</title>
<path fill="none" stroke="midnightblue" d="M952.178,-118.751C859.312,-114.135 653.327,-101.895 470.543,-76.0692"/>
<polygon fill="midnightblue" stroke="midnightblue" points="470.874,-72.5809 460.479,-74.6299 469.883,-79.5104 470.874,-72.5809"/>
</g>
<!-- Node4 -->
<g id="node4" class="node"><title>Node4</title>
<polygon fill="white" stroke="#bfbfbf" points="478.5,-56.5 478.5,-75.5 545.5,-75.5 545.5,-56.5 478.5,-56.5"/>
<text text-anchor="middle" x="512" y="-63.5" font-family="Helvetica,sans-Serif" font-size="10.00">Commctrl.h</text>
</g>
<!-- Node1&#45;&gt;Node4 -->
<g id="edge3" class="edge"><title>Node1&#45;&gt;Node4</title>
<path fill="none" stroke="midnightblue" d="M952.172,-117.716C871.234,-112.003 706.009,-98.769 556.051,-75.999"/>
<polygon fill="midnightblue" stroke="midnightblue" points="556.155,-72.474 545.739,-74.4143 555.092,-79.3928 556.155,-72.474"/>
</g>
<!-- Node5 -->
<g id="node5" class="node"><title>Node5</title>
<g id="a_node5"><a xlink:href="_headers_8h.html" target="_top" xlink:title="Forms\\Headers.h">
<polygon fill="white" stroke="black" points="564,-56.5 564,-75.5 656,-75.5 656,-56.5 564,-56.5"/>
<text text-anchor="middle" x="610" y="-63.5" font-family="Helvetica,sans-Serif" font-size="10.00">Forms\Headers.h</text>
</a>
</g>
</g>
<!-- Node1&#45;&gt;Node5 -->
<g id="edge4" class="edge"><title>Node1&#45;&gt;Node5</title>
<path fill="none" stroke="midnightblue" d="M952.258,-114.823C888.444,-106.796 774.073,-92.0613 666.273,-76.154"/>
<polygon fill="midnightblue" stroke="midnightblue" points="666.603,-72.6648 656.198,-74.661 665.577,-79.5892 666.603,-72.6648"/>
</g>
<!-- Node6 -->
<g id="node6" class="node"><title>Node6</title>
<g id="a_node6"><a xlink:href="_tools_8h.html" target="_top" xlink:title="Forms\\Tools.h">
<polygon fill="white" stroke="black" points="674.5,-56.5 674.5,-75.5 753.5,-75.5 753.5,-56.5 674.5,-56.5"/>
<text text-anchor="middle" x="714" y="-63.5" font-family="Helvetica,sans-Serif" font-size="10.00">Forms\Tools.h</text>
</a>
</g>
</g>
<!-- Node1&#45;&gt;Node6 -->
<g id="edge5" class="edge"><title>Node1&#45;&gt;Node6</title>
<path fill="none" stroke="midnightblue" d="M956.366,-112.444C903.915,-102.609 818.114,-86.5214 763.923,-76.3605"/>
<polygon fill="midnightblue" stroke="midnightblue" points="764.33,-72.8759 753.856,-74.473 763.04,-79.756 764.33,-72.8759"/>
</g>
<!-- Node15 -->
<g id="node15" class="node"><title>Node15</title>
<g id="a_node15"><a xlink:href="_forms_2_base_8h.html" target="_top" xlink:title="Forms\\Base.h">
<polygon fill="white" stroke="black" points="1193,-56.5 1193,-75.5 1271,-75.5 1271,-56.5 1193,-56.5"/>
<text text-anchor="middle" x="1232" y="-63.5" font-family="Helvetica,sans-Serif" font-size="10.00">Forms\Base.h</text>
</a>
</g>
</g>
<!-- Node1&#45;&gt;Node15 -->
<g id="edge14" class="edge"><title>Node1&#45;&gt;Node15</title>
<path fill="none" stroke="midnightblue" d="M1038.44,-112.444C1078.4,-103.063 1142.59,-87.9926 1185.98,-77.8036"/>
<polygon fill="midnightblue" stroke="midnightblue" points="1186.79,-81.2095 1195.73,-75.5164 1185.19,-74.3948 1186.79,-81.2095"/>
</g>
<!-- Node23 -->
<g id="node23" class="node"><title>Node23</title>
<g id="a_node23"><a xlink:href="_controls_8h.html" target="_top" xlink:title="Forms\\Controls.h">
<polygon fill="white" stroke="black" points="2368,-56.5 2368,-75.5 2460,-75.5 2460,-56.5 2368,-56.5"/>
<text text-anchor="middle" x="2414" y="-63.5" font-family="Helvetica,sans-Serif" font-size="10.00">Forms\Controls.h</text>
</a>
</g>
</g>
<!-- Node1&#45;&gt;Node23 -->
<g id="edge22" class="edge"><title>Node1&#45;&gt;Node23</title>
<path fill="none" stroke="midnightblue" d="M1051.84,-119.094C1268.63,-110.803 2128.88,-77.9039 2357.8,-69.1493"/>
<polygon fill="midnightblue" stroke="midnightblue" points="2358.04,-72.6426 2367.9,-68.7629 2357.78,-65.6478 2358.04,-72.6426"/>
</g>
<!-- Node36 -->
<g id="node36" class="node"><title>Node36</title>
<g id="a_node36"><a xlink:href="_form_8h.html" target="_top" xlink:title="Forms\\Form.h">
<polygon fill="white" stroke="black" points="3239,-56.5 3239,-75.5 3317,-75.5 3317,-56.5 3239,-56.5"/>
<text text-anchor="middle" x="3278" y="-63.5" font-family="Helvetica,sans-Serif" font-size="10.00">Forms\Form.h</text>
</a>
</g>
</g>
<!-- Node1&#45;&gt;Node36 -->
<g id="edge35" class="edge"><title>Node1&#45;&gt;Node36</title>
<path fill="none" stroke="midnightblue" d="M1051.65,-119.822C1352.49,-112.684 2928.25,-75.2981 3228.54,-68.1735"/>
<polygon fill="midnightblue" stroke="midnightblue" points="3228.76,-71.6692 3238.68,-67.9329 3228.6,-64.6712 3228.76,-71.6692"/>
</g>
<!-- Node39 -->
<g id="node39" class="node"><title>Node39</title>
<g id="a_node39"><a xlink:href="_dialogs_8h.html" target="_top" xlink:title="Forms\\Dialogs.h">
<polygon fill="white" stroke="black" points="3607,-56.5 3607,-75.5 3695,-75.5 3695,-56.5 3607,-56.5"/>
<text text-anchor="middle" x="3651" y="-63.5" font-family="Helvetica,sans-Serif" font-size="10.00">Forms\Dialogs.h</text>
</a>
</g>
</g>
<!-- Node1&#45;&gt;Node39 -->
<g id="edge38" class="edge"><title>Node1&#45;&gt;Node39</title>
<path fill="none" stroke="midnightblue" d="M1051.88,-120.188C1298.61,-116.14 2413.23,-97.4751 3326,-76 3421.15,-73.7614 3531.95,-70.5674 3596.51,-68.6476"/>
<polygon fill="midnightblue" stroke="midnightblue" points="3596.95,-72.1359 3606.85,-68.3392 3596.75,-65.139 3596.95,-72.1359"/>
</g>
<!-- Node44 -->
<g id="node44" class="node"><title>Node44</title>
<g id="a_node44"><a xlink:href="_fonts_8h.html" target="_top" xlink:title="Forms\\Fonts.h">
<polygon fill="white" stroke="black" points="4004,-56.5 4004,-75.5 4084,-75.5 4084,-56.5 4004,-56.5"/>
<text text-anchor="middle" x="4044" y="-63.5" font-family="Helvetica,sans-Serif" font-size="10.00">Forms\Fonts.h</text>
</a>
</g>
</g>
<!-- Node1&#45;&gt;Node44 -->
<g id="edge43" class="edge"><title>Node1&#45;&gt;Node44</title>
<path fill="none" stroke="midnightblue" d="M1051.74,-120.354C1321.06,-116.816 2632.21,-99.1098 3704,-76 3806.97,-73.7798 3927.46,-70.4071 3993.79,-68.483"/>
<polygon fill="midnightblue" stroke="midnightblue" points="3994.07,-71.9766 4003.96,-68.1871 3993.86,-64.9795 3994.07,-71.9766"/>
</g>
<!-- Node7 -->
<g id="node7" class="node"><title>Node7</title>
<g id="a_node7"><a xlink:href="_forms_2_tools_2_declarations_8h.html" target="_top" xlink:title="Tools\\Declarations.h">
<polygon fill="white" stroke="black" points="-0.5,-0.5 -0.5,-19.5 104.5,-19.5 104.5,-0.5 -0.5,-0.5"/>
<text text-anchor="middle" x="52" y="-7.5" font-family="Helvetica,sans-Serif" font-size="10.00">Tools\Declarations.h</text>
</a>
</g>
</g>
<!-- Node6&#45;&gt;Node7 -->
<g id="edge6" class="edge"><title>Node6&#45;&gt;Node7</title>
<path fill="none" stroke="midnightblue" d="M674.481,-57.3329C671.28,-56.8366 668.09,-56.3832 665,-56 424.35,-26.1554 359.251,-45.4205 114.807,-20.1072"/>
<polygon fill="midnightblue" stroke="midnightblue" points="114.849,-16.5924 104.538,-19.0286 114.118,-23.5541 114.849,-16.5924"/>
</g>
<!-- Node8 -->
<g id="node8" class="node"><title>Node8</title>
<g id="a_node8"><a xlink:href="_gdi_object_8cpp.html" target="_top" xlink:title="Tools\\GdiObject.cpp">
<polygon fill="white" stroke="black" points="122.5,-0.5 122.5,-19.5 227.5,-19.5 227.5,-0.5 122.5,-0.5"/>
<text text-anchor="middle" x="175" y="-7.5" font-family="Helvetica,sans-Serif" font-size="10.00">Tools\GdiObject.cpp</text>
</a>
</g>
</g>
<!-- Node6&#45;&gt;Node8 -->
<g id="edge7" class="edge"><title>Node6&#45;&gt;Node8</title>
<path fill="none" stroke="midnightblue" d="M674.472,-57.3972C671.274,-56.8865 668.086,-56.4122 665,-56 479.02,-31.1591 428.374,-41.3562 237.806,-20.0179"/>
<polygon fill="midnightblue" stroke="midnightblue" points="238.068,-16.5253 227.737,-18.8759 237.279,-23.4807 238.068,-16.5253"/>
</g>
<!-- Node9 -->
<g id="node9" class="node"><title>Node9</title>
<g id="a_node9"><a xlink:href="_bitmap_8cpp.html" target="_top" xlink:title="Tools\\Bitmap.cpp">
<polygon fill="white" stroke="black" points="246,-0.5 246,-19.5 338,-19.5 338,-0.5 246,-0.5"/>
<text text-anchor="middle" x="292" y="-7.5" font-family="Helvetica,sans-Serif" font-size="10.00">Tools\Bitmap.cpp</text>
</a>
</g>
</g>
<!-- Node6&#45;&gt;Node9 -->
<g id="edge8" class="edge"><title>Node6&#45;&gt;Node9</title>
<path fill="none" stroke="midnightblue" d="M674.459,-57.4956C671.263,-56.9628 668.08,-56.4567 665,-56 527.462,-35.6086 489.582,-39.308 348.107,-20.0898"/>
<polygon fill="midnightblue" stroke="midnightblue" points="348.572,-16.6208 338.188,-18.7282 347.619,-23.5558 348.572,-16.6208"/>
</g>
<!-- Node10 -->
<g id="node10" class="node"><title>Node10</title>
<g id="a_node10"><a xlink:href="_icon_8cpp.html" target="_top" xlink:title="Tools\\Icon.cpp">
<polygon fill="white" stroke="black" points="356,-0.5 356,-19.5 436,-19.5 436,-0.5 356,-0.5"/>
<text text-anchor="middle" x="396" y="-7.5" font-family="Helvetica,sans-Serif" font-size="10.00">Tools\Icon.cpp</text>
</a>
</g>
</g>
<!-- Node6&#45;&gt;Node10 -->
<g id="edge9" class="edge"><title>Node6&#45;&gt;Node10</title>
<path fill="none" stroke="midnightblue" d="M674.431,-57.6641C671.242,-57.0935 668.068,-56.5327 665,-56 570.528,-39.5961 544.289,-37.1009 446.149,-20.1712"/>
<polygon fill="midnightblue" stroke="midnightblue" points="446.551,-16.6888 436.1,-18.4309 445.356,-23.5862 446.551,-16.6888"/>
</g>
<!-- Node11 -->
<g id="node11" class="node"><title>Node11</title>
<g id="a_node11"><a xlink:href="_cursor_8cpp.html" target="_top" xlink:title="Tools\\Cursor.cpp">
<polygon fill="white" stroke="black" points="454,-0.5 454,-19.5 544,-19.5 544,-0.5 454,-0.5"/>
<text text-anchor="middle" x="499" y="-7.5" font-family="Helvetica,sans-Serif" font-size="10.00">Tools\Cursor.cpp</text>
</a>
</g>
</g>
<!-- Node6&#45;&gt;Node11 -->
<g id="edge10" class="edge"><title>Node6&#45;&gt;Node11</title>
<path fill="none" stroke="midnightblue" d="M679.933,-56.4435C642.82,-47.1221 583.339,-32.1828 542.785,-21.9972"/>
<polygon fill="midnightblue" stroke="midnightblue" points="543.459,-18.5579 532.908,-19.5164 541.754,-25.347 543.459,-18.5579"/>
</g>
<!-- Node12 -->
<g id="node12" class="node"><title>Node12</title>
<g id="a_node12"><a xlink:href="_brush_8cpp.html" target="_top" xlink:title="Tools\\Brush.cpp">
<polygon fill="white" stroke="black" points="562.5,-0.5 562.5,-19.5 649.5,-19.5 649.5,-0.5 562.5,-0.5"/>
<text text-anchor="middle" x="606" y="-7.5" font-family="Helvetica,sans-Serif" font-size="10.00">Tools\Brush.cpp</text>
</a>
</g>
</g>
<!-- Node6&#45;&gt;Node12 -->
<g id="edge11" class="edge"><title>Node6&#45;&gt;Node12</title>
<path fill="none" stroke="midnightblue" d="M696.648,-56.324C679.328,-47.6641 652.485,-34.2424 632.498,-24.249"/>
<polygon fill="midnightblue" stroke="midnightblue" points="633.819,-20.9962 623.309,-19.6545 630.688,-27.2572 633.819,-20.9962"/>
</g>
<!-- Node13 -->
<g id="node13" class="node"><title>Node13</title>
<g id="a_node13"><a xlink:href="_region_8cpp.html" target="_top" xlink:title="Tools\\Region.cpp">
<polygon fill="white" stroke="black" points="668,-0.5 668,-19.5 760,-19.5 760,-0.5 668,-0.5"/>
<text text-anchor="middle" x="714" y="-7.5" font-family="Helvetica,sans-Serif" font-size="10.00">Tools\Region.cpp</text>
</a>
</g>
</g>
<!-- Node6&#45;&gt;Node13 -->
<g id="edge12" class="edge"><title>Node6&#45;&gt;Node13</title>
<path fill="none" stroke="midnightblue" d="M714,-56.083C714,-49.0059 714,-38.8611 714,-29.9865"/>
<polygon fill="midnightblue" stroke="midnightblue" points="717.5,-29.751 714,-19.7511 710.5,-29.7511 717.5,-29.751"/>
</g>
<!-- Node14 -->
<g id="node14" class="node"><title>Node14</title>
<g id="a_node14"><a xlink:href="_images_8cpp.html" target="_top" xlink:title="Tools\\Images.cpp">
<polygon fill="white" stroke="black" points="778.5,-0.5 778.5,-19.5 871.5,-19.5 871.5,-0.5 778.5,-0.5"/>
<text text-anchor="middle" x="825" y="-7.5" font-family="Helvetica,sans-Serif" font-size="10.00">Tools\Images.cpp</text>
</a>
</g>
</g>
<!-- Node6&#45;&gt;Node14 -->
<g id="edge13" class="edge"><title>Node6&#45;&gt;Node14</title>
<path fill="none" stroke="midnightblue" d="M731.834,-56.324C749.716,-47.6247 777.475,-34.1202 798.046,-24.113"/>
<polygon fill="midnightblue" stroke="midnightblue" points="799.749,-27.1765 807.21,-19.6545 796.687,-20.8819 799.749,-27.1765"/>
</g>
<!-- Node16 -->
<g id="node16" class="node"><title>Node16</title>
<g id="a_node16"><a xlink:href="_forms_2_base_2_declarations_8h.html" target="_top" xlink:title="Base\\Declarations.h">
<polygon fill="white" stroke="black" points="890,-0.5 890,-19.5 994,-19.5 994,-0.5 890,-0.5"/>
<text text-anchor="middle" x="942" y="-7.5" font-family="Helvetica,sans-Serif" font-size="10.00">Base\Declarations.h</text>
</a>
</g>
</g>
<!-- Node15&#45;&gt;Node16 -->
<g id="edge15" class="edge"><title>Node15&#45;&gt;Node16</title>
<path fill="none" stroke="midnightblue" d="M1192.89,-57.7173C1142.72,-48.375 1055.36,-32.1078 998.104,-21.447"/>
<polygon fill="midnightblue" stroke="midnightblue" points="998.603,-17.9799 988.132,-19.59 997.322,-24.8616 998.603,-17.9799"/>
</g>
<!-- Node17 -->
<g id="node17" class="node"><title>Node17</title>
<g id="a_node17"><a xlink:href="_window_8cpp.html" target="_top" xlink:title="Base\\Window.cpp">
<polygon fill="white" stroke="black" points="1012.5,-0.5 1012.5,-19.5 1107.5,-19.5 1107.5,-0.5 1012.5,-0.5"/>
<text text-anchor="middle" x="1060" y="-7.5" font-family="Helvetica,sans-Serif" font-size="10.00">Base\Window.cpp</text>
</a>
</g>
</g>
<!-- Node15&#45;&gt;Node17 -->
<g id="edge16" class="edge"><title>Node15&#45;&gt;Node17</title>
<path fill="none" stroke="midnightblue" d="M1204.75,-56.4435C1175.56,-47.2801 1129.08,-32.6876 1096.69,-22.5192"/>
<polygon fill="midnightblue" stroke="midnightblue" points="1097.72,-19.1726 1087.13,-19.5164 1095.62,-25.8512 1097.72,-19.1726"/>
</g>
<!-- Node18 -->
<g id="node18" class="node"><title>Node18</title>
<g id="a_node18"><a xlink:href="_control_8cpp.html" target="_top" xlink:title="Base\\Control.cpp">
<polygon fill="white" stroke="black" points="1126,-0.5 1126,-19.5 1218,-19.5 1218,-0.5 1126,-0.5"/>
<text text-anchor="middle" x="1172" y="-7.5" font-family="Helvetica,sans-Serif" font-size="10.00">Base\Control.cpp</text>
</a>
</g>
</g>
<!-- Node15&#45;&gt;Node18 -->
<g id="edge17" class="edge"><title>Node15&#45;&gt;Node18</title>
<path fill="none" stroke="midnightblue" d="M1222.36,-56.324C1213.49,-48.3414 1200.13,-36.3128 1189.39,-26.6529"/>
<polygon fill="midnightblue" stroke="midnightblue" points="1191.59,-23.922 1181.82,-19.8339 1186.91,-29.1251 1191.59,-23.922"/>
</g>
<!-- Node19 -->
<g id="node19" class="node"><title>Node19</title>
<g id="a_node19"><a xlink:href="_text_control_8cpp.html" target="_top" xlink:title="Base\\TextControl.cpp">
<polygon fill="white" stroke="black" points="1236,-0.5 1236,-19.5 1346,-19.5 1346,-0.5 1236,-0.5"/>
<text text-anchor="middle" x="1291" y="-7.5" font-family="Helvetica,sans-Serif" font-size="10.00">Base\TextControl.cpp</text>
</a>
</g>
</g>
<!-- Node15&#45;&gt;Node19 -->
<g id="edge18" class="edge"><title>Node15&#45;&gt;Node19</title>
<path fill="none" stroke="midnightblue" d="M1241.48,-56.324C1250.2,-48.3414 1263.34,-36.3128 1273.9,-26.6529"/>
<polygon fill="midnightblue" stroke="midnightblue" points="1276.33,-29.1674 1281.35,-19.8339 1271.61,-24.0036 1276.33,-29.1674"/>
</g>
<!-- Node20 -->
<g id="node20" class="node"><title>Node20</title>
<g id="a_node20"><a xlink:href="_check_control_8cpp.html" target="_top" xlink:title="Base\\CheckControl.cpp">
<polygon fill="white" stroke="black" points="1364.5,-0.5 1364.5,-19.5 1483.5,-19.5 1483.5,-0.5 1364.5,-0.5"/>
<text text-anchor="middle" x="1424" y="-7.5" font-family="Helvetica,sans-Serif" font-size="10.00">Base\CheckControl.cpp</text>
</a>
</g>
</g>
<!-- Node15&#45;&gt;Node20 -->
<g id="edge19" class="edge"><title>Node15&#45;&gt;Node20</title>
<path fill="none" stroke="midnightblue" d="M1262.42,-56.4435C1295.28,-47.2011 1347.78,-32.4356 1383.97,-22.2572"/>
<polygon fill="midnightblue" stroke="midnightblue" points="1385.04,-25.5932 1393.72,-19.5164 1383.15,-18.8547 1385.04,-25.5932"/>
</g>
<!-- Node21 -->
<g id="node21" class="node"><title>Node21</title>
<g id="a_node21"><a xlink:href="_list_control_8cpp.html" target="_top" xlink:title="Base\\ListControl.cpp">
<polygon fill="white" stroke="black" points="1501.5,-0.5 1501.5,-19.5 1608.5,-19.5 1608.5,-0.5 1501.5,-0.5"/>
<text text-anchor="middle" x="1555" y="-7.5" font-family="Helvetica,sans-Serif" font-size="10.00">Base\ListControl.cpp</text>
</a>
</g>
</g>
<!-- Node15&#45;&gt;Node21 -->
<g id="edge20" class="edge"><title>Node15&#45;&gt;Node21</title>
<path fill="none" stroke="midnightblue" d="M1271.28,-58.4325C1326.74,-49.1611 1428.5,-32.1489 1493.88,-21.2179"/>
<polygon fill="midnightblue" stroke="midnightblue" points="1494.76,-24.619 1504.05,-19.5179 1493.61,-17.7148 1494.76,-24.619"/>
</g>
<!-- Node22 -->
<g id="node22" class="node"><title>Node22</title>
<g id="a_node22"><a xlink:href="_date_control_8cpp.html" target="_top" xlink:title="Base\\DateControl.cpp">
<polygon fill="white" stroke="black" points="1627,-0.5 1627,-19.5 1739,-19.5 1739,-0.5 1627,-0.5"/>
<text text-anchor="middle" x="1683" y="-7.5" font-family="Helvetica,sans-Serif" font-size="10.00">Base\DateControl.cpp</text>
</a>
</g>
</g>
<!-- Node15&#45;&gt;Node22 -->
<g id="edge21" class="edge"><title>Node15&#45;&gt;Node22</title>
<path fill="none" stroke="midnightblue" d="M1271.1,-60.68C1339.01,-53.1239 1483.38,-36.8186 1616.84,-19.9965"/>
<polygon fill="midnightblue" stroke="midnightblue" points="1617.36,-23.4592 1626.84,-18.7327 1616.48,-16.5145 1617.36,-23.4592"/>
</g>
<!-- Node24 -->
<g id="node24" class="node"><title>Node24</title>
<g id="a_node24"><a xlink:href="_forms_2_controls_2_declarations_8h.html" target="_top" xlink:title="Controls\\Declarations.h">
<polygon fill="white" stroke="black" points="1757,-0.5 1757,-19.5 1875,-19.5 1875,-0.5 1757,-0.5"/>
<text text-anchor="middle" x="1816" y="-7.5" font-family="Helvetica,sans-Serif" font-size="10.00">Controls\Declarations.h</text>
</a>
</g>
</g>
<!-- Node23&#45;&gt;Node24 -->
<g id="edge23" class="edge"><title>Node23&#45;&gt;Node24</title>
<path fill="none" stroke="midnightblue" d="M2367.85,-61.8131C2277.4,-55.4083 2070.22,-39.9578 1885.49,-20.117"/>
<polygon fill="midnightblue" stroke="midnightblue" points="1885.64,-16.6124 1875.32,-19.0175 1884.88,-23.5719 1885.64,-16.6124"/>
</g>
<!-- Node25 -->
<g id="node25" class="node"><title>Node25</title>
<g id="a_node25"><a xlink:href="_button_8cpp.html" target="_top" xlink:title="Controls\\Button.cpp">
<polygon fill="white" stroke="black" points="1893.5,-0.5 1893.5,-19.5 1996.5,-19.5 1996.5,-0.5 1893.5,-0.5"/>
<text text-anchor="middle" x="1945" y="-7.5" font-family="Helvetica,sans-Serif" font-size="10.00">Controls\Button.cpp</text>
</a>
</g>
</g>
<!-- Node23&#45;&gt;Node25 -->
<g id="edge24" class="edge"><title>Node23&#45;&gt;Node25</title>
<path fill="none" stroke="midnightblue" d="M2367.93,-60.5269C2293.98,-53.2168 2143.96,-37.8519 2006.95,-20.214"/>
<polygon fill="midnightblue" stroke="midnightblue" points="2007.06,-16.6987 1996.69,-18.8857 2006.16,-23.6407 2007.06,-16.6987"/>
</g>
<!-- Node26 -->
<g id="node26" class="node"><title>Node26</title>
<g id="a_node26"><a xlink:href="_radio_8cpp.html" target="_top" xlink:title="Controls\\Radio.cpp">
<polygon fill="white" stroke="black" points="2014.5,-0.5 2014.5,-19.5 2113.5,-19.5 2113.5,-0.5 2014.5,-0.5"/>
<text text-anchor="middle" x="2064" y="-7.5" font-family="Helvetica,sans-Serif" font-size="10.00">Controls\Radio.cpp</text>
</a>
</g>
</g>
<!-- Node23&#45;&gt;Node26 -->
<g id="edge25" class="edge"><title>Node23&#45;&gt;Node26</title>
<path fill="none" stroke="midnightblue" d="M2367.88,-57.8849C2305.2,-48.2144 2193.03,-30.907 2123.9,-20.242"/>
<polygon fill="midnightblue" stroke="midnightblue" points="2124.03,-16.7198 2113.61,-18.6539 2122.96,-23.6379 2124.03,-16.7198"/>
</g>
<!-- Node27 -->
<g id="node27" class="node"><title>Node27</title>
<g id="a_node27"><a xlink:href="_check_8cpp.html" target="_top" xlink:title="Controls\\Check.cpp">
<polygon fill="white" stroke="black" points="2132,-0.5 2132,-19.5 2234,-19.5 2234,-0.5 2132,-0.5"/>
<text text-anchor="middle" x="2183" y="-7.5" font-family="Helvetica,sans-Serif" font-size="10.00">Controls\Check.cpp</text>
</a>
</g>
</g>
<!-- Node23&#45;&gt;Node27 -->
<g id="edge26" class="edge"><title>Node23&#45;&gt;Node27</title>
<path fill="none" stroke="midnightblue" d="M2377.4,-56.4435C2337.27,-47.0629 2272.8,-31.9926 2229.22,-21.8036"/>
<polygon fill="midnightblue" stroke="midnightblue" points="2229.97,-18.3847 2219.43,-19.5164 2228.37,-25.2009 2229.97,-18.3847"/>
</g>
<!-- Node28 -->
<g id="node28" class="node"><title>Node28</title>
<g id="a_node28"><a xlink:href="_label_8cpp.html" target="_top" xlink:title="Controls\\Label.cpp">
<polygon fill="white" stroke="black" points="2252,-0.5 2252,-19.5 2350,-19.5 2350,-0.5 2252,-0.5"/>
<text text-anchor="middle" x="2301" y="-7.5" font-family="Helvetica,sans-Serif" font-size="10.00">Controls\Label.cpp</text>
</a>
</g>
</g>
<!-- Node23&#45;&gt;Node28 -->
<g id="edge27" class="edge"><title>Node23&#45;&gt;Node28</title>
<path fill="none" stroke="midnightblue" d="M2396.09,-56.4435C2377.75,-47.6751 2348.99,-33.9355 2327.91,-23.8579"/>
<polygon fill="midnightblue" stroke="midnightblue" points="2329.35,-20.6703 2318.82,-19.5164 2326.33,-26.9862 2329.35,-20.6703"/>
</g>
<!-- Node29 -->
<g id="node29" class="node"><title>Node29</title>
<g id="a_node29"><a xlink:href="_edit_8cpp.html" target="_top" xlink:title="Controls\\Edit.cpp">
<polygon fill="white" stroke="black" points="2368,-0.5 2368,-19.5 2460,-19.5 2460,-0.5 2368,-0.5"/>
<text text-anchor="middle" x="2414" y="-7.5" font-family="Helvetica,sans-Serif" font-size="10.00">Controls\Edit.cpp</text>
</a>
</g>
</g>
<!-- Node23&#45;&gt;Node29 -->
<g id="edge28" class="edge"><title>Node23&#45;&gt;Node29</title>
<path fill="none" stroke="midnightblue" d="M2414,-56.083C2414,-49.0059 2414,-38.8611 2414,-29.9865"/>
<polygon fill="midnightblue" stroke="midnightblue" points="2417.5,-29.751 2414,-19.7511 2410.5,-29.7511 2417.5,-29.751"/>
</g>
<!-- Node30 -->
<g id="node30" class="node"><title>Node30</title>
<g id="a_node30"><a xlink:href="_listbox_8cpp.html" target="_top" xlink:title="Controls\\Listbox.cpp">
<polygon fill="white" stroke="black" points="2478,-0.5 2478,-19.5 2584,-19.5 2584,-0.5 2478,-0.5"/>
<text text-anchor="middle" x="2531" y="-7.5" font-family="Helvetica,sans-Serif" font-size="10.00">Controls\Listbox.cpp</text>
</a>
</g>
</g>
<!-- Node23&#45;&gt;Node30 -->
<g id="edge29" class="edge"><title>Node23&#45;&gt;Node30</title>
<path fill="none" stroke="midnightblue" d="M2432.54,-56.4435C2451.62,-47.6356 2481.57,-33.8116 2503.44,-23.722"/>
<polygon fill="midnightblue" stroke="midnightblue" points="2504.93,-26.8849 2512.55,-19.5164 2502,-20.5292 2504.93,-26.8849"/>
</g>
<!-- Node31 -->
<g id="node31" class="node"><title>Node31</title>
<g id="a_node31"><a xlink:href="_combobox_8cpp.html" target="_top" xlink:title="Controls\\Combobox.cpp">
<polygon fill="white" stroke="black" points="2602.5,-0.5 2602.5,-19.5 2723.5,-19.5 2723.5,-0.5 2602.5,-0.5"/>
<text text-anchor="middle" x="2663" y="-7.5" font-family="Helvetica,sans-Serif" font-size="10.00">Controls\Combobox.cpp</text>
</a>
</g>
</g>
<!-- Node23&#45;&gt;Node31 -->
<g id="edge30" class="edge"><title>Node23&#45;&gt;Node31</title>
<path fill="none" stroke="midnightblue" d="M2453.45,-56.4435C2496.89,-47.0234 2566.79,-31.8656 2613.78,-21.6752"/>
<polygon fill="midnightblue" stroke="midnightblue" points="2614.7,-25.0564 2623.73,-19.5164 2613.22,-18.2154 2614.7,-25.0564"/>
</g>
<!-- Node32 -->
<g id="node32" class="node"><title>Node32</title>
<g id="a_node32"><a xlink:href="_table_8cpp.html" target="_top" xlink:title="Controls\\Table.cpp">
<polygon fill="white" stroke="black" points="2742,-0.5 2742,-19.5 2840,-19.5 2840,-0.5 2742,-0.5"/>
<text text-anchor="middle" x="2791" y="-7.5" font-family="Helvetica,sans-Serif" font-size="10.00">Controls\Table.cpp</text>
</a>
</g>
</g>
<!-- Node23&#45;&gt;Node32 -->
<g id="edge31" class="edge"><title>Node23&#45;&gt;Node32</title>
<path fill="none" stroke="midnightblue" d="M2460.1,-58.6352C2520.05,-50.3236 2628.29,-35.1967 2731.75,-20.0218"/>
<polygon fill="midnightblue" stroke="midnightblue" points="2732.37,-23.4696 2741.75,-18.5533 2731.35,-16.544 2732.37,-23.4696"/>
</g>
<!-- Node33 -->
<g id="node33" class="node"><title>Node33</title>
<g id="a_node33"><a xlink:href="_calendar_8cpp.html" target="_top" xlink:title="Controls\\Calendar.cpp">
<polygon fill="white" stroke="black" points="2858.5,-0.5 2858.5,-19.5 2971.5,-19.5 2971.5,-0.5 2858.5,-0.5"/>
<text text-anchor="middle" x="2915" y="-7.5" font-family="Helvetica,sans-Serif" font-size="10.00">Controls\Calendar.cpp</text>
</a>
</g>
</g>
<!-- Node23&#45;&gt;Node33 -->
<g id="edge32" class="edge"><title>Node23&#45;&gt;Node33</title>
<path fill="none" stroke="midnightblue" d="M2460.09,-60.7278C2537.77,-53.4187 2699.97,-37.6933 2848.29,-20.0479"/>
<polygon fill="midnightblue" stroke="midnightblue" points="2848.98,-23.4908 2858.49,-18.8287 2848.15,-16.5403 2848.98,-23.4908"/>
</g>
<!-- Node34 -->
<g id="node34" class="node"><title>Node34</title>
<g id="a_node34"><a xlink:href="_tab_8cpp.html" target="_top" xlink:title="Controls\\Tab.cpp">
<polygon fill="white" stroke="black" points="2990,-0.5 2990,-19.5 3080,-19.5 3080,-0.5 2990,-0.5"/>
<text text-anchor="middle" x="3035" y="-7.5" font-family="Helvetica,sans-Serif" font-size="10.00">Controls\Tab.cpp</text>
</a>
</g>
</g>
<!-- Node23&#45;&gt;Node34 -->
<g id="edge33" class="edge"><title>Node23&#45;&gt;Node34</title>
<path fill="none" stroke="midnightblue" d="M2460.35,-62.6191C2555.54,-57.4477 2780.09,-43.799 2979.64,-19.9317"/>
<polygon fill="midnightblue" stroke="midnightblue" points="2980.21,-23.3878 2989.72,-18.7142 2979.37,-16.4382 2980.21,-23.3878"/>
</g>
<!-- Node35 -->
<g id="node35" class="node"><title>Node35</title>
<g id="a_node35"><a xlink:href="_controls_8cpp.html" target="_top" xlink:title="Controls\\Controls.cpp">
<polygon fill="white" stroke="black" points="3098,-0.5 3098,-19.5 3208,-19.5 3208,-0.5 3098,-0.5"/>
<text text-anchor="middle" x="3153" y="-7.5" font-family="Helvetica,sans-Serif" font-size="10.00">Controls\Controls.cpp</text>
</a>
</g>
</g>
<!-- Node23&#45;&gt;Node35 -->
<g id="edge34" class="edge"><title>Node23&#45;&gt;Node35</title>
<path fill="none" stroke="midnightblue" d="M2460.34,-63.0806C2568.38,-58.3536 2845.59,-44.7736 3087.82,-20.0477"/>
<polygon fill="midnightblue" stroke="midnightblue" points="3088.28,-23.5186 3097.87,-19.013 3087.57,-16.5554 3088.28,-23.5186"/>
</g>
<!-- Node37 -->
<g id="node37" class="node"><title>Node37</title>
<g id="a_node37"><a xlink:href="_forms_2_form_2_declarations_8h.html" target="_top" xlink:title="Form\\Declarations.h">
<polygon fill="white" stroke="black" points="3226,-0.5 3226,-19.5 3330,-19.5 3330,-0.5 3226,-0.5"/>
<text text-anchor="middle" x="3278" y="-7.5" font-family="Helvetica,sans-Serif" font-size="10.00">Form\Declarations.h</text>
</a>
</g>
</g>
<!-- Node36&#45;&gt;Node37 -->
<g id="edge36" class="edge"><title>Node36&#45;&gt;Node37</title>
<path fill="none" stroke="midnightblue" d="M3278,-56.083C3278,-49.0059 3278,-38.8611 3278,-29.9865"/>
<polygon fill="midnightblue" stroke="midnightblue" points="3281.5,-29.751 3278,-19.7511 3274.5,-29.7511 3281.5,-29.751"/>
</g>
<!-- Node38 -->
<g id="node38" class="node"><title>Node38</title>
<g id="a_node38"><a xlink:href="_form_8cpp.html" target="_top" xlink:title="Form\\Form.cpp">
<polygon fill="white" stroke="black" points="3348.5,-0.5 3348.5,-19.5 3431.5,-19.5 3431.5,-0.5 3348.5,-0.5"/>
<text text-anchor="middle" x="3390" y="-7.5" font-family="Helvetica,sans-Serif" font-size="10.00">Form\Form.cpp</text>
</a>
</g>
</g>
<!-- Node36&#45;&gt;Node38 -->
<g id="edge37" class="edge"><title>Node36&#45;&gt;Node38</title>
<path fill="none" stroke="midnightblue" d="M3295.99,-56.324C3314.04,-47.6247 3342.05,-34.1202 3362.8,-24.113"/>
<polygon fill="midnightblue" stroke="midnightblue" points="3364.56,-27.1502 3372.05,-19.6545 3361.52,-20.8449 3364.56,-27.1502"/>
</g>
<!-- Node40 -->
<g id="node40" class="node"><title>Node40</title>
<g id="a_node40"><a xlink:href="_forms_2_dialogs_2_declarations_8h.html" target="_top" xlink:title="Dialogs\\Declarations.h">
<polygon fill="white" stroke="black" points="3450,-0.5 3450,-19.5 3564,-19.5 3564,-0.5 3450,-0.5"/>
<text text-anchor="middle" x="3507" y="-7.5" font-family="Helvetica,sans-Serif" font-size="10.00">Dialogs\Declarations.h</text>
</a>
</g>
</g>
<!-- Node39&#45;&gt;Node40 -->
<g id="edge39" class="edge"><title>Node39&#45;&gt;Node40</title>
<path fill="none" stroke="midnightblue" d="M3628.18,-56.4435C3604.17,-47.4381 3566.17,-33.1891 3539.13,-23.049"/>
<polygon fill="midnightblue" stroke="midnightblue" points="3540.3,-19.7506 3529.71,-19.5164 3537.84,-26.3049 3540.3,-19.7506"/>
</g>
<!-- Node41 -->
<g id="node41" class="node"><title>Node41</title>
<g id="a_node41"><a xlink:href="_common_dialog_8cpp.html" target="_top" xlink:title="Dialogs\\CommonDialog.cpp">
<polygon fill="white" stroke="black" points="3582.5,-0.5 3582.5,-19.5 3719.5,-19.5 3719.5,-0.5 3582.5,-0.5"/>
<text text-anchor="middle" x="3651" y="-7.5" font-family="Helvetica,sans-Serif" font-size="10.00">Dialogs\CommonDialog.cpp</text>
</a>
</g>
</g>
<!-- Node39&#45;&gt;Node41 -->
<g id="edge40" class="edge"><title>Node39&#45;&gt;Node41</title>
<path fill="none" stroke="midnightblue" d="M3651,-56.083C3651,-49.0059 3651,-38.8611 3651,-29.9865"/>
<polygon fill="midnightblue" stroke="midnightblue" points="3654.5,-29.751 3651,-19.7511 3647.5,-29.7511 3654.5,-29.751"/>
</g>
<!-- Node42 -->
<g id="node42" class="node"><title>Node42</title>
<g id="a_node42"><a xlink:href="_user_dialog_8cpp.html" target="_top" xlink:title="Dialogs\\UserDialog.cpp">
<polygon fill="white" stroke="black" points="3738,-0.5 3738,-19.5 3856,-19.5 3856,-0.5 3738,-0.5"/>
<text text-anchor="middle" x="3797" y="-7.5" font-family="Helvetica,sans-Serif" font-size="10.00">Dialogs\UserDialog.cpp</text>
</a>
</g>
</g>
<!-- Node39&#45;&gt;Node42 -->
<g id="edge41" class="edge"><title>Node39&#45;&gt;Node42</title>
<path fill="none" stroke="midnightblue" d="M3674.13,-56.4435C3698.48,-47.4381 3737.01,-33.1891 3764.42,-23.049"/>
<polygon fill="midnightblue" stroke="midnightblue" points="3765.81,-26.2681 3773.97,-19.5164 3763.38,-19.7028 3765.81,-26.2681"/>
</g>
<!-- Node43 -->
<g id="node43" class="node"><title>Node43</title>
<g id="a_node43"><a xlink:href="_dialog_8cpp.html" target="_top" xlink:title="Dialogs\\Dialog.cpp">
<polygon fill="white" stroke="black" points="3874,-0.5 3874,-19.5 3972,-19.5 3972,-0.5 3874,-0.5"/>
<text text-anchor="middle" x="3923" y="-7.5" font-family="Helvetica,sans-Serif" font-size="10.00">Dialogs\Dialog.cpp</text>
</a>
</g>
</g>
<!-- Node39&#45;&gt;Node43 -->
<g id="edge42" class="edge"><title>Node39&#45;&gt;Node43</title>
<path fill="none" stroke="midnightblue" d="M3694.1,-56.4435C3741.85,-46.9641 3818.86,-31.6747 3870.19,-21.4835"/>
<polygon fill="midnightblue" stroke="midnightblue" points="3870.98,-24.8968 3880.1,-19.5164 3869.61,-18.0308 3870.98,-24.8968"/>
</g>
<!-- Node45 -->
<g id="node45" class="node"><title>Node45</title>
<g id="a_node45"><a xlink:href="_forms_2_fonts_2_declarations_8h.html" target="_top" xlink:title="Fonts\\Declarations.h">
<polygon fill="white" stroke="black" points="3990.5,-0.5 3990.5,-19.5 4097.5,-19.5 4097.5,-0.5 3990.5,-0.5"/>
<text text-anchor="middle" x="4044" y="-7.5" font-family="Helvetica,sans-Serif" font-size="10.00">Fonts\Declarations.h</text>
</a>
</g>
</g>
<!-- Node44&#45;&gt;Node45 -->
<g id="edge44" class="edge"><title>Node44&#45;&gt;Node45</title>
<path fill="none" stroke="midnightblue" d="M4044,-56.083C4044,-49.0059 4044,-38.8611 4044,-29.9865"/>
<polygon fill="midnightblue" stroke="midnightblue" points="4047.5,-29.751 4044,-19.7511 4040.5,-29.7511 4047.5,-29.751"/>
</g>
<!-- Node46 -->
<g id="node46" class="node"><title>Node46</title>
<g id="a_node46"><a xlink:href="_font_8cpp.html" target="_top" xlink:title="Fonts\\Font.cpp">
<polygon fill="white" stroke="black" points="4115.5,-0.5 4115.5,-19.5 4198.5,-19.5 4198.5,-0.5 4115.5,-0.5"/>
<text text-anchor="middle" x="4157" y="-7.5" font-family="Helvetica,sans-Serif" font-size="10.00">Fonts\Font.cpp</text>
</a>
</g>
</g>
<!-- Node44&#45;&gt;Node46 -->
<g id="edge45" class="edge"><title>Node44&#45;&gt;Node46</title>
<path fill="none" stroke="midnightblue" d="M4061.91,-56.4435C4080.25,-47.6751 4109.01,-33.9355 4130.09,-23.8579"/>
<polygon fill="midnightblue" stroke="midnightblue" points="4131.67,-26.9862 4139.18,-19.5164 4128.65,-20.6703 4131.67,-26.9862"/>
</g>
</g>
</svg>
