<?xml version="1.0" encoding="UTF-8" standalone="no"?>
<!DOCTYPE svg PUBLIC "-//W3C//DTD SVG 1.1//EN"
 "http://www.w3.org/Graphics/SVG/1.1/DTD/svg11.dtd">
<!-- Generated by graphviz version 2.36.0 (20140111.2315)
 -->
<!-- Title: KuszkAPI/KuszkAPI.h Pages: 1 -->
<!--zoomable 196 -->
<svg id="main" version="1.1" xmlns="http://www.w3.org/2000/svg" xmlns:xlink="http://www.w3.org/1999/xlink" xml:space="preserve" onload="init(evt)">
<style type="text/css"><![CDATA[
.edge:hover path { stroke: red; }
.edge:hover polygon { stroke: red; fill: red; }
]]></style>
<script type="text/javascript"><![CDATA[
var edges = document.getElementsByTagName('g');
if (edges && edges.length) {
  for (var i=0;i<edges.length;i++) {
    if (edges[i].id.substr(0,4)=='edge') {
      edges[i].setAttribute('class','edge');
    }
  }
}
]]></script>
        <defs>
                <circle id="rim" cx="0" cy="0" r="7"/>
                <circle id="rim2" cx="0" cy="0" r="3.5"/>
                <g id="zoomPlus">
                        <use xlink:href="#rim" fill="#404040">
                                <set attributeName="fill" to="#808080" begin="zoomplus.mouseover" end="zoomplus.mouseout"/>
                        </use>
                        <path d="M-4,0h8M0,-4v8" fill="none" stroke="white" stroke-width="1.5" pointer-events="none"/>
                </g>
                <g id="zoomMin">
                        <use xlink:href="#rim" fill="#404040">
                                <set attributeName="fill" to="#808080" begin="zoomminus.mouseover" end="zoomminus.mouseout"/>
                        </use>
                        <path d="M-4,0h8" fill="none" stroke="white" stroke-width="1.5" pointer-events="none"/>
                </g>
                <g id="dirArrow">
                        <path fill="none" stroke="white" stroke-width="1.5" d="M0,-3.0v7 M-2.5,-0.5L0,-3.0L2.5,-0.5"/>
                </g>
               <g id="resetDef">
                       <use xlink:href="#rim2" fill="#404040">
                               <set attributeName="fill" to="#808080" begin="reset.mouseover" end="reset.mouseout"/>
                       </use>
               </g>
        </defs>

<script type="text/javascript">
var viewWidth = 3243;
var viewHeight = 196;
var sectionId = 'dynsection-0';
</script>
<script xlink:href="svgpan.js"/>
<svg id="graph" class="graph">
<g id="viewport">
<title>KuszkAPI/KuszkAPI.h</title>
<polygon fill="white" stroke="none" points="-4,4 -4,-192 3239,-192 3239,4 -4,4"/>
<!-- Node1 -->
<g id="node1" class="node"><title>Node1</title>
<polygon fill="#bfbfbf" stroke="black" points="1963.5,-168.5 1963.5,-187.5 2078.5,-187.5 2078.5,-168.5 1963.5,-168.5"/>
<text text-anchor="middle" x="2021" y="-175.5" font-family="Helvetica,sans-Serif" font-size="10.00">KuszkAPI/KuszkAPI.h</text>
</g>
<!-- Node2 -->
<g id="node2" class="node"><title>Node2</title>
<polygon fill="white" stroke="#bfbfbf" points="1559.5,-56.5 1559.5,-75.5 1624.5,-75.5 1624.5,-56.5 1559.5,-56.5"/>
<text text-anchor="middle" x="1592" y="-63.5" font-family="Helvetica,sans-Serif" font-size="10.00">Windows.h</text>
</g>
<!-- Node1&#45;&gt;Node2 -->
<g id="edge1" class="edge"><title>Node1&#45;&gt;Node2</title>
<path fill="none" stroke="midnightblue" d="M1987.69,-168.46C1910.6,-148.694 1719.98,-99.815 1634.58,-77.9167"/>
<polygon fill="midnightblue" stroke="midnightblue" points="1635.25,-74.4772 1624.7,-75.3837 1633.51,-81.2579 1635.25,-74.4772"/>
</g>
<!-- Node3 -->
<g id="node3" class="node"><title>Node3</title>
<g id="a_node3"><a xlink:href="_containers_8h.html" target="_top" xlink:title="Dołącza do projektu moduł pojemników. ">
<polygon fill="white" stroke="black" points="970.5,-112.5 970.5,-131.5 1041.5,-131.5 1041.5,-112.5 970.5,-112.5"/>
<text text-anchor="middle" x="1006" y="-119.5" font-family="Helvetica,sans-Serif" font-size="10.00">Containers.h</text>
</a>
</g>
</g>
<!-- Node1&#45;&gt;Node3 -->
<g id="edge2" class="edge"><title>Node1&#45;&gt;Node3</title>
<path fill="none" stroke="midnightblue" d="M1963.15,-173.922C1780.24,-164.191 1216.75,-134.212 1051.81,-125.437"/>
<polygon fill="midnightblue" stroke="midnightblue" points="1051.7,-121.926 1041.53,-124.89 1051.33,-128.916 1051.7,-121.926"/>
</g>
<!-- Node23 -->
<g id="node23" class="node"><title>Node23</title>
<g id="a_node23"><a xlink:href="_time_8h.html" target="_top" xlink:title="Dołącza do projektu moduł przechwoywania czasu i daty. ">
<polygon fill="white" stroke="black" points="3040,-112.5 3040,-131.5 3086,-131.5 3086,-112.5 3040,-112.5"/>
<text text-anchor="middle" x="3063" y="-119.5" font-family="Helvetica,sans-Serif" font-size="10.00">Time.h</text>
</a>
</g>
</g>
<!-- Node1&#45;&gt;Node23 -->
<g id="edge23" class="edge"><title>Node1&#45;&gt;Node23</title>
<path fill="none" stroke="midnightblue" d="M2078.51,-174.02C2269.56,-164.119 2879.48,-132.511 3029.45,-124.739"/>
<polygon fill="midnightblue" stroke="midnightblue" points="3030.03,-128.214 3039.83,-124.201 3029.66,-121.223 3030.03,-128.214"/>
</g>
<!-- Node29 -->
<g id="node29" class="node"><title>Node29</title>
<g id="a_node29"><a xlink:href="_core_8h.html" target="_top" xlink:title="Dołącza do projektu moduł jądra. ">
<polygon fill="white" stroke="black" points="1440.5,-112.5 1440.5,-131.5 1485.5,-131.5 1485.5,-112.5 1440.5,-112.5"/>
<text text-anchor="middle" x="1463" y="-119.5" font-family="Helvetica,sans-Serif" font-size="10.00">Core.h</text>
</a>
</g>
</g>
<!-- Node1&#45;&gt;Node29 -->
<g id="edge30" class="edge"><title>Node1&#45;&gt;Node29</title>
<path fill="none" stroke="midnightblue" d="M1963.39,-171.424C1847.01,-160.162 1587.19,-135.018 1495.67,-126.161"/>
<polygon fill="midnightblue" stroke="midnightblue" points="1495.9,-122.667 1485.61,-125.188 1495.22,-129.635 1495.9,-122.667"/>
</g>
<!-- Node34 -->
<g id="node34" class="node"><title>Node34</title>
<g id="a_node34"><a xlink:href="_forms_8h.html" target="_top" xlink:title="Dołącza do projektu moduł graficznego interfejsu użytkownika. ">
<polygon fill="white" stroke="black" points="1994.5,-112.5 1994.5,-131.5 2047.5,-131.5 2047.5,-112.5 1994.5,-112.5"/>
<text text-anchor="middle" x="2021" y="-119.5" font-family="Helvetica,sans-Serif" font-size="10.00">Forms.h</text>
</a>
</g>
</g>
<!-- Node1&#45;&gt;Node34 -->
<g id="edge36" class="edge"><title>Node1&#45;&gt;Node34</title>
<path fill="none" stroke="midnightblue" d="M2021,-168.083C2021,-161.006 2021,-150.861 2021,-141.986"/>
<polygon fill="midnightblue" stroke="midnightblue" points="2024.5,-141.751 2021,-131.751 2017.5,-141.751 2024.5,-141.751"/>
</g>
<!-- Node44 -->
<g id="node44" class="node"><title>Node44</title>
<g id="a_node44"><a xlink:href="_sockets_8h.html" target="_top" xlink:title="Dołącza do projektu moduł obsługi Socketów. ">
<polygon fill="white" stroke="black" points="2543.5,-112.5 2543.5,-131.5 2604.5,-131.5 2604.5,-112.5 2543.5,-112.5"/>
<text text-anchor="middle" x="2574" y="-119.5" font-family="Helvetica,sans-Serif" font-size="10.00">Sockets.h</text>
</a>
</g>
</g>
<!-- Node1&#45;&gt;Node44 -->
<g id="edge47" class="edge"><title>Node1&#45;&gt;Node44</title>
<path fill="none" stroke="midnightblue" d="M2078.62,-171.374C2190.85,-160.414 2436.28,-136.449 2533.33,-126.971"/>
<polygon fill="midnightblue" stroke="midnightblue" points="2533.72,-130.45 2543.34,-125.994 2533.04,-123.483 2533.72,-130.45"/>
</g>
<!-- Node48 -->
<g id="node48" class="node"><title>Node48</title>
<g id="a_node48"><a xlink:href="_app_8h.html" target="_top" xlink:title="Dołącza do projektu moduł aplikacji. ">
<polygon fill="white" stroke="black" points="2744,-112.5 2744,-131.5 2786,-131.5 2786,-112.5 2744,-112.5"/>
<text text-anchor="middle" x="2765" y="-119.5" font-family="Helvetica,sans-Serif" font-size="10.00">App.h</text>
</a>
</g>
</g>
<!-- Node1&#45;&gt;Node48 -->
<g id="edge52" class="edge"><title>Node1&#45;&gt;Node48</title>
<path fill="none" stroke="midnightblue" d="M2078.76,-172.808C2227.43,-162.017 2619.6,-133.553 2733.54,-125.283"/>
<polygon fill="midnightblue" stroke="midnightblue" points="2733.96,-128.762 2743.68,-124.547 2733.45,-121.781 2733.96,-128.762"/>
</g>
<!-- Node3&#45;&gt;Node2 -->
<g id="edge3" class="edge"><title>Node3&#45;&gt;Node2</title>
<path fill="none" stroke="midnightblue" d="M1041.5,-119.645C1127.12,-116.038 1351.83,-104.566 1549.09,-75.942"/>
<polygon fill="midnightblue" stroke="midnightblue" points="1549.67,-79.3942 1559.06,-74.4775 1548.66,-72.4686 1549.67,-79.3942"/>
</g>
<!-- Node4 -->
<g id="node4" class="node"><title>Node4</title>
<g id="a_node4"><a xlink:href="_containers_2_base_8h.html" target="_top" xlink:title="Dołącza bazowe składniki modułu Containers.h. ">
<polygon fill="white" stroke="black" points="587.5,-56.5 587.5,-75.5 684.5,-75.5 684.5,-56.5 587.5,-56.5"/>
<text text-anchor="middle" x="636" y="-63.5" font-family="Helvetica,sans-Serif" font-size="10.00">Containers\Base.h</text>
</a>
</g>
</g>
<!-- Node3&#45;&gt;Node4 -->
<g id="edge4" class="edge"><title>Node3&#45;&gt;Node4</title>
<path fill="none" stroke="midnightblue" d="M970.187,-115.773C906.314,-106.451 772.189,-86.8763 694.683,-75.5645"/>
<polygon fill="midnightblue" stroke="midnightblue" points="694.997,-72.0734 684.597,-74.0925 693.986,-79.0001 694.997,-72.0734"/>
</g>
<!-- Node7 -->
<g id="node7" class="node"><title>Node7</title>
<g id="a_node7"><a xlink:href="_common_8h.html" target="_top" xlink:title="Dołącza powszechne składniki modułu Containers.h. ">
<polygon fill="white" stroke="black" points="949.5,-56.5 949.5,-75.5 1062.5,-75.5 1062.5,-56.5 949.5,-56.5"/>
<text text-anchor="middle" x="1006" y="-63.5" font-family="Helvetica,sans-Serif" font-size="10.00">Containers\Common.h</text>
</a>
</g>
</g>
<!-- Node3&#45;&gt;Node7 -->
<g id="edge7" class="edge"><title>Node3&#45;&gt;Node7</title>
<path fill="none" stroke="midnightblue" d="M1006,-112.083C1006,-105.006 1006,-94.8611 1006,-85.9865"/>
<polygon fill="midnightblue" stroke="midnightblue" points="1009.5,-85.751 1006,-75.7511 1002.5,-85.7511 1009.5,-85.751"/>
</g>
<!-- Node14 -->
<g id="node14" class="node"><title>Node14</title>
<g id="a_node14"><a xlink:href="_string_8h.html" target="_top" xlink:title="Dołącza składnik obsługi łańcuchów znakowych z modułu Containers.h. ">
<polygon fill="white" stroke="black" points="1081,-56.5 1081,-75.5 1181,-75.5 1181,-56.5 1081,-56.5"/>
<text text-anchor="middle" x="1131" y="-63.5" font-family="Helvetica,sans-Serif" font-size="10.00">Containers\String.h</text>
</a>
</g>
</g>
<!-- Node3&#45;&gt;Node14 -->
<g id="edge14" class="edge"><title>Node3&#45;&gt;Node14</title>
<path fill="none" stroke="midnightblue" d="M1025.81,-112.444C1046.29,-103.596 1078.48,-89.6875 1101.86,-79.5865"/>
<polygon fill="midnightblue" stroke="midnightblue" points="1103.49,-82.6953 1111.29,-75.5164 1100.72,-76.2692 1103.49,-82.6953"/>
</g>
<!-- Node17 -->
<g id="node17" class="node"><title>Node17</title>
<g id="a_node17"><a xlink:href="_files_8h.html" target="_top" xlink:title="Dołącza składnik obsługi plików z modułu Containers.h. ">
<polygon fill="white" stroke="black" points="96.5,-56.5 96.5,-75.5 191.5,-75.5 191.5,-56.5 96.5,-56.5"/>
<text text-anchor="middle" x="144" y="-63.5" font-family="Helvetica,sans-Serif" font-size="10.00">Containers\Files.h</text>
</a>
</g>
</g>
<!-- Node3&#45;&gt;Node17 -->
<g id="edge17" class="edge"><title>Node3&#45;&gt;Node17</title>
<path fill="none" stroke="midnightblue" d="M970.33,-118.765C837.034,-110.415 367.36,-80.9924 202.071,-70.6379"/>
<polygon fill="midnightblue" stroke="midnightblue" points="201.83,-67.116 191.631,-69.9838 201.392,-74.1023 201.83,-67.116"/>
</g>
<!-- Node20 -->
<g id="node20" class="node"><title>Node20</title>
<g id="a_node20"><a xlink:href="_strings_8h.html" target="_top" xlink:title="Dołącza składnik obsługi listy łańcuchów znakowych z modułu Containers.h. ">
<polygon fill="white" stroke="black" points="336.5,-56.5 336.5,-75.5 441.5,-75.5 441.5,-56.5 336.5,-56.5"/>
<text text-anchor="middle" x="389" y="-63.5" font-family="Helvetica,sans-Serif" font-size="10.00">Containers\Strings.h</text>
</a>
</g>
</g>
<!-- Node3&#45;&gt;Node20 -->
<g id="edge20" class="edge"><title>Node3&#45;&gt;Node20</title>
<path fill="none" stroke="midnightblue" d="M970.161,-117.863C868.994,-109.009 580.259,-83.7391 451.868,-72.5022"/>
<polygon fill="midnightblue" stroke="midnightblue" points="452.064,-69.0061 441.797,-71.6208 451.453,-75.9794 452.064,-69.0061"/>
</g>
<!-- Node5 -->
<g id="node5" class="node"><title>Node5</title>
<g id="a_node5"><a xlink:href="_containers_2_base_2_declarations_8h.html" target="_top" xlink:title="Deklaracje dla pliku Container.cpp. ">
<polygon fill="white" stroke="black" points="584,-0.5 584,-19.5 688,-19.5 688,-0.5 584,-0.5"/>
<text text-anchor="middle" x="636" y="-7.5" font-family="Helvetica,sans-Serif" font-size="10.00">Base\Declarations.h</text>
</a>
</g>
</g>
<!-- Node4&#45;&gt;Node5 -->
<g id="edge5" class="edge"><title>Node4&#45;&gt;Node5</title>
<path fill="none" stroke="midnightblue" d="M636,-56.083C636,-49.0059 636,-38.8611 636,-29.9865"/>
<polygon fill="midnightblue" stroke="midnightblue" points="639.5,-29.751 636,-19.7511 632.5,-29.7511 639.5,-29.751"/>
</g>
<!-- Node6 -->
<g id="node6" class="node"><title>Node6</title>
<g id="a_node6"><a xlink:href="_container_8cpp.html" target="_top" xlink:title="Zawiera implementacje klasy Container. ">
<polygon fill="white" stroke="black" points="464,-0.5 464,-19.5 566,-19.5 566,-0.5 464,-0.5"/>
<text text-anchor="middle" x="515" y="-7.5" font-family="Helvetica,sans-Serif" font-size="10.00">Base\Container.cpp</text>
</a>
</g>
</g>
<!-- Node4&#45;&gt;Node6 -->
<g id="edge6" class="edge"><title>Node4&#45;&gt;Node6</title>
<path fill="none" stroke="midnightblue" d="M616.827,-56.4435C597.091,-47.6356 566.115,-33.8116 543.507,-23.722"/>
<polygon fill="midnightblue" stroke="midnightblue" points="544.641,-20.3957 534.083,-19.5164 541.789,-26.788 544.641,-20.3957"/>
</g>
<!-- Node8 -->
<g id="node8" class="node"><title>Node8</title>
<g id="a_node8"><a xlink:href="_containers_2_common_2_declarations_8h.html" target="_top" xlink:title="Common\\Declarations.h">
<polygon fill="white" stroke="black" points="820.5,-0.5 820.5,-19.5 941.5,-19.5 941.5,-0.5 820.5,-0.5"/>
<text text-anchor="middle" x="881" y="-7.5" font-family="Helvetica,sans-Serif" font-size="10.00">Common\Declarations.h</text>
</a>
</g>
</g>
<!-- Node7&#45;&gt;Node8 -->
<g id="edge8" class="edge"><title>Node7&#45;&gt;Node8</title>
<path fill="none" stroke="midnightblue" d="M986.193,-56.4435C965.713,-47.5961 933.517,-33.6875 910.135,-23.5865"/>
<polygon fill="midnightblue" stroke="midnightblue" points="911.282,-20.2692 900.714,-19.5164 908.506,-26.6953 911.282,-20.2692"/>
</g>
<!-- Node9 -->
<g id="node9" class="node"><title>Node9</title>
<g id="a_node9"><a xlink:href="_list_8cpp.html" target="_top" xlink:title="Zawiera implementacje szablonu klasy List. ">
<polygon fill="white" stroke="black" points="959.5,-0.5 959.5,-19.5 1052.5,-19.5 1052.5,-0.5 959.5,-0.5"/>
<text text-anchor="middle" x="1006" y="-7.5" font-family="Helvetica,sans-Serif" font-size="10.00">Common\List.cpp</text>
</a>
</g>
</g>
<!-- Node7&#45;&gt;Node9 -->
<g id="edge9" class="edge"><title>Node7&#45;&gt;Node9</title>
<path fill="none" stroke="midnightblue" d="M1006,-56.083C1006,-49.0059 1006,-38.8611 1006,-29.9865"/>
<polygon fill="midnightblue" stroke="midnightblue" points="1009.5,-29.751 1006,-19.7511 1002.5,-29.7511 1009.5,-29.751"/>
</g>
<!-- Node10 -->
<g id="node10" class="node"><title>Node10</title>
<g id="a_node10"><a xlink:href="_vector_8cpp.html" target="_top" xlink:title="Common\\Vector.cpp">
<polygon fill="white" stroke="black" points="1071,-0.5 1071,-19.5 1177,-19.5 1177,-0.5 1071,-0.5"/>
<text text-anchor="middle" x="1124" y="-7.5" font-family="Helvetica,sans-Serif" font-size="10.00">Common\Vector.cpp</text>
</a>
</g>
</g>
<!-- Node7&#45;&gt;Node10 -->
<g id="edge10" class="edge"><title>Node7&#45;&gt;Node10</title>
<path fill="none" stroke="midnightblue" d="M1024.7,-56.4435C1043.94,-47.6356 1074.15,-33.8116 1096.2,-23.722"/>
<polygon fill="midnightblue" stroke="midnightblue" points="1097.75,-26.8603 1105.39,-19.5164 1094.84,-20.4951 1097.75,-26.8603"/>
</g>
<!-- Node11 -->
<g id="node11" class="node"><title>Node11</title>
<g id="a_node11"><a xlink:href="_array_8cpp.html" target="_top" xlink:title="Zawiera implementacje szablonu klasy Array. ">
<polygon fill="white" stroke="black" points="1195.5,-0.5 1195.5,-19.5 1296.5,-19.5 1296.5,-0.5 1195.5,-0.5"/>
<text text-anchor="middle" x="1246" y="-7.5" font-family="Helvetica,sans-Serif" font-size="10.00">Common\Array.cpp</text>
</a>
</g>
</g>
<!-- Node7&#45;&gt;Node11 -->
<g id="edge11" class="edge"><title>Node7&#45;&gt;Node11</title>
<path fill="none" stroke="midnightblue" d="M1044.03,-56.4435C1085.81,-47.0431 1152.98,-31.9291 1198.27,-21.7393"/>
<polygon fill="midnightblue" stroke="midnightblue" points="1199.16,-25.1263 1208.15,-19.5164 1197.62,-18.297 1199.16,-25.1263"/>
</g>
<!-- Node12 -->
<g id="node12" class="node"><title>Node12</title>
<g id="a_node12"><a xlink:href="_box_8cpp.html" target="_top" xlink:title="Zawiera implementacje szablonu klasy Box. ">
<polygon fill="white" stroke="black" points="1314.5,-0.5 1314.5,-19.5 1409.5,-19.5 1409.5,-0.5 1314.5,-0.5"/>
<text text-anchor="middle" x="1362" y="-7.5" font-family="Helvetica,sans-Serif" font-size="10.00">Common\Box.cpp</text>
</a>
</g>
</g>
<!-- Node7&#45;&gt;Node12 -->
<g id="edge12" class="edge"><title>Node7&#45;&gt;Node12</title>
<path fill="none" stroke="midnightblue" d="M1062.51,-56.62C1120.53,-47.9872 1213.72,-34.043 1304.51,-20.0668"/>
<polygon fill="midnightblue" stroke="midnightblue" points="1305.07,-23.5217 1314.42,-18.5392 1304,-16.6033 1305.07,-23.5217"/>
</g>
<!-- Node13 -->
<g id="node13" class="node"><title>Node13</title>
<g id="a_node13"><a xlink:href="_map_8cpp.html" target="_top" xlink:title="Common\\Map.cpp">
<polygon fill="white" stroke="black" points="706,-0.5 706,-19.5 802,-19.5 802,-0.5 706,-0.5"/>
<text text-anchor="middle" x="754" y="-7.5" font-family="Helvetica,sans-Serif" font-size="10.00">Common\Map.cpp</text>
</a>
</g>
</g>
<!-- Node7&#45;&gt;Node13 -->
<g id="edge13" class="edge"><title>Node7&#45;&gt;Node13</title>
<path fill="none" stroke="midnightblue" d="M966.07,-56.4435C922.109,-47.0234 851.373,-31.8656 803.817,-21.6752"/>
<polygon fill="midnightblue" stroke="midnightblue" points="804.255,-18.1895 793.743,-19.5164 802.788,-25.0341 804.255,-18.1895"/>
</g>
<!-- Node15 -->
<g id="node15" class="node"><title>Node15</title>
<g id="a_node15"><a xlink:href="_containers_2_string_2_declarations_8h.html" target="_top" xlink:title="String\\Declarations.h">
<polygon fill="white" stroke="black" points="1534.5,-0.5 1534.5,-19.5 1641.5,-19.5 1641.5,-0.5 1534.5,-0.5"/>
<text text-anchor="middle" x="1588" y="-7.5" font-family="Helvetica,sans-Serif" font-size="10.00">String\Declarations.h</text>
</a>
</g>
</g>
<!-- Node14&#45;&gt;Node15 -->
<g id="edge15" class="edge"><title>Node14&#45;&gt;Node15</title>
<path fill="none" stroke="midnightblue" d="M1181.19,-57.189C1184.17,-56.7736 1187.12,-56.3738 1190,-56 1335.31,-37.1191 1374.73,-38.5202 1524.38,-20.0335"/>
<polygon fill="midnightblue" stroke="midnightblue" points="1524.91,-23.4949 1534.4,-18.7866 1524.05,-16.5485 1524.91,-23.4949"/>
</g>
<!-- Node16 -->
<g id="node16" class="node"><title>Node16</title>
<g id="a_node16"><a xlink:href="_string_8cpp.html" target="_top" xlink:title="String\\String.cpp">
<polygon fill="white" stroke="black" points="1427.5,-0.5 1427.5,-19.5 1516.5,-19.5 1516.5,-0.5 1427.5,-0.5"/>
<text text-anchor="middle" x="1472" y="-7.5" font-family="Helvetica,sans-Serif" font-size="10.00">String\String.cpp</text>
</a>
</g>
</g>
<!-- Node14&#45;&gt;Node16 -->
<g id="edge16" class="edge"><title>Node14&#45;&gt;Node16</title>
<path fill="none" stroke="midnightblue" d="M1181.05,-57.301C1236.27,-48.7743 1328.05,-34.5048 1417.2,-20.1164"/>
<polygon fill="midnightblue" stroke="midnightblue" points="1417.9,-23.5487 1427.22,-18.498 1416.79,-16.6384 1417.9,-23.5487"/>
</g>
<!-- Node18 -->
<g id="node18" class="node"><title>Node18</title>
<g id="a_node18"><a xlink:href="_containers_2_files_2_declarations_8h.html" target="_top" xlink:title="Files\\Declarations.h">
<polygon fill="white" stroke="black" points="92.5,-0.5 92.5,-19.5 195.5,-19.5 195.5,-0.5 92.5,-0.5"/>
<text text-anchor="middle" x="144" y="-7.5" font-family="Helvetica,sans-Serif" font-size="10.00">Files\Declarations.h</text>
</a>
</g>
</g>
<!-- Node17&#45;&gt;Node18 -->
<g id="edge18" class="edge"><title>Node17&#45;&gt;Node18</title>
<path fill="none" stroke="midnightblue" d="M144,-56.083C144,-49.0059 144,-38.8611 144,-29.9865"/>
<polygon fill="midnightblue" stroke="midnightblue" points="147.5,-29.751 144,-19.7511 140.5,-29.7511 147.5,-29.751"/>
</g>
<!-- Node19 -->
<g id="node19" class="node"><title>Node19</title>
<g id="a_node19"><a xlink:href="_file_8cpp.html" target="_top" xlink:title="Files\\File.cpp">
<polygon fill="white" stroke="black" points="-0.5,-0.5 -0.5,-19.5 74.5,-19.5 74.5,-0.5 -0.5,-0.5"/>
<text text-anchor="middle" x="37" y="-7.5" font-family="Helvetica,sans-Serif" font-size="10.00">Files\File.cpp</text>
</a>
</g>
</g>
<!-- Node17&#45;&gt;Node19 -->
<g id="edge19" class="edge"><title>Node17&#45;&gt;Node19</title>
<path fill="none" stroke="midnightblue" d="M126.809,-56.324C109.649,-47.6641 83.0543,-34.2424 63.2527,-24.249"/>
<polygon fill="midnightblue" stroke="midnightblue" points="64.6532,-21.0354 54.1487,-19.6545 61.4993,-27.2847 64.6532,-21.0354"/>
</g>
<!-- Node21 -->
<g id="node21" class="node"><title>Node21</title>
<g id="a_node21"><a xlink:href="_containers_2_strings_2_declarations_8h.html" target="_top" xlink:title="Strings\\Declarations.h">
<polygon fill="white" stroke="black" points="332.5,-0.5 332.5,-19.5 445.5,-19.5 445.5,-0.5 332.5,-0.5"/>
<text text-anchor="middle" x="389" y="-7.5" font-family="Helvetica,sans-Serif" font-size="10.00">Strings\Declarations.h</text>
</a>
</g>
</g>
<!-- Node20&#45;&gt;Node21 -->
<g id="edge21" class="edge"><title>Node20&#45;&gt;Node21</title>
<path fill="none" stroke="midnightblue" d="M389,-56.083C389,-49.0059 389,-38.8611 389,-29.9865"/>
<polygon fill="midnightblue" stroke="midnightblue" points="392.5,-29.751 389,-19.7511 385.5,-29.7511 392.5,-29.751"/>
</g>
<!-- Node22 -->
<g id="node22" class="node"><title>Node22</title>
<g id="a_node22"><a xlink:href="_strings_8cpp.html" target="_top" xlink:title="Strings\\Strings.cpp">
<polygon fill="white" stroke="black" points="214,-0.5 214,-19.5 314,-19.5 314,-0.5 214,-0.5"/>
<text text-anchor="middle" x="264" y="-7.5" font-family="Helvetica,sans-Serif" font-size="10.00">Strings\Strings.cpp</text>
</a>
</g>
</g>
<!-- Node20&#45;&gt;Node22 -->
<g id="edge22" class="edge"><title>Node20&#45;&gt;Node22</title>
<path fill="none" stroke="midnightblue" d="M369.193,-56.4435C348.713,-47.5961 316.517,-33.6875 293.135,-23.5865"/>
<polygon fill="midnightblue" stroke="midnightblue" points="294.282,-20.2692 283.714,-19.5164 291.506,-26.6953 294.282,-20.2692"/>
</g>
<!-- Node23&#45;&gt;Node23 -->
<g id="edge24" class="edge"><title>Node23&#45;&gt;Node23</title>
<path fill="none" stroke="midnightblue" d="M3080.7,-131.575C3092.51,-134.27 3104,-131.078 3104,-122 3104,-115.617 3098.32,-112.144 3090.84,-111.582"/>
<polygon fill="midnightblue" stroke="midnightblue" points="3090.38,-108.108 3080.7,-112.425 3090.96,-115.084 3090.38,-108.108"/>
</g>
<!-- Node24 -->
<g id="node24" class="node"><title>Node24</title>
<g id="a_node24"><a xlink:href="_time_2_time_8h.html" target="_top" xlink:title="Time\\Time.h">
<polygon fill="white" stroke="black" points="3028,-56.5 3028,-75.5 3098,-75.5 3098,-56.5 3028,-56.5"/>
<text text-anchor="middle" x="3063" y="-63.5" font-family="Helvetica,sans-Serif" font-size="10.00">Time\Time.h</text>
</a>
</g>
</g>
<!-- Node23&#45;&gt;Node24 -->
<g id="edge25" class="edge"><title>Node23&#45;&gt;Node24</title>
<path fill="none" stroke="midnightblue" d="M3063,-112.083C3063,-105.006 3063,-94.8611 3063,-85.9865"/>
<polygon fill="midnightblue" stroke="midnightblue" points="3066.5,-85.751 3063,-75.7511 3059.5,-85.7511 3066.5,-85.751"/>
</g>
<!-- Node27 -->
<g id="node27" class="node"><title>Node27</title>
<g id="a_node27"><a xlink:href="_date_8h.html" target="_top" xlink:title="Time\\Date.h">
<polygon fill="white" stroke="red" points="3132.5,-56.5 3132.5,-75.5 3201.5,-75.5 3201.5,-56.5 3132.5,-56.5"/>
<text text-anchor="middle" x="3167" y="-63.5" font-family="Helvetica,sans-Serif" font-size="10.00">Time\Date.h</text>
</a>
</g>
</g>
<!-- Node23&#45;&gt;Node27 -->
<g id="edge28" class="edge"><title>Node23&#45;&gt;Node27</title>
<path fill="none" stroke="midnightblue" d="M3079.71,-112.324C3096.31,-103.703 3122,-90.3643 3141.22,-80.3855"/>
<polygon fill="midnightblue" stroke="midnightblue" points="3143.07,-83.3689 3150.33,-75.6545 3139.84,-77.1565 3143.07,-83.3689"/>
</g>
<!-- Node25 -->
<g id="node25" class="node"><title>Node25</title>
<g id="a_node25"><a xlink:href="_time_2_time_2_declarations_8h.html" target="_top" xlink:title="Time\\Declarations.h">
<polygon fill="white" stroke="black" points="3011.5,-0.5 3011.5,-19.5 3114.5,-19.5 3114.5,-0.5 3011.5,-0.5"/>
<text text-anchor="middle" x="3063" y="-7.5" font-family="Helvetica,sans-Serif" font-size="10.00">Time\Declarations.h</text>
</a>
</g>
</g>
<!-- Node24&#45;&gt;Node25 -->
<g id="edge26" class="edge"><title>Node24&#45;&gt;Node25</title>
<path fill="none" stroke="midnightblue" d="M3063,-56.083C3063,-49.0059 3063,-38.8611 3063,-29.9865"/>
<polygon fill="midnightblue" stroke="midnightblue" points="3066.5,-29.751 3063,-19.7511 3059.5,-29.7511 3066.5,-29.751"/>
</g>
<!-- Node26 -->
<g id="node26" class="node"><title>Node26</title>
<g id="a_node26"><a xlink:href="_time_8cpp.html" target="_top" xlink:title="Time\\Time.cpp">
<polygon fill="white" stroke="black" points="2913,-0.5 2913,-19.5 2993,-19.5 2993,-0.5 2913,-0.5"/>
<text text-anchor="middle" x="2953" y="-7.5" font-family="Helvetica,sans-Serif" font-size="10.00">Time\Time.cpp</text>
</a>
</g>
</g>
<!-- Node24&#45;&gt;Node26 -->
<g id="edge27" class="edge"><title>Node24&#45;&gt;Node26</title>
<path fill="none" stroke="midnightblue" d="M3045.33,-56.324C3027.61,-47.6247 3000.1,-34.1202 2979.71,-24.113"/>
<polygon fill="midnightblue" stroke="midnightblue" points="2981.15,-20.9195 2970.63,-19.6545 2978.06,-27.2031 2981.15,-20.9195"/>
</g>
<!-- Node28 -->
<g id="node28" class="node"><title>Node28</title>
<g id="a_node28"><a xlink:href="_time_2_date_2_declarations_8h.html" target="_top" xlink:title="Date\\Declarations.h">
<polygon fill="white" stroke="black" points="3133,-0.5 3133,-19.5 3235,-19.5 3235,-0.5 3133,-0.5"/>
<text text-anchor="middle" x="3184" y="-7.5" font-family="Helvetica,sans-Serif" font-size="10.00">Date\Declarations.h</text>
</a>
</g>
</g>
<!-- Node27&#45;&gt;Node28 -->
<g id="edge29" class="edge"><title>Node27&#45;&gt;Node28</title>
<path fill="none" stroke="midnightblue" d="M3169.81,-56.083C3172.08,-48.8486 3175.37,-38.4087 3178.21,-29.3968"/>
<polygon fill="midnightblue" stroke="midnightblue" points="3181.58,-30.3406 3181.25,-19.7511 3174.9,-28.2385 3181.58,-30.3406"/>
</g>
<!-- Node29&#45;&gt;Node2 -->
<g id="edge31" class="edge"><title>Node29&#45;&gt;Node2</title>
<path fill="none" stroke="midnightblue" d="M1483.44,-112.444C1504.67,-103.557 1538.1,-89.5632 1562.25,-79.4514"/>
<polygon fill="midnightblue" stroke="midnightblue" points="1563.78,-82.6064 1571.66,-75.5164 1561.08,-76.1493 1563.78,-82.6064"/>
</g>
<!-- Node30 -->
<g id="node30" class="node"><title>Node30</title>
<g id="a_node30"><a xlink:href="_parts_8h.html" target="_top" xlink:title="Core\\Parts.h">
<polygon fill="white" stroke="red" points="1383.5,-56.5 1383.5,-75.5 1454.5,-75.5 1454.5,-56.5 1383.5,-56.5"/>
<text text-anchor="middle" x="1419" y="-63.5" font-family="Helvetica,sans-Serif" font-size="10.00">Core\Parts.h</text>
</a>
</g>
</g>
<!-- Node29&#45;&gt;Node30 -->
<g id="edge32" class="edge"><title>Node29&#45;&gt;Node30</title>
<path fill="none" stroke="midnightblue" d="M1455.73,-112.083C1449.46,-104.377 1440.21,-93.0333 1432.57,-83.6531"/>
<polygon fill="midnightblue" stroke="midnightblue" points="1435.16,-81.2926 1426.13,-75.7511 1429.73,-85.7143 1435.16,-81.2926"/>
</g>
<!-- Node31 -->
<g id="node31" class="node"><title>Node31</title>
<g id="a_node31"><a xlink:href="_data_8h.html" target="_top" xlink:title="Core\\Data.h">
<polygon fill="white" stroke="red" points="1473,-56.5 1473,-75.5 1541,-75.5 1541,-56.5 1473,-56.5"/>
<text text-anchor="middle" x="1507" y="-63.5" font-family="Helvetica,sans-Serif" font-size="10.00">Core\Data.h</text>
</a>
</g>
</g>
<!-- Node29&#45;&gt;Node31 -->
<g id="edge33" class="edge"><title>Node29&#45;&gt;Node31</title>
<path fill="none" stroke="midnightblue" d="M1470.27,-112.083C1476.54,-104.377 1485.79,-93.0333 1493.43,-83.6531"/>
<polygon fill="midnightblue" stroke="midnightblue" points="1496.27,-85.7143 1499.87,-75.7511 1490.84,-81.2926 1496.27,-85.7143"/>
</g>
<!-- Node32 -->
<g id="node32" class="node"><title>Node32</title>
<g id="a_node32"><a xlink:href="_run_8h.html" target="_top" xlink:title="Core\\Run.h">
<polygon fill="white" stroke="red" points="1199.5,-56.5 1199.5,-75.5 1264.5,-75.5 1264.5,-56.5 1199.5,-56.5"/>
<text text-anchor="middle" x="1232" y="-63.5" font-family="Helvetica,sans-Serif" font-size="10.00">Core\Run.h</text>
</a>
</g>
</g>
<!-- Node29&#45;&gt;Node32 -->
<g id="edge34" class="edge"><title>Node29&#45;&gt;Node32</title>
<path fill="none" stroke="midnightblue" d="M1440.43,-115.724C1402.06,-106.755 1323.53,-88.3971 1274.58,-76.9531"/>
<polygon fill="midnightblue" stroke="midnightblue" points="1275.14,-73.4902 1264.6,-74.6219 1273.55,-80.3064 1275.14,-73.4902"/>
</g>
<!-- Node33 -->
<g id="node33" class="node"><title>Node33</title>
<g id="a_node33"><a xlink:href="_threads_8h.html" target="_top" xlink:title="Core\\Threads.h">
<polygon fill="white" stroke="red" points="1282.5,-56.5 1282.5,-75.5 1365.5,-75.5 1365.5,-56.5 1282.5,-56.5"/>
<text text-anchor="middle" x="1324" y="-63.5" font-family="Helvetica,sans-Serif" font-size="10.00">Core\Threads.h</text>
</a>
</g>
</g>
<!-- Node29&#45;&gt;Node33 -->
<g id="edge35" class="edge"><title>Node29&#45;&gt;Node33</title>
<path fill="none" stroke="midnightblue" d="M1440.98,-112.444C1417.9,-103.478 1381.44,-89.314 1355.36,-79.1827"/>
<polygon fill="midnightblue" stroke="midnightblue" points="1356.51,-75.8753 1345.92,-75.5164 1353.98,-82.4002 1356.51,-75.8753"/>
</g>
<!-- Node34&#45;&gt;Node2 -->
<g id="edge37" class="edge"><title>Node34&#45;&gt;Node2</title>
<path fill="none" stroke="midnightblue" d="M1994.13,-118.765C1932.5,-113.449 1776.04,-98.8798 1634.65,-75.9499"/>
<polygon fill="midnightblue" stroke="midnightblue" points="1634.94,-72.4495 1624.5,-74.2845 1633.8,-79.3571 1634.94,-72.4495"/>
</g>
<!-- Node35 -->
<g id="node35" class="node"><title>Node35</title>
<polygon fill="white" stroke="#bfbfbf" points="1943,-56.5 1943,-75.5 2013,-75.5 2013,-56.5 1943,-56.5"/>
<text text-anchor="middle" x="1978" y="-63.5" font-family="Helvetica,sans-Serif" font-size="10.00">Windowsx.h</text>
</g>
<!-- Node34&#45;&gt;Node35 -->
<g id="edge38" class="edge"><title>Node34&#45;&gt;Node35</title>
<path fill="none" stroke="midnightblue" d="M2013.9,-112.083C2007.76,-104.377 1998.73,-93.0333 1991.26,-83.6531"/>
<polygon fill="midnightblue" stroke="midnightblue" points="1993.94,-81.3936 1984.97,-75.7511 1988.46,-85.7542 1993.94,-81.3936"/>
</g>
<!-- Node36 -->
<g id="node36" class="node"><title>Node36</title>
<polygon fill="white" stroke="#bfbfbf" points="2031.5,-56.5 2031.5,-75.5 2098.5,-75.5 2098.5,-56.5 2031.5,-56.5"/>
<text text-anchor="middle" x="2065" y="-63.5" font-family="Helvetica,sans-Serif" font-size="10.00">Commctrl.h</text>
</g>
<!-- Node34&#45;&gt;Node36 -->
<g id="edge39" class="edge"><title>Node34&#45;&gt;Node36</title>
<path fill="none" stroke="midnightblue" d="M2028.27,-112.083C2034.54,-104.377 2043.79,-93.0333 2051.43,-83.6531"/>
<polygon fill="midnightblue" stroke="midnightblue" points="2054.27,-85.7143 2057.87,-75.7511 2048.84,-81.2926 2054.27,-85.7143"/>
</g>
<!-- Node37 -->
<g id="node37" class="node"><title>Node37</title>
<g id="a_node37"><a xlink:href="_headers_8h.html" target="_top" xlink:title="Forms\\Headers.h">
<polygon fill="white" stroke="black" points="2117,-56.5 2117,-75.5 2209,-75.5 2209,-56.5 2117,-56.5"/>
<text text-anchor="middle" x="2163" y="-63.5" font-family="Helvetica,sans-Serif" font-size="10.00">Forms\Headers.h</text>
</a>
</g>
</g>
<!-- Node34&#45;&gt;Node37 -->
<g id="edge40" class="edge"><title>Node34&#45;&gt;Node37</title>
<path fill="none" stroke="midnightblue" d="M2043.5,-112.444C2067.08,-103.478 2104.32,-89.314 2130.96,-79.1827"/>
<polygon fill="midnightblue" stroke="midnightblue" points="2132.5,-82.3424 2140.6,-75.5164 2130.01,-75.7995 2132.5,-82.3424"/>
</g>
<!-- Node38 -->
<g id="node38" class="node"><title>Node38</title>
<g id="a_node38"><a xlink:href="_tools_8h.html" target="_top" xlink:title="Forms\\Tools.h">
<polygon fill="white" stroke="red" points="2227.5,-56.5 2227.5,-75.5 2306.5,-75.5 2306.5,-56.5 2227.5,-56.5"/>
<text text-anchor="middle" x="2267" y="-63.5" font-family="Helvetica,sans-Serif" font-size="10.00">Forms\Tools.h</text>
</a>
</g>
</g>
<!-- Node34&#45;&gt;Node38 -->
<g id="edge41" class="edge"><title>Node34&#45;&gt;Node38</title>
<path fill="none" stroke="midnightblue" d="M2047.79,-115.118C2088.66,-106.149 2167.17,-88.9131 2218.3,-77.6901"/>
<polygon fill="midnightblue" stroke="midnightblue" points="2219.12,-81.0927 2228.14,-75.5299 2217.62,-74.2555 2219.12,-81.0927"/>
</g>
<!-- Node39 -->
<g id="node39" class="node"><title>Node39</title>
<g id="a_node39"><a xlink:href="_forms_2_base_8h.html" target="_top" xlink:title="Forms\\Base.h">
<polygon fill="white" stroke="red" points="2325,-56.5 2325,-75.5 2403,-75.5 2403,-56.5 2325,-56.5"/>
<text text-anchor="middle" x="2364" y="-63.5" font-family="Helvetica,sans-Serif" font-size="10.00">Forms\Base.h</text>
</a>
</g>
</g>
<!-- Node34&#45;&gt;Node39 -->
<g id="edge42" class="edge"><title>Node34&#45;&gt;Node39</title>
<path fill="none" stroke="midnightblue" d="M2047.8,-117.171C2099.53,-109.719 2216.72,-92.5425 2315,-76 2315.1,-75.983 2315.2,-75.9659 2315.3,-75.9487"/>
<polygon fill="midnightblue" stroke="midnightblue" points="2315.71,-79.4302 2324.97,-74.2771 2314.52,-72.5326 2315.71,-79.4302"/>
</g>
<!-- Node40 -->
<g id="node40" class="node"><title>Node40</title>
<g id="a_node40"><a xlink:href="_controls_8h.html" target="_top" xlink:title="Forms\\Controls.h">
<polygon fill="white" stroke="red" points="2421,-56.5 2421,-75.5 2513,-75.5 2513,-56.5 2421,-56.5"/>
<text text-anchor="middle" x="2467" y="-63.5" font-family="Helvetica,sans-Serif" font-size="10.00">Forms\Controls.h</text>
</a>
</g>
</g>
<!-- Node34&#45;&gt;Node40 -->
<g id="edge43" class="edge"><title>Node34&#45;&gt;Node40</title>
<path fill="none" stroke="midnightblue" d="M2047.6,-118.38C2109.4,-112.199 2267.64,-95.8324 2410.55,-76.1451"/>
<polygon fill="midnightblue" stroke="midnightblue" points="2411.39,-79.5626 2420.81,-74.722 2410.42,-72.629 2411.39,-79.5626"/>
</g>
<!-- Node41 -->
<g id="node41" class="node"><title>Node41</title>
<g id="a_node41"><a xlink:href="_form_8h.html" target="_top" xlink:title="Forms\\Form.h">
<polygon fill="white" stroke="red" points="1643,-56.5 1643,-75.5 1721,-75.5 1721,-56.5 1643,-56.5"/>
<text text-anchor="middle" x="1682" y="-63.5" font-family="Helvetica,sans-Serif" font-size="10.00">Forms\Form.h</text>
</a>
</g>
</g>
<!-- Node34&#45;&gt;Node41 -->
<g id="edge44" class="edge"><title>Node34&#45;&gt;Node41</title>
<path fill="none" stroke="midnightblue" d="M1994.47,-117.187C1944.86,-109.995 1834.44,-93.6937 1731,-76.1266"/>
<polygon fill="midnightblue" stroke="midnightblue" points="1731.46,-72.6546 1721.01,-74.4229 1730.28,-79.5549 1731.46,-72.6546"/>
</g>
<!-- Node42 -->
<g id="node42" class="node"><title>Node42</title>
<g id="a_node42"><a xlink:href="_dialogs_8h.html" target="_top" xlink:title="Forms\\Dialogs.h">
<polygon fill="white" stroke="red" points="1739,-56.5 1739,-75.5 1827,-75.5 1827,-56.5 1739,-56.5"/>
<text text-anchor="middle" x="1783" y="-63.5" font-family="Helvetica,sans-Serif" font-size="10.00">Forms\Dialogs.h</text>
</a>
</g>
</g>
<!-- Node34&#45;&gt;Node42 -->
<g id="edge45" class="edge"><title>Node34&#45;&gt;Node42</title>
<path fill="none" stroke="midnightblue" d="M1994.16,-114.91C1954.47,-105.905 1879.53,-88.9012 1830.44,-77.7628"/>
<polygon fill="midnightblue" stroke="midnightblue" points="1831.2,-74.3483 1820.68,-75.5488 1829.66,-81.1748 1831.2,-74.3483"/>
</g>
<!-- Node43 -->
<g id="node43" class="node"><title>Node43</title>
<g id="a_node43"><a xlink:href="_fonts_8h.html" target="_top" xlink:title="Forms\\Fonts.h">
<polygon fill="white" stroke="red" points="1845,-56.5 1845,-75.5 1925,-75.5 1925,-56.5 1845,-56.5"/>
<text text-anchor="middle" x="1885" y="-63.5" font-family="Helvetica,sans-Serif" font-size="10.00">Forms\Fonts.h</text>
</a>
</g>
</g>
<!-- Node34&#45;&gt;Node43 -->
<g id="edge46" class="edge"><title>Node34&#45;&gt;Node43</title>
<path fill="none" stroke="midnightblue" d="M1999.45,-112.444C1976.97,-103.517 1941.51,-89.4387 1916.02,-79.3168"/>
<polygon fill="midnightblue" stroke="midnightblue" points="1917.03,-75.9539 1906.45,-75.5164 1914.45,-82.4598 1917.03,-75.9539"/>
</g>
<!-- Node44&#45;&gt;Node2 -->
<g id="edge48" class="edge"><title>Node44&#45;&gt;Node2</title>
<path fill="none" stroke="midnightblue" d="M2543.41,-121.343C2426.57,-122.277 1997.28,-122.247 1635.08,-75.9012"/>
<polygon fill="midnightblue" stroke="midnightblue" points="1635.29,-72.3992 1624.93,-74.587 1634.4,-79.3413 1635.29,-72.3992"/>
</g>
<!-- Node45 -->
<g id="node45" class="node"><title>Node45</title>
<g id="a_node45"><a xlink:href="_sockets_2_base_8h.html" target="_top" xlink:title="Sockets\\Base.h">
<polygon fill="white" stroke="red" points="2531,-56.5 2531,-75.5 2617,-75.5 2617,-56.5 2531,-56.5"/>
<text text-anchor="middle" x="2574" y="-63.5" font-family="Helvetica,sans-Serif" font-size="10.00">Sockets\Base.h</text>
</a>
</g>
</g>
<!-- Node44&#45;&gt;Node45 -->
<g id="edge49" class="edge"><title>Node44&#45;&gt;Node45</title>
<path fill="none" stroke="midnightblue" d="M2574,-112.083C2574,-105.006 2574,-94.8611 2574,-85.9865"/>
<polygon fill="midnightblue" stroke="midnightblue" points="2577.5,-85.751 2574,-75.7511 2570.5,-85.7511 2577.5,-85.751"/>
</g>
<!-- Node46 -->
<g id="node46" class="node"><title>Node46</title>
<g id="a_node46"><a xlink:href="_client_8h.html" target="_top" xlink:title="Sockets\\Client.h">
<polygon fill="white" stroke="red" points="2635.5,-56.5 2635.5,-75.5 2724.5,-75.5 2724.5,-56.5 2635.5,-56.5"/>
<text text-anchor="middle" x="2680" y="-63.5" font-family="Helvetica,sans-Serif" font-size="10.00">Sockets\Client.h</text>
</a>
</g>
</g>
<!-- Node44&#45;&gt;Node46 -->
<g id="edge50" class="edge"><title>Node44&#45;&gt;Node46</title>
<path fill="none" stroke="midnightblue" d="M2591.03,-112.324C2608.03,-103.664 2634.38,-90.2424 2653.99,-80.249"/>
<polygon fill="midnightblue" stroke="midnightblue" points="2655.69,-83.3125 2663.01,-75.6545 2652.51,-77.0752 2655.69,-83.3125"/>
</g>
<!-- Node47 -->
<g id="node47" class="node"><title>Node47</title>
<g id="a_node47"><a xlink:href="_server_8h.html" target="_top" xlink:title="Sockets\\Server.h">
<polygon fill="white" stroke="red" points="2742.5,-56.5 2742.5,-75.5 2833.5,-75.5 2833.5,-56.5 2742.5,-56.5"/>
<text text-anchor="middle" x="2788" y="-63.5" font-family="Helvetica,sans-Serif" font-size="10.00">Sockets\Server.h</text>
</a>
</g>
</g>
<!-- Node44&#45;&gt;Node47 -->
<g id="edge51" class="edge"><title>Node44&#45;&gt;Node47</title>
<path fill="none" stroke="midnightblue" d="M2604.66,-113.263C2641.28,-104.022 2702.8,-88.4994 2744.37,-78.01"/>
<polygon fill="midnightblue" stroke="midnightblue" points="2745.38,-81.3647 2754.22,-75.5243 2743.67,-74.5775 2745.38,-81.3647"/>
</g>
<!-- Node48&#45;&gt;Node2 -->
<g id="edge53" class="edge"><title>Node48&#45;&gt;Node2</title>
<path fill="none" stroke="midnightblue" d="M2743.86,-119.598C2714.51,-117.687 2659.74,-114.243 2613,-112 2181.39,-91.2889 2067.78,-129.237 1634.88,-75.8592"/>
<polygon fill="midnightblue" stroke="midnightblue" points="1635.28,-72.3815 1624.92,-74.622 1634.41,-79.3281 1635.28,-72.3815"/>
</g>
<!-- Node49 -->
<g id="node49" class="node"><title>Node49</title>
<g id="a_node49"><a xlink:href="_app_2_base_8h.html" target="_top" xlink:title="Dołącza bazowe składniki modułu App.h. ">
<polygon fill="white" stroke="red" points="2852,-56.5 2852,-75.5 2920,-75.5 2920,-56.5 2852,-56.5"/>
<text text-anchor="middle" x="2886" y="-63.5" font-family="Helvetica,sans-Serif" font-size="10.00">App\Base.h</text>
</a>
</g>
</g>
<!-- Node48&#45;&gt;Node49 -->
<g id="edge54" class="edge"><title>Node48&#45;&gt;Node49</title>
<path fill="none" stroke="midnightblue" d="M2784.17,-112.444C2803.91,-103.636 2834.89,-89.8116 2857.49,-79.722"/>
<polygon fill="midnightblue" stroke="midnightblue" points="2859.21,-82.788 2866.92,-75.5164 2856.36,-76.3957 2859.21,-82.788"/>
</g>
<!-- Node50 -->
<g id="node50" class="node"><title>Node50</title>
<g id="a_node50"><a xlink:href="_types_8h.html" target="_top" xlink:title="Dołącza wyszczególnione składniki modułu App.h. ">
<polygon fill="white" stroke="red" points="2938.5,-56.5 2938.5,-75.5 3009.5,-75.5 3009.5,-56.5 2938.5,-56.5"/>
<text text-anchor="middle" x="2974" y="-63.5" font-family="Helvetica,sans-Serif" font-size="10.00">App\Types.h</text>
</a>
</g>
</g>
<!-- Node48&#45;&gt;Node50 -->
<g id="edge55" class="edge"><title>Node48&#45;&gt;Node50</title>
<path fill="none" stroke="midnightblue" d="M2786.19,-115.525C2819.98,-106.794 2886.76,-89.5402 2930.9,-78.1367"/>
<polygon fill="midnightblue" stroke="midnightblue" points="2931.97,-81.4755 2940.77,-75.5851 2930.21,-74.6981 2931.97,-81.4755"/>
</g>
</g>
</svg>
        <g id="navigator" transform="translate(0 0)" fill="#404254">
                <rect fill="#f2f5e9" fill-opacity="0.5" stroke="#606060" stroke-width=".5" x="0" y="0" width="60" height="60"/>
                <use id="zoomplus" xlink:href="#zoomPlus" x="17" y="9" onmousedown="handleZoom(evt,'in')"/>
                <use id="zoomminus" xlink:href="#zoomMin" x="42" y="9" onmousedown="handleZoom(evt,'out')"/>
                <use id="reset" xlink:href="#resetDef" x="30" y="36" onmousedown="handleReset()"/>
                <g id="arrowUp" xlink:href="#dirArrow" transform="translate(30 24)" onmousedown="handlePan(0,-1)">
                  <use xlink:href="#rim" fill="#404040">
                        <set attributeName="fill" to="#808080" begin="arrowUp.mouseover" end="arrowUp.mouseout"/>
                  </use>
                  <path fill="none" stroke="white" stroke-width="1.5" d="M0,-3.0v7 M-2.5,-0.5L0,-3.0L2.5,-0.5"/>
                </g>
                <g id="arrowRight" xlink:href="#dirArrow" transform="rotate(90) translate(36 -43)" onmousedown="handlePan(1,0)">
                  <use xlink:href="#rim" fill="#404040">
                        <set attributeName="fill" to="#808080" begin="arrowRight.mouseover" end="arrowRight.mouseout"/>
                  </use>
                  <path fill="none" stroke="white" stroke-width="1.5" d="M0,-3.0v7 M-2.5,-0.5L0,-3.0L2.5,-0.5"/>
                </g>
                <g id="arrowDown" xlink:href="#dirArrow" transform="rotate(180) translate(-30 -48)" onmousedown="handlePan(0,1)">
                  <use xlink:href="#rim" fill="#404040">
                        <set attributeName="fill" to="#808080" begin="arrowDown.mouseover" end="arrowDown.mouseout"/>
                  </use>
                  <path fill="none" stroke="white" stroke-width="1.5" d="M0,-3.0v7 M-2.5,-0.5L0,-3.0L2.5,-0.5"/>
                </g>
                <g id="arrowLeft" xlink:href="#dirArrow" transform="rotate(270) translate(-36 17)" onmousedown="handlePan(-1,0)">
                  <use xlink:href="#rim" fill="#404040">
                        <set attributeName="fill" to="#808080" begin="arrowLeft.mouseover" end="arrowLeft.mouseout"/>
                  </use>
                  <path fill="none" stroke="white" stroke-width="1.5" d="M0,-3.0v7 M-2.5,-0.5L0,-3.0L2.5,-0.5"/>
                </g>
        </g>
        <svg viewBox="0 0 15 15" width="100%" height="30px" preserveAspectRatio="xMaxYMin meet">
         <g id="arrow_out" transform="scale(0.3 0.3)">
          <a xlink:href="_kuszk_a_p_i_8h__incl_org.svg" target="_base">
           <rect id="button" ry="5" rx="5" y="6" x="6" height="38" width="38"
                fill="#f2f5e9" fill-opacity="0.5" stroke="#606060" stroke-width="1.0"/>
           <path id="arrow"
             d="M 11.500037,31.436501 C 11.940474,20.09759 22.043105,11.32322 32.158766,21.979434 L 37.068811,17.246167 C 37.068811,17.246167 37.088388,32 37.088388,32 L 22.160133,31.978069 C 22.160133,31.978069 26.997745,27.140456 26.997745,27.140456 C 18.528582,18.264221 13.291696,25.230495 11.500037,31.436501 z"
             style="fill:#404040;"/>
          </a>
         </g>
        </svg>
</svg>
