<?xml version="1.0" encoding="UTF-8" standalone="no"?>
<!DOCTYPE svg PUBLIC "-//W3C//DTD SVG 1.1//EN"
 "http://www.w3.org/Graphics/SVG/1.1/DTD/svg11.dtd">
<!-- Generated by graphviz version 2.36.0 (20140111.2315)
 -->
<!-- Title: KuszkAPI/Containers/Common/Map.cpp Pages: 1 -->
<svg width="126pt" height="220pt"
 viewBox="0.00 0.00 126.00 220.00" xmlns="http://www.w3.org/2000/svg" xmlns:xlink="http://www.w3.org/1999/xlink">
<g id="graph0" class="graph" transform="scale(1 1) rotate(0) translate(4 216)">
<title>KuszkAPI/Containers/Common/Map.cpp</title>
<polygon fill="white" stroke="none" points="-4,4 -4,-216 122,-216 122,4 -4,4"/>
<!-- Node1 -->
<g id="node1" class="node"><title>Node1</title>
<polygon fill="#bfbfbf" stroke="black" points="4,-181 4,-211 114,-211 114,-181 4,-181"/>
<text text-anchor="start" x="12" y="-199" font-family="Helvetica,sans-Serif" font-size="10.00">KuszkAPI/Containers</text>
<text text-anchor="middle" x="59" y="-188" font-family="Helvetica,sans-Serif" font-size="10.00">/Common/Map.cpp</text>
</g>
<!-- Node2 -->
<g id="node2" class="node"><title>Node2</title>
<g id="a_node2"><a xlink:href="_common_8h.html" target="_top" xlink:title="Dołącza powszechne składniki modułu Containers.h. ">
<polygon fill="white" stroke="black" points="4,-113 4,-143 114,-143 114,-113 4,-113"/>
<text text-anchor="start" x="12" y="-131" font-family="Helvetica,sans-Serif" font-size="10.00">KuszkAPI/Containers</text>
<text text-anchor="middle" x="59" y="-120" font-family="Helvetica,sans-Serif" font-size="10.00">/Common.h</text>
</a>
</g>
</g>
<!-- Node1&#45;&gt;Node2 -->
<g id="edge1" class="edge"><title>Node1&#45;&gt;Node2</title>
<path fill="none" stroke="midnightblue" d="M59,-170.532C59,-161.361 59,-151.245 59,-143.293"/>
<polygon fill="midnightblue" stroke="midnightblue" points="55.5001,-170.679 59,-180.679 62.5001,-170.679 55.5001,-170.679"/>
</g>
<!-- Node3 -->
<g id="node3" class="node"><title>Node3</title>
<g id="a_node3"><a xlink:href="_containers_8h.html" target="_top" xlink:title="Dołącza do projektu moduł pojemników. ">
<polygon fill="white" stroke="black" points="0,-56.5 0,-75.5 118,-75.5 118,-56.5 0,-56.5"/>
<text text-anchor="middle" x="59" y="-63.5" font-family="Helvetica,sans-Serif" font-size="10.00">KuszkAPI/Containers.h</text>
</a>
</g>
</g>
<!-- Node2&#45;&gt;Node3 -->
<g id="edge2" class="edge"><title>Node2&#45;&gt;Node3</title>
<path fill="none" stroke="midnightblue" d="M59,-102.586C59,-93.0743 59,-82.7864 59,-75.7305"/>
<polygon fill="midnightblue" stroke="midnightblue" points="55.5001,-102.781 59,-112.781 62.5001,-102.781 55.5001,-102.781"/>
</g>
<!-- Node4 -->
<g id="node4" class="node"><title>Node4</title>
<g id="a_node4"><a xlink:href="_kuszk_a_p_i_8h.html" target="_top" xlink:title="Główny plik dołączający do projektu całe środowisko. ">
<polygon fill="white" stroke="black" points="1.5,-0.5 1.5,-19.5 116.5,-19.5 116.5,-0.5 1.5,-0.5"/>
<text text-anchor="middle" x="59" y="-7.5" font-family="Helvetica,sans-Serif" font-size="10.00">KuszkAPI/KuszkAPI.h</text>
</a>
</g>
</g>
<!-- Node3&#45;&gt;Node4 -->
<g id="edge3" class="edge"><title>Node3&#45;&gt;Node4</title>
<path fill="none" stroke="midnightblue" d="M59,-45.8045C59,-36.9102 59,-26.7798 59,-19.7511"/>
<polygon fill="midnightblue" stroke="midnightblue" points="55.5001,-46.083 59,-56.083 62.5001,-46.083 55.5001,-46.083"/>
</g>
</g>
</svg>
