<?xml version="1.0" encoding="UTF-8" standalone="no"?>
<!DOCTYPE svg PUBLIC "-//W3C//DTD SVG 1.1//EN"
 "http://www.w3.org/Graphics/SVG/1.1/DTD/svg11.dtd">
<!-- Generated by graphviz version 2.36.0 (20140111.2315)
 -->
<!-- Title: KuszkAPI/Core/Parts.h Pages: 1 -->
<svg width="326pt" height="84pt"
 viewBox="0.00 0.00 326.00 84.00" xmlns="http://www.w3.org/2000/svg" xmlns:xlink="http://www.w3.org/1999/xlink">
<g id="graph0" class="graph" transform="scale(1 1) rotate(0) translate(4 80)">
<title>KuszkAPI/Core/Parts.h</title>
<polygon fill="white" stroke="none" points="-4,4 -4,-80 322,-80 322,4 -4,4"/>
<!-- Node1 -->
<g id="node1" class="node"><title>Node1</title>
<polygon fill="#bfbfbf" stroke="black" points="112,-56.5 112,-75.5 230,-75.5 230,-56.5 112,-56.5"/>
<text text-anchor="middle" x="171" y="-63.5" font-family="Helvetica,sans-Serif" font-size="10.00">KuszkAPI/Core/Parts.h</text>
</g>
<!-- Node2 -->
<g id="node2" class="node"><title>Node2</title>
<g id="a_node2"><a xlink:href="_core_2_parts_2_declarations_8h.html" target="_top" xlink:title="Parts\\Declarations.h">
<polygon fill="white" stroke="black" points="-0.5,-0.5 -0.5,-19.5 104.5,-19.5 104.5,-0.5 -0.5,-0.5"/>
<text text-anchor="middle" x="52" y="-7.5" font-family="Helvetica,sans-Serif" font-size="10.00">Parts\Declarations.h</text>
</a>
</g>
</g>
<!-- Node1&#45;&gt;Node2 -->
<g id="edge1" class="edge"><title>Node1&#45;&gt;Node2</title>
<path fill="none" stroke="midnightblue" d="M152.144,-56.4435C132.734,-47.6356 102.27,-33.8116 80.0355,-23.722"/>
<polygon fill="midnightblue" stroke="midnightblue" points="81.3203,-20.4615 70.7677,-19.5164 78.4277,-26.836 81.3203,-20.4615"/>
</g>
<!-- Node3 -->
<g id="node3" class="node"><title>Node3</title>
<g id="a_node3"><a xlink:href="_console_8cpp.html" target="_top" xlink:title="Parts\\Console.cpp">
<polygon fill="white" stroke="black" points="122.5,-0.5 122.5,-19.5 219.5,-19.5 219.5,-0.5 122.5,-0.5"/>
<text text-anchor="middle" x="171" y="-7.5" font-family="Helvetica,sans-Serif" font-size="10.00">Parts\Console.cpp</text>
</a>
</g>
</g>
<!-- Node1&#45;&gt;Node3 -->
<g id="edge2" class="edge"><title>Node1&#45;&gt;Node3</title>
<path fill="none" stroke="midnightblue" d="M171,-56.083C171,-49.0059 171,-38.8611 171,-29.9865"/>
<polygon fill="midnightblue" stroke="midnightblue" points="174.5,-29.751 171,-19.7511 167.5,-29.7511 174.5,-29.751"/>
</g>
<!-- Node4 -->
<g id="node4" class="node"><title>Node4</title>
<g id="a_node4"><a xlink:href="_tray_8cpp.html" target="_top" xlink:title="Parts\\Tray.cpp">
<polygon fill="white" stroke="black" points="238,-0.5 238,-19.5 318,-19.5 318,-0.5 238,-0.5"/>
<text text-anchor="middle" x="278" y="-7.5" font-family="Helvetica,sans-Serif" font-size="10.00">Parts\Tray.cpp</text>
</a>
</g>
</g>
<!-- Node1&#45;&gt;Node4 -->
<g id="edge3" class="edge"><title>Node1&#45;&gt;Node4</title>
<path fill="none" stroke="midnightblue" d="M188.191,-56.324C205.351,-47.6641 231.946,-34.2424 251.747,-24.249"/>
<polygon fill="midnightblue" stroke="midnightblue" points="253.501,-27.2847 260.851,-19.6545 250.347,-21.0354 253.501,-27.2847"/>
</g>
</g>
</svg>
