<?xml version="1.0" encoding="UTF-8" standalone="no"?>
<!DOCTYPE svg PUBLIC "-//W3C//DTD SVG 1.1//EN"
 "http://www.w3.org/Graphics/SVG/1.1/DTD/svg11.dtd">
<!-- Generated by graphviz version 2.36.0 (20140111.2315)
 -->
<!-- Title: KuszkAPI/Core/Run.h Pages: 1 -->
<svg width="387pt" height="84pt"
 viewBox="0.00 0.00 387.00 84.00" xmlns="http://www.w3.org/2000/svg" xmlns:xlink="http://www.w3.org/1999/xlink">
<g id="graph0" class="graph" transform="scale(1 1) rotate(0) translate(4 80)">
<title>KuszkAPI/Core/Run.h</title>
<polygon fill="white" stroke="none" points="-4,4 -4,-80 383,-80 383,4 -4,4"/>
<!-- Node1 -->
<g id="node1" class="node"><title>Node1</title>
<polygon fill="#bfbfbf" stroke="black" points="147,-56.5 147,-75.5 259,-75.5 259,-56.5 147,-56.5"/>
<text text-anchor="middle" x="203" y="-63.5" font-family="Helvetica,sans-Serif" font-size="10.00">KuszkAPI/Core/Run.h</text>
</g>
<!-- Node2 -->
<g id="node2" class="node"><title>Node2</title>
<g id="a_node2"><a xlink:href="_core_2_run_2_declarations_8h.html" target="_top" xlink:title="Run\\Declarations.h">
<polygon fill="white" stroke="black" points="-0.5,-0.5 -0.5,-19.5 98.5,-19.5 98.5,-0.5 -0.5,-0.5"/>
<text text-anchor="middle" x="49" y="-7.5" font-family="Helvetica,sans-Serif" font-size="10.00">Run\Declarations.h</text>
</a>
</g>
</g>
<!-- Node1&#45;&gt;Node2 -->
<g id="edge1" class="edge"><title>Node1&#45;&gt;Node2</title>
<path fill="none" stroke="midnightblue" d="M178.598,-56.4435C152.803,-47.3986 111.923,-33.064 82.9822,-22.9158"/>
<polygon fill="midnightblue" stroke="midnightblue" points="83.8824,-19.5226 73.2876,-19.5164 81.5661,-26.1283 83.8824,-19.5226"/>
</g>
<!-- Node3 -->
<g id="node3" class="node"><title>Node3</title>
<g id="a_node3"><a xlink:href="_script_8cpp.html" target="_top" xlink:title="Run\\Script.cpp">
<polygon fill="white" stroke="black" points="116.5,-0.5 116.5,-19.5 197.5,-19.5 197.5,-0.5 116.5,-0.5"/>
<text text-anchor="middle" x="157" y="-7.5" font-family="Helvetica,sans-Serif" font-size="10.00">Run\Script.cpp</text>
</a>
</g>
</g>
<!-- Node1&#45;&gt;Node3 -->
<g id="edge2" class="edge"><title>Node1&#45;&gt;Node3</title>
<path fill="none" stroke="midnightblue" d="M195.404,-56.083C188.773,-48.2982 178.979,-36.8015 170.942,-27.3665"/>
<polygon fill="midnightblue" stroke="midnightblue" points="173.604,-25.0939 164.455,-19.7511 168.275,-29.6332 173.604,-25.0939"/>
</g>
<!-- Node4 -->
<g id="node4" class="node"><title>Node4</title>
<g id="a_node4"><a xlink:href="_dll_8cpp.html" target="_top" xlink:title="Run\\Dll.cpp">
<polygon fill="white" stroke="black" points="215.5,-0.5 215.5,-19.5 282.5,-19.5 282.5,-0.5 215.5,-0.5"/>
<text text-anchor="middle" x="249" y="-7.5" font-family="Helvetica,sans-Serif" font-size="10.00">Run\Dll.cpp</text>
</a>
</g>
</g>
<!-- Node1&#45;&gt;Node4 -->
<g id="edge3" class="edge"><title>Node1&#45;&gt;Node4</title>
<path fill="none" stroke="midnightblue" d="M210.596,-56.083C217.227,-48.2982 227.021,-36.8015 235.058,-27.3665"/>
<polygon fill="midnightblue" stroke="midnightblue" points="237.725,-29.6332 241.545,-19.7511 232.396,-25.0939 237.725,-29.6332"/>
</g>
<!-- Node5 -->
<g id="node5" class="node"><title>Node5</title>
<g id="a_node5"><a xlink:href="_hook_8cpp.html" target="_top" xlink:title="Run\\Hook.cpp">
<polygon fill="white" stroke="black" points="301,-0.5 301,-19.5 379,-19.5 379,-0.5 301,-0.5"/>
<text text-anchor="middle" x="340" y="-7.5" font-family="Helvetica,sans-Serif" font-size="10.00">Run\Hook.cpp</text>
</a>
</g>
</g>
<!-- Node1&#45;&gt;Node5 -->
<g id="edge4" class="edge"><title>Node1&#45;&gt;Node5</title>
<path fill="none" stroke="midnightblue" d="M224.708,-56.4435C247.355,-47.5171 283.072,-33.4387 308.752,-23.3168"/>
<polygon fill="midnightblue" stroke="midnightblue" points="310.374,-26.4397 318.394,-19.5164 307.807,-19.9273 310.374,-26.4397"/>
</g>
</g>
</svg>
