<?xml version="1.0" encoding="UTF-8" standalone="no"?>
<!DOCTYPE svg PUBLIC "-//W3C//DTD SVG 1.1//EN"
 "http://www.w3.org/Graphics/SVG/1.1/DTD/svg11.dtd">
<!-- Generated by graphviz version 2.36.0 (20140111.2315)
 -->
<!-- Title: KuszkAPI/Core/Run/Script.cpp Pages: 1 -->
<svg width="158pt" height="196pt"
 viewBox="0.00 0.00 158.00 196.00" xmlns="http://www.w3.org/2000/svg" xmlns:xlink="http://www.w3.org/1999/xlink">
<g id="graph0" class="graph" transform="scale(1 1) rotate(0) translate(4 192)">
<title>KuszkAPI/Core/Run/Script.cpp</title>
<polygon fill="white" stroke="none" points="-4,4 -4,-192 154,-192 154,4 -4,4"/>
<!-- Node1 -->
<g id="node1" class="node"><title>Node1</title>
<polygon fill="#bfbfbf" stroke="black" points="-0.5,-168.5 -0.5,-187.5 150.5,-187.5 150.5,-168.5 -0.5,-168.5"/>
<text text-anchor="middle" x="75" y="-175.5" font-family="Helvetica,sans-Serif" font-size="10.00">KuszkAPI/Core/Run/Script.cpp</text>
</g>
<!-- Node2 -->
<g id="node2" class="node"><title>Node2</title>
<g id="a_node2"><a xlink:href="_run_8h.html" target="_top" xlink:title="KuszkAPI/Core/Run.h">
<polygon fill="white" stroke="black" points="19,-112.5 19,-131.5 131,-131.5 131,-112.5 19,-112.5"/>
<text text-anchor="middle" x="75" y="-119.5" font-family="Helvetica,sans-Serif" font-size="10.00">KuszkAPI/Core/Run.h</text>
</a>
</g>
</g>
<!-- Node1&#45;&gt;Node2 -->
<g id="edge1" class="edge"><title>Node1&#45;&gt;Node2</title>
<path fill="none" stroke="midnightblue" d="M75,-157.805C75,-148.91 75,-138.78 75,-131.751"/>
<polygon fill="midnightblue" stroke="midnightblue" points="71.5001,-158.083 75,-168.083 78.5001,-158.083 71.5001,-158.083"/>
</g>
<!-- Node3 -->
<g id="node3" class="node"><title>Node3</title>
<g id="a_node3"><a xlink:href="_core_8h.html" target="_top" xlink:title="Dołącza do projektu moduł jądra. ">
<polygon fill="white" stroke="black" points="29,-56.5 29,-75.5 121,-75.5 121,-56.5 29,-56.5"/>
<text text-anchor="middle" x="75" y="-63.5" font-family="Helvetica,sans-Serif" font-size="10.00">KuszkAPI/Core.h</text>
</a>
</g>
</g>
<!-- Node2&#45;&gt;Node3 -->
<g id="edge2" class="edge"><title>Node2&#45;&gt;Node3</title>
<path fill="none" stroke="midnightblue" d="M75,-101.805C75,-92.9102 75,-82.7798 75,-75.7511"/>
<polygon fill="midnightblue" stroke="midnightblue" points="71.5001,-102.083 75,-112.083 78.5001,-102.083 71.5001,-102.083"/>
</g>
<!-- Node4 -->
<g id="node4" class="node"><title>Node4</title>
<g id="a_node4"><a xlink:href="_kuszk_a_p_i_8h.html" target="_top" xlink:title="Główny plik dołączający do projektu całe środowisko. ">
<polygon fill="white" stroke="black" points="17.5,-0.5 17.5,-19.5 132.5,-19.5 132.5,-0.5 17.5,-0.5"/>
<text text-anchor="middle" x="75" y="-7.5" font-family="Helvetica,sans-Serif" font-size="10.00">KuszkAPI/KuszkAPI.h</text>
</a>
</g>
</g>
<!-- Node3&#45;&gt;Node4 -->
<g id="edge3" class="edge"><title>Node3&#45;&gt;Node4</title>
<path fill="none" stroke="midnightblue" d="M75,-45.8045C75,-36.9102 75,-26.7798 75,-19.7511"/>
<polygon fill="midnightblue" stroke="midnightblue" points="71.5001,-46.083 75,-56.083 78.5001,-46.083 71.5001,-46.083"/>
</g>
</g>
</svg>
