<?xml version="1.0" encoding="UTF-8" standalone="no"?>
<!DOCTYPE svg PUBLIC "-//W3C//DTD SVG 1.1//EN"
 "http://www.w3.org/Graphics/SVG/1.1/DTD/svg11.dtd">
<!-- Generated by graphviz version 2.36.0 (20140111.2315)
 -->
<!-- Title: KuszkAPI/Sockets/Server.h Pages: 1 -->
<svg width="227pt" height="84pt"
 viewBox="0.00 0.00 227.00 84.00" xmlns="http://www.w3.org/2000/svg" xmlns:xlink="http://www.w3.org/1999/xlink">
<g id="graph0" class="graph" transform="scale(1 1) rotate(0) translate(4 80)">
<title>KuszkAPI/Sockets/Server.h</title>
<polygon fill="white" stroke="none" points="-4,4 -4,-80 223,-80 223,4 -4,4"/>
<!-- Node1 -->
<g id="node1" class="node"><title>Node1</title>
<polygon fill="#bfbfbf" stroke="black" points="44.5,-56.5 44.5,-75.5 181.5,-75.5 181.5,-56.5 44.5,-56.5"/>
<text text-anchor="middle" x="113" y="-63.5" font-family="Helvetica,sans-Serif" font-size="10.00">KuszkAPI/Sockets/Server.h</text>
</g>
<!-- Node2 -->
<g id="node2" class="node"><title>Node2</title>
<g id="a_node2"><a xlink:href="_sockets_2_server_2_declarations_8h.html" target="_top" xlink:title="Server\\Declarations.h">
<polygon fill="white" stroke="black" points="-0.5,-0.5 -0.5,-19.5 108.5,-19.5 108.5,-0.5 -0.5,-0.5"/>
<text text-anchor="middle" x="54" y="-7.5" font-family="Helvetica,sans-Serif" font-size="10.00">Server\Declarations.h</text>
</a>
</g>
</g>
<!-- Node1&#45;&gt;Node2 -->
<g id="edge1" class="edge"><title>Node1&#45;&gt;Node2</title>
<path fill="none" stroke="midnightblue" d="M103.521,-56.324C94.7989,-48.3414 81.6565,-36.3128 71.1022,-26.6529"/>
<polygon fill="midnightblue" stroke="midnightblue" points="73.3917,-24.0036 63.6519,-19.8339 68.6655,-29.1674 73.3917,-24.0036"/>
</g>
<!-- Node3 -->
<g id="node3" class="node"><title>Node3</title>
<g id="a_node3"><a xlink:href="_server_8cpp.html" target="_top" xlink:title="Server\\Server.cpp">
<polygon fill="white" stroke="black" points="127,-0.5 127,-19.5 219,-19.5 219,-0.5 127,-0.5"/>
<text text-anchor="middle" x="173" y="-7.5" font-family="Helvetica,sans-Serif" font-size="10.00">Server\Server.cpp</text>
</a>
</g>
</g>
<!-- Node1&#45;&gt;Node3 -->
<g id="edge2" class="edge"><title>Node1&#45;&gt;Node3</title>
<path fill="none" stroke="midnightblue" d="M122.64,-56.324C131.51,-48.3414 144.875,-36.3128 155.608,-26.6529"/>
<polygon fill="midnightblue" stroke="midnightblue" points="158.093,-29.1251 163.185,-19.8339 153.41,-23.922 158.093,-29.1251"/>
</g>
</g>
</svg>
