<?xml version="1.0" encoding="UTF-8" standalone="no"?>
<!DOCTYPE svg PUBLIC "-//W3C//DTD SVG 1.1//EN"
 "http://www.w3.org/Graphics/SVG/1.1/DTD/svg11.dtd">
<!-- Generated by graphviz version 2.36.0 (20140111.2315)
 -->
<!-- Title: KuszkAPI/Sockets/Base.h Pages: 1 -->
<svg width="222pt" height="84pt"
 viewBox="0.00 0.00 222.00 84.00" xmlns="http://www.w3.org/2000/svg" xmlns:xlink="http://www.w3.org/1999/xlink">
<g id="graph0" class="graph" transform="scale(1 1) rotate(0) translate(4 80)">
<title>KuszkAPI/Sockets/Base.h</title>
<polygon fill="white" stroke="none" points="-4,4 -4,-80 218,-80 218,4 -4,4"/>
<!-- Node1 -->
<g id="node1" class="node"><title>Node1</title>
<polygon fill="#bfbfbf" stroke="black" points="43.5,-56.5 43.5,-75.5 176.5,-75.5 176.5,-56.5 43.5,-56.5"/>
<text text-anchor="middle" x="110" y="-63.5" font-family="Helvetica,sans-Serif" font-size="10.00">KuszkAPI/Sockets/Base.h</text>
</g>
<!-- Node2 -->
<g id="node2" class="node"><title>Node2</title>
<g id="a_node2"><a xlink:href="_sockets_2_base_2_declarations_8h.html" target="_top" xlink:title="Base\\Declarations.h">
<polygon fill="white" stroke="black" points="0,-0.5 0,-19.5 104,-19.5 104,-0.5 0,-0.5"/>
<text text-anchor="middle" x="52" y="-7.5" font-family="Helvetica,sans-Serif" font-size="10.00">Base\Declarations.h</text>
</a>
</g>
</g>
<!-- Node1&#45;&gt;Node2 -->
<g id="edge1" class="edge"><title>Node1&#45;&gt;Node2</title>
<path fill="none" stroke="midnightblue" d="M100.681,-56.324C92.1074,-48.3414 79.1878,-36.3128 68.8124,-26.6529"/>
<polygon fill="midnightblue" stroke="midnightblue" points="71.1922,-24.0865 61.4883,-19.8339 66.4223,-29.2098 71.1922,-24.0865"/>
</g>
<!-- Node3 -->
<g id="node3" class="node"><title>Node3</title>
<g id="a_node3"><a xlink:href="_socket_8cpp.html" target="_top" xlink:title="Base\\Socket.cpp">
<polygon fill="white" stroke="black" points="122,-0.5 122,-19.5 214,-19.5 214,-0.5 122,-0.5"/>
<text text-anchor="middle" x="168" y="-7.5" font-family="Helvetica,sans-Serif" font-size="10.00">Base\Socket.cpp</text>
</a>
</g>
</g>
<!-- Node1&#45;&gt;Node3 -->
<g id="edge2" class="edge"><title>Node1&#45;&gt;Node3</title>
<path fill="none" stroke="midnightblue" d="M119.319,-56.324C127.893,-48.3414 140.812,-36.3128 151.188,-26.6529"/>
<polygon fill="midnightblue" stroke="midnightblue" points="153.578,-29.2098 158.512,-19.8339 148.808,-24.0865 153.578,-29.2098"/>
</g>
</g>
</svg>
