<?xml version="1.0" encoding="UTF-8" standalone="no"?>
<!DOCTYPE svg PUBLIC "-//W3C//DTD SVG 1.1//EN"
 "http://www.w3.org/Graphics/SVG/1.1/DTD/svg11.dtd">
<!-- Generated by graphviz version 2.36.0 (20140111.2315)
 -->
<!-- Title: KuszkAPI/Containers/Strings.h Pages: 1 -->
<svg width="239pt" height="96pt"
 viewBox="0.00 0.00 239.00 96.00" xmlns="http://www.w3.org/2000/svg" xmlns:xlink="http://www.w3.org/1999/xlink">
<g id="graph0" class="graph" transform="scale(1 1) rotate(0) translate(4 92)">
<title>KuszkAPI/Containers/Strings.h</title>
<polygon fill="white" stroke="none" points="-4,4 -4,-92 235,-92 235,4 -4,4"/>
<!-- Node1 -->
<g id="node1" class="node"><title>Node1</title>
<polygon fill="#bfbfbf" stroke="black" points="63,-57 63,-87 173,-87 173,-57 63,-57"/>
<text text-anchor="start" x="71" y="-75" font-family="Helvetica,sans-Serif" font-size="10.00">KuszkAPI/Containers</text>
<text text-anchor="middle" x="118" y="-64" font-family="Helvetica,sans-Serif" font-size="10.00">/Strings.h</text>
</g>
<!-- Node2 -->
<g id="node2" class="node"><title>Node2</title>
<g id="a_node2"><a xlink:href="_containers_2_strings_2_declarations_8h.html" target="_top" xlink:title="Strings\\Declarations.h">
<polygon fill="white" stroke="black" points="-0.5,-0.5 -0.5,-19.5 112.5,-19.5 112.5,-0.5 -0.5,-0.5"/>
<text text-anchor="middle" x="56" y="-7.5" font-family="Helvetica,sans-Serif" font-size="10.00">Strings\Declarations.h</text>
</a>
</g>
</g>
<!-- Node1&#45;&gt;Node2 -->
<g id="edge1" class="edge"><title>Node1&#45;&gt;Node2</title>
<path fill="none" stroke="midnightblue" d="M103.307,-56.7808C94.0189,-47.7925 82.0007,-36.162 72.4022,-26.8731"/>
<polygon fill="midnightblue" stroke="midnightblue" points="74.6416,-24.1697 65.0215,-19.7305 69.7736,-29.1999 74.6416,-24.1697"/>
</g>
<!-- Node3 -->
<g id="node3" class="node"><title>Node3</title>
<g id="a_node3"><a xlink:href="_strings_8cpp.html" target="_top" xlink:title="Strings\\Strings.cpp">
<polygon fill="white" stroke="black" points="131,-0.5 131,-19.5 231,-19.5 231,-0.5 131,-0.5"/>
<text text-anchor="middle" x="181" y="-7.5" font-family="Helvetica,sans-Serif" font-size="10.00">Strings\Strings.cpp</text>
</a>
</g>
</g>
<!-- Node1&#45;&gt;Node3 -->
<g id="edge2" class="edge"><title>Node1&#45;&gt;Node3</title>
<path fill="none" stroke="midnightblue" d="M132.93,-56.7808C142.368,-47.7925 154.58,-36.162 164.333,-26.8731"/>
<polygon fill="midnightblue" stroke="midnightblue" points="167.005,-29.1616 171.833,-19.7305 162.178,-24.0926 167.005,-29.1616"/>
</g>
</g>
</svg>
