<?xml version="1.0" encoding="UTF-8" standalone="no"?>
<!DOCTYPE svg PUBLIC "-//W3C//DTD SVG 1.1//EN"
 "http://www.w3.org/Graphics/SVG/1.1/DTD/svg11.dtd">
<!-- Generated by graphviz version 2.36.0 (20140111.2315)
 -->
<!-- Title: KuszkAPI/Core/Threads.h Pages: 1 -->
<svg width="740pt" height="84pt"
 viewBox="0.00 0.00 740.00 84.00" xmlns="http://www.w3.org/2000/svg" xmlns:xlink="http://www.w3.org/1999/xlink">
<g id="graph0" class="graph" transform="scale(1 1) rotate(0) translate(4 80)">
<title>KuszkAPI/Core/Threads.h</title>
<polygon fill="white" stroke="none" points="-4,4 -4,-80 736,-80 736,4 -4,4"/>
<!-- Node1 -->
<g id="node1" class="node"><title>Node1</title>
<polygon fill="#bfbfbf" stroke="black" points="298.5,-56.5 298.5,-75.5 427.5,-75.5 427.5,-56.5 298.5,-56.5"/>
<text text-anchor="middle" x="363" y="-63.5" font-family="Helvetica,sans-Serif" font-size="10.00">KuszkAPI/Core/Threads.h</text>
</g>
<!-- Node2 -->
<g id="node2" class="node"><title>Node2</title>
<g id="a_node2"><a xlink:href="_core_2_threads_2_declarations_8h.html" target="_top" xlink:title="Threads\\Declarations.h">
<polygon fill="white" stroke="black" points="0,-0.5 0,-19.5 116,-19.5 116,-0.5 0,-0.5"/>
<text text-anchor="middle" x="58" y="-7.5" font-family="Helvetica,sans-Serif" font-size="10.00">Threads\Declarations.h</text>
</a>
</g>
</g>
<!-- Node1&#45;&gt;Node2 -->
<g id="edge1" class="edge"><title>Node1&#45;&gt;Node2</title>
<path fill="none" stroke="midnightblue" d="M314.672,-56.4435C260.796,-46.9049 173.693,-31.4834 116.136,-21.293"/>
<polygon fill="midnightblue" stroke="midnightblue" points="116.559,-17.8135 106.102,-19.5164 115.339,-24.7063 116.559,-17.8135"/>
</g>
<!-- Node3 -->
<g id="node3" class="node"><title>Node3</title>
<g id="a_node3"><a xlink:href="_thread_8cpp.html" target="_top" xlink:title="Threads\\Thread.cpp">
<polygon fill="white" stroke="black" points="134,-0.5 134,-19.5 236,-19.5 236,-0.5 134,-0.5"/>
<text text-anchor="middle" x="185" y="-7.5" font-family="Helvetica,sans-Serif" font-size="10.00">Threads\Thread.cpp</text>
</a>
</g>
</g>
<!-- Node1&#45;&gt;Node3 -->
<g id="edge2" class="edge"><title>Node1&#45;&gt;Node3</title>
<path fill="none" stroke="midnightblue" d="M334.795,-56.4435C304.59,-47.2801 256.489,-32.6876 222.971,-22.5192"/>
<polygon fill="midnightblue" stroke="midnightblue" points="223.658,-19.0703 213.073,-19.5164 221.626,-25.7688 223.658,-19.0703"/>
</g>
<!-- Node4 -->
<g id="node4" class="node"><title>Node4</title>
<g id="a_node4"><a xlink:href="_event_8cpp.html" target="_top" xlink:title="Threads\\Event.cpp">
<polygon fill="white" stroke="black" points="254.5,-0.5 254.5,-19.5 351.5,-19.5 351.5,-0.5 254.5,-0.5"/>
<text text-anchor="middle" x="303" y="-7.5" font-family="Helvetica,sans-Serif" font-size="10.00">Threads\Event.cpp</text>
</a>
</g>
</g>
<!-- Node1&#45;&gt;Node4 -->
<g id="edge3" class="edge"><title>Node1&#45;&gt;Node4</title>
<path fill="none" stroke="midnightblue" d="M353.36,-56.324C344.49,-48.3414 331.125,-36.3128 320.392,-26.6529"/>
<polygon fill="midnightblue" stroke="midnightblue" points="322.59,-23.922 312.815,-19.8339 317.907,-29.1251 322.59,-23.922"/>
</g>
<!-- Node5 -->
<g id="node5" class="node"><title>Node5</title>
<g id="a_node5"><a xlink:href="_section_8cpp.html" target="_top" xlink:title="Threads\\Section.cpp">
<polygon fill="white" stroke="black" points="370,-0.5 370,-19.5 476,-19.5 476,-0.5 370,-0.5"/>
<text text-anchor="middle" x="423" y="-7.5" font-family="Helvetica,sans-Serif" font-size="10.00">Threads\Section.cpp</text>
</a>
</g>
</g>
<!-- Node1&#45;&gt;Node5 -->
<g id="edge4" class="edge"><title>Node1&#45;&gt;Node5</title>
<path fill="none" stroke="midnightblue" d="M372.64,-56.324C381.51,-48.3414 394.875,-36.3128 405.608,-26.6529"/>
<polygon fill="midnightblue" stroke="midnightblue" points="408.093,-29.1251 413.185,-19.8339 403.41,-23.922 408.093,-29.1251"/>
</g>
<!-- Node6 -->
<g id="node6" class="node"><title>Node6</title>
<g id="a_node6"><a xlink:href="_process_8cpp.html" target="_top" xlink:title="Threads\\Process.cpp">
<polygon fill="white" stroke="black" points="494.5,-0.5 494.5,-19.5 603.5,-19.5 603.5,-0.5 494.5,-0.5"/>
<text text-anchor="middle" x="549" y="-7.5" font-family="Helvetica,sans-Serif" font-size="10.00">Threads\Process.cpp</text>
</a>
</g>
</g>
<!-- Node1&#45;&gt;Node6 -->
<g id="edge5" class="edge"><title>Node1&#45;&gt;Node6</title>
<path fill="none" stroke="midnightblue" d="M392.472,-56.4435C424.171,-47.2406 474.732,-32.5617 509.775,-22.3879"/>
<polygon fill="midnightblue" stroke="midnightblue" points="511.038,-25.6658 519.666,-19.5164 509.086,-18.9434 511.038,-25.6658"/>
</g>
<!-- Node7 -->
<g id="node7" class="node"><title>Node7</title>
<g id="a_node7"><a xlink:href="_instance_8cpp.html" target="_top" xlink:title="Threads\\Instance.cpp">
<polygon fill="white" stroke="black" points="622,-0.5 622,-19.5 732,-19.5 732,-0.5 622,-0.5"/>
<text text-anchor="middle" x="677" y="-7.5" font-family="Helvetica,sans-Serif" font-size="10.00">Threads\Instance.cpp</text>
</a>
</g>
</g>
<!-- Node1&#45;&gt;Node7 -->
<g id="edge6" class="edge"><title>Node1&#45;&gt;Node7</title>
<path fill="none" stroke="midnightblue" d="M412.754,-56.4435C468.335,-46.8851 558.264,-31.4195 617.516,-21.2298"/>
<polygon fill="midnightblue" stroke="midnightblue" points="618.216,-24.6607 627.479,-19.5164 617.03,-17.762 618.216,-24.6607"/>
</g>
</g>
</svg>
