<?xml version="1.0" encoding="UTF-8" standalone="no"?>
<!DOCTYPE svg PUBLIC "-//W3C//DTD SVG 1.1//EN"
 "http://www.w3.org/Graphics/SVG/1.1/DTD/svg11.dtd">
<!-- Generated by graphviz version 2.36.0 (20140111.2315)
 -->
<!-- Title: KuszkAPI/Time.h Pages: 1 -->
<svg width="426pt" height="141pt"
 viewBox="0.00 0.00 426.00 140.92" xmlns="http://www.w3.org/2000/svg" xmlns:xlink="http://www.w3.org/1999/xlink">
<g id="graph0" class="graph" transform="scale(1 1) rotate(0) translate(4 136.917)">
<title>KuszkAPI/Time.h</title>
<polygon fill="white" stroke="none" points="-4,4 -4,-136.917 422,-136.917 422,4 -4,4"/>
<!-- Node1 -->
<g id="node1" class="node"><title>Node1</title>
<polygon fill="#bfbfbf" stroke="black" points="169,-112.5 169,-131.5 261,-131.5 261,-112.5 169,-112.5"/>
<text text-anchor="middle" x="215" y="-119.5" font-family="Helvetica,sans-Serif" font-size="10.00">KuszkAPI/Time.h</text>
</g>
<!-- Node1&#45;&gt;Node1 -->
<g id="edge1" class="edge"><title>Node1&#45;&gt;Node1</title>
<path fill="none" stroke="midnightblue" d="M242.296,-131.525C260.843,-134.308 279,-131.133 279,-122 279,-114.58 267.014,-111.092 252.571,-111.538"/>
<polygon fill="midnightblue" stroke="midnightblue" points="251.937,-108.081 242.296,-112.475 252.573,-115.052 251.937,-108.081"/>
</g>
<!-- Node2 -->
<g id="node2" class="node"><title>Node2</title>
<g id="a_node2"><a xlink:href="_time_2_time_8h.html" target="_top" xlink:title="Time\\Time.h">
<polygon fill="white" stroke="black" points="126,-56.5 126,-75.5 196,-75.5 196,-56.5 126,-56.5"/>
<text text-anchor="middle" x="161" y="-63.5" font-family="Helvetica,sans-Serif" font-size="10.00">Time\Time.h</text>
</a>
</g>
</g>
<!-- Node1&#45;&gt;Node2 -->
<g id="edge2" class="edge"><title>Node1&#45;&gt;Node2</title>
<path fill="none" stroke="midnightblue" d="M206.083,-112.083C198.22,-104.22 186.569,-92.5688 177.081,-83.0813"/>
<polygon fill="midnightblue" stroke="midnightblue" points="179.297,-80.3473 169.751,-75.7511 174.347,-85.2971 179.297,-80.3473"/>
</g>
<!-- Node5 -->
<g id="node5" class="node"><title>Node5</title>
<g id="a_node5"><a xlink:href="_date_8h.html" target="_top" xlink:title="Time\\Date.h">
<polygon fill="white" stroke="black" points="235.5,-56.5 235.5,-75.5 304.5,-75.5 304.5,-56.5 235.5,-56.5"/>
<text text-anchor="middle" x="270" y="-63.5" font-family="Helvetica,sans-Serif" font-size="10.00">Time\Date.h</text>
</a>
</g>
</g>
<!-- Node1&#45;&gt;Node5 -->
<g id="edge5" class="edge"><title>Node1&#45;&gt;Node5</title>
<path fill="none" stroke="midnightblue" d="M224.082,-112.083C232.171,-104.141 244.195,-92.3354 253.91,-82.7973"/>
<polygon fill="midnightblue" stroke="midnightblue" points="256.403,-85.2545 261.087,-75.7511 251.499,-80.2595 256.403,-85.2545"/>
</g>
<!-- Node3 -->
<g id="node3" class="node"><title>Node3</title>
<g id="a_node3"><a xlink:href="_time_2_time_2_declarations_8h.html" target="_top" xlink:title="Time\\Declarations.h">
<polygon fill="white" stroke="black" points="-0.5,-0.5 -0.5,-19.5 102.5,-19.5 102.5,-0.5 -0.5,-0.5"/>
<text text-anchor="middle" x="51" y="-7.5" font-family="Helvetica,sans-Serif" font-size="10.00">Time\Declarations.h</text>
</a>
</g>
</g>
<!-- Node2&#45;&gt;Node3 -->
<g id="edge3" class="edge"><title>Node2&#45;&gt;Node3</title>
<path fill="none" stroke="midnightblue" d="M143.327,-56.324C125.606,-47.6247 98.0968,-34.1202 77.7116,-24.113"/>
<polygon fill="midnightblue" stroke="midnightblue" points="79.1486,-20.9195 68.6295,-19.6545 76.0639,-27.2031 79.1486,-20.9195"/>
</g>
<!-- Node4 -->
<g id="node4" class="node"><title>Node4</title>
<g id="a_node4"><a xlink:href="_time_8cpp.html" target="_top" xlink:title="Time\\Time.cpp">
<polygon fill="white" stroke="black" points="121,-0.5 121,-19.5 201,-19.5 201,-0.5 121,-0.5"/>
<text text-anchor="middle" x="161" y="-7.5" font-family="Helvetica,sans-Serif" font-size="10.00">Time\Time.cpp</text>
</a>
</g>
</g>
<!-- Node2&#45;&gt;Node4 -->
<g id="edge4" class="edge"><title>Node2&#45;&gt;Node4</title>
<path fill="none" stroke="midnightblue" d="M161,-56.083C161,-49.0059 161,-38.8611 161,-29.9865"/>
<polygon fill="midnightblue" stroke="midnightblue" points="164.5,-29.751 161,-19.7511 157.5,-29.7511 164.5,-29.751"/>
</g>
<!-- Node6 -->
<g id="node6" class="node"><title>Node6</title>
<g id="a_node6"><a xlink:href="_time_2_date_2_declarations_8h.html" target="_top" xlink:title="Date\\Declarations.h">
<polygon fill="white" stroke="black" points="219,-0.5 219,-19.5 321,-19.5 321,-0.5 219,-0.5"/>
<text text-anchor="middle" x="270" y="-7.5" font-family="Helvetica,sans-Serif" font-size="10.00">Date\Declarations.h</text>
</a>
</g>
</g>
<!-- Node5&#45;&gt;Node6 -->
<g id="edge6" class="edge"><title>Node5&#45;&gt;Node6</title>
<path fill="none" stroke="midnightblue" d="M270,-56.083C270,-49.0059 270,-38.8611 270,-29.9865"/>
<polygon fill="midnightblue" stroke="midnightblue" points="273.5,-29.751 270,-19.7511 266.5,-29.7511 273.5,-29.751"/>
</g>
<!-- Node7 -->
<g id="node7" class="node"><title>Node7</title>
<g id="a_node7"><a xlink:href="_date_8cpp.html" target="_top" xlink:title="Date\\Date.cpp">
<polygon fill="white" stroke="black" points="339.5,-0.5 339.5,-19.5 418.5,-19.5 418.5,-0.5 339.5,-0.5"/>
<text text-anchor="middle" x="379" y="-7.5" font-family="Helvetica,sans-Serif" font-size="10.00">Date\Date.cpp</text>
</a>
</g>
</g>
<!-- Node5&#45;&gt;Node7 -->
<g id="edge7" class="edge"><title>Node5&#45;&gt;Node7</title>
<path fill="none" stroke="midnightblue" d="M287.513,-56.324C305.072,-47.6247 332.331,-34.1202 352.531,-24.113"/>
<polygon fill="midnightblue" stroke="midnightblue" points="354.124,-27.23 361.531,-19.6545 351.016,-20.9575 354.124,-27.23"/>
</g>
</g>
</svg>
