<?xml version="1.0" encoding="UTF-8" standalone="no"?>
<!DOCTYPE svg PUBLIC "-//W3C//DTD SVG 1.1//EN"
 "http://www.w3.org/Graphics/SVG/1.1/DTD/svg11.dtd">
<!-- Generated by graphviz version 2.36.0 (20140111.2315)
 -->
<!-- Title: KuszkAPI/Time/Time.h Pages: 1 -->
<svg width="209pt" height="84pt"
 viewBox="0.00 0.00 209.00 84.00" xmlns="http://www.w3.org/2000/svg" xmlns:xlink="http://www.w3.org/1999/xlink">
<g id="graph0" class="graph" transform="scale(1 1) rotate(0) translate(4 80)">
<title>KuszkAPI/Time/Time.h</title>
<polygon fill="white" stroke="none" points="-4,4 -4,-80 205,-80 205,4 -4,4"/>
<!-- Node1 -->
<g id="node1" class="node"><title>Node1</title>
<polygon fill="#bfbfbf" stroke="black" points="48,-56.5 48,-75.5 164,-75.5 164,-56.5 48,-56.5"/>
<text text-anchor="middle" x="106" y="-63.5" font-family="Helvetica,sans-Serif" font-size="10.00">KuszkAPI/Time/Time.h</text>
</g>
<!-- Node2 -->
<g id="node2" class="node"><title>Node2</title>
<g id="a_node2"><a xlink:href="_time_2_time_2_declarations_8h.html" target="_top" xlink:title="Time\\Declarations.h">
<polygon fill="white" stroke="black" points="-0.5,-0.5 -0.5,-19.5 102.5,-19.5 102.5,-0.5 -0.5,-0.5"/>
<text text-anchor="middle" x="51" y="-7.5" font-family="Helvetica,sans-Serif" font-size="10.00">Time\Declarations.h</text>
</a>
</g>
</g>
<!-- Node1&#45;&gt;Node2 -->
<g id="edge1" class="edge"><title>Node1&#45;&gt;Node2</title>
<path fill="none" stroke="midnightblue" d="M96.9179,-56.083C88.8287,-48.1409 76.8046,-36.3354 67.0898,-26.7973"/>
<polygon fill="midnightblue" stroke="midnightblue" points="69.5009,-24.2595 59.9131,-19.7511 64.5967,-29.2545 69.5009,-24.2595"/>
</g>
<!-- Node3 -->
<g id="node3" class="node"><title>Node3</title>
<g id="a_node3"><a xlink:href="_time_8cpp.html" target="_top" xlink:title="Time\\Time.cpp">
<polygon fill="white" stroke="black" points="121,-0.5 121,-19.5 201,-19.5 201,-0.5 121,-0.5"/>
<text text-anchor="middle" x="161" y="-7.5" font-family="Helvetica,sans-Serif" font-size="10.00">Time\Time.cpp</text>
</a>
</g>
</g>
<!-- Node1&#45;&gt;Node3 -->
<g id="edge2" class="edge"><title>Node1&#45;&gt;Node3</title>
<path fill="none" stroke="midnightblue" d="M115.082,-56.083C123.171,-48.1409 135.195,-36.3354 144.91,-26.7973"/>
<polygon fill="midnightblue" stroke="midnightblue" points="147.403,-29.2545 152.087,-19.7511 142.499,-24.2595 147.403,-29.2545"/>
</g>
</g>
</svg>
