<?xml version="1.0" encoding="UTF-8" standalone="no"?>
<!DOCTYPE svg PUBLIC "-//W3C//DTD SVG 1.1//EN"
 "http://www.w3.org/Graphics/SVG/1.1/DTD/svg11.dtd">
<!-- Generated by graphviz version 2.36.0 (20140111.2315)
 -->
<!-- Title: KuszkAPI/Forms/Tools.h Pages: 1 -->
<svg width="879pt" height="84pt"
 viewBox="0.00 0.00 879.00 84.00" xmlns="http://www.w3.org/2000/svg" xmlns:xlink="http://www.w3.org/1999/xlink">
<g id="graph0" class="graph" transform="scale(1 1) rotate(0) translate(4 80)">
<title>KuszkAPI/Forms/Tools.h</title>
<polygon fill="white" stroke="none" points="-4,4 -4,-80 875,-80 875,4 -4,4"/>
<!-- Node1 -->
<g id="node1" class="node"><title>Node1</title>
<polygon fill="#bfbfbf" stroke="black" points="384.5,-56.5 384.5,-75.5 509.5,-75.5 509.5,-56.5 384.5,-56.5"/>
<text text-anchor="middle" x="447" y="-63.5" font-family="Helvetica,sans-Serif" font-size="10.00">KuszkAPI/Forms/Tools.h</text>
</g>
<!-- Node2 -->
<g id="node2" class="node"><title>Node2</title>
<g id="a_node2"><a xlink:href="_forms_2_tools_2_declarations_8h.html" target="_top" xlink:title="Tools\\Declarations.h">
<polygon fill="white" stroke="black" points="-0.5,-0.5 -0.5,-19.5 104.5,-19.5 104.5,-0.5 -0.5,-0.5"/>
<text text-anchor="middle" x="52" y="-7.5" font-family="Helvetica,sans-Serif" font-size="10.00">Tools\Declarations.h</text>
</a>
</g>
</g>
<!-- Node1&#45;&gt;Node2 -->
<g id="edge1" class="edge"><title>Node1&#45;&gt;Node2</title>
<path fill="none" stroke="midnightblue" d="M384.487,-56.8159C319.52,-48.2567 214.612,-34.2847 114.545,-20.2052"/>
<polygon fill="midnightblue" stroke="midnightblue" points="114.957,-16.7287 104.566,-18.7985 113.98,-23.6602 114.957,-16.7287"/>
</g>
<!-- Node3 -->
<g id="node3" class="node"><title>Node3</title>
<g id="a_node3"><a xlink:href="_gdi_object_8cpp.html" target="_top" xlink:title="Tools\\GdiObject.cpp">
<polygon fill="white" stroke="black" points="122.5,-0.5 122.5,-19.5 227.5,-19.5 227.5,-0.5 122.5,-0.5"/>
<text text-anchor="middle" x="175" y="-7.5" font-family="Helvetica,sans-Serif" font-size="10.00">Tools\GdiObject.cpp</text>
</a>
</g>
</g>
<!-- Node1&#45;&gt;Node3 -->
<g id="edge2" class="edge"><title>Node1&#45;&gt;Node3</title>
<path fill="none" stroke="midnightblue" d="M403.901,-56.4435C356.153,-46.9641 279.139,-31.6747 227.806,-21.4835"/>
<polygon fill="midnightblue" stroke="midnightblue" points="228.388,-18.0308 217.898,-19.5164 227.025,-24.8968 228.388,-18.0308"/>
</g>
<!-- Node4 -->
<g id="node4" class="node"><title>Node4</title>
<g id="a_node4"><a xlink:href="_bitmap_8cpp.html" target="_top" xlink:title="Tools\\Bitmap.cpp">
<polygon fill="white" stroke="black" points="246,-0.5 246,-19.5 338,-19.5 338,-0.5 246,-0.5"/>
<text text-anchor="middle" x="292" y="-7.5" font-family="Helvetica,sans-Serif" font-size="10.00">Tools\Bitmap.cpp</text>
</a>
</g>
</g>
<!-- Node1&#45;&gt;Node4 -->
<g id="edge3" class="edge"><title>Node1&#45;&gt;Node4</title>
<path fill="none" stroke="midnightblue" d="M422.44,-56.4435C396.477,-47.3986 355.332,-33.064 326.203,-22.9158"/>
<polygon fill="midnightblue" stroke="midnightblue" points="327.04,-19.5013 316.445,-19.5164 324.737,-26.1116 327.04,-19.5013"/>
</g>
<!-- Node5 -->
<g id="node5" class="node"><title>Node5</title>
<g id="a_node5"><a xlink:href="_icon_8cpp.html" target="_top" xlink:title="Tools\\Icon.cpp">
<polygon fill="white" stroke="black" points="356,-0.5 356,-19.5 436,-19.5 436,-0.5 356,-0.5"/>
<text text-anchor="middle" x="396" y="-7.5" font-family="Helvetica,sans-Serif" font-size="10.00">Tools\Icon.cpp</text>
</a>
</g>
</g>
<!-- Node1&#45;&gt;Node5 -->
<g id="edge4" class="edge"><title>Node1&#45;&gt;Node5</title>
<path fill="none" stroke="midnightblue" d="M438.578,-56.083C431.152,-48.2195 420.148,-36.5688 411.188,-27.0813"/>
<polygon fill="midnightblue" stroke="midnightblue" points="413.676,-24.618 404.265,-19.7511 408.587,-29.4244 413.676,-24.618"/>
</g>
<!-- Node6 -->
<g id="node6" class="node"><title>Node6</title>
<g id="a_node6"><a xlink:href="_cursor_8cpp.html" target="_top" xlink:title="Tools\\Cursor.cpp">
<polygon fill="white" stroke="black" points="454,-0.5 454,-19.5 544,-19.5 544,-0.5 454,-0.5"/>
<text text-anchor="middle" x="499" y="-7.5" font-family="Helvetica,sans-Serif" font-size="10.00">Tools\Cursor.cpp</text>
</a>
</g>
</g>
<!-- Node1&#45;&gt;Node6 -->
<g id="edge5" class="edge"><title>Node1&#45;&gt;Node6</title>
<path fill="none" stroke="midnightblue" d="M455.587,-56.083C463.159,-48.2195 474.378,-36.5688 483.514,-27.0813"/>
<polygon fill="midnightblue" stroke="midnightblue" points="486.158,-29.3821 490.573,-19.7511 481.115,-24.5266 486.158,-29.3821"/>
</g>
<!-- Node7 -->
<g id="node7" class="node"><title>Node7</title>
<g id="a_node7"><a xlink:href="_brush_8cpp.html" target="_top" xlink:title="Tools\\Brush.cpp">
<polygon fill="white" stroke="black" points="562.5,-0.5 562.5,-19.5 649.5,-19.5 649.5,-0.5 562.5,-0.5"/>
<text text-anchor="middle" x="606" y="-7.5" font-family="Helvetica,sans-Serif" font-size="10.00">Tools\Brush.cpp</text>
</a>
</g>
</g>
<!-- Node1&#45;&gt;Node7 -->
<g id="edge6" class="edge"><title>Node1&#45;&gt;Node7</title>
<path fill="none" stroke="midnightblue" d="M472.194,-56.4435C498.943,-47.3591 541.403,-32.9388 571.305,-22.7831"/>
<polygon fill="midnightblue" stroke="midnightblue" points="572.581,-26.0464 580.924,-19.5164 570.329,-19.4182 572.581,-26.0464"/>
</g>
<!-- Node8 -->
<g id="node8" class="node"><title>Node8</title>
<g id="a_node8"><a xlink:href="_region_8cpp.html" target="_top" xlink:title="Tools\\Region.cpp">
<polygon fill="white" stroke="black" points="668,-0.5 668,-19.5 760,-19.5 760,-0.5 668,-0.5"/>
<text text-anchor="middle" x="714" y="-7.5" font-family="Helvetica,sans-Serif" font-size="10.00">Tools\Region.cpp</text>
</a>
</g>
</g>
<!-- Node1&#45;&gt;Node8 -->
<g id="edge7" class="edge"><title>Node1&#45;&gt;Node8</title>
<path fill="none" stroke="midnightblue" d="M489.307,-56.4435C536.08,-46.9839 611.46,-31.7384 661.85,-21.5472"/>
<polygon fill="midnightblue" stroke="midnightblue" points="662.783,-24.9294 671.891,-19.5164 661.396,-18.0683 662.783,-24.9294"/>
</g>
<!-- Node9 -->
<g id="node9" class="node"><title>Node9</title>
<g id="a_node9"><a xlink:href="_images_8cpp.html" target="_top" xlink:title="Tools\\Images.cpp">
<polygon fill="white" stroke="black" points="778.5,-0.5 778.5,-19.5 871.5,-19.5 871.5,-0.5 778.5,-0.5"/>
<text text-anchor="middle" x="825" y="-7.5" font-family="Helvetica,sans-Serif" font-size="10.00">Tools\Images.cpp</text>
</a>
</g>
</g>
<!-- Node1&#45;&gt;Node9 -->
<g id="edge8" class="edge"><title>Node1&#45;&gt;Node9</title>
<path fill="none" stroke="midnightblue" d="M509.687,-56.6265C572.462,-48.1535 672.103,-34.4671 768.357,-20.0708"/>
<polygon fill="midnightblue" stroke="midnightblue" points="768.89,-23.53 778.26,-18.5852 767.852,-16.6075 768.89,-23.53"/>
</g>
</g>
</svg>
