<?xml version="1.0" encoding="UTF-8" standalone="no"?>
<!DOCTYPE svg PUBLIC "-//W3C//DTD SVG 1.1//EN"
 "http://www.w3.org/Graphics/SVG/1.1/DTD/svg11.dtd">
<!-- Generated by graphviz version 2.36.0 (20140111.2315)
 -->
<!-- Title: KuszkAPI/App/Types.h Pages: 1 -->
<svg width="344pt" height="84pt"
 viewBox="0.00 0.00 344.00 84.00" xmlns="http://www.w3.org/2000/svg" xmlns:xlink="http://www.w3.org/1999/xlink">
<g id="graph0" class="graph" transform="scale(1 1) rotate(0) translate(4 80)">
<title>KuszkAPI/App/Types.h</title>
<polygon fill="white" stroke="none" points="-4,4 -4,-80 340,-80 340,4 -4,4"/>
<!-- Node1 -->
<g id="node1" class="node"><title>Node1</title>
<polygon fill="#bfbfbf" stroke="black" points="117,-56.5 117,-75.5 235,-75.5 235,-56.5 117,-56.5"/>
<text text-anchor="middle" x="176" y="-63.5" font-family="Helvetica,sans-Serif" font-size="10.00">KuszkAPI/App/Types.h</text>
</g>
<!-- Node2 -->
<g id="node2" class="node"><title>Node2</title>
<g id="a_node2"><a xlink:href="_app_2_types_2_declarations_8h.html" target="_top" xlink:title="Deklaracje dla plików DllApp.cpp i WinApp.cpp. ">
<polygon fill="white" stroke="black" points="0,-0.5 0,-19.5 108,-19.5 108,-0.5 0,-0.5"/>
<text text-anchor="middle" x="54" y="-7.5" font-family="Helvetica,sans-Serif" font-size="10.00">Types\Declarations.h</text>
</a>
</g>
</g>
<!-- Node1&#45;&gt;Node2 -->
<g id="edge1" class="edge"><title>Node1&#45;&gt;Node2</title>
<path fill="none" stroke="midnightblue" d="M156.669,-56.4435C136.68,-47.5961 105.257,-33.6875 82.4361,-23.5865"/>
<polygon fill="midnightblue" stroke="midnightblue" points="83.8018,-20.3635 73.2408,-19.5164 80.9685,-26.7645 83.8018,-20.3635"/>
</g>
<!-- Node3 -->
<g id="node3" class="node"><title>Node3</title>
<g id="a_node3"><a xlink:href="_win_app_8cpp.html" target="_top" xlink:title="Zawiera implementacje klasy WinApp. ">
<polygon fill="white" stroke="black" points="126.5,-0.5 126.5,-19.5 225.5,-19.5 225.5,-0.5 126.5,-0.5"/>
<text text-anchor="middle" x="176" y="-7.5" font-family="Helvetica,sans-Serif" font-size="10.00">Types\WinApp.cpp</text>
</a>
</g>
</g>
<!-- Node1&#45;&gt;Node3 -->
<g id="edge2" class="edge"><title>Node1&#45;&gt;Node3</title>
<path fill="none" stroke="midnightblue" d="M176,-56.083C176,-49.0059 176,-38.8611 176,-29.9865"/>
<polygon fill="midnightblue" stroke="midnightblue" points="179.5,-29.751 176,-19.7511 172.5,-29.7511 179.5,-29.751"/>
</g>
<!-- Node4 -->
<g id="node4" class="node"><title>Node4</title>
<g id="a_node4"><a xlink:href="_dll_app_8cpp.html" target="_top" xlink:title="Zawiera implementacje klasy DllApp. ">
<polygon fill="white" stroke="black" points="243.5,-0.5 243.5,-19.5 336.5,-19.5 336.5,-0.5 243.5,-0.5"/>
<text text-anchor="middle" x="290" y="-7.5" font-family="Helvetica,sans-Serif" font-size="10.00">Types\DllApp.cpp</text>
</a>
</g>
</g>
<!-- Node1&#45;&gt;Node4 -->
<g id="edge3" class="edge"><title>Node1&#45;&gt;Node4</title>
<path fill="none" stroke="midnightblue" d="M194.064,-56.4435C212.575,-47.6751 241.581,-33.9355 262.855,-23.8579"/>
<polygon fill="midnightblue" stroke="midnightblue" points="264.482,-26.9604 272.021,-19.5164 261.485,-20.6343 264.482,-26.9604"/>
</g>
</g>
</svg>
