<?xml version="1.0" encoding="UTF-8" standalone="no"?>
<!DOCTYPE svg PUBLIC "-//W3C//DTD SVG 1.1//EN"
 "http://www.w3.org/Graphics/SVG/1.1/DTD/svg11.dtd">
<!-- Generated by graphviz version 2.36.0 (20140111.2315)
 -->
<!-- Title: KuszkAPI::Forms::ComboBox::Sort Pages: 1 -->
<svg width="456pt" height="185pt"
 viewBox="0.00 0.00 456.00 185.00" xmlns="http://www.w3.org/2000/svg" xmlns:xlink="http://www.w3.org/1999/xlink">
<g id="graph0" class="graph" transform="scale(1 1) rotate(0) translate(4 181)">
<title>KuszkAPI::Forms::ComboBox::Sort</title>
<polygon fill="white" stroke="none" points="-4,4 -4,-181 452,-181 452,4 -4,4"/>
<!-- Node1 -->
<g id="node1" class="node"><title>Node1</title>
<polygon fill="#bfbfbf" stroke="black" points="0,-48 0,-78 148,-78 148,-48 0,-48"/>
<text text-anchor="start" x="8" y="-66" font-family="Helvetica,sans-Serif" font-size="10.00">KuszkAPI::Forms::ComboBox</text>
<text text-anchor="middle" x="74" y="-55" font-family="Helvetica,sans-Serif" font-size="10.00">::Sort</text>
</g>
<!-- Node2 -->
<g id="node2" class="node"><title>Node2</title>
<g id="a_node2"><a xlink:href="class_kuszk_a_p_i_1_1_containers_1_1_strings.html#aae1e705132390add4e0b03ff36ffb094" target="_top" xlink:title="KuszkAPI::Containers\l::Strings::Add">
<polygon fill="white" stroke="black" points="184.5,-73 184.5,-103 297.5,-103 297.5,-73 184.5,-73"/>
<text text-anchor="start" x="192.5" y="-91" font-family="Helvetica,sans-Serif" font-size="10.00">KuszkAPI::Containers</text>
<text text-anchor="middle" x="241" y="-80" font-family="Helvetica,sans-Serif" font-size="10.00">::Strings::Add</text>
</a>
</g>
</g>
<!-- Node1&#45;&gt;Node2 -->
<g id="edge1" class="edge"><title>Node1&#45;&gt;Node2</title>
<path fill="none" stroke="midnightblue" d="M148.332,-74.111C156.993,-75.4232 165.79,-76.7561 174.336,-78.0509"/>
<polygon fill="midnightblue" stroke="midnightblue" points="173.817,-81.5121 184.228,-79.5498 174.866,-74.5911 173.817,-81.5121"/>
</g>
<!-- Node7 -->
<g id="node7" class="node"><title>Node7</title>
<g id="a_node7"><a xlink:href="class_kuszk_a_p_i_1_1_containers_1_1_strings.html#a68d7e350d2f7209fa3acf597ee8089a8" target="_top" xlink:title="KuszkAPI::Containers\l::Strings::Sort">
<polygon fill="white" stroke="black" points="184.5,-24 184.5,-54 297.5,-54 297.5,-24 184.5,-24"/>
<text text-anchor="start" x="192.5" y="-42" font-family="Helvetica,sans-Serif" font-size="10.00">KuszkAPI::Containers</text>
<text text-anchor="middle" x="241" y="-31" font-family="Helvetica,sans-Serif" font-size="10.00">::Strings::Sort</text>
</a>
</g>
</g>
<!-- Node1&#45;&gt;Node7 -->
<g id="edge6" class="edge"><title>Node1&#45;&gt;Node7</title>
<path fill="none" stroke="midnightblue" d="M148.332,-52.3335C156.899,-51.0874 165.599,-49.822 174.057,-48.5917"/>
<polygon fill="midnightblue" stroke="midnightblue" points="174.836,-52.0153 184.228,-47.1122 173.829,-45.0882 174.836,-52.0153"/>
</g>
<!-- Node3 -->
<g id="node3" class="node"><title>Node3</title>
<g id="a_node3"><a xlink:href="class_kuszk_a_p_i_1_1_containers_1_1_string.html#afd694656c3c52b347d6b965e2f5afb6a" target="_top" xlink:title="KuszkAPI::Containers\l::String::Capacity">
<polygon fill="white" stroke="black" points="334.5,-147 334.5,-177 447.5,-177 447.5,-147 334.5,-147"/>
<text text-anchor="start" x="342.5" y="-165" font-family="Helvetica,sans-Serif" font-size="10.00">KuszkAPI::Containers</text>
<text text-anchor="middle" x="391" y="-154" font-family="Helvetica,sans-Serif" font-size="10.00">::String::Capacity</text>
</a>
</g>
</g>
<!-- Node2&#45;&gt;Node3 -->
<g id="edge2" class="edge"><title>Node2&#45;&gt;Node3</title>
<path fill="none" stroke="midnightblue" d="M269.118,-103.082C287.306,-113.039 311.889,-126.192 334,-137 337.82,-138.867 341.811,-140.76 345.827,-142.626"/>
<polygon fill="midnightblue" stroke="midnightblue" points="344.624,-145.924 355.173,-146.903 347.537,-139.559 344.624,-145.924"/>
</g>
<!-- Node4 -->
<g id="node4" class="node"><title>Node4</title>
<g id="a_node4"><a xlink:href="class_kuszk_a_p_i_1_1_containers_1_1_string.html#a455584fed5c105b9d00ecaf985116d63" target="_top" xlink:title="KuszkAPI::Containers\l::String::Find">
<polygon fill="white" stroke="black" points="334.5,-98 334.5,-128 447.5,-128 447.5,-98 334.5,-98"/>
<text text-anchor="start" x="342.5" y="-116" font-family="Helvetica,sans-Serif" font-size="10.00">KuszkAPI::Containers</text>
<text text-anchor="middle" x="391" y="-105" font-family="Helvetica,sans-Serif" font-size="10.00">::String::Find</text>
</a>
</g>
</g>
<!-- Node2&#45;&gt;Node4 -->
<g id="edge3" class="edge"><title>Node2&#45;&gt;Node4</title>
<path fill="none" stroke="midnightblue" d="M297.531,-97.3802C306.232,-98.8499 315.296,-100.381 324.201,-101.885"/>
<polygon fill="midnightblue" stroke="midnightblue" points="323.715,-105.353 334.158,-103.567 324.881,-98.4504 323.715,-105.353"/>
</g>
<!-- Node5 -->
<g id="node5" class="node"><title>Node5</title>
<g id="a_node5"><a xlink:href="class_kuszk_a_p_i_1_1_containers_1_1_string.html#a8ca4879ad62f0f4521b7e13eaa711c2c" target="_top" xlink:title="KuszkAPI::Containers\l::String::GetData">
<polygon fill="white" stroke="black" points="334.5,-49 334.5,-79 447.5,-79 447.5,-49 334.5,-49"/>
<text text-anchor="start" x="342.5" y="-67" font-family="Helvetica,sans-Serif" font-size="10.00">KuszkAPI::Containers</text>
<text text-anchor="middle" x="391" y="-56" font-family="Helvetica,sans-Serif" font-size="10.00">::String::GetData</text>
</a>
</g>
</g>
<!-- Node2&#45;&gt;Node5 -->
<g id="edge4" class="edge"><title>Node2&#45;&gt;Node5</title>
<path fill="none" stroke="midnightblue" d="M297.531,-78.995C306.232,-77.5841 315.296,-76.1141 324.201,-74.6702"/>
<polygon fill="midnightblue" stroke="midnightblue" points="324.847,-78.1111 334.158,-73.0555 323.727,-71.2014 324.847,-78.1111"/>
</g>
<!-- Node6 -->
<g id="node6" class="node"><title>Node6</title>
<g id="a_node6"><a xlink:href="class_kuszk_a_p_i_1_1_containers_1_1_string.html#a34b2866bd4044c00ffafc482d5e44a54" target="_top" xlink:title="KuszkAPI::Containers\l::String::Part">
<polygon fill="white" stroke="black" points="334.5,-0 334.5,-30 447.5,-30 447.5,-0 334.5,-0"/>
<text text-anchor="start" x="342.5" y="-18" font-family="Helvetica,sans-Serif" font-size="10.00">KuszkAPI::Containers</text>
<text text-anchor="middle" x="391" y="-7" font-family="Helvetica,sans-Serif" font-size="10.00">::String::Part</text>
</a>
</g>
</g>
<!-- Node2&#45;&gt;Node6 -->
<g id="edge5" class="edge"><title>Node2&#45;&gt;Node6</title>
<path fill="none" stroke="midnightblue" d="M277.933,-72.9108C284.687,-69.8078 291.626,-66.4341 298,-63 314.715,-53.9941 317.285,-49.0059 334,-40 337.486,-38.122 341.14,-36.262 344.841,-34.4545"/>
<polygon fill="midnightblue" stroke="midnightblue" points="346.525,-37.5301 354.067,-30.0892 343.53,-31.2027 346.525,-37.5301"/>
</g>
</g>
</svg>
