<?xml version="1.0" encoding="UTF-8" standalone="no"?>
<!DOCTYPE svg PUBLIC "-//W3C//DTD SVG 1.1//EN"
 "http://www.w3.org/Graphics/SVG/1.1/DTD/svg11.dtd">
<!-- Generated by graphviz version 2.36.0 (20140111.2315)
 -->
<!-- Title: KuszkAPI::Forms::Control Pages: 1 -->
<!--zoomable 306 -->
<svg id="main" version="1.1" xmlns="http://www.w3.org/2000/svg" xmlns:xlink="http://www.w3.org/1999/xlink" xml:space="preserve" onload="init(evt)">
<style type="text/css"><![CDATA[
.edge:hover path { stroke: red; }
.edge:hover polygon { stroke: red; fill: red; }
]]></style>
<script type="text/javascript"><![CDATA[
var edges = document.getElementsByTagName('g');
if (edges && edges.length) {
  for (var i=0;i<edges.length;i++) {
    if (edges[i].id.substr(0,4)=='edge') {
      edges[i].setAttribute('class','edge');
    }
  }
}
]]></script>
        <defs>
                <circle id="rim" cx="0" cy="0" r="7"/>
                <circle id="rim2" cx="0" cy="0" r="3.5"/>
                <g id="zoomPlus">
                        <use xlink:href="#rim" fill="#404040">
                                <set attributeName="fill" to="#808080" begin="zoomplus.mouseover" end="zoomplus.mouseout"/>
                        </use>
                        <path d="M-4,0h8M0,-4v8" fill="none" stroke="white" stroke-width="1.5" pointer-events="none"/>
                </g>
                <g id="zoomMin">
                        <use xlink:href="#rim" fill="#404040">
                                <set attributeName="fill" to="#808080" begin="zoomminus.mouseover" end="zoomminus.mouseout"/>
                        </use>
                        <path d="M-4,0h8" fill="none" stroke="white" stroke-width="1.5" pointer-events="none"/>
                </g>
                <g id="dirArrow">
                        <path fill="none" stroke="white" stroke-width="1.5" d="M0,-3.0v7 M-2.5,-0.5L0,-3.0L2.5,-0.5"/>
                </g>
               <g id="resetDef">
                       <use xlink:href="#rim2" fill="#404040">
                               <set attributeName="fill" to="#808080" begin="reset.mouseover" end="reset.mouseout"/>
                       </use>
               </g>
        </defs>

<script type="text/javascript">
var viewWidth = 864;
var viewHeight = 306;
var sectionId = 'dynsection-0';
</script>
<script xlink:href="svgpan.js"/>
<svg id="graph" class="graph">
<g id="viewport">
<title>KuszkAPI::Forms::Control</title>
<polygon fill="white" stroke="none" points="-4,4 -4,-302 860,-302 860,4 -4,4"/>
<!-- Node1 -->
<g id="node1" class="node"><title>Node1</title>
<polygon fill="#bfbfbf" stroke="black" points="170.5,-183.5 170.5,-202.5 301.5,-202.5 301.5,-183.5 170.5,-183.5"/>
<text text-anchor="middle" x="236" y="-190.5" font-family="Helvetica,sans-Serif" font-size="10.00">KuszkAPI::Forms::Control</text>
</g>
<!-- Node3 -->
<g id="node3" class="node"><title>Node3</title>
<g id="a_node3"><a xlink:href="class_kuszk_a_p_i_1_1_forms_1_1_date_control.html" target="_top" xlink:title="KuszkAPI::Forms::DateControl">
<polygon fill="white" stroke="black" points="338.5,-259.5 338.5,-278.5 489.5,-278.5 489.5,-259.5 338.5,-259.5"/>
<text text-anchor="middle" x="414" y="-266.5" font-family="Helvetica,sans-Serif" font-size="10.00">KuszkAPI::Forms::DateControl</text>
</a>
</g>
</g>
<!-- Node1&#45;&gt;Node3 -->
<g id="edge2" class="edge"><title>Node1&#45;&gt;Node3</title>
<path fill="none" stroke="midnightblue" d="M268.648,-206.666C303.921,-221.898 360.044,-246.133 390.89,-259.453"/>
<polygon fill="midnightblue" stroke="midnightblue" points="269.859,-203.377 259.291,-202.625 267.084,-209.803 269.859,-203.377"/>
</g>
<!-- Node5 -->
<g id="node5" class="node"><title>Node5</title>
<g id="a_node5"><a xlink:href="class_kuszk_a_p_i_1_1_forms_1_1_list_control.html" target="_top" xlink:title="KuszkAPI::Forms::ListControl">
<polygon fill="white" stroke="black" points="341,-202.5 341,-221.5 487,-221.5 487,-202.5 341,-202.5"/>
<text text-anchor="middle" x="414" y="-209.5" font-family="Helvetica,sans-Serif" font-size="10.00">KuszkAPI::Forms::ListControl</text>
</a>
</g>
</g>
<!-- Node1&#45;&gt;Node5 -->
<g id="edge4" class="edge"><title>Node1&#45;&gt;Node5</title>
<path fill="none" stroke="midnightblue" d="M311.522,-201.045C321.201,-202.09 331.102,-203.159 340.743,-204.2"/>
<polygon fill="midnightblue" stroke="midnightblue" points="311.854,-197.561 301.537,-199.967 311.103,-204.52 311.854,-197.561"/>
</g>
<!-- Node9 -->
<g id="node9" class="node"><title>Node9</title>
<g id="a_node9"><a xlink:href="class_kuszk_a_p_i_1_1_forms_1_1_tab_box.html" target="_top" xlink:title="KuszkAPI::Forms::TabBox">
<polygon fill="white" stroke="black" points="347.5,-164.5 347.5,-183.5 480.5,-183.5 480.5,-164.5 347.5,-164.5"/>
<text text-anchor="middle" x="414" y="-171.5" font-family="Helvetica,sans-Serif" font-size="10.00">KuszkAPI::Forms::TabBox</text>
</a>
</g>
</g>
<!-- Node1&#45;&gt;Node9 -->
<g id="edge8" class="edge"><title>Node1&#45;&gt;Node9</title>
<path fill="none" stroke="midnightblue" d="M311.799,-184.925C323.598,-183.651 335.72,-182.343 347.292,-181.093"/>
<polygon fill="midnightblue" stroke="midnightblue" points="311.103,-181.48 301.537,-186.033 311.854,-188.439 311.103,-181.48"/>
</g>
<!-- Node10 -->
<g id="node10" class="node"><title>Node10</title>
<g id="a_node10"><a xlink:href="class_kuszk_a_p_i_1_1_forms_1_1_text_control.html" target="_top" xlink:title="KuszkAPI::Forms::TextControl">
<polygon fill="white" stroke="black" points="339.5,-82.5 339.5,-101.5 488.5,-101.5 488.5,-82.5 339.5,-82.5"/>
<text text-anchor="middle" x="414" y="-89.5" font-family="Helvetica,sans-Serif" font-size="10.00">KuszkAPI::Forms::TextControl</text>
</a>
</g>
</g>
<!-- Node1&#45;&gt;Node10 -->
<g id="edge9" class="edge"><title>Node1&#45;&gt;Node10</title>
<path fill="none" stroke="midnightblue" d="M262.616,-178.3C299.229,-157.289 365.501,-119.258 396.358,-101.55"/>
<polygon fill="midnightblue" stroke="midnightblue" points="260.489,-175.485 253.558,-183.498 263.973,-181.556 260.489,-175.485"/>
</g>
<!-- Node2 -->
<g id="node2" class="node"><title>Node2</title>
<g id="a_node2"><a xlink:href="class_kuszk_a_p_i_1_1_forms_1_1_window.html" target="_top" xlink:title="KuszkAPI::Forms::Window">
<polygon fill="white" stroke="black" points="0,-183.5 0,-202.5 134,-202.5 134,-183.5 0,-183.5"/>
<text text-anchor="middle" x="67" y="-190.5" font-family="Helvetica,sans-Serif" font-size="10.00">KuszkAPI::Forms::Window</text>
</a>
</g>
</g>
<!-- Node2&#45;&gt;Node1 -->
<g id="edge1" class="edge"><title>Node2&#45;&gt;Node1</title>
<path fill="none" stroke="midnightblue" d="M144.176,-193C152.903,-193 161.738,-193 170.295,-193"/>
<polygon fill="midnightblue" stroke="midnightblue" points="144.003,-189.5 134.003,-193 144.003,-196.5 144.003,-189.5"/>
</g>
<!-- Node4 -->
<g id="node4" class="node"><title>Node4</title>
<g id="a_node4"><a xlink:href="class_kuszk_a_p_i_1_1_forms_1_1_calendar.html" target="_top" xlink:title="KuszkAPI::Forms::Calendar">
<polygon fill="white" stroke="black" points="531,-278.5 531,-297.5 669,-297.5 669,-278.5 531,-278.5"/>
<text text-anchor="middle" x="600" y="-285.5" font-family="Helvetica,sans-Serif" font-size="10.00">KuszkAPI::Forms::Calendar</text>
</a>
</g>
</g>
<!-- Node3&#45;&gt;Node4 -->
<g id="edge3" class="edge"><title>Node3&#45;&gt;Node4</title>
<path fill="none" stroke="midnightblue" d="M499.566,-277.732C510.047,-278.815 520.658,-279.91 530.849,-280.963"/>
<polygon fill="midnightblue" stroke="midnightblue" points="499.881,-274.246 489.575,-276.701 499.162,-281.209 499.881,-274.246"/>
</g>
<!-- Node6 -->
<g id="node6" class="node"><title>Node6</title>
<g id="a_node6"><a xlink:href="class_kuszk_a_p_i_1_1_forms_1_1_combo_box.html" target="_top" xlink:title="KuszkAPI::Forms::ComboBox">
<polygon fill="white" stroke="black" points="526,-240.5 526,-259.5 674,-259.5 674,-240.5 526,-240.5"/>
<text text-anchor="middle" x="600" y="-247.5" font-family="Helvetica,sans-Serif" font-size="10.00">KuszkAPI::Forms::ComboBox</text>
</a>
</g>
</g>
<!-- Node5&#45;&gt;Node6 -->
<g id="edge5" class="edge"><title>Node5&#45;&gt;Node6</title>
<path fill="none" stroke="midnightblue" d="M471.561,-223.681C497.654,-229.07 528.238,-235.386 552.903,-240.48"/>
<polygon fill="midnightblue" stroke="midnightblue" points="471.932,-220.184 461.431,-221.589 470.516,-227.039 471.932,-220.184"/>
</g>
<!-- Node7 -->
<g id="node7" class="node"><title>Node7</title>
<g id="a_node7"><a xlink:href="class_kuszk_a_p_i_1_1_forms_1_1_list_box.html" target="_top" xlink:title="KuszkAPI::Forms::ListBox">
<polygon fill="white" stroke="black" points="533.5,-202.5 533.5,-221.5 666.5,-221.5 666.5,-202.5 533.5,-202.5"/>
<text text-anchor="middle" x="600" y="-209.5" font-family="Helvetica,sans-Serif" font-size="10.00">KuszkAPI::Forms::ListBox</text>
</a>
</g>
</g>
<!-- Node5&#45;&gt;Node7 -->
<g id="edge6" class="edge"><title>Node5&#45;&gt;Node7</title>
<path fill="none" stroke="midnightblue" d="M497.261,-212C509.331,-212 521.627,-212 533.305,-212"/>
<polygon fill="midnightblue" stroke="midnightblue" points="497.194,-208.5 487.194,-212 497.194,-215.5 497.194,-208.5"/>
</g>
<!-- Node8 -->
<g id="node8" class="node"><title>Node8</title>
<g id="a_node8"><a xlink:href="class_kuszk_a_p_i_1_1_forms_1_1_table_box.html" target="_top" xlink:title="KuszkAPI::Forms::TableBox">
<polygon fill="white" stroke="black" points="530,-164.5 530,-183.5 670,-183.5 670,-164.5 530,-164.5"/>
<text text-anchor="middle" x="600" y="-171.5" font-family="Helvetica,sans-Serif" font-size="10.00">KuszkAPI::Forms::TableBox</text>
</a>
</g>
</g>
<!-- Node5&#45;&gt;Node8 -->
<g id="edge7" class="edge"><title>Node5&#45;&gt;Node8</title>
<path fill="none" stroke="midnightblue" d="M471.561,-200.319C497.654,-194.93 528.238,-188.614 552.903,-183.52"/>
<polygon fill="midnightblue" stroke="midnightblue" points="470.516,-196.961 461.431,-202.411 471.932,-203.816 470.516,-196.961"/>
</g>
<!-- Node11 -->
<g id="node11" class="node"><title>Node11</title>
<g id="a_node11"><a xlink:href="class_kuszk_a_p_i_1_1_forms_1_1_button.html" target="_top" xlink:title="KuszkAPI::Forms::Button">
<polygon fill="white" stroke="black" points="536,-126.5 536,-145.5 664,-145.5 664,-126.5 536,-126.5"/>
<text text-anchor="middle" x="600" y="-133.5" font-family="Helvetica,sans-Serif" font-size="10.00">KuszkAPI::Forms::Button</text>
</a>
</g>
</g>
<!-- Node10&#45;&gt;Node11 -->
<g id="edge10" class="edge"><title>Node10&#45;&gt;Node11</title>
<path fill="none" stroke="midnightblue" d="M464.665,-103.876C494.305,-110.964 531.442,-119.845 559.153,-126.471"/>
<polygon fill="midnightblue" stroke="midnightblue" points="465.465,-100.469 454.925,-101.547 463.837,-107.277 465.465,-100.469"/>
</g>
<!-- Node12 -->
<g id="node12" class="node"><title>Node12</title>
<g id="a_node12"><a xlink:href="class_kuszk_a_p_i_1_1_forms_1_1_check_box_control.html" target="_top" xlink:title="KuszkAPI::Forms::CheckBox\lControl">
<polygon fill="white" stroke="black" points="527.5,-77 527.5,-107 672.5,-107 672.5,-77 527.5,-77"/>
<text text-anchor="start" x="535.5" y="-95" font-family="Helvetica,sans-Serif" font-size="10.00">KuszkAPI::Forms::CheckBox</text>
<text text-anchor="middle" x="600" y="-84" font-family="Helvetica,sans-Serif" font-size="10.00">Control</text>
</a>
</g>
</g>
<!-- Node10&#45;&gt;Node12 -->
<g id="edge11" class="edge"><title>Node10&#45;&gt;Node12</title>
<path fill="none" stroke="midnightblue" d="M498.811,-92C508.361,-92 518.029,-92 527.4,-92"/>
<polygon fill="midnightblue" stroke="midnightblue" points="498.515,-88.5001 488.515,-92 498.515,-95.5001 498.515,-88.5001"/>
</g>
<!-- Node15 -->
<g id="node15" class="node"><title>Node15</title>
<g id="a_node15"><a xlink:href="class_kuszk_a_p_i_1_1_forms_1_1_edit_box.html" target="_top" xlink:title="KuszkAPI::Forms::EditBox">
<polygon fill="white" stroke="black" points="533,-38.5 533,-57.5 667,-57.5 667,-38.5 533,-38.5"/>
<text text-anchor="middle" x="600" y="-45.5" font-family="Helvetica,sans-Serif" font-size="10.00">KuszkAPI::Forms::EditBox</text>
</a>
</g>
</g>
<!-- Node10&#45;&gt;Node15 -->
<g id="edge14" class="edge"><title>Node10&#45;&gt;Node15</title>
<path fill="none" stroke="midnightblue" d="M464.665,-80.1236C494.305,-73.0358 531.442,-64.1552 559.153,-57.5287"/>
<polygon fill="midnightblue" stroke="midnightblue" points="463.837,-76.7228 454.925,-82.4527 465.465,-83.5309 463.837,-76.7228"/>
</g>
<!-- Node16 -->
<g id="node16" class="node"><title>Node16</title>
<g id="a_node16"><a xlink:href="class_kuszk_a_p_i_1_1_forms_1_1_label.html" target="_top" xlink:title="KuszkAPI::Forms::Label">
<polygon fill="white" stroke="black" points="538.5,-0.5 538.5,-19.5 661.5,-19.5 661.5,-0.5 538.5,-0.5"/>
<text text-anchor="middle" x="600" y="-7.5" font-family="Helvetica,sans-Serif" font-size="10.00">KuszkAPI::Forms::Label</text>
</a>
</g>
</g>
<!-- Node10&#45;&gt;Node16 -->
<g id="edge15" class="edge"><title>Node10&#45;&gt;Node16</title>
<path fill="none" stroke="midnightblue" d="M437.655,-76.7889C459.483,-62.712 493.841,-42.0477 526,-29 535.101,-25.3074 545.135,-22.1477 554.775,-19.5255"/>
<polygon fill="midnightblue" stroke="midnightblue" points="435.564,-73.9745 429.11,-82.3771 439.395,-79.8329 435.564,-73.9745"/>
</g>
<!-- Node13 -->
<g id="node13" class="node"><title>Node13</title>
<g id="a_node13"><a xlink:href="class_kuszk_a_p_i_1_1_forms_1_1_check_box.html" target="_top" xlink:title="KuszkAPI::Forms::CheckBox">
<polygon fill="white" stroke="black" points="710.5,-101.5 710.5,-120.5 855.5,-120.5 855.5,-101.5 710.5,-101.5"/>
<text text-anchor="middle" x="783" y="-108.5" font-family="Helvetica,sans-Serif" font-size="10.00">KuszkAPI::Forms::CheckBox</text>
</a>
</g>
</g>
<!-- Node12&#45;&gt;Node13 -->
<g id="edge12" class="edge"><title>Node12&#45;&gt;Node13</title>
<path fill="none" stroke="midnightblue" d="M682.545,-100.56C691.832,-101.535 701.246,-102.523 710.391,-103.483"/>
<polygon fill="midnightblue" stroke="midnightblue" points="682.847,-97.0725 672.536,-99.5093 682.116,-104.034 682.847,-97.0725"/>
</g>
<!-- Node14 -->
<g id="node14" class="node"><title>Node14</title>
<g id="a_node14"><a xlink:href="class_kuszk_a_p_i_1_1_forms_1_1_radio_box.html" target="_top" xlink:title="KuszkAPI::Forms::RadioBox">
<polygon fill="white" stroke="black" points="712,-63.5 712,-82.5 854,-82.5 854,-63.5 712,-63.5"/>
<text text-anchor="middle" x="783" y="-70.5" font-family="Helvetica,sans-Serif" font-size="10.00">KuszkAPI::Forms::RadioBox</text>
</a>
</g>
</g>
<!-- Node12&#45;&gt;Node14 -->
<g id="edge13" class="edge"><title>Node12&#45;&gt;Node14</title>
<path fill="none" stroke="midnightblue" d="M682.637,-83.4304C692.396,-82.406 702.294,-81.3669 711.871,-80.3616"/>
<polygon fill="midnightblue" stroke="midnightblue" points="682.116,-79.9657 672.536,-84.4907 682.847,-86.9275 682.116,-79.9657"/>
</g>
</g>
</svg>
        <g id="navigator" transform="translate(0 0)" fill="#404254">
                <rect fill="#f2f5e9" fill-opacity="0.5" stroke="#606060" stroke-width=".5" x="0" y="0" width="60" height="60"/>
                <use id="zoomplus" xlink:href="#zoomPlus" x="17" y="9" onmousedown="handleZoom(evt,'in')"/>
                <use id="zoomminus" xlink:href="#zoomMin" x="42" y="9" onmousedown="handleZoom(evt,'out')"/>
                <use id="reset" xlink:href="#resetDef" x="30" y="36" onmousedown="handleReset()"/>
                <g id="arrowUp" xlink:href="#dirArrow" transform="translate(30 24)" onmousedown="handlePan(0,-1)">
                  <use xlink:href="#rim" fill="#404040">
                        <set attributeName="fill" to="#808080" begin="arrowUp.mouseover" end="arrowUp.mouseout"/>
                  </use>
                  <path fill="none" stroke="white" stroke-width="1.5" d="M0,-3.0v7 M-2.5,-0.5L0,-3.0L2.5,-0.5"/>
                </g>
                <g id="arrowRight" xlink:href="#dirArrow" transform="rotate(90) translate(36 -43)" onmousedown="handlePan(1,0)">
                  <use xlink:href="#rim" fill="#404040">
                        <set attributeName="fill" to="#808080" begin="arrowRight.mouseover" end="arrowRight.mouseout"/>
                  </use>
                  <path fill="none" stroke="white" stroke-width="1.5" d="M0,-3.0v7 M-2.5,-0.5L0,-3.0L2.5,-0.5"/>
                </g>
                <g id="arrowDown" xlink:href="#dirArrow" transform="rotate(180) translate(-30 -48)" onmousedown="handlePan(0,1)">
                  <use xlink:href="#rim" fill="#404040">
                        <set attributeName="fill" to="#808080" begin="arrowDown.mouseover" end="arrowDown.mouseout"/>
                  </use>
                  <path fill="none" stroke="white" stroke-width="1.5" d="M0,-3.0v7 M-2.5,-0.5L0,-3.0L2.5,-0.5"/>
                </g>
                <g id="arrowLeft" xlink:href="#dirArrow" transform="rotate(270) translate(-36 17)" onmousedown="handlePan(-1,0)">
                  <use xlink:href="#rim" fill="#404040">
                        <set attributeName="fill" to="#808080" begin="arrowLeft.mouseover" end="arrowLeft.mouseout"/>
                  </use>
                  <path fill="none" stroke="white" stroke-width="1.5" d="M0,-3.0v7 M-2.5,-0.5L0,-3.0L2.5,-0.5"/>
                </g>
        </g>
        <svg viewBox="0 0 15 15" width="100%" height="30px" preserveAspectRatio="xMaxYMin meet">
         <g id="arrow_out" transform="scale(0.3 0.3)">
          <a xlink:href="class_kuszk_a_p_i_1_1_forms_1_1_control__inherit__graph_org.svg" target="_base">
           <rect id="button" ry="5" rx="5" y="6" x="6" height="38" width="38"
                fill="#f2f5e9" fill-opacity="0.5" stroke="#606060" stroke-width="1.0"/>
           <path id="arrow"
             d="M 11.500037,31.436501 C 11.940474,20.09759 22.043105,11.32322 32.158766,21.979434 L 37.068811,17.246167 C 37.068811,17.246167 37.088388,32 37.088388,32 L 22.160133,31.978069 C 22.160133,31.978069 26.997745,27.140456 26.997745,27.140456 C 18.528582,18.264221 13.291696,25.230495 11.500037,31.436501 z"
             style="fill:#404040;"/>
          </a>
         </g>
        </svg>
</svg>
