<?xml version="1.0" encoding="UTF-8" standalone="no"?>
<!DOCTYPE svg PUBLIC "-//W3C//DTD SVG 1.1//EN"
 "http://www.w3.org/Graphics/SVG/1.1/DTD/svg11.dtd">
<!-- Generated by graphviz version 2.36.0 (20140111.2315)
 -->
<!-- Title: KuszkAPI::Forms::GdiObject&lt; tnData &gt; Pages: 1 -->
<svg width="150pt" height="108pt"
 viewBox="0.00 0.00 150.00 108.00" xmlns="http://www.w3.org/2000/svg" xmlns:xlink="http://www.w3.org/1999/xlink">
<g id="graph0" class="graph" transform="scale(1 1) rotate(0) translate(4 104)">
<title>KuszkAPI::Forms::GdiObject&lt; tnData &gt;</title>
<polygon fill="white" stroke="none" points="-4,4 -4,-104 146,-104 146,4 -4,4"/>
<!-- Node1 -->
<g id="node1" class="node"><title>Node1</title>
<polygon fill="#bfbfbf" stroke="black" points="-0.5,-1 -0.5,-31 142.5,-31 142.5,-1 -0.5,-1"/>
<text text-anchor="start" x="7.5" y="-19" font-family="Helvetica,sans-Serif" font-size="10.00">KuszkAPI::Forms::GdiObject</text>
<text text-anchor="middle" x="71" y="-8" font-family="Helvetica,sans-Serif" font-size="10.00">&lt; tnData &gt;</text>
</g>
<!-- Node2 -->
<g id="node2" class="node"><title>Node2</title>
<polygon fill="white" stroke="#bfbfbf" points="31,-80.5 31,-99.5 111,-99.5 111,-80.5 31,-80.5"/>
<text text-anchor="middle" x="71" y="-87.5" font-family="Helvetica,sans-Serif" font-size="10.00">Box&lt; tnData &gt;</text>
</g>
<!-- Node2&#45;&gt;Node1 -->
<g id="edge1" class="edge"><title>Node2&#45;&gt;Node1</title>
<path fill="none" stroke="#9a32cd" stroke-dasharray="5,2" d="M71,-70.0846C71,-57.9148 71,-42.3538 71,-31.2316"/>
<polygon fill="#9a32cd" stroke="#9a32cd" points="67.5001,-70.4579 71,-80.4579 74.5001,-70.4579 67.5001,-70.4579"/>
<text text-anchor="middle" x="89.5" y="-53.5" font-family="Helvetica,sans-Serif" font-size="10.00"> bObject</text>
</g>
</g>
</svg>
