<?xml version="1.0" encoding="UTF-8" standalone="no"?>
<!DOCTYPE svg PUBLIC "-//W3C//DTD SVG 1.1//EN"
 "http://www.w3.org/Graphics/SVG/1.1/DTD/svg11.dtd">
<!-- Generated by graphviz version 2.36.0 (20140111.2315)
 -->
<!-- Title: KuszkAPI::Forms::Bitmap Pages: 1 -->
<!--zoomable 363 -->
<svg id="main" version="1.1" xmlns="http://www.w3.org/2000/svg" xmlns:xlink="http://www.w3.org/1999/xlink" xml:space="preserve" onload="init(evt)">
<style type="text/css"><![CDATA[
.edge:hover path { stroke: red; }
.edge:hover polygon { stroke: red; fill: red; }
]]></style>
<script type="text/javascript"><![CDATA[
var edges = document.getElementsByTagName('g');
if (edges && edges.length) {
  for (var i=0;i<edges.length;i++) {
    if (edges[i].id.substr(0,4)=='edge') {
      edges[i].setAttribute('class','edge');
    }
  }
}
]]></script>
        <defs>
                <circle id="rim" cx="0" cy="0" r="7"/>
                <circle id="rim2" cx="0" cy="0" r="3.5"/>
                <g id="zoomPlus">
                        <use xlink:href="#rim" fill="#404040">
                                <set attributeName="fill" to="#808080" begin="zoomplus.mouseover" end="zoomplus.mouseout"/>
                        </use>
                        <path d="M-4,0h8M0,-4v8" fill="none" stroke="white" stroke-width="1.5" pointer-events="none"/>
                </g>
                <g id="zoomMin">
                        <use xlink:href="#rim" fill="#404040">
                                <set attributeName="fill" to="#808080" begin="zoomminus.mouseover" end="zoomminus.mouseout"/>
                        </use>
                        <path d="M-4,0h8" fill="none" stroke="white" stroke-width="1.5" pointer-events="none"/>
                </g>
                <g id="dirArrow">
                        <path fill="none" stroke="white" stroke-width="1.5" d="M0,-3.0v7 M-2.5,-0.5L0,-3.0L2.5,-0.5"/>
                </g>
               <g id="resetDef">
                       <use xlink:href="#rim2" fill="#404040">
                               <set attributeName="fill" to="#808080" begin="reset.mouseover" end="reset.mouseout"/>
                       </use>
               </g>
        </defs>

<script type="text/javascript">
var viewWidth = 1524;
var viewHeight = 363;
var sectionId = 'dynsection-1';
</script>
<script xlink:href="svgpan.js"/>
<svg id="graph" class="graph">
<g id="viewport">
<title>KuszkAPI::Forms::Bitmap</title>
<polygon fill="white" stroke="none" points="-4,4 -4,-359.359 1520,-359.359 1520,4 -4,4"/>
<!-- Node1 -->
<g id="node1" class="node"><title>Node1</title>
<polygon fill="#bfbfbf" stroke="black" points="1384.5,-160.5 1384.5,-179.5 1515.5,-179.5 1515.5,-160.5 1384.5,-160.5"/>
<text text-anchor="middle" x="1450" y="-167.5" font-family="Helvetica,sans-Serif" font-size="10.00">KuszkAPI::Forms::Bitmap</text>
</g>
<!-- Node2 -->
<g id="node2" class="node"><title>Node2</title>
<g id="a_node2"><a xlink:href="class_kuszk_a_p_i_1_1_forms_1_1_gdi_object.html" target="_top" xlink:title="KuszkAPI::Forms::GdiObject\l\&lt; HBITMAP \&gt;">
<polygon fill="white" stroke="black" points="1202.5,-155 1202.5,-185 1345.5,-185 1345.5,-155 1202.5,-155"/>
<text text-anchor="start" x="1210.5" y="-173" font-family="Helvetica,sans-Serif" font-size="10.00">KuszkAPI::Forms::GdiObject</text>
<text text-anchor="middle" x="1274" y="-162" font-family="Helvetica,sans-Serif" font-size="10.00">&lt; HBITMAP &gt;</text>
</a>
</g>
</g>
<!-- Node2&#45;&gt;Node1 -->
<g id="edge1" class="edge"><title>Node2&#45;&gt;Node1</title>
<path fill="none" stroke="midnightblue" d="M1355.81,-170C1365.36,-170 1375,-170 1384.27,-170"/>
<polygon fill="midnightblue" stroke="midnightblue" points="1355.52,-166.5 1345.52,-170 1355.52,-173.5 1355.52,-166.5"/>
</g>
<!-- Node3 -->
<g id="node3" class="node"><title>Node3</title>
<g id="a_node3"><a xlink:href="class_kuszk_a_p_i_1_1_containers_1_1_box.html" target="_top" xlink:title="KuszkAPI::Containers\l::Box\&lt; HBITMAP \&gt;">
<polygon fill="white" stroke="black" points="973.5,-182 973.5,-212 1086.5,-212 1086.5,-182 973.5,-182"/>
<text text-anchor="start" x="981.5" y="-200" font-family="Helvetica,sans-Serif" font-size="10.00">KuszkAPI::Containers</text>
<text text-anchor="middle" x="1030" y="-189" font-family="Helvetica,sans-Serif" font-size="10.00">::Box&lt; HBITMAP &gt;</text>
</a>
</g>
</g>
<!-- Node3&#45;&gt;Node2 -->
<g id="edge2" class="edge"><title>Node3&#45;&gt;Node2</title>
<path fill="none" stroke="#9a32cd" stroke-dasharray="5,2" d="M1096.85,-189.653C1129.45,-186.016 1168.84,-181.621 1202.1,-177.911"/>
<polygon fill="#9a32cd" stroke="#9a32cd" points="1096.07,-186.218 1086.52,-190.806 1096.85,-193.175 1096.07,-186.218"/>
<text text-anchor="middle" x="1152" y="-190" font-family="Helvetica,sans-Serif" font-size="10.00"> bObject</text>
</g>
<!-- Node4 -->
<g id="node4" class="node"><title>Node4</title>
<g id="a_node4"><a xlink:href="class_kuszk_a_p_i_1_1_containers_1_1_vector.html" target="_top" xlink:title="KuszkAPI::Containers\l::Vector\&lt; HBITMAP * \&gt;">
<polygon fill="white" stroke="black" points="544.5,-279 544.5,-309 663.5,-309 663.5,-279 544.5,-279"/>
<text text-anchor="start" x="552.5" y="-297" font-family="Helvetica,sans-Serif" font-size="10.00">KuszkAPI::Containers</text>
<text text-anchor="middle" x="604" y="-286" font-family="Helvetica,sans-Serif" font-size="10.00">::Vector&lt; HBITMAP * &gt;</text>
</a>
</g>
</g>
<!-- Node4&#45;&gt;Node3 -->
<g id="edge3" class="edge"><title>Node4&#45;&gt;Node3</title>
<path fill="none" stroke="#9a32cd" stroke-dasharray="5,2" d="M673.86,-280.983C741.83,-267.763 848.556,-246.012 940,-223 952.957,-219.739 966.867,-215.86 979.751,-212.106"/>
<polygon fill="#9a32cd" stroke="#9a32cd" points="672.858,-277.612 663.706,-282.95 674.19,-284.484 672.858,-277.612"/>
<text text-anchor="middle" x="801" y="-270" font-family="Helvetica,sans-Serif" font-size="10.00"> vPointers</text>
</g>
<!-- Node5 -->
<g id="node5" class="node"><title>Node5</title>
<g id="a_node5"><a xlink:href="class_kuszk_a_p_i_1_1_containers_1_1_container.html" target="_top" xlink:title="Implementacja bazy dla modułu kontenerów. ">
<polygon fill="white" stroke="black" points="122.5,-171 122.5,-201 235.5,-201 235.5,-171 122.5,-171"/>
<text text-anchor="start" x="130.5" y="-189" font-family="Helvetica,sans-Serif" font-size="10.00">KuszkAPI::Containers</text>
<text text-anchor="middle" x="179" y="-178" font-family="Helvetica,sans-Serif" font-size="10.00">::Container</text>
</a>
</g>
</g>
<!-- Node5&#45;&gt;Node4 -->
<g id="edge4" class="edge"><title>Node5&#45;&gt;Node4</title>
<path fill="none" stroke="midnightblue" d="M196.25,-209.551C219.723,-241.246 266.449,-296.168 322,-318 401.747,-349.341 503.776,-326.618 560.358,-309.1"/>
<polygon fill="midnightblue" stroke="midnightblue" points="198.958,-207.322 190.259,-201.274 193.288,-211.427 198.958,-207.322"/>
</g>
<!-- Node9 -->
<g id="node9" class="node"><title>Node9</title>
<g id="a_node9"><a xlink:href="class_kuszk_a_p_i_1_1_containers_1_1_vector.html" target="_top" xlink:title="KuszkAPI::Containers\l::Vector\&lt; tnData \&gt;">
<polygon fill="white" stroke="black" points="322.5,-126 322.5,-156 435.5,-156 435.5,-126 322.5,-126"/>
<text text-anchor="start" x="330.5" y="-144" font-family="Helvetica,sans-Serif" font-size="10.00">KuszkAPI::Containers</text>
<text text-anchor="middle" x="379" y="-133" font-family="Helvetica,sans-Serif" font-size="10.00">::Vector&lt; tnData &gt;</text>
</a>
</g>
</g>
<!-- Node5&#45;&gt;Node9 -->
<g id="edge10" class="edge"><title>Node5&#45;&gt;Node9</title>
<path fill="none" stroke="midnightblue" d="M245.747,-171.057C270.583,-165.413 298.577,-159.051 322.394,-153.638"/>
<polygon fill="midnightblue" stroke="midnightblue" points="244.657,-167.716 235.681,-173.345 246.208,-174.542 244.657,-167.716"/>
</g>
<!-- Node12 -->
<g id="node12" class="node"><title>Node12</title>
<g id="a_node12"><a xlink:href="class_kuszk_a_p_i_1_1_containers_1_1_vector.html" target="_top" xlink:title="KuszkAPI::Containers\l::Vector\&lt; tnData * \&gt;">
<polygon fill="white" stroke="black" points="547.5,-126 547.5,-156 660.5,-156 660.5,-126 547.5,-126"/>
<text text-anchor="start" x="555.5" y="-144" font-family="Helvetica,sans-Serif" font-size="10.00">KuszkAPI::Containers</text>
<text text-anchor="middle" x="604" y="-133" font-family="Helvetica,sans-Serif" font-size="10.00">::Vector&lt; tnData * &gt;</text>
</a>
</g>
</g>
<!-- Node5&#45;&gt;Node12 -->
<g id="edge17" class="edge"><title>Node5&#45;&gt;Node12</title>
<path fill="none" stroke="midnightblue" d="M246.07,-182.617C315.9,-178.493 429.116,-170.25 526,-156 532.872,-154.989 540.062,-153.786 547.17,-152.507"/>
<polygon fill="midnightblue" stroke="midnightblue" points="245.448,-179.147 235.667,-183.219 245.853,-186.135 245.448,-179.147"/>
</g>
<!-- Node6 -->
<g id="node6" class="node"><title>Node6</title>
<g id="a_node6"><a xlink:href="namespace_3global_scope_4.html#classunsigned" target="_top" xlink:title="unsigned">
<polygon fill="white" stroke="black" points="0,-148.5 0,-167.5 56,-167.5 56,-148.5 0,-148.5"/>
<text text-anchor="middle" x="28" y="-155.5" font-family="Helvetica,sans-Serif" font-size="10.00">unsigned</text>
</a>
</g>
</g>
<!-- Node6&#45;&gt;Node3 -->
<g id="edge13" class="edge"><title>Node6&#45;&gt;Node3</title>
<path fill="none" stroke="#9a32cd" stroke-dasharray="5,2" d="M44.5206,-175.217C52.5916,-183.216 63.0466,-192.216 74,-198 137.844,-231.711 163.805,-210.592 236,-210 512.752,-207.732 843.778,-201.011 973.241,-198.228"/>
<polygon fill="#9a32cd" stroke="#9a32cd" points="46.7633,-172.499 37.314,-167.707 41.7126,-177.346 46.7633,-172.499"/>
<text text-anchor="middle" x="490" y="-211" font-family="Helvetica,sans-Serif" font-size="10.00"> uIlosc</text>
</g>
<!-- Node6&#45;&gt;Node4 -->
<g id="edge8" class="edge"><title>Node6&#45;&gt;Node4</title>
<path fill="none" stroke="#9a32cd" stroke-dasharray="5,2" d="M33.5811,-177.542C39.4978,-198.673 51.7793,-232.008 74,-252 160.946,-330.225 206.74,-320.157 322,-340 411.352,-355.383 438.6,-364.118 526,-340 547.766,-333.994 569.578,-320.034 584.401,-309.057"/>
<polygon fill="#9a32cd" stroke="#9a32cd" points="36.9387,-176.545 31.0483,-167.739 30.1613,-178.297 36.9387,-176.545"/>
<text text-anchor="middle" x="279" y="-341" font-family="Helvetica,sans-Serif" font-size="10.00"> uDataSize</text>
</g>
<!-- Node6&#45;&gt;Node5 -->
<g id="edge5" class="edge"><title>Node6&#45;&gt;Node5</title>
<path fill="none" stroke="#9a32cd" stroke-dasharray="5,2" d="M66.3963,-165.028C83.354,-168.214 103.756,-172.048 122.452,-175.561"/>
<polygon fill="#9a32cd" stroke="#9a32cd" points="66.8033,-161.543 56.3289,-163.136 65.5104,-168.422 66.8033,-161.543"/>
<text text-anchor="middle" x="89" y="-186" font-family="Helvetica,sans-Serif" font-size="10.00"> uIlosc</text>
<text text-anchor="middle" x="89" y="-175" font-family="Helvetica,sans-Serif" font-size="10.00">uMode</text>
</g>
<!-- Node6&#45;&gt;Node9 -->
<g id="edge12" class="edge"><title>Node6&#45;&gt;Node9</title>
<path fill="none" stroke="#9a32cd" stroke-dasharray="5,2" d="M66.3225,-154.355C83.2967,-152.809 103.648,-151.111 122,-150 190.916,-145.827 270.395,-143.406 322.28,-142.146"/>
<polygon fill="#9a32cd" stroke="#9a32cd" points="65.8718,-150.881 56.2382,-155.291 66.519,-157.851 65.8718,-150.881"/>
<text text-anchor="middle" x="179" y="-153" font-family="Helvetica,sans-Serif" font-size="10.00"> uDataSize</text>
</g>
<!-- Node11 -->
<g id="node11" class="node"><title>Node11</title>
<g id="a_node11"><a xlink:href="class_kuszk_a_p_i_1_1_containers_1_1_box.html" target="_top" xlink:title="Implementacja szablonu pudełka dla modułu kontenerów. ">
<polygon fill="white" stroke="black" points="744.5,-144 744.5,-174 857.5,-174 857.5,-144 744.5,-144"/>
<text text-anchor="start" x="752.5" y="-162" font-family="Helvetica,sans-Serif" font-size="10.00">KuszkAPI::Containers</text>
<text text-anchor="middle" x="801" y="-151" font-family="Helvetica,sans-Serif" font-size="10.00">::Box&lt; tnData &gt;</text>
</a>
</g>
</g>
<!-- Node6&#45;&gt;Node11 -->
<g id="edge15" class="edge"><title>Node6&#45;&gt;Node11</title>
<path fill="none" stroke="#9a32cd" stroke-dasharray="5,2" d="M36.4328,-138.656C54.0439,-96.4808 102.574,-0 178,-0 178,-0 178,-0 605,-0 690.81,-0 672.864,-86.0106 744,-134 749.384,-137.632 755.382,-140.953 761.395,-143.904"/>
<polygon fill="#9a32cd" stroke="#9a32cd" points="33.1119,-137.533 32.624,-148.116 39.6054,-140.147 33.1119,-137.533"/>
<text text-anchor="middle" x="379" y="-3" font-family="Helvetica,sans-Serif" font-size="10.00"> uIlosc</text>
</g>
<!-- Node6&#45;&gt;Node12 -->
<g id="edge19" class="edge"><title>Node6&#45;&gt;Node12</title>
<path fill="none" stroke="#9a32cd" stroke-dasharray="5,2" d="M40.6966,-139.727C56.1791,-117.435 85.7912,-80.8837 122,-66 288.471,2.4281 355.37,-36.7256 526,-94 547.232,-101.127 568.77,-114.957 583.647,-125.778"/>
<polygon fill="#9a32cd" stroke="#9a32cd" points="37.6089,-138.048 34.9483,-148.303 43.4235,-141.945 37.6089,-138.048"/>
<text text-anchor="middle" x="279" y="-34" font-family="Helvetica,sans-Serif" font-size="10.00"> uDataSize</text>
</g>
<!-- Node7 -->
<g id="node7" class="node"><title>Node7</title>
<g id="a_node7"><a xlink:href="namespace_3global_scope_4.html#class_h_b_i_t_m_a_p_01_5" target="_top" xlink:title="HBITMAP *">
<polygon fill="white" stroke="black" points="346,-289.5 346,-308.5 412,-308.5 412,-289.5 346,-289.5"/>
<text text-anchor="middle" x="379" y="-296.5" font-family="Helvetica,sans-Serif" font-size="10.00">HBITMAP *</text>
</a>
</g>
</g>
<!-- Node7&#45;&gt;Node4 -->
<g id="edge6" class="edge"><title>Node7&#45;&gt;Node4</title>
<path fill="none" stroke="#9a32cd" stroke-dasharray="5,2" d="M422.627,-298.044C457.08,-297.272 505.953,-296.176 544.137,-295.32"/>
<polygon fill="#9a32cd" stroke="#9a32cd" points="422.345,-294.55 412.426,-298.273 422.502,-301.548 422.345,-294.55"/>
<text text-anchor="middle" x="490" y="-301" font-family="Helvetica,sans-Serif" font-size="10.00"> tAbstract</text>
</g>
<!-- Node8 -->
<g id="node8" class="node"><title>Node8</title>
<g id="a_node8"><a xlink:href="namespace_3global_scope_4.html#class_h_b_i_t_m_a_p_01_5_5" target="_top" xlink:title="HBITMAP **">
<polygon fill="white" stroke="black" points="344,-251.5 344,-270.5 414,-270.5 414,-251.5 344,-251.5"/>
<text text-anchor="middle" x="379" y="-258.5" font-family="Helvetica,sans-Serif" font-size="10.00">HBITMAP **</text>
</a>
</g>
</g>
<!-- Node8&#45;&gt;Node4 -->
<g id="edge7" class="edge"><title>Node8&#45;&gt;Node4</title>
<path fill="none" stroke="#9a32cd" stroke-dasharray="5,2" d="M424.468,-266.726C453.42,-270.545 491.989,-275.801 526,-281 531.897,-281.901 538.041,-282.877 544.174,-283.875"/>
<polygon fill="#9a32cd" stroke="#9a32cd" points="424.633,-263.218 414.263,-265.387 423.723,-270.159 424.633,-263.218"/>
<text text-anchor="middle" x="490" y="-284" font-family="Helvetica,sans-Serif" font-size="10.00"> ptBegin</text>
</g>
<!-- Node9&#45;&gt;Node4 -->
<g id="edge9" class="edge"><title>Node9&#45;&gt;Node4</title>
<path fill="none" stroke="orange" stroke-dasharray="5,2" d="M397.427,-164.082C411.335,-181.36 432.065,-204.722 454,-221 482.573,-242.203 494.047,-240.349 526,-256 541.396,-263.541 558.498,-271.975 572.666,-278.978"/>
<polygon fill="orange" stroke="orange" points="400.111,-161.833 391.172,-156.146 394.614,-166.166 400.111,-161.833"/>
<text text-anchor="middle" x="490" y="-259" font-family="Helvetica,sans-Serif" font-size="10.00"> &lt; HBITMAP * &gt;</text>
</g>
<!-- Node9&#45;&gt;Node12 -->
<g id="edge20" class="edge"><title>Node9&#45;&gt;Node12</title>
<path fill="none" stroke="orange" stroke-dasharray="5,2" d="M445.925,-141C478.145,-141 516.498,-141 547.24,-141"/>
<polygon fill="orange" stroke="orange" points="445.697,-137.5 435.697,-141 445.697,-144.5 445.697,-137.5"/>
<text text-anchor="middle" x="490" y="-144" font-family="Helvetica,sans-Serif" font-size="10.00"> &lt; tnData * &gt;</text>
</g>
<!-- Node10 -->
<g id="node10" class="node"><title>Node10</title>
<polygon fill="white" stroke="#bfbfbf" points="156.5,-75.5 156.5,-94.5 201.5,-94.5 201.5,-75.5 156.5,-75.5"/>
<text text-anchor="middle" x="179" y="-82.5" font-family="Helvetica,sans-Serif" font-size="10.00">tnData</text>
</g>
<!-- Node10&#45;&gt;Node9 -->
<g id="edge11" class="edge"><title>Node10&#45;&gt;Node9</title>
<path fill="none" stroke="#9a32cd" stroke-dasharray="5,2" d="M211.756,-86.3112C237.215,-88.0803 273.587,-92.2364 304,-102 306.506,-102.805 329.914,-115.21 349.741,-125.816"/>
<polygon fill="#9a32cd" stroke="#9a32cd" points="211.757,-82.8048 201.562,-85.6897 211.331,-89.7918 211.757,-82.8048"/>
<text text-anchor="middle" x="279" y="-116" font-family="Helvetica,sans-Serif" font-size="10.00"> tAbstract</text>
<text text-anchor="middle" x="279" y="-105" font-family="Helvetica,sans-Serif" font-size="10.00">ptBegin</text>
</g>
<!-- Node10&#45;&gt;Node12 -->
<g id="edge18" class="edge"><title>Node10&#45;&gt;Node12</title>
<path fill="none" stroke="#9a32cd" stroke-dasharray="5,2" d="M211.54,-85.5784C236.605,-86.0826 272.552,-86.905 304,-88 362.692,-90.0437 378.022,-84.6505 436,-94 478.967,-100.929 526.636,-115.01 560.009,-125.962"/>
<polygon fill="#9a32cd" stroke="#9a32cd" points="211.576,-82.0785 201.509,-85.3819 211.439,-89.0772 211.576,-82.0785"/>
<text text-anchor="middle" x="379" y="-108" font-family="Helvetica,sans-Serif" font-size="10.00"> tAbstract</text>
<text text-anchor="middle" x="379" y="-97" font-family="Helvetica,sans-Serif" font-size="10.00">ptBegin</text>
</g>
<!-- Node11&#45;&gt;Node3 -->
<g id="edge14" class="edge"><title>Node11&#45;&gt;Node3</title>
<path fill="none" stroke="orange" stroke-dasharray="5,2" d="M867.675,-169.994C901.118,-175.592 941.34,-182.326 973.256,-187.668"/>
<polygon fill="orange" stroke="orange" points="867.971,-166.495 857.53,-168.296 866.815,-173.399 867.971,-166.495"/>
<text text-anchor="middle" x="908" y="-185" font-family="Helvetica,sans-Serif" font-size="10.00"> &lt; HBITMAP &gt;</text>
</g>
<!-- Node12&#45;&gt;Node11 -->
<g id="edge16" class="edge"><title>Node12&#45;&gt;Node11</title>
<path fill="none" stroke="#9a32cd" stroke-dasharray="5,2" d="M670.669,-147.062C694.575,-149.268 721.349,-151.74 744.308,-153.859"/>
<polygon fill="#9a32cd" stroke="#9a32cd" points="670.898,-143.568 660.618,-146.134 670.254,-150.538 670.898,-143.568"/>
<text text-anchor="middle" x="704" y="-156" font-family="Helvetica,sans-Serif" font-size="10.00"> vPointers</text>
</g>
<!-- Node13 -->
<g id="node13" class="node"><title>Node13</title>
<g id="a_node13"><a xlink:href="class_kuszk_a_p_i_1_1_forms_1_1_gdi_object.html" target="_top" xlink:title="KuszkAPI::Forms::GdiObject\l\&lt; tnData \&gt;">
<polygon fill="white" stroke="black" points="958.5,-122 958.5,-152 1101.5,-152 1101.5,-122 958.5,-122"/>
<text text-anchor="start" x="966.5" y="-140" font-family="Helvetica,sans-Serif" font-size="10.00">KuszkAPI::Forms::GdiObject</text>
<text text-anchor="middle" x="1030" y="-129" font-family="Helvetica,sans-Serif" font-size="10.00">&lt; tnData &gt;</text>
</a>
</g>
</g>
<!-- Node13&#45;&gt;Node2 -->
<g id="edge21" class="edge"><title>Node13&#45;&gt;Node2</title>
<path fill="none" stroke="orange" stroke-dasharray="5,2" d="M1111.84,-148.024C1141.12,-152.016 1173.93,-156.49 1202.27,-160.354"/>
<polygon fill="orange" stroke="orange" points="1112.03,-144.517 1101.65,-146.634 1111.08,-151.453 1112.03,-144.517"/>
<text text-anchor="middle" x="1152" y="-161" font-family="Helvetica,sans-Serif" font-size="10.00"> &lt; HBITMAP &gt;</text>
</g>
<!-- Node14 -->
<g id="node14" class="node"><title>Node14</title>
<polygon fill="white" stroke="#bfbfbf" points="761,-105.5 761,-124.5 841,-124.5 841,-105.5 761,-105.5"/>
<text text-anchor="middle" x="801" y="-112.5" font-family="Helvetica,sans-Serif" font-size="10.00">Box&lt; tnData &gt;</text>
</g>
<!-- Node14&#45;&gt;Node13 -->
<g id="edge22" class="edge"><title>Node14&#45;&gt;Node13</title>
<path fill="none" stroke="#9a32cd" stroke-dasharray="5,2" d="M851.373,-119.568C877.688,-122.024 910.61,-125.13 940,-128 945.874,-128.574 951.964,-129.175 958.079,-129.784"/>
<polygon fill="#9a32cd" stroke="#9a32cd" points="851.548,-116.07 841.266,-118.627 850.898,-123.039 851.548,-116.07"/>
<text text-anchor="middle" x="908" y="-131" font-family="Helvetica,sans-Serif" font-size="10.00"> bObject</text>
</g>
</g>
</svg>
        <g id="navigator" transform="translate(0 0)" fill="#404254">
                <rect fill="#f2f5e9" fill-opacity="0.5" stroke="#606060" stroke-width=".5" x="0" y="0" width="60" height="60"/>
                <use id="zoomplus" xlink:href="#zoomPlus" x="17" y="9" onmousedown="handleZoom(evt,'in')"/>
                <use id="zoomminus" xlink:href="#zoomMin" x="42" y="9" onmousedown="handleZoom(evt,'out')"/>
                <use id="reset" xlink:href="#resetDef" x="30" y="36" onmousedown="handleReset()"/>
                <g id="arrowUp" xlink:href="#dirArrow" transform="translate(30 24)" onmousedown="handlePan(0,-1)">
                  <use xlink:href="#rim" fill="#404040">
                        <set attributeName="fill" to="#808080" begin="arrowUp.mouseover" end="arrowUp.mouseout"/>
                  </use>
                  <path fill="none" stroke="white" stroke-width="1.5" d="M0,-3.0v7 M-2.5,-0.5L0,-3.0L2.5,-0.5"/>
                </g>
                <g id="arrowRight" xlink:href="#dirArrow" transform="rotate(90) translate(36 -43)" onmousedown="handlePan(1,0)">
                  <use xlink:href="#rim" fill="#404040">
                        <set attributeName="fill" to="#808080" begin="arrowRight.mouseover" end="arrowRight.mouseout"/>
                  </use>
                  <path fill="none" stroke="white" stroke-width="1.5" d="M0,-3.0v7 M-2.5,-0.5L0,-3.0L2.5,-0.5"/>
                </g>
                <g id="arrowDown" xlink:href="#dirArrow" transform="rotate(180) translate(-30 -48)" onmousedown="handlePan(0,1)">
                  <use xlink:href="#rim" fill="#404040">
                        <set attributeName="fill" to="#808080" begin="arrowDown.mouseover" end="arrowDown.mouseout"/>
                  </use>
                  <path fill="none" stroke="white" stroke-width="1.5" d="M0,-3.0v7 M-2.5,-0.5L0,-3.0L2.5,-0.5"/>
                </g>
                <g id="arrowLeft" xlink:href="#dirArrow" transform="rotate(270) translate(-36 17)" onmousedown="handlePan(-1,0)">
                  <use xlink:href="#rim" fill="#404040">
                        <set attributeName="fill" to="#808080" begin="arrowLeft.mouseover" end="arrowLeft.mouseout"/>
                  </use>
                  <path fill="none" stroke="white" stroke-width="1.5" d="M0,-3.0v7 M-2.5,-0.5L0,-3.0L2.5,-0.5"/>
                </g>
        </g>
        <svg viewBox="0 0 15 15" width="100%" height="30px" preserveAspectRatio="xMaxYMin meet">
         <g id="arrow_out" transform="scale(0.3 0.3)">
          <a xlink:href="class_kuszk_a_p_i_1_1_forms_1_1_bitmap__coll__graph_org.svg" target="_base">
           <rect id="button" ry="5" rx="5" y="6" x="6" height="38" width="38"
                fill="#f2f5e9" fill-opacity="0.5" stroke="#606060" stroke-width="1.0"/>
           <path id="arrow"
             d="M 11.500037,31.436501 C 11.940474,20.09759 22.043105,11.32322 32.158766,21.979434 L 37.068811,17.246167 C 37.068811,17.246167 37.088388,32 37.088388,32 L 22.160133,31.978069 C 22.160133,31.978069 26.997745,27.140456 26.997745,27.140456 C 18.528582,18.264221 13.291696,25.230495 11.500037,31.436501 z"
             style="fill:#404040;"/>
          </a>
         </g>
        </svg>
</svg>
