<?xml version="1.0" encoding="UTF-8" standalone="no"?>
<!DOCTYPE svg PUBLIC "-//W3C//DTD SVG 1.1//EN"
 "http://www.w3.org/Graphics/SVG/1.1/DTD/svg11.dtd">
<!-- Generated by graphviz version 2.36.0 (20140111.2315)
 -->
<!-- Title: KuszkAPI::Core::Hook&lt; tnKey &gt; Pages: 1 -->
<svg width="126pt" height="120pt"
 viewBox="0.00 0.00 126.00 120.00" xmlns="http://www.w3.org/2000/svg" xmlns:xlink="http://www.w3.org/1999/xlink">
<g id="graph0" class="graph" transform="scale(1 1) rotate(0) translate(4 116)">
<title>KuszkAPI::Core::Hook&lt; tnKey &gt;</title>
<polygon fill="white" stroke="none" points="-4,4 -4,-116 122,-116 122,4 -4,4"/>
<!-- Node1 -->
<g id="node1" class="node"><title>Node1</title>
<polygon fill="#bfbfbf" stroke="black" points="-0.5,-81 -0.5,-111 114.5,-111 114.5,-81 -0.5,-81"/>
<text text-anchor="start" x="7.5" y="-99" font-family="Helvetica,sans-Serif" font-size="10.00">KuszkAPI::Core::Hook</text>
<text text-anchor="middle" x="57" y="-88" font-family="Helvetica,sans-Serif" font-size="10.00">&lt; tnKey &gt;</text>
</g>
<!-- Node2 -->
<g id="node2" class="node"><title>Node2</title>
<g id="a_node2"><a xlink:href="class_kuszk_a_p_i_1_1_core_1_1_hook.html" target="_top" xlink:title="KuszkAPI::Core::Hook\l\&lt; unsigned \&gt;">
<polygon fill="white" stroke="black" points="-0.5,-1 -0.5,-31 114.5,-31 114.5,-1 -0.5,-1"/>
<text text-anchor="start" x="7.5" y="-19" font-family="Helvetica,sans-Serif" font-size="10.00">KuszkAPI::Core::Hook</text>
<text text-anchor="middle" x="57" y="-8" font-family="Helvetica,sans-Serif" font-size="10.00">&lt; unsigned &gt;</text>
</a>
</g>
</g>
<!-- Node1&#45;&gt;Node2 -->
<g id="edge1" class="edge"><title>Node1&#45;&gt;Node2</title>
<path fill="none" stroke="orange" stroke-dasharray="5,2" d="M57,-70.5644C57,-57.6243 57,-42.1862 57,-31.2157"/>
<polygon fill="orange" stroke="orange" points="53.5001,-70.6936 57,-80.6936 60.5001,-70.6936 53.5001,-70.6936"/>
<text text-anchor="middle" x="87.5" y="-53.5" font-family="Helvetica,sans-Serif" font-size="10.00"> &lt; unsigned &gt;</text>
</g>
</g>
</svg>
