<?xml version="1.0" encoding="UTF-8" standalone="no"?>
<!DOCTYPE svg PUBLIC "-//W3C//DTD SVG 1.1//EN"
 "http://www.w3.org/Graphics/SVG/1.1/DTD/svg11.dtd">
<!-- Generated by graphviz version 2.36.0 (20140111.2315)
 -->
<!-- Title: KuszkAPI::Forms::Window::SetWndName Pages: 1 -->
<svg width="328pt" height="136pt"
 viewBox="0.00 0.00 328.00 136.00" xmlns="http://www.w3.org/2000/svg" xmlns:xlink="http://www.w3.org/1999/xlink">
<g id="graph0" class="graph" transform="scale(1 1) rotate(0) translate(4 132)">
<title>KuszkAPI::Forms::Window::SetWndName</title>
<polygon fill="white" stroke="none" points="-4,4 -4,-132 324,-132 324,4 -4,4"/>
<!-- Node1 -->
<g id="node1" class="node"><title>Node1</title>
<polygon fill="#bfbfbf" stroke="black" points="0,-49 0,-79 134,-79 134,-49 0,-49"/>
<text text-anchor="start" x="8" y="-67" font-family="Helvetica,sans-Serif" font-size="10.00">KuszkAPI::Forms::Window</text>
<text text-anchor="middle" x="67" y="-56" font-family="Helvetica,sans-Serif" font-size="10.00">::SetWndName</text>
</g>
<!-- Node2 -->
<g id="node2" class="node"><title>Node2</title>
<g id="a_node2"><a xlink:href="class_kuszk_a_p_i_1_1_forms_1_1_text_control.html#a0c59be3ab95af4954358d468a29e48e0" target="_top" xlink:title="KuszkAPI::Forms::TextControl\l::SetText">
<polygon fill="white" stroke="black" points="170.5,-98 170.5,-128 319.5,-128 319.5,-98 170.5,-98"/>
<text text-anchor="start" x="178.5" y="-116" font-family="Helvetica,sans-Serif" font-size="10.00">KuszkAPI::Forms::TextControl</text>
<text text-anchor="middle" x="245" y="-105" font-family="Helvetica,sans-Serif" font-size="10.00">::SetText</text>
</a>
</g>
</g>
<!-- Node1&#45;&gt;Node2 -->
<g id="edge1" class="edge"><title>Node1&#45;&gt;Node2</title>
<path fill="none" stroke="midnightblue" d="M132.011,-81.8212C151.014,-87.1118 171.632,-92.8522 189.937,-97.9484"/>
<polygon fill="midnightblue" stroke="midnightblue" points="132.814,-78.4118 122.242,-79.1014 130.937,-85.1554 132.814,-78.4118"/>
</g>
<!-- Node3 -->
<g id="node3" class="node"><title>Node3</title>
<g id="a_node3"><a xlink:href="class_kuszk_a_p_i_1_1_forms_1_1_user_dialog.html#af055b8a7bc93589b56e4192cb256dae7" target="_top" xlink:title="KuszkAPI::Forms::UserDialog\l::SetTitle">
<polygon fill="white" stroke="black" points="171.5,-49 171.5,-79 318.5,-79 318.5,-49 171.5,-49"/>
<text text-anchor="start" x="179.5" y="-67" font-family="Helvetica,sans-Serif" font-size="10.00">KuszkAPI::Forms::UserDialog</text>
<text text-anchor="middle" x="245" y="-56" font-family="Helvetica,sans-Serif" font-size="10.00">::SetTitle</text>
</a>
</g>
</g>
<!-- Node1&#45;&gt;Node3 -->
<g id="edge2" class="edge"><title>Node1&#45;&gt;Node3</title>
<path fill="none" stroke="midnightblue" d="M144.152,-64C153.194,-64 162.406,-64 171.397,-64"/>
<polygon fill="midnightblue" stroke="midnightblue" points="144.037,-60.5001 134.037,-64 144.037,-67.5001 144.037,-60.5001"/>
</g>
<!-- Node4 -->
<g id="node4" class="node"><title>Node4</title>
<g id="a_node4"><a xlink:href="class_kuszk_a_p_i_1_1_forms_1_1_form.html#ab6e11d7b5a8ebc05e2907ab766588126" target="_top" xlink:title="KuszkAPI::Forms::Form\l::SetTitle">
<polygon fill="white" stroke="black" points="184,-0 184,-30 306,-30 306,-0 184,-0"/>
<text text-anchor="start" x="192" y="-18" font-family="Helvetica,sans-Serif" font-size="10.00">KuszkAPI::Forms::Form</text>
<text text-anchor="middle" x="245" y="-7" font-family="Helvetica,sans-Serif" font-size="10.00">::SetTitle</text>
</a>
</g>
</g>
<!-- Node1&#45;&gt;Node4 -->
<g id="edge3" class="edge"><title>Node1&#45;&gt;Node4</title>
<path fill="none" stroke="midnightblue" d="M132.011,-46.1788C151.014,-40.8882 171.632,-35.1478 189.937,-30.0516"/>
<polygon fill="midnightblue" stroke="midnightblue" points="130.937,-42.8446 122.242,-48.8986 132.814,-49.5882 130.937,-42.8446"/>
</g>
</g>
</svg>
