<?xml version="1.0" encoding="UTF-8" standalone="no"?>
<!DOCTYPE svg PUBLIC "-//W3C//DTD SVG 1.1//EN"
 "http://www.w3.org/Graphics/SVG/1.1/DTD/svg11.dtd">
<!-- Generated by graphviz version 2.36.0 (20140111.2315)
 -->
<!-- Title: KuszkAPI::Containers::Strings::Clean Pages: 1 -->
<svg width="298pt" height="38pt"
 viewBox="0.00 0.00 298.00 38.00" xmlns="http://www.w3.org/2000/svg" xmlns:xlink="http://www.w3.org/1999/xlink">
<g id="graph0" class="graph" transform="scale(1 1) rotate(0) translate(4 34)">
<title>KuszkAPI::Containers::Strings::Clean</title>
<polygon fill="white" stroke="none" points="-4,4 -4,-34 294,-34 294,4 -4,4"/>
<!-- Node1 -->
<g id="node1" class="node"><title>Node1</title>
<polygon fill="#bfbfbf" stroke="black" points="0.5,-0 0.5,-30 113.5,-30 113.5,-0 0.5,-0"/>
<text text-anchor="start" x="8.5" y="-18" font-family="Helvetica,sans-Serif" font-size="10.00">KuszkAPI::Containers</text>
<text text-anchor="middle" x="57" y="-7" font-family="Helvetica,sans-Serif" font-size="10.00">::Strings::Clean</text>
</g>
<!-- Node2 -->
<g id="node2" class="node"><title>Node2</title>
<g id="a_node2"><a xlink:href="class_kuszk_a_p_i_1_1_forms_1_1_table_box.html#a17a5957c6b5ec94902d7c969f35b149a" target="_top" xlink:title="KuszkAPI::Forms::TableBox\l::Sort">
<polygon fill="white" stroke="black" points="150,-0 150,-30 290,-30 290,-0 150,-0"/>
<text text-anchor="start" x="158" y="-18" font-family="Helvetica,sans-Serif" font-size="10.00">KuszkAPI::Forms::TableBox</text>
<text text-anchor="middle" x="220" y="-7" font-family="Helvetica,sans-Serif" font-size="10.00">::Sort</text>
</a>
</g>
</g>
<!-- Node1&#45;&gt;Node2 -->
<g id="edge1" class="edge"><title>Node1&#45;&gt;Node2</title>
<path fill="none" stroke="midnightblue" d="M124.103,-15C132.614,-15 141.347,-15 149.904,-15"/>
<polygon fill="midnightblue" stroke="midnightblue" points="123.858,-11.5001 113.858,-15 123.858,-18.5001 123.858,-11.5001"/>
</g>
</g>
</svg>
