<?xml version="1.0" encoding="UTF-8" standalone="no"?>
<!DOCTYPE svg PUBLIC "-//W3C//DTD SVG 1.1//EN"
 "http://www.w3.org/Graphics/SVG/1.1/DTD/svg11.dtd">
<!-- Generated by graphviz version 2.36.0 (20140111.2315)
 -->
<!-- Title: KuszkAPI::Core::Sections&lt; tnKey &gt; Pages: 1 -->
<!--zoomable 719 -->
<svg id="main" version="1.1" xmlns="http://www.w3.org/2000/svg" xmlns:xlink="http://www.w3.org/1999/xlink" xml:space="preserve" onload="init(evt)">
<style type="text/css"><![CDATA[
.edge:hover path { stroke: red; }
.edge:hover polygon { stroke: red; fill: red; }
]]></style>
<script type="text/javascript"><![CDATA[
var edges = document.getElementsByTagName('g');
if (edges && edges.length) {
  for (var i=0;i<edges.length;i++) {
    if (edges[i].id.substr(0,4)=='edge') {
      edges[i].setAttribute('class','edge');
    }
  }
}
]]></script>
        <defs>
                <circle id="rim" cx="0" cy="0" r="7"/>
                <circle id="rim2" cx="0" cy="0" r="3.5"/>
                <g id="zoomPlus">
                        <use xlink:href="#rim" fill="#404040">
                                <set attributeName="fill" to="#808080" begin="zoomplus.mouseover" end="zoomplus.mouseout"/>
                        </use>
                        <path d="M-4,0h8M0,-4v8" fill="none" stroke="white" stroke-width="1.5" pointer-events="none"/>
                </g>
                <g id="zoomMin">
                        <use xlink:href="#rim" fill="#404040">
                                <set attributeName="fill" to="#808080" begin="zoomminus.mouseover" end="zoomminus.mouseout"/>
                        </use>
                        <path d="M-4,0h8" fill="none" stroke="white" stroke-width="1.5" pointer-events="none"/>
                </g>
                <g id="dirArrow">
                        <path fill="none" stroke="white" stroke-width="1.5" d="M0,-3.0v7 M-2.5,-0.5L0,-3.0L2.5,-0.5"/>
                </g>
               <g id="resetDef">
                       <use xlink:href="#rim2" fill="#404040">
                               <set attributeName="fill" to="#808080" begin="reset.mouseover" end="reset.mouseout"/>
                       </use>
               </g>
        </defs>

<script type="text/javascript">
var viewWidth = 1704;
var viewHeight = 719;
var sectionId = 'dynsection-1';
</script>
<script xlink:href="svgpan.js"/>
<svg id="graph" class="graph">
<g id="viewport">
<title>KuszkAPI::Core::Sections&lt; tnKey &gt;</title>
<polygon fill="white" stroke="none" points="-4,4 -4,-715 1700,-715 1700,4 -4,4"/>
<!-- Node1 -->
<g id="node1" class="node"><title>Node1</title>
<polygon fill="#bfbfbf" stroke="black" points="1564.5,-245 1564.5,-275 1695.5,-275 1695.5,-245 1564.5,-245"/>
<text text-anchor="start" x="1572.5" y="-263" font-family="Helvetica,sans-Serif" font-size="10.00">KuszkAPI::Core::Sections</text>
<text text-anchor="middle" x="1630" y="-252" font-family="Helvetica,sans-Serif" font-size="10.00">&lt; tnKey &gt;</text>
</g>
<!-- Node2 -->
<g id="node2" class="node"><title>Node2</title>
<g id="a_node2"><a xlink:href="class_kuszk_a_p_i_1_1_containers_1_1_map.html" target="_top" xlink:title="KuszkAPI::Containers\l::Map\&lt; CRITICAL_SECTION,\l tnKey \&gt;">
<polygon fill="white" stroke="black" points="1338.5,-239.5 1338.5,-280.5 1481.5,-280.5 1481.5,-239.5 1338.5,-239.5"/>
<text text-anchor="start" x="1346.5" y="-268.5" font-family="Helvetica,sans-Serif" font-size="10.00">KuszkAPI::Containers</text>
<text text-anchor="start" x="1346.5" y="-257.5" font-family="Helvetica,sans-Serif" font-size="10.00">::Map&lt; CRITICAL_SECTION,</text>
<text text-anchor="middle" x="1410" y="-246.5" font-family="Helvetica,sans-Serif" font-size="10.00"> tnKey &gt;</text>
</a>
</g>
</g>
<!-- Node2&#45;&gt;Node1 -->
<g id="edge1" class="edge"><title>Node2&#45;&gt;Node1</title>
<path fill="none" stroke="#9a32cd" stroke-dasharray="5,2" d="M1491.9,-260C1515.84,-260 1541.72,-260 1564.48,-260"/>
<polygon fill="#9a32cd" stroke="#9a32cd" points="1491.78,-256.5 1481.78,-260 1491.78,-263.5 1491.78,-256.5"/>
<text text-anchor="middle" x="1523" y="-263" font-family="Helvetica,sans-Serif" font-size="10.00"> mSection</text>
</g>
<!-- Node3 -->
<g id="node3" class="node"><title>Node3</title>
<g id="a_node3"><a xlink:href="class_kuszk_a_p_i_1_1_containers_1_1_box.html" target="_top" xlink:title="KuszkAPI::Containers\l::Box\&lt; CRITICAL_SECTION \&gt;">
<polygon fill="white" stroke="black" points="1124.5,-422 1124.5,-452 1271.5,-452 1271.5,-422 1124.5,-422"/>
<text text-anchor="start" x="1132.5" y="-440" font-family="Helvetica,sans-Serif" font-size="10.00">KuszkAPI::Containers</text>
<text text-anchor="middle" x="1198" y="-429" font-family="Helvetica,sans-Serif" font-size="10.00">::Box&lt; CRITICAL_SECTION &gt;</text>
</a>
</g>
</g>
<!-- Node3&#45;&gt;Node2 -->
<g id="edge2" class="edge"><title>Node3&#45;&gt;Node2</title>
<path fill="none" stroke="#9a32cd" stroke-dasharray="5,2" d="M1224.77,-415.283C1265.55,-380.906 1344.45,-314.407 1384.46,-280.686"/>
<polygon fill="#9a32cd" stroke="#9a32cd" points="1222.3,-412.788 1216.9,-421.909 1226.81,-418.141 1222.3,-412.788"/>
<text text-anchor="middle" x="1305" y="-363" font-family="Helvetica,sans-Serif" font-size="10.00"> bData</text>
</g>
<!-- Node4 -->
<g id="node4" class="node"><title>Node4</title>
<g id="a_node4"><a xlink:href="class_kuszk_a_p_i_1_1_containers_1_1_vector.html" target="_top" xlink:title="KuszkAPI::Containers\l::Vector\&lt; CRITICAL_SECTION * \&gt;">
<polygon fill="white" stroke="black" points="610.5,-505 610.5,-535 775.5,-535 775.5,-505 610.5,-505"/>
<text text-anchor="start" x="618.5" y="-523" font-family="Helvetica,sans-Serif" font-size="10.00">KuszkAPI::Containers</text>
<text text-anchor="middle" x="693" y="-512" font-family="Helvetica,sans-Serif" font-size="10.00">::Vector&lt; CRITICAL_SECTION * &gt;</text>
</a>
</g>
</g>
<!-- Node4&#45;&gt;Node3 -->
<g id="edge3" class="edge"><title>Node4&#45;&gt;Node3</title>
<path fill="none" stroke="#9a32cd" stroke-dasharray="5,2" d="M785.783,-504.855C883.162,-488.786 1035.03,-463.726 1124.41,-448.979"/>
<polygon fill="#9a32cd" stroke="#9a32cd" points="784.951,-501.445 775.655,-506.526 786.091,-508.351 784.951,-501.445"/>
<text text-anchor="middle" x="916" y="-496" font-family="Helvetica,sans-Serif" font-size="10.00"> vPointers</text>
</g>
<!-- Node5 -->
<g id="node5" class="node"><title>Node5</title>
<g id="a_node5"><a xlink:href="class_kuszk_a_p_i_1_1_containers_1_1_container.html" target="_top" xlink:title="Implementacja bazy dla modułu kontenerów. ">
<polygon fill="white" stroke="black" points="132.5,-372 132.5,-402 245.5,-402 245.5,-372 132.5,-372"/>
<text text-anchor="start" x="140.5" y="-390" font-family="Helvetica,sans-Serif" font-size="10.00">KuszkAPI::Containers</text>
<text text-anchor="middle" x="189" y="-379" font-family="Helvetica,sans-Serif" font-size="10.00">::Container</text>
</a>
</g>
</g>
<!-- Node5&#45;&gt;Node4 -->
<g id="edge4" class="edge"><title>Node5&#45;&gt;Node4</title>
<path fill="none" stroke="midnightblue" d="M234.839,-406.07C264.335,-418.107 304.001,-433.34 340,-444 431.268,-471.027 538.479,-492.787 610.389,-505.987"/>
<polygon fill="midnightblue" stroke="midnightblue" points="235.825,-402.691 225.246,-402.122 233.161,-409.165 235.825,-402.691"/>
</g>
<!-- Node9 -->
<g id="node9" class="node"><title>Node9</title>
<g id="a_node9"><a xlink:href="class_kuszk_a_p_i_1_1_containers_1_1_vector.html" target="_top" xlink:title="KuszkAPI::Containers\l::Vector\&lt; tnData \&gt;">
<polygon fill="white" stroke="black" points="341.5,-405 341.5,-435 454.5,-435 454.5,-405 341.5,-405"/>
<text text-anchor="start" x="349.5" y="-423" font-family="Helvetica,sans-Serif" font-size="10.00">KuszkAPI::Containers</text>
<text text-anchor="middle" x="398" y="-412" font-family="Helvetica,sans-Serif" font-size="10.00">::Vector&lt; tnData &gt;</text>
</a>
</g>
</g>
<!-- Node5&#45;&gt;Node9 -->
<g id="edge10" class="edge"><title>Node5&#45;&gt;Node9</title>
<path fill="none" stroke="midnightblue" d="M255.671,-397.469C283.17,-401.853 314.8,-406.896 341.156,-411.097"/>
<polygon fill="midnightblue" stroke="midnightblue" points="256.171,-394.005 245.745,-395.887 255.069,-400.918 256.171,-394.005"/>
</g>
<!-- Node12 -->
<g id="node12" class="node"><title>Node12</title>
<g id="a_node12"><a xlink:href="class_kuszk_a_p_i_1_1_containers_1_1_vector.html" target="_top" xlink:title="KuszkAPI::Containers\l::Vector\&lt; tnData * \&gt;">
<polygon fill="white" stroke="black" points="636.5,-378 636.5,-408 749.5,-408 749.5,-378 636.5,-378"/>
<text text-anchor="start" x="644.5" y="-396" font-family="Helvetica,sans-Serif" font-size="10.00">KuszkAPI::Containers</text>
<text text-anchor="middle" x="693" y="-385" font-family="Helvetica,sans-Serif" font-size="10.00">::Vector&lt; tnData * &gt;</text>
</a>
</g>
</g>
<!-- Node5&#45;&gt;Node12 -->
<g id="edge17" class="edge"><title>Node5&#45;&gt;Node12</title>
<path fill="none" stroke="midnightblue" d="M255.895,-387.788C355.66,-388.98 543.263,-391.222 636.493,-392.337"/>
<polygon fill="midnightblue" stroke="midnightblue" points="255.682,-384.285 245.641,-387.665 255.598,-391.284 255.682,-384.285"/>
</g>
<!-- Node13 -->
<g id="node13" class="node"><title>Node13</title>
<g id="a_node13"><a xlink:href="class_kuszk_a_p_i_1_1_containers_1_1_list.html" target="_top" xlink:title="KuszkAPI::Containers\l::List\&lt; tnKey \&gt;">
<polygon fill="white" stroke="black" points="636.5,-149 636.5,-179 749.5,-179 749.5,-149 636.5,-149"/>
<text text-anchor="start" x="644.5" y="-167" font-family="Helvetica,sans-Serif" font-size="10.00">KuszkAPI::Containers</text>
<text text-anchor="middle" x="693" y="-156" font-family="Helvetica,sans-Serif" font-size="10.00">::List&lt; tnKey &gt;</text>
</a>
</g>
</g>
<!-- Node5&#45;&gt;Node13 -->
<g id="edge22" class="edge"><title>Node5&#45;&gt;Node13</title>
<path fill="none" stroke="midnightblue" d="M218.4,-366.093C233.536,-356.093 252.931,-345.013 272,-339 350.251,-314.325 378.609,-351.251 456,-324 549.148,-291.201 640.44,-212.354 676.199,-179.148"/>
<polygon fill="midnightblue" stroke="midnightblue" points="216.305,-363.285 210.014,-371.81 220.248,-369.069 216.305,-363.285"/>
</g>
<!-- Node17 -->
<g id="node17" class="node"><title>Node17</title>
<g id="a_node17"><a xlink:href="class_kuszk_a_p_i_1_1_containers_1_1_list.html" target="_top" xlink:title="Implementacja szablonu listy dla modułu kontenerów. ">
<polygon fill="white" stroke="black" points="341.5,-174 341.5,-204 454.5,-204 454.5,-174 341.5,-174"/>
<text text-anchor="start" x="349.5" y="-192" font-family="Helvetica,sans-Serif" font-size="10.00">KuszkAPI::Containers</text>
<text text-anchor="middle" x="398" y="-181" font-family="Helvetica,sans-Serif" font-size="10.00">::List&lt; tnData &gt;</text>
</a>
</g>
</g>
<!-- Node5&#45;&gt;Node17 -->
<g id="edge28" class="edge"><title>Node5&#45;&gt;Node17</title>
<path fill="none" stroke="midnightblue" d="M208.731,-364.063C242.004,-323.663 310.669,-241.915 340,-219 347.138,-213.423 355.465,-208.372 363.515,-204.073"/>
<polygon fill="midnightblue" stroke="midnightblue" points="206.025,-361.843 202.383,-371.792 211.435,-366.286 206.025,-361.843"/>
</g>
<!-- Node6 -->
<g id="node6" class="node"><title>Node6</title>
<g id="a_node6"><a xlink:href="namespace_3global_scope_4.html#classunsigned" target="_top" xlink:title="unsigned">
<polygon fill="white" stroke="black" points="0,-460.5 0,-479.5 56,-479.5 56,-460.5 0,-460.5"/>
<text text-anchor="middle" x="28" y="-467.5" font-family="Helvetica,sans-Serif" font-size="10.00">unsigned</text>
</a>
</g>
</g>
<!-- Node6&#45;&gt;Node2 -->
<g id="edge31" class="edge"><title>Node6&#45;&gt;Node2</title>
<path fill="none" stroke="#9a32cd" stroke-dasharray="5,2" d="M32.6769,-489.586C44.36,-545.185 86.0446,-700 188,-700 188,-700 188,-700 1199,-700 1387.33,-700 1406.92,-367.622 1408.83,-280.632"/>
<polygon fill="#9a32cd" stroke="#9a32cd" points="36.0713,-488.71 30.6796,-479.59 29.207,-490.082 36.0713,-488.71"/>
<text text-anchor="middle" x="693" y="-703" font-family="Helvetica,sans-Serif" font-size="10.00"> uIlosc</text>
</g>
<!-- Node6&#45;&gt;Node3 -->
<g id="edge13" class="edge"><title>Node6&#45;&gt;Node3</title>
<path fill="none" stroke="#9a32cd" stroke-dasharray="5,2" d="M35.2171,-489.298C51.7686,-536.51 101.635,-654 188,-654 188,-654 188,-654 917,-654 1048.92,-654 1156.35,-501.653 1187.71,-452.259"/>
<polygon fill="#9a32cd" stroke="#9a32cd" points="38.4691,-487.989 31.9542,-479.634 31.8369,-490.228 38.4691,-487.989"/>
<text text-anchor="middle" x="533" y="-657" font-family="Helvetica,sans-Serif" font-size="10.00"> uIlosc</text>
</g>
<!-- Node6&#45;&gt;Node4 -->
<g id="edge8" class="edge"><title>Node6&#45;&gt;Node4</title>
<path fill="none" stroke="#9a32cd" stroke-dasharray="5,2" d="M40.9849,-487.988C48.9756,-498.282 60.4784,-510.26 74,-516 168.197,-555.984 465.132,-538.604 610.379,-527.146"/>
<polygon fill="#9a32cd" stroke="#9a32cd" points="43.5984,-485.629 34.9043,-479.573 37.9249,-489.729 43.5984,-485.629"/>
<text text-anchor="middle" x="297" y="-544" font-family="Helvetica,sans-Serif" font-size="10.00"> uDataSize</text>
</g>
<!-- Node6&#45;&gt;Node5 -->
<g id="edge5" class="edge"><title>Node6&#45;&gt;Node5</title>
<path fill="none" stroke="#9a32cd" stroke-dasharray="5,2" d="M36.4592,-451.079C43.6433,-435.503 56.0743,-414.224 74,-403 91.1934,-392.235 112.674,-387.491 132.339,-385.686"/>
<polygon fill="#9a32cd" stroke="#9a32cd" points="33.2174,-449.759 32.4908,-460.329 39.6503,-452.519 33.2174,-449.759"/>
<text text-anchor="middle" x="90" y="-417" font-family="Helvetica,sans-Serif" font-size="10.00"> uIlosc</text>
<text text-anchor="middle" x="90" y="-406" font-family="Helvetica,sans-Serif" font-size="10.00">uMode</text>
</g>
<!-- Node6&#45;&gt;Node9 -->
<g id="edge12" class="edge"><title>Node6&#45;&gt;Node9</title>
<path fill="none" stroke="#9a32cd" stroke-dasharray="5,2" d="M66.2418,-464.94C131.201,-456.114 265.528,-437.863 341.497,-427.541"/>
<polygon fill="#9a32cd" stroke="#9a32cd" points="65.4976,-461.509 56.0599,-466.323 66.4401,-468.445 65.4976,-461.509"/>
<text text-anchor="middle" x="189" y="-461" font-family="Helvetica,sans-Serif" font-size="10.00"> uDataSize</text>
</g>
<!-- Node11 -->
<g id="node11" class="node"><title>Node11</title>
<g id="a_node11"><a xlink:href="class_kuszk_a_p_i_1_1_containers_1_1_box.html" target="_top" xlink:title="Implementacja szablonu pudełka dla modułu kontenerów. ">
<polygon fill="white" stroke="black" points="859.5,-378 859.5,-408 972.5,-408 972.5,-378 859.5,-378"/>
<text text-anchor="start" x="867.5" y="-396" font-family="Helvetica,sans-Serif" font-size="10.00">KuszkAPI::Containers</text>
<text text-anchor="middle" x="916" y="-385" font-family="Helvetica,sans-Serif" font-size="10.00">::Box&lt; tnData &gt;</text>
</a>
</g>
</g>
<!-- Node6&#45;&gt;Node11 -->
<g id="edge15" class="edge"><title>Node6&#45;&gt;Node11</title>
<path fill="none" stroke="#9a32cd" stroke-dasharray="5,2" d="M32.7059,-450.5C44.4676,-395.141 86.3444,-241 188,-241 188,-241 188,-241 694,-241 789.928,-241 874.574,-339.423 903.98,-377.87"/>
<polygon fill="#9a32cd" stroke="#9a32cd" points="29.245,-449.956 30.6941,-460.452 36.1062,-451.343 29.245,-449.956"/>
<text text-anchor="middle" x="398" y="-244" font-family="Helvetica,sans-Serif" font-size="10.00"> uIlosc</text>
</g>
<!-- Node6&#45;&gt;Node12 -->
<g id="edge19" class="edge"><title>Node6&#45;&gt;Node12</title>
<path fill="none" stroke="#9a32cd" stroke-dasharray="5,2" d="M66.2309,-476.484C158.227,-490.985 402.542,-520.187 592,-459 624.661,-448.452 656.762,-424.083 675.457,-408.091"/>
<polygon fill="#9a32cd" stroke="#9a32cd" points="66.7149,-473.017 56.285,-474.879 65.5996,-479.927 66.7149,-473.017"/>
<text text-anchor="middle" x="297" y="-500" font-family="Helvetica,sans-Serif" font-size="10.00"> uDataSize</text>
</g>
<!-- Node18 -->
<g id="node18" class="node"><title>Node18</title>
<g id="a_node18"><a xlink:href="class_kuszk_a_p_i_1_1_containers_1_1_map.html" target="_top" xlink:title="KuszkAPI::Containers\l::Map\&lt; tnData, tnKey \&gt;">
<polygon fill="white" stroke="black" points="856.5,-75 856.5,-105 975.5,-105 975.5,-75 856.5,-75"/>
<text text-anchor="start" x="864.5" y="-93" font-family="Helvetica,sans-Serif" font-size="10.00">KuszkAPI::Containers</text>
<text text-anchor="middle" x="916" y="-82" font-family="Helvetica,sans-Serif" font-size="10.00">::Map&lt; tnData, tnKey &gt;</text>
</a>
</g>
</g>
<!-- Node6&#45;&gt;Node18 -->
<g id="edge35" class="edge"><title>Node6&#45;&gt;Node18</title>
<path fill="none" stroke="#9a32cd" stroke-dasharray="5,2" d="M31.1672,-450.306C39.5024,-377.909 71.6685,-127.724 124,-70 144.202,-47.7162 157.922,-48 188,-48 188,-48 188,-48 694,-48 753.559,-48 820.583,-62.9042 865.044,-74.9557"/>
<polygon fill="#9a32cd" stroke="#9a32cd" points="27.6782,-450.013 30.0347,-460.342 34.6341,-450.798 27.6782,-450.013"/>
<text text-anchor="middle" x="398" y="-51" font-family="Helvetica,sans-Serif" font-size="10.00"> uIlosc</text>
</g>
<!-- Node7 -->
<g id="node7" class="node"><title>Node7</title>
<polygon fill="white" stroke="#bfbfbf" points="341.5,-606.5 341.5,-625.5 454.5,-625.5 454.5,-606.5 341.5,-606.5"/>
<text text-anchor="middle" x="398" y="-613.5" font-family="Helvetica,sans-Serif" font-size="10.00">CRITICAL_SECTION *</text>
</g>
<!-- Node7&#45;&gt;Node4 -->
<g id="edge6" class="edge"><title>Node7&#45;&gt;Node4</title>
<path fill="none" stroke="#9a32cd" stroke-dasharray="5,2" d="M464.71,-613.294C502.921,-609.981 551.397,-602.735 592,-587 623.761,-574.691 655.618,-550.894 674.572,-535.229"/>
<polygon fill="#9a32cd" stroke="#9a32cd" points="464.414,-609.807 454.725,-614.092 464.972,-616.784 464.414,-609.807"/>
<text text-anchor="middle" x="533" y="-616" font-family="Helvetica,sans-Serif" font-size="10.00"> tAbstract</text>
</g>
<!-- Node8 -->
<g id="node8" class="node"><title>Node8</title>
<polygon fill="white" stroke="#bfbfbf" points="340,-568.5 340,-587.5 456,-587.5 456,-568.5 340,-568.5"/>
<text text-anchor="middle" x="398" y="-575.5" font-family="Helvetica,sans-Serif" font-size="10.00">CRITICAL_SECTION **</text>
</g>
<!-- Node8&#45;&gt;Node4 -->
<g id="edge7" class="edge"><title>Node8&#45;&gt;Node4</title>
<path fill="none" stroke="#9a32cd" stroke-dasharray="5,2" d="M466.374,-573.019C503.715,-569.411 550.79,-563.464 592,-554 612.731,-549.239 635.207,-541.812 653.59,-535.112"/>
<polygon fill="#9a32cd" stroke="#9a32cd" points="465.745,-569.562 456.113,-573.975 466.395,-576.532 465.745,-569.562"/>
<text text-anchor="middle" x="533" y="-575" font-family="Helvetica,sans-Serif" font-size="10.00"> ptBegin</text>
</g>
<!-- Node9&#45;&gt;Node4 -->
<g id="edge9" class="edge"><title>Node9&#45;&gt;Node4</title>
<path fill="none" stroke="orange" stroke-dasharray="5,2" d="M464.632,-424.501C511.283,-428.388 569.495,-434.833 592,-444 626.332,-457.984 659.164,-486.91 677.35,-504.766"/>
<polygon fill="orange" stroke="orange" points="464.818,-421.005 454.568,-423.687 464.253,-427.982 464.818,-421.005"/>
<text text-anchor="middle" x="533" y="-447" font-family="Helvetica,sans-Serif" font-size="10.00"> &lt; CRITICAL_SECTION * &gt;</text>
</g>
<!-- Node9&#45;&gt;Node12 -->
<g id="edge20" class="edge"><title>Node9&#45;&gt;Node12</title>
<path fill="none" stroke="orange" stroke-dasharray="5,2" d="M464.725,-411.028C467.859,-410.666 470.963,-410.321 474,-410 529.118,-404.181 592.273,-399.47 636.37,-396.496"/>
<polygon fill="orange" stroke="orange" points="464.173,-407.569 454.66,-412.234 465.006,-414.519 464.173,-407.569"/>
<text text-anchor="middle" x="533" y="-413" font-family="Helvetica,sans-Serif" font-size="10.00"> &lt; tnData * &gt;</text>
</g>
<!-- Node10 -->
<g id="node10" class="node"><title>Node10</title>
<polygon fill="white" stroke="#bfbfbf" points="166.5,-278.5 166.5,-297.5 211.5,-297.5 211.5,-278.5 166.5,-278.5"/>
<text text-anchor="middle" x="189" y="-285.5" font-family="Helvetica,sans-Serif" font-size="10.00">tnData</text>
</g>
<!-- Node10&#45;&gt;Node9 -->
<g id="edge11" class="edge"><title>Node10&#45;&gt;Node9</title>
<path fill="none" stroke="#9a32cd" stroke-dasharray="5,2" d="M213.779,-303.163C253.683,-328.61 333.653,-379.605 373.422,-404.965"/>
<polygon fill="#9a32cd" stroke="#9a32cd" points="215.535,-300.132 205.221,-297.706 211.771,-306.034 215.535,-300.132"/>
<text text-anchor="middle" x="297" y="-384" font-family="Helvetica,sans-Serif" font-size="10.00"> tAbstract</text>
<text text-anchor="middle" x="297" y="-373" font-family="Helvetica,sans-Serif" font-size="10.00">ptBegin</text>
</g>
<!-- Node10&#45;&gt;Node12 -->
<g id="edge18" class="edge"><title>Node10&#45;&gt;Node12</title>
<path fill="none" stroke="#9a32cd" stroke-dasharray="5,2" d="M221.583,-290.794C248.42,-293.415 287.905,-297.854 322,-304 435.623,-324.481 566.532,-358.472 638.182,-377.985"/>
<polygon fill="#9a32cd" stroke="#9a32cd" points="221.892,-287.308 211.606,-289.847 221.23,-294.277 221.892,-287.308"/>
<text text-anchor="middle" x="398" y="-346" font-family="Helvetica,sans-Serif" font-size="10.00"> tAbstract</text>
<text text-anchor="middle" x="398" y="-335" font-family="Helvetica,sans-Serif" font-size="10.00">ptBegin</text>
</g>
<!-- Node10&#45;&gt;Node17 -->
<g id="edge29" class="edge"><title>Node10&#45;&gt;Node17</title>
<path fill="none" stroke="#9a32cd" stroke-dasharray="5,2" d="M199.343,-269.275C212.124,-246.002 237.476,-207.359 272,-191 293.183,-180.963 318.74,-179.039 341.21,-180.168"/>
<polygon fill="#9a32cd" stroke="#9a32cd" points="196.206,-267.719 194.644,-278.198 202.4,-270.98 196.206,-267.719"/>
<text text-anchor="middle" x="297" y="-194" font-family="Helvetica,sans-Serif" font-size="10.00"> tAbstract</text>
</g>
<!-- Node11&#45;&gt;Node3 -->
<g id="edge14" class="edge"><title>Node11&#45;&gt;Node3</title>
<path fill="none" stroke="orange" stroke-dasharray="5,2" d="M982.622,-403.312C1025.16,-409.996 1080.6,-418.709 1124.45,-425.599"/>
<polygon fill="orange" stroke="orange" points="983.076,-399.84 972.654,-401.746 981.989,-406.756 983.076,-399.84"/>
<text text-anchor="middle" x="1050" y="-425" font-family="Helvetica,sans-Serif" font-size="10.00"> &lt; CRITICAL_SECTION &gt;</text>
</g>
<!-- Node12&#45;&gt;Node11 -->
<g id="edge16" class="edge"><title>Node12&#45;&gt;Node11</title>
<path fill="none" stroke="#9a32cd" stroke-dasharray="5,2" d="M759.823,-393C791.481,-393 829.023,-393 859.25,-393"/>
<polygon fill="#9a32cd" stroke="#9a32cd" points="759.768,-389.5 749.768,-393 759.768,-396.5 759.768,-389.5"/>
<text text-anchor="middle" x="816" y="-396" font-family="Helvetica,sans-Serif" font-size="10.00"> vPointers</text>
</g>
<!-- Node13&#45;&gt;Node2 -->
<g id="edge21" class="edge"><title>Node13&#45;&gt;Node2</title>
<path fill="none" stroke="#9a32cd" stroke-dasharray="5,2" d="M759.668,-172.817C894.177,-190.877 1199.99,-231.937 1338.5,-250.534"/>
<polygon fill="#9a32cd" stroke="#9a32cd" points="759.887,-169.315 749.51,-171.453 758.955,-176.253 759.887,-169.315"/>
<text text-anchor="middle" x="1050" y="-222" font-family="Helvetica,sans-Serif" font-size="10.00"> lKey</text>
</g>
<!-- Node13&#45;&gt;Node18 -->
<g id="edge34" class="edge"><title>Node13&#45;&gt;Node18</title>
<path fill="none" stroke="#9a32cd" stroke-dasharray="5,2" d="M748.712,-145.68C786.08,-133.168 834.987,-116.792 870.074,-105.043"/>
<polygon fill="#9a32cd" stroke="#9a32cd" points="747.36,-142.442 738.989,-148.936 749.583,-149.079 747.36,-142.442"/>
<text text-anchor="middle" x="816" y="-133" font-family="Helvetica,sans-Serif" font-size="10.00"> lKey</text>
</g>
<!-- Node14 -->
<g id="node14" class="node"><title>Node14</title>
<g id="a_node14"><a xlink:href="class_kuszk_a_p_i_1_1_containers_1_1_list.html#struct_kuszk_a_p_i_1_1_containers_1_1_list_1_1_item_data" target="_top" xlink:title="Struktura przechowująca wskaźnik na element listy oraz wskaźnik na kolejny obiekt. ">
<polygon fill="white" stroke="black" points="124,-80 124,-110 254,-110 254,-80 124,-80"/>
<text text-anchor="start" x="132" y="-98" font-family="Helvetica,sans-Serif" font-size="10.00">KuszkAPI::Containers</text>
<text text-anchor="middle" x="189" y="-87" font-family="Helvetica,sans-Serif" font-size="10.00">::List&lt; tnData &gt;::ItemData</text>
</a>
</g>
</g>
<!-- Node14&#45;&gt;Node13 -->
<g id="edge23" class="edge"><title>Node14&#45;&gt;Node13</title>
<path fill="none" stroke="#9a32cd" stroke-dasharray="5,2" d="M264.121,-93.257C317.689,-93.0291 391.643,-94.8393 456,-104 522.757,-113.502 597.941,-134.455 645.136,-148.901"/>
<polygon fill="#9a32cd" stroke="#9a32cd" points="264.002,-89.7576 254.026,-93.325 264.049,-96.7574 264.002,-89.7576"/>
<text text-anchor="middle" x="398" y="-118" font-family="Helvetica,sans-Serif" font-size="10.00"> ptLast</text>
<text text-anchor="middle" x="398" y="-107" font-family="Helvetica,sans-Serif" font-size="10.00">ptBegin</text>
</g>
<!-- Node14&#45;&gt;Node14 -->
<g id="edge24" class="edge"><title>Node14&#45;&gt;Node14</title>
<path fill="none" stroke="#9a32cd" stroke-dasharray="5,2" d="M171.846,-120.598C174.19,-124.97 179.908,-128 189,-128 204.313,-128 210.055,-119.406 206.227,-110.275"/>
<polygon fill="#9a32cd" stroke="#9a32cd" points="175.344,-120.25 171.773,-110.275 168.344,-120.3 175.344,-120.25"/>
<text text-anchor="middle" x="189" y="-131" font-family="Helvetica,sans-Serif" font-size="10.00"> ptNext</text>
</g>
<!-- Node14&#45;&gt;Node17 -->
<g id="edge30" class="edge"><title>Node14&#45;&gt;Node17</title>
<path fill="none" stroke="#9a32cd" stroke-dasharray="5,2" d="M253.075,-113.336C275.808,-121.469 301.011,-132.337 322,-146 331.482,-152.172 330.658,-157.618 340,-164 345.353,-167.657 351.328,-170.974 357.34,-173.908"/>
<polygon fill="#9a32cd" stroke="#9a32cd" points="254.097,-109.986 243.503,-110.018 251.805,-116.6 254.097,-109.986"/>
<text text-anchor="middle" x="297" y="-160" font-family="Helvetica,sans-Serif" font-size="10.00"> ptLast</text>
<text text-anchor="middle" x="297" y="-149" font-family="Helvetica,sans-Serif" font-size="10.00">ptBegin</text>
</g>
<!-- Node15 -->
<g id="node15" class="node"><title>Node15</title>
<polygon fill="white" stroke="#bfbfbf" points="2,-12.5 2,-31.5 54,-31.5 54,-12.5 2,-12.5"/>
<text text-anchor="middle" x="28" y="-19.5" font-family="Helvetica,sans-Serif" font-size="10.00">tnData *</text>
</g>
<!-- Node15&#45;&gt;Node14 -->
<g id="edge25" class="edge"><title>Node15&#45;&gt;Node14</title>
<path fill="none" stroke="#9a32cd" stroke-dasharray="5,2" d="M58.8844,-35.7205C86.265,-48.2915 126.727,-66.8682 155.037,-79.866"/>
<polygon fill="#9a32cd" stroke="#9a32cd" points="60.3348,-32.5352 49.7865,-31.5435 57.414,-38.8968 60.3348,-32.5352"/>
<text text-anchor="middle" x="90" y="-60" font-family="Helvetica,sans-Serif" font-size="10.00"> ptData</text>
</g>
<!-- Node16 -->
<g id="node16" class="node"><title>Node16</title>
<polygon fill="white" stroke="#bfbfbf" points="377,-135.5 377,-154.5 419,-154.5 419,-135.5 377,-135.5"/>
<text text-anchor="middle" x="398" y="-142.5" font-family="Helvetica,sans-Serif" font-size="10.00">tnKey</text>
</g>
<!-- Node16&#45;&gt;Node13 -->
<g id="edge26" class="edge"><title>Node16&#45;&gt;Node13</title>
<path fill="none" stroke="#9a32cd" stroke-dasharray="5,2" d="M429.427,-145.024C467.5,-145.267 534.671,-146.394 592,-151 606.397,-152.157 621.9,-153.918 636.301,-155.774"/>
<polygon fill="#9a32cd" stroke="#9a32cd" points="429.057,-141.523 419.041,-144.976 429.024,-148.523 429.057,-141.523"/>
<text text-anchor="middle" x="533" y="-154" font-family="Helvetica,sans-Serif" font-size="10.00"> tAbstract</text>
</g>
<!-- Node17&#45;&gt;Node13 -->
<g id="edge27" class="edge"><title>Node17&#45;&gt;Node13</title>
<path fill="none" stroke="orange" stroke-dasharray="5,2" d="M464.86,-183.381C516.513,-178.973 587.593,-172.908 636.407,-168.743"/>
<polygon fill="orange" stroke="orange" points="464.467,-179.901 454.801,-184.239 465.062,-186.876 464.467,-179.901"/>
<text text-anchor="middle" x="533" y="-186" font-family="Helvetica,sans-Serif" font-size="10.00"> &lt; tnKey &gt;</text>
</g>
<!-- Node18&#45;&gt;Node2 -->
<g id="edge32" class="edge"><title>Node18&#45;&gt;Node2</title>
<path fill="none" stroke="orange" stroke-dasharray="5,2" d="M985.726,-89.4852C1071.11,-92.0398 1217.96,-107.217 1320,-176 1347.13,-194.289 1373.83,-220.972 1390.79,-239.331"/>
<polygon fill="orange" stroke="orange" points="985.71,-85.9838 975.626,-89.2335 985.535,-92.9816 985.71,-85.9838"/>
<text text-anchor="start" x="1145.5" y="-163" font-family="Helvetica,sans-Serif" font-size="10.00"> &lt; CRITICAL_SECTION,</text>
<text text-anchor="middle" x="1198" y="-152" font-family="Helvetica,sans-Serif" font-size="10.00"> tnKey &gt;</text>
</g>
<!-- Node19 -->
<g id="node19" class="node"><title>Node19</title>
<polygon fill="white" stroke="#bfbfbf" points="653,-0.5 653,-19.5 733,-19.5 733,-0.5 653,-0.5"/>
<text text-anchor="middle" x="693" y="-7.5" font-family="Helvetica,sans-Serif" font-size="10.00">Box&lt; tnData &gt;</text>
</g>
<!-- Node19&#45;&gt;Node18 -->
<g id="edge33" class="edge"><title>Node19&#45;&gt;Node18</title>
<path fill="none" stroke="#9a32cd" stroke-dasharray="5,2" d="M743.368,-7.04697C772.053,-7.11272 808.284,-10.3293 838,-23 864.896,-34.468 889.108,-58.9862 902.924,-74.9681"/>
<polygon fill="#9a32cd" stroke="#9a32cd" points="743.13,-3.54917 733.167,-7.15363 743.203,-10.5488 743.13,-3.54917"/>
<text text-anchor="middle" x="816" y="-26" font-family="Helvetica,sans-Serif" font-size="10.00"> bData</text>
</g>
</g>
</svg>
        <g id="navigator" transform="translate(0 0)" fill="#404254">
                <rect fill="#f2f5e9" fill-opacity="0.5" stroke="#606060" stroke-width=".5" x="0" y="0" width="60" height="60"/>
                <use id="zoomplus" xlink:href="#zoomPlus" x="17" y="9" onmousedown="handleZoom(evt,'in')"/>
                <use id="zoomminus" xlink:href="#zoomMin" x="42" y="9" onmousedown="handleZoom(evt,'out')"/>
                <use id="reset" xlink:href="#resetDef" x="30" y="36" onmousedown="handleReset()"/>
                <g id="arrowUp" xlink:href="#dirArrow" transform="translate(30 24)" onmousedown="handlePan(0,-1)">
                  <use xlink:href="#rim" fill="#404040">
                        <set attributeName="fill" to="#808080" begin="arrowUp.mouseover" end="arrowUp.mouseout"/>
                  </use>
                  <path fill="none" stroke="white" stroke-width="1.5" d="M0,-3.0v7 M-2.5,-0.5L0,-3.0L2.5,-0.5"/>
                </g>
                <g id="arrowRight" xlink:href="#dirArrow" transform="rotate(90) translate(36 -43)" onmousedown="handlePan(1,0)">
                  <use xlink:href="#rim" fill="#404040">
                        <set attributeName="fill" to="#808080" begin="arrowRight.mouseover" end="arrowRight.mouseout"/>
                  </use>
                  <path fill="none" stroke="white" stroke-width="1.5" d="M0,-3.0v7 M-2.5,-0.5L0,-3.0L2.5,-0.5"/>
                </g>
                <g id="arrowDown" xlink:href="#dirArrow" transform="rotate(180) translate(-30 -48)" onmousedown="handlePan(0,1)">
                  <use xlink:href="#rim" fill="#404040">
                        <set attributeName="fill" to="#808080" begin="arrowDown.mouseover" end="arrowDown.mouseout"/>
                  </use>
                  <path fill="none" stroke="white" stroke-width="1.5" d="M0,-3.0v7 M-2.5,-0.5L0,-3.0L2.5,-0.5"/>
                </g>
                <g id="arrowLeft" xlink:href="#dirArrow" transform="rotate(270) translate(-36 17)" onmousedown="handlePan(-1,0)">
                  <use xlink:href="#rim" fill="#404040">
                        <set attributeName="fill" to="#808080" begin="arrowLeft.mouseover" end="arrowLeft.mouseout"/>
                  </use>
                  <path fill="none" stroke="white" stroke-width="1.5" d="M0,-3.0v7 M-2.5,-0.5L0,-3.0L2.5,-0.5"/>
                </g>
        </g>
        <svg viewBox="0 0 15 15" width="100%" height="30px" preserveAspectRatio="xMaxYMin meet">
         <g id="arrow_out" transform="scale(0.3 0.3)">
          <a xlink:href="class_kuszk_a_p_i_1_1_core_1_1_sections__coll__graph_org.svg" target="_base">
           <rect id="button" ry="5" rx="5" y="6" x="6" height="38" width="38"
                fill="#f2f5e9" fill-opacity="0.5" stroke="#606060" stroke-width="1.0"/>
           <path id="arrow"
             d="M 11.500037,31.436501 C 11.940474,20.09759 22.043105,11.32322 32.158766,21.979434 L 37.068811,17.246167 C 37.068811,17.246167 37.088388,32 37.088388,32 L 22.160133,31.978069 C 22.160133,31.978069 26.997745,27.140456 26.997745,27.140456 C 18.528582,18.264221 13.291696,25.230495 11.500037,31.436501 z"
             style="fill:#404040;"/>
          </a>
         </g>
        </svg>
</svg>
