<?xml version="1.0" encoding="UTF-8" standalone="no"?>
<!DOCTYPE svg PUBLIC "-//W3C//DTD SVG 1.1//EN"
 "http://www.w3.org/Graphics/SVG/1.1/DTD/svg11.dtd">
<!-- Generated by graphviz version 2.36.0 (20140111.2315)
 -->
<!-- Title: KuszkAPI::Forms::Font::Add Pages: 1 -->
<svg width="354pt" height="87pt"
 viewBox="0.00 0.00 354.00 87.00" xmlns="http://www.w3.org/2000/svg" xmlns:xlink="http://www.w3.org/1999/xlink">
<g id="graph0" class="graph" transform="scale(1 1) rotate(0) translate(4 83)">
<title>KuszkAPI::Forms::Font::Add</title>
<polygon fill="white" stroke="none" points="-4,4 -4,-83 350,-83 350,4 -4,4"/>
<!-- Node1 -->
<g id="node1" class="node"><title>Node1</title>
<polygon fill="#bfbfbf" stroke="black" points="0.5,-29.5 0.5,-48.5 143.5,-48.5 143.5,-29.5 0.5,-29.5"/>
<text text-anchor="middle" x="72" y="-36.5" font-family="Helvetica,sans-Serif" font-size="10.00">KuszkAPI::Forms::Font::Add</text>
</g>
<!-- Node2 -->
<g id="node2" class="node"><title>Node2</title>
<g id="a_node2"><a xlink:href="class_kuszk_a_p_i_1_1_forms_1_1_common_dialog.html#acad75830ca797a2a19f350dd653793ad" target="_top" xlink:title="KuszkAPI::Forms::CommonDialog\l::GetFont">
<polygon fill="white" stroke="black" points="180,-49 180,-79 346,-79 346,-49 180,-49"/>
<text text-anchor="start" x="188" y="-67" font-family="Helvetica,sans-Serif" font-size="10.00">KuszkAPI::Forms::CommonDialog</text>
<text text-anchor="middle" x="263" y="-56" font-family="Helvetica,sans-Serif" font-size="10.00">::GetFont</text>
</a>
</g>
</g>
<!-- Node1&#45;&gt;Node2 -->
<g id="edge1" class="edge"><title>Node1&#45;&gt;Node2</title>
<path fill="none" stroke="midnightblue" d="M143.645,-48.3446C152.254,-49.4833 161.145,-50.6593 170.006,-51.8315"/>
<polygon fill="midnightblue" stroke="midnightblue" points="169.609,-55.3094 179.982,-53.151 170.527,-48.3698 169.609,-55.3094"/>
</g>
<!-- Node3 -->
<g id="node3" class="node"><title>Node3</title>
<g id="a_node3"><a xlink:href="class_kuszk_a_p_i_1_1_forms_1_1_common_dialog.html#acc9d1b14628ff1eeed3776fca02de339" target="_top" xlink:title="KuszkAPI::Forms::CommonDialog\l::GetLastFont">
<polygon fill="white" stroke="black" points="180,-0 180,-30 346,-30 346,-0 180,-0"/>
<text text-anchor="start" x="188" y="-18" font-family="Helvetica,sans-Serif" font-size="10.00">KuszkAPI::Forms::CommonDialog</text>
<text text-anchor="middle" x="263" y="-7" font-family="Helvetica,sans-Serif" font-size="10.00">::GetLastFont</text>
</a>
</g>
</g>
<!-- Node1&#45;&gt;Node3 -->
<g id="edge2" class="edge"><title>Node1&#45;&gt;Node3</title>
<path fill="none" stroke="midnightblue" d="M143.645,-30.0292C152.254,-28.936 161.145,-27.807 170.006,-26.6818"/>
<polygon fill="midnightblue" stroke="midnightblue" points="170.502,-30.147 179.982,-25.415 169.62,-23.2027 170.502,-30.147"/>
</g>
</g>
</svg>
