<?xml version="1.0" encoding="UTF-8" standalone="no"?>
<!DOCTYPE svg PUBLIC "-//W3C//DTD SVG 1.1//EN"
 "http://www.w3.org/Graphics/SVG/1.1/DTD/svg11.dtd">
<!-- Generated by graphviz version 2.36.0 (20140111.2315)
 -->
<!-- Title: KuszkAPI::Forms::TableBox::SetColumn Pages: 1 -->
<svg width="448pt" height="87pt"
 viewBox="0.00 0.00 448.00 87.00" xmlns="http://www.w3.org/2000/svg" xmlns:xlink="http://www.w3.org/1999/xlink">
<g id="graph0" class="graph" transform="scale(1 1) rotate(0) translate(4 83)">
<title>KuszkAPI::Forms::TableBox::SetColumn</title>
<polygon fill="white" stroke="none" points="-4,4 -4,-83 444,-83 444,4 -4,4"/>
<!-- Node1 -->
<g id="node1" class="node"><title>Node1</title>
<polygon fill="#bfbfbf" stroke="black" points="0,-24 0,-54 140,-54 140,-24 0,-24"/>
<text text-anchor="start" x="8" y="-42" font-family="Helvetica,sans-Serif" font-size="10.00">KuszkAPI::Forms::TableBox</text>
<text text-anchor="middle" x="70" y="-31" font-family="Helvetica,sans-Serif" font-size="10.00">::SetColumn</text>
</g>
<!-- Node2 -->
<g id="node2" class="node"><title>Node2</title>
<g id="a_node2"><a xlink:href="class_kuszk_a_p_i_1_1_containers_1_1_strings.html#a89fcfadc786b1736408189065ce5deaf" target="_top" xlink:title="KuszkAPI::Containers\l::Strings::Capacity">
<polygon fill="white" stroke="black" points="176.5,-49 176.5,-79 289.5,-79 289.5,-49 176.5,-49"/>
<text text-anchor="start" x="184.5" y="-67" font-family="Helvetica,sans-Serif" font-size="10.00">KuszkAPI::Containers</text>
<text text-anchor="middle" x="233" y="-56" font-family="Helvetica,sans-Serif" font-size="10.00">::Strings::Capacity</text>
</a>
</g>
</g>
<!-- Node1&#45;&gt;Node2 -->
<g id="edge1" class="edge"><title>Node1&#45;&gt;Node2</title>
<path fill="none" stroke="midnightblue" d="M140.213,-49.7473C148.911,-51.098 157.789,-52.4766 166.429,-53.8182"/>
<polygon fill="midnightblue" stroke="midnightblue" points="166.019,-57.2964 176.438,-55.3724 167.093,-50.3793 166.019,-57.2964"/>
</g>
<!-- Node3 -->
<g id="node3" class="node"><title>Node3</title>
<g id="a_node3"><a xlink:href="class_kuszk_a_p_i_1_1_containers_1_1_strings.html#a9021319df4615931b43c7e715bcf5bf9" target="_top" xlink:title="KuszkAPI::Containers\l::Strings::GetData">
<polygon fill="white" stroke="black" points="176.5,-0 176.5,-30 289.5,-30 289.5,-0 176.5,-0"/>
<text text-anchor="start" x="184.5" y="-18" font-family="Helvetica,sans-Serif" font-size="10.00">KuszkAPI::Containers</text>
<text text-anchor="middle" x="233" y="-7" font-family="Helvetica,sans-Serif" font-size="10.00">::Strings::GetData</text>
</a>
</g>
</g>
<!-- Node1&#45;&gt;Node3 -->
<g id="edge2" class="edge"><title>Node1&#45;&gt;Node3</title>
<path fill="none" stroke="midnightblue" d="M140.213,-28.6826C148.911,-27.3859 157.789,-26.0625 166.429,-24.7745"/>
<polygon fill="midnightblue" stroke="midnightblue" points="167.063,-28.2188 176.438,-23.2825 166.031,-21.2953 167.063,-28.2188"/>
</g>
<!-- Node4 -->
<g id="node4" class="node"><title>Node4</title>
<g id="a_node4"><a xlink:href="class_kuszk_a_p_i_1_1_containers_1_1_string.html#a8ca4879ad62f0f4521b7e13eaa711c2c" target="_top" xlink:title="KuszkAPI::Containers\l::String::GetData">
<polygon fill="white" stroke="black" points="326.5,-0 326.5,-30 439.5,-30 439.5,-0 326.5,-0"/>
<text text-anchor="start" x="334.5" y="-18" font-family="Helvetica,sans-Serif" font-size="10.00">KuszkAPI::Containers</text>
<text text-anchor="middle" x="383" y="-7" font-family="Helvetica,sans-Serif" font-size="10.00">::String::GetData</text>
</a>
</g>
</g>
<!-- Node3&#45;&gt;Node4 -->
<g id="edge3" class="edge"><title>Node3&#45;&gt;Node4</title>
<path fill="none" stroke="midnightblue" d="M289.531,-15C298.138,-15 307.101,-15 315.913,-15"/>
<polygon fill="midnightblue" stroke="midnightblue" points="316.158,-18.5001 326.158,-15 316.158,-11.5001 316.158,-18.5001"/>
</g>
</g>
</svg>
