<?xml version="1.0" encoding="UTF-8" standalone="no"?>
<!DOCTYPE svg PUBLIC "-//W3C//DTD SVG 1.1//EN"
 "http://www.w3.org/Graphics/SVG/1.1/DTD/svg11.dtd">
<!-- Generated by graphviz version 2.36.0 (20140111.2315)
 -->
<!-- Title: KuszkAPI::Forms::TableBox Pages: 1 -->
<svg width="2440pt" height="885pt"
 viewBox="0.00 0.00 2440.00 885.00" xmlns="http://www.w3.org/2000/svg" xmlns:xlink="http://www.w3.org/1999/xlink">
<g id="graph0" class="graph" transform="scale(1 1) rotate(0) translate(4 881)">
<title>KuszkAPI::Forms::TableBox</title>
<polygon fill="white" stroke="none" points="-4,4 -4,-881 2436,-881 2436,4 -4,4"/>
<!-- Node1 -->
<g id="node1" class="node"><title>Node1</title>
<polygon fill="#bfbfbf" stroke="black" points="2292,-631.5 2292,-650.5 2432,-650.5 2432,-631.5 2292,-631.5"/>
<text text-anchor="middle" x="2362" y="-638.5" font-family="Helvetica,sans-Serif" font-size="10.00">KuszkAPI::Forms::TableBox</text>
</g>
<!-- Node2 -->
<g id="node2" class="node"><title>Node2</title>
<g id="a_node2"><a xlink:href="class_kuszk_a_p_i_1_1_forms_1_1_list_control.html" target="_top" xlink:title="KuszkAPI::Forms::ListControl">
<polygon fill="white" stroke="black" points="2070,-650.5 2070,-669.5 2216,-669.5 2216,-650.5 2070,-650.5"/>
<text text-anchor="middle" x="2143" y="-657.5" font-family="Helvetica,sans-Serif" font-size="10.00">KuszkAPI::Forms::ListControl</text>
</a>
</g>
</g>
<!-- Node2&#45;&gt;Node1 -->
<g id="edge1" class="edge"><title>Node2&#45;&gt;Node1</title>
<path fill="none" stroke="midnightblue" d="M2226.41,-652.784C2248.04,-650.89 2271.15,-648.867 2292,-647.041"/>
<polygon fill="midnightblue" stroke="midnightblue" points="2225.91,-649.314 2216.26,-653.673 2226.53,-656.288 2225.91,-649.314"/>
</g>
<!-- Node3 -->
<g id="node3" class="node"><title>Node3</title>
<g id="a_node3"><a xlink:href="class_kuszk_a_p_i_1_1_forms_1_1_control.html" target="_top" xlink:title="KuszkAPI::Forms::Control">
<polygon fill="white" stroke="black" points="1860.5,-650.5 1860.5,-669.5 1991.5,-669.5 1991.5,-650.5 1860.5,-650.5"/>
<text text-anchor="middle" x="1926" y="-657.5" font-family="Helvetica,sans-Serif" font-size="10.00">KuszkAPI::Forms::Control</text>
</a>
</g>
</g>
<!-- Node3&#45;&gt;Node2 -->
<g id="edge2" class="edge"><title>Node3&#45;&gt;Node2</title>
<path fill="none" stroke="midnightblue" d="M2001.79,-660C2023.78,-660 2047.8,-660 2069.63,-660"/>
<polygon fill="midnightblue" stroke="midnightblue" points="2001.51,-656.5 1991.51,-660 2001.51,-663.5 2001.51,-656.5"/>
</g>
<!-- Node4 -->
<g id="node4" class="node"><title>Node4</title>
<g id="a_node4"><a xlink:href="class_kuszk_a_p_i_1_1_forms_1_1_window.html" target="_top" xlink:title="KuszkAPI::Forms::Window">
<polygon fill="white" stroke="black" points="1644,-689.5 1644,-708.5 1778,-708.5 1778,-689.5 1644,-689.5"/>
<text text-anchor="middle" x="1711" y="-696.5" font-family="Helvetica,sans-Serif" font-size="10.00">KuszkAPI::Forms::Window</text>
</a>
</g>
</g>
<!-- Node4&#45;&gt;Node3 -->
<g id="edge3" class="edge"><title>Node4&#45;&gt;Node3</title>
<path fill="none" stroke="midnightblue" d="M1774.07,-687.635C1805.49,-681.882 1843.2,-674.978 1873.06,-669.509"/>
<polygon fill="midnightblue" stroke="midnightblue" points="1773.31,-684.216 1764.11,-689.46 1774.57,-691.101 1773.31,-684.216"/>
</g>
<!-- Node5 -->
<g id="node5" class="node"><title>Node5</title>
<polygon fill="white" stroke="#bfbfbf" points="1259.5,-661.5 1259.5,-680.5 1306.5,-680.5 1306.5,-661.5 1259.5,-661.5"/>
<text text-anchor="middle" x="1283" y="-668.5" font-family="Helvetica,sans-Serif" font-size="10.00">HWND</text>
</g>
<!-- Node5&#45;&gt;Node4 -->
<g id="edge4" class="edge"><title>Node5&#45;&gt;Node4</title>
<path fill="none" stroke="#9a32cd" stroke-dasharray="5,2" d="M1316.9,-676.542C1334.41,-679.356 1356.34,-682.664 1376,-685 1486.53,-698.133 1514.69,-700.663 1626,-700 1631.83,-699.965 1637.9,-699.917 1643.97,-699.86"/>
<polygon fill="#9a32cd" stroke="#9a32cd" points="1317.06,-673.021 1306.63,-674.866 1315.94,-679.93 1317.06,-673.021"/>
<text text-anchor="middle" x="1513" y="-715" font-family="Helvetica,sans-Serif" font-size="10.00"> hUchwyt</text>
<text text-anchor="middle" x="1513" y="-704" font-family="Helvetica,sans-Serif" font-size="10.00">hOwner</text>
</g>
<!-- Node6 -->
<g id="node6" class="node"><title>Node6</title>
<g id="a_node6"><a xlink:href="class_kuszk_a_p_i_1_1_forms_1_1_window_1_1_timer.html" target="_top" xlink:title="KuszkAPI::Forms::Window\l::Timer">
<polygon fill="white" stroke="black" points="1446,-652 1446,-682 1580,-682 1580,-652 1446,-652"/>
<text text-anchor="start" x="1454" y="-670" font-family="Helvetica,sans-Serif" font-size="10.00">KuszkAPI::Forms::Window</text>
<text text-anchor="middle" x="1513" y="-659" font-family="Helvetica,sans-Serif" font-size="10.00">::Timer</text>
</a>
</g>
</g>
<!-- Node5&#45;&gt;Node6 -->
<g id="edge6" class="edge"><title>Node5&#45;&gt;Node6</title>
<path fill="none" stroke="#9a32cd" stroke-dasharray="5,2" d="M1316.86,-670.424C1350.39,-669.835 1403.35,-668.906 1445.65,-668.164"/>
<polygon fill="#9a32cd" stroke="#9a32cd" points="1316.63,-666.927 1306.7,-670.602 1316.75,-673.926 1316.63,-666.927"/>
<text text-anchor="middle" x="1402" y="-673" font-family="Helvetica,sans-Serif" font-size="10.00"> hOwner</text>
</g>
<!-- Node28 -->
<g id="node28" class="node"><title>Node28</title>
<g id="a_node28"><a xlink:href="class_kuszk_a_p_i_1_1_forms_1_1_control_1_1_toop_tip.html" target="_top" xlink:title="KuszkAPI::Forms::Control\l::ToopTip">
<polygon fill="white" stroke="black" points="1447.5,-600 1447.5,-630 1578.5,-630 1578.5,-600 1447.5,-600"/>
<text text-anchor="start" x="1455.5" y="-618" font-family="Helvetica,sans-Serif" font-size="10.00">KuszkAPI::Forms::Control</text>
<text text-anchor="middle" x="1513" y="-607" font-family="Helvetica,sans-Serif" font-size="10.00">::ToopTip</text>
</a>
</g>
</g>
<!-- Node5&#45;&gt;Node28 -->
<g id="edge50" class="edge"><title>Node5&#45;&gt;Node28</title>
<path fill="none" stroke="#9a32cd" stroke-dasharray="5,2" d="M1311.75,-656.851C1329.64,-648.332 1353.67,-638.005 1376,-632 1398.86,-625.853 1424.5,-621.916 1447.3,-619.4"/>
<polygon fill="#9a32cd" stroke="#9a32cd" points="1309.95,-653.835 1302.49,-661.359 1313.01,-660.129 1309.95,-653.835"/>
<text text-anchor="middle" x="1402" y="-657" font-family="Helvetica,sans-Serif" font-size="10.00"> hUchwyt</text>
<text text-anchor="middle" x="1402" y="-646" font-family="Helvetica,sans-Serif" font-size="10.00">hOwner</text>
<text text-anchor="middle" x="1402" y="-635" font-family="Helvetica,sans-Serif" font-size="10.00">hWindow</text>
</g>
<!-- Node6&#45;&gt;Node4 -->
<g id="edge5" class="edge"><title>Node6&#45;&gt;Node4</title>
<path fill="none" stroke="#9a32cd" stroke-dasharray="5,2" d="M1590.02,-679.412C1610.53,-682.76 1632.39,-686.329 1651.76,-689.491"/>
<polygon fill="#9a32cd" stroke="#9a32cd" points="1590.52,-675.946 1580.08,-677.789 1589.39,-682.855 1590.52,-675.946"/>
<text text-anchor="middle" x="1612" y="-688" font-family="Helvetica,sans-Serif" font-size="10.00"> Timer</text>
</g>
<!-- Node7 -->
<g id="node7" class="node"><title>Node7</title>
<g id="a_node7"><a xlink:href="class_kuszk_a_p_i_1_1_containers_1_1_map.html" target="_top" xlink:title="KuszkAPI::Containers\l::Map\&lt; UINT_PTR, unsigned \&gt;">
<polygon fill="white" stroke="black" points="1208.5,-536 1208.5,-566 1357.5,-566 1357.5,-536 1208.5,-536"/>
<text text-anchor="start" x="1216.5" y="-554" font-family="Helvetica,sans-Serif" font-size="10.00">KuszkAPI::Containers</text>
<text text-anchor="middle" x="1283" y="-543" font-family="Helvetica,sans-Serif" font-size="10.00">::Map&lt; UINT_PTR, unsigned &gt;</text>
</a>
</g>
</g>
<!-- Node7&#45;&gt;Node6 -->
<g id="edge7" class="edge"><title>Node7&#45;&gt;Node6</title>
<path fill="none" stroke="#9a32cd" stroke-dasharray="5,2" d="M1359.47,-569.441C1383.31,-577.97 1408.5,-590.082 1428,-607 1440.33,-617.694 1433.84,-628.12 1446,-639 1451.75,-644.145 1458.59,-648.441 1465.65,-651.996"/>
<polygon fill="#9a32cd" stroke="#9a32cd" points="1360.3,-566.027 1349.7,-566.116 1358.04,-572.653 1360.3,-566.027"/>
<text text-anchor="middle" x="1402" y="-610" font-family="Helvetica,sans-Serif" font-size="10.00"> mTimer</text>
</g>
<!-- Node8 -->
<g id="node8" class="node"><title>Node8</title>
<g id="a_node8"><a xlink:href="class_kuszk_a_p_i_1_1_containers_1_1_list.html" target="_top" xlink:title="KuszkAPI::Containers\l::List\&lt; unsigned \&gt;">
<polygon fill="white" stroke="black" points="568.5,-120 568.5,-150 681.5,-150 681.5,-120 568.5,-120"/>
<text text-anchor="start" x="576.5" y="-138" font-family="Helvetica,sans-Serif" font-size="10.00">KuszkAPI::Containers</text>
<text text-anchor="middle" x="625" y="-127" font-family="Helvetica,sans-Serif" font-size="10.00">::List&lt; unsigned &gt;</text>
</a>
</g>
</g>
<!-- Node8&#45;&gt;Node7 -->
<g id="edge8" class="edge"><title>Node8&#45;&gt;Node7</title>
<path fill="none" stroke="#9a32cd" stroke-dasharray="5,2" d="M691.461,-148.793C745.537,-161.715 823.314,-183.882 886,-216 993.906,-271.287 1014.47,-298.244 1104,-380 1146.06,-418.404 1160.84,-426.078 1190,-475 1202.31,-495.648 1190.89,-509.118 1208,-526 1211.96,-529.905 1216.55,-533.2 1221.46,-535.981"/>
<polygon fill="#9a32cd" stroke="#9a32cd" points="692.184,-145.368 681.649,-146.488 690.583,-152.182 692.184,-145.368"/>
<text text-anchor="middle" x="938" y="-269" font-family="Helvetica,sans-Serif" font-size="10.00"> lKey</text>
</g>
<!-- Node9 -->
<g id="node9" class="node"><title>Node9</title>
<g id="a_node9"><a xlink:href="class_kuszk_a_p_i_1_1_containers_1_1_container.html" target="_top" xlink:title="Implementacja bazy dla modułu kontenerów. ">
<polygon fill="white" stroke="black" points="132.5,-418 132.5,-448 245.5,-448 245.5,-418 132.5,-418"/>
<text text-anchor="start" x="140.5" y="-436" font-family="Helvetica,sans-Serif" font-size="10.00">KuszkAPI::Containers</text>
<text text-anchor="middle" x="189" y="-425" font-family="Helvetica,sans-Serif" font-size="10.00">::Container</text>
</a>
</g>
</g>
<!-- Node9&#45;&gt;Node8 -->
<g id="edge9" class="edge"><title>Node9&#45;&gt;Node8</title>
<path fill="none" stroke="midnightblue" d="M195.901,-408.087C206.542,-366.363 231.665,-280.758 272,-218 295.279,-181.78 300.703,-166.595 340,-149 413.665,-116.017 509.079,-119.454 568.412,-126.244"/>
<polygon fill="midnightblue" stroke="midnightblue" points="192.467,-407.393 193.451,-417.942 199.26,-409.082 192.467,-407.393"/>
</g>
<!-- Node13 -->
<g id="node13" class="node"><title>Node13</title>
<g id="a_node13"><a xlink:href="class_kuszk_a_p_i_1_1_containers_1_1_list.html" target="_top" xlink:title="Implementacja szablonu listy dla modułu kontenerów. ">
<polygon fill="white" stroke="black" points="340.5,-222 340.5,-252 453.5,-252 453.5,-222 340.5,-222"/>
<text text-anchor="start" x="348.5" y="-240" font-family="Helvetica,sans-Serif" font-size="10.00">KuszkAPI::Containers</text>
<text text-anchor="middle" x="397" y="-229" font-family="Helvetica,sans-Serif" font-size="10.00">::List&lt; tnData &gt;</text>
</a>
</g>
</g>
<!-- Node9&#45;&gt;Node13 -->
<g id="edge16" class="edge"><title>Node9&#45;&gt;Node13</title>
<path fill="none" stroke="midnightblue" d="M199.962,-408.084C212.848,-378.457 237.77,-329.002 272,-297 293.837,-276.584 323.913,-261.8 348.975,-252.016"/>
<polygon fill="midnightblue" stroke="midnightblue" points="196.577,-407.102 195.91,-417.676 203.026,-409.826 196.577,-407.102"/>
</g>
<!-- Node16 -->
<g id="node16" class="node"><title>Node16</title>
<g id="a_node16"><a xlink:href="class_kuszk_a_p_i_1_1_containers_1_1_vector.html" target="_top" xlink:title="KuszkAPI::Containers\l::Vector\&lt; UINT_PTR * \&gt;">
<polygon fill="white" stroke="black" points="564.5,-429 564.5,-459 685.5,-459 685.5,-429 564.5,-429"/>
<text text-anchor="start" x="572.5" y="-447" font-family="Helvetica,sans-Serif" font-size="10.00">KuszkAPI::Containers</text>
<text text-anchor="middle" x="625" y="-436" font-family="Helvetica,sans-Serif" font-size="10.00">::Vector&lt; UINT_PTR * &gt;</text>
</a>
</g>
</g>
<!-- Node9&#45;&gt;Node16 -->
<g id="edge22" class="edge"><title>Node9&#45;&gt;Node16</title>
<path fill="none" stroke="midnightblue" d="M256.023,-434.673C339.89,-436.799 483.403,-440.436 564.192,-442.484"/>
<polygon fill="midnightblue" stroke="midnightblue" points="255.935,-431.17 245.849,-434.416 255.757,-438.168 255.935,-431.17"/>
</g>
<!-- Node19 -->
<g id="node19" class="node"><title>Node19</title>
<g id="a_node19"><a xlink:href="class_kuszk_a_p_i_1_1_containers_1_1_vector.html" target="_top" xlink:title="KuszkAPI::Containers\l::Vector\&lt; tnData \&gt;">
<polygon fill="white" stroke="black" points="340.5,-576 340.5,-606 453.5,-606 453.5,-576 340.5,-576"/>
<text text-anchor="start" x="348.5" y="-594" font-family="Helvetica,sans-Serif" font-size="10.00">KuszkAPI::Containers</text>
<text text-anchor="middle" x="397" y="-583" font-family="Helvetica,sans-Serif" font-size="10.00">::Vector&lt; tnData &gt;</text>
</a>
</g>
</g>
<!-- Node9&#45;&gt;Node19 -->
<g id="edge27" class="edge"><title>Node9&#45;&gt;Node19</title>
<path fill="none" stroke="midnightblue" d="M212.338,-455.587C240.336,-483.026 290.661,-529.538 340,-561 348.184,-566.218 357.358,-571.394 365.875,-575.94"/>
<polygon fill="midnightblue" stroke="midnightblue" points="214.624,-452.925 205.053,-448.382 209.702,-457.903 214.624,-452.925"/>
</g>
<!-- Node21 -->
<g id="node21" class="node"><title>Node21</title>
<g id="a_node21"><a xlink:href="class_kuszk_a_p_i_1_1_containers_1_1_vector.html" target="_top" xlink:title="KuszkAPI::Containers\l::Vector\&lt; tnData * \&gt;">
<polygon fill="white" stroke="black" points="568.5,-603 568.5,-633 681.5,-633 681.5,-603 568.5,-603"/>
<text text-anchor="start" x="576.5" y="-621" font-family="Helvetica,sans-Serif" font-size="10.00">KuszkAPI::Containers</text>
<text text-anchor="middle" x="625" y="-610" font-family="Helvetica,sans-Serif" font-size="10.00">::Vector&lt; tnData * &gt;</text>
</a>
</g>
</g>
<!-- Node9&#45;&gt;Node21 -->
<g id="edge34" class="edge"><title>Node9&#45;&gt;Node21</title>
<path fill="none" stroke="midnightblue" d="M255.526,-449.447C277.336,-456.188 301.323,-465.025 322,-476 330.952,-480.752 331.319,-484.77 340,-490 421.762,-539.26 525.78,-581.439 582.5,-602.886"/>
<polygon fill="midnightblue" stroke="midnightblue" points="256.262,-446.014 245.678,-446.497 254.253,-452.719 256.262,-446.014"/>
</g>
<!-- Node24 -->
<g id="node24" class="node"><title>Node24</title>
<g id="a_node24"><a xlink:href="class_kuszk_a_p_i_1_1_containers_1_1_list.html" target="_top" xlink:title="KuszkAPI::Containers\l::List\&lt; tnKey \&gt;">
<polygon fill="white" stroke="black" points="568.5,-250 568.5,-280 681.5,-280 681.5,-250 568.5,-250"/>
<text text-anchor="start" x="576.5" y="-268" font-family="Helvetica,sans-Serif" font-size="10.00">KuszkAPI::Containers</text>
<text text-anchor="middle" x="625" y="-257" font-family="Helvetica,sans-Serif" font-size="10.00">::List&lt; tnKey &gt;</text>
</a>
</g>
</g>
<!-- Node9&#45;&gt;Node24 -->
<g id="edge41" class="edge"><title>Node9&#45;&gt;Node24</title>
<path fill="none" stroke="midnightblue" d="M238.244,-414.325C324.97,-380.754 505.562,-310.847 585.035,-280.083"/>
<polygon fill="midnightblue" stroke="midnightblue" points="236.959,-411.069 228.897,-417.943 239.486,-417.597 236.959,-411.069"/>
</g>
<!-- Node10 -->
<g id="node10" class="node"><title>Node10</title>
<g id="a_node10"><a xlink:href="namespace_3global_scope_4.html#classunsigned" target="_top" xlink:title="unsigned">
<polygon fill="white" stroke="black" points="0,-644.5 0,-663.5 56,-663.5 56,-644.5 0,-644.5"/>
<text text-anchor="middle" x="28" y="-651.5" font-family="Helvetica,sans-Serif" font-size="10.00">unsigned</text>
</a>
</g>
</g>
<!-- Node10&#45;&gt;Node1 -->
<g id="edge56" class="edge"><title>Node10&#45;&gt;Node1</title>
<path fill="none" stroke="#9a32cd" stroke-dasharray="5,2" d="M32.8371,-673.56C38.592,-699.421 51.2859,-745.609 74,-779 108.25,-829.349 127.106,-855 188,-855 188,-855 188,-855 2144,-855 2261.99,-855 2339.08,-692.616 2356.99,-650.751"/>
<polygon fill="#9a32cd" stroke="#9a32cd" points="36.2095,-672.589 30.728,-663.522 29.3591,-674.028 36.2095,-672.589"/>
<text text-anchor="middle" x="1156" y="-869" font-family="Helvetica,sans-Serif" font-size="10.00"> uColumnCount</text>
<text text-anchor="middle" x="1156" y="-858" font-family="Helvetica,sans-Serif" font-size="10.00">uGroupCount</text>
</g>
<!-- Node10&#45;&gt;Node3 -->
<g id="edge52" class="edge"><title>Node10&#45;&gt;Node3</title>
<path fill="none" stroke="#9a32cd" stroke-dasharray="5,2" d="M35.5644,-673.15C42.8712,-692.623 56.0562,-722.982 74,-745 111.858,-791.453 128.074,-817 188,-817 188,-817 188,-817 1712,-817 1811.69,-817 1895.42,-704.192 1918.62,-669.821"/>
<polygon fill="#9a32cd" stroke="#9a32cd" points="38.7973,-671.797 32.1169,-663.574 32.2111,-674.168 38.7973,-671.797"/>
<text text-anchor="middle" x="938" y="-820" font-family="Helvetica,sans-Serif" font-size="10.00"> uId</text>
</g>
<!-- Node10&#45;&gt;Node7 -->
<g id="edge19" class="edge"><title>Node10&#45;&gt;Node7</title>
<path fill="none" stroke="#9a32cd" stroke-dasharray="5,2" d="M40.5898,-672.413C63.9216,-706.95 120.165,-778 188,-778 188,-778 188,-778 1048,-778 1108.99,-778 1233.11,-617.143 1270.86,-566.247"/>
<polygon fill="#9a32cd" stroke="#9a32cd" points="43.308,-670.176 34.8995,-663.73 37.4532,-674.013 43.308,-670.176"/>
<text text-anchor="middle" x="625" y="-781" font-family="Helvetica,sans-Serif" font-size="10.00"> uIlosc</text>
</g>
<!-- Node10&#45;&gt;Node8 -->
<g id="edge14" class="edge"><title>Node10&#45;&gt;Node8</title>
<path fill="none" stroke="#9a32cd" stroke-dasharray="5,2" d="M29.6739,-634.325C32.7565,-548.89 46.5562,-212.681 74,-175 176.061,-34.8689 280.705,-82.2944 454,-87 494.934,-88.1115 506.635,-80.7204 546,-92 566.662,-97.9205 587.882,-110.089 602.963,-119.975"/>
<polygon fill="#9a32cd" stroke="#9a32cd" points="26.1711,-634.346 29.3165,-644.463 33.1668,-634.593 26.1711,-634.346"/>
<text text-anchor="middle" x="297" y="-81" font-family="Helvetica,sans-Serif" font-size="10.00"> tAbstract</text>
</g>
<!-- Node10&#45;&gt;Node9 -->
<g id="edge10" class="edge"><title>Node10&#45;&gt;Node9</title>
<path fill="none" stroke="#9a32cd" stroke-dasharray="5,2" d="M29.0287,-634.16C30.1102,-599.812 37.0281,-528.758 74,-485 89.0223,-467.221 111.402,-455.219 132.365,-447.272"/>
<polygon fill="#9a32cd" stroke="#9a32cd" points="25.5266,-634.249 28.8506,-644.309 32.5256,-634.372 25.5266,-634.249"/>
<text text-anchor="middle" x="90" y="-499" font-family="Helvetica,sans-Serif" font-size="10.00"> uIlosc</text>
<text text-anchor="middle" x="90" y="-488" font-family="Helvetica,sans-Serif" font-size="10.00">uMode</text>
</g>
<!-- Node15 -->
<g id="node15" class="node"><title>Node15</title>
<g id="a_node15"><a xlink:href="class_kuszk_a_p_i_1_1_containers_1_1_box.html" target="_top" xlink:title="KuszkAPI::Containers\l::Box\&lt; UINT_PTR \&gt;">
<polygon fill="white" stroke="black" points="990.5,-525 990.5,-555 1103.5,-555 1103.5,-525 990.5,-525"/>
<text text-anchor="start" x="998.5" y="-543" font-family="Helvetica,sans-Serif" font-size="10.00">KuszkAPI::Containers</text>
<text text-anchor="middle" x="1047" y="-532" font-family="Helvetica,sans-Serif" font-size="10.00">::Box&lt; UINT_PTR &gt;</text>
</a>
</g>
</g>
<!-- Node10&#45;&gt;Node15 -->
<g id="edge30" class="edge"><title>Node10&#45;&gt;Node15</title>
<path fill="none" stroke="#9a32cd" stroke-dasharray="5,2" d="M42.8416,-636.369C59.6128,-616.539 89.8948,-585.361 124,-572 282.917,-509.742 816.259,-528.967 990.45,-537.153"/>
<polygon fill="#9a32cd" stroke="#9a32cd" points="39.9467,-634.38 36.315,-644.333 45.3608,-638.817 39.9467,-634.38"/>
<text text-anchor="middle" x="509" y="-533" font-family="Helvetica,sans-Serif" font-size="10.00"> uIlosc</text>
</g>
<!-- Node10&#45;&gt;Node16 -->
<g id="edge24" class="edge"><title>Node10&#45;&gt;Node16</title>
<path fill="none" stroke="#9a32cd" stroke-dasharray="5,2" d="M29.7803,-634.182C32.0187,-596.94 40.6632,-514.954 74,-456 89.1628,-429.185 97.0876,-422.989 124,-408 288.022,-316.648 371.458,-319.838 546,-389 569.569,-398.339 592.826,-416.161 607.726,-428.99"/>
<polygon fill="#9a32cd" stroke="#9a32cd" points="26.2819,-634.064 29.271,-644.228 33.2729,-634.419 26.2819,-634.064"/>
<text text-anchor="middle" x="297" y="-349" font-family="Helvetica,sans-Serif" font-size="10.00"> uDataSize</text>
</g>
<!-- Node10&#45;&gt;Node19 -->
<g id="edge29" class="edge"><title>Node10&#45;&gt;Node19</title>
<path fill="none" stroke="#9a32cd" stroke-dasharray="5,2" d="M66.1605,-651.842C122.23,-648.019 231.522,-638.352 322,-617 333.928,-614.185 346.615,-610.136 358.053,-606.068"/>
<polygon fill="#9a32cd" stroke="#9a32cd" points="65.751,-648.361 56.0022,-652.51 66.2104,-655.346 65.751,-648.361"/>
<text text-anchor="middle" x="189" y="-650" font-family="Helvetica,sans-Serif" font-size="10.00"> uDataSize</text>
</g>
<!-- Node20 -->
<g id="node20" class="node"><title>Node20</title>
<g id="a_node20"><a xlink:href="class_kuszk_a_p_i_1_1_containers_1_1_box.html" target="_top" xlink:title="Implementacja szablonu pudełka dla modułu kontenerów. ">
<polygon fill="white" stroke="black" points="769.5,-603 769.5,-633 882.5,-633 882.5,-603 769.5,-603"/>
<text text-anchor="start" x="777.5" y="-621" font-family="Helvetica,sans-Serif" font-size="10.00">KuszkAPI::Containers</text>
<text text-anchor="middle" x="826" y="-610" font-family="Helvetica,sans-Serif" font-size="10.00">::Box&lt; tnData &gt;</text>
</a>
</g>
</g>
<!-- Node10&#45;&gt;Node20 -->
<g id="edge32" class="edge"><title>Node10&#45;&gt;Node20</title>
<path fill="none" stroke="#9a32cd" stroke-dasharray="5,2" d="M50.9201,-669.054C57.9752,-673.093 66.0351,-676.915 74,-679 159.132,-701.289 183.999,-679.778 272,-680 294.222,-680.056 299.786,-680.589 322,-680 484.6,-675.692 524.924,-664.621 686,-642 713.574,-638.128 720.549,-637.663 748,-633 754.848,-631.837 762.023,-630.542 769.124,-629.213"/>
<polygon fill="#9a32cd" stroke="#9a32cd" points="52.3719,-665.837 42.0256,-663.555 48.6909,-671.791 52.3719,-665.837"/>
<text text-anchor="middle" x="397" y="-683" font-family="Helvetica,sans-Serif" font-size="10.00"> uIlosc</text>
</g>
<!-- Node10&#45;&gt;Node21 -->
<g id="edge36" class="edge"><title>Node10&#45;&gt;Node21</title>
<path fill="none" stroke="#9a32cd" stroke-dasharray="5,2" d="M66.3422,-662.948C68.9235,-663.366 71.4941,-663.725 74,-664 88.1373,-665.552 91.7781,-664.096 106,-664 260.727,-662.955 299.974,-668.754 454,-654 495.171,-650.056 505.575,-648.742 546,-640 555.214,-638.008 564.948,-635.551 574.298,-633.01"/>
<polygon fill="#9a32cd" stroke="#9a32cd" points="66.9196,-659.496 56.4466,-661.097 65.6326,-666.376 66.9196,-659.496"/>
<text text-anchor="middle" x="297" y="-668" font-family="Helvetica,sans-Serif" font-size="10.00"> uDataSize</text>
</g>
<!-- Node22 -->
<g id="node22" class="node"><title>Node22</title>
<g id="a_node22"><a xlink:href="class_kuszk_a_p_i_1_1_containers_1_1_map.html" target="_top" xlink:title="KuszkAPI::Containers\l::Map\&lt; tnData, tnKey \&gt;">
<polygon fill="white" stroke="black" points="766.5,-226 766.5,-256 885.5,-256 885.5,-226 766.5,-226"/>
<text text-anchor="start" x="774.5" y="-244" font-family="Helvetica,sans-Serif" font-size="10.00">KuszkAPI::Containers</text>
<text text-anchor="middle" x="826" y="-233" font-family="Helvetica,sans-Serif" font-size="10.00">::Map&lt; tnData, tnKey &gt;</text>
</a>
</g>
</g>
<!-- Node10&#45;&gt;Node22 -->
<g id="edge45" class="edge"><title>Node10&#45;&gt;Node22</title>
<path fill="none" stroke="#9a32cd" stroke-dasharray="5,2" d="M29.2057,-633.967C30.2978,-550.234 36.8774,-228.302 74,-135 103.032,-62.0325 109.469,-0 188,-0 188,-0 188,-0 626,-0 743.746,-0 804.861,-173.164 820.75,-225.924"/>
<polygon fill="#9a32cd" stroke="#9a32cd" points="25.7038,-634.112 29.0854,-644.152 32.7033,-634.194 25.7038,-634.112"/>
<text text-anchor="middle" x="397" y="-3" font-family="Helvetica,sans-Serif" font-size="10.00"> uIlosc</text>
</g>
<!-- Node11 -->
<g id="node11" class="node"><title>Node11</title>
<g id="a_node11"><a xlink:href="class_kuszk_a_p_i_1_1_containers_1_1_list.html#struct_kuszk_a_p_i_1_1_containers_1_1_list_1_1_item_data" target="_top" xlink:title="Struktura przechowująca wskaźnik na element listy oraz wskaźnik na kolejny obiekt. ">
<polygon fill="white" stroke="black" points="124,-164 124,-194 254,-194 254,-164 124,-164"/>
<text text-anchor="start" x="132" y="-182" font-family="Helvetica,sans-Serif" font-size="10.00">KuszkAPI::Containers</text>
<text text-anchor="middle" x="189" y="-171" font-family="Helvetica,sans-Serif" font-size="10.00">::List&lt; tnData &gt;::ItemData</text>
</a>
</g>
</g>
<!-- Node11&#45;&gt;Node8 -->
<g id="edge11" class="edge"><title>Node11&#45;&gt;Node8</title>
<path fill="none" stroke="#9a32cd" stroke-dasharray="5,2" d="M218.9,-157.998C247.876,-138.342 294.59,-110.352 340,-99 424.137,-77.9657 525.528,-102.334 581.558,-119.981"/>
<polygon fill="#9a32cd" stroke="#9a32cd" points="216.736,-155.239 210.499,-163.803 220.716,-160.998 216.736,-155.239"/>
<text text-anchor="middle" x="397" y="-113" font-family="Helvetica,sans-Serif" font-size="10.00"> ptLast</text>
<text text-anchor="middle" x="397" y="-102" font-family="Helvetica,sans-Serif" font-size="10.00">ptBegin</text>
</g>
<!-- Node11&#45;&gt;Node11 -->
<g id="edge12" class="edge"><title>Node11&#45;&gt;Node11</title>
<path fill="none" stroke="#9a32cd" stroke-dasharray="5,2" d="M171.846,-204.598C174.19,-208.97 179.908,-212 189,-212 204.313,-212 210.055,-203.406 206.227,-194.275"/>
<polygon fill="#9a32cd" stroke="#9a32cd" points="175.344,-204.25 171.773,-194.275 168.344,-204.3 175.344,-204.25"/>
<text text-anchor="middle" x="189" y="-215" font-family="Helvetica,sans-Serif" font-size="10.00"> ptNext</text>
</g>
<!-- Node11&#45;&gt;Node13 -->
<g id="edge18" class="edge"><title>Node11&#45;&gt;Node13</title>
<path fill="none" stroke="#9a32cd" stroke-dasharray="5,2" d="M253.212,-196.797C281.803,-204.848 315.228,-214.258 342.548,-221.95"/>
<polygon fill="#9a32cd" stroke="#9a32cd" points="253.892,-193.353 243.318,-194.012 251.995,-200.091 253.892,-193.353"/>
<text text-anchor="middle" x="297" y="-229" font-family="Helvetica,sans-Serif" font-size="10.00"> ptLast</text>
<text text-anchor="middle" x="297" y="-218" font-family="Helvetica,sans-Serif" font-size="10.00">ptBegin</text>
</g>
<!-- Node11&#45;&gt;Node24 -->
<g id="edge42" class="edge"><title>Node11&#45;&gt;Node24</title>
<path fill="none" stroke="#9a32cd" stroke-dasharray="5,2" d="M257.397,-161.884C334.683,-146.451 461.566,-134.429 546,-195 563.503,-207.556 548.878,-224.66 564,-240 567.803,-243.857 572.289,-247.147 577.068,-249.947"/>
<polygon fill="#9a32cd" stroke="#9a32cd" points="256.377,-158.521 247.295,-163.977 257.797,-165.375 256.377,-158.521"/>
<text text-anchor="middle" x="397" y="-170" font-family="Helvetica,sans-Serif" font-size="10.00"> ptLast</text>
<text text-anchor="middle" x="397" y="-159" font-family="Helvetica,sans-Serif" font-size="10.00">ptBegin</text>
</g>
<!-- Node12 -->
<g id="node12" class="node"><title>Node12</title>
<polygon fill="white" stroke="#bfbfbf" points="2,-169.5 2,-188.5 54,-188.5 54,-169.5 2,-169.5"/>
<text text-anchor="middle" x="28" y="-176.5" font-family="Helvetica,sans-Serif" font-size="10.00">tnData *</text>
</g>
<!-- Node12&#45;&gt;Node11 -->
<g id="edge13" class="edge"><title>Node12&#45;&gt;Node11</title>
<path fill="none" stroke="#9a32cd" stroke-dasharray="5,2" d="M64.4904,-179C81.966,-179 103.584,-179 123.825,-179"/>
<polygon fill="#9a32cd" stroke="#9a32cd" points="64.1941,-175.5 54.194,-179 64.194,-182.5 64.1941,-175.5"/>
<text text-anchor="middle" x="90" y="-182" font-family="Helvetica,sans-Serif" font-size="10.00"> ptData</text>
</g>
<!-- Node13&#45;&gt;Node8 -->
<g id="edge15" class="edge"><title>Node13&#45;&gt;Node8</title>
<path fill="none" stroke="orange" stroke-dasharray="5,2" d="M440.524,-217.808C484.001,-198.186 550.647,-168.106 590.516,-150.112"/>
<polygon fill="orange" stroke="orange" points="439.022,-214.646 431.347,-221.95 441.902,-221.026 439.022,-214.646"/>
<text text-anchor="middle" x="509" y="-205" font-family="Helvetica,sans-Serif" font-size="10.00"> &lt; unsigned &gt;</text>
</g>
<!-- Node13&#45;&gt;Node24 -->
<g id="edge44" class="edge"><title>Node13&#45;&gt;Node24</title>
<path fill="none" stroke="orange" stroke-dasharray="5,2" d="M463.636,-245.132C496.793,-249.24 536.593,-254.171 568.248,-258.093"/>
<polygon fill="orange" stroke="orange" points="463.93,-241.642 453.575,-243.885 463.069,-248.588 463.93,-241.642"/>
<text text-anchor="middle" x="509" y="-259" font-family="Helvetica,sans-Serif" font-size="10.00"> &lt; tnKey &gt;</text>
</g>
<!-- Node14 -->
<g id="node14" class="node"><title>Node14</title>
<polygon fill="white" stroke="#bfbfbf" points="166.5,-581.5 166.5,-600.5 211.5,-600.5 211.5,-581.5 166.5,-581.5"/>
<text text-anchor="middle" x="189" y="-588.5" font-family="Helvetica,sans-Serif" font-size="10.00">tnData</text>
</g>
<!-- Node14&#45;&gt;Node13 -->
<g id="edge17" class="edge"><title>Node14&#45;&gt;Node13</title>
<path fill="none" stroke="#9a32cd" stroke-dasharray="5,2" d="M201.476,-572.373C226.564,-530.945 286.855,-427.448 322,-334 333.611,-303.126 318.802,-287.272 340,-262 343.216,-258.166 347.138,-254.897 351.4,-252.115"/>
<polygon fill="#9a32cd" stroke="#9a32cd" points="198.37,-570.743 196.152,-581.103 204.347,-574.388 198.37,-570.743"/>
<text text-anchor="middle" x="297" y="-446" font-family="Helvetica,sans-Serif" font-size="10.00"> tAbstract</text>
</g>
<!-- Node14&#45;&gt;Node19 -->
<g id="edge28" class="edge"><title>Node14&#45;&gt;Node19</title>
<path fill="none" stroke="#9a32cd" stroke-dasharray="5,2" d="M222.045,-591C253.583,-591 302.387,-591 340.284,-591"/>
<polygon fill="#9a32cd" stroke="#9a32cd" points="221.656,-587.5 211.656,-591 221.656,-594.5 221.656,-587.5"/>
<text text-anchor="middle" x="297" y="-605" font-family="Helvetica,sans-Serif" font-size="10.00"> tAbstract</text>
<text text-anchor="middle" x="297" y="-594" font-family="Helvetica,sans-Serif" font-size="10.00">ptBegin</text>
</g>
<!-- Node14&#45;&gt;Node21 -->
<g id="edge35" class="edge"><title>Node14&#45;&gt;Node21</title>
<path fill="none" stroke="#9a32cd" stroke-dasharray="5,2" d="M221.447,-602.126C236.539,-606.967 254.999,-612.172 272,-615 375.539,-632.225 498.587,-627.688 568.363,-622.836"/>
<polygon fill="#9a32cd" stroke="#9a32cd" points="222.189,-598.685 211.595,-598.866 219.99,-605.33 222.189,-598.685"/>
<text text-anchor="middle" x="397" y="-642" font-family="Helvetica,sans-Serif" font-size="10.00"> tAbstract</text>
<text text-anchor="middle" x="397" y="-631" font-family="Helvetica,sans-Serif" font-size="10.00">ptBegin</text>
</g>
<!-- Node15&#45;&gt;Node7 -->
<g id="edge20" class="edge"><title>Node15&#45;&gt;Node7</title>
<path fill="none" stroke="#9a32cd" stroke-dasharray="5,2" d="M1113.89,-543.097C1143.21,-544.476 1177.87,-546.105 1208.08,-547.525"/>
<polygon fill="#9a32cd" stroke="#9a32cd" points="1113.9,-539.594 1103.75,-542.621 1113.58,-546.587 1113.9,-539.594"/>
<text text-anchor="middle" x="1156" y="-550" font-family="Helvetica,sans-Serif" font-size="10.00"> bData</text>
</g>
<!-- Node16&#45;&gt;Node15 -->
<g id="edge21" class="edge"><title>Node16&#45;&gt;Node15</title>
<path fill="none" stroke="#9a32cd" stroke-dasharray="5,2" d="M695.743,-455.19C766.098,-467.158 877.529,-487.982 972,-514 983.29,-517.109 995.346,-521.064 1006.38,-524.945"/>
<polygon fill="#9a32cd" stroke="#9a32cd" points="696.11,-451.702 685.667,-453.488 694.945,-458.605 696.11,-451.702"/>
<text text-anchor="middle" x="826" y="-495" font-family="Helvetica,sans-Serif" font-size="10.00"> vPointers</text>
</g>
<!-- Node17 -->
<g id="node17" class="node"><title>Node17</title>
<polygon fill="white" stroke="#bfbfbf" points="363,-385.5 363,-404.5 431,-404.5 431,-385.5 363,-385.5"/>
<text text-anchor="middle" x="397" y="-392.5" font-family="Helvetica,sans-Serif" font-size="10.00">UINT_PTR *</text>
</g>
<!-- Node17&#45;&gt;Node16 -->
<g id="edge23" class="edge"><title>Node17&#45;&gt;Node16</title>
<path fill="none" stroke="#9a32cd" stroke-dasharray="5,2" d="M441.41,-392.046C471.339,-391.214 511.743,-392.497 546,-402 566.304,-407.632 587.215,-419.265 602.268,-428.862"/>
<polygon fill="#9a32cd" stroke="#9a32cd" points="441.152,-388.553 431.287,-392.419 441.409,-395.548 441.152,-388.553"/>
<text text-anchor="middle" x="509" y="-405" font-family="Helvetica,sans-Serif" font-size="10.00"> tAbstract</text>
</g>
<!-- Node18 -->
<g id="node18" class="node"><title>Node18</title>
<polygon fill="white" stroke="#bfbfbf" points="361,-461.5 361,-480.5 433,-480.5 433,-461.5 361,-461.5"/>
<text text-anchor="middle" x="397" y="-468.5" font-family="Helvetica,sans-Serif" font-size="10.00">UINT_PTR **</text>
</g>
<!-- Node18&#45;&gt;Node16 -->
<g id="edge25" class="edge"><title>Node18&#45;&gt;Node16</title>
<path fill="none" stroke="#9a32cd" stroke-dasharray="5,2" d="M443.387,-464.699C452.838,-463.434 462.74,-462.143 472,-461 502.438,-457.242 536.351,-453.414 564.408,-450.345"/>
<polygon fill="#9a32cd" stroke="#9a32cd" points="442.802,-461.246 433.361,-466.053 443.739,-468.183 442.802,-461.246"/>
<text text-anchor="middle" x="509" y="-464" font-family="Helvetica,sans-Serif" font-size="10.00"> ptBegin</text>
</g>
<!-- Node19&#45;&gt;Node16 -->
<g id="edge26" class="edge"><title>Node19&#45;&gt;Node16</title>
<path fill="none" stroke="orange" stroke-dasharray="5,2" d="M410.949,-566.682C423.728,-544.911 445.213,-513.631 472,-495 500.274,-475.334 513.34,-482.932 546,-472 558.143,-467.936 571.27,-463.313 583.23,-459.012"/>
<polygon fill="orange" stroke="orange" points="407.751,-565.227 405.859,-575.651 413.839,-568.682 407.751,-565.227"/>
<text text-anchor="middle" x="509" y="-498" font-family="Helvetica,sans-Serif" font-size="10.00"> &lt; UINT_PTR * &gt;</text>
</g>
<!-- Node19&#45;&gt;Node21 -->
<g id="edge37" class="edge"><title>Node19&#45;&gt;Node21</title>
<path fill="none" stroke="orange" stroke-dasharray="5,2" d="M463.636,-598.841C496.793,-602.803 536.593,-607.558 568.248,-611.339"/>
<polygon fill="orange" stroke="orange" points="463.92,-595.351 453.575,-597.64 463.089,-602.301 463.92,-595.351"/>
<text text-anchor="middle" x="509" y="-612" font-family="Helvetica,sans-Serif" font-size="10.00"> &lt; tnData * &gt;</text>
</g>
<!-- Node20&#45;&gt;Node15 -->
<g id="edge31" class="edge"><title>Node20&#45;&gt;Node15</title>
<path fill="none" stroke="orange" stroke-dasharray="5,2" d="M879.087,-599.449C917.097,-585.911 967.976,-567.789 1003.53,-555.126"/>
<polygon fill="orange" stroke="orange" points="877.471,-596.308 869.225,-602.961 879.82,-602.903 877.471,-596.308"/>
<text text-anchor="middle" x="938" y="-594" font-family="Helvetica,sans-Serif" font-size="10.00"> &lt; UINT_PTR &gt;</text>
</g>
<!-- Node21&#45;&gt;Node20 -->
<g id="edge33" class="edge"><title>Node21&#45;&gt;Node20</title>
<path fill="none" stroke="#9a32cd" stroke-dasharray="5,2" d="M691.862,-618C716.947,-618 745.266,-618 769.316,-618"/>
<polygon fill="#9a32cd" stroke="#9a32cd" points="691.697,-614.5 681.697,-618 691.697,-621.5 691.697,-614.5"/>
<text text-anchor="middle" x="726" y="-621" font-family="Helvetica,sans-Serif" font-size="10.00"> vPointers</text>
</g>
<!-- Node22&#45;&gt;Node7 -->
<g id="edge38" class="edge"><title>Node22&#45;&gt;Node7</title>
<path fill="none" stroke="orange" stroke-dasharray="5,2" d="M850.586,-262.958C907.757,-315.17 1059.96,-448.17 1208,-526 1215.08,-529.723 1222.83,-533.058 1230.56,-535.986"/>
<polygon fill="orange" stroke="orange" points="852.893,-260.326 843.159,-256.141 848.159,-265.482 852.893,-260.326"/>
<text text-anchor="middle" x="1047" y="-466" font-family="Helvetica,sans-Serif" font-size="10.00"> &lt; UINT_PTR, unsigned &gt;</text>
</g>
<!-- Node23 -->
<g id="node23" class="node"><title>Node23</title>
<polygon fill="white" stroke="#bfbfbf" points="585,-211.5 585,-230.5 665,-230.5 665,-211.5 585,-211.5"/>
<text text-anchor="middle" x="625" y="-218.5" font-family="Helvetica,sans-Serif" font-size="10.00">Box&lt; tnData &gt;</text>
</g>
<!-- Node23&#45;&gt;Node22 -->
<g id="edge39" class="edge"><title>Node23&#45;&gt;Node22</title>
<path fill="none" stroke="#9a32cd" stroke-dasharray="5,2" d="M675.336,-221.96C697.592,-222.77 724.175,-224.26 748,-227 753.939,-227.683 760.112,-228.545 766.261,-229.504"/>
<polygon fill="#9a32cd" stroke="#9a32cd" points="675.226,-218.455 665.116,-221.624 674.996,-225.451 675.226,-218.455"/>
<text text-anchor="middle" x="726" y="-230" font-family="Helvetica,sans-Serif" font-size="10.00"> bData</text>
</g>
<!-- Node24&#45;&gt;Node22 -->
<g id="edge40" class="edge"><title>Node24&#45;&gt;Node22</title>
<path fill="none" stroke="#9a32cd" stroke-dasharray="5,2" d="M691.792,-257.065C715.815,-254.168 742.812,-250.912 766.189,-248.093"/>
<polygon fill="#9a32cd" stroke="#9a32cd" points="691.206,-253.61 681.697,-258.283 692.044,-260.56 691.206,-253.61"/>
<text text-anchor="middle" x="726" y="-259" font-family="Helvetica,sans-Serif" font-size="10.00"> lKey</text>
</g>
<!-- Node25 -->
<g id="node25" class="node"><title>Node25</title>
<polygon fill="white" stroke="#bfbfbf" points="376,-271.5 376,-290.5 418,-290.5 418,-271.5 376,-271.5"/>
<text text-anchor="middle" x="397" y="-278.5" font-family="Helvetica,sans-Serif" font-size="10.00">tnKey</text>
</g>
<!-- Node25&#45;&gt;Node24 -->
<g id="edge43" class="edge"><title>Node25&#45;&gt;Node24</title>
<path fill="none" stroke="#9a32cd" stroke-dasharray="5,2" d="M428.315,-278.854C464.036,-276.325 524.108,-272.072 568.291,-268.944"/>
<polygon fill="#9a32cd" stroke="#9a32cd" points="427.784,-275.383 418.056,-279.58 428.278,-282.365 427.784,-275.383"/>
<text text-anchor="middle" x="509" y="-279" font-family="Helvetica,sans-Serif" font-size="10.00"> tAbstract</text>
</g>
<!-- Node26 -->
<g id="node26" class="node"><title>Node26</title>
<polygon fill="white" stroke="#bfbfbf" points="1677,-604.5 1677,-623.5 1745,-623.5 1745,-604.5 1677,-604.5"/>
<text text-anchor="middle" x="1711" y="-611.5" font-family="Helvetica,sans-Serif" font-size="10.00">WNDPROC</text>
</g>
<!-- Node26&#45;&gt;Node3 -->
<g id="edge46" class="edge"><title>Node26&#45;&gt;Node3</title>
<path fill="none" stroke="#9a32cd" stroke-dasharray="5,2" d="M1755.24,-619.2C1780.7,-622.705 1813.41,-627.975 1842,-635 1850.19,-637.012 1851.95,-638.483 1860,-641 1870.21,-644.193 1881.38,-647.517 1891.53,-650.475"/>
<polygon fill="#9a32cd" stroke="#9a32cd" points="1755.53,-615.709 1745.15,-617.853 1754.6,-622.647 1755.53,-615.709"/>
<text text-anchor="middle" x="1819" y="-638" font-family="Helvetica,sans-Serif" font-size="10.00"> fDefProc</text>
</g>
<!-- Node27 -->
<g id="node27" class="node"><title>Node27</title>
<polygon fill="white" stroke="#bfbfbf" points="1686.5,-566.5 1686.5,-585.5 1735.5,-585.5 1735.5,-566.5 1686.5,-566.5"/>
<text text-anchor="middle" x="1711" y="-573.5" font-family="Helvetica,sans-Serif" font-size="10.00">HFONT</text>
</g>
<!-- Node27&#45;&gt;Node3 -->
<g id="edge47" class="edge"><title>Node27&#45;&gt;Node3</title>
<path fill="none" stroke="#9a32cd" stroke-dasharray="5,2" d="M1746.03,-578.586C1774.16,-582.221 1813.91,-590.965 1842,-612 1854.14,-621.093 1847.92,-631.821 1860,-641 1865.15,-644.913 1871.08,-648.021 1877.23,-650.49"/>
<polygon fill="#9a32cd" stroke="#9a32cd" points="1746.19,-575.082 1735.86,-577.428 1745.4,-582.037 1746.19,-575.082"/>
<text text-anchor="middle" x="1819" y="-615" font-family="Helvetica,sans-Serif" font-size="10.00"> hDefFont</text>
</g>
<!-- Node28&#45;&gt;Node3 -->
<g id="edge48" class="edge"><title>Node28&#45;&gt;Node3</title>
<path fill="none" stroke="#9a32cd" stroke-dasharray="5,2" d="M1588.65,-625.881C1606.75,-628.368 1626.05,-630.896 1644,-633 1718.11,-641.687 1803.46,-649.591 1860.47,-654.571"/>
<polygon fill="#9a32cd" stroke="#9a32cd" points="1589.12,-622.413 1578.73,-624.506 1588.16,-629.346 1589.12,-622.413"/>
<text text-anchor="middle" x="1711" y="-650" font-family="Helvetica,sans-Serif" font-size="10.00"> Tooltip</text>
</g>
<!-- Node29 -->
<g id="node29" class="node"><title>Node29</title>
<polygon fill="white" stroke="#bfbfbf" points="1250.5,-497.5 1250.5,-516.5 1315.5,-516.5 1315.5,-497.5 1250.5,-497.5"/>
<text text-anchor="middle" x="1283" y="-504.5" font-family="Helvetica,sans-Serif" font-size="10.00">TOOLINFO</text>
</g>
<!-- Node29&#45;&gt;Node28 -->
<g id="edge49" class="edge"><title>Node29&#45;&gt;Node28</title>
<path fill="none" stroke="#9a32cd" stroke-dasharray="5,2" d="M1325.71,-504.451C1355.71,-504.343 1396.3,-507.841 1428,-524 1462.29,-541.479 1489.69,-579.005 1503.08,-599.998"/>
<polygon fill="#9a32cd" stroke="#9a32cd" points="1325.51,-500.954 1315.57,-504.625 1325.63,-507.953 1325.51,-500.954"/>
<text text-anchor="middle" x="1402" y="-527" font-family="Helvetica,sans-Serif" font-size="10.00"> tToolTipInfo</text>
</g>
<!-- Node30 -->
<g id="node30" class="node"><title>Node30</title>
<polygon fill="white" stroke="#bfbfbf" points="1675.5,-528.5 1675.5,-547.5 1746.5,-547.5 1746.5,-528.5 1675.5,-528.5"/>
<text text-anchor="middle" x="1711" y="-535.5" font-family="Helvetica,sans-Serif" font-size="10.00">HINSTANCE</text>
</g>
<!-- Node30&#45;&gt;Node3 -->
<g id="edge51" class="edge"><title>Node30&#45;&gt;Node3</title>
<path fill="none" stroke="#9a32cd" stroke-dasharray="5,2" d="M1756.51,-539.859C1784.6,-543.369 1819.66,-552.414 1842,-575 1863.38,-596.618 1838.7,-619.307 1860,-641 1863.79,-644.859 1868.32,-647.944 1873.19,-650.41"/>
<polygon fill="#9a32cd" stroke="#9a32cd" points="1756.83,-536.373 1746.51,-538.802 1756.09,-543.334 1756.83,-536.373"/>
<text text-anchor="middle" x="1819" y="-578" font-family="Helvetica,sans-Serif" font-size="10.00"> hInstance</text>
</g>
<!-- Node31 -->
<g id="node31" class="node"><title>Node31</title>
<g id="a_node31"><a xlink:href="class_kuszk_a_p_i_1_1_forms_1_1_images.html" target="_top" xlink:title="KuszkAPI::Forms::Images">
<polygon fill="white" stroke="black" points="2077.5,-612.5 2077.5,-631.5 2208.5,-631.5 2208.5,-612.5 2077.5,-612.5"/>
<text text-anchor="middle" x="2143" y="-619.5" font-family="Helvetica,sans-Serif" font-size="10.00">KuszkAPI::Forms::Images</text>
</a>
</g>
</g>
<!-- Node31&#45;&gt;Node1 -->
<g id="edge53" class="edge"><title>Node31&#45;&gt;Node1</title>
<path fill="none" stroke="#9a32cd" stroke-dasharray="5,2" d="M2218.82,-620.068C2236.92,-620.292 2256.19,-621.107 2274,-623 2290.26,-624.727 2307.97,-628.11 2323.14,-631.482"/>
<polygon fill="#9a32cd" stroke="#9a32cd" points="2218.63,-616.567 2208.61,-620.001 2218.59,-623.567 2218.63,-616.567"/>
<text text-anchor="middle" x="2254" y="-637" font-family="Helvetica,sans-Serif" font-size="10.00"> Icos</text>
<text text-anchor="middle" x="2254" y="-626" font-family="Helvetica,sans-Serif" font-size="10.00">Imgs</text>
</g>
<!-- Node32 -->
<g id="node32" class="node"><title>Node32</title>
<polygon fill="white" stroke="#bfbfbf" points="1889,-612.5 1889,-631.5 1963,-631.5 1963,-612.5 1889,-612.5"/>
<text text-anchor="middle" x="1926" y="-619.5" font-family="Helvetica,sans-Serif" font-size="10.00">HIMAGELIST</text>
</g>
<!-- Node32&#45;&gt;Node31 -->
<g id="edge54" class="edge"><title>Node32&#45;&gt;Node31</title>
<path fill="none" stroke="#9a32cd" stroke-dasharray="5,2" d="M1973.78,-622C2004.14,-622 2044.11,-622 2077.47,-622"/>
<polygon fill="#9a32cd" stroke="#9a32cd" points="1973.47,-618.5 1963.47,-622 1973.47,-625.5 1973.47,-618.5"/>
<text text-anchor="middle" x="2031" y="-625" font-family="Helvetica,sans-Serif" font-size="10.00"> hUchwyt</text>
</g>
<!-- Node33 -->
<g id="node33" class="node"><title>Node33</title>
<polygon fill="white" stroke="#bfbfbf" points="2125.5,-574.5 2125.5,-593.5 2160.5,-593.5 2160.5,-574.5 2125.5,-574.5"/>
<text text-anchor="middle" x="2143" y="-581.5" font-family="Helvetica,sans-Serif" font-size="10.00">bool</text>
</g>
<!-- Node33&#45;&gt;Node1 -->
<g id="edge55" class="edge"><title>Node33&#45;&gt;Node1</title>
<path fill="none" stroke="#9a32cd" stroke-dasharray="5,2" d="M2170.72,-586.819C2197.26,-590.016 2238.95,-596.11 2274,-606 2297.5,-612.633 2323.33,-623.509 2340.69,-631.379"/>
<polygon fill="#9a32cd" stroke="#9a32cd" points="2171,-583.329 2160.67,-585.661 2170.2,-590.283 2171,-583.329"/>
<text text-anchor="middle" x="2254" y="-609" font-family="Helvetica,sans-Serif" font-size="10.00"> bGroups</text>
</g>
</g>
</svg>
