<?xml version="1.0" encoding="UTF-8" standalone="no"?>
<!DOCTYPE svg PUBLIC "-//W3C//DTD SVG 1.1//EN"
 "http://www.w3.org/Graphics/SVG/1.1/DTD/svg11.dtd">
<!-- Generated by graphviz version 2.36.0 (20140111.2315)
 -->
<!-- Title: KuszkAPI::Forms::Control::ToopTip::Set Pages: 1 -->
<svg width="290pt" height="38pt"
 viewBox="0.00 0.00 290.00 38.00" xmlns="http://www.w3.org/2000/svg" xmlns:xlink="http://www.w3.org/1999/xlink">
<g id="graph0" class="graph" transform="scale(1 1) rotate(0) translate(4 34)">
<title>KuszkAPI::Forms::Control::ToopTip::Set</title>
<polygon fill="white" stroke="none" points="-4,4 -4,-34 286,-34 286,4 -4,4"/>
<!-- Node1 -->
<g id="node1" class="node"><title>Node1</title>
<polygon fill="#bfbfbf" stroke="black" points="0.5,-0 0.5,-30 131.5,-30 131.5,-0 0.5,-0"/>
<text text-anchor="start" x="8.5" y="-18" font-family="Helvetica,sans-Serif" font-size="10.00">KuszkAPI::Forms::Control</text>
<text text-anchor="middle" x="66" y="-7" font-family="Helvetica,sans-Serif" font-size="10.00">::ToopTip::Set</text>
</g>
<!-- Node2 -->
<g id="node2" class="node"><title>Node2</title>
<g id="a_node2"><a xlink:href="class_kuszk_a_p_i_1_1_containers_1_1_string.html#a264c6116e5592a4464828feb720c8f3a" target="_top" xlink:title="KuszkAPI::Containers\l::String::Str">
<polygon fill="white" stroke="black" points="168.5,-0 168.5,-30 281.5,-30 281.5,-0 168.5,-0"/>
<text text-anchor="start" x="176.5" y="-18" font-family="Helvetica,sans-Serif" font-size="10.00">KuszkAPI::Containers</text>
<text text-anchor="middle" x="225" y="-7" font-family="Helvetica,sans-Serif" font-size="10.00">::String::Str</text>
</a>
</g>
</g>
<!-- Node1&#45;&gt;Node2 -->
<g id="edge1" class="edge"><title>Node1&#45;&gt;Node2</title>
<path fill="none" stroke="midnightblue" d="M131.764,-15C140.507,-15 149.484,-15 158.243,-15"/>
<polygon fill="midnightblue" stroke="midnightblue" points="158.399,-18.5001 168.399,-15 158.399,-11.5001 158.399,-18.5001"/>
</g>
</g>
</svg>
