<?xml version="1.0" encoding="UTF-8" standalone="no"?>
<!DOCTYPE svg PUBLIC "-//W3C//DTD SVG 1.1//EN"
 "http://www.w3.org/Graphics/SVG/1.1/DTD/svg11.dtd">
<!-- Generated by graphviz version 2.36.0 (20140111.2315)
 -->
<!-- Title: KuszkAPI::Forms::Control::Clean Pages: 1 -->
<svg width="324pt" height="136pt"
 viewBox="0.00 0.00 324.00 136.00" xmlns="http://www.w3.org/2000/svg" xmlns:xlink="http://www.w3.org/1999/xlink">
<g id="graph0" class="graph" transform="scale(1 1) rotate(0) translate(4 132)">
<title>KuszkAPI::Forms::Control::Clean</title>
<polygon fill="white" stroke="none" points="-4,4 -4,-132 320,-132 320,4 -4,4"/>
<!-- Node1 -->
<g id="node1" class="node"><title>Node1</title>
<polygon fill="#bfbfbf" stroke="black" points="0.5,-49 0.5,-79 131.5,-79 131.5,-49 0.5,-49"/>
<text text-anchor="start" x="8.5" y="-67" font-family="Helvetica,sans-Serif" font-size="10.00">KuszkAPI::Forms::Control</text>
<text text-anchor="middle" x="66" y="-56" font-family="Helvetica,sans-Serif" font-size="10.00">::Clean</text>
</g>
<!-- Node2 -->
<g id="node2" class="node"><title>Node2</title>
<g id="a_node2"><a xlink:href="class_kuszk_a_p_i_1_1_forms_1_1_user_dialog.html#a8a56088f7c8f8772a49b80696f3f0980" target="_top" xlink:title="KuszkAPI::Forms::UserDialog\l::Clean">
<polygon fill="white" stroke="black" points="168.5,-98 168.5,-128 315.5,-128 315.5,-98 168.5,-98"/>
<text text-anchor="start" x="176.5" y="-116" font-family="Helvetica,sans-Serif" font-size="10.00">KuszkAPI::Forms::UserDialog</text>
<text text-anchor="middle" x="242" y="-105" font-family="Helvetica,sans-Serif" font-size="10.00">::Clean</text>
</a>
</g>
</g>
<!-- Node1&#45;&gt;Node2 -->
<g id="edge1" class="edge"><title>Node1&#45;&gt;Node2</title>
<path fill="none" stroke="midnightblue" d="M130.284,-81.8212C149.07,-87.1118 169.455,-92.8522 187.552,-97.9484"/>
<polygon fill="midnightblue" stroke="midnightblue" points="131.2,-78.4432 120.626,-79.1014 129.302,-85.1811 131.2,-78.4432"/>
</g>
<!-- Node3 -->
<g id="node3" class="node"><title>Node3</title>
<g id="a_node3"><a xlink:href="class_kuszk_a_p_i_1_1_forms_1_1_form.html#adde0ad15aa02857a20b58e0b4efa3c2f" target="_top" xlink:title="KuszkAPI::Forms::Form\l::Clean">
<polygon fill="white" stroke="black" points="181,-49 181,-79 303,-79 303,-49 181,-49"/>
<text text-anchor="start" x="189" y="-67" font-family="Helvetica,sans-Serif" font-size="10.00">KuszkAPI::Forms::Form</text>
<text text-anchor="middle" x="242" y="-56" font-family="Helvetica,sans-Serif" font-size="10.00">::Clean</text>
</a>
</g>
</g>
<!-- Node1&#45;&gt;Node3 -->
<g id="edge2" class="edge"><title>Node1&#45;&gt;Node3</title>
<path fill="none" stroke="midnightblue" d="M142.063,-64C154.994,-64 168.284,-64 180.761,-64"/>
<polygon fill="midnightblue" stroke="midnightblue" points="141.791,-60.5001 131.791,-64 141.791,-67.5001 141.791,-60.5001"/>
</g>
<!-- Node4 -->
<g id="node4" class="node"><title>Node4</title>
<g id="a_node4"><a xlink:href="class_kuszk_a_p_i_1_1_forms_1_1_label.html#aef92a3b50241e78dbe379ff99bcecf60" target="_top" xlink:title="KuszkAPI::Forms::Label\l::Clean">
<polygon fill="white" stroke="black" points="180.5,-0 180.5,-30 303.5,-30 303.5,-0 180.5,-0"/>
<text text-anchor="start" x="188.5" y="-18" font-family="Helvetica,sans-Serif" font-size="10.00">KuszkAPI::Forms::Label</text>
<text text-anchor="middle" x="242" y="-7" font-family="Helvetica,sans-Serif" font-size="10.00">::Clean</text>
</a>
</g>
</g>
<!-- Node1&#45;&gt;Node4 -->
<g id="edge3" class="edge"><title>Node1&#45;&gt;Node4</title>
<path fill="none" stroke="midnightblue" d="M130.284,-46.1788C149.07,-40.8882 169.455,-35.1478 187.552,-30.0516"/>
<polygon fill="midnightblue" stroke="midnightblue" points="129.302,-42.8189 120.626,-48.8986 131.2,-49.5568 129.302,-42.8189"/>
</g>
</g>
</svg>
