<?xml version="1.0" encoding="UTF-8" standalone="no"?>
<!DOCTYPE svg PUBLIC "-//W3C//DTD SVG 1.1//EN"
 "http://www.w3.org/Graphics/SVG/1.1/DTD/svg11.dtd">
<!-- Generated by graphviz version 2.36.0 (20140111.2315)
 -->
<!-- Title: KuszkAPI::DateTime::Date::GetDate Pages: 1 -->
<svg width="290pt" height="38pt"
 viewBox="0.00 0.00 290.00 38.00" xmlns="http://www.w3.org/2000/svg" xmlns:xlink="http://www.w3.org/1999/xlink">
<g id="graph0" class="graph" transform="scale(1 1) rotate(0) translate(4 34)">
<title>KuszkAPI::DateTime::Date::GetDate</title>
<polygon fill="white" stroke="none" points="-4,4 -4,-34 286,-34 286,4 -4,4"/>
<!-- Node1 -->
<g id="node1" class="node"><title>Node1</title>
<polygon fill="#bfbfbf" stroke="black" points="0.5,-0 0.5,-30 107.5,-30 107.5,-0 0.5,-0"/>
<text text-anchor="start" x="8.5" y="-18" font-family="Helvetica,sans-Serif" font-size="10.00">KuszkAPI::DateTime</text>
<text text-anchor="middle" x="54" y="-7" font-family="Helvetica,sans-Serif" font-size="10.00">::Date::GetDate</text>
</g>
<!-- Node2 -->
<g id="node2" class="node"><title>Node2</title>
<g id="a_node2"><a xlink:href="class_kuszk_a_p_i_1_1_forms_1_1_calendar.html#a3d196e866a07383ae21ccde23fa305ef" target="_top" xlink:title="KuszkAPI::Forms::Calendar\l::SetDate">
<polygon fill="white" stroke="black" points="144,-0 144,-30 282,-30 282,-0 144,-0"/>
<text text-anchor="start" x="152" y="-18" font-family="Helvetica,sans-Serif" font-size="10.00">KuszkAPI::Forms::Calendar</text>
<text text-anchor="middle" x="213" y="-7" font-family="Helvetica,sans-Serif" font-size="10.00">::SetDate</text>
</a>
</g>
</g>
<!-- Node1&#45;&gt;Node2 -->
<g id="edge1" class="edge"><title>Node1&#45;&gt;Node2</title>
<path fill="none" stroke="midnightblue" d="M117.941,-15C126.45,-15 135.214,-15 143.81,-15"/>
<polygon fill="midnightblue" stroke="midnightblue" points="117.716,-11.5001 107.715,-15 117.715,-18.5001 117.716,-11.5001"/>
</g>
</g>
</svg>
