<?xml version="1.0" encoding="UTF-8" standalone="no"?>
<!DOCTYPE svg PUBLIC "-//W3C//DTD SVG 1.1//EN"
 "http://www.w3.org/Graphics/SVG/1.1/DTD/svg11.dtd">
<!-- Generated by graphviz version 2.36.0 (20140111.2315)
 -->
<!-- Title: KuszkAPI::Containers::Strings::Delete Pages: 1 -->
<svg width="276pt" height="87pt"
 viewBox="0.00 0.00 276.00 87.00" xmlns="http://www.w3.org/2000/svg" xmlns:xlink="http://www.w3.org/1999/xlink">
<g id="graph0" class="graph" transform="scale(1 1) rotate(0) translate(4 83)">
<title>KuszkAPI::Containers::Strings::Delete</title>
<polygon fill="white" stroke="none" points="-4,4 -4,-83 272,-83 272,4 -4,4"/>
<!-- Node1 -->
<g id="node1" class="node"><title>Node1</title>
<polygon fill="#bfbfbf" stroke="black" points="0.5,-24 0.5,-54 113.5,-54 113.5,-24 0.5,-24"/>
<text text-anchor="start" x="8.5" y="-42" font-family="Helvetica,sans-Serif" font-size="10.00">KuszkAPI::Containers</text>
<text text-anchor="middle" x="57" y="-31" font-family="Helvetica,sans-Serif" font-size="10.00">::Strings::Delete</text>
</g>
<!-- Node2 -->
<g id="node2" class="node"><title>Node2</title>
<g id="a_node2"><a xlink:href="class_kuszk_a_p_i_1_1_core_1_1_script.html#abf5addecd4187fb491bb7b561eca1d49" target="_top" xlink:title="KuszkAPI::Core::Script\l::GetQuotes">
<polygon fill="white" stroke="black" points="150,-49 150,-79 268,-79 268,-49 150,-49"/>
<text text-anchor="start" x="158" y="-67" font-family="Helvetica,sans-Serif" font-size="10.00">KuszkAPI::Core::Script</text>
<text text-anchor="middle" x="209" y="-56" font-family="Helvetica,sans-Serif" font-size="10.00">::GetQuotes</text>
</a>
</g>
</g>
<!-- Node1&#45;&gt;Node2 -->
<g id="edge1" class="edge"><title>Node1&#45;&gt;Node2</title>
<path fill="none" stroke="midnightblue" d="M123.895,-49.9825C132.536,-51.4227 141.341,-52.8902 149.842,-54.307"/>
<polygon fill="midnightblue" stroke="midnightblue" points="124.294,-46.5008 113.854,-48.3091 123.143,-53.4055 124.294,-46.5008"/>
</g>
<!-- Node3 -->
<g id="node3" class="node"><title>Node3</title>
<g id="a_node3"><a xlink:href="class_kuszk_a_p_i_1_1_core_1_1_script.html#a9f0fa985564fb87859ff99b89396b85c" target="_top" xlink:title="KuszkAPI::Core::Script\l::operator()">
<polygon fill="white" stroke="black" points="150,-0 150,-30 268,-30 268,-0 150,-0"/>
<text text-anchor="start" x="158" y="-18" font-family="Helvetica,sans-Serif" font-size="10.00">KuszkAPI::Core::Script</text>
<text text-anchor="middle" x="209" y="-7" font-family="Helvetica,sans-Serif" font-size="10.00">::operator()</text>
</a>
</g>
</g>
<!-- Node1&#45;&gt;Node3 -->
<g id="edge2" class="edge"><title>Node1&#45;&gt;Node3</title>
<path fill="none" stroke="midnightblue" d="M123.895,-28.4568C132.536,-27.0742 141.341,-25.6654 149.842,-24.3053"/>
<polygon fill="midnightblue" stroke="midnightblue" points="123.176,-25.0273 113.854,-30.0633 124.282,-31.9393 123.176,-25.0273"/>
</g>
</g>
</svg>
