<?xml version="1.0" encoding="UTF-8" standalone="no"?>
<!DOCTYPE svg PUBLIC "-//W3C//DTD SVG 1.1//EN"
 "http://www.w3.org/Graphics/SVG/1.1/DTD/svg11.dtd">
<!-- Generated by graphviz version 2.36.0 (20140111.2315)
 -->
<!-- Title: KuszkAPI::Containers::Strings::GetData Pages: 1 -->
<!--zoomable 626 -->
<svg id="main" version="1.1" xmlns="http://www.w3.org/2000/svg" xmlns:xlink="http://www.w3.org/1999/xlink" xml:space="preserve" onload="init(evt)">
<style type="text/css"><![CDATA[
.edge:hover path { stroke: red; }
.edge:hover polygon { stroke: red; fill: red; }
]]></style>
<script type="text/javascript"><![CDATA[
var edges = document.getElementsByTagName('g');
if (edges && edges.length) {
  for (var i=0;i<edges.length;i++) {
    if (edges[i].id.substr(0,4)=='edge') {
      edges[i].setAttribute('class','edge');
    }
  }
}
]]></script>
        <defs>
                <circle id="rim" cx="0" cy="0" r="7"/>
                <circle id="rim2" cx="0" cy="0" r="3.5"/>
                <g id="zoomPlus">
                        <use xlink:href="#rim" fill="#404040">
                                <set attributeName="fill" to="#808080" begin="zoomplus.mouseover" end="zoomplus.mouseout"/>
                        </use>
                        <path d="M-4,0h8M0,-4v8" fill="none" stroke="white" stroke-width="1.5" pointer-events="none"/>
                </g>
                <g id="zoomMin">
                        <use xlink:href="#rim" fill="#404040">
                                <set attributeName="fill" to="#808080" begin="zoomminus.mouseover" end="zoomminus.mouseout"/>
                        </use>
                        <path d="M-4,0h8" fill="none" stroke="white" stroke-width="1.5" pointer-events="none"/>
                </g>
                <g id="dirArrow">
                        <path fill="none" stroke="white" stroke-width="1.5" d="M0,-3.0v7 M-2.5,-0.5L0,-3.0L2.5,-0.5"/>
                </g>
               <g id="resetDef">
                       <use xlink:href="#rim2" fill="#404040">
                               <set attributeName="fill" to="#808080" begin="reset.mouseover" end="reset.mouseout"/>
                       </use>
               </g>
        </defs>

<script type="text/javascript">
var viewWidth = 306;
var viewHeight = 626;
var sectionId = 'dynsection-11';
</script>
<script xlink:href="svgpan.js"/>
<svg id="graph" class="graph">
<g id="viewport">
<title>KuszkAPI::Containers::Strings::GetData</title>
<polygon fill="white" stroke="none" points="-4,4 -4,-622 302,-622 302,4 -4,4"/>
<!-- Node1 -->
<g id="node1" class="node"><title>Node1</title>
<polygon fill="#bfbfbf" stroke="black" points="0.5,-294 0.5,-324 113.5,-324 113.5,-294 0.5,-294"/>
<text text-anchor="start" x="8.5" y="-312" font-family="Helvetica,sans-Serif" font-size="10.00">KuszkAPI::Containers</text>
<text text-anchor="middle" x="57" y="-301" font-family="Helvetica,sans-Serif" font-size="10.00">::Strings::GetData</text>
</g>
<!-- Node2 -->
<g id="node2" class="node"><title>Node2</title>
<g id="a_node2"><a xlink:href="class_kuszk_a_p_i_1_1_forms_1_1_table_box.html#af7c0e9f55441b5072e99843bf6a8bcc5" target="_top" xlink:title="KuszkAPI::Forms::TableBox\l::AddGroups">
<polygon fill="white" stroke="black" points="154,-588 154,-618 294,-618 294,-588 154,-588"/>
<text text-anchor="start" x="162" y="-606" font-family="Helvetica,sans-Serif" font-size="10.00">KuszkAPI::Forms::TableBox</text>
<text text-anchor="middle" x="224" y="-595" font-family="Helvetica,sans-Serif" font-size="10.00">::AddGroups</text>
</a>
</g>
</g>
<!-- Node1&#45;&gt;Node2 -->
<g id="edge1" class="edge"><title>Node1&#45;&gt;Node2</title>
<path fill="none" stroke="midnightblue" d="M59.4547,-334.33C63.8366,-387.021 81.2636,-509.235 150,-578 153.883,-581.885 158.395,-585.166 163.234,-587.938"/>
<polygon fill="midnightblue" stroke="midnightblue" points="62.9325,-333.9 58.7039,-324.186 55.9516,-334.417 62.9325,-333.9"/>
</g>
<!-- Node3 -->
<g id="node3" class="node"><title>Node3</title>
<g id="a_node3"><a xlink:href="class_kuszk_a_p_i_1_1_forms_1_1_list_box.html#a634049136f0fd56323f2c3077a1917f1" target="_top" xlink:title="KuszkAPI::Forms::ListBox\l::AddItems">
<polygon fill="white" stroke="black" points="157.5,-539 157.5,-569 290.5,-569 290.5,-539 157.5,-539"/>
<text text-anchor="start" x="165.5" y="-557" font-family="Helvetica,sans-Serif" font-size="10.00">KuszkAPI::Forms::ListBox</text>
<text text-anchor="middle" x="224" y="-546" font-family="Helvetica,sans-Serif" font-size="10.00">::AddItems</text>
</a>
</g>
</g>
<!-- Node1&#45;&gt;Node3 -->
<g id="edge2" class="edge"><title>Node1&#45;&gt;Node3</title>
<path fill="none" stroke="midnightblue" d="M61.6516,-334.102C69.5401,-379.387 92.3562,-475.048 150,-529 154.108,-532.845 158.833,-536.101 163.862,-538.858"/>
<polygon fill="midnightblue" stroke="midnightblue" points="65.1048,-333.531 60.032,-324.229 58.1972,-334.664 65.1048,-333.531"/>
</g>
<!-- Node4 -->
<g id="node4" class="node"><title>Node4</title>
<g id="a_node4"><a xlink:href="class_kuszk_a_p_i_1_1_forms_1_1_combo_box.html#a2769b6f0bc66d3518644212a78ea438c" target="_top" xlink:title="KuszkAPI::Forms::ComboBox\l::AddItems">
<polygon fill="white" stroke="black" points="150,-490 150,-520 298,-520 298,-490 150,-490"/>
<text text-anchor="start" x="158" y="-508" font-family="Helvetica,sans-Serif" font-size="10.00">KuszkAPI::Forms::ComboBox</text>
<text text-anchor="middle" x="224" y="-497" font-family="Helvetica,sans-Serif" font-size="10.00">::AddItems</text>
</a>
</g>
</g>
<!-- Node1&#45;&gt;Node4 -->
<g id="edge3" class="edge"><title>Node1&#45;&gt;Node4</title>
<path fill="none" stroke="midnightblue" d="M65.0585,-334.192C76.7116,-371.296 103.441,-440.498 150,-480 154.597,-483.9 159.833,-487.201 165.342,-489.994"/>
<polygon fill="midnightblue" stroke="midnightblue" points="68.2836,-332.765 62.0437,-324.202 61.5821,-334.787 68.2836,-332.765"/>
</g>
<!-- Node5 -->
<g id="node5" class="node"><title>Node5</title>
<g id="a_node5"><a xlink:href="class_kuszk_a_p_i_1_1_forms_1_1_table_box.html#aa62710800c2e8e8e7729c80b02f38d1a" target="_top" xlink:title="KuszkAPI::Forms::TableBox\l::AddItems">
<polygon fill="white" stroke="black" points="154,-441 154,-471 294,-471 294,-441 154,-441"/>
<text text-anchor="start" x="162" y="-459" font-family="Helvetica,sans-Serif" font-size="10.00">KuszkAPI::Forms::TableBox</text>
<text text-anchor="middle" x="224" y="-448" font-family="Helvetica,sans-Serif" font-size="10.00">::AddItems</text>
</a>
</g>
</g>
<!-- Node1&#45;&gt;Node5 -->
<g id="edge4" class="edge"><title>Node1&#45;&gt;Node5</title>
<path fill="none" stroke="midnightblue" d="M70.3021,-332.98C85.5148,-360.384 113.881,-404.814 150,-431 155.314,-434.853 161.269,-438.147 167.424,-440.955"/>
<polygon fill="midnightblue" stroke="midnightblue" points="73.3122,-331.188 65.4786,-324.054 67.1539,-334.516 73.3122,-331.188"/>
</g>
<!-- Node6 -->
<g id="node6" class="node"><title>Node6</title>
<g id="a_node6"><a xlink:href="class_kuszk_a_p_i_1_1_forms_1_1_tab_box.html#a35fbc304ecd7692c82d5d9507d50c8d1" target="_top" xlink:title="KuszkAPI::Forms::TabBox\l::AddItems">
<polygon fill="white" stroke="black" points="157.5,-392 157.5,-422 290.5,-422 290.5,-392 157.5,-392"/>
<text text-anchor="start" x="165.5" y="-410" font-family="Helvetica,sans-Serif" font-size="10.00">KuszkAPI::Forms::TabBox</text>
<text text-anchor="middle" x="224" y="-399" font-family="Helvetica,sans-Serif" font-size="10.00">::AddItems</text>
</a>
</g>
</g>
<!-- Node1&#45;&gt;Node6 -->
<g id="edge5" class="edge"><title>Node1&#45;&gt;Node6</title>
<path fill="none" stroke="midnightblue" d="M81.2885,-331.199C98.9896,-347.104 124.557,-368.089 150,-382 156.817,-385.727 164.293,-389.049 171.778,-391.958"/>
<polygon fill="midnightblue" stroke="midnightblue" points="83.4788,-328.459 73.7377,-324.292 78.7541,-333.624 83.4788,-328.459"/>
</g>
<!-- Node7 -->
<g id="node7" class="node"><title>Node7</title>
<g id="a_node7"><a xlink:href="class_kuszk_a_p_i_1_1_forms_1_1_bitmap.html#a7e210e4a89e10c8584badb55acb09016" target="_top" xlink:title="KuszkAPI::Forms::Bitmap\l::Bitmap">
<polygon fill="white" stroke="black" points="158.5,-343 158.5,-373 289.5,-373 289.5,-343 158.5,-343"/>
<text text-anchor="start" x="166.5" y="-361" font-family="Helvetica,sans-Serif" font-size="10.00">KuszkAPI::Forms::Bitmap</text>
<text text-anchor="middle" x="224" y="-350" font-family="Helvetica,sans-Serif" font-size="10.00">::Bitmap</text>
</a>
</g>
</g>
<!-- Node1&#45;&gt;Node7 -->
<g id="edge6" class="edge"><title>Node1&#45;&gt;Node7</title>
<path fill="none" stroke="midnightblue" d="M118.501,-326.967C136.18,-332.217 155.313,-337.899 172.316,-342.948"/>
<polygon fill="midnightblue" stroke="midnightblue" points="119.434,-323.593 108.852,-324.101 117.442,-330.304 119.434,-323.593"/>
</g>
<!-- Node8 -->
<g id="node8" class="node"><title>Node8</title>
<g id="a_node8"><a xlink:href="class_kuszk_a_p_i_1_1_forms_1_1_cursor.html#a2d00aacc319f953ffd32d02bc80ba57e" target="_top" xlink:title="KuszkAPI::Forms::Cursor\l::Cursor">
<polygon fill="white" stroke="black" points="160,-294 160,-324 288,-324 288,-294 160,-294"/>
<text text-anchor="start" x="168" y="-312" font-family="Helvetica,sans-Serif" font-size="10.00">KuszkAPI::Forms::Cursor</text>
<text text-anchor="middle" x="224" y="-301" font-family="Helvetica,sans-Serif" font-size="10.00">::Cursor</text>
</a>
</g>
</g>
<!-- Node1&#45;&gt;Node8 -->
<g id="edge7" class="edge"><title>Node1&#45;&gt;Node8</title>
<path fill="none" stroke="midnightblue" d="M124.073,-309C135.858,-309 148.109,-309 159.811,-309"/>
<polygon fill="midnightblue" stroke="midnightblue" points="123.862,-305.5 113.861,-309 123.861,-312.5 123.862,-305.5"/>
</g>
<!-- Node9 -->
<g id="node9" class="node"><title>Node9</title>
<g id="a_node9"><a xlink:href="class_kuszk_a_p_i_1_1_forms_1_1_icon.html#ae53ce4eadfe59d71d791b2a306c58e38" target="_top" xlink:title="KuszkAPI::Forms::Icon\l::Icon">
<polygon fill="white" stroke="black" points="165,-245 165,-275 283,-275 283,-245 165,-245"/>
<text text-anchor="start" x="173" y="-263" font-family="Helvetica,sans-Serif" font-size="10.00">KuszkAPI::Forms::Icon</text>
<text text-anchor="middle" x="224" y="-252" font-family="Helvetica,sans-Serif" font-size="10.00">::Icon</text>
</a>
</g>
</g>
<!-- Node1&#45;&gt;Node9 -->
<g id="edge8" class="edge"><title>Node1&#45;&gt;Node9</title>
<path fill="none" stroke="midnightblue" d="M118.501,-291.033C136.18,-285.783 155.313,-280.101 172.316,-275.052"/>
<polygon fill="midnightblue" stroke="midnightblue" points="117.442,-287.696 108.852,-293.899 119.434,-294.407 117.442,-287.696"/>
</g>
<!-- Node10 -->
<g id="node10" class="node"><title>Node10</title>
<g id="a_node10"><a xlink:href="class_kuszk_a_p_i_1_1_forms_1_1_region.html#ac1722eaf3c05a8b34ac4483a33f9bdc8" target="_top" xlink:title="KuszkAPI::Forms::Region\l::Region">
<polygon fill="white" stroke="black" points="159,-196 159,-226 289,-226 289,-196 159,-196"/>
<text text-anchor="start" x="167" y="-214" font-family="Helvetica,sans-Serif" font-size="10.00">KuszkAPI::Forms::Region</text>
<text text-anchor="middle" x="224" y="-203" font-family="Helvetica,sans-Serif" font-size="10.00">::Region</text>
</a>
</g>
</g>
<!-- Node1&#45;&gt;Node10 -->
<g id="edge9" class="edge"><title>Node1&#45;&gt;Node10</title>
<path fill="none" stroke="midnightblue" d="M81.2885,-286.801C98.9896,-270.896 124.557,-249.911 150,-236 156.817,-232.273 164.293,-228.951 171.778,-226.042"/>
<polygon fill="midnightblue" stroke="midnightblue" points="78.7541,-284.376 73.7377,-293.708 83.4788,-289.541 78.7541,-284.376"/>
</g>
<!-- Node11 -->
<g id="node11" class="node"><title>Node11</title>
<g id="a_node11"><a xlink:href="class_kuszk_a_p_i_1_1_forms_1_1_table_box.html#a114261299700e4eefafb194d3d4f4096" target="_top" xlink:title="KuszkAPI::Forms::TableBox\l::SetColumn">
<polygon fill="white" stroke="black" points="154,-147 154,-177 294,-177 294,-147 154,-147"/>
<text text-anchor="start" x="162" y="-165" font-family="Helvetica,sans-Serif" font-size="10.00">KuszkAPI::Forms::TableBox</text>
<text text-anchor="middle" x="224" y="-154" font-family="Helvetica,sans-Serif" font-size="10.00">::SetColumn</text>
</a>
</g>
</g>
<!-- Node1&#45;&gt;Node11 -->
<g id="edge10" class="edge"><title>Node1&#45;&gt;Node11</title>
<path fill="none" stroke="midnightblue" d="M70.3021,-285.02C85.5148,-257.616 113.881,-213.186 150,-187 155.314,-183.147 161.269,-179.853 167.424,-177.045"/>
<polygon fill="midnightblue" stroke="midnightblue" points="67.1539,-283.484 65.4786,-293.946 73.3122,-286.812 67.1539,-283.484"/>
</g>
<!-- Node12 -->
<g id="node12" class="node"><title>Node12</title>
<g id="a_node12"><a xlink:href="class_kuszk_a_p_i_1_1_forms_1_1_table_box.html#acd578a3280ed91936761e9e64d47cd3d" target="_top" xlink:title="KuszkAPI::Forms::TableBox\l::SetHeader">
<polygon fill="white" stroke="black" points="154,-98 154,-128 294,-128 294,-98 154,-98"/>
<text text-anchor="start" x="162" y="-116" font-family="Helvetica,sans-Serif" font-size="10.00">KuszkAPI::Forms::TableBox</text>
<text text-anchor="middle" x="224" y="-105" font-family="Helvetica,sans-Serif" font-size="10.00">::SetHeader</text>
</a>
</g>
</g>
<!-- Node1&#45;&gt;Node12 -->
<g id="edge11" class="edge"><title>Node1&#45;&gt;Node12</title>
<path fill="none" stroke="midnightblue" d="M65.0585,-283.808C76.7116,-246.704 103.441,-177.502 150,-138 154.597,-134.1 159.833,-130.799 165.342,-128.006"/>
<polygon fill="midnightblue" stroke="midnightblue" points="61.5821,-283.213 62.0437,-293.798 68.2836,-285.235 61.5821,-283.213"/>
</g>
<!-- Node13 -->
<g id="node13" class="node"><title>Node13</title>
<g id="a_node13"><a xlink:href="class_kuszk_a_p_i_1_1_forms_1_1_table_box.html#a3129583999a67273404ea16ecbf9a2bd" target="_top" xlink:title="KuszkAPI::Forms::TableBox\l::SetItemData">
<polygon fill="white" stroke="black" points="154,-49 154,-79 294,-79 294,-49 154,-49"/>
<text text-anchor="start" x="162" y="-67" font-family="Helvetica,sans-Serif" font-size="10.00">KuszkAPI::Forms::TableBox</text>
<text text-anchor="middle" x="224" y="-56" font-family="Helvetica,sans-Serif" font-size="10.00">::SetItemData</text>
</a>
</g>
</g>
<!-- Node1&#45;&gt;Node13 -->
<g id="edge12" class="edge"><title>Node1&#45;&gt;Node13</title>
<path fill="none" stroke="midnightblue" d="M61.6516,-283.898C69.5401,-238.613 92.3562,-142.952 150,-89 154.108,-85.1552 158.833,-81.8991 163.862,-79.142"/>
<polygon fill="midnightblue" stroke="midnightblue" points="58.1972,-283.336 60.032,-293.771 65.1048,-284.469 58.1972,-283.336"/>
</g>
<!-- Node14 -->
<g id="node14" class="node"><title>Node14</title>
<g id="a_node14"><a xlink:href="class_kuszk_a_p_i_1_1_forms_1_1_combo_box.html#aa2b109380bc60c6351419226799d3d43" target="_top" xlink:title="KuszkAPI::Forms::ComboBox\l::SetItems">
<polygon fill="white" stroke="black" points="150,-0 150,-30 298,-30 298,-0 150,-0"/>
<text text-anchor="start" x="158" y="-18" font-family="Helvetica,sans-Serif" font-size="10.00">KuszkAPI::Forms::ComboBox</text>
<text text-anchor="middle" x="224" y="-7" font-family="Helvetica,sans-Serif" font-size="10.00">::SetItems</text>
</a>
</g>
</g>
<!-- Node1&#45;&gt;Node14 -->
<g id="edge13" class="edge"><title>Node1&#45;&gt;Node14</title>
<path fill="none" stroke="midnightblue" d="M59.4547,-283.67C63.8366,-230.979 81.2636,-108.765 150,-40 153.883,-36.1155 158.395,-32.8339 163.234,-30.0619"/>
<polygon fill="midnightblue" stroke="midnightblue" points="55.9516,-283.583 58.7039,-293.814 62.9325,-284.1 55.9516,-283.583"/>
</g>
</g>
</svg>
        <g id="navigator" transform="translate(0 0)" fill="#404254">
                <rect fill="#f2f5e9" fill-opacity="0.5" stroke="#606060" stroke-width=".5" x="0" y="0" width="60" height="60"/>
                <use id="zoomplus" xlink:href="#zoomPlus" x="17" y="9" onmousedown="handleZoom(evt,'in')"/>
                <use id="zoomminus" xlink:href="#zoomMin" x="42" y="9" onmousedown="handleZoom(evt,'out')"/>
                <use id="reset" xlink:href="#resetDef" x="30" y="36" onmousedown="handleReset()"/>
                <g id="arrowUp" xlink:href="#dirArrow" transform="translate(30 24)" onmousedown="handlePan(0,-1)">
                  <use xlink:href="#rim" fill="#404040">
                        <set attributeName="fill" to="#808080" begin="arrowUp.mouseover" end="arrowUp.mouseout"/>
                  </use>
                  <path fill="none" stroke="white" stroke-width="1.5" d="M0,-3.0v7 M-2.5,-0.5L0,-3.0L2.5,-0.5"/>
                </g>
                <g id="arrowRight" xlink:href="#dirArrow" transform="rotate(90) translate(36 -43)" onmousedown="handlePan(1,0)">
                  <use xlink:href="#rim" fill="#404040">
                        <set attributeName="fill" to="#808080" begin="arrowRight.mouseover" end="arrowRight.mouseout"/>
                  </use>
                  <path fill="none" stroke="white" stroke-width="1.5" d="M0,-3.0v7 M-2.5,-0.5L0,-3.0L2.5,-0.5"/>
                </g>
                <g id="arrowDown" xlink:href="#dirArrow" transform="rotate(180) translate(-30 -48)" onmousedown="handlePan(0,1)">
                  <use xlink:href="#rim" fill="#404040">
                        <set attributeName="fill" to="#808080" begin="arrowDown.mouseover" end="arrowDown.mouseout"/>
                  </use>
                  <path fill="none" stroke="white" stroke-width="1.5" d="M0,-3.0v7 M-2.5,-0.5L0,-3.0L2.5,-0.5"/>
                </g>
                <g id="arrowLeft" xlink:href="#dirArrow" transform="rotate(270) translate(-36 17)" onmousedown="handlePan(-1,0)">
                  <use xlink:href="#rim" fill="#404040">
                        <set attributeName="fill" to="#808080" begin="arrowLeft.mouseover" end="arrowLeft.mouseout"/>
                  </use>
                  <path fill="none" stroke="white" stroke-width="1.5" d="M0,-3.0v7 M-2.5,-0.5L0,-3.0L2.5,-0.5"/>
                </g>
        </g>
        <svg viewBox="0 0 15 15" width="100%" height="30px" preserveAspectRatio="xMaxYMin meet">
         <g id="arrow_out" transform="scale(0.3 0.3)">
          <a xlink:href="class_kuszk_a_p_i_1_1_containers_1_1_strings_a9021319df4615931b43c7e715bcf5bf9_icgraph_org.svg" target="_base">
           <rect id="button" ry="5" rx="5" y="6" x="6" height="38" width="38"
                fill="#f2f5e9" fill-opacity="0.5" stroke="#606060" stroke-width="1.0"/>
           <path id="arrow"
             d="M 11.500037,31.436501 C 11.940474,20.09759 22.043105,11.32322 32.158766,21.979434 L 37.068811,17.246167 C 37.068811,17.246167 37.088388,32 37.088388,32 L 22.160133,31.978069 C 22.160133,31.978069 26.997745,27.140456 26.997745,27.140456 C 18.528582,18.264221 13.291696,25.230495 11.500037,31.436501 z"
             style="fill:#404040;"/>
          </a>
         </g>
        </svg>
</svg>
