<?xml version="1.0" encoding="UTF-8" standalone="no"?>
<!DOCTYPE svg PUBLIC "-//W3C//DTD SVG 1.1//EN"
 "http://www.w3.org/Graphics/SVG/1.1/DTD/svg11.dtd">
<!-- Generated by graphviz version 2.36.0 (20140111.2315)
 -->
<!-- Title: KuszkAPI::Core::Script::operator() Pages: 1 -->
<svg width="440pt" height="160pt"
 viewBox="0.00 0.00 440.00 160.00" xmlns="http://www.w3.org/2000/svg" xmlns:xlink="http://www.w3.org/1999/xlink">
<g id="graph0" class="graph" transform="scale(1 1) rotate(0) translate(4 156)">
<title>KuszkAPI::Core::Script::operator()</title>
<polygon fill="white" stroke="none" points="-4,4 -4,-156 436,-156 436,4 -4,4"/>
<!-- Node1 -->
<g id="node1" class="node"><title>Node1</title>
<polygon fill="#bfbfbf" stroke="black" points="0,-73 0,-103 118,-103 118,-73 0,-73"/>
<text text-anchor="start" x="8" y="-91" font-family="Helvetica,sans-Serif" font-size="10.00">KuszkAPI::Core::Script</text>
<text text-anchor="middle" x="59" y="-80" font-family="Helvetica,sans-Serif" font-size="10.00">::operator()</text>
</g>
<!-- Node2 -->
<g id="node2" class="node"><title>Node2</title>
<g id="a_node2"><a xlink:href="class_kuszk_a_p_i_1_1_containers_1_1_strings.html#a65d04e46a0b67df68730abe6054aab28" target="_top" xlink:title="KuszkAPI::Containers\l::Strings::Delete">
<polygon fill="white" stroke="black" points="161.5,-122 161.5,-152 274.5,-152 274.5,-122 161.5,-122"/>
<text text-anchor="start" x="169.5" y="-140" font-family="Helvetica,sans-Serif" font-size="10.00">KuszkAPI::Containers</text>
<text text-anchor="middle" x="218" y="-129" font-family="Helvetica,sans-Serif" font-size="10.00">::Strings::Delete</text>
</a>
</g>
</g>
<!-- Node1&#45;&gt;Node2 -->
<g id="edge1" class="edge"><title>Node1&#45;&gt;Node2</title>
<path fill="none" stroke="midnightblue" d="M108.386,-103.101C124.429,-108.108 142.449,-113.732 159.131,-118.939"/>
<polygon fill="midnightblue" stroke="midnightblue" points="158.185,-122.31 168.774,-121.948 160.27,-115.628 158.185,-122.31"/>
</g>
<!-- Node3 -->
<g id="node3" class="node"><title>Node3</title>
<g id="a_node3"><a xlink:href="class_kuszk_a_p_i_1_1_core_1_1_console.html#adf095b6b2009fc01b2d14be12c12b123" target="_top" xlink:title="KuszkAPI::Core::Console\l::Read">
<polygon fill="white" stroke="black" points="154,-73 154,-103 282,-103 282,-73 154,-73"/>
<text text-anchor="start" x="162" y="-91" font-family="Helvetica,sans-Serif" font-size="10.00">KuszkAPI::Core::Console</text>
<text text-anchor="middle" x="218" y="-80" font-family="Helvetica,sans-Serif" font-size="10.00">::Read</text>
</a>
</g>
</g>
<!-- Node1&#45;&gt;Node3 -->
<g id="edge2" class="edge"><title>Node1&#45;&gt;Node3</title>
<path fill="none" stroke="midnightblue" d="M118.015,-88C126.428,-88 135.178,-88 143.842,-88"/>
<polygon fill="midnightblue" stroke="midnightblue" points="143.946,-91.5001 153.946,-88 143.946,-84.5001 143.946,-91.5001"/>
</g>
<!-- Node4 -->
<g id="node4" class="node"><title>Node4</title>
<g id="a_node4"><a xlink:href="class_kuszk_a_p_i_1_1_core_1_1_console.html#abcd778846e9e7436f8f626de2ceab530" target="_top" xlink:title="KuszkAPI::Core::Console\l::Write">
<polygon fill="white" stroke="black" points="154,-24 154,-54 282,-54 282,-24 154,-24"/>
<text text-anchor="start" x="162" y="-42" font-family="Helvetica,sans-Serif" font-size="10.00">KuszkAPI::Core::Console</text>
<text text-anchor="middle" x="218" y="-31" font-family="Helvetica,sans-Serif" font-size="10.00">::Write</text>
</a>
</g>
</g>
<!-- Node1&#45;&gt;Node4 -->
<g id="edge3" class="edge"><title>Node1&#45;&gt;Node4</title>
<path fill="none" stroke="midnightblue" d="M108.386,-72.8986C124.429,-67.8917 142.449,-62.2676 159.131,-57.061"/>
<polygon fill="midnightblue" stroke="midnightblue" points="160.27,-60.372 168.774,-54.0516 158.185,-53.6899 160.27,-60.372"/>
</g>
<!-- Node5 -->
<g id="node5" class="node"><title>Node5</title>
<g id="a_node5"><a xlink:href="class_kuszk_a_p_i_1_1_containers_1_1_string.html#afd694656c3c52b347d6b965e2f5afb6a" target="_top" xlink:title="KuszkAPI::Containers\l::String::Capacity">
<polygon fill="white" stroke="black" points="318.5,-49 318.5,-79 431.5,-79 431.5,-49 318.5,-49"/>
<text text-anchor="start" x="326.5" y="-67" font-family="Helvetica,sans-Serif" font-size="10.00">KuszkAPI::Containers</text>
<text text-anchor="middle" x="375" y="-56" font-family="Helvetica,sans-Serif" font-size="10.00">::String::Capacity</text>
</a>
</g>
</g>
<!-- Node4&#45;&gt;Node5 -->
<g id="edge4" class="edge"><title>Node4&#45;&gt;Node5</title>
<path fill="none" stroke="midnightblue" d="M282.044,-49.1685C290.719,-50.5676 299.644,-52.0072 308.364,-53.4136"/>
<polygon fill="midnightblue" stroke="midnightblue" points="308.049,-56.908 318.479,-55.045 309.164,-49.9973 308.049,-56.908"/>
</g>
<!-- Node6 -->
<g id="node6" class="node"><title>Node6</title>
<g id="a_node6"><a xlink:href="class_kuszk_a_p_i_1_1_containers_1_1_string.html#a264c6116e5592a4464828feb720c8f3a" target="_top" xlink:title="KuszkAPI::Containers\l::String::Str">
<polygon fill="white" stroke="black" points="318.5,-0 318.5,-30 431.5,-30 431.5,-0 318.5,-0"/>
<text text-anchor="start" x="326.5" y="-18" font-family="Helvetica,sans-Serif" font-size="10.00">KuszkAPI::Containers</text>
<text text-anchor="middle" x="375" y="-7" font-family="Helvetica,sans-Serif" font-size="10.00">::String::Str</text>
</a>
</g>
</g>
<!-- Node4&#45;&gt;Node6 -->
<g id="edge5" class="edge"><title>Node4&#45;&gt;Node6</title>
<path fill="none" stroke="midnightblue" d="M282.044,-29.2383C290.719,-27.8951 299.644,-26.5131 308.364,-25.1629"/>
<polygon fill="midnightblue" stroke="midnightblue" points="309.133,-28.5858 318.479,-23.5968 308.061,-21.6682 309.133,-28.5858"/>
</g>
</g>
</svg>
