<?xml version="1.0" encoding="UTF-8" standalone="no"?>
<!DOCTYPE svg PUBLIC "-//W3C//DTD SVG 1.1//EN"
 "http://www.w3.org/Graphics/SVG/1.1/DTD/svg11.dtd">
<!-- Generated by graphviz version 2.36.0 (20140111.2315)
 -->
<!-- Title: KuszkAPI::Containers::File&lt; tnData, tnHead &gt; Pages: 1 -->
<svg width="457pt" height="212pt"
 viewBox="0.00 0.00 457.00 212.00" xmlns="http://www.w3.org/2000/svg" xmlns:xlink="http://www.w3.org/1999/xlink">
<g id="graph0" class="graph" transform="scale(1 1) rotate(0) translate(4 208)">
<title>KuszkAPI::Containers::File&lt; tnData, tnHead &gt;</title>
<polygon fill="white" stroke="none" points="-4,4 -4,-208 453,-208 453,4 -4,4"/>
<!-- Node1 -->
<g id="node1" class="node"><title>Node1</title>
<polygon fill="#bfbfbf" stroke="black" points="202,-1 202,-31 324,-31 324,-1 202,-1"/>
<text text-anchor="start" x="210" y="-19" font-family="Helvetica,sans-Serif" font-size="10.00">KuszkAPI::Containers</text>
<text text-anchor="middle" x="263" y="-8" font-family="Helvetica,sans-Serif" font-size="10.00">::File&lt; tnData, tnHead &gt;</text>
</g>
<!-- Node2 -->
<g id="node2" class="node"><title>Node2</title>
<g id="a_node2"><a xlink:href="class_kuszk_a_p_i_1_1_containers_1_1_string.html" target="_top" xlink:title="KuszkAPI::Containers\l::String">
<polygon fill="white" stroke="black" points="85.5,-82 85.5,-112 198.5,-112 198.5,-82 85.5,-82"/>
<text text-anchor="start" x="93.5" y="-100" font-family="Helvetica,sans-Serif" font-size="10.00">KuszkAPI::Containers</text>
<text text-anchor="middle" x="142" y="-89" font-family="Helvetica,sans-Serif" font-size="10.00">::String</text>
</a>
</g>
</g>
<!-- Node2&#45;&gt;Node1 -->
<g id="edge1" class="edge"><title>Node2&#45;&gt;Node1</title>
<path fill="none" stroke="#9a32cd" stroke-dasharray="5,2" d="M172.115,-76.338C193.701,-62.2447 222.257,-43.6007 241.555,-31.0013"/>
<polygon fill="#9a32cd" stroke="#9a32cd" points="170.092,-73.4788 163.632,-81.8764 173.919,-79.3401 170.092,-73.4788"/>
<text text-anchor="middle" x="229" y="-53.5" font-family="Helvetica,sans-Serif" font-size="10.00"> sNazwa</text>
</g>
<!-- Node3 -->
<g id="node3" class="node"><title>Node3</title>
<polygon fill="white" stroke="#bfbfbf" points="233.5,-184.5 233.5,-203.5 282.5,-203.5 282.5,-184.5 233.5,-184.5"/>
<text text-anchor="middle" x="258" y="-191.5" font-family="Helvetica,sans-Serif" font-size="10.00">TCHAR</text>
</g>
<!-- Node3&#45;&gt;Node2 -->
<g id="edge2" class="edge"><title>Node3&#45;&gt;Node2</title>
<path fill="none" stroke="#9a32cd" stroke-dasharray="5,2" d="M253.265,-174.687C248.947,-161.273 241.324,-143.476 229,-132 219.862,-123.49 208.35,-117.024 196.719,-112.141"/>
<polygon fill="#9a32cd" stroke="#9a32cd" points="249.905,-175.668 256.047,-184.301 256.63,-173.723 249.905,-175.668"/>
<text text-anchor="middle" x="273" y="-146.5" font-family="Helvetica,sans-Serif" font-size="10.00"> cAbstract</text>
</g>
<!-- Node4 -->
<g id="node4" class="node"><title>Node4</title>
<polygon fill="white" stroke="#bfbfbf" points="84,-184.5 84,-203.5 140,-203.5 140,-184.5 84,-184.5"/>
<text text-anchor="middle" x="112" y="-191.5" font-family="Helvetica,sans-Serif" font-size="10.00">TCHAR *</text>
</g>
<!-- Node4&#45;&gt;Node2 -->
<g id="edge3" class="edge"><title>Node4&#45;&gt;Node2</title>
<path fill="none" stroke="#9a32cd" stroke-dasharray="5,2" d="M116.211,-174.324C119.124,-162.151 123.309,-145.988 128,-132 130.233,-125.342 133.131,-118.129 135.712,-112.066"/>
<polygon fill="#9a32cd" stroke="#9a32cd" points="112.769,-173.672 113.916,-184.204 119.588,-175.256 112.769,-173.672"/>
<text text-anchor="middle" x="146.5" y="-152" font-family="Helvetica,sans-Serif" font-size="10.00"> pcBufor</text>
<text text-anchor="middle" x="146.5" y="-141" font-family="Helvetica,sans-Serif" font-size="10.00">pcData</text>
</g>
<!-- Node5 -->
<g id="node5" class="node"><title>Node5</title>
<g id="a_node5"><a xlink:href="namespace_3global_scope_4.html#classunsigned" target="_top" xlink:title="unsigned">
<polygon fill="white" stroke="black" points="0,-184.5 0,-203.5 56,-203.5 56,-184.5 0,-184.5"/>
<text text-anchor="middle" x="28" y="-191.5" font-family="Helvetica,sans-Serif" font-size="10.00">unsigned</text>
</a>
</g>
</g>
<!-- Node5&#45;&gt;Node1 -->
<g id="edge9" class="edge"><title>Node5&#45;&gt;Node1</title>
<path fill="none" stroke="#9a32cd" stroke-dasharray="5,2" d="M21.5033,-174.47C14.2491,-150.12 6.06618,-107.255 27,-80 48.2141,-52.38 139.356,-34.268 201.962,-24.8331"/>
<polygon fill="#9a32cd" stroke="#9a32cd" points="18.2538,-175.796 24.663,-184.233 24.9136,-173.641 18.2538,-175.796"/>
<text text-anchor="middle" x="51.5" y="-105.5" font-family="Helvetica,sans-Serif" font-size="10.00"> uDataSize</text>
<text text-anchor="middle" x="51.5" y="-94.5" font-family="Helvetica,sans-Serif" font-size="10.00">uMode</text>
<text text-anchor="middle" x="51.5" y="-83.5" font-family="Helvetica,sans-Serif" font-size="10.00">uHeadSize</text>
</g>
<!-- Node5&#45;&gt;Node2 -->
<g id="edge4" class="edge"><title>Node5&#45;&gt;Node2</title>
<path fill="none" stroke="#9a32cd" stroke-dasharray="5,2" d="M36.5043,-175.331C43.6472,-162.005 54.9349,-144.027 69,-132 78.5632,-123.823 90.4247,-117.193 101.787,-112.033"/>
<polygon fill="#9a32cd" stroke="#9a32cd" points="33.2857,-173.939 31.8725,-184.439 39.5252,-177.112 33.2857,-173.939"/>
<text text-anchor="middle" x="92" y="-157.5" font-family="Helvetica,sans-Serif" font-size="10.00"> uFormat</text>
<text text-anchor="middle" x="92" y="-146.5" font-family="Helvetica,sans-Serif" font-size="10.00">uDataSize</text>
<text text-anchor="middle" x="92" y="-135.5" font-family="Helvetica,sans-Serif" font-size="10.00">uIlosc</text>
</g>
<!-- Node6 -->
<g id="node6" class="node"><title>Node6</title>
<polygon fill="white" stroke="#bfbfbf" points="158.5,-184.5 158.5,-203.5 215.5,-203.5 215.5,-184.5 158.5,-184.5"/>
<text text-anchor="middle" x="187" y="-191.5" font-family="Helvetica,sans-Serif" font-size="10.00">DCHAR *</text>
</g>
<!-- Node6&#45;&gt;Node2 -->
<g id="edge5" class="edge"><title>Node6&#45;&gt;Node2</title>
<path fill="none" stroke="#9a32cd" stroke-dasharray="5,2" d="M181.747,-174.805C177.857,-162.413 172.026,-145.815 165,-132 161.511,-125.139 156.873,-118.016 152.675,-112.073"/>
<polygon fill="#9a32cd" stroke="#9a32cd" points="178.413,-175.87 184.647,-184.437 185.116,-173.852 178.413,-175.87"/>
<text text-anchor="middle" x="202" y="-146.5" font-family="Helvetica,sans-Serif" font-size="10.00"> pcConvert</text>
</g>
<!-- Node7 -->
<g id="node7" class="node"><title>Node7</title>
<polygon fill="white" stroke="#bfbfbf" points="217,-87.5 217,-106.5 309,-106.5 309,-87.5 217,-87.5"/>
<text text-anchor="middle" x="263" y="-94.5" font-family="Helvetica,sans-Serif" font-size="10.00">Vector&lt; tnData &gt;</text>
</g>
<!-- Node7&#45;&gt;Node1 -->
<g id="edge6" class="edge"><title>Node7&#45;&gt;Node1</title>
<path fill="none" stroke="#9a32cd" stroke-dasharray="5,2" d="M263,-77.1706C263,-63.0295 263,-43.9673 263,-31.1193"/>
<polygon fill="#9a32cd" stroke="#9a32cd" points="259.5,-77.2437 263,-87.2438 266.5,-77.2438 259.5,-77.2437"/>
<text text-anchor="middle" x="275" y="-53.5" font-family="Helvetica,sans-Serif" font-size="10.00"> Data</text>
</g>
<!-- Node8 -->
<g id="node8" class="node"><title>Node8</title>
<polygon fill="white" stroke="#bfbfbf" points="327.5,-87.5 327.5,-106.5 374.5,-106.5 374.5,-87.5 327.5,-87.5"/>
<text text-anchor="middle" x="351" y="-94.5" font-family="Helvetica,sans-Serif" font-size="10.00">tnHead</text>
</g>
<!-- Node8&#45;&gt;Node1 -->
<g id="edge7" class="edge"><title>Node8&#45;&gt;Node1</title>
<path fill="none" stroke="#9a32cd" stroke-dasharray="5,2" d="M333.659,-80.4327C317.681,-66.0883 294.173,-44.985 278.728,-31.1193"/>
<polygon fill="#9a32cd" stroke="#9a32cd" points="331.467,-83.1679 341.246,-87.2438 336.143,-77.959 331.467,-83.1679"/>
<text text-anchor="middle" x="326" y="-53.5" font-family="Helvetica,sans-Serif" font-size="10.00"> Head</text>
</g>
<!-- Node9 -->
<g id="node9" class="node"><title>Node9</title>
<polygon fill="white" stroke="#bfbfbf" points="393,-87.5 393,-106.5 449,-106.5 449,-87.5 393,-87.5"/>
<text text-anchor="middle" x="421" y="-94.5" font-family="Helvetica,sans-Serif" font-size="10.00">HANDLE</text>
</g>
<!-- Node9&#45;&gt;Node1 -->
<g id="edge8" class="edge"><title>Node9&#45;&gt;Node1</title>
<path fill="none" stroke="#9a32cd" stroke-dasharray="5,2" d="M399.038,-81.9159C383.66,-72.337 362.462,-59.692 343,-50 329.282,-43.1687 313.796,-36.5422 300.127,-31.0419"/>
<polygon fill="#9a32cd" stroke="#9a32cd" points="397.467,-85.0626 407.794,-87.4301 401.198,-79.1393 397.467,-85.0626"/>
<text text-anchor="middle" x="385.5" y="-53.5" font-family="Helvetica,sans-Serif" font-size="10.00"> hUchwyt</text>
</g>
</g>
</svg>
