<?xml version="1.0" encoding="UTF-8" standalone="no"?>
<!DOCTYPE svg PUBLIC "-//W3C//DTD SVG 1.1//EN"
 "http://www.w3.org/Graphics/SVG/1.1/DTD/svg11.dtd">
<!-- Generated by graphviz version 2.36.0 (20140111.2315)
 -->
<!-- Title: KuszkAPI::Containers::Map&lt; tnData, tnKey &gt; Pages: 1 -->
<svg width="448pt" height="1423pt"
 viewBox="0.00 0.00 448.00 1423.00" xmlns="http://www.w3.org/2000/svg" xmlns:xlink="http://www.w3.org/1999/xlink">
<g id="graph0" class="graph" transform="scale(1 1) rotate(0) translate(4 1419)">
<title>KuszkAPI::Containers::Map&lt; tnData, tnKey &gt;</title>
<polygon fill="white" stroke="none" points="-4,4 -4,-1419 444,-1419 444,4 -4,4"/>
<!-- Node1 -->
<g id="node1" class="node"><title>Node1</title>
<polygon fill="#bfbfbf" stroke="black" points="0.5,-686 0.5,-716 119.5,-716 119.5,-686 0.5,-686"/>
<text text-anchor="start" x="8.5" y="-704" font-family="Helvetica,sans-Serif" font-size="10.00">KuszkAPI::Containers</text>
<text text-anchor="middle" x="60" y="-693" font-family="Helvetica,sans-Serif" font-size="10.00">::Map&lt; tnData, tnKey &gt;</text>
</g>
<!-- Node2 -->
<g id="node2" class="node"><title>Node2</title>
<g id="a_node2"><a xlink:href="class_kuszk_a_p_i_1_1_containers_1_1_map.html" target="_top" xlink:title="KuszkAPI::Containers\l::Map\&lt; KuszkAPI::Core\l::Threads::ItemData, unsigned \&gt;">
<polygon fill="white" stroke="black" points="282,-1360.5 282,-1401.5 438,-1401.5 438,-1360.5 282,-1360.5"/>
<text text-anchor="start" x="290" y="-1389.5" font-family="Helvetica,sans-Serif" font-size="10.00">KuszkAPI::Containers</text>
<text text-anchor="start" x="290" y="-1378.5" font-family="Helvetica,sans-Serif" font-size="10.00">::Map&lt; KuszkAPI::Core</text>
<text text-anchor="middle" x="360" y="-1367.5" font-family="Helvetica,sans-Serif" font-size="10.00">::Threads::ItemData, unsigned &gt;</text>
</a>
</g>
</g>
<!-- Node1&#45;&gt;Node2 -->
<g id="edge1" class="edge"><title>Node1&#45;&gt;Node2</title>
<path fill="none" stroke="orange" stroke-dasharray="5,2" d="M62.1885,-726.413C67.7887,-841.072 93.1659,-1306.59 138,-1352 174.636,-1389.11 233.935,-1395.18 281.888,-1392.62"/>
<polygon fill="orange" stroke="orange" points="65.6715,-725.975 61.6948,-716.155 58.6796,-726.311 65.6715,-725.975"/>
<text text-anchor="start" x="138.5" y="-1407" font-family="Helvetica,sans-Serif" font-size="10.00"> &lt; KuszkAPI::Core::Threads</text>
<text text-anchor="middle" x="200" y="-1396" font-family="Helvetica,sans-Serif" font-size="10.00">::ItemData, unsigned &gt;</text>
</g>
<!-- Node3 -->
<g id="node3" class="node"><title>Node3</title>
<g id="a_node3"><a xlink:href="class_kuszk_a_p_i_1_1_containers_1_1_map.html" target="_top" xlink:title="KuszkAPI::Containers\l::Map\&lt; HHOOK, unsigned \&gt;">
<polygon fill="white" stroke="black" points="290,-1311 290,-1341 430,-1341 430,-1311 290,-1311"/>
<text text-anchor="start" x="298" y="-1329" font-family="Helvetica,sans-Serif" font-size="10.00">KuszkAPI::Containers</text>
<text text-anchor="middle" x="360" y="-1318" font-family="Helvetica,sans-Serif" font-size="10.00">::Map&lt; HHOOK, unsigned &gt;</text>
</a>
</g>
</g>
<!-- Node1&#45;&gt;Node3 -->
<g id="edge2" class="edge"><title>Node1&#45;&gt;Node3</title>
<path fill="none" stroke="orange" stroke-dasharray="5,2" d="M62.4724,-726.305C69.0134,-834.656 96.9372,-1255.86 138,-1297 176.885,-1335.96 240.792,-1340.58 289.908,-1336.99"/>
<polygon fill="orange" stroke="orange" points="65.9475,-725.781 61.8587,-716.007 58.9599,-726.198 65.9475,-725.781"/>
<text text-anchor="middle" x="200" y="-1340" font-family="Helvetica,sans-Serif" font-size="10.00"> &lt; HHOOK, unsigned &gt;</text>
</g>
<!-- Node4 -->
<g id="node4" class="node"><title>Node4</title>
<g id="a_node4"><a xlink:href="class_kuszk_a_p_i_1_1_containers_1_1_map.html" target="_top" xlink:title="KuszkAPI::Containers\l::Map\&lt; KuszkAPI::Forms\l::Calendar, unsigned \&gt;">
<polygon fill="white" stroke="black" points="296,-1250.5 296,-1291.5 424,-1291.5 424,-1250.5 296,-1250.5"/>
<text text-anchor="start" x="304" y="-1279.5" font-family="Helvetica,sans-Serif" font-size="10.00">KuszkAPI::Containers</text>
<text text-anchor="start" x="304" y="-1268.5" font-family="Helvetica,sans-Serif" font-size="10.00">::Map&lt; KuszkAPI::Forms</text>
<text text-anchor="middle" x="360" y="-1257.5" font-family="Helvetica,sans-Serif" font-size="10.00">::Calendar, unsigned &gt;</text>
</a>
</g>
</g>
<!-- Node1&#45;&gt;Node4 -->
<g id="edge3" class="edge"><title>Node1&#45;&gt;Node4</title>
<path fill="none" stroke="orange" stroke-dasharray="5,2" d="M60.6675,-726.245C59.9471,-823.591 62.7262,-1172.78 138,-1246 159.832,-1267.24 238.675,-1271.79 295.977,-1272.16"/>
<polygon fill="orange" stroke="orange" points="64.1682,-726.175 60.7624,-716.143 57.1685,-726.11 64.1682,-726.175"/>
<text text-anchor="start" x="152" y="-1285" font-family="Helvetica,sans-Serif" font-size="10.00"> &lt; KuszkAPI::Forms::</text>
<text text-anchor="middle" x="200" y="-1274" font-family="Helvetica,sans-Serif" font-size="10.00">Calendar, unsigned &gt;</text>
</g>
<!-- Node5 -->
<g id="node5" class="node"><title>Node5</title>
<g id="a_node5"><a xlink:href="class_kuszk_a_p_i_1_1_containers_1_1_map.html" target="_top" xlink:title="KuszkAPI::Containers\l::Map\&lt; tnData, unsigned \&gt;">
<polygon fill="white" stroke="black" points="293.5,-1201 293.5,-1231 426.5,-1231 426.5,-1201 293.5,-1201"/>
<text text-anchor="start" x="301.5" y="-1219" font-family="Helvetica,sans-Serif" font-size="10.00">KuszkAPI::Containers</text>
<text text-anchor="middle" x="360" y="-1208" font-family="Helvetica,sans-Serif" font-size="10.00">::Map&lt; tnData, unsigned &gt;</text>
</a>
</g>
</g>
<!-- Node1&#45;&gt;Node5 -->
<g id="edge4" class="edge"><title>Node1&#45;&gt;Node5</title>
<path fill="none" stroke="orange" stroke-dasharray="5,2" d="M61.0525,-726.209C61.8041,-817.542 69.4318,-1129.15 138,-1194 178.619,-1232.42 244.125,-1234.37 293.294,-1228.85"/>
<polygon fill="orange" stroke="orange" points="64.5525,-726.173 60.9914,-716.194 57.5526,-726.216 64.5525,-726.173"/>
<text text-anchor="middle" x="200" y="-1234" font-family="Helvetica,sans-Serif" font-size="10.00"> &lt; tnData, unsigned &gt;</text>
</g>
<!-- Node6 -->
<g id="node6" class="node"><title>Node6</title>
<g id="a_node6"><a xlink:href="class_kuszk_a_p_i_1_1_containers_1_1_map.html" target="_top" xlink:title="KuszkAPI::Containers\l::Map\&lt; KuszkAPI::Forms\l::Font::ItemData, tnKey \&gt;">
<polygon fill="white" stroke="black" points="296,-1140.5 296,-1181.5 424,-1181.5 424,-1140.5 296,-1140.5"/>
<text text-anchor="start" x="304" y="-1169.5" font-family="Helvetica,sans-Serif" font-size="10.00">KuszkAPI::Containers</text>
<text text-anchor="start" x="304" y="-1158.5" font-family="Helvetica,sans-Serif" font-size="10.00">::Map&lt; KuszkAPI::Forms</text>
<text text-anchor="middle" x="360" y="-1147.5" font-family="Helvetica,sans-Serif" font-size="10.00">::Font::ItemData, tnKey &gt;</text>
</a>
</g>
</g>
<!-- Node1&#45;&gt;Node6 -->
<g id="edge5" class="edge"><title>Node1&#45;&gt;Node6</title>
<path fill="none" stroke="orange" stroke-dasharray="5,2" d="M61.77,-726.385C64.8567,-809.994 79.1855,-1074.62 138,-1131 179.229,-1170.52 246.314,-1174.46 295.773,-1170.7"/>
<polygon fill="orange" stroke="orange" points="65.2632,-726.126 61.4192,-716.253 58.2674,-726.368 65.2632,-726.126"/>
<text text-anchor="start" x="147" y="-1185" font-family="Helvetica,sans-Serif" font-size="10.00"> &lt; KuszkAPI::Forms::</text>
<text text-anchor="middle" x="200" y="-1174" font-family="Helvetica,sans-Serif" font-size="10.00">Font::ItemData, tnKey &gt;</text>
</g>
<!-- Node7 -->
<g id="node7" class="node"><title>Node7</title>
<g id="a_node7"><a xlink:href="class_kuszk_a_p_i_1_1_containers_1_1_map.html" target="_top" xlink:title="KuszkAPI::Containers\l::Map\&lt; HINSTANCE, tnKey \&gt;">
<polygon fill="white" stroke="black" points="287,-1091 287,-1121 433,-1121 433,-1091 287,-1091"/>
<text text-anchor="start" x="295" y="-1109" font-family="Helvetica,sans-Serif" font-size="10.00">KuszkAPI::Containers</text>
<text text-anchor="middle" x="360" y="-1098" font-family="Helvetica,sans-Serif" font-size="10.00">::Map&lt; HINSTANCE, tnKey &gt;</text>
</a>
</g>
</g>
<!-- Node1&#45;&gt;Node7 -->
<g id="edge6" class="edge"><title>Node1&#45;&gt;Node7</title>
<path fill="none" stroke="orange" stroke-dasharray="5,2" d="M62.4556,-726.163C67.4108,-802.449 86.2859,-1028.86 138,-1077 177.228,-1113.52 238.697,-1119.01 286.858,-1116.36"/>
<polygon fill="orange" stroke="orange" points="65.9397,-725.799 61.8233,-716.036 58.9533,-726.235 65.9397,-725.799"/>
<text text-anchor="middle" x="200" y="-1119" font-family="Helvetica,sans-Serif" font-size="10.00"> &lt; HINSTANCE, tnKey &gt;</text>
</g>
<!-- Node8 -->
<g id="node8" class="node"><title>Node8</title>
<g id="a_node8"><a xlink:href="class_kuszk_a_p_i_1_1_containers_1_1_map.html" target="_top" xlink:title="KuszkAPI::Containers\l::Map\&lt; KuszkAPI::Forms\l::ComboBox, unsigned \&gt;">
<polygon fill="white" stroke="black" points="296,-1030.5 296,-1071.5 424,-1071.5 424,-1030.5 296,-1030.5"/>
<text text-anchor="start" x="304" y="-1059.5" font-family="Helvetica,sans-Serif" font-size="10.00">KuszkAPI::Containers</text>
<text text-anchor="start" x="304" y="-1048.5" font-family="Helvetica,sans-Serif" font-size="10.00">::Map&lt; KuszkAPI::Forms</text>
<text text-anchor="middle" x="360" y="-1037.5" font-family="Helvetica,sans-Serif" font-size="10.00">::ComboBox, unsigned &gt;</text>
</a>
</g>
</g>
<!-- Node1&#45;&gt;Node8 -->
<g id="edge7" class="edge"><title>Node1&#45;&gt;Node8</title>
<path fill="none" stroke="orange" stroke-dasharray="5,2" d="M63.2441,-726.033C69.9906,-795.257 92.4901,-986.801 138,-1027 160.743,-1047.09 238.932,-1051.55 295.869,-1052.01"/>
<polygon fill="orange" stroke="orange" points="66.7227,-725.64 62.2955,-716.015 59.7539,-726.3 66.7227,-725.64"/>
<text text-anchor="start" x="148.5" y="-1065" font-family="Helvetica,sans-Serif" font-size="10.00"> &lt; KuszkAPI::Forms::</text>
<text text-anchor="middle" x="200" y="-1054" font-family="Helvetica,sans-Serif" font-size="10.00">ComboBox, unsigned &gt;</text>
</g>
<!-- Node9 -->
<g id="node9" class="node"><title>Node9</title>
<g id="a_node9"><a xlink:href="class_kuszk_a_p_i_1_1_containers_1_1_map.html" target="_top" xlink:title="KuszkAPI::Containers\l::Map\&lt; KuszkAPI::Forms\l::RadioBox, unsigned \&gt;">
<polygon fill="white" stroke="black" points="296,-970.5 296,-1011.5 424,-1011.5 424,-970.5 296,-970.5"/>
<text text-anchor="start" x="304" y="-999.5" font-family="Helvetica,sans-Serif" font-size="10.00">KuszkAPI::Containers</text>
<text text-anchor="start" x="304" y="-988.5" font-family="Helvetica,sans-Serif" font-size="10.00">::Map&lt; KuszkAPI::Forms</text>
<text text-anchor="middle" x="360" y="-977.5" font-family="Helvetica,sans-Serif" font-size="10.00">::RadioBox, unsigned &gt;</text>
</a>
</g>
</g>
<!-- Node1&#45;&gt;Node9 -->
<g id="edge8" class="edge"><title>Node1&#45;&gt;Node9</title>
<path fill="none" stroke="orange" stroke-dasharray="5,2" d="M60.1131,-726.198C59.7568,-779.006 67.0865,-901.393 138,-962 181.096,-998.832 247.242,-1003.01 295.943,-999.838"/>
<polygon fill="orange" stroke="orange" points="63.6153,-726.091 60.2856,-716.033 56.6163,-725.972 63.6153,-726.091"/>
<text text-anchor="start" x="151.5" y="-1015" font-family="Helvetica,sans-Serif" font-size="10.00"> &lt; KuszkAPI::Forms::</text>
<text text-anchor="middle" x="200" y="-1004" font-family="Helvetica,sans-Serif" font-size="10.00">RadioBox, unsigned &gt;</text>
</g>
<!-- Node10 -->
<g id="node10" class="node"><title>Node10</title>
<g id="a_node10"><a xlink:href="class_kuszk_a_p_i_1_1_containers_1_1_map.html" target="_top" xlink:title="KuszkAPI::Containers\l::Map\&lt; KuszkAPI::Forms\l::Button, unsigned \&gt;">
<polygon fill="white" stroke="black" points="296,-910.5 296,-951.5 424,-951.5 424,-910.5 296,-910.5"/>
<text text-anchor="start" x="304" y="-939.5" font-family="Helvetica,sans-Serif" font-size="10.00">KuszkAPI::Containers</text>
<text text-anchor="start" x="304" y="-928.5" font-family="Helvetica,sans-Serif" font-size="10.00">::Map&lt; KuszkAPI::Forms</text>
<text text-anchor="middle" x="360" y="-917.5" font-family="Helvetica,sans-Serif" font-size="10.00">::Button, unsigned &gt;</text>
</a>
</g>
</g>
<!-- Node1&#45;&gt;Node10 -->
<g id="edge9" class="edge"><title>Node1&#45;&gt;Node10</title>
<path fill="none" stroke="orange" stroke-dasharray="5,2" d="M63.3367,-726.407C68.6386,-768.366 85.5366,-851.702 138,-894 182.065,-929.527 247.43,-936.622 295.65,-936.128"/>
<polygon fill="orange" stroke="orange" points="66.7844,-725.748 62.176,-716.208 59.8293,-726.54 66.7844,-725.748"/>
<text text-anchor="start" x="152" y="-950" font-family="Helvetica,sans-Serif" font-size="10.00"> &lt; KuszkAPI::Forms::</text>
<text text-anchor="middle" x="200" y="-939" font-family="Helvetica,sans-Serif" font-size="10.00">Button, unsigned &gt;</text>
</g>
<!-- Node11 -->
<g id="node11" class="node"><title>Node11</title>
<g id="a_node11"><a xlink:href="class_kuszk_a_p_i_1_1_containers_1_1_map.html" target="_top" xlink:title="KuszkAPI::Containers\l::Map\&lt; KuszkAPI::Core\l::Threads::ItemData, tnKey \&gt;">
<polygon fill="white" stroke="black" points="288.5,-850.5 288.5,-891.5 431.5,-891.5 431.5,-850.5 288.5,-850.5"/>
<text text-anchor="start" x="296.5" y="-879.5" font-family="Helvetica,sans-Serif" font-size="10.00">KuszkAPI::Containers</text>
<text text-anchor="start" x="296.5" y="-868.5" font-family="Helvetica,sans-Serif" font-size="10.00">::Map&lt; KuszkAPI::Core</text>
<text text-anchor="middle" x="360" y="-857.5" font-family="Helvetica,sans-Serif" font-size="10.00">::Threads::ItemData, tnKey &gt;</text>
</a>
</g>
</g>
<!-- Node1&#45;&gt;Node11 -->
<g id="edge10" class="edge"><title>Node1&#45;&gt;Node11</title>
<path fill="none" stroke="orange" stroke-dasharray="5,2" d="M69.3569,-725.839C80.3843,-754.637 102.642,-801.299 138,-826 181.895,-856.665 241.956,-867.409 288.387,-870.765"/>
<polygon fill="orange" stroke="orange" points="72.521,-724.3 65.7988,-716.111 65.9469,-726.705 72.521,-724.3"/>
<text text-anchor="start" x="138.5" y="-882" font-family="Helvetica,sans-Serif" font-size="10.00"> &lt; KuszkAPI::Core::Threads</text>
<text text-anchor="middle" x="200" y="-871" font-family="Helvetica,sans-Serif" font-size="10.00">::ItemData, tnKey &gt;</text>
</g>
<!-- Node12 -->
<g id="node12" class="node"><title>Node12</title>
<g id="a_node12"><a xlink:href="class_kuszk_a_p_i_1_1_containers_1_1_map.html" target="_top" xlink:title="KuszkAPI::Containers\l::Map\&lt; HANDLE, unsigned \&gt;">
<polygon fill="white" stroke="black" points="288.5,-801 288.5,-831 431.5,-831 431.5,-801 288.5,-801"/>
<text text-anchor="start" x="296.5" y="-819" font-family="Helvetica,sans-Serif" font-size="10.00">KuszkAPI::Containers</text>
<text text-anchor="middle" x="360" y="-808" font-family="Helvetica,sans-Serif" font-size="10.00">::Map&lt; HANDLE, unsigned &gt;</text>
</a>
</g>
</g>
<!-- Node1&#45;&gt;Node12 -->
<g id="edge11" class="edge"><title>Node1&#45;&gt;Node12</title>
<path fill="none" stroke="orange" stroke-dasharray="5,2" d="M78.2393,-724.002C92.3672,-741.121 113.906,-763.589 138,-776 184.622,-800.015 243.258,-809.837 288.415,-813.75"/>
<polygon fill="orange" stroke="orange" points="80.8975,-721.722 71.9203,-716.095 75.4292,-726.092 80.8975,-721.722"/>
<text text-anchor="middle" x="200" y="-814" font-family="Helvetica,sans-Serif" font-size="10.00"> &lt; HANDLE, unsigned &gt;</text>
</g>
<!-- Node13 -->
<g id="node13" class="node"><title>Node13</title>
<g id="a_node13"><a xlink:href="class_kuszk_a_p_i_1_1_containers_1_1_map.html" target="_top" xlink:title="KuszkAPI::Containers\l::Map\&lt; KuszkAPI::Forms\l::ListBox, unsigned \&gt;">
<polygon fill="white" stroke="black" points="296,-740.5 296,-781.5 424,-781.5 424,-740.5 296,-740.5"/>
<text text-anchor="start" x="304" y="-769.5" font-family="Helvetica,sans-Serif" font-size="10.00">KuszkAPI::Containers</text>
<text text-anchor="start" x="304" y="-758.5" font-family="Helvetica,sans-Serif" font-size="10.00">::Map&lt; KuszkAPI::Forms</text>
<text text-anchor="middle" x="360" y="-747.5" font-family="Helvetica,sans-Serif" font-size="10.00">::ListBox, unsigned &gt;</text>
</a>
</g>
</g>
<!-- Node1&#45;&gt;Node13 -->
<g id="edge12" class="edge"><title>Node1&#45;&gt;Node13</title>
<path fill="none" stroke="orange" stroke-dasharray="5,2" d="M110.904,-719.245C119.848,-722.114 129.141,-724.84 138,-727 190.423,-739.781 251.072,-748.707 295.559,-754.195"/>
<polygon fill="orange" stroke="orange" points="111.967,-715.91 101.374,-716.095 109.771,-722.556 111.967,-715.91"/>
<text text-anchor="start" x="152" y="-764" font-family="Helvetica,sans-Serif" font-size="10.00"> &lt; KuszkAPI::Forms::</text>
<text text-anchor="middle" x="200" y="-753" font-family="Helvetica,sans-Serif" font-size="10.00">ListBox, unsigned &gt;</text>
</g>
<!-- Node14 -->
<g id="node14" class="node"><title>Node14</title>
<g id="a_node14"><a xlink:href="class_kuszk_a_p_i_1_1_containers_1_1_map.html" target="_top" xlink:title="KuszkAPI::Containers\l::Map\&lt; KuszkAPI::Forms\l::EditBox, unsigned \&gt;">
<polygon fill="white" stroke="black" points="296,-680.5 296,-721.5 424,-721.5 424,-680.5 296,-680.5"/>
<text text-anchor="start" x="304" y="-709.5" font-family="Helvetica,sans-Serif" font-size="10.00">KuszkAPI::Containers</text>
<text text-anchor="start" x="304" y="-698.5" font-family="Helvetica,sans-Serif" font-size="10.00">::Map&lt; KuszkAPI::Forms</text>
<text text-anchor="middle" x="360" y="-687.5" font-family="Helvetica,sans-Serif" font-size="10.00">::EditBox, unsigned &gt;</text>
</a>
</g>
</g>
<!-- Node1&#45;&gt;Node14 -->
<g id="edge13" class="edge"><title>Node1&#45;&gt;Node14</title>
<path fill="none" stroke="orange" stroke-dasharray="5,2" d="M129.622,-701C179.754,-701 247.21,-701 295.981,-701"/>
<polygon fill="orange" stroke="orange" points="129.52,-697.5 119.52,-701 129.52,-704.5 129.52,-697.5"/>
<text text-anchor="start" x="152" y="-715" font-family="Helvetica,sans-Serif" font-size="10.00"> &lt; KuszkAPI::Forms::</text>
<text text-anchor="middle" x="200" y="-704" font-family="Helvetica,sans-Serif" font-size="10.00">EditBox, unsigned &gt;</text>
</g>
<!-- Node15 -->
<g id="node15" class="node"><title>Node15</title>
<g id="a_node15"><a xlink:href="class_kuszk_a_p_i_1_1_containers_1_1_map.html" target="_top" xlink:title="KuszkAPI::Containers\l::Map\&lt; UINT_PTR, unsigned \&gt;">
<polygon fill="white" stroke="black" points="285.5,-631 285.5,-661 434.5,-661 434.5,-631 285.5,-631"/>
<text text-anchor="start" x="293.5" y="-649" font-family="Helvetica,sans-Serif" font-size="10.00">KuszkAPI::Containers</text>
<text text-anchor="middle" x="360" y="-638" font-family="Helvetica,sans-Serif" font-size="10.00">::Map&lt; UINT_PTR, unsigned &gt;</text>
</a>
</g>
</g>
<!-- Node1&#45;&gt;Node15 -->
<g id="edge14" class="edge"><title>Node1&#45;&gt;Node15</title>
<path fill="none" stroke="orange" stroke-dasharray="5,2" d="M129.864,-687.538C132.611,-687.016 135.331,-686.501 138,-686 187.051,-676.784 242.301,-666.784 285.288,-659.088"/>
<polygon fill="orange" stroke="orange" points="129.006,-684.138 119.841,-689.454 130.32,-691.014 129.006,-684.138"/>
<text text-anchor="middle" x="200" y="-689" font-family="Helvetica,sans-Serif" font-size="10.00"> &lt; UINT_PTR, unsigned &gt;</text>
</g>
<!-- Node16 -->
<g id="node16" class="node"><title>Node16</title>
<g id="a_node16"><a xlink:href="class_kuszk_a_p_i_1_1_containers_1_1_map.html" target="_top" xlink:title="KuszkAPI::Containers\l::Map\&lt; KuszkAPI::Forms\l::TableBox, unsigned \&gt;">
<polygon fill="white" stroke="black" points="296,-570.5 296,-611.5 424,-611.5 424,-570.5 296,-570.5"/>
<text text-anchor="start" x="304" y="-599.5" font-family="Helvetica,sans-Serif" font-size="10.00">KuszkAPI::Containers</text>
<text text-anchor="start" x="304" y="-588.5" font-family="Helvetica,sans-Serif" font-size="10.00">::Map&lt; KuszkAPI::Forms</text>
<text text-anchor="middle" x="360" y="-577.5" font-family="Helvetica,sans-Serif" font-size="10.00">::TableBox, unsigned &gt;</text>
</a>
</g>
</g>
<!-- Node1&#45;&gt;Node16 -->
<g id="edge15" class="edge"><title>Node1&#45;&gt;Node16</title>
<path fill="none" stroke="orange" stroke-dasharray="5,2" d="M82.5287,-678.587C96.9696,-664.849 117.111,-648.03 138,-638 188.036,-613.975 250.278,-602.15 295.945,-596.378"/>
<polygon fill="orange" stroke="orange" points="79.819,-676.342 75.124,-685.839 84.7172,-681.343 79.819,-676.342"/>
<text text-anchor="start" x="152" y="-652" font-family="Helvetica,sans-Serif" font-size="10.00"> &lt; KuszkAPI::Forms::</text>
<text text-anchor="middle" x="200" y="-641" font-family="Helvetica,sans-Serif" font-size="10.00">TableBox, unsigned &gt;</text>
</g>
<!-- Node17 -->
<g id="node17" class="node"><title>Node17</title>
<g id="a_node17"><a xlink:href="class_kuszk_a_p_i_1_1_containers_1_1_map.html" target="_top" xlink:title="KuszkAPI::Containers\l::Map\&lt; KuszkAPI::Forms\l::CheckBox, unsigned \&gt;">
<polygon fill="white" stroke="black" points="296,-510.5 296,-551.5 424,-551.5 424,-510.5 296,-510.5"/>
<text text-anchor="start" x="304" y="-539.5" font-family="Helvetica,sans-Serif" font-size="10.00">KuszkAPI::Containers</text>
<text text-anchor="start" x="304" y="-528.5" font-family="Helvetica,sans-Serif" font-size="10.00">::Map&lt; KuszkAPI::Forms</text>
<text text-anchor="middle" x="360" y="-517.5" font-family="Helvetica,sans-Serif" font-size="10.00">::CheckBox, unsigned &gt;</text>
</a>
</g>
</g>
<!-- Node1&#45;&gt;Node17 -->
<g id="edge16" class="edge"><title>Node1&#45;&gt;Node17</title>
<path fill="none" stroke="orange" stroke-dasharray="5,2" d="M69.3569,-676.161C80.3843,-647.363 102.642,-600.701 138,-576 184.222,-543.71 248.37,-533.508 295.652,-530.761"/>
<polygon fill="orange" stroke="orange" points="65.9469,-675.295 65.7988,-685.889 72.521,-677.7 65.9469,-675.295"/>
<text text-anchor="start" x="150" y="-590" font-family="Helvetica,sans-Serif" font-size="10.00"> &lt; KuszkAPI::Forms::</text>
<text text-anchor="middle" x="200" y="-579" font-family="Helvetica,sans-Serif" font-size="10.00">CheckBox, unsigned &gt;</text>
</g>
<!-- Node18 -->
<g id="node18" class="node"><title>Node18</title>
<g id="a_node18"><a xlink:href="class_kuszk_a_p_i_1_1_containers_1_1_map.html" target="_top" xlink:title="KuszkAPI::Containers\l::Map\&lt; KuszkAPI::Forms\l::Font::ItemData, unsigned \&gt;">
<polygon fill="white" stroke="black" points="289.5,-450.5 289.5,-491.5 430.5,-491.5 430.5,-450.5 289.5,-450.5"/>
<text text-anchor="start" x="297.5" y="-479.5" font-family="Helvetica,sans-Serif" font-size="10.00">KuszkAPI::Containers</text>
<text text-anchor="start" x="297.5" y="-468.5" font-family="Helvetica,sans-Serif" font-size="10.00">::Map&lt; KuszkAPI::Forms</text>
<text text-anchor="middle" x="360" y="-457.5" font-family="Helvetica,sans-Serif" font-size="10.00">::Font::ItemData, unsigned &gt;</text>
</a>
</g>
</g>
<!-- Node1&#45;&gt;Node18 -->
<g id="edge17" class="edge"><title>Node1&#45;&gt;Node18</title>
<path fill="none" stroke="orange" stroke-dasharray="5,2" d="M63.4001,-675.746C68.795,-634.036 85.8259,-551.177 138,-509 180.159,-474.919 241.842,-466.671 289.336,-466.236"/>
<polygon fill="orange" stroke="orange" points="59.8999,-675.546 62.2158,-685.884 66.8526,-676.358 59.8999,-675.546"/>
<text text-anchor="start" x="140.5" y="-523" font-family="Helvetica,sans-Serif" font-size="10.00"> &lt; KuszkAPI::Forms::</text>
<text text-anchor="middle" x="200" y="-512" font-family="Helvetica,sans-Serif" font-size="10.00">Font::ItemData, unsigned &gt;</text>
</g>
<!-- Node19 -->
<g id="node19" class="node"><title>Node19</title>
<g id="a_node19"><a xlink:href="class_kuszk_a_p_i_1_1_containers_1_1_map.html" target="_top" xlink:title="KuszkAPI::Containers\l::Map\&lt; KuszkAPI::Sockets\l::Client, SOCKET \&gt;">
<polygon fill="white" stroke="black" points="292,-390.5 292,-431.5 428,-431.5 428,-390.5 292,-390.5"/>
<text text-anchor="start" x="300" y="-419.5" font-family="Helvetica,sans-Serif" font-size="10.00">KuszkAPI::Containers</text>
<text text-anchor="start" x="300" y="-408.5" font-family="Helvetica,sans-Serif" font-size="10.00">::Map&lt; KuszkAPI::Sockets</text>
<text text-anchor="middle" x="360" y="-397.5" font-family="Helvetica,sans-Serif" font-size="10.00">::Client, SOCKET &gt;</text>
</a>
</g>
</g>
<!-- Node1&#45;&gt;Node19 -->
<g id="edge18" class="edge"><title>Node1&#45;&gt;Node19</title>
<path fill="none" stroke="orange" stroke-dasharray="5,2" d="M60.2227,-675.666C60.1158,-623.145 67.957,-502.276 138,-442 179.848,-405.988 243.584,-400.462 291.874,-402.641"/>
<polygon fill="orange" stroke="orange" points="56.7244,-675.833 60.3466,-685.79 63.7239,-675.748 56.7244,-675.833"/>
<text text-anchor="start" x="151" y="-456" font-family="Helvetica,sans-Serif" font-size="10.00"> &lt; KuszkAPI::Sockets</text>
<text text-anchor="middle" x="200" y="-445" font-family="Helvetica,sans-Serif" font-size="10.00">::Client, SOCKET &gt;</text>
</g>
<!-- Node20 -->
<g id="node20" class="node"><title>Node20</title>
<g id="a_node20"><a xlink:href="class_kuszk_a_p_i_1_1_containers_1_1_map.html" target="_top" xlink:title="KuszkAPI::Containers\l::Map\&lt; HHOOK, tnKey \&gt;">
<polygon fill="white" stroke="black" points="297,-341 297,-371 423,-371 423,-341 297,-341"/>
<text text-anchor="start" x="305" y="-359" font-family="Helvetica,sans-Serif" font-size="10.00">KuszkAPI::Containers</text>
<text text-anchor="middle" x="360" y="-348" font-family="Helvetica,sans-Serif" font-size="10.00">::Map&lt; HHOOK, tnKey &gt;</text>
</a>
</g>
</g>
<!-- Node1&#45;&gt;Node20 -->
<g id="edge19" class="edge"><title>Node1&#45;&gt;Node20</title>
<path fill="none" stroke="orange" stroke-dasharray="5,2" d="M63.6187,-675.706C71.1288,-608.331 95.006,-426.997 138,-388 180.499,-349.452 247.723,-344.78 296.879,-347.698"/>
<polygon fill="orange" stroke="orange" points="60.1168,-675.535 62.5161,-685.855 67.0758,-676.291 60.1168,-675.535"/>
<text text-anchor="middle" x="200" y="-391" font-family="Helvetica,sans-Serif" font-size="10.00"> &lt; HHOOK, tnKey &gt;</text>
</g>
<!-- Node21 -->
<g id="node21" class="node"><title>Node21</title>
<g id="a_node21"><a xlink:href="class_kuszk_a_p_i_1_1_containers_1_1_map.html" target="_top" xlink:title="KuszkAPI::Containers\l::Map\&lt; KuszkAPI::Forms\l::TabBox, unsigned \&gt;">
<polygon fill="white" stroke="black" points="296,-280.5 296,-321.5 424,-321.5 424,-280.5 296,-280.5"/>
<text text-anchor="start" x="304" y="-309.5" font-family="Helvetica,sans-Serif" font-size="10.00">KuszkAPI::Containers</text>
<text text-anchor="start" x="304" y="-298.5" font-family="Helvetica,sans-Serif" font-size="10.00">::Map&lt; KuszkAPI::Forms</text>
<text text-anchor="middle" x="360" y="-287.5" font-family="Helvetica,sans-Serif" font-size="10.00">::TabBox, unsigned &gt;</text>
</a>
</g>
</g>
<!-- Node1&#45;&gt;Node21 -->
<g id="edge20" class="edge"><title>Node1&#45;&gt;Node21</title>
<path fill="none" stroke="orange" stroke-dasharray="5,2" d="M62.348,-675.555C66.9929,-598.428 85.0684,-369.613 138,-322 180.122,-284.111 246.739,-282.811 295.831,-288.573"/>
<polygon fill="orange" stroke="orange" points="58.8392,-675.61 61.7576,-685.795 65.8276,-676.013 58.8392,-675.61"/>
<text text-anchor="start" x="152" y="-336" font-family="Helvetica,sans-Serif" font-size="10.00"> &lt; KuszkAPI::Forms::</text>
<text text-anchor="middle" x="200" y="-325" font-family="Helvetica,sans-Serif" font-size="10.00">TabBox, unsigned &gt;</text>
</g>
<!-- Node22 -->
<g id="node22" class="node"><title>Node22</title>
<g id="a_node22"><a xlink:href="class_kuszk_a_p_i_1_1_containers_1_1_map.html" target="_top" xlink:title="KuszkAPI::Containers\l::Map\&lt; HINSTANCE, unsigned \&gt;">
<polygon fill="white" stroke="black" points="280.5,-231 280.5,-261 439.5,-261 439.5,-231 280.5,-231"/>
<text text-anchor="start" x="288.5" y="-249" font-family="Helvetica,sans-Serif" font-size="10.00">KuszkAPI::Containers</text>
<text text-anchor="middle" x="360" y="-238" font-family="Helvetica,sans-Serif" font-size="10.00">::Map&lt; HINSTANCE, unsigned &gt;</text>
</a>
</g>
</g>
<!-- Node1&#45;&gt;Node22 -->
<g id="edge21" class="edge"><title>Node1&#45;&gt;Node22</title>
<path fill="none" stroke="orange" stroke-dasharray="5,2" d="M61.7407,-675.633C64.7353,-592.088 78.808,-327.716 138,-272 175.274,-236.915 233.166,-231.184 280.349,-233.819"/>
<polygon fill="orange" stroke="orange" points="58.2384,-675.645 61.4013,-685.757 65.2345,-675.88 58.2384,-675.645"/>
<text text-anchor="middle" x="200" y="-275" font-family="Helvetica,sans-Serif" font-size="10.00"> &lt; HINSTANCE, unsigned &gt;</text>
</g>
<!-- Node23 -->
<g id="node23" class="node"><title>Node23</title>
<g id="a_node23"><a xlink:href="class_kuszk_a_p_i_1_1_containers_1_1_map.html" target="_top" xlink:title="KuszkAPI::Containers\l::Map\&lt; KuszkAPI::Forms\l::Label, unsigned \&gt;">
<polygon fill="white" stroke="black" points="296,-170.5 296,-211.5 424,-211.5 424,-170.5 296,-170.5"/>
<text text-anchor="start" x="304" y="-199.5" font-family="Helvetica,sans-Serif" font-size="10.00">KuszkAPI::Containers</text>
<text text-anchor="start" x="304" y="-188.5" font-family="Helvetica,sans-Serif" font-size="10.00">::Map&lt; KuszkAPI::Forms</text>
<text text-anchor="middle" x="360" y="-177.5" font-family="Helvetica,sans-Serif" font-size="10.00">::Label, unsigned &gt;</text>
</a>
</g>
</g>
<!-- Node1&#45;&gt;Node23 -->
<g id="edge22" class="edge"><title>Node1&#45;&gt;Node23</title>
<path fill="none" stroke="orange" stroke-dasharray="5,2" d="M61.0044,-675.739C61.5887,-584.228 68.7082,-272.077 138,-208 179.602,-169.529 246.463,-169.69 295.762,-176.769"/>
<polygon fill="orange" stroke="orange" points="57.5044,-675.759 60.9619,-685.774 64.5044,-675.789 57.5044,-675.759"/>
<text text-anchor="start" x="152" y="-222" font-family="Helvetica,sans-Serif" font-size="10.00"> &lt; KuszkAPI::Forms::</text>
<text text-anchor="middle" x="200" y="-211" font-family="Helvetica,sans-Serif" font-size="10.00">Label, unsigned &gt;</text>
</g>
<!-- Node24 -->
<g id="node24" class="node"><title>Node24</title>
<g id="a_node24"><a xlink:href="class_kuszk_a_p_i_1_1_containers_1_1_map.html" target="_top" xlink:title="KuszkAPI::Containers\l::Map\&lt; HANDLE, tnKey \&gt;">
<polygon fill="white" stroke="black" points="295,-121 295,-151 425,-151 425,-121 295,-121"/>
<text text-anchor="start" x="303" y="-139" font-family="Helvetica,sans-Serif" font-size="10.00">KuszkAPI::Containers</text>
<text text-anchor="middle" x="360" y="-128" font-family="Helvetica,sans-Serif" font-size="10.00">::Map&lt; HANDLE, tnKey &gt;</text>
</a>
</g>
</g>
<!-- Node1&#45;&gt;Node24 -->
<g id="edge23" class="edge"><title>Node1&#45;&gt;Node24</title>
<path fill="none" stroke="orange" stroke-dasharray="5,2" d="M60.6707,-675.872C59.9622,-578.983 62.7798,-231.457 138,-159 178.771,-119.727 245.42,-117.922 294.882,-123.534"/>
<polygon fill="orange" stroke="orange" points="57.1713,-675.96 60.7644,-685.927 64.171,-675.895 57.1713,-675.96"/>
<text text-anchor="middle" x="200" y="-162" font-family="Helvetica,sans-Serif" font-size="10.00"> &lt; HANDLE, tnKey &gt;</text>
</g>
<!-- Node25 -->
<g id="node25" class="node"><title>Node25</title>
<g id="a_node25"><a xlink:href="class_kuszk_a_p_i_1_1_containers_1_1_map.html" target="_top" xlink:title="KuszkAPI::Containers\l::Map\&lt; CRITICAL_SECTION,\l unsigned \&gt;">
<polygon fill="white" stroke="black" points="288.5,-60.5 288.5,-101.5 431.5,-101.5 431.5,-60.5 288.5,-60.5"/>
<text text-anchor="start" x="296.5" y="-89.5" font-family="Helvetica,sans-Serif" font-size="10.00">KuszkAPI::Containers</text>
<text text-anchor="start" x="296.5" y="-78.5" font-family="Helvetica,sans-Serif" font-size="10.00">::Map&lt; CRITICAL_SECTION,</text>
<text text-anchor="middle" x="360" y="-67.5" font-family="Helvetica,sans-Serif" font-size="10.00"> unsigned &gt;</text>
</a>
</g>
</g>
<!-- Node1&#45;&gt;Node25 -->
<g id="edge24" class="edge"><title>Node1&#45;&gt;Node25</title>
<path fill="none" stroke="orange" stroke-dasharray="5,2" d="M62.3603,-675.582C68.4781,-565.857 95.0336,-136.511 138,-96 177.243,-59.0002 239.818,-58.0391 288.383,-64.7341"/>
<polygon fill="orange" stroke="orange" points="58.8568,-675.55 61.8024,-685.727 65.8463,-675.934 58.8568,-675.55"/>
<text text-anchor="start" x="147.5" y="-110" font-family="Helvetica,sans-Serif" font-size="10.00"> &lt; CRITICAL_SECTION,</text>
<text text-anchor="middle" x="200" y="-99" font-family="Helvetica,sans-Serif" font-size="10.00"> unsigned &gt;</text>
</g>
<!-- Node26 -->
<g id="node26" class="node"><title>Node26</title>
<g id="a_node26"><a xlink:href="class_kuszk_a_p_i_1_1_containers_1_1_map.html" target="_top" xlink:title="KuszkAPI::Containers\l::Map\&lt; CRITICAL_SECTION,\l tnKey \&gt;">
<polygon fill="white" stroke="black" points="288.5,-0.5 288.5,-41.5 431.5,-41.5 431.5,-0.5 288.5,-0.5"/>
<text text-anchor="start" x="296.5" y="-29.5" font-family="Helvetica,sans-Serif" font-size="10.00">KuszkAPI::Containers</text>
<text text-anchor="start" x="296.5" y="-18.5" font-family="Helvetica,sans-Serif" font-size="10.00">::Map&lt; CRITICAL_SECTION,</text>
<text text-anchor="middle" x="360" y="-7.5" font-family="Helvetica,sans-Serif" font-size="10.00"> tnKey &gt;</text>
</a>
</g>
</g>
<!-- Node1&#45;&gt;Node26 -->
<g id="edge25" class="edge"><title>Node1&#45;&gt;Node26</title>
<path fill="none" stroke="orange" stroke-dasharray="5,2" d="M62.0494,-675.706C67.1134,-559.558 90.7403,-81.0662 138,-36 177.033,1.22123 239.629,2.16116 288.254,-4.5983"/>
<polygon fill="orange" stroke="orange" points="58.5488,-675.648 61.6171,-685.788 65.5423,-675.947 58.5488,-675.648"/>
<text text-anchor="start" x="147.5" y="-50" font-family="Helvetica,sans-Serif" font-size="10.00"> &lt; CRITICAL_SECTION,</text>
<text text-anchor="middle" x="200" y="-39" font-family="Helvetica,sans-Serif" font-size="10.00"> tnKey &gt;</text>
</g>
</g>
</svg>
