<?xml version="1.0" encoding="UTF-8" standalone="no"?>
<!DOCTYPE svg PUBLIC "-//W3C//DTD SVG 1.1//EN"
 "http://www.w3.org/Graphics/SVG/1.1/DTD/svg11.dtd">
<!-- Generated by graphviz version 2.36.0 (20140111.2315)
 -->
<!-- Title: KuszkAPI::Containers::Array::GetBegin Pages: 1 -->
<svg width="272pt" height="136pt"
 viewBox="0.00 0.00 272.00 136.00" xmlns="http://www.w3.org/2000/svg" xmlns:xlink="http://www.w3.org/1999/xlink">
<g id="graph0" class="graph" transform="scale(1 1) rotate(0) translate(4 132)">
<title>KuszkAPI::Containers::Array::GetBegin</title>
<polygon fill="white" stroke="none" points="-4,4 -4,-132 268,-132 268,4 -4,4"/>
<!-- Node1 -->
<g id="node1" class="node"><title>Node1</title>
<polygon fill="#bfbfbf" stroke="black" points="0.5,-49 0.5,-79 113.5,-79 113.5,-49 0.5,-49"/>
<text text-anchor="start" x="8.5" y="-67" font-family="Helvetica,sans-Serif" font-size="10.00">KuszkAPI::Containers</text>
<text text-anchor="middle" x="57" y="-56" font-family="Helvetica,sans-Serif" font-size="10.00">::Array::GetBegin</text>
</g>
<!-- Node2 -->
<g id="node2" class="node"><title>Node2</title>
<g id="a_node2"><a xlink:href="class_kuszk_a_p_i_1_1_containers_1_1_array.html#a16b7f7bc610f0e27a854a17dc89077c3" target="_top" xlink:title="Konstruktor konwertujący. ">
<polygon fill="white" stroke="black" points="150.5,-98 150.5,-128 263.5,-128 263.5,-98 150.5,-98"/>
<text text-anchor="start" x="158.5" y="-116" font-family="Helvetica,sans-Serif" font-size="10.00">KuszkAPI::Containers</text>
<text text-anchor="middle" x="207" y="-105" font-family="Helvetica,sans-Serif" font-size="10.00">::Array::Array</text>
</a>
</g>
</g>
<!-- Node1&#45;&gt;Node2 -->
<g id="edge1" class="edge"><title>Node1&#45;&gt;Node2</title>
<path fill="none" stroke="midnightblue" d="M113.15,-82.2591C128.76,-87.4273 145.569,-92.9924 160.538,-97.9484"/>
<polygon fill="midnightblue" stroke="midnightblue" points="114.206,-78.9219 103.613,-79.1014 112.006,-85.5672 114.206,-78.9219"/>
</g>
<!-- Node3 -->
<g id="node3" class="node"><title>Node3</title>
<g id="a_node3"><a xlink:href="class_kuszk_a_p_i_1_1_sockets_1_1_client.html#a965d89fe855d7d7bff0b6848f71a8530" target="_top" xlink:title="KuszkAPI::Sockets::\lClient::Send">
<polygon fill="white" stroke="black" points="153,-49 153,-79 261,-79 261,-49 153,-49"/>
<text text-anchor="start" x="161" y="-67" font-family="Helvetica,sans-Serif" font-size="10.00">KuszkAPI::Sockets::</text>
<text text-anchor="middle" x="207" y="-56" font-family="Helvetica,sans-Serif" font-size="10.00">Client::Send</text>
</a>
</g>
</g>
<!-- Node1&#45;&gt;Node3 -->
<g id="edge2" class="edge"><title>Node1&#45;&gt;Node3</title>
<path fill="none" stroke="midnightblue" d="M123.556,-64C133.271,-64 143.184,-64 152.611,-64"/>
<polygon fill="midnightblue" stroke="midnightblue" points="123.531,-60.5001 113.531,-64 123.531,-67.5001 123.531,-60.5001"/>
</g>
<!-- Node4 -->
<g id="node4" class="node"><title>Node4</title>
<g id="a_node4"><a xlink:href="class_kuszk_a_p_i_1_1_containers_1_1_vector.html#afe59a96fddc480239660ea6cdd5f1412" target="_top" xlink:title="KuszkAPI::Containers\l::Vector::Vector">
<polygon fill="white" stroke="black" points="150.5,-0 150.5,-30 263.5,-30 263.5,-0 150.5,-0"/>
<text text-anchor="start" x="158.5" y="-18" font-family="Helvetica,sans-Serif" font-size="10.00">KuszkAPI::Containers</text>
<text text-anchor="middle" x="207" y="-7" font-family="Helvetica,sans-Serif" font-size="10.00">::Vector::Vector</text>
</a>
</g>
</g>
<!-- Node1&#45;&gt;Node4 -->
<g id="edge3" class="edge"><title>Node1&#45;&gt;Node4</title>
<path fill="none" stroke="midnightblue" d="M113.15,-45.7409C128.76,-40.5727 145.569,-35.0076 160.538,-30.0516"/>
<polygon fill="midnightblue" stroke="midnightblue" points="112.006,-42.4328 103.613,-48.8986 114.206,-49.0781 112.006,-42.4328"/>
</g>
</g>
</svg>
