<?xml version="1.0" encoding="UTF-8" standalone="no"?>
<!DOCTYPE svg PUBLIC "-//W3C//DTD SVG 1.1//EN"
 "http://www.w3.org/Graphics/SVG/1.1/DTD/svg11.dtd">
<!-- Generated by graphviz version 2.36.0 (20140111.2315)
 -->
<!-- Title: KuszkAPI::Forms::TabBox::GetItems Pages: 1 -->
<svg width="442pt" height="185pt"
 viewBox="0.00 0.00 442.00 185.00" xmlns="http://www.w3.org/2000/svg" xmlns:xlink="http://www.w3.org/1999/xlink">
<g id="graph0" class="graph" transform="scale(1 1) rotate(0) translate(4 181)">
<title>KuszkAPI::Forms::TabBox::GetItems</title>
<polygon fill="white" stroke="none" points="-4,4 -4,-181 438,-181 438,4 -4,4"/>
<!-- Node1 -->
<g id="node1" class="node"><title>Node1</title>
<polygon fill="#bfbfbf" stroke="black" points="0.5,-73 0.5,-103 133.5,-103 133.5,-73 0.5,-73"/>
<text text-anchor="start" x="8.5" y="-91" font-family="Helvetica,sans-Serif" font-size="10.00">KuszkAPI::Forms::TabBox</text>
<text text-anchor="middle" x="67" y="-80" font-family="Helvetica,sans-Serif" font-size="10.00">::GetItems</text>
</g>
<!-- Node2 -->
<g id="node2" class="node"><title>Node2</title>
<g id="a_node2"><a xlink:href="class_kuszk_a_p_i_1_1_containers_1_1_strings.html#aae1e705132390add4e0b03ff36ffb094" target="_top" xlink:title="KuszkAPI::Containers\l::Strings::Add">
<polygon fill="white" stroke="black" points="170.5,-73 170.5,-103 283.5,-103 283.5,-73 170.5,-73"/>
<text text-anchor="start" x="178.5" y="-91" font-family="Helvetica,sans-Serif" font-size="10.00">KuszkAPI::Containers</text>
<text text-anchor="middle" x="227" y="-80" font-family="Helvetica,sans-Serif" font-size="10.00">::Strings::Add</text>
</a>
</g>
</g>
<!-- Node1&#45;&gt;Node2 -->
<g id="edge1" class="edge"><title>Node1&#45;&gt;Node2</title>
<path fill="none" stroke="midnightblue" d="M133.634,-88C142.409,-88 151.411,-88 160.189,-88"/>
<polygon fill="midnightblue" stroke="midnightblue" points="160.365,-91.5001 170.365,-88 160.365,-84.5001 160.365,-91.5001"/>
</g>
<!-- Node3 -->
<g id="node3" class="node"><title>Node3</title>
<g id="a_node3"><a xlink:href="class_kuszk_a_p_i_1_1_containers_1_1_string.html#afd694656c3c52b347d6b965e2f5afb6a" target="_top" xlink:title="KuszkAPI::Containers\l::String::Capacity">
<polygon fill="white" stroke="black" points="320.5,-147 320.5,-177 433.5,-177 433.5,-147 320.5,-147"/>
<text text-anchor="start" x="328.5" y="-165" font-family="Helvetica,sans-Serif" font-size="10.00">KuszkAPI::Containers</text>
<text text-anchor="middle" x="377" y="-154" font-family="Helvetica,sans-Serif" font-size="10.00">::String::Capacity</text>
</a>
</g>
</g>
<!-- Node2&#45;&gt;Node3 -->
<g id="edge2" class="edge"><title>Node2&#45;&gt;Node3</title>
<path fill="none" stroke="midnightblue" d="M255.118,-103.082C273.306,-113.039 297.889,-126.192 320,-137 323.82,-138.867 327.811,-140.76 331.827,-142.626"/>
<polygon fill="midnightblue" stroke="midnightblue" points="330.624,-145.924 341.173,-146.903 333.537,-139.559 330.624,-145.924"/>
</g>
<!-- Node4 -->
<g id="node4" class="node"><title>Node4</title>
<g id="a_node4"><a xlink:href="class_kuszk_a_p_i_1_1_containers_1_1_string.html#a455584fed5c105b9d00ecaf985116d63" target="_top" xlink:title="KuszkAPI::Containers\l::String::Find">
<polygon fill="white" stroke="black" points="320.5,-98 320.5,-128 433.5,-128 433.5,-98 320.5,-98"/>
<text text-anchor="start" x="328.5" y="-116" font-family="Helvetica,sans-Serif" font-size="10.00">KuszkAPI::Containers</text>
<text text-anchor="middle" x="377" y="-105" font-family="Helvetica,sans-Serif" font-size="10.00">::String::Find</text>
</a>
</g>
</g>
<!-- Node2&#45;&gt;Node4 -->
<g id="edge3" class="edge"><title>Node2&#45;&gt;Node4</title>
<path fill="none" stroke="midnightblue" d="M283.531,-97.3802C292.232,-98.8499 301.296,-100.381 310.201,-101.885"/>
<polygon fill="midnightblue" stroke="midnightblue" points="309.715,-105.353 320.158,-103.567 310.881,-98.4504 309.715,-105.353"/>
</g>
<!-- Node5 -->
<g id="node5" class="node"><title>Node5</title>
<g id="a_node5"><a xlink:href="class_kuszk_a_p_i_1_1_containers_1_1_string.html#a8ca4879ad62f0f4521b7e13eaa711c2c" target="_top" xlink:title="KuszkAPI::Containers\l::String::GetData">
<polygon fill="white" stroke="black" points="320.5,-49 320.5,-79 433.5,-79 433.5,-49 320.5,-49"/>
<text text-anchor="start" x="328.5" y="-67" font-family="Helvetica,sans-Serif" font-size="10.00">KuszkAPI::Containers</text>
<text text-anchor="middle" x="377" y="-56" font-family="Helvetica,sans-Serif" font-size="10.00">::String::GetData</text>
</a>
</g>
</g>
<!-- Node2&#45;&gt;Node5 -->
<g id="edge4" class="edge"><title>Node2&#45;&gt;Node5</title>
<path fill="none" stroke="midnightblue" d="M283.531,-78.995C292.232,-77.5841 301.296,-76.1141 310.201,-74.6702"/>
<polygon fill="midnightblue" stroke="midnightblue" points="310.847,-78.1111 320.158,-73.0555 309.727,-71.2014 310.847,-78.1111"/>
</g>
<!-- Node6 -->
<g id="node6" class="node"><title>Node6</title>
<g id="a_node6"><a xlink:href="class_kuszk_a_p_i_1_1_containers_1_1_string.html#a34b2866bd4044c00ffafc482d5e44a54" target="_top" xlink:title="KuszkAPI::Containers\l::String::Part">
<polygon fill="white" stroke="black" points="320.5,-0 320.5,-30 433.5,-30 433.5,-0 320.5,-0"/>
<text text-anchor="start" x="328.5" y="-18" font-family="Helvetica,sans-Serif" font-size="10.00">KuszkAPI::Containers</text>
<text text-anchor="middle" x="377" y="-7" font-family="Helvetica,sans-Serif" font-size="10.00">::String::Part</text>
</a>
</g>
</g>
<!-- Node2&#45;&gt;Node6 -->
<g id="edge5" class="edge"><title>Node2&#45;&gt;Node6</title>
<path fill="none" stroke="midnightblue" d="M255.96,-72.8462C274.079,-63.1675 298.267,-50.5087 320,-40 323.99,-38.0708 328.163,-36.108 332.354,-34.1735"/>
<polygon fill="midnightblue" stroke="midnightblue" points="333.845,-37.3402 341.493,-30.008 330.942,-30.9705 333.845,-37.3402"/>
</g>
</g>
</svg>
