<?xml version="1.0" encoding="UTF-8" standalone="no"?>
<!DOCTYPE svg PUBLIC "-//W3C//DTD SVG 1.1//EN"
 "http://www.w3.org/Graphics/SVG/1.1/DTD/svg11.dtd">
<!-- Generated by graphviz version 2.36.0 (20140111.2315)
 -->
<!-- Title: KuszkAPI::Forms::Window Pages: 1 -->
<svg width="1734pt" height="853pt"
 viewBox="0.00 0.00 1734.00 853.00" xmlns="http://www.w3.org/2000/svg" xmlns:xlink="http://www.w3.org/1999/xlink">
<g id="graph0" class="graph" transform="scale(1 1) rotate(0) translate(4 849)">
<title>KuszkAPI::Forms::Window</title>
<polygon fill="white" stroke="none" points="-4,4 -4,-849 1730,-849 1730,4 -4,4"/>
<!-- Node1 -->
<g id="node1" class="node"><title>Node1</title>
<polygon fill="#bfbfbf" stroke="black" points="1592,-507.5 1592,-526.5 1726,-526.5 1726,-507.5 1592,-507.5"/>
<text text-anchor="middle" x="1659" y="-514.5" font-family="Helvetica,sans-Serif" font-size="10.00">KuszkAPI::Forms::Window</text>
</g>
<!-- Node2 -->
<g id="node2" class="node"><title>Node2</title>
<polygon fill="white" stroke="#bfbfbf" points="1221.5,-519.5 1221.5,-538.5 1268.5,-538.5 1268.5,-519.5 1221.5,-519.5"/>
<text text-anchor="middle" x="1245" y="-526.5" font-family="Helvetica,sans-Serif" font-size="10.00">HWND</text>
</g>
<!-- Node2&#45;&gt;Node1 -->
<g id="edge1" class="edge"><title>Node2&#45;&gt;Node1</title>
<path fill="none" stroke="#9a32cd" stroke-dasharray="5,2" d="M1278.81,-528.044C1346.44,-526.075 1502.49,-521.529 1591.9,-518.925"/>
<polygon fill="#9a32cd" stroke="#9a32cd" points="1278.63,-524.548 1268.74,-528.338 1278.84,-531.545 1278.63,-524.548"/>
<text text-anchor="middle" x="1461" y="-539" font-family="Helvetica,sans-Serif" font-size="10.00"> hUchwyt</text>
<text text-anchor="middle" x="1461" y="-528" font-family="Helvetica,sans-Serif" font-size="10.00">hOwner</text>
</g>
<!-- Node3 -->
<g id="node3" class="node"><title>Node3</title>
<g id="a_node3"><a xlink:href="class_kuszk_a_p_i_1_1_forms_1_1_window_1_1_timer.html" target="_top" xlink:title="KuszkAPI::Forms::Window\l::Timer">
<polygon fill="white" stroke="black" points="1394,-470 1394,-500 1528,-500 1528,-470 1394,-470"/>
<text text-anchor="start" x="1402" y="-488" font-family="Helvetica,sans-Serif" font-size="10.00">KuszkAPI::Forms::Window</text>
<text text-anchor="middle" x="1461" y="-477" font-family="Helvetica,sans-Serif" font-size="10.00">::Timer</text>
</a>
</g>
</g>
<!-- Node2&#45;&gt;Node3 -->
<g id="edge3" class="edge"><title>Node2&#45;&gt;Node3</title>
<path fill="none" stroke="#9a32cd" stroke-dasharray="5,2" d="M1278.98,-522.219C1309.44,-515.956 1355.59,-506.468 1393.66,-498.639"/>
<polygon fill="#9a32cd" stroke="#9a32cd" points="1277.99,-518.849 1268.9,-524.291 1279.4,-525.705 1277.99,-518.849"/>
<text text-anchor="middle" x="1357" y="-513" font-family="Helvetica,sans-Serif" font-size="10.00"> hOwner</text>
</g>
<!-- Node3&#45;&gt;Node1 -->
<g id="edge2" class="edge"><title>Node3&#45;&gt;Node1</title>
<path fill="none" stroke="#9a32cd" stroke-dasharray="5,2" d="M1538.02,-497.412C1558.53,-500.76 1580.39,-504.329 1599.76,-507.491"/>
<polygon fill="#9a32cd" stroke="#9a32cd" points="1538.52,-493.946 1528.08,-495.789 1537.39,-500.855 1538.52,-493.946"/>
<text text-anchor="middle" x="1560" y="-506" font-family="Helvetica,sans-Serif" font-size="10.00"> Timer</text>
</g>
<!-- Node4 -->
<g id="node4" class="node"><title>Node4</title>
<g id="a_node4"><a xlink:href="class_kuszk_a_p_i_1_1_containers_1_1_map.html" target="_top" xlink:title="KuszkAPI::Containers\l::Map\&lt; UINT_PTR, unsigned \&gt;">
<polygon fill="white" stroke="black" points="1170.5,-462 1170.5,-492 1319.5,-492 1319.5,-462 1170.5,-462"/>
<text text-anchor="start" x="1178.5" y="-480" font-family="Helvetica,sans-Serif" font-size="10.00">KuszkAPI::Containers</text>
<text text-anchor="middle" x="1245" y="-469" font-family="Helvetica,sans-Serif" font-size="10.00">::Map&lt; UINT_PTR, unsigned &gt;</text>
</a>
</g>
</g>
<!-- Node4&#45;&gt;Node3 -->
<g id="edge4" class="edge"><title>Node4&#45;&gt;Node3</title>
<path fill="none" stroke="#9a32cd" stroke-dasharray="5,2" d="M1329.63,-476.713C1345.06,-476.924 1361.02,-477.319 1376,-478 1381.7,-478.259 1387.62,-478.602 1393.54,-478.996"/>
<polygon fill="#9a32cd" stroke="#9a32cd" points="1329.63,-473.213 1319.59,-476.599 1329.55,-480.212 1329.63,-473.213"/>
<text text-anchor="middle" x="1357" y="-481" font-family="Helvetica,sans-Serif" font-size="10.00"> mTimer</text>
</g>
<!-- Node5 -->
<g id="node5" class="node"><title>Node5</title>
<g id="a_node5"><a xlink:href="class_kuszk_a_p_i_1_1_containers_1_1_list.html" target="_top" xlink:title="KuszkAPI::Containers\l::List\&lt; unsigned \&gt;">
<polygon fill="white" stroke="black" points="568.5,-308 568.5,-338 681.5,-338 681.5,-308 568.5,-308"/>
<text text-anchor="start" x="576.5" y="-326" font-family="Helvetica,sans-Serif" font-size="10.00">KuszkAPI::Containers</text>
<text text-anchor="middle" x="625" y="-315" font-family="Helvetica,sans-Serif" font-size="10.00">::List&lt; unsigned &gt;</text>
</a>
</g>
</g>
<!-- Node5&#45;&gt;Node4 -->
<g id="edge5" class="edge"><title>Node5&#45;&gt;Node4</title>
<path fill="none" stroke="#9a32cd" stroke-dasharray="5,2" d="M691.495,-339.321C811.97,-369.342 1067.04,-432.903 1183.6,-461.949"/>
<polygon fill="#9a32cd" stroke="#9a32cd" points="692.21,-335.892 681.66,-336.87 690.517,-342.684 692.21,-335.892"/>
<text text-anchor="middle" x="938" y="-412" font-family="Helvetica,sans-Serif" font-size="10.00"> lKey</text>
</g>
<!-- Node6 -->
<g id="node6" class="node"><title>Node6</title>
<g id="a_node6"><a xlink:href="class_kuszk_a_p_i_1_1_containers_1_1_container.html" target="_top" xlink:title="Implementacja bazy dla modułu kontenerów. ">
<polygon fill="white" stroke="black" points="132.5,-390 132.5,-420 245.5,-420 245.5,-390 132.5,-390"/>
<text text-anchor="start" x="140.5" y="-408" font-family="Helvetica,sans-Serif" font-size="10.00">KuszkAPI::Containers</text>
<text text-anchor="middle" x="189" y="-397" font-family="Helvetica,sans-Serif" font-size="10.00">::Container</text>
</a>
</g>
</g>
<!-- Node6&#45;&gt;Node5 -->
<g id="edge6" class="edge"><title>Node6&#45;&gt;Node5</title>
<path fill="none" stroke="midnightblue" d="M255.71,-392.714C327.161,-379.335 444.715,-357.27 546,-338 553.18,-336.634 560.73,-335.191 568.189,-333.761"/>
<polygon fill="midnightblue" stroke="midnightblue" points="254.695,-389.343 245.51,-394.623 255.984,-396.223 254.695,-389.343"/>
</g>
<!-- Node10 -->
<g id="node10" class="node"><title>Node10</title>
<g id="a_node10"><a xlink:href="class_kuszk_a_p_i_1_1_containers_1_1_list.html" target="_top" xlink:title="Implementacja szablonu listy dla modułu kontenerów. ">
<polygon fill="white" stroke="black" points="340.5,-308 340.5,-338 453.5,-338 453.5,-308 340.5,-308"/>
<text text-anchor="start" x="348.5" y="-326" font-family="Helvetica,sans-Serif" font-size="10.00">KuszkAPI::Containers</text>
<text text-anchor="middle" x="397" y="-315" font-family="Helvetica,sans-Serif" font-size="10.00">::List&lt; tnData &gt;</text>
</a>
</g>
</g>
<!-- Node6&#45;&gt;Node10 -->
<g id="edge13" class="edge"><title>Node6&#45;&gt;Node10</title>
<path fill="none" stroke="midnightblue" d="M209.26,-382.414C224.5,-366.226 247.274,-345.499 272,-335 293.202,-325.997 318.224,-322.408 340.218,-321.287"/>
<polygon fill="midnightblue" stroke="midnightblue" points="206.558,-380.183 202.409,-389.931 211.732,-384.898 206.558,-380.183"/>
</g>
<!-- Node13 -->
<g id="node13" class="node"><title>Node13</title>
<g id="a_node13"><a xlink:href="class_kuszk_a_p_i_1_1_containers_1_1_vector.html" target="_top" xlink:title="KuszkAPI::Containers\l::Vector\&lt; UINT_PTR * \&gt;">
<polygon fill="white" stroke="black" points="564.5,-659 564.5,-689 685.5,-689 685.5,-659 564.5,-659"/>
<text text-anchor="start" x="572.5" y="-677" font-family="Helvetica,sans-Serif" font-size="10.00">KuszkAPI::Containers</text>
<text text-anchor="middle" x="625" y="-666" font-family="Helvetica,sans-Serif" font-size="10.00">::Vector&lt; UINT_PTR * &gt;</text>
</a>
</g>
</g>
<!-- Node6&#45;&gt;Node13 -->
<g id="edge19" class="edge"><title>Node6&#45;&gt;Node13</title>
<path fill="none" stroke="midnightblue" d="M255.441,-420.814C277.049,-426.957 300.935,-434.762 322,-444 384.614,-471.46 410.386,-470.346 454,-523 468.8,-540.867 456.721,-554.541 472,-572 496.483,-599.977 514.948,-590.557 546,-611 568.39,-625.741 592.069,-645.545 607.383,-658.986"/>
<polygon fill="midnightblue" stroke="midnightblue" points="256.264,-417.41 245.692,-418.109 254.392,-424.155 256.264,-417.41"/>
</g>
<!-- Node16 -->
<g id="node16" class="node"><title>Node16</title>
<g id="a_node16"><a xlink:href="class_kuszk_a_p_i_1_1_containers_1_1_vector.html" target="_top" xlink:title="KuszkAPI::Containers\l::Vector\&lt; tnData \&gt;">
<polygon fill="white" stroke="black" points="340.5,-568 340.5,-598 453.5,-598 453.5,-568 340.5,-568"/>
<text text-anchor="start" x="348.5" y="-586" font-family="Helvetica,sans-Serif" font-size="10.00">KuszkAPI::Containers</text>
<text text-anchor="middle" x="397" y="-575" font-family="Helvetica,sans-Serif" font-size="10.00">::Vector&lt; tnData &gt;</text>
</a>
</g>
</g>
<!-- Node6&#45;&gt;Node16 -->
<g id="edge24" class="edge"><title>Node6&#45;&gt;Node16</title>
<path fill="none" stroke="midnightblue" d="M234.426,-424.215C270.382,-440.144 316.011,-461.366 322,-469 345.566,-499.04 317.045,-522.491 340,-553 344.509,-558.993 350.574,-563.919 357.05,-567.922"/>
<polygon fill="midnightblue" stroke="midnightblue" points="235.616,-420.915 225.054,-420.085 232.793,-427.321 235.616,-420.915"/>
</g>
<!-- Node18 -->
<g id="node18" class="node"><title>Node18</title>
<g id="a_node18"><a xlink:href="class_kuszk_a_p_i_1_1_containers_1_1_vector.html" target="_top" xlink:title="KuszkAPI::Containers\l::Vector\&lt; tnData * \&gt;">
<polygon fill="white" stroke="black" points="568.5,-512 568.5,-542 681.5,-542 681.5,-512 568.5,-512"/>
<text text-anchor="start" x="576.5" y="-530" font-family="Helvetica,sans-Serif" font-size="10.00">KuszkAPI::Containers</text>
<text text-anchor="middle" x="625" y="-519" font-family="Helvetica,sans-Serif" font-size="10.00">::Vector&lt; tnData * &gt;</text>
</a>
</g>
</g>
<!-- Node6&#45;&gt;Node18 -->
<g id="edge31" class="edge"><title>Node6&#45;&gt;Node18</title>
<path fill="none" stroke="midnightblue" d="M255.782,-405.517C309.747,-407.237 387.77,-412.709 454,-429 496.959,-439.567 507.69,-444.876 546,-467 568.488,-479.987 591.77,-498.704 606.974,-511.768"/>
<polygon fill="midnightblue" stroke="midnightblue" points="255.752,-402.015 245.657,-405.229 255.553,-409.012 255.752,-402.015"/>
</g>
<!-- Node21 -->
<g id="node21" class="node"><title>Node21</title>
<g id="a_node21"><a xlink:href="class_kuszk_a_p_i_1_1_containers_1_1_list.html" target="_top" xlink:title="KuszkAPI::Containers\l::List\&lt; tnKey \&gt;">
<polygon fill="white" stroke="black" points="568.5,-116 568.5,-146 681.5,-146 681.5,-116 568.5,-116"/>
<text text-anchor="start" x="576.5" y="-134" font-family="Helvetica,sans-Serif" font-size="10.00">KuszkAPI::Containers</text>
<text text-anchor="middle" x="625" y="-123" font-family="Helvetica,sans-Serif" font-size="10.00">::List&lt; tnKey &gt;</text>
</a>
</g>
</g>
<!-- Node6&#45;&gt;Node21 -->
<g id="edge38" class="edge"><title>Node6&#45;&gt;Node21</title>
<path fill="none" stroke="midnightblue" d="M208.373,-381.935C223.951,-363.38 247.596,-337.448 272,-319 344.953,-263.852 373.34,-266.097 454,-223 504.318,-196.115 562.774,-164.367 596.37,-146.07"/>
<polygon fill="midnightblue" stroke="midnightblue" points="205.475,-379.948 201.81,-389.889 210.874,-384.403 205.475,-379.948"/>
</g>
<!-- Node7 -->
<g id="node7" class="node"><title>Node7</title>
<g id="a_node7"><a xlink:href="namespace_3global_scope_4.html#classunsigned" target="_top" xlink:title="unsigned">
<polygon fill="white" stroke="black" points="0,-586.5 0,-605.5 56,-605.5 56,-586.5 0,-586.5"/>
<text text-anchor="middle" x="28" y="-593.5" font-family="Helvetica,sans-Serif" font-size="10.00">unsigned</text>
</a>
</g>
</g>
<!-- Node7&#45;&gt;Node4 -->
<g id="edge16" class="edge"><title>Node7&#45;&gt;Node4</title>
<path fill="none" stroke="#9a32cd" stroke-dasharray="5,2" d="M32.302,-615.527C43.1479,-672.414 83.1811,-834 188,-834 188,-834 188,-834 1048,-834 1176.18,-834 1108.94,-685.73 1152,-565 1160.64,-540.775 1152.78,-529.101 1170,-510 1176.69,-502.583 1185.36,-496.742 1194.4,-492.173"/>
<polygon fill="#9a32cd" stroke="#9a32cd" points="35.735,-614.842 30.5114,-605.625 28.8467,-616.088 35.735,-614.842"/>
<text text-anchor="middle" x="625" y="-837" font-family="Helvetica,sans-Serif" font-size="10.00"> uIlosc</text>
</g>
<!-- Node7&#45;&gt;Node5 -->
<g id="edge11" class="edge"><title>Node7&#45;&gt;Node5</title>
<path fill="none" stroke="#9a32cd" stroke-dasharray="5,2" d="M30.8573,-576.278C34.6821,-543.103 45.6023,-474.875 74,-425 136.046,-316.029 156.329,-272.423 272,-224 292.499,-215.419 300.056,-220.495 322,-224 422.525,-240.056 535.015,-284.391 590.01,-307.903"/>
<polygon fill="#9a32cd" stroke="#9a32cd" points="27.3514,-576.151 29.7833,-586.463 34.3128,-576.885 27.3514,-576.151"/>
<text text-anchor="middle" x="297" y="-227" font-family="Helvetica,sans-Serif" font-size="10.00"> tAbstract</text>
</g>
<!-- Node7&#45;&gt;Node6 -->
<g id="edge7" class="edge"><title>Node7&#45;&gt;Node6</title>
<path fill="none" stroke="#9a32cd" stroke-dasharray="5,2" d="M30.0091,-576.007C32.5794,-545.533 41.693,-487.289 74,-452 89.3231,-435.263 111.502,-424.328 132.232,-417.26"/>
<polygon fill="#9a32cd" stroke="#9a32cd" points="26.5011,-576.005 29.3097,-586.221 33.4848,-576.483 26.5011,-576.005"/>
<text text-anchor="middle" x="90" y="-466" font-family="Helvetica,sans-Serif" font-size="10.00"> uIlosc</text>
<text text-anchor="middle" x="90" y="-455" font-family="Helvetica,sans-Serif" font-size="10.00">uMode</text>
</g>
<!-- Node12 -->
<g id="node12" class="node"><title>Node12</title>
<g id="a_node12"><a xlink:href="class_kuszk_a_p_i_1_1_containers_1_1_box.html" target="_top" xlink:title="KuszkAPI::Containers\l::Box\&lt; UINT_PTR \&gt;">
<polygon fill="white" stroke="black" points="990.5,-634 990.5,-664 1103.5,-664 1103.5,-634 990.5,-634"/>
<text text-anchor="start" x="998.5" y="-652" font-family="Helvetica,sans-Serif" font-size="10.00">KuszkAPI::Containers</text>
<text text-anchor="middle" x="1047" y="-641" font-family="Helvetica,sans-Serif" font-size="10.00">::Box&lt; UINT_PTR &gt;</text>
</a>
</g>
</g>
<!-- Node7&#45;&gt;Node12 -->
<g id="edge27" class="edge"><title>Node7&#45;&gt;Node12</title>
<path fill="none" stroke="#9a32cd" stroke-dasharray="5,2" d="M34.6407,-615.164C50.2527,-663.765 98.8767,-788 188,-788 188,-788 188,-788 827,-788 918.641,-788 1002.97,-700.166 1033.71,-664.14"/>
<polygon fill="#9a32cd" stroke="#9a32cd" points="37.9575,-614.043 31.6617,-605.521 31.2694,-616.109 37.9575,-614.043"/>
<text text-anchor="middle" x="509" y="-791" font-family="Helvetica,sans-Serif" font-size="10.00"> uIlosc</text>
</g>
<!-- Node7&#45;&gt;Node13 -->
<g id="edge21" class="edge"><title>Node7&#45;&gt;Node13</title>
<path fill="none" stroke="#9a32cd" stroke-dasharray="5,2" d="M40.4096,-614.133C48.5004,-625.63 60.3234,-639.982 74,-649 177.281,-717.101 217.668,-712.572 340,-731 430.807,-744.679 459.066,-744.59 546,-715 564.972,-708.542 584.952,-697.958 599.941,-689.161"/>
<polygon fill="#9a32cd" stroke="#9a32cd" points="43.226,-612.049 34.757,-605.683 37.4076,-615.941 43.226,-612.049"/>
<text text-anchor="middle" x="297" y="-731" font-family="Helvetica,sans-Serif" font-size="10.00"> uDataSize</text>
</g>
<!-- Node7&#45;&gt;Node16 -->
<g id="edge26" class="edge"><title>Node7&#45;&gt;Node16</title>
<path fill="none" stroke="#9a32cd" stroke-dasharray="5,2" d="M66.4538,-594.673C131.293,-592.377 264.755,-587.649 340.433,-584.968"/>
<polygon fill="#9a32cd" stroke="#9a32cd" points="66.1546,-591.182 56.2848,-595.034 66.4025,-598.177 66.1546,-591.182"/>
<text text-anchor="middle" x="189" y="-595" font-family="Helvetica,sans-Serif" font-size="10.00"> uDataSize</text>
</g>
<!-- Node17 -->
<g id="node17" class="node"><title>Node17</title>
<g id="a_node17"><a xlink:href="class_kuszk_a_p_i_1_1_containers_1_1_box.html" target="_top" xlink:title="Implementacja szablonu pudełka dla modułu kontenerów. ">
<polygon fill="white" stroke="black" points="769.5,-596 769.5,-626 882.5,-626 882.5,-596 769.5,-596"/>
<text text-anchor="start" x="777.5" y="-614" font-family="Helvetica,sans-Serif" font-size="10.00">KuszkAPI::Containers</text>
<text text-anchor="middle" x="826" y="-603" font-family="Helvetica,sans-Serif" font-size="10.00">::Box&lt; tnData &gt;</text>
</a>
</g>
</g>
<!-- Node7&#45;&gt;Node17 -->
<g id="edge29" class="edge"><title>Node7&#45;&gt;Node17</title>
<path fill="none" stroke="#9a32cd" stroke-dasharray="5,2" d="M66.3226,-605.827C68.9087,-606.29 71.4856,-606.69 74,-607 208.421,-623.554 619.257,-615.874 769.347,-612.391"/>
<polygon fill="#9a32cd" stroke="#9a32cd" points="66.9176,-602.376 56.4165,-603.782 65.5025,-609.232 66.9176,-602.376"/>
<text text-anchor="middle" x="397" y="-620" font-family="Helvetica,sans-Serif" font-size="10.00"> uIlosc</text>
</g>
<!-- Node7&#45;&gt;Node18 -->
<g id="edge33" class="edge"><title>Node7&#45;&gt;Node18</title>
<path fill="none" stroke="#9a32cd" stroke-dasharray="5,2" d="M41.4366,-577.968C57.5686,-556.348 87.9542,-521.247 124,-507 278.315,-446.008 480.691,-487.161 573.512,-511.99"/>
<polygon fill="#9a32cd" stroke="#9a32cd" points="38.4321,-576.15 35.4206,-586.308 44.1093,-580.245 38.4321,-576.15"/>
<text text-anchor="middle" x="297" y="-480" font-family="Helvetica,sans-Serif" font-size="10.00"> uDataSize</text>
</g>
<!-- Node19 -->
<g id="node19" class="node"><title>Node19</title>
<g id="a_node19"><a xlink:href="class_kuszk_a_p_i_1_1_containers_1_1_map.html" target="_top" xlink:title="KuszkAPI::Containers\l::Map\&lt; tnData, tnKey \&gt;">
<polygon fill="white" stroke="black" points="766.5,-54 766.5,-84 885.5,-84 885.5,-54 766.5,-54"/>
<text text-anchor="start" x="774.5" y="-72" font-family="Helvetica,sans-Serif" font-size="10.00">KuszkAPI::Containers</text>
<text text-anchor="middle" x="826" y="-61" font-family="Helvetica,sans-Serif" font-size="10.00">::Map&lt; tnData, tnKey &gt;</text>
</a>
</g>
</g>
<!-- Node7&#45;&gt;Node19 -->
<g id="edge42" class="edge"><title>Node7&#45;&gt;Node19</title>
<path fill="none" stroke="#9a32cd" stroke-dasharray="5,2" d="M29.0869,-576.158C29.7099,-499.661 34.6933,-224.353 74,-148 104.849,-88.0768 120.603,-48 188,-48 188,-48 188,-48 626,-48 673.421,-48 726.848,-53.9704 766.395,-59.5444"/>
<polygon fill="#9a32cd" stroke="#9a32cd" points="25.586,-576.291 29.0213,-586.314 32.5859,-576.337 25.586,-576.291"/>
<text text-anchor="middle" x="397" y="-51" font-family="Helvetica,sans-Serif" font-size="10.00"> uIlosc</text>
</g>
<!-- Node8 -->
<g id="node8" class="node"><title>Node8</title>
<g id="a_node8"><a xlink:href="class_kuszk_a_p_i_1_1_containers_1_1_list.html#struct_kuszk_a_p_i_1_1_containers_1_1_list_1_1_item_data" target="_top" xlink:title="Struktura przechowująca wskaźnik na element listy oraz wskaźnik na kolejny obiekt. ">
<polygon fill="white" stroke="black" points="124,-137 124,-167 254,-167 254,-137 124,-137"/>
<text text-anchor="start" x="132" y="-155" font-family="Helvetica,sans-Serif" font-size="10.00">KuszkAPI::Containers</text>
<text text-anchor="middle" x="189" y="-144" font-family="Helvetica,sans-Serif" font-size="10.00">::List&lt; tnData &gt;::ItemData</text>
</a>
</g>
</g>
<!-- Node8&#45;&gt;Node5 -->
<g id="edge8" class="edge"><title>Node8&#45;&gt;Node5</title>
<path fill="none" stroke="#9a32cd" stroke-dasharray="5,2" d="M264.467,-162.129C354.613,-175.442 500.068,-200.616 546,-230 577.597,-250.213 602.964,-287.279 615.489,-307.99"/>
<polygon fill="#9a32cd" stroke="#9a32cd" points="264.701,-158.626 254.3,-160.643 263.689,-165.552 264.701,-158.626"/>
<text text-anchor="middle" x="397" y="-211" font-family="Helvetica,sans-Serif" font-size="10.00"> ptLast</text>
<text text-anchor="middle" x="397" y="-200" font-family="Helvetica,sans-Serif" font-size="10.00">ptBegin</text>
</g>
<!-- Node8&#45;&gt;Node8 -->
<g id="edge9" class="edge"><title>Node8&#45;&gt;Node8</title>
<path fill="none" stroke="#9a32cd" stroke-dasharray="5,2" d="M171.846,-177.598C174.19,-181.97 179.908,-185 189,-185 204.313,-185 210.055,-176.406 206.227,-167.275"/>
<polygon fill="#9a32cd" stroke="#9a32cd" points="175.344,-177.25 171.773,-167.275 168.344,-177.3 175.344,-177.25"/>
<text text-anchor="middle" x="189" y="-188" font-family="Helvetica,sans-Serif" font-size="10.00"> ptNext</text>
</g>
<!-- Node8&#45;&gt;Node10 -->
<g id="edge15" class="edge"><title>Node8&#45;&gt;Node10</title>
<path fill="none" stroke="#9a32cd" stroke-dasharray="5,2" d="M209.881,-174.965C225.834,-192.791 249.246,-217.645 272,-237 304.328,-264.5 345.397,-291.634 371.198,-307.853"/>
<polygon fill="#9a32cd" stroke="#9a32cd" points="212.356,-172.48 203.106,-167.314 207.115,-177.121 212.356,-172.48"/>
<text text-anchor="middle" x="297" y="-289" font-family="Helvetica,sans-Serif" font-size="10.00"> ptLast</text>
<text text-anchor="middle" x="297" y="-278" font-family="Helvetica,sans-Serif" font-size="10.00">ptBegin</text>
</g>
<!-- Node8&#45;&gt;Node21 -->
<g id="edge39" class="edge"><title>Node8&#45;&gt;Node21</title>
<path fill="none" stroke="#9a32cd" stroke-dasharray="5,2" d="M235.745,-133.282C265.005,-122.34 304.078,-109.607 340,-104 418.786,-91.7015 510.802,-105.551 568.246,-117.524"/>
<polygon fill="#9a32cd" stroke="#9a32cd" points="234.316,-130.081 226.217,-136.912 236.808,-136.623 234.316,-130.081"/>
<text text-anchor="middle" x="397" y="-118" font-family="Helvetica,sans-Serif" font-size="10.00"> ptLast</text>
<text text-anchor="middle" x="397" y="-107" font-family="Helvetica,sans-Serif" font-size="10.00">ptBegin</text>
</g>
<!-- Node9 -->
<g id="node9" class="node"><title>Node9</title>
<polygon fill="white" stroke="#bfbfbf" points="2,-142.5 2,-161.5 54,-161.5 54,-142.5 2,-142.5"/>
<text text-anchor="middle" x="28" y="-149.5" font-family="Helvetica,sans-Serif" font-size="10.00">tnData *</text>
</g>
<!-- Node9&#45;&gt;Node8 -->
<g id="edge10" class="edge"><title>Node9&#45;&gt;Node8</title>
<path fill="none" stroke="#9a32cd" stroke-dasharray="5,2" d="M64.4904,-152C81.966,-152 103.584,-152 123.825,-152"/>
<polygon fill="#9a32cd" stroke="#9a32cd" points="64.1941,-148.5 54.194,-152 64.194,-155.5 64.1941,-148.5"/>
<text text-anchor="middle" x="90" y="-155" font-family="Helvetica,sans-Serif" font-size="10.00"> ptData</text>
</g>
<!-- Node10&#45;&gt;Node5 -->
<g id="edge12" class="edge"><title>Node10&#45;&gt;Node5</title>
<path fill="none" stroke="orange" stroke-dasharray="5,2" d="M463.636,-323C496.793,-323 536.593,-323 568.248,-323"/>
<polygon fill="orange" stroke="orange" points="463.575,-319.5 453.575,-323 463.575,-326.5 463.575,-319.5"/>
<text text-anchor="middle" x="509" y="-326" font-family="Helvetica,sans-Serif" font-size="10.00"> &lt; unsigned &gt;</text>
</g>
<!-- Node10&#45;&gt;Node21 -->
<g id="edge41" class="edge"><title>Node10&#45;&gt;Node21</title>
<path fill="none" stroke="orange" stroke-dasharray="5,2" d="M438.62,-302.932C443.931,-299.823 449.192,-296.48 454,-293 518.398,-246.385 583.326,-176.79 610.612,-146.271"/>
<polygon fill="orange" stroke="orange" points="436.718,-299.986 429.705,-307.927 440.14,-306.092 436.718,-299.986"/>
<text text-anchor="middle" x="509" y="-281" font-family="Helvetica,sans-Serif" font-size="10.00"> &lt; tnKey &gt;</text>
</g>
<!-- Node11 -->
<g id="node11" class="node"><title>Node11</title>
<polygon fill="white" stroke="#bfbfbf" points="166.5,-516.5 166.5,-535.5 211.5,-535.5 211.5,-516.5 166.5,-516.5"/>
<text text-anchor="middle" x="189" y="-523.5" font-family="Helvetica,sans-Serif" font-size="10.00">tnData</text>
</g>
<!-- Node11&#45;&gt;Node10 -->
<g id="edge14" class="edge"><title>Node11&#45;&gt;Node10</title>
<path fill="none" stroke="#9a32cd" stroke-dasharray="5,2" d="M207.152,-509.098C246.506,-470.316 342.798,-375.427 380.501,-338.273"/>
<polygon fill="#9a32cd" stroke="#9a32cd" points="204.326,-506.969 199.66,-516.481 209.239,-511.955 204.326,-506.969"/>
<text text-anchor="middle" x="297" y="-446" font-family="Helvetica,sans-Serif" font-size="10.00"> tAbstract</text>
</g>
<!-- Node11&#45;&gt;Node16 -->
<g id="edge25" class="edge"><title>Node11&#45;&gt;Node16</title>
<path fill="none" stroke="#9a32cd" stroke-dasharray="5,2" d="M221.547,-533.662C248.363,-540.286 287.836,-550.297 322,-560 330.671,-562.463 339.872,-565.212 348.732,-567.928"/>
<polygon fill="#9a32cd" stroke="#9a32cd" points="222.126,-530.2 211.579,-531.212 220.455,-536.998 222.126,-530.2"/>
<text text-anchor="middle" x="297" y="-574" font-family="Helvetica,sans-Serif" font-size="10.00"> tAbstract</text>
<text text-anchor="middle" x="297" y="-563" font-family="Helvetica,sans-Serif" font-size="10.00">ptBegin</text>
</g>
<!-- Node11&#45;&gt;Node18 -->
<g id="edge32" class="edge"><title>Node11&#45;&gt;Node18</title>
<path fill="none" stroke="#9a32cd" stroke-dasharray="5,2" d="M221.936,-526.074C295.269,-526.243 476.454,-526.66 568.466,-526.872"/>
<polygon fill="#9a32cd" stroke="#9a32cd" points="221.53,-522.573 211.522,-526.05 221.514,-529.573 221.53,-522.573"/>
<text text-anchor="middle" x="397" y="-541" font-family="Helvetica,sans-Serif" font-size="10.00"> tAbstract</text>
<text text-anchor="middle" x="397" y="-530" font-family="Helvetica,sans-Serif" font-size="10.00">ptBegin</text>
</g>
<!-- Node12&#45;&gt;Node4 -->
<g id="edge17" class="edge"><title>Node12&#45;&gt;Node4</title>
<path fill="none" stroke="#9a32cd" stroke-dasharray="5,2" d="M1063.75,-625.469C1084.9,-595.348 1125.06,-543.108 1170,-510 1179.63,-502.908 1191.02,-496.887 1201.94,-492.009"/>
<polygon fill="#9a32cd" stroke="#9a32cd" points="1060.86,-623.487 1058.05,-633.703 1066.62,-627.469 1060.86,-623.487"/>
<text text-anchor="middle" x="1137" y="-553" font-family="Helvetica,sans-Serif" font-size="10.00"> bData</text>
</g>
<!-- Node13&#45;&gt;Node12 -->
<g id="edge18" class="edge"><title>Node13&#45;&gt;Node12</title>
<path fill="none" stroke="#9a32cd" stroke-dasharray="5,2" d="M695.791,-669.846C778.493,-664.923 914.611,-656.821 990.494,-652.304"/>
<polygon fill="#9a32cd" stroke="#9a32cd" points="695.504,-666.357 685.73,-670.445 695.92,-673.344 695.504,-666.357"/>
<text text-anchor="middle" x="826" y="-668" font-family="Helvetica,sans-Serif" font-size="10.00"> vPointers</text>
</g>
<!-- Node14 -->
<g id="node14" class="node"><title>Node14</title>
<polygon fill="white" stroke="#bfbfbf" points="363,-664.5 363,-683.5 431,-683.5 431,-664.5 363,-664.5"/>
<text text-anchor="middle" x="397" y="-671.5" font-family="Helvetica,sans-Serif" font-size="10.00">UINT_PTR *</text>
</g>
<!-- Node14&#45;&gt;Node13 -->
<g id="edge20" class="edge"><title>Node14&#45;&gt;Node13</title>
<path fill="none" stroke="#9a32cd" stroke-dasharray="5,2" d="M441.67,-674C476.503,-674 525.662,-674 564.159,-674"/>
<polygon fill="#9a32cd" stroke="#9a32cd" points="441.347,-670.5 431.347,-674 441.347,-677.5 441.347,-670.5"/>
<text text-anchor="middle" x="509" y="-677" font-family="Helvetica,sans-Serif" font-size="10.00"> tAbstract</text>
</g>
<!-- Node15 -->
<g id="node15" class="node"><title>Node15</title>
<polygon fill="white" stroke="#bfbfbf" points="361,-702.5 361,-721.5 433,-721.5 433,-702.5 361,-702.5"/>
<text text-anchor="middle" x="397" y="-709.5" font-family="Helvetica,sans-Serif" font-size="10.00">UINT_PTR **</text>
</g>
<!-- Node15&#45;&gt;Node13 -->
<g id="edge22" class="edge"><title>Node15&#45;&gt;Node13</title>
<path fill="none" stroke="#9a32cd" stroke-dasharray="5,2" d="M443,-705.435C472.365,-701.045 511.51,-694.994 546,-689 551.978,-687.961 558.205,-686.836 564.419,-685.685"/>
<polygon fill="#9a32cd" stroke="#9a32cd" points="442.421,-701.982 433.045,-706.915 443.451,-708.906 442.421,-701.982"/>
<text text-anchor="middle" x="509" y="-703" font-family="Helvetica,sans-Serif" font-size="10.00"> ptBegin</text>
</g>
<!-- Node16&#45;&gt;Node13 -->
<g id="edge23" class="edge"><title>Node16&#45;&gt;Node13</title>
<path fill="none" stroke="orange" stroke-dasharray="5,2" d="M444.78,-601.836C486.82,-618.764 547.756,-643.3 586.625,-658.951"/>
<polygon fill="orange" stroke="orange" points="445.903,-598.515 435.319,-598.027 443.288,-605.009 445.903,-598.515"/>
<text text-anchor="middle" x="509" y="-644" font-family="Helvetica,sans-Serif" font-size="10.00"> &lt; UINT_PTR * &gt;</text>
</g>
<!-- Node16&#45;&gt;Node18 -->
<g id="edge34" class="edge"><title>Node16&#45;&gt;Node18</title>
<path fill="none" stroke="orange" stroke-dasharray="5,2" d="M463.636,-566.736C496.793,-558.52 536.593,-548.658 568.248,-540.815"/>
<polygon fill="orange" stroke="orange" points="462.44,-563.427 453.575,-569.229 464.124,-570.221 462.44,-563.427"/>
<text text-anchor="middle" x="509" y="-566" font-family="Helvetica,sans-Serif" font-size="10.00"> &lt; tnData * &gt;</text>
</g>
<!-- Node17&#45;&gt;Node12 -->
<g id="edge28" class="edge"><title>Node17&#45;&gt;Node12</title>
<path fill="none" stroke="orange" stroke-dasharray="5,2" d="M892.431,-622.353C923.543,-627.752 960.352,-634.139 990.133,-639.306"/>
<polygon fill="orange" stroke="orange" points="892.997,-618.899 882.546,-620.638 891.8,-625.796 892.997,-618.899"/>
<text text-anchor="middle" x="938" y="-638" font-family="Helvetica,sans-Serif" font-size="10.00"> &lt; UINT_PTR &gt;</text>
</g>
<!-- Node18&#45;&gt;Node17 -->
<g id="edge30" class="edge"><title>Node18&#45;&gt;Node17</title>
<path fill="none" stroke="#9a32cd" stroke-dasharray="5,2" d="M670.835,-545.925C706.676,-561.054 756.239,-581.975 789.396,-595.971"/>
<polygon fill="#9a32cd" stroke="#9a32cd" points="672.151,-542.682 661.577,-542.018 669.429,-549.131 672.151,-542.682"/>
<text text-anchor="middle" x="726" y="-579" font-family="Helvetica,sans-Serif" font-size="10.00"> vPointers</text>
</g>
<!-- Node19&#45;&gt;Node4 -->
<g id="edge35" class="edge"><title>Node19&#45;&gt;Node4</title>
<path fill="none" stroke="orange" stroke-dasharray="5,2" d="M849.919,-91.4246C925.429,-165.305 1165.18,-399.878 1228.52,-461.859"/>
<polygon fill="orange" stroke="orange" points="851.931,-88.4966 842.336,-84.0048 847.036,-93.5001 851.931,-88.4966"/>
<text text-anchor="middle" x="1047" y="-343" font-family="Helvetica,sans-Serif" font-size="10.00"> &lt; UINT_PTR, unsigned &gt;</text>
</g>
<!-- Node20 -->
<g id="node20" class="node"><title>Node20</title>
<polygon fill="white" stroke="#bfbfbf" points="585,-0.5 585,-19.5 665,-19.5 665,-0.5 585,-0.5"/>
<text text-anchor="middle" x="625" y="-7.5" font-family="Helvetica,sans-Serif" font-size="10.00">Box&lt; tnData &gt;</text>
</g>
<!-- Node20&#45;&gt;Node19 -->
<g id="edge36" class="edge"><title>Node20&#45;&gt;Node19</title>
<path fill="none" stroke="#9a32cd" stroke-dasharray="5,2" d="M675.174,-10.4285C697.833,-11.8347 724.786,-15.2469 748,-23 768.973,-30.0046 790.371,-43.3917 805.268,-53.9255"/>
<polygon fill="#9a32cd" stroke="#9a32cd" points="675.259,-6.92838 665.094,-9.91518 674.903,-13.9193 675.259,-6.92838"/>
<text text-anchor="middle" x="726" y="-26" font-family="Helvetica,sans-Serif" font-size="10.00"> bData</text>
</g>
<!-- Node21&#45;&gt;Node19 -->
<g id="edge37" class="edge"><title>Node21&#45;&gt;Node19</title>
<path fill="none" stroke="#9a32cd" stroke-dasharray="5,2" d="M683.9,-112.961C713.311,-103.798 748.635,-92.7922 776.582,-84.0851"/>
<polygon fill="#9a32cd" stroke="#9a32cd" points="682.679,-109.675 674.172,-115.992 684.761,-116.358 682.679,-109.675"/>
<text text-anchor="middle" x="726" y="-109" font-family="Helvetica,sans-Serif" font-size="10.00"> lKey</text>
</g>
<!-- Node22 -->
<g id="node22" class="node"><title>Node22</title>
<polygon fill="white" stroke="#bfbfbf" points="376,-135.5 376,-154.5 418,-154.5 418,-135.5 376,-135.5"/>
<text text-anchor="middle" x="397" y="-142.5" font-family="Helvetica,sans-Serif" font-size="10.00">tnKey</text>
</g>
<!-- Node22&#45;&gt;Node21 -->
<g id="edge40" class="edge"><title>Node22&#45;&gt;Node21</title>
<path fill="none" stroke="#9a32cd" stroke-dasharray="5,2" d="M428.357,-138.486C441.679,-135.934 457.547,-133.308 472,-132 503.801,-129.122 539.498,-128.742 568.303,-129.14"/>
<polygon fill="#9a32cd" stroke="#9a32cd" points="427.417,-135.104 418.294,-140.49 428.785,-141.97 427.417,-135.104"/>
<text text-anchor="middle" x="509" y="-135" font-family="Helvetica,sans-Serif" font-size="10.00"> tAbstract</text>
</g>
</g>
</svg>
