<?xml version="1.0" encoding="UTF-8" standalone="no"?>
<!DOCTYPE svg PUBLIC "-//W3C//DTD SVG 1.1//EN"
 "http://www.w3.org/Graphics/SVG/1.1/DTD/svg11.dtd">
<!-- Generated by graphviz version 2.36.0 (20140111.2315)
 -->
<!-- Title: KuszkAPI::Containers::String::Capacity Pages: 1 -->
<svg width="486pt" height="732pt"
 viewBox="0.00 0.00 486.00 732.00" xmlns="http://www.w3.org/2000/svg" xmlns:xlink="http://www.w3.org/1999/xlink">
<g id="graph0" class="graph" transform="scale(1 1) rotate(0) translate(4 728)">
<title>KuszkAPI::Containers::String::Capacity</title>
<polygon fill="white" stroke="none" points="-4,4 -4,-728 482,-728 482,4 -4,4"/>
<!-- Node1 -->
<g id="node1" class="node"><title>Node1</title>
<polygon fill="#bfbfbf" stroke="black" points="0.5,-230 0.5,-260 113.5,-260 113.5,-230 0.5,-230"/>
<text text-anchor="start" x="8.5" y="-248" font-family="Helvetica,sans-Serif" font-size="10.00">KuszkAPI::Containers</text>
<text text-anchor="middle" x="57" y="-237" font-family="Helvetica,sans-Serif" font-size="10.00">::String::Capacity</text>
</g>
<!-- Node2 -->
<g id="node2" class="node"><title>Node2</title>
<g id="a_node2"><a xlink:href="class_kuszk_a_p_i_1_1_containers_1_1_strings.html#aae1e705132390add4e0b03ff36ffb094" target="_top" xlink:title="KuszkAPI::Containers\l::Strings::Add">
<polygon fill="white" stroke="black" points="165.5,-449 165.5,-479 278.5,-479 278.5,-449 165.5,-449"/>
<text text-anchor="start" x="173.5" y="-467" font-family="Helvetica,sans-Serif" font-size="10.00">KuszkAPI::Containers</text>
<text text-anchor="middle" x="222" y="-456" font-family="Helvetica,sans-Serif" font-size="10.00">::Strings::Add</text>
</a>
</g>
</g>
<!-- Node1&#45;&gt;Node2 -->
<g id="edge1" class="edge"><title>Node1&#45;&gt;Node2</title>
<path fill="none" stroke="midnightblue" d="M63.3373,-270.248C73.2924,-311.309 98.5169,-392.623 150,-439 154.563,-443.111 159.845,-446.555 165.426,-449.439"/>
<polygon fill="midnightblue" stroke="midnightblue" points="66.6902,-269.212 61.0265,-260.258 59.8702,-270.789 66.6902,-269.212"/>
</g>
<!-- Node14 -->
<g id="node14" class="node"><title>Node14</title>
<g id="a_node14"><a xlink:href="class_kuszk_a_p_i_1_1_forms_1_1_font.html#ad0615e0820a4c935af9963d11b8b296f" target="_top" xlink:title="KuszkAPI::Forms::Font::Add">
<polygon fill="white" stroke="black" points="150.5,-410.5 150.5,-429.5 293.5,-429.5 293.5,-410.5 150.5,-410.5"/>
<text text-anchor="middle" x="222" y="-417.5" font-family="Helvetica,sans-Serif" font-size="10.00">KuszkAPI::Forms::Font::Add</text>
</a>
</g>
</g>
<!-- Node1&#45;&gt;Node14 -->
<g id="edge13" class="edge"><title>Node1&#45;&gt;Node14</title>
<path fill="none" stroke="midnightblue" d="M65.8962,-269.881C78.2039,-304.577 105.303,-367.041 150,-401 155.08,-404.86 160.884,-407.936 166.936,-410.389"/>
<polygon fill="midnightblue" stroke="midnightblue" points="69.0897,-268.402 62.5483,-260.068 62.4646,-270.662 69.0897,-268.402"/>
</g>
<!-- Node15 -->
<g id="node15" class="node"><title>Node15</title>
<g id="a_node15"><a xlink:href="class_kuszk_a_p_i_1_1_core_1_1_tray.html#afbed8319c95989ecd85ba210a6739bed" target="_top" xlink:title="KuszkAPI::Core::Tray::Add">
<polygon fill="white" stroke="black" points="155,-372.5 155,-391.5 289,-391.5 289,-372.5 155,-372.5"/>
<text text-anchor="middle" x="222" y="-379.5" font-family="Helvetica,sans-Serif" font-size="10.00">KuszkAPI::Core::Tray::Add</text>
</a>
</g>
</g>
<!-- Node1&#45;&gt;Node15 -->
<g id="edge14" class="edge"><title>Node1&#45;&gt;Node15</title>
<path fill="none" stroke="midnightblue" d="M70.7459,-269.109C86.0621,-295.759 114.228,-338.074 150,-362 156.493,-366.343 163.923,-369.752 171.475,-372.425"/>
<polygon fill="midnightblue" stroke="midnightblue" points="73.6255,-267.087 65.6942,-260.062 67.5138,-270.5 73.6255,-267.087"/>
</g>
<!-- Node16 -->
<g id="node16" class="node"><title>Node16</title>
<g id="a_node16"><a xlink:href="class_kuszk_a_p_i_1_1_containers_1_1_strings.html#a847455d02fd870eae89f27d9ef176013" target="_top" xlink:title="KuszkAPI::Containers\l::Strings::AddToFile">
<polygon fill="white" stroke="black" points="165.5,-323 165.5,-353 278.5,-353 278.5,-323 165.5,-323"/>
<text text-anchor="start" x="173.5" y="-341" font-family="Helvetica,sans-Serif" font-size="10.00">KuszkAPI::Containers</text>
<text text-anchor="middle" x="222" y="-330" font-family="Helvetica,sans-Serif" font-size="10.00">::Strings::AddToFile</text>
</a>
</g>
</g>
<!-- Node1&#45;&gt;Node16 -->
<g id="edge15" class="edge"><title>Node1&#45;&gt;Node16</title>
<path fill="none" stroke="midnightblue" d="M83.3788,-266.998C101.122,-281.539 125.872,-300.207 150,-313 156.927,-316.673 164.508,-319.998 172.054,-322.935"/>
<polygon fill="midnightblue" stroke="midnightblue" points="85.1873,-263.949 75.2648,-260.235 80.7055,-269.327 85.1873,-263.949"/>
</g>
<!-- Node17 -->
<g id="node17" class="node"><title>Node17</title>
<g id="a_node17"><a xlink:href="class_kuszk_a_p_i_1_1_containers_1_1_string.html#a1bbec5da3c8664d348715b681f851463" target="_top" xlink:title="KuszkAPI::Containers\l::String::Change">
<polygon fill="white" stroke="black" points="165.5,-274 165.5,-304 278.5,-304 278.5,-274 165.5,-274"/>
<text text-anchor="start" x="173.5" y="-292" font-family="Helvetica,sans-Serif" font-size="10.00">KuszkAPI::Containers</text>
<text text-anchor="middle" x="222" y="-281" font-family="Helvetica,sans-Serif" font-size="10.00">::String::Change</text>
</a>
</g>
</g>
<!-- Node1&#45;&gt;Node17 -->
<g id="edge16" class="edge"><title>Node1&#45;&gt;Node17</title>
<path fill="none" stroke="midnightblue" d="M123.581,-262.703C137.422,-266.439 151.901,-270.347 165.335,-273.974"/>
<polygon fill="midnightblue" stroke="midnightblue" points="124.206,-259.246 113.639,-260.019 122.382,-266.004 124.206,-259.246"/>
</g>
<!-- Node18 -->
<g id="node18" class="node"><title>Node18</title>
<g id="a_node18"><a xlink:href="class_kuszk_a_p_i_1_1_core_1_1_tray.html#a121fe49a6d669c0533f13bb27bea43d6" target="_top" xlink:title="KuszkAPI::Core::Tray::Msg">
<polygon fill="white" stroke="black" points="154,-235.5 154,-254.5 290,-254.5 290,-235.5 154,-235.5"/>
<text text-anchor="middle" x="222" y="-242.5" font-family="Helvetica,sans-Serif" font-size="10.00">KuszkAPI::Core::Tray::Msg</text>
</a>
</g>
</g>
<!-- Node1&#45;&gt;Node18 -->
<g id="edge17" class="edge"><title>Node1&#45;&gt;Node18</title>
<path fill="none" stroke="midnightblue" d="M123.793,-245C133.672,-245 143.871,-245 153.779,-245"/>
<polygon fill="midnightblue" stroke="midnightblue" points="123.639,-241.5 113.639,-245 123.639,-248.5 123.639,-241.5"/>
</g>
<!-- Node19 -->
<g id="node19" class="node"><title>Node19</title>
<g id="a_node19"><a xlink:href="class_kuszk_a_p_i_1_1_sockets_1_1_client.html#a5f91508c7424a54648176fc2698e7ada" target="_top" xlink:title="KuszkAPI::Sockets::\lClient::operator\&lt;\&lt;">
<polygon fill="white" stroke="black" points="168,-186 168,-216 276,-216 276,-186 168,-186"/>
<text text-anchor="start" x="176" y="-204" font-family="Helvetica,sans-Serif" font-size="10.00">KuszkAPI::Sockets::</text>
<text text-anchor="middle" x="222" y="-193" font-family="Helvetica,sans-Serif" font-size="10.00">Client::operator&lt;&lt;</text>
</a>
</g>
</g>
<!-- Node1&#45;&gt;Node19 -->
<g id="edge18" class="edge"><title>Node1&#45;&gt;Node19</title>
<path fill="none" stroke="midnightblue" d="M123.659,-227.276C138.332,-223.315 153.718,-219.162 167.813,-215.357"/>
<polygon fill="midnightblue" stroke="midnightblue" points="122.382,-223.996 113.639,-229.981 124.206,-230.754 122.382,-223.996"/>
</g>
<!-- Node20 -->
<g id="node20" class="node"><title>Node20</title>
<g id="a_node20"><a xlink:href="class_kuszk_a_p_i_1_1_containers_1_1_strings.html#a517c7f7cfe694d57fee12927ddc86b30" target="_top" xlink:title="KuszkAPI::Containers\l::Strings::SaveToFile">
<polygon fill="white" stroke="black" points="165.5,-137 165.5,-167 278.5,-167 278.5,-137 165.5,-137"/>
<text text-anchor="start" x="173.5" y="-155" font-family="Helvetica,sans-Serif" font-size="10.00">KuszkAPI::Containers</text>
<text text-anchor="middle" x="222" y="-144" font-family="Helvetica,sans-Serif" font-size="10.00">::Strings::SaveToFile</text>
</a>
</g>
</g>
<!-- Node1&#45;&gt;Node20 -->
<g id="edge19" class="edge"><title>Node1&#45;&gt;Node20</title>
<path fill="none" stroke="midnightblue" d="M82.4623,-223.238C100.21,-208.333 125.336,-188.989 150,-176 156.217,-172.726 162.97,-169.765 169.757,-167.131"/>
<polygon fill="midnightblue" stroke="midnightblue" points="80.1865,-220.578 74.8552,-229.734 84.7325,-225.902 80.1865,-220.578"/>
</g>
<!-- Node21 -->
<g id="node21" class="node"><title>Node21</title>
<g id="a_node21"><a xlink:href="class_kuszk_a_p_i_1_1_core_1_1_tray.html#a5fed98ac0664d87d16ffa170dccf405b" target="_top" xlink:title="KuszkAPI::Core::Tray::Set">
<polygon fill="white" stroke="black" points="156,-98.5 156,-117.5 288,-117.5 288,-98.5 156,-98.5"/>
<text text-anchor="middle" x="222" y="-105.5" font-family="Helvetica,sans-Serif" font-size="10.00">KuszkAPI::Core::Tray::Set</text>
</a>
</g>
</g>
<!-- Node1&#45;&gt;Node21 -->
<g id="edge20" class="edge"><title>Node1&#45;&gt;Node21</title>
<path fill="none" stroke="midnightblue" d="M70.4377,-220.951C85.6086,-194.015 113.773,-150.996 150,-127 155.851,-123.124 162.465,-120.037 169.244,-117.578"/>
<polygon fill="midnightblue" stroke="midnightblue" points="67.3526,-219.298 65.6216,-229.75 73.493,-222.659 67.3526,-219.298"/>
</g>
<!-- Node22 -->
<g id="node22" class="node"><title>Node22</title>
<g id="a_node22"><a xlink:href="class_kuszk_a_p_i_1_1_core_1_1_reg.html#a74a59dc045537a2769ebcc7eb71786a4" target="_top" xlink:title="KuszkAPI::Core::Reg\l::SetStr">
<polygon fill="white" stroke="black" points="167,-49 167,-79 277,-79 277,-49 167,-49"/>
<text text-anchor="start" x="175" y="-67" font-family="Helvetica,sans-Serif" font-size="10.00">KuszkAPI::Core::Reg</text>
<text text-anchor="middle" x="222" y="-56" font-family="Helvetica,sans-Serif" font-size="10.00">::SetStr</text>
</a>
</g>
</g>
<!-- Node1&#45;&gt;Node22 -->
<g id="edge21" class="edge"><title>Node1&#45;&gt;Node22</title>
<path fill="none" stroke="midnightblue" d="M66.4601,-220.063C79.2968,-185.824 106.864,-124.475 150,-89 155.047,-84.8496 160.83,-81.3668 166.871,-78.4491"/>
<polygon fill="midnightblue" stroke="midnightblue" points="63.0627,-219.166 62.9483,-229.76 69.6443,-221.549 63.0627,-219.166"/>
</g>
<!-- Node23 -->
<g id="node23" class="node"><title>Node23</title>
<g id="a_node23"><a xlink:href="class_kuszk_a_p_i_1_1_core_1_1_console.html#abcd778846e9e7436f8f626de2ceab530" target="_top" xlink:title="KuszkAPI::Core::Console\l::Write">
<polygon fill="white" stroke="black" points="158,-0 158,-30 286,-30 286,-0 158,-0"/>
<text text-anchor="start" x="166" y="-18" font-family="Helvetica,sans-Serif" font-size="10.00">KuszkAPI::Core::Console</text>
<text text-anchor="middle" x="222" y="-7" font-family="Helvetica,sans-Serif" font-size="10.00">::Write</text>
</a>
</g>
</g>
<!-- Node1&#45;&gt;Node23 -->
<g id="edge22" class="edge"><title>Node1&#45;&gt;Node23</title>
<path fill="none" stroke="midnightblue" d="M62.4234,-219.968C71.3184,-176.917 95.3892,-88.7017 150,-39 153.753,-35.5844 158.01,-32.6525 162.531,-30.1362"/>
<polygon fill="midnightblue" stroke="midnightblue" points="58.9676,-219.403 60.4795,-229.889 65.837,-220.749 58.9676,-219.403"/>
</g>
<!-- Node3 -->
<g id="node3" class="node"><title>Node3</title>
<g id="a_node3"><a xlink:href="class_kuszk_a_p_i_1_1_core_1_1_console.html#a4117149e814f6819b8e592ba2efcb473" target="_top" xlink:title="KuszkAPI::Core::Console\l::GetLines">
<polygon fill="white" stroke="black" points="340,-694 340,-724 468,-724 468,-694 340,-694"/>
<text text-anchor="start" x="348" y="-712" font-family="Helvetica,sans-Serif" font-size="10.00">KuszkAPI::Core::Console</text>
<text text-anchor="middle" x="404" y="-701" font-family="Helvetica,sans-Serif" font-size="10.00">::GetLines</text>
</a>
</g>
</g>
<!-- Node2&#45;&gt;Node3 -->
<g id="edge2" class="edge"><title>Node2&#45;&gt;Node3</title>
<path fill="none" stroke="midnightblue" d="M228.489,-489.16C239.667,-534.538 269.32,-630.345 330,-684 334.416,-687.904 339.47,-691.205 344.813,-693.995"/>
<polygon fill="midnightblue" stroke="midnightblue" points="231.856,-488.193 226.15,-479.266 225.044,-489.803 231.856,-488.193"/>
</g>
<!-- Node4 -->
<g id="node4" class="node"><title>Node4</title>
<g id="a_node4"><a xlink:href="class_kuszk_a_p_i_1_1_forms_1_1_combo_box.html#a5bb4447a9a712967c01fbed2719cca2d" target="_top" xlink:title="KuszkAPI::Forms::ComboBox\l::GetItems">
<polygon fill="white" stroke="black" points="330,-645 330,-675 478,-675 478,-645 330,-645"/>
<text text-anchor="start" x="338" y="-663" font-family="Helvetica,sans-Serif" font-size="10.00">KuszkAPI::Forms::ComboBox</text>
<text text-anchor="middle" x="404" y="-652" font-family="Helvetica,sans-Serif" font-size="10.00">::GetItems</text>
</a>
</g>
</g>
<!-- Node2&#45;&gt;Node4 -->
<g id="edge3" class="edge"><title>Node2&#45;&gt;Node4</title>
<path fill="none" stroke="midnightblue" d="M232.163,-488.735C247.092,-525.743 280.101,-595.402 330,-635 334.827,-638.831 340.276,-642.092 345.968,-644.864"/>
<polygon fill="midnightblue" stroke="midnightblue" points="235.34,-487.248 228.433,-479.214 228.822,-489.802 235.34,-487.248"/>
</g>
<!-- Node5 -->
<g id="node5" class="node"><title>Node5</title>
<g id="a_node5"><a xlink:href="class_kuszk_a_p_i_1_1_forms_1_1_combo_box.html#acd08c06092a749a67c6c419580ace7e3" target="_top" xlink:title="KuszkAPI::Forms::ComboBox\l::Sort">
<polygon fill="white" stroke="black" points="330,-596 330,-626 478,-626 478,-596 330,-596"/>
<text text-anchor="start" x="338" y="-614" font-family="Helvetica,sans-Serif" font-size="10.00">KuszkAPI::Forms::ComboBox</text>
<text text-anchor="middle" x="404" y="-603" font-family="Helvetica,sans-Serif" font-size="10.00">::Sort</text>
</a>
</g>
</g>
<!-- Node2&#45;&gt;Node5 -->
<g id="edge4" class="edge"><title>Node2&#45;&gt;Node5</title>
<path fill="none" stroke="midnightblue" d="M238.001,-487.556C256.523,-514.867 290.469,-559.51 330,-586 335.676,-589.803 341.987,-593.083 348.456,-595.898"/>
<polygon fill="midnightblue" stroke="midnightblue" points="240.773,-485.404 232.325,-479.01 234.942,-489.276 240.773,-485.404"/>
</g>
<!-- Node6 -->
<g id="node6" class="node"><title>Node6</title>
<g id="a_node6"><a xlink:href="class_kuszk_a_p_i_1_1_forms_1_1_edit_box.html#a79e3ff534b41bd0724e77766b6ddd248" target="_top" xlink:title="KuszkAPI::Forms::EditBox\l::AddLine">
<polygon fill="white" stroke="black" points="337,-547 337,-577 471,-577 471,-547 337,-547"/>
<text text-anchor="start" x="345" y="-565" font-family="Helvetica,sans-Serif" font-size="10.00">KuszkAPI::Forms::EditBox</text>
<text text-anchor="middle" x="404" y="-554" font-family="Helvetica,sans-Serif" font-size="10.00">::AddLine</text>
</a>
</g>
</g>
<!-- Node2&#45;&gt;Node6 -->
<g id="edge5" class="edge"><title>Node2&#45;&gt;Node6</title>
<path fill="none" stroke="midnightblue" d="M249.834,-485.318C270.751,-501.172 301.018,-522.484 330,-537 337.306,-540.659 345.276,-543.994 353.177,-546.952"/>
<polygon fill="midnightblue" stroke="midnightblue" points="251.811,-482.424 241.748,-479.109 247.547,-487.976 251.811,-482.424"/>
</g>
<!-- Node7 -->
<g id="node7" class="node"><title>Node7</title>
<g id="a_node7"><a xlink:href="class_kuszk_a_p_i_1_1_forms_1_1_edit_box.html#ae3e0f39c6a2ffa9ab23af30005b7f0b3" target="_top" xlink:title="KuszkAPI::Forms::EditBox\l::GetLines">
<polygon fill="white" stroke="black" points="337,-498 337,-528 471,-528 471,-498 337,-498"/>
<text text-anchor="start" x="345" y="-516" font-family="Helvetica,sans-Serif" font-size="10.00">KuszkAPI::Forms::EditBox</text>
<text text-anchor="middle" x="404" y="-505" font-family="Helvetica,sans-Serif" font-size="10.00">::GetLines</text>
</a>
</g>
</g>
<!-- Node2&#45;&gt;Node7 -->
<g id="edge6" class="edge"><title>Node2&#45;&gt;Node7</title>
<path fill="none" stroke="midnightblue" d="M288.198,-481.748C307.707,-487.059 328.902,-492.829 347.708,-497.948"/>
<polygon fill="midnightblue" stroke="midnightblue" points="289.043,-478.351 278.475,-479.101 287.204,-485.105 289.043,-478.351"/>
</g>
<!-- Node8 -->
<g id="node8" class="node"><title>Node8</title>
<g id="a_node8"><a xlink:href="class_kuszk_a_p_i_1_1_forms_1_1_list_box.html#a6a28db85058610a3d57cc445cd5ff746" target="_top" xlink:title="KuszkAPI::Forms::ListBox\l::GetItems">
<polygon fill="white" stroke="black" points="337.5,-449 337.5,-479 470.5,-479 470.5,-449 337.5,-449"/>
<text text-anchor="start" x="345.5" y="-467" font-family="Helvetica,sans-Serif" font-size="10.00">KuszkAPI::Forms::ListBox</text>
<text text-anchor="middle" x="404" y="-456" font-family="Helvetica,sans-Serif" font-size="10.00">::GetItems</text>
</a>
</g>
</g>
<!-- Node2&#45;&gt;Node8 -->
<g id="edge7" class="edge"><title>Node2&#45;&gt;Node8</title>
<path fill="none" stroke="midnightblue" d="M289.12,-464C304.834,-464 321.594,-464 337.29,-464"/>
<polygon fill="midnightblue" stroke="midnightblue" points="288.966,-460.5 278.966,-464 288.966,-467.5 288.966,-460.5"/>
</g>
<!-- Node9 -->
<g id="node9" class="node"><title>Node9</title>
<g id="a_node9"><a xlink:href="class_kuszk_a_p_i_1_1_forms_1_1_tab_box.html#a89e58110675f0a2d6f632328fa782d45" target="_top" xlink:title="KuszkAPI::Forms::TabBox\l::GetItems">
<polygon fill="white" stroke="black" points="337.5,-400 337.5,-430 470.5,-430 470.5,-400 337.5,-400"/>
<text text-anchor="start" x="345.5" y="-418" font-family="Helvetica,sans-Serif" font-size="10.00">KuszkAPI::Forms::TabBox</text>
<text text-anchor="middle" x="404" y="-407" font-family="Helvetica,sans-Serif" font-size="10.00">::GetItems</text>
</a>
</g>
</g>
<!-- Node2&#45;&gt;Node9 -->
<g id="edge8" class="edge"><title>Node2&#45;&gt;Node9</title>
<path fill="none" stroke="midnightblue" d="M288.198,-446.252C307.707,-440.941 328.902,-435.171 347.708,-430.052"/>
<polygon fill="midnightblue" stroke="midnightblue" points="287.204,-442.895 278.475,-448.899 289.043,-449.649 287.204,-442.895"/>
</g>
<!-- Node10 -->
<g id="node10" class="node"><title>Node10</title>
<g id="a_node10"><a xlink:href="class_kuszk_a_p_i_1_1_forms_1_1_table_box.html#ab49a3916d6e1f49c4db6809c09b4a201" target="_top" xlink:title="KuszkAPI::Forms::TableBox\l::GetItemStruct">
<polygon fill="white" stroke="black" points="334,-351 334,-381 474,-381 474,-351 334,-351"/>
<text text-anchor="start" x="342" y="-369" font-family="Helvetica,sans-Serif" font-size="10.00">KuszkAPI::Forms::TableBox</text>
<text text-anchor="middle" x="404" y="-358" font-family="Helvetica,sans-Serif" font-size="10.00">::GetItemStruct</text>
</a>
</g>
</g>
<!-- Node2&#45;&gt;Node10 -->
<g id="edge9" class="edge"><title>Node2&#45;&gt;Node10</title>
<path fill="none" stroke="midnightblue" d="M286.129,-444.166C288.868,-442.566 291.508,-440.847 294,-439 315.71,-422.908 308.123,-405.864 330,-390 334.752,-386.554 340.027,-383.584 345.505,-381.027"/>
<polygon fill="midnightblue" stroke="midnightblue" points="284.348,-441.147 277.102,-448.876 287.587,-447.353 284.348,-441.147"/>
</g>
<!-- Node11 -->
<g id="node11" class="node"><title>Node11</title>
<g id="a_node11"><a xlink:href="class_kuszk_a_p_i_1_1_forms_1_1_table_box.html#afe16920a713ba1cfad66443cc9bf8030" target="_top" xlink:title="KuszkAPI::Forms::TableBox\l::GetItems">
<polygon fill="white" stroke="black" points="334,-302 334,-332 474,-332 474,-302 334,-302"/>
<text text-anchor="start" x="342" y="-320" font-family="Helvetica,sans-Serif" font-size="10.00">KuszkAPI::Forms::TableBox</text>
<text text-anchor="middle" x="404" y="-309" font-family="Helvetica,sans-Serif" font-size="10.00">::GetItems</text>
</a>
</g>
</g>
<!-- Node2&#45;&gt;Node11 -->
<g id="edge10" class="edge"><title>Node2&#45;&gt;Node11</title>
<path fill="none" stroke="midnightblue" d="M287.227,-444.699C289.633,-442.96 291.907,-441.065 294,-439 327.031,-406.411 296.63,-373.241 330,-341 333.55,-337.57 337.599,-334.63 341.928,-332.111"/>
<polygon fill="midnightblue" stroke="midnightblue" points="285.268,-441.795 278.604,-450.032 288.95,-447.749 285.268,-441.795"/>
</g>
<!-- Node12 -->
<g id="node12" class="node"><title>Node12</title>
<g id="a_node12"><a xlink:href="class_kuszk_a_p_i_1_1_forms_1_1_table_box.html#a591dd077c40df16ef559706357fc5ba5" target="_top" xlink:title="KuszkAPI::Forms::TableBox\l::GetColumn">
<polygon fill="white" stroke="black" points="334,-253 334,-283 474,-283 474,-253 334,-253"/>
<text text-anchor="start" x="342" y="-271" font-family="Helvetica,sans-Serif" font-size="10.00">KuszkAPI::Forms::TableBox</text>
<text text-anchor="middle" x="404" y="-260" font-family="Helvetica,sans-Serif" font-size="10.00">::GetColumn</text>
</a>
</g>
</g>
<!-- Node2&#45;&gt;Node12 -->
<g id="edge11" class="edge"><title>Node2&#45;&gt;Node12</title>
<path fill="none" stroke="midnightblue" d="M287.378,-445.097C289.759,-443.251 291.984,-441.224 294,-439 339.167,-389.156 284.315,-341.369 330,-292 333.171,-288.573 336.84,-285.634 340.811,-283.115"/>
<polygon fill="midnightblue" stroke="midnightblue" points="285.232,-442.317 278.758,-450.704 289.049,-448.185 285.232,-442.317"/>
</g>
<!-- Node13 -->
<g id="node13" class="node"><title>Node13</title>
<g id="a_node13"><a xlink:href="class_kuszk_a_p_i_1_1_forms_1_1_table_box.html#a17a5957c6b5ec94902d7c969f35b149a" target="_top" xlink:title="KuszkAPI::Forms::TableBox\l::Sort">
<polygon fill="white" stroke="black" points="334,-204 334,-234 474,-234 474,-204 334,-204"/>
<text text-anchor="start" x="342" y="-222" font-family="Helvetica,sans-Serif" font-size="10.00">KuszkAPI::Forms::TableBox</text>
<text text-anchor="middle" x="404" y="-211" font-family="Helvetica,sans-Serif" font-size="10.00">::Sort</text>
</a>
</g>
</g>
<!-- Node2&#45;&gt;Node13 -->
<g id="edge12" class="edge"><title>Node2&#45;&gt;Node13</title>
<path fill="none" stroke="midnightblue" d="M287.398,-445.356C289.79,-443.441 292.011,-441.329 294,-439 351.526,-371.657 271.772,-309.737 330,-243 332.982,-239.582 336.46,-236.649 340.249,-234.132"/>
<polygon fill="midnightblue" stroke="midnightblue" points="285.083,-442.692 278.688,-451.14 288.955,-448.524 285.083,-442.692"/>
</g>
<!-- Node24 -->
<g id="node24" class="node"><title>Node24</title>
<g id="a_node24"><a xlink:href="class_kuszk_a_p_i_1_1_core_1_1_script.html#a14e57dc946419434dfd8c2e0414fa111" target="_top" xlink:title="KuszkAPI::Core::Script\l::operator()">
<polygon fill="white" stroke="black" points="345,-0 345,-30 463,-30 463,-0 345,-0"/>
<text text-anchor="start" x="353" y="-18" font-family="Helvetica,sans-Serif" font-size="10.00">KuszkAPI::Core::Script</text>
<text text-anchor="middle" x="404" y="-7" font-family="Helvetica,sans-Serif" font-size="10.00">::operator()</text>
</a>
</g>
</g>
<!-- Node23&#45;&gt;Node24 -->
<g id="edge23" class="edge"><title>Node23&#45;&gt;Node24</title>
<path fill="none" stroke="midnightblue" d="M296.622,-15C312.662,-15 329.419,-15 344.763,-15"/>
<polygon fill="midnightblue" stroke="midnightblue" points="296.208,-11.5001 286.208,-15 296.208,-18.5001 296.208,-11.5001"/>
</g>
</g>
</svg>
