<?xml version="1.0" encoding="UTF-8" standalone="no"?>
<!DOCTYPE svg PUBLIC "-//W3C//DTD SVG 1.1//EN"
 "http://www.w3.org/Graphics/SVG/1.1/DTD/svg11.dtd">
<!-- Generated by graphviz version 2.36.0 (20140111.2315)
 -->
<!-- Title: KuszkAPI::Forms::Window Pages: 1 -->
<!--zoomable 306 -->
<svg id="main" version="1.1" xmlns="http://www.w3.org/2000/svg" xmlns:xlink="http://www.w3.org/1999/xlink" xml:space="preserve" onload="init(evt)">
<style type="text/css"><![CDATA[
.edge:hover path { stroke: red; }
.edge:hover polygon { stroke: red; fill: red; }
]]></style>
<script type="text/javascript"><![CDATA[
var edges = document.getElementsByTagName('g');
if (edges && edges.length) {
  for (var i=0;i<edges.length;i++) {
    if (edges[i].id.substr(0,4)=='edge') {
      edges[i].setAttribute('class','edge');
    }
  }
}
]]></script>
        <defs>
                <circle id="rim" cx="0" cy="0" r="7"/>
                <circle id="rim2" cx="0" cy="0" r="3.5"/>
                <g id="zoomPlus">
                        <use xlink:href="#rim" fill="#404040">
                                <set attributeName="fill" to="#808080" begin="zoomplus.mouseover" end="zoomplus.mouseout"/>
                        </use>
                        <path d="M-4,0h8M0,-4v8" fill="none" stroke="white" stroke-width="1.5" pointer-events="none"/>
                </g>
                <g id="zoomMin">
                        <use xlink:href="#rim" fill="#404040">
                                <set attributeName="fill" to="#808080" begin="zoomminus.mouseover" end="zoomminus.mouseout"/>
                        </use>
                        <path d="M-4,0h8" fill="none" stroke="white" stroke-width="1.5" pointer-events="none"/>
                </g>
                <g id="dirArrow">
                        <path fill="none" stroke="white" stroke-width="1.5" d="M0,-3.0v7 M-2.5,-0.5L0,-3.0L2.5,-0.5"/>
                </g>
               <g id="resetDef">
                       <use xlink:href="#rim2" fill="#404040">
                               <set attributeName="fill" to="#808080" begin="reset.mouseover" end="reset.mouseout"/>
                       </use>
               </g>
        </defs>

<script type="text/javascript">
var viewWidth = 880;
var viewHeight = 306;
var sectionId = 'dynsection-0';
</script>
<script xlink:href="svgpan.js"/>
<svg id="graph" class="graph">
<g id="viewport">
<title>KuszkAPI::Forms::Window</title>
<polygon fill="white" stroke="none" points="-4,4 -4,-302 876,-302 876,4 -4,4"/>
<!-- Node1 -->
<g id="node1" class="node"><title>Node1</title>
<polygon fill="#bfbfbf" stroke="black" points="0,-145.5 0,-164.5 134,-164.5 134,-145.5 0,-145.5"/>
<text text-anchor="middle" x="67" y="-152.5" font-family="Helvetica,sans-Serif" font-size="10.00">KuszkAPI::Forms::Window</text>
</g>
<!-- Node2 -->
<g id="node2" class="node"><title>Node2</title>
<g id="a_node2"><a xlink:href="class_kuszk_a_p_i_1_1_forms_1_1_control.html" target="_top" xlink:title="KuszkAPI::Forms::Control">
<polygon fill="white" stroke="black" points="178.5,-183.5 178.5,-202.5 309.5,-202.5 309.5,-183.5 178.5,-183.5"/>
<text text-anchor="middle" x="244" y="-190.5" font-family="Helvetica,sans-Serif" font-size="10.00">KuszkAPI::Forms::Control</text>
</a>
</g>
</g>
<!-- Node1&#45;&gt;Node2 -->
<g id="edge1" class="edge"><title>Node1&#45;&gt;Node2</title>
<path fill="none" stroke="midnightblue" d="M122.124,-166.753C146.869,-172.126 175.803,-178.409 199.158,-183.48"/>
<polygon fill="midnightblue" stroke="midnightblue" points="122.675,-163.291 112.16,-164.589 121.189,-170.131 122.675,-163.291"/>
</g>
<!-- Node17 -->
<g id="node17" class="node"><title>Node17</title>
<g id="a_node17"><a xlink:href="class_kuszk_a_p_i_1_1_forms_1_1_form.html" target="_top" xlink:title="KuszkAPI::Forms::Form">
<polygon fill="white" stroke="black" points="183,-145.5 183,-164.5 305,-164.5 305,-145.5 183,-145.5"/>
<text text-anchor="middle" x="244" y="-152.5" font-family="Helvetica,sans-Serif" font-size="10.00">KuszkAPI::Forms::Form</text>
</a>
</g>
</g>
<!-- Node1&#45;&gt;Node17 -->
<g id="edge16" class="edge"><title>Node1&#45;&gt;Node17</title>
<path fill="none" stroke="midnightblue" d="M144.379,-155C157.236,-155 170.419,-155 182.792,-155"/>
<polygon fill="midnightblue" stroke="midnightblue" points="144.16,-151.5 134.16,-155 144.16,-158.5 144.16,-151.5"/>
</g>
<!-- Node18 -->
<g id="node18" class="node"><title>Node18</title>
<g id="a_node18"><a xlink:href="class_kuszk_a_p_i_1_1_forms_1_1_user_dialog.html" target="_top" xlink:title="KuszkAPI::Forms::UserDialog">
<polygon fill="white" stroke="black" points="170.5,-107.5 170.5,-126.5 317.5,-126.5 317.5,-107.5 170.5,-107.5"/>
<text text-anchor="middle" x="244" y="-114.5" font-family="Helvetica,sans-Serif" font-size="10.00">KuszkAPI::Forms::UserDialog</text>
</a>
</g>
</g>
<!-- Node1&#45;&gt;Node18 -->
<g id="edge17" class="edge"><title>Node1&#45;&gt;Node18</title>
<path fill="none" stroke="midnightblue" d="M122.124,-143.247C146.869,-137.874 175.803,-131.591 199.158,-126.52"/>
<polygon fill="midnightblue" stroke="midnightblue" points="121.189,-139.869 112.16,-145.411 122.675,-146.709 121.189,-139.869"/>
</g>
<!-- Node3 -->
<g id="node3" class="node"><title>Node3</title>
<g id="a_node3"><a xlink:href="class_kuszk_a_p_i_1_1_forms_1_1_date_control.html" target="_top" xlink:title="KuszkAPI::Forms::DateControl">
<polygon fill="white" stroke="black" points="354.5,-259.5 354.5,-278.5 505.5,-278.5 505.5,-259.5 354.5,-259.5"/>
<text text-anchor="middle" x="430" y="-266.5" font-family="Helvetica,sans-Serif" font-size="10.00">KuszkAPI::Forms::DateControl</text>
</a>
</g>
</g>
<!-- Node2&#45;&gt;Node3 -->
<g id="edge2" class="edge"><title>Node2&#45;&gt;Node3</title>
<path fill="none" stroke="midnightblue" d="M277.615,-206.471C314.461,-221.691 373.499,-246.076 405.885,-259.453"/>
<polygon fill="midnightblue" stroke="midnightblue" points="278.883,-203.208 268.304,-202.625 276.21,-209.678 278.883,-203.208"/>
</g>
<!-- Node5 -->
<g id="node5" class="node"><title>Node5</title>
<g id="a_node5"><a xlink:href="class_kuszk_a_p_i_1_1_forms_1_1_list_control.html" target="_top" xlink:title="KuszkAPI::Forms::ListControl">
<polygon fill="white" stroke="black" points="357,-202.5 357,-221.5 503,-221.5 503,-202.5 357,-202.5"/>
<text text-anchor="middle" x="430" y="-209.5" font-family="Helvetica,sans-Serif" font-size="10.00">KuszkAPI::Forms::ListControl</text>
</a>
</g>
</g>
<!-- Node2&#45;&gt;Node5 -->
<g id="edge4" class="edge"><title>Node2&#45;&gt;Node5</title>
<path fill="none" stroke="midnightblue" d="M319.74,-200.718C331.938,-201.977 344.556,-203.28 356.694,-204.534"/>
<polygon fill="midnightblue" stroke="midnightblue" points="319.919,-197.218 309.613,-199.672 319.2,-204.181 319.919,-197.218"/>
</g>
<!-- Node9 -->
<g id="node9" class="node"><title>Node9</title>
<g id="a_node9"><a xlink:href="class_kuszk_a_p_i_1_1_forms_1_1_tab_box.html" target="_top" xlink:title="KuszkAPI::Forms::TabBox">
<polygon fill="white" stroke="black" points="363.5,-164.5 363.5,-183.5 496.5,-183.5 496.5,-164.5 363.5,-164.5"/>
<text text-anchor="middle" x="430" y="-171.5" font-family="Helvetica,sans-Serif" font-size="10.00">KuszkAPI::Forms::TabBox</text>
</a>
</g>
</g>
<!-- Node2&#45;&gt;Node9 -->
<g id="edge8" class="edge"><title>Node2&#45;&gt;Node9</title>
<path fill="none" stroke="midnightblue" d="M319.95,-185.261C334.314,-183.777 349.252,-182.235 363.298,-180.784"/>
<polygon fill="midnightblue" stroke="midnightblue" points="319.2,-181.819 309.613,-186.328 319.919,-188.782 319.2,-181.819"/>
</g>
<!-- Node10 -->
<g id="node10" class="node"><title>Node10</title>
<g id="a_node10"><a xlink:href="class_kuszk_a_p_i_1_1_forms_1_1_text_control.html" target="_top" xlink:title="KuszkAPI::Forms::TextControl">
<polygon fill="white" stroke="black" points="355.5,-82.5 355.5,-101.5 504.5,-101.5 504.5,-82.5 355.5,-82.5"/>
<text text-anchor="middle" x="430" y="-89.5" font-family="Helvetica,sans-Serif" font-size="10.00">KuszkAPI::Forms::TextControl</text>
</a>
</g>
</g>
<!-- Node2&#45;&gt;Node10 -->
<g id="edge9" class="edge"><title>Node2&#45;&gt;Node10</title>
<path fill="none" stroke="midnightblue" d="M302.393,-180.318C307.768,-178.461 313.051,-176.363 318,-174 359.08,-154.387 400.325,-118.718 418.862,-101.63"/>
<polygon fill="midnightblue" stroke="midnightblue" points="301.141,-177.043 292.669,-183.405 303.259,-183.715 301.141,-177.043"/>
</g>
<!-- Node4 -->
<g id="node4" class="node"><title>Node4</title>
<g id="a_node4"><a xlink:href="class_kuszk_a_p_i_1_1_forms_1_1_calendar.html" target="_top" xlink:title="KuszkAPI::Forms::Calendar">
<polygon fill="white" stroke="black" points="547,-278.5 547,-297.5 685,-297.5 685,-278.5 547,-278.5"/>
<text text-anchor="middle" x="616" y="-285.5" font-family="Helvetica,sans-Serif" font-size="10.00">KuszkAPI::Forms::Calendar</text>
</a>
</g>
</g>
<!-- Node3&#45;&gt;Node4 -->
<g id="edge3" class="edge"><title>Node3&#45;&gt;Node4</title>
<path fill="none" stroke="midnightblue" d="M515.566,-277.732C526.047,-278.815 536.658,-279.91 546.849,-280.963"/>
<polygon fill="midnightblue" stroke="midnightblue" points="515.881,-274.246 505.575,-276.701 515.162,-281.209 515.881,-274.246"/>
</g>
<!-- Node6 -->
<g id="node6" class="node"><title>Node6</title>
<g id="a_node6"><a xlink:href="class_kuszk_a_p_i_1_1_forms_1_1_combo_box.html" target="_top" xlink:title="KuszkAPI::Forms::ComboBox">
<polygon fill="white" stroke="black" points="542,-240.5 542,-259.5 690,-259.5 690,-240.5 542,-240.5"/>
<text text-anchor="middle" x="616" y="-247.5" font-family="Helvetica,sans-Serif" font-size="10.00">KuszkAPI::Forms::ComboBox</text>
</a>
</g>
</g>
<!-- Node5&#45;&gt;Node6 -->
<g id="edge5" class="edge"><title>Node5&#45;&gt;Node6</title>
<path fill="none" stroke="midnightblue" d="M487.561,-223.681C513.654,-229.07 544.238,-235.386 568.903,-240.48"/>
<polygon fill="midnightblue" stroke="midnightblue" points="487.932,-220.184 477.431,-221.589 486.516,-227.039 487.932,-220.184"/>
</g>
<!-- Node7 -->
<g id="node7" class="node"><title>Node7</title>
<g id="a_node7"><a xlink:href="class_kuszk_a_p_i_1_1_forms_1_1_list_box.html" target="_top" xlink:title="KuszkAPI::Forms::ListBox">
<polygon fill="white" stroke="black" points="549.5,-202.5 549.5,-221.5 682.5,-221.5 682.5,-202.5 549.5,-202.5"/>
<text text-anchor="middle" x="616" y="-209.5" font-family="Helvetica,sans-Serif" font-size="10.00">KuszkAPI::Forms::ListBox</text>
</a>
</g>
</g>
<!-- Node5&#45;&gt;Node7 -->
<g id="edge6" class="edge"><title>Node5&#45;&gt;Node7</title>
<path fill="none" stroke="midnightblue" d="M513.261,-212C525.331,-212 537.627,-212 549.305,-212"/>
<polygon fill="midnightblue" stroke="midnightblue" points="513.194,-208.5 503.194,-212 513.194,-215.5 513.194,-208.5"/>
</g>
<!-- Node8 -->
<g id="node8" class="node"><title>Node8</title>
<g id="a_node8"><a xlink:href="class_kuszk_a_p_i_1_1_forms_1_1_table_box.html" target="_top" xlink:title="KuszkAPI::Forms::TableBox">
<polygon fill="white" stroke="black" points="546,-164.5 546,-183.5 686,-183.5 686,-164.5 546,-164.5"/>
<text text-anchor="middle" x="616" y="-171.5" font-family="Helvetica,sans-Serif" font-size="10.00">KuszkAPI::Forms::TableBox</text>
</a>
</g>
</g>
<!-- Node5&#45;&gt;Node8 -->
<g id="edge7" class="edge"><title>Node5&#45;&gt;Node8</title>
<path fill="none" stroke="midnightblue" d="M487.561,-200.319C513.654,-194.93 544.238,-188.614 568.903,-183.52"/>
<polygon fill="midnightblue" stroke="midnightblue" points="486.516,-196.961 477.431,-202.411 487.932,-203.816 486.516,-196.961"/>
</g>
<!-- Node11 -->
<g id="node11" class="node"><title>Node11</title>
<g id="a_node11"><a xlink:href="class_kuszk_a_p_i_1_1_forms_1_1_button.html" target="_top" xlink:title="KuszkAPI::Forms::Button">
<polygon fill="white" stroke="black" points="552,-126.5 552,-145.5 680,-145.5 680,-126.5 552,-126.5"/>
<text text-anchor="middle" x="616" y="-133.5" font-family="Helvetica,sans-Serif" font-size="10.00">KuszkAPI::Forms::Button</text>
</a>
</g>
</g>
<!-- Node10&#45;&gt;Node11 -->
<g id="edge10" class="edge"><title>Node10&#45;&gt;Node11</title>
<path fill="none" stroke="midnightblue" d="M480.665,-103.876C510.305,-110.964 547.442,-119.845 575.153,-126.471"/>
<polygon fill="midnightblue" stroke="midnightblue" points="481.465,-100.469 470.925,-101.547 479.837,-107.277 481.465,-100.469"/>
</g>
<!-- Node12 -->
<g id="node12" class="node"><title>Node12</title>
<g id="a_node12"><a xlink:href="class_kuszk_a_p_i_1_1_forms_1_1_check_box_control.html" target="_top" xlink:title="KuszkAPI::Forms::CheckBox\lControl">
<polygon fill="white" stroke="black" points="543.5,-77 543.5,-107 688.5,-107 688.5,-77 543.5,-77"/>
<text text-anchor="start" x="551.5" y="-95" font-family="Helvetica,sans-Serif" font-size="10.00">KuszkAPI::Forms::CheckBox</text>
<text text-anchor="middle" x="616" y="-84" font-family="Helvetica,sans-Serif" font-size="10.00">Control</text>
</a>
</g>
</g>
<!-- Node10&#45;&gt;Node12 -->
<g id="edge11" class="edge"><title>Node10&#45;&gt;Node12</title>
<path fill="none" stroke="midnightblue" d="M514.811,-92C524.361,-92 534.029,-92 543.4,-92"/>
<polygon fill="midnightblue" stroke="midnightblue" points="514.515,-88.5001 504.515,-92 514.515,-95.5001 514.515,-88.5001"/>
</g>
<!-- Node15 -->
<g id="node15" class="node"><title>Node15</title>
<g id="a_node15"><a xlink:href="class_kuszk_a_p_i_1_1_forms_1_1_edit_box.html" target="_top" xlink:title="KuszkAPI::Forms::EditBox">
<polygon fill="white" stroke="black" points="549,-38.5 549,-57.5 683,-57.5 683,-38.5 549,-38.5"/>
<text text-anchor="middle" x="616" y="-45.5" font-family="Helvetica,sans-Serif" font-size="10.00">KuszkAPI::Forms::EditBox</text>
</a>
</g>
</g>
<!-- Node10&#45;&gt;Node15 -->
<g id="edge14" class="edge"><title>Node10&#45;&gt;Node15</title>
<path fill="none" stroke="midnightblue" d="M480.665,-80.1236C510.305,-73.0358 547.442,-64.1552 575.153,-57.5287"/>
<polygon fill="midnightblue" stroke="midnightblue" points="479.837,-76.7228 470.925,-82.4527 481.465,-83.5309 479.837,-76.7228"/>
</g>
<!-- Node16 -->
<g id="node16" class="node"><title>Node16</title>
<g id="a_node16"><a xlink:href="class_kuszk_a_p_i_1_1_forms_1_1_label.html" target="_top" xlink:title="KuszkAPI::Forms::Label">
<polygon fill="white" stroke="black" points="554.5,-0.5 554.5,-19.5 677.5,-19.5 677.5,-0.5 554.5,-0.5"/>
<text text-anchor="middle" x="616" y="-7.5" font-family="Helvetica,sans-Serif" font-size="10.00">KuszkAPI::Forms::Label</text>
</a>
</g>
</g>
<!-- Node10&#45;&gt;Node16 -->
<g id="edge15" class="edge"><title>Node10&#45;&gt;Node16</title>
<path fill="none" stroke="midnightblue" d="M453.655,-76.7889C475.483,-62.712 509.841,-42.0477 542,-29 551.101,-25.3074 561.135,-22.1477 570.775,-19.5255"/>
<polygon fill="midnightblue" stroke="midnightblue" points="451.564,-73.9745 445.11,-82.3771 455.395,-79.8329 451.564,-73.9745"/>
</g>
<!-- Node13 -->
<g id="node13" class="node"><title>Node13</title>
<g id="a_node13"><a xlink:href="class_kuszk_a_p_i_1_1_forms_1_1_check_box.html" target="_top" xlink:title="KuszkAPI::Forms::CheckBox">
<polygon fill="white" stroke="black" points="726.5,-101.5 726.5,-120.5 871.5,-120.5 871.5,-101.5 726.5,-101.5"/>
<text text-anchor="middle" x="799" y="-108.5" font-family="Helvetica,sans-Serif" font-size="10.00">KuszkAPI::Forms::CheckBox</text>
</a>
</g>
</g>
<!-- Node12&#45;&gt;Node13 -->
<g id="edge12" class="edge"><title>Node12&#45;&gt;Node13</title>
<path fill="none" stroke="midnightblue" d="M698.545,-100.56C707.832,-101.535 717.246,-102.523 726.391,-103.483"/>
<polygon fill="midnightblue" stroke="midnightblue" points="698.847,-97.0725 688.536,-99.5093 698.116,-104.034 698.847,-97.0725"/>
</g>
<!-- Node14 -->
<g id="node14" class="node"><title>Node14</title>
<g id="a_node14"><a xlink:href="class_kuszk_a_p_i_1_1_forms_1_1_radio_box.html" target="_top" xlink:title="KuszkAPI::Forms::RadioBox">
<polygon fill="white" stroke="black" points="728,-63.5 728,-82.5 870,-82.5 870,-63.5 728,-63.5"/>
<text text-anchor="middle" x="799" y="-70.5" font-family="Helvetica,sans-Serif" font-size="10.00">KuszkAPI::Forms::RadioBox</text>
</a>
</g>
</g>
<!-- Node12&#45;&gt;Node14 -->
<g id="edge13" class="edge"><title>Node12&#45;&gt;Node14</title>
<path fill="none" stroke="midnightblue" d="M698.637,-83.4304C708.396,-82.406 718.294,-81.3669 727.871,-80.3616"/>
<polygon fill="midnightblue" stroke="midnightblue" points="698.116,-79.9657 688.536,-84.4907 698.847,-86.9275 698.116,-79.9657"/>
</g>
</g>
</svg>
        <g id="navigator" transform="translate(0 0)" fill="#404254">
                <rect fill="#f2f5e9" fill-opacity="0.5" stroke="#606060" stroke-width=".5" x="0" y="0" width="60" height="60"/>
                <use id="zoomplus" xlink:href="#zoomPlus" x="17" y="9" onmousedown="handleZoom(evt,'in')"/>
                <use id="zoomminus" xlink:href="#zoomMin" x="42" y="9" onmousedown="handleZoom(evt,'out')"/>
                <use id="reset" xlink:href="#resetDef" x="30" y="36" onmousedown="handleReset()"/>
                <g id="arrowUp" xlink:href="#dirArrow" transform="translate(30 24)" onmousedown="handlePan(0,-1)">
                  <use xlink:href="#rim" fill="#404040">
                        <set attributeName="fill" to="#808080" begin="arrowUp.mouseover" end="arrowUp.mouseout"/>
                  </use>
                  <path fill="none" stroke="white" stroke-width="1.5" d="M0,-3.0v7 M-2.5,-0.5L0,-3.0L2.5,-0.5"/>
                </g>
                <g id="arrowRight" xlink:href="#dirArrow" transform="rotate(90) translate(36 -43)" onmousedown="handlePan(1,0)">
                  <use xlink:href="#rim" fill="#404040">
                        <set attributeName="fill" to="#808080" begin="arrowRight.mouseover" end="arrowRight.mouseout"/>
                  </use>
                  <path fill="none" stroke="white" stroke-width="1.5" d="M0,-3.0v7 M-2.5,-0.5L0,-3.0L2.5,-0.5"/>
                </g>
                <g id="arrowDown" xlink:href="#dirArrow" transform="rotate(180) translate(-30 -48)" onmousedown="handlePan(0,1)">
                  <use xlink:href="#rim" fill="#404040">
                        <set attributeName="fill" to="#808080" begin="arrowDown.mouseover" end="arrowDown.mouseout"/>
                  </use>
                  <path fill="none" stroke="white" stroke-width="1.5" d="M0,-3.0v7 M-2.5,-0.5L0,-3.0L2.5,-0.5"/>
                </g>
                <g id="arrowLeft" xlink:href="#dirArrow" transform="rotate(270) translate(-36 17)" onmousedown="handlePan(-1,0)">
                  <use xlink:href="#rim" fill="#404040">
                        <set attributeName="fill" to="#808080" begin="arrowLeft.mouseover" end="arrowLeft.mouseout"/>
                  </use>
                  <path fill="none" stroke="white" stroke-width="1.5" d="M0,-3.0v7 M-2.5,-0.5L0,-3.0L2.5,-0.5"/>
                </g>
        </g>
        <svg viewBox="0 0 15 15" width="100%" height="30px" preserveAspectRatio="xMaxYMin meet">
         <g id="arrow_out" transform="scale(0.3 0.3)">
          <a xlink:href="class_kuszk_a_p_i_1_1_forms_1_1_window__inherit__graph_org.svg" target="_base">
           <rect id="button" ry="5" rx="5" y="6" x="6" height="38" width="38"
                fill="#f2f5e9" fill-opacity="0.5" stroke="#606060" stroke-width="1.0"/>
           <path id="arrow"
             d="M 11.500037,31.436501 C 11.940474,20.09759 22.043105,11.32322 32.158766,21.979434 L 37.068811,17.246167 C 37.068811,17.246167 37.088388,32 37.088388,32 L 22.160133,31.978069 C 22.160133,31.978069 26.997745,27.140456 26.997745,27.140456 C 18.528582,18.264221 13.291696,25.230495 11.500037,31.436501 z"
             style="fill:#404040;"/>
          </a>
         </g>
        </svg>
</svg>
