<?xml version="1.0" encoding="UTF-8" standalone="no"?>
<!DOCTYPE svg PUBLIC "-//W3C//DTD SVG 1.1//EN"
 "http://www.w3.org/Graphics/SVG/1.1/DTD/svg11.dtd">
<!-- Generated by graphviz version 2.36.0 (20140111.2315)
 -->
<!-- Title: KuszkAPI::Forms::Control::ToopTip Pages: 1 -->
<svg width="146pt" height="130pt"
 viewBox="0.00 0.00 146.00 130.00" xmlns="http://www.w3.org/2000/svg" xmlns:xlink="http://www.w3.org/1999/xlink">
<g id="graph0" class="graph" transform="scale(1 1) rotate(0) translate(4 126)">
<title>KuszkAPI::Forms::Control::ToopTip</title>
<polygon fill="white" stroke="none" points="-4,4 -4,-126 142,-126 142,4 -4,4"/>
<!-- Node1 -->
<g id="node1" class="node"><title>Node1</title>
<polygon fill="#bfbfbf" stroke="black" points="3.5,-1 3.5,-31 134.5,-31 134.5,-1 3.5,-1"/>
<text text-anchor="start" x="11.5" y="-19" font-family="Helvetica,sans-Serif" font-size="10.00">KuszkAPI::Forms::Control</text>
<text text-anchor="middle" x="69" y="-8" font-family="Helvetica,sans-Serif" font-size="10.00">::ToopTip</text>
</g>
<!-- Node2 -->
<g id="node2" class="node"><title>Node2</title>
<polygon fill="white" stroke="#bfbfbf" points="-0.5,-102.5 -0.5,-121.5 64.5,-121.5 64.5,-102.5 -0.5,-102.5"/>
<text text-anchor="middle" x="32" y="-109.5" font-family="Helvetica,sans-Serif" font-size="10.00">TOOLINFO</text>
</g>
<!-- Node2&#45;&gt;Node1 -->
<g id="edge1" class="edge"><title>Node2&#45;&gt;Node1</title>
<path fill="none" stroke="#9a32cd" stroke-dasharray="5,2" d="M28.5673,-92.0929C27.1793,-79.5999 27.0797,-63.1645 33,-50 36.2688,-42.7314 41.9909,-36.3514 47.9238,-31.1874"/>
<polygon fill="#9a32cd" stroke="#9a32cd" points="25.144,-92.87 30.0684,-102.251 32.0688,-91.8466 25.144,-92.87"/>
<text text-anchor="middle" x="59" y="-64.5" font-family="Helvetica,sans-Serif" font-size="10.00"> tToolTipInfo</text>
</g>
<!-- Node3 -->
<g id="node3" class="node"><title>Node3</title>
<polygon fill="white" stroke="#bfbfbf" points="83.5,-102.5 83.5,-121.5 130.5,-121.5 130.5,-102.5 83.5,-102.5"/>
<text text-anchor="middle" x="107" y="-109.5" font-family="Helvetica,sans-Serif" font-size="10.00">HWND</text>
</g>
<!-- Node3&#45;&gt;Node1 -->
<g id="edge2" class="edge"><title>Node3&#45;&gt;Node1</title>
<path fill="none" stroke="#9a32cd" stroke-dasharray="5,2" d="M100.96,-92.69C96.7935,-80.4734 90.9508,-64.1224 85,-50 82.3793,-43.7805 79.1857,-37.0538 76.3429,-31.3062"/>
<polygon fill="#9a32cd" stroke="#9a32cd" points="97.6525,-93.8341 104.152,-102.201 104.289,-91.6075 97.6525,-93.8341"/>
<text text-anchor="middle" x="117.5" y="-75.5" font-family="Helvetica,sans-Serif" font-size="10.00"> hUchwyt</text>
<text text-anchor="middle" x="117.5" y="-64.5" font-family="Helvetica,sans-Serif" font-size="10.00">hOwner</text>
<text text-anchor="middle" x="117.5" y="-53.5" font-family="Helvetica,sans-Serif" font-size="10.00">hWindow</text>
</g>
</g>
</svg>
