<?xml version="1.0" encoding="UTF-8" standalone="no"?>
<!DOCTYPE svg PUBLIC "-//W3C//DTD SVG 1.1//EN"
 "http://www.w3.org/Graphics/SVG/1.1/DTD/svg11.dtd">
<!-- Generated by graphviz version 2.36.0 (20140111.2315)
 -->
<!-- Title: KuszkAPI::Core::Process&lt; tnKey &gt; Pages: 1 -->
<svg width="400pt" height="108pt"
 viewBox="0.00 0.00 400.00 108.00" xmlns="http://www.w3.org/2000/svg" xmlns:xlink="http://www.w3.org/1999/xlink">
<g id="graph0" class="graph" transform="scale(1 1) rotate(0) translate(4 104)">
<title>KuszkAPI::Core::Process&lt; tnKey &gt;</title>
<polygon fill="white" stroke="none" points="-4,4 -4,-104 396,-104 396,4 -4,4"/>
<!-- Node1 -->
<g id="node1" class="node"><title>Node1</title>
<polygon fill="#bfbfbf" stroke="black" points="138,-1 138,-31 266,-31 266,-1 138,-1"/>
<text text-anchor="start" x="146" y="-19" font-family="Helvetica,sans-Serif" font-size="10.00">KuszkAPI::Core::Process</text>
<text text-anchor="middle" x="202" y="-8" font-family="Helvetica,sans-Serif" font-size="10.00">&lt; tnKey &gt;</text>
</g>
<!-- Node2 -->
<g id="node2" class="node"><title>Node2</title>
<polygon fill="white" stroke="#bfbfbf" points="-0.5,-80.5 -0.5,-99.5 94.5,-99.5 94.5,-80.5 -0.5,-80.5"/>
<text text-anchor="middle" x="47" y="-87.5" font-family="Helvetica,sans-Serif" font-size="10.00">Threads&lt; tnKey &gt;</text>
</g>
<!-- Node2&#45;&gt;Node1 -->
<g id="edge1" class="edge"><title>Node2&#45;&gt;Node1</title>
<path fill="none" stroke="#9a32cd" stroke-dasharray="5,2" d="M74.7401,-76.1143C102.009,-63.4476 143.518,-44.1658 171.653,-31.0968"/>
<polygon fill="#9a32cd" stroke="#9a32cd" points="72.984,-73.0708 65.3892,-80.4579 75.933,-79.4193 72.984,-73.0708"/>
<text text-anchor="middle" x="146.5" y="-53.5" font-family="Helvetica,sans-Serif" font-size="10.00"> Thread</text>
</g>
<!-- Node3 -->
<g id="node3" class="node"><title>Node3</title>
<polygon fill="white" stroke="#bfbfbf" points="112.5,-80.5 112.5,-99.5 201.5,-99.5 201.5,-80.5 112.5,-80.5"/>
<text text-anchor="middle" x="157" y="-87.5" font-family="Helvetica,sans-Serif" font-size="10.00">Events&lt; tnKey &gt;</text>
</g>
<!-- Node3&#45;&gt;Node1 -->
<g id="edge2" class="edge"><title>Node3&#45;&gt;Node1</title>
<path fill="none" stroke="#9a32cd" stroke-dasharray="5,2" d="M167.663,-71.9385C175.418,-59.5308 185.796,-42.9271 193.105,-31.2316"/>
<polygon fill="#9a32cd" stroke="#9a32cd" points="164.671,-70.1229 162.339,-80.4579 170.607,-73.8329 164.671,-70.1229"/>
<text text-anchor="middle" x="195" y="-53.5" font-family="Helvetica,sans-Serif" font-size="10.00"> Event</text>
</g>
<!-- Node4 -->
<g id="node4" class="node"><title>Node4</title>
<polygon fill="white" stroke="#bfbfbf" points="220,-80.5 220,-99.5 276,-99.5 276,-80.5 220,-80.5"/>
<text text-anchor="middle" x="248" y="-87.5" font-family="Helvetica,sans-Serif" font-size="10.00">HANDLE</text>
</g>
<!-- Node4&#45;&gt;Node1 -->
<g id="edge3" class="edge"><title>Node4&#45;&gt;Node1</title>
<path fill="none" stroke="#9a32cd" stroke-dasharray="5,2" d="M237.1,-71.9385C229.172,-59.5308 218.565,-42.9271 211.092,-31.2316"/>
<polygon fill="#9a32cd" stroke="#9a32cd" points="234.209,-73.9153 242.543,-80.4579 240.108,-70.1466 234.209,-73.9153"/>
<text text-anchor="middle" x="253.5" y="-53.5" font-family="Helvetica,sans-Serif" font-size="10.00"> hProcess</text>
</g>
<!-- Node5 -->
<g id="node5" class="node"><title>Node5</title>
<polygon fill="white" stroke="#bfbfbf" points="294,-80.5 294,-99.5 392,-99.5 392,-80.5 294,-80.5"/>
<text text-anchor="middle" x="343" y="-87.5" font-family="Helvetica,sans-Serif" font-size="10.00">Sections&lt; tnKey &gt;</text>
</g>
<!-- Node5&#45;&gt;Node1 -->
<g id="edge4" class="edge"><title>Node5&#45;&gt;Node1</title>
<path fill="none" stroke="#9a32cd" stroke-dasharray="5,2" d="M321.873,-74.7855C309.86,-66.9952 294.386,-57.4398 280,-50 266.809,-43.1782 251.885,-36.6026 238.649,-31.1408"/>
<polygon fill="#9a32cd" stroke="#9a32cd" points="320.03,-77.7629 330.308,-80.3345 323.877,-71.9147 320.03,-77.7629"/>
<text text-anchor="middle" x="320.5" y="-53.5" font-family="Helvetica,sans-Serif" font-size="10.00"> Section</text>
</g>
</g>
</svg>
