<?xml version="1.0" encoding="UTF-8" standalone="no"?>
<!DOCTYPE svg PUBLIC "-//W3C//DTD SVG 1.1//EN"
 "http://www.w3.org/Graphics/SVG/1.1/DTD/svg11.dtd">
<!-- Generated by graphviz version 2.36.0 (20140111.2315)
 -->
<!-- Title: KuszkAPI::Forms::CheckBoxControl Pages: 1 -->
<svg width="313pt" height="264pt"
 viewBox="0.00 0.00 313.00 264.00" xmlns="http://www.w3.org/2000/svg" xmlns:xlink="http://www.w3.org/1999/xlink">
<g id="graph0" class="graph" transform="scale(1 1) rotate(0) translate(4 260)">
<title>KuszkAPI::Forms::CheckBoxControl</title>
<polygon fill="white" stroke="none" points="-4,4 -4,-260 309,-260 309,4 -4,4"/>
<!-- Node1 -->
<g id="node1" class="node"><title>Node1</title>
<polygon fill="#bfbfbf" stroke="black" points="80.5,-57 80.5,-87 225.5,-87 225.5,-57 80.5,-57"/>
<text text-anchor="start" x="88.5" y="-75" font-family="Helvetica,sans-Serif" font-size="10.00">KuszkAPI::Forms::CheckBox</text>
<text text-anchor="middle" x="153" y="-64" font-family="Helvetica,sans-Serif" font-size="10.00">Control</text>
</g>
<!-- Node5 -->
<g id="node5" class="node"><title>Node5</title>
<g id="a_node5"><a xlink:href="class_kuszk_a_p_i_1_1_forms_1_1_check_box.html" target="_top" xlink:title="KuszkAPI::Forms::CheckBox">
<polygon fill="white" stroke="black" points="-0.5,-0.5 -0.5,-19.5 144.5,-19.5 144.5,-0.5 -0.5,-0.5"/>
<text text-anchor="middle" x="72" y="-7.5" font-family="Helvetica,sans-Serif" font-size="10.00">KuszkAPI::Forms::CheckBox</text>
</a>
</g>
</g>
<!-- Node1&#45;&gt;Node5 -->
<g id="edge4" class="edge"><title>Node1&#45;&gt;Node5</title>
<path fill="none" stroke="midnightblue" d="M125.75,-50.8148C111.481,-40.245 94.7455,-27.8485 83.7862,-19.7305"/>
<polygon fill="midnightblue" stroke="midnightblue" points="123.685,-53.641 133.804,-56.7808 127.852,-48.0161 123.685,-53.641"/>
</g>
<!-- Node6 -->
<g id="node6" class="node"><title>Node6</title>
<g id="a_node6"><a xlink:href="class_kuszk_a_p_i_1_1_forms_1_1_radio_box.html" target="_top" xlink:title="KuszkAPI::Forms::RadioBox">
<polygon fill="white" stroke="black" points="163,-0.5 163,-19.5 305,-19.5 305,-0.5 163,-0.5"/>
<text text-anchor="middle" x="234" y="-7.5" font-family="Helvetica,sans-Serif" font-size="10.00">KuszkAPI::Forms::RadioBox</text>
</a>
</g>
</g>
<!-- Node1&#45;&gt;Node6 -->
<g id="edge5" class="edge"><title>Node1&#45;&gt;Node6</title>
<path fill="none" stroke="midnightblue" d="M180.25,-50.8148C194.519,-40.245 211.254,-27.8485 222.214,-19.7305"/>
<polygon fill="midnightblue" stroke="midnightblue" points="178.148,-48.0161 172.196,-56.7808 182.315,-53.641 178.148,-48.0161"/>
</g>
<!-- Node2 -->
<g id="node2" class="node"><title>Node2</title>
<g id="a_node2"><a xlink:href="class_kuszk_a_p_i_1_1_forms_1_1_text_control.html" target="_top" xlink:title="KuszkAPI::Forms::TextControl">
<polygon fill="white" stroke="black" points="78.5,-124.5 78.5,-143.5 227.5,-143.5 227.5,-124.5 78.5,-124.5"/>
<text text-anchor="middle" x="153" y="-131.5" font-family="Helvetica,sans-Serif" font-size="10.00">KuszkAPI::Forms::TextControl</text>
</a>
</g>
</g>
<!-- Node2&#45;&gt;Node1 -->
<g id="edge1" class="edge"><title>Node2&#45;&gt;Node1</title>
<path fill="none" stroke="midnightblue" d="M153,-114.371C153,-105.585 153,-95.2721 153,-87.1408"/>
<polygon fill="midnightblue" stroke="midnightblue" points="149.5,-114.403 153,-124.403 156.5,-114.403 149.5,-114.403"/>
</g>
<!-- Node3 -->
<g id="node3" class="node"><title>Node3</title>
<g id="a_node3"><a xlink:href="class_kuszk_a_p_i_1_1_forms_1_1_control.html" target="_top" xlink:title="KuszkAPI::Forms::Control">
<polygon fill="white" stroke="black" points="87.5,-180.5 87.5,-199.5 218.5,-199.5 218.5,-180.5 87.5,-180.5"/>
<text text-anchor="middle" x="153" y="-187.5" font-family="Helvetica,sans-Serif" font-size="10.00">KuszkAPI::Forms::Control</text>
</a>
</g>
</g>
<!-- Node3&#45;&gt;Node2 -->
<g id="edge2" class="edge"><title>Node3&#45;&gt;Node2</title>
<path fill="none" stroke="midnightblue" d="M153,-169.805C153,-160.91 153,-150.78 153,-143.751"/>
<polygon fill="midnightblue" stroke="midnightblue" points="149.5,-170.083 153,-180.083 156.5,-170.083 149.5,-170.083"/>
</g>
<!-- Node4 -->
<g id="node4" class="node"><title>Node4</title>
<g id="a_node4"><a xlink:href="class_kuszk_a_p_i_1_1_forms_1_1_window.html" target="_top" xlink:title="KuszkAPI::Forms::Window">
<polygon fill="white" stroke="black" points="86,-236.5 86,-255.5 220,-255.5 220,-236.5 86,-236.5"/>
<text text-anchor="middle" x="153" y="-243.5" font-family="Helvetica,sans-Serif" font-size="10.00">KuszkAPI::Forms::Window</text>
</a>
</g>
</g>
<!-- Node4&#45;&gt;Node3 -->
<g id="edge3" class="edge"><title>Node4&#45;&gt;Node3</title>
<path fill="none" stroke="midnightblue" d="M153,-225.805C153,-216.91 153,-206.78 153,-199.751"/>
<polygon fill="midnightblue" stroke="midnightblue" points="149.5,-226.083 153,-236.083 156.5,-226.083 149.5,-226.083"/>
</g>
</g>
</svg>
