<?xml version="1.0" encoding="UTF-8" standalone="no"?>
<!DOCTYPE svg PUBLIC "-//W3C//DTD SVG 1.1//EN"
 "http://www.w3.org/Graphics/SVG/1.1/DTD/svg11.dtd">
<!-- Generated by graphviz version 2.36.0 (20140111.2315)
 -->
<!-- Title: KuszkAPI::Containers::String::Part Pages: 1 -->
<svg width="456pt" height="528pt"
 viewBox="0.00 0.00 456.00 528.00" xmlns="http://www.w3.org/2000/svg" xmlns:xlink="http://www.w3.org/1999/xlink">
<g id="graph0" class="graph" transform="scale(1 1) rotate(0) translate(4 524)">
<title>KuszkAPI::Containers::String::Part</title>
<polygon fill="white" stroke="none" points="-4,4 -4,-524 452,-524 452,4 -4,4"/>
<!-- Node1 -->
<g id="node1" class="node"><title>Node1</title>
<polygon fill="#bfbfbf" stroke="black" points="0.5,-245 0.5,-275 113.5,-275 113.5,-245 0.5,-245"/>
<text text-anchor="start" x="8.5" y="-263" font-family="Helvetica,sans-Serif" font-size="10.00">KuszkAPI::Containers</text>
<text text-anchor="middle" x="57" y="-252" font-family="Helvetica,sans-Serif" font-size="10.00">::String::Part</text>
</g>
<!-- Node2 -->
<g id="node2" class="node"><title>Node2</title>
<g id="a_node2"><a xlink:href="class_kuszk_a_p_i_1_1_containers_1_1_strings.html#aae1e705132390add4e0b03ff36ffb094" target="_top" xlink:title="KuszkAPI::Containers\l::Strings::Add">
<polygon fill="white" stroke="black" points="150.5,-245 150.5,-275 263.5,-275 263.5,-245 150.5,-245"/>
<text text-anchor="start" x="158.5" y="-263" font-family="Helvetica,sans-Serif" font-size="10.00">KuszkAPI::Containers</text>
<text text-anchor="middle" x="207" y="-252" font-family="Helvetica,sans-Serif" font-size="10.00">::Strings::Add</text>
</a>
</g>
</g>
<!-- Node1&#45;&gt;Node2 -->
<g id="edge1" class="edge"><title>Node1&#45;&gt;Node2</title>
<path fill="none" stroke="midnightblue" d="M123.768,-260C132.576,-260 141.542,-260 150.158,-260"/>
<polygon fill="midnightblue" stroke="midnightblue" points="123.531,-256.5 113.531,-260 123.531,-263.5 123.531,-256.5"/>
</g>
<!-- Node3 -->
<g id="node3" class="node"><title>Node3</title>
<g id="a_node3"><a xlink:href="class_kuszk_a_p_i_1_1_core_1_1_console.html#a4117149e814f6819b8e592ba2efcb473" target="_top" xlink:title="KuszkAPI::Core::Console\l::GetLines">
<polygon fill="white" stroke="black" points="310,-490 310,-520 438,-520 438,-490 310,-490"/>
<text text-anchor="start" x="318" y="-508" font-family="Helvetica,sans-Serif" font-size="10.00">KuszkAPI::Core::Console</text>
<text text-anchor="middle" x="374" y="-497" font-family="Helvetica,sans-Serif" font-size="10.00">::GetLines</text>
</a>
</g>
</g>
<!-- Node2&#45;&gt;Node3 -->
<g id="edge2" class="edge"><title>Node2&#45;&gt;Node3</title>
<path fill="none" stroke="midnightblue" d="M211.652,-285.102C219.54,-330.387 242.356,-426.048 300,-480 304.108,-483.845 308.833,-487.101 313.862,-489.858"/>
<polygon fill="midnightblue" stroke="midnightblue" points="215.105,-284.531 210.032,-275.229 208.197,-285.664 215.105,-284.531"/>
</g>
<!-- Node4 -->
<g id="node4" class="node"><title>Node4</title>
<g id="a_node4"><a xlink:href="class_kuszk_a_p_i_1_1_forms_1_1_combo_box.html#a5bb4447a9a712967c01fbed2719cca2d" target="_top" xlink:title="KuszkAPI::Forms::ComboBox\l::GetItems">
<polygon fill="white" stroke="black" points="300,-441 300,-471 448,-471 448,-441 300,-441"/>
<text text-anchor="start" x="308" y="-459" font-family="Helvetica,sans-Serif" font-size="10.00">KuszkAPI::Forms::ComboBox</text>
<text text-anchor="middle" x="374" y="-448" font-family="Helvetica,sans-Serif" font-size="10.00">::GetItems</text>
</a>
</g>
</g>
<!-- Node2&#45;&gt;Node4 -->
<g id="edge3" class="edge"><title>Node2&#45;&gt;Node4</title>
<path fill="none" stroke="midnightblue" d="M215.058,-285.192C226.712,-322.296 253.441,-391.498 300,-431 304.597,-434.9 309.833,-438.201 315.342,-440.994"/>
<polygon fill="midnightblue" stroke="midnightblue" points="218.284,-283.765 212.044,-275.202 211.582,-285.787 218.284,-283.765"/>
</g>
<!-- Node5 -->
<g id="node5" class="node"><title>Node5</title>
<g id="a_node5"><a xlink:href="class_kuszk_a_p_i_1_1_forms_1_1_combo_box.html#acd08c06092a749a67c6c419580ace7e3" target="_top" xlink:title="KuszkAPI::Forms::ComboBox\l::Sort">
<polygon fill="white" stroke="black" points="300,-392 300,-422 448,-422 448,-392 300,-392"/>
<text text-anchor="start" x="308" y="-410" font-family="Helvetica,sans-Serif" font-size="10.00">KuszkAPI::Forms::ComboBox</text>
<text text-anchor="middle" x="374" y="-399" font-family="Helvetica,sans-Serif" font-size="10.00">::Sort</text>
</a>
</g>
</g>
<!-- Node2&#45;&gt;Node5 -->
<g id="edge4" class="edge"><title>Node2&#45;&gt;Node5</title>
<path fill="none" stroke="midnightblue" d="M220.302,-283.98C235.515,-311.384 263.881,-355.814 300,-382 305.314,-385.853 311.269,-389.147 317.424,-391.955"/>
<polygon fill="midnightblue" stroke="midnightblue" points="223.312,-282.188 215.479,-275.054 217.154,-285.516 223.312,-282.188"/>
</g>
<!-- Node6 -->
<g id="node6" class="node"><title>Node6</title>
<g id="a_node6"><a xlink:href="class_kuszk_a_p_i_1_1_forms_1_1_edit_box.html#a79e3ff534b41bd0724e77766b6ddd248" target="_top" xlink:title="KuszkAPI::Forms::EditBox\l::AddLine">
<polygon fill="white" stroke="black" points="307,-343 307,-373 441,-373 441,-343 307,-343"/>
<text text-anchor="start" x="315" y="-361" font-family="Helvetica,sans-Serif" font-size="10.00">KuszkAPI::Forms::EditBox</text>
<text text-anchor="middle" x="374" y="-350" font-family="Helvetica,sans-Serif" font-size="10.00">::AddLine</text>
</a>
</g>
</g>
<!-- Node2&#45;&gt;Node6 -->
<g id="edge5" class="edge"><title>Node2&#45;&gt;Node6</title>
<path fill="none" stroke="midnightblue" d="M231.288,-282.199C248.99,-298.104 274.557,-319.089 300,-333 306.817,-336.727 314.293,-340.049 321.778,-342.958"/>
<polygon fill="midnightblue" stroke="midnightblue" points="233.479,-279.459 223.738,-275.292 228.754,-284.624 233.479,-279.459"/>
</g>
<!-- Node7 -->
<g id="node7" class="node"><title>Node7</title>
<g id="a_node7"><a xlink:href="class_kuszk_a_p_i_1_1_forms_1_1_edit_box.html#ae3e0f39c6a2ffa9ab23af30005b7f0b3" target="_top" xlink:title="KuszkAPI::Forms::EditBox\l::GetLines">
<polygon fill="white" stroke="black" points="307,-294 307,-324 441,-324 441,-294 307,-294"/>
<text text-anchor="start" x="315" y="-312" font-family="Helvetica,sans-Serif" font-size="10.00">KuszkAPI::Forms::EditBox</text>
<text text-anchor="middle" x="374" y="-301" font-family="Helvetica,sans-Serif" font-size="10.00">::GetLines</text>
</a>
</g>
</g>
<!-- Node2&#45;&gt;Node7 -->
<g id="edge6" class="edge"><title>Node2&#45;&gt;Node7</title>
<path fill="none" stroke="midnightblue" d="M268.501,-277.967C286.18,-283.217 305.313,-288.899 322.316,-293.948"/>
<polygon fill="midnightblue" stroke="midnightblue" points="269.434,-274.593 258.852,-275.101 267.442,-281.304 269.434,-274.593"/>
</g>
<!-- Node8 -->
<g id="node8" class="node"><title>Node8</title>
<g id="a_node8"><a xlink:href="class_kuszk_a_p_i_1_1_forms_1_1_list_box.html#a6a28db85058610a3d57cc445cd5ff746" target="_top" xlink:title="KuszkAPI::Forms::ListBox\l::GetItems">
<polygon fill="white" stroke="black" points="307.5,-245 307.5,-275 440.5,-275 440.5,-245 307.5,-245"/>
<text text-anchor="start" x="315.5" y="-263" font-family="Helvetica,sans-Serif" font-size="10.00">KuszkAPI::Forms::ListBox</text>
<text text-anchor="middle" x="374" y="-252" font-family="Helvetica,sans-Serif" font-size="10.00">::GetItems</text>
</a>
</g>
</g>
<!-- Node2&#45;&gt;Node8 -->
<g id="edge7" class="edge"><title>Node2&#45;&gt;Node8</title>
<path fill="none" stroke="midnightblue" d="M274.156,-260C285.048,-260 296.335,-260 307.217,-260"/>
<polygon fill="midnightblue" stroke="midnightblue" points="273.862,-256.5 263.861,-260 273.861,-263.5 273.862,-256.5"/>
</g>
<!-- Node9 -->
<g id="node9" class="node"><title>Node9</title>
<g id="a_node9"><a xlink:href="class_kuszk_a_p_i_1_1_forms_1_1_tab_box.html#a89e58110675f0a2d6f632328fa782d45" target="_top" xlink:title="KuszkAPI::Forms::TabBox\l::GetItems">
<polygon fill="white" stroke="black" points="307.5,-196 307.5,-226 440.5,-226 440.5,-196 307.5,-196"/>
<text text-anchor="start" x="315.5" y="-214" font-family="Helvetica,sans-Serif" font-size="10.00">KuszkAPI::Forms::TabBox</text>
<text text-anchor="middle" x="374" y="-203" font-family="Helvetica,sans-Serif" font-size="10.00">::GetItems</text>
</a>
</g>
</g>
<!-- Node2&#45;&gt;Node9 -->
<g id="edge8" class="edge"><title>Node2&#45;&gt;Node9</title>
<path fill="none" stroke="midnightblue" d="M268.501,-242.033C286.18,-236.783 305.313,-231.101 322.316,-226.052"/>
<polygon fill="midnightblue" stroke="midnightblue" points="267.442,-238.696 258.852,-244.899 269.434,-245.407 267.442,-238.696"/>
</g>
<!-- Node10 -->
<g id="node10" class="node"><title>Node10</title>
<g id="a_node10"><a xlink:href="class_kuszk_a_p_i_1_1_forms_1_1_table_box.html#ab49a3916d6e1f49c4db6809c09b4a201" target="_top" xlink:title="KuszkAPI::Forms::TableBox\l::GetItemStruct">
<polygon fill="white" stroke="black" points="304,-147 304,-177 444,-177 444,-147 304,-147"/>
<text text-anchor="start" x="312" y="-165" font-family="Helvetica,sans-Serif" font-size="10.00">KuszkAPI::Forms::TableBox</text>
<text text-anchor="middle" x="374" y="-154" font-family="Helvetica,sans-Serif" font-size="10.00">::GetItemStruct</text>
</a>
</g>
</g>
<!-- Node2&#45;&gt;Node10 -->
<g id="edge9" class="edge"><title>Node2&#45;&gt;Node10</title>
<path fill="none" stroke="midnightblue" d="M231.288,-237.801C248.99,-221.896 274.557,-200.911 300,-187 306.817,-183.273 314.293,-179.951 321.778,-177.042"/>
<polygon fill="midnightblue" stroke="midnightblue" points="228.754,-235.376 223.738,-244.708 233.479,-240.541 228.754,-235.376"/>
</g>
<!-- Node11 -->
<g id="node11" class="node"><title>Node11</title>
<g id="a_node11"><a xlink:href="class_kuszk_a_p_i_1_1_forms_1_1_table_box.html#afe16920a713ba1cfad66443cc9bf8030" target="_top" xlink:title="KuszkAPI::Forms::TableBox\l::GetItems">
<polygon fill="white" stroke="black" points="304,-98 304,-128 444,-128 444,-98 304,-98"/>
<text text-anchor="start" x="312" y="-116" font-family="Helvetica,sans-Serif" font-size="10.00">KuszkAPI::Forms::TableBox</text>
<text text-anchor="middle" x="374" y="-105" font-family="Helvetica,sans-Serif" font-size="10.00">::GetItems</text>
</a>
</g>
</g>
<!-- Node2&#45;&gt;Node11 -->
<g id="edge10" class="edge"><title>Node2&#45;&gt;Node11</title>
<path fill="none" stroke="midnightblue" d="M220.302,-236.02C235.515,-208.616 263.881,-164.186 300,-138 305.314,-134.147 311.269,-130.853 317.424,-128.045"/>
<polygon fill="midnightblue" stroke="midnightblue" points="217.154,-234.484 215.479,-244.946 223.312,-237.812 217.154,-234.484"/>
</g>
<!-- Node12 -->
<g id="node12" class="node"><title>Node12</title>
<g id="a_node12"><a xlink:href="class_kuszk_a_p_i_1_1_forms_1_1_table_box.html#a591dd077c40df16ef559706357fc5ba5" target="_top" xlink:title="KuszkAPI::Forms::TableBox\l::GetColumn">
<polygon fill="white" stroke="black" points="304,-49 304,-79 444,-79 444,-49 304,-49"/>
<text text-anchor="start" x="312" y="-67" font-family="Helvetica,sans-Serif" font-size="10.00">KuszkAPI::Forms::TableBox</text>
<text text-anchor="middle" x="374" y="-56" font-family="Helvetica,sans-Serif" font-size="10.00">::GetColumn</text>
</a>
</g>
</g>
<!-- Node2&#45;&gt;Node12 -->
<g id="edge11" class="edge"><title>Node2&#45;&gt;Node12</title>
<path fill="none" stroke="midnightblue" d="M215.058,-234.808C226.712,-197.704 253.441,-128.502 300,-89 304.597,-85.1 309.833,-81.7986 315.342,-79.0059"/>
<polygon fill="midnightblue" stroke="midnightblue" points="211.582,-234.213 212.044,-244.798 218.284,-236.235 211.582,-234.213"/>
</g>
<!-- Node13 -->
<g id="node13" class="node"><title>Node13</title>
<g id="a_node13"><a xlink:href="class_kuszk_a_p_i_1_1_forms_1_1_table_box.html#a17a5957c6b5ec94902d7c969f35b149a" target="_top" xlink:title="KuszkAPI::Forms::TableBox\l::Sort">
<polygon fill="white" stroke="black" points="304,-0 304,-30 444,-30 444,-0 304,-0"/>
<text text-anchor="start" x="312" y="-18" font-family="Helvetica,sans-Serif" font-size="10.00">KuszkAPI::Forms::TableBox</text>
<text text-anchor="middle" x="374" y="-7" font-family="Helvetica,sans-Serif" font-size="10.00">::Sort</text>
</a>
</g>
</g>
<!-- Node2&#45;&gt;Node13 -->
<g id="edge12" class="edge"><title>Node2&#45;&gt;Node13</title>
<path fill="none" stroke="midnightblue" d="M211.652,-234.898C219.54,-189.613 242.356,-93.9523 300,-40 304.108,-36.1552 308.833,-32.8991 313.862,-30.142"/>
<polygon fill="midnightblue" stroke="midnightblue" points="208.197,-234.336 210.032,-244.771 215.105,-235.469 208.197,-234.336"/>
</g>
</g>
</svg>
