<?xml version="1.0" encoding="UTF-8" standalone="no"?>
<!DOCTYPE svg PUBLIC "-//W3C//DTD SVG 1.1//EN"
 "http://www.w3.org/Graphics/SVG/1.1/DTD/svg11.dtd">
<!-- Generated by graphviz version 2.36.0 (20140111.2315)
 -->
<!-- Title: KuszkAPI::Containers::Strings::Capacity Pages: 1 -->
<svg width="306pt" height="773pt"
 viewBox="0.00 0.00 306.00 773.00" xmlns="http://www.w3.org/2000/svg" xmlns:xlink="http://www.w3.org/1999/xlink">
<g id="graph0" class="graph" transform="scale(1 1) rotate(0) translate(4 769)">
<title>KuszkAPI::Containers::Strings::Capacity</title>
<polygon fill="white" stroke="none" points="-4,4 -4,-769 302,-769 302,4 -4,4"/>
<!-- Node1 -->
<g id="node1" class="node"><title>Node1</title>
<polygon fill="#bfbfbf" stroke="black" points="0.5,-367 0.5,-397 113.5,-397 113.5,-367 0.5,-367"/>
<text text-anchor="start" x="8.5" y="-385" font-family="Helvetica,sans-Serif" font-size="10.00">KuszkAPI::Containers</text>
<text text-anchor="middle" x="57" y="-374" font-family="Helvetica,sans-Serif" font-size="10.00">::Strings::Capacity</text>
</g>
<!-- Node2 -->
<g id="node2" class="node"><title>Node2</title>
<g id="a_node2"><a xlink:href="class_kuszk_a_p_i_1_1_forms_1_1_table_box.html#af7c0e9f55441b5072e99843bf6a8bcc5" target="_top" xlink:title="KuszkAPI::Forms::TableBox\l::AddGroups">
<polygon fill="white" stroke="black" points="154,-735 154,-765 294,-765 294,-735 154,-735"/>
<text text-anchor="start" x="162" y="-753" font-family="Helvetica,sans-Serif" font-size="10.00">KuszkAPI::Forms::TableBox</text>
<text text-anchor="middle" x="224" y="-742" font-family="Helvetica,sans-Serif" font-size="10.00">::AddGroups</text>
</a>
</g>
</g>
<!-- Node1&#45;&gt;Node2 -->
<g id="edge1" class="edge"><title>Node1&#45;&gt;Node2</title>
<path fill="none" stroke="midnightblue" d="M57.2191,-407.114C56.6791,-469.476 64.0349,-632.991 150,-725 153.567,-728.818 157.741,-732.052 162.255,-734.793"/>
<polygon fill="midnightblue" stroke="midnightblue" points="60.7203,-407.069 57.3865,-397.012 53.7212,-406.953 60.7203,-407.069"/>
</g>
<!-- Node3 -->
<g id="node3" class="node"><title>Node3</title>
<g id="a_node3"><a xlink:href="class_kuszk_a_p_i_1_1_forms_1_1_list_box.html#a634049136f0fd56323f2c3077a1917f1" target="_top" xlink:title="KuszkAPI::Forms::ListBox\l::AddItems">
<polygon fill="white" stroke="black" points="157.5,-686 157.5,-716 290.5,-716 290.5,-686 157.5,-686"/>
<text text-anchor="start" x="165.5" y="-704" font-family="Helvetica,sans-Serif" font-size="10.00">KuszkAPI::Forms::ListBox</text>
<text text-anchor="middle" x="224" y="-693" font-family="Helvetica,sans-Serif" font-size="10.00">::AddItems</text>
</a>
</g>
</g>
<!-- Node1&#45;&gt;Node3 -->
<g id="edge2" class="edge"><title>Node1&#45;&gt;Node3</title>
<path fill="none" stroke="midnightblue" d="M58.5814,-407.311C61.2459,-463.454 75.4966,-599.482 150,-676 153.738,-679.839 158.09,-683.089 162.773,-685.84"/>
<polygon fill="midnightblue" stroke="midnightblue" points="62.0738,-407.046 58.1885,-397.19 55.0791,-407.318 62.0738,-407.046"/>
</g>
<!-- Node4 -->
<g id="node4" class="node"><title>Node4</title>
<g id="a_node4"><a xlink:href="class_kuszk_a_p_i_1_1_forms_1_1_combo_box.html#a2769b6f0bc66d3518644212a78ea438c" target="_top" xlink:title="KuszkAPI::Forms::ComboBox\l::AddItems">
<polygon fill="white" stroke="black" points="150,-637 150,-667 298,-667 298,-637 150,-637"/>
<text text-anchor="start" x="158" y="-655" font-family="Helvetica,sans-Serif" font-size="10.00">KuszkAPI::Forms::ComboBox</text>
<text text-anchor="middle" x="224" y="-644" font-family="Helvetica,sans-Serif" font-size="10.00">::AddItems</text>
</a>
</g>
</g>
<!-- Node1&#45;&gt;Node4 -->
<g id="edge3" class="edge"><title>Node1&#45;&gt;Node4</title>
<path fill="none" stroke="midnightblue" d="M60.4197,-407.114C66.4747,-456.214 86.6684,-565.496 150,-627 153.94,-630.826 158.491,-634.069 163.355,-636.815"/>
<polygon fill="midnightblue" stroke="midnightblue" points="63.8832,-406.593 59.276,-397.052 56.928,-407.384 63.8832,-406.593"/>
</g>
<!-- Node5 -->
<g id="node5" class="node"><title>Node5</title>
<g id="a_node5"><a xlink:href="class_kuszk_a_p_i_1_1_forms_1_1_table_box.html#aa62710800c2e8e8e7729c80b02f38d1a" target="_top" xlink:title="KuszkAPI::Forms::TableBox\l::AddItems">
<polygon fill="white" stroke="black" points="154,-588 154,-618 294,-618 294,-588 154,-588"/>
<text text-anchor="start" x="162" y="-606" font-family="Helvetica,sans-Serif" font-size="10.00">KuszkAPI::Forms::TableBox</text>
<text text-anchor="middle" x="224" y="-595" font-family="Helvetica,sans-Serif" font-size="10.00">::AddItems</text>
</a>
</g>
</g>
<!-- Node1&#45;&gt;Node5 -->
<g id="edge4" class="edge"><title>Node1&#45;&gt;Node5</title>
<path fill="none" stroke="midnightblue" d="M63.0812,-406.984C72.766,-448.348 97.7351,-531.139 150,-578 154.289,-581.845 159.197,-585.104 164.394,-587.865"/>
<polygon fill="midnightblue" stroke="midnightblue" points="66.4861,-406.171 60.8916,-397.174 59.6542,-407.696 66.4861,-406.171"/>
</g>
<!-- Node6 -->
<g id="node6" class="node"><title>Node6</title>
<g id="a_node6"><a xlink:href="class_kuszk_a_p_i_1_1_forms_1_1_tab_box.html#a35fbc304ecd7692c82d5d9507d50c8d1" target="_top" xlink:title="KuszkAPI::Forms::TabBox\l::AddItems">
<polygon fill="white" stroke="black" points="157.5,-539 157.5,-569 290.5,-569 290.5,-539 157.5,-539"/>
<text text-anchor="start" x="165.5" y="-557" font-family="Helvetica,sans-Serif" font-size="10.00">KuszkAPI::Forms::TabBox</text>
<text text-anchor="middle" x="224" y="-546" font-family="Helvetica,sans-Serif" font-size="10.00">::AddItems</text>
</a>
</g>
</g>
<!-- Node1&#45;&gt;Node6 -->
<g id="edge5" class="edge"><title>Node1&#45;&gt;Node6</title>
<path fill="none" stroke="midnightblue" d="M67.3944,-406.97C80.8734,-439.547 108.715,-496.24 150,-529 154.827,-532.83 160.277,-536.091 165.969,-538.864"/>
<polygon fill="midnightblue" stroke="midnightblue" points="70.4898,-405.285 63.524,-397.302 63.9912,-407.886 70.4898,-405.285"/>
</g>
<!-- Node7 -->
<g id="node7" class="node"><title>Node7</title>
<g id="a_node7"><a xlink:href="class_kuszk_a_p_i_1_1_forms_1_1_bitmap.html#a7e210e4a89e10c8584badb55acb09016" target="_top" xlink:title="KuszkAPI::Forms::Bitmap\l::Bitmap">
<polygon fill="white" stroke="black" points="158.5,-490 158.5,-520 289.5,-520 289.5,-490 158.5,-490"/>
<text text-anchor="start" x="166.5" y="-508" font-family="Helvetica,sans-Serif" font-size="10.00">KuszkAPI::Forms::Bitmap</text>
<text text-anchor="middle" x="224" y="-497" font-family="Helvetica,sans-Serif" font-size="10.00">::Bitmap</text>
</a>
</g>
</g>
<!-- Node1&#45;&gt;Node7 -->
<g id="edge6" class="edge"><title>Node1&#45;&gt;Node7</title>
<path fill="none" stroke="midnightblue" d="M74.4999,-405.284C91.2333,-427.344 119.022,-459.993 150,-480 155.852,-483.779 162.338,-487.055 168.96,-489.875"/>
<polygon fill="midnightblue" stroke="midnightblue" points="77.2077,-403.06 68.439,-397.114 71.5856,-407.23 77.2077,-403.06"/>
</g>
<!-- Node8 -->
<g id="node8" class="node"><title>Node8</title>
<g id="a_node8"><a xlink:href="class_kuszk_a_p_i_1_1_forms_1_1_images.html#a5413a538fb11b647530851521b6f9c48" target="_top" xlink:title="KuszkAPI::Forms::Images\l::Create">
<polygon fill="white" stroke="black" points="158.5,-441 158.5,-471 289.5,-471 289.5,-441 158.5,-441"/>
<text text-anchor="start" x="166.5" y="-459" font-family="Helvetica,sans-Serif" font-size="10.00">KuszkAPI::Forms::Images</text>
<text text-anchor="middle" x="224" y="-448" font-family="Helvetica,sans-Serif" font-size="10.00">::Create</text>
</a>
</g>
</g>
<!-- Node1&#45;&gt;Node8 -->
<g id="edge7" class="edge"><title>Node1&#45;&gt;Node8</title>
<path fill="none" stroke="midnightblue" d="M92.6163,-402.124C109.593,-411.554 130.533,-422.546 150,-431 158.11,-434.522 166.89,-437.889 175.456,-440.948"/>
<polygon fill="midnightblue" stroke="midnightblue" points="94.0592,-398.92 83.6269,-397.071 90.6294,-405.022 94.0592,-398.92"/>
</g>
<!-- Node9 -->
<g id="node9" class="node"><title>Node9</title>
<g id="a_node9"><a xlink:href="class_kuszk_a_p_i_1_1_forms_1_1_cursor.html#a2d00aacc319f953ffd32d02bc80ba57e" target="_top" xlink:title="KuszkAPI::Forms::Cursor\l::Cursor">
<polygon fill="white" stroke="black" points="160,-392 160,-422 288,-422 288,-392 160,-392"/>
<text text-anchor="start" x="168" y="-410" font-family="Helvetica,sans-Serif" font-size="10.00">KuszkAPI::Forms::Cursor</text>
<text text-anchor="middle" x="224" y="-399" font-family="Helvetica,sans-Serif" font-size="10.00">::Cursor</text>
</a>
</g>
</g>
<!-- Node1&#45;&gt;Node9 -->
<g id="edge8" class="edge"><title>Node1&#45;&gt;Node9</title>
<path fill="none" stroke="midnightblue" d="M124.073,-392.011C135.858,-393.797 148.109,-395.653 159.811,-397.426"/>
<polygon fill="midnightblue" stroke="midnightblue" points="124.273,-388.501 113.861,-390.464 123.224,-395.423 124.273,-388.501"/>
</g>
<!-- Node10 -->
<g id="node10" class="node"><title>Node10</title>
<g id="a_node10"><a xlink:href="class_kuszk_a_p_i_1_1_core_1_1_script.html#abf5addecd4187fb491bb7b561eca1d49" target="_top" xlink:title="KuszkAPI::Core::Script\l::GetQuotes">
<polygon fill="white" stroke="black" points="165,-343 165,-373 283,-373 283,-343 165,-343"/>
<text text-anchor="start" x="173" y="-361" font-family="Helvetica,sans-Serif" font-size="10.00">KuszkAPI::Core::Script</text>
<text text-anchor="middle" x="224" y="-350" font-family="Helvetica,sans-Serif" font-size="10.00">::GetQuotes</text>
</a>
</g>
</g>
<!-- Node1&#45;&gt;Node10 -->
<g id="edge9" class="edge"><title>Node1&#45;&gt;Node10</title>
<path fill="none" stroke="midnightblue" d="M124.059,-372.391C137.584,-370.424 151.724,-368.367 164.943,-366.445"/>
<polygon fill="midnightblue" stroke="midnightblue" points="123.254,-368.972 113.861,-373.875 124.261,-375.899 123.254,-368.972"/>
</g>
<!-- Node11 -->
<g id="node11" class="node"><title>Node11</title>
<g id="a_node11"><a xlink:href="class_kuszk_a_p_i_1_1_forms_1_1_icon.html#ae53ce4eadfe59d71d791b2a306c58e38" target="_top" xlink:title="KuszkAPI::Forms::Icon\l::Icon">
<polygon fill="white" stroke="black" points="165,-294 165,-324 283,-324 283,-294 165,-294"/>
<text text-anchor="start" x="173" y="-312" font-family="Helvetica,sans-Serif" font-size="10.00">KuszkAPI::Forms::Icon</text>
<text text-anchor="middle" x="224" y="-301" font-family="Helvetica,sans-Serif" font-size="10.00">::Icon</text>
</a>
</g>
</g>
<!-- Node1&#45;&gt;Node11 -->
<g id="edge10" class="edge"><title>Node1&#45;&gt;Node11</title>
<path fill="none" stroke="midnightblue" d="M93.3973,-361.934C110.251,-352.796 130.863,-342.213 150,-334 158.125,-330.513 166.912,-327.162 175.481,-324.109"/>
<polygon fill="midnightblue" stroke="midnightblue" points="91.5398,-358.96 84.4541,-366.837 94.9053,-365.098 91.5398,-358.96"/>
</g>
<!-- Node12 -->
<g id="node12" class="node"><title>Node12</title>
<g id="a_node12"><a xlink:href="class_kuszk_a_p_i_1_1_core_1_1_reg.html#a0b1bba511ac0b7d6377694d5a78d3ad8" target="_top" xlink:title="KuszkAPI::Core::Reg\l::Open">
<polygon fill="white" stroke="black" points="169,-245 169,-275 279,-275 279,-245 169,-245"/>
<text text-anchor="start" x="177" y="-263" font-family="Helvetica,sans-Serif" font-size="10.00">KuszkAPI::Core::Reg</text>
<text text-anchor="middle" x="224" y="-252" font-family="Helvetica,sans-Serif" font-size="10.00">::Open</text>
</a>
</g>
</g>
<!-- Node1&#45;&gt;Node12 -->
<g id="edge11" class="edge"><title>Node1&#45;&gt;Node12</title>
<path fill="none" stroke="midnightblue" d="M74.8333,-358.594C91.6336,-336.771 119.311,-304.709 150,-285 155.861,-281.236 162.353,-277.969 168.978,-275.153"/>
<polygon fill="midnightblue" stroke="midnightblue" points="71.956,-356.596 68.7364,-366.69 77.5478,-360.807 71.956,-356.596"/>
</g>
<!-- Node13 -->
<g id="node13" class="node"><title>Node13</title>
<g id="a_node13"><a xlink:href="class_kuszk_a_p_i_1_1_forms_1_1_region.html#ac1722eaf3c05a8b34ac4483a33f9bdc8" target="_top" xlink:title="KuszkAPI::Forms::Region\l::Region">
<polygon fill="white" stroke="black" points="159,-196 159,-226 289,-226 289,-196 159,-196"/>
<text text-anchor="start" x="167" y="-214" font-family="Helvetica,sans-Serif" font-size="10.00">KuszkAPI::Forms::Region</text>
<text text-anchor="middle" x="224" y="-203" font-family="Helvetica,sans-Serif" font-size="10.00">::Region</text>
</a>
</g>
</g>
<!-- Node1&#45;&gt;Node13 -->
<g id="edge12" class="edge"><title>Node1&#45;&gt;Node13</title>
<path fill="none" stroke="midnightblue" d="M67.4399,-357.199C80.9693,-324.844 108.866,-268.537 150,-236 154.833,-232.177 160.286,-228.921 165.981,-226.151"/>
<polygon fill="midnightblue" stroke="midnightblue" points="64.0608,-356.219 63.5535,-366.802 70.5495,-358.846 64.0608,-356.219"/>
</g>
<!-- Node14 -->
<g id="node14" class="node"><title>Node14</title>
<g id="a_node14"><a xlink:href="class_kuszk_a_p_i_1_1_forms_1_1_table_box.html#a114261299700e4eefafb194d3d4f4096" target="_top" xlink:title="KuszkAPI::Forms::TableBox\l::SetColumn">
<polygon fill="white" stroke="black" points="154,-147 154,-177 294,-177 294,-147 154,-147"/>
<text text-anchor="start" x="162" y="-165" font-family="Helvetica,sans-Serif" font-size="10.00">KuszkAPI::Forms::TableBox</text>
<text text-anchor="middle" x="224" y="-154" font-family="Helvetica,sans-Serif" font-size="10.00">::SetColumn</text>
</a>
</g>
</g>
<!-- Node1&#45;&gt;Node14 -->
<g id="edge13" class="edge"><title>Node1&#45;&gt;Node14</title>
<path fill="none" stroke="midnightblue" d="M63.1191,-357.142C72.8593,-315.986 97.9076,-233.614 150,-187 154.293,-183.159 159.203,-179.903 164.402,-177.143"/>
<polygon fill="midnightblue" stroke="midnightblue" points="59.7038,-356.377 60.9157,-366.902 66.532,-357.918 59.7038,-356.377"/>
</g>
<!-- Node15 -->
<g id="node15" class="node"><title>Node15</title>
<g id="a_node15"><a xlink:href="class_kuszk_a_p_i_1_1_forms_1_1_table_box.html#acd578a3280ed91936761e9e64d47cd3d" target="_top" xlink:title="KuszkAPI::Forms::TableBox\l::SetHeader">
<polygon fill="white" stroke="black" points="154,-98 154,-128 294,-128 294,-98 154,-98"/>
<text text-anchor="start" x="162" y="-116" font-family="Helvetica,sans-Serif" font-size="10.00">KuszkAPI::Forms::TableBox</text>
<text text-anchor="middle" x="224" y="-105" font-family="Helvetica,sans-Serif" font-size="10.00">::SetHeader</text>
</a>
</g>
</g>
<!-- Node1&#45;&gt;Node15 -->
<g id="edge14" class="edge"><title>Node1&#45;&gt;Node15</title>
<path fill="none" stroke="midnightblue" d="M60.4961,-356.635C66.6613,-307.563 87.0047,-199.095 150,-138 153.943,-134.176 158.495,-130.936 163.36,-128.19"/>
<polygon fill="midnightblue" stroke="midnightblue" points="57.0038,-356.367 59.3282,-366.704 63.9572,-357.174 57.0038,-356.367"/>
</g>
<!-- Node16 -->
<g id="node16" class="node"><title>Node16</title>
<g id="a_node16"><a xlink:href="class_kuszk_a_p_i_1_1_forms_1_1_table_box.html#a3129583999a67273404ea16ecbf9a2bd" target="_top" xlink:title="KuszkAPI::Forms::TableBox\l::SetItemData">
<polygon fill="white" stroke="black" points="154,-49 154,-79 294,-79 294,-49 154,-49"/>
<text text-anchor="start" x="162" y="-67" font-family="Helvetica,sans-Serif" font-size="10.00">KuszkAPI::Forms::TableBox</text>
<text text-anchor="middle" x="224" y="-56" font-family="Helvetica,sans-Serif" font-size="10.00">::SetItemData</text>
</a>
</g>
</g>
<!-- Node1&#45;&gt;Node16 -->
<g id="edge15" class="edge"><title>Node1&#45;&gt;Node16</title>
<path fill="none" stroke="midnightblue" d="M58.6095,-356.773C61.3311,-300.818 75.6903,-165.245 150,-89 153.74,-85.1626 158.094,-81.914 162.777,-79.164"/>
<polygon fill="midnightblue" stroke="midnightblue" points="55.1085,-356.729 58.206,-366.861 62.1029,-357.009 55.1085,-356.729"/>
</g>
<!-- Node17 -->
<g id="node17" class="node"><title>Node17</title>
<g id="a_node17"><a xlink:href="class_kuszk_a_p_i_1_1_forms_1_1_combo_box.html#aa2b109380bc60c6351419226799d3d43" target="_top" xlink:title="KuszkAPI::Forms::ComboBox\l::SetItems">
<polygon fill="white" stroke="black" points="150,-0 150,-30 298,-30 298,-0 150,-0"/>
<text text-anchor="start" x="158" y="-18" font-family="Helvetica,sans-Serif" font-size="10.00">KuszkAPI::Forms::ComboBox</text>
<text text-anchor="middle" x="224" y="-7" font-family="Helvetica,sans-Serif" font-size="10.00">::SetItems</text>
</a>
</g>
</g>
<!-- Node1&#45;&gt;Node17 -->
<g id="edge16" class="edge"><title>Node1&#45;&gt;Node17</title>
<path fill="none" stroke="midnightblue" d="M57.2405,-356.526C56.7951,-294.02 64.4332,-131.516 150,-40 153.66,-36.0859 157.958,-32.7846 162.606,-30.0002"/>
<polygon fill="midnightblue" stroke="midnightblue" points="53.7429,-356.719 57.393,-366.666 60.7421,-356.614 53.7429,-356.719"/>
</g>
</g>
</svg>
