<?xml version="1.0" encoding="UTF-8" standalone="no"?>
<!DOCTYPE svg PUBLIC "-//W3C//DTD SVG 1.1//EN"
 "http://www.w3.org/Graphics/SVG/1.1/DTD/svg11.dtd">
<!-- Generated by graphviz version 2.36.0 (20140111.2315)
 -->
<!-- Title: KuszkAPI::Forms::CommonDialog::GetLastFont Pages: 1 -->
<svg width="354pt" height="66pt"
 viewBox="0.00 0.00 354.00 66.00" xmlns="http://www.w3.org/2000/svg" xmlns:xlink="http://www.w3.org/1999/xlink">
<g id="graph0" class="graph" transform="scale(1 1) rotate(0) translate(4 62)">
<title>KuszkAPI::Forms::CommonDialog::GetLastFont</title>
<polygon fill="white" stroke="none" points="-4,4 -4,-62 350,-62 350,4 -4,4"/>
<!-- Node1 -->
<g id="node1" class="node"><title>Node1</title>
<polygon fill="#bfbfbf" stroke="black" points="0,-14 0,-44 166,-44 166,-14 0,-14"/>
<text text-anchor="start" x="8" y="-32" font-family="Helvetica,sans-Serif" font-size="10.00">KuszkAPI::Forms::CommonDialog</text>
<text text-anchor="middle" x="83" y="-21" font-family="Helvetica,sans-Serif" font-size="10.00">::GetLastFont</text>
</g>
<!-- Node2 -->
<g id="node2" class="node"><title>Node2</title>
<g id="a_node2"><a xlink:href="class_kuszk_a_p_i_1_1_forms_1_1_font.html#acff3cde8f76e29171cf1d4aad455f642" target="_top" xlink:title="KuszkAPI::Forms::Font::Add">
<polygon fill="white" stroke="black" points="202.5,-38.5 202.5,-57.5 345.5,-57.5 345.5,-38.5 202.5,-38.5"/>
<text text-anchor="middle" x="274" y="-45.5" font-family="Helvetica,sans-Serif" font-size="10.00">KuszkAPI::Forms::Font::Add</text>
</a>
</g>
</g>
<!-- Node1&#45;&gt;Node2 -->
<g id="edge1" class="edge"><title>Node1&#45;&gt;Node2</title>
<path fill="none" stroke="midnightblue" d="M176.292,-38.278C185.021,-39.1555 193.775,-40.0356 202.256,-40.8882"/>
<polygon fill="midnightblue" stroke="midnightblue" points="176.374,-34.7687 166.074,-37.2508 175.673,-41.7336 176.374,-34.7687"/>
</g>
<!-- Node3 -->
<g id="node3" class="node"><title>Node3</title>
<g id="a_node3"><a xlink:href="class_kuszk_a_p_i_1_1_forms_1_1_font.html#a7020f9958ac9e5b43e3d297d7b9bd0d5" target="_top" xlink:title="KuszkAPI::Forms::Font::Set">
<polygon fill="white" stroke="black" points="204,-0.5 204,-19.5 344,-19.5 344,-0.5 204,-0.5"/>
<text text-anchor="middle" x="274" y="-7.5" font-family="Helvetica,sans-Serif" font-size="10.00">KuszkAPI::Forms::Font::Set</text>
</a>
</g>
</g>
<!-- Node1&#45;&gt;Node3 -->
<g id="edge2" class="edge"><title>Node1&#45;&gt;Node3</title>
<path fill="none" stroke="midnightblue" d="M176.122,-19.739C185.409,-18.8054 194.727,-17.8687 203.716,-16.965"/>
<polygon fill="midnightblue" stroke="midnightblue" points="175.673,-16.2664 166.074,-20.7492 176.374,-23.2313 175.673,-16.2664"/>
</g>
</g>
</svg>
