<?xml version="1.0" encoding="UTF-8" standalone="no"?>
<!DOCTYPE svg PUBLIC "-//W3C//DTD SVG 1.1//EN"
 "http://www.w3.org/Graphics/SVG/1.1/DTD/svg11.dtd">
<!-- Generated by graphviz version 2.36.0 (20140111.2315)
 -->
<!-- Title: KuszkAPI::Containers::Box&lt; tnData &gt; Pages: 1 -->
<!--zoomable 1340 -->
<svg id="main" version="1.1" xmlns="http://www.w3.org/2000/svg" xmlns:xlink="http://www.w3.org/1999/xlink" xml:space="preserve" onload="init(evt)">
<style type="text/css"><![CDATA[
.edge:hover path { stroke: red; }
.edge:hover polygon { stroke: red; fill: red; }
]]></style>
<script type="text/javascript"><![CDATA[
var edges = document.getElementsByTagName('g');
if (edges && edges.length) {
  for (var i=0;i<edges.length;i++) {
    if (edges[i].id.substr(0,4)=='edge') {
      edges[i].setAttribute('class','edge');
    }
  }
}
]]></script>
        <defs>
                <circle id="rim" cx="0" cy="0" r="7"/>
                <circle id="rim2" cx="0" cy="0" r="3.5"/>
                <g id="zoomPlus">
                        <use xlink:href="#rim" fill="#404040">
                                <set attributeName="fill" to="#808080" begin="zoomplus.mouseover" end="zoomplus.mouseout"/>
                        </use>
                        <path d="M-4,0h8M0,-4v8" fill="none" stroke="white" stroke-width="1.5" pointer-events="none"/>
                </g>
                <g id="zoomMin">
                        <use xlink:href="#rim" fill="#404040">
                                <set attributeName="fill" to="#808080" begin="zoomminus.mouseover" end="zoomminus.mouseout"/>
                        </use>
                        <path d="M-4,0h8" fill="none" stroke="white" stroke-width="1.5" pointer-events="none"/>
                </g>
                <g id="dirArrow">
                        <path fill="none" stroke="white" stroke-width="1.5" d="M0,-3.0v7 M-2.5,-0.5L0,-3.0L2.5,-0.5"/>
                </g>
               <g id="resetDef">
                       <use xlink:href="#rim2" fill="#404040">
                               <set attributeName="fill" to="#808080" begin="reset.mouseover" end="reset.mouseout"/>
                       </use>
               </g>
        </defs>

<script type="text/javascript">
var viewWidth = 430;
var viewHeight = 1340;
var sectionId = 'dynsection-0';
</script>
<script xlink:href="svgpan.js"/>
<svg id="graph" class="graph">
<g id="viewport">
<title>KuszkAPI::Containers::Box&lt; tnData &gt;</title>
<polygon fill="white" stroke="none" points="-4,4 -4,-1336 426,-1336 426,4 -4,4"/>
<!-- Node1 -->
<g id="node1" class="node"><title>Node1</title>
<polygon fill="#bfbfbf" stroke="black" points="0.5,-646 0.5,-676 113.5,-676 113.5,-646 0.5,-646"/>
<text text-anchor="start" x="8.5" y="-664" font-family="Helvetica,sans-Serif" font-size="10.00">KuszkAPI::Containers</text>
<text text-anchor="middle" x="57" y="-653" font-family="Helvetica,sans-Serif" font-size="10.00">::Box&lt; tnData &gt;</text>
</g>
<!-- Node2 -->
<g id="node2" class="node"><title>Node2</title>
<g id="a_node2"><a xlink:href="class_kuszk_a_p_i_1_1_containers_1_1_box.html" target="_top" xlink:title="KuszkAPI::Containers\l::Box\&lt; KuszkAPI::Forms\l::RadioBox \&gt;">
<polygon fill="white" stroke="black" points="285,-1277.5 285,-1318.5 411,-1318.5 411,-1277.5 285,-1277.5"/>
<text text-anchor="start" x="293" y="-1306.5" font-family="Helvetica,sans-Serif" font-size="10.00">KuszkAPI::Containers</text>
<text text-anchor="start" x="293" y="-1295.5" font-family="Helvetica,sans-Serif" font-size="10.00">::Box&lt; KuszkAPI::Forms</text>
<text text-anchor="middle" x="348" y="-1284.5" font-family="Helvetica,sans-Serif" font-size="10.00">::RadioBox &gt;</text>
</a>
</g>
</g>
<!-- Node1&#45;&gt;Node2 -->
<g id="edge1" class="edge"><title>Node1&#45;&gt;Node2</title>
<path fill="none" stroke="orange" stroke-dasharray="5,2" d="M59.2467,-686.252C64.9142,-796.231 89.8117,-1229.82 132,-1272 171.085,-1311.08 236.175,-1313.85 284.517,-1309.13"/>
<polygon fill="orange" stroke="orange" points="62.7336,-685.904 58.7309,-676.095 55.7426,-686.259 62.7336,-685.904"/>
<text text-anchor="start" x="146" y="-1324" font-family="Helvetica,sans-Serif" font-size="10.00"> &lt; KuszkAPI::Forms::</text>
<text text-anchor="middle" x="194" y="-1313" font-family="Helvetica,sans-Serif" font-size="10.00">RadioBox &gt;</text>
</g>
<!-- Node3 -->
<g id="node3" class="node"><title>Node3</title>
<g id="a_node3"><a xlink:href="class_kuszk_a_p_i_1_1_containers_1_1_box.html" target="_top" xlink:title="KuszkAPI::Containers\l::Box\&lt; CRITICAL_SECTION \&gt;">
<polygon fill="white" stroke="black" points="274.5,-1228 274.5,-1258 421.5,-1258 421.5,-1228 274.5,-1228"/>
<text text-anchor="start" x="282.5" y="-1246" font-family="Helvetica,sans-Serif" font-size="10.00">KuszkAPI::Containers</text>
<text text-anchor="middle" x="348" y="-1235" font-family="Helvetica,sans-Serif" font-size="10.00">::Box&lt; CRITICAL_SECTION &gt;</text>
</a>
</g>
</g>
<!-- Node1&#45;&gt;Node3 -->
<g id="edge2" class="edge"><title>Node1&#45;&gt;Node3</title>
<path fill="none" stroke="orange" stroke-dasharray="5,2" d="M59.5316,-686.464C66.0584,-790.959 93.0098,-1183.14 132,-1221 168.812,-1256.74 227.645,-1260.58 274.469,-1256.39"/>
<polygon fill="orange" stroke="orange" points="63.0088,-685.984 58.8999,-676.219 56.022,-686.415 63.0088,-685.984"/>
<text text-anchor="middle" x="194" y="-1260" font-family="Helvetica,sans-Serif" font-size="10.00"> &lt; CRITICAL_SECTION &gt;</text>
</g>
<!-- Node4 -->
<g id="node4" class="node"><title>Node4</title>
<g id="a_node4"><a xlink:href="class_kuszk_a_p_i_1_1_containers_1_1_box.html" target="_top" xlink:title="KuszkAPI::Containers\l::Box\&lt; KuszkAPI::Forms\l::Calendar \&gt;">
<polygon fill="white" stroke="black" points="285,-1167.5 285,-1208.5 411,-1208.5 411,-1167.5 285,-1167.5"/>
<text text-anchor="start" x="293" y="-1196.5" font-family="Helvetica,sans-Serif" font-size="10.00">KuszkAPI::Containers</text>
<text text-anchor="start" x="293" y="-1185.5" font-family="Helvetica,sans-Serif" font-size="10.00">::Box&lt; KuszkAPI::Forms</text>
<text text-anchor="middle" x="348" y="-1174.5" font-family="Helvetica,sans-Serif" font-size="10.00">::Calendar &gt;</text>
</a>
</g>
</g>
<!-- Node1&#45;&gt;Node4 -->
<g id="edge3" class="edge"><title>Node1&#45;&gt;Node4</title>
<path fill="none" stroke="orange" stroke-dasharray="5,2" d="M57.9421,-686.01C58.2786,-777.345 64.4146,-1091.03 132,-1158 171.354,-1196.99 236.404,-1201.1 284.663,-1197.52"/>
<polygon fill="orange" stroke="orange" points="61.4421,-686 57.926,-676.006 54.4422,-686.011 61.4421,-686"/>
<text text-anchor="start" x="146" y="-1212" font-family="Helvetica,sans-Serif" font-size="10.00"> &lt; KuszkAPI::Forms::</text>
<text text-anchor="middle" x="194" y="-1201" font-family="Helvetica,sans-Serif" font-size="10.00">Calendar &gt;</text>
</g>
<!-- Node5 -->
<g id="node5" class="node"><title>Node5</title>
<g id="a_node5"><a xlink:href="class_kuszk_a_p_i_1_1_containers_1_1_box.html" target="_top" xlink:title="KuszkAPI::Containers\l::Box\&lt; HINSTANCE \&gt;">
<polygon fill="white" stroke="black" points="291.5,-1118 291.5,-1148 404.5,-1148 404.5,-1118 291.5,-1118"/>
<text text-anchor="start" x="299.5" y="-1136" font-family="Helvetica,sans-Serif" font-size="10.00">KuszkAPI::Containers</text>
<text text-anchor="middle" x="348" y="-1125" font-family="Helvetica,sans-Serif" font-size="10.00">::Box&lt; HINSTANCE &gt;</text>
</a>
</g>
</g>
<!-- Node1&#45;&gt;Node5 -->
<g id="edge4" class="edge"><title>Node1&#45;&gt;Node5</title>
<path fill="none" stroke="orange" stroke-dasharray="5,2" d="M58.4575,-686.236C60.5464,-771.159 71.9041,-1044.52 132,-1103 173.46,-1143.35 242.5,-1146.09 291.139,-1141.83"/>
<polygon fill="orange" stroke="orange" points="61.9557,-686.108 58.233,-676.189 54.9574,-686.265 61.9557,-686.108"/>
<text text-anchor="middle" x="194" y="-1146" font-family="Helvetica,sans-Serif" font-size="10.00"> &lt; HINSTANCE &gt;</text>
</g>
<!-- Node6 -->
<g id="node6" class="node"><title>Node6</title>
<g id="a_node6"><a xlink:href="class_kuszk_a_p_i_1_1_containers_1_1_box.html" target="_top" xlink:title="KuszkAPI::Containers\l::Box\&lt; KuszkAPI::Core\l::Threads::ItemData \&gt;">
<polygon fill="white" stroke="black" points="288.5,-1057.5 288.5,-1098.5 407.5,-1098.5 407.5,-1057.5 288.5,-1057.5"/>
<text text-anchor="start" x="296.5" y="-1086.5" font-family="Helvetica,sans-Serif" font-size="10.00">KuszkAPI::Containers</text>
<text text-anchor="start" x="296.5" y="-1075.5" font-family="Helvetica,sans-Serif" font-size="10.00">::Box&lt; KuszkAPI::Core</text>
<text text-anchor="middle" x="348" y="-1064.5" font-family="Helvetica,sans-Serif" font-size="10.00">::Threads::ItemData &gt;</text>
</a>
</g>
</g>
<!-- Node1&#45;&gt;Node6 -->
<g id="edge5" class="edge"><title>Node1&#45;&gt;Node6</title>
<path fill="none" stroke="orange" stroke-dasharray="5,2" d="M59.0175,-686.712C62.7069,-765.75 78.1453,-1002.83 132,-1053 153.997,-1073.49 232.482,-1078.13 288.252,-1078.73"/>
<polygon fill="orange" stroke="orange" points="62.4928,-686.074 58.5552,-676.238 55.4996,-686.383 62.4928,-686.074"/>
<text text-anchor="start" x="132.5" y="-1091" font-family="Helvetica,sans-Serif" font-size="10.00"> &lt; KuszkAPI::Core::Threads</text>
<text text-anchor="middle" x="194" y="-1080" font-family="Helvetica,sans-Serif" font-size="10.00">::ItemData &gt;</text>
</g>
<!-- Node7 -->
<g id="node7" class="node"><title>Node7</title>
<g id="a_node7"><a xlink:href="class_kuszk_a_p_i_1_1_containers_1_1_box.html" target="_top" xlink:title="KuszkAPI::Containers\l::Box\&lt; KuszkAPI::Sockets\l::Client \&gt;">
<polygon fill="white" stroke="black" points="281,-997.5 281,-1038.5 415,-1038.5 415,-997.5 281,-997.5"/>
<text text-anchor="start" x="289" y="-1026.5" font-family="Helvetica,sans-Serif" font-size="10.00">KuszkAPI::Containers</text>
<text text-anchor="start" x="289" y="-1015.5" font-family="Helvetica,sans-Serif" font-size="10.00">::Box&lt; KuszkAPI::Sockets</text>
<text text-anchor="middle" x="348" y="-1004.5" font-family="Helvetica,sans-Serif" font-size="10.00">::Client &gt;</text>
</a>
</g>
</g>
<!-- Node1&#45;&gt;Node7 -->
<g id="edge6" class="edge"><title>Node1&#45;&gt;Node7</title>
<path fill="none" stroke="orange" stroke-dasharray="5,2" d="M60.0331,-686.113C66.1931,-755.57 87.0498,-947.834 132,-989 171.442,-1025.12 233.279,-1030.09 280.531,-1027.36"/>
<polygon fill="orange" stroke="orange" points="63.5128,-685.725 59.1692,-676.062 56.5385,-686.325 63.5128,-685.725"/>
<text text-anchor="start" x="145" y="-1041" font-family="Helvetica,sans-Serif" font-size="10.00"> &lt; KuszkAPI::Sockets</text>
<text text-anchor="middle" x="194" y="-1030" font-family="Helvetica,sans-Serif" font-size="10.00">::Client &gt;</text>
</g>
<!-- Node8 -->
<g id="node8" class="node"><title>Node8</title>
<g id="a_node8"><a xlink:href="class_kuszk_a_p_i_1_1_containers_1_1_box.html" target="_top" xlink:title="KuszkAPI::Containers\l::Box\&lt; HANDLE \&gt;">
<polygon fill="white" stroke="black" points="291.5,-948 291.5,-978 404.5,-978 404.5,-948 291.5,-948"/>
<text text-anchor="start" x="299.5" y="-966" font-family="Helvetica,sans-Serif" font-size="10.00">KuszkAPI::Containers</text>
<text text-anchor="middle" x="348" y="-955" font-family="Helvetica,sans-Serif" font-size="10.00">::Box&lt; HANDLE &gt;</text>
</a>
</g>
</g>
<!-- Node1&#45;&gt;Node8 -->
<g id="edge7" class="edge"><title>Node1&#45;&gt;Node8</title>
<path fill="none" stroke="orange" stroke-dasharray="5,2" d="M61.1359,-686.318C69.3479,-748.251 93.5428,-904.76 132,-938 175.356,-975.474 243.353,-977.172 291.248,-972.421"/>
<polygon fill="orange" stroke="orange" points="64.5852,-685.7 59.83,-676.232 57.6432,-686.599 64.5852,-685.7"/>
<text text-anchor="middle" x="194" y="-977" font-family="Helvetica,sans-Serif" font-size="10.00"> &lt; HANDLE &gt;</text>
</g>
<!-- Node9 -->
<g id="node9" class="node"><title>Node9</title>
<g id="a_node9"><a xlink:href="class_kuszk_a_p_i_1_1_containers_1_1_box.html" target="_top" xlink:title="KuszkAPI::Containers\l::Box\&lt; HBITMAP \&gt;">
<polygon fill="white" stroke="black" points="291.5,-899 291.5,-929 404.5,-929 404.5,-899 291.5,-899"/>
<text text-anchor="start" x="299.5" y="-917" font-family="Helvetica,sans-Serif" font-size="10.00">KuszkAPI::Containers</text>
<text text-anchor="middle" x="348" y="-906" font-family="Helvetica,sans-Serif" font-size="10.00">::Box&lt; HBITMAP &gt;</text>
</a>
</g>
</g>
<!-- Node1&#45;&gt;Node9 -->
<g id="edge8" class="edge"><title>Node1&#45;&gt;Node9</title>
<path fill="none" stroke="orange" stroke-dasharray="5,2" d="M58.1418,-686.302C59.8961,-733.676 70.9945,-835.519 132,-886 176.08,-922.476 243.611,-925.508 291.205,-921.951"/>
<polygon fill="orange" stroke="orange" points="61.6333,-685.921 57.8791,-676.013 54.6355,-686.099 61.6333,-685.921"/>
<text text-anchor="middle" x="194" y="-926" font-family="Helvetica,sans-Serif" font-size="10.00"> &lt; HBITMAP &gt;</text>
</g>
<!-- Node10 -->
<g id="node10" class="node"><title>Node10</title>
<g id="a_node10"><a xlink:href="class_kuszk_a_p_i_1_1_containers_1_1_box.html" target="_top" xlink:title="KuszkAPI::Containers\l::Box\&lt; KuszkAPI::Forms\l::TabBox \&gt;">
<polygon fill="white" stroke="black" points="285,-838.5 285,-879.5 411,-879.5 411,-838.5 285,-838.5"/>
<text text-anchor="start" x="293" y="-867.5" font-family="Helvetica,sans-Serif" font-size="10.00">KuszkAPI::Containers</text>
<text text-anchor="start" x="293" y="-856.5" font-family="Helvetica,sans-Serif" font-size="10.00">::Box&lt; KuszkAPI::Forms</text>
<text text-anchor="middle" x="348" y="-845.5" font-family="Helvetica,sans-Serif" font-size="10.00">::TabBox &gt;</text>
</a>
</g>
</g>
<!-- Node1&#45;&gt;Node10 -->
<g id="edge9" class="edge"><title>Node1&#45;&gt;Node10</title>
<path fill="none" stroke="orange" stroke-dasharray="5,2" d="M62.5472,-686.376C70.2765,-721.696 89.4809,-785.042 132,-818 175.398,-851.639 238.304,-860.365 284.869,-861.586"/>
<polygon fill="orange" stroke="orange" points="65.9356,-685.475 60.5038,-676.379 59.0774,-686.877 65.9356,-685.475"/>
<text text-anchor="start" x="146" y="-874" font-family="Helvetica,sans-Serif" font-size="10.00"> &lt; KuszkAPI::Forms::</text>
<text text-anchor="middle" x="194" y="-863" font-family="Helvetica,sans-Serif" font-size="10.00">TabBox &gt;</text>
</g>
<!-- Node11 -->
<g id="node11" class="node"><title>Node11</title>
<g id="a_node11"><a xlink:href="class_kuszk_a_p_i_1_1_containers_1_1_box.html" target="_top" xlink:title="KuszkAPI::Containers\l::Box\&lt; KuszkAPI::Forms\l::CheckBox \&gt;">
<polygon fill="white" stroke="black" points="285,-778.5 285,-819.5 411,-819.5 411,-778.5 285,-778.5"/>
<text text-anchor="start" x="293" y="-807.5" font-family="Helvetica,sans-Serif" font-size="10.00">KuszkAPI::Containers</text>
<text text-anchor="start" x="293" y="-796.5" font-family="Helvetica,sans-Serif" font-size="10.00">::Box&lt; KuszkAPI::Forms</text>
<text text-anchor="middle" x="348" y="-785.5" font-family="Helvetica,sans-Serif" font-size="10.00">::CheckBox &gt;</text>
</a>
</g>
</g>
<!-- Node1&#45;&gt;Node11 -->
<g id="edge10" class="edge"><title>Node1&#45;&gt;Node11</title>
<path fill="none" stroke="orange" stroke-dasharray="5,2" d="M71.6689,-684.967C84.5888,-705.406 105.863,-733.953 132,-750 178.328,-778.443 239.411,-790.409 284.627,-795.425"/>
<polygon fill="orange" stroke="orange" points="74.5291,-682.935 66.3332,-676.221 68.5533,-686.58 74.5291,-682.935"/>
<text text-anchor="start" x="146" y="-806" font-family="Helvetica,sans-Serif" font-size="10.00"> &lt; KuszkAPI::Forms::</text>
<text text-anchor="middle" x="194" y="-795" font-family="Helvetica,sans-Serif" font-size="10.00">CheckBox &gt;</text>
</g>
<!-- Node12 -->
<g id="node12" class="node"><title>Node12</title>
<g id="a_node12"><a xlink:href="class_kuszk_a_p_i_1_1_containers_1_1_box.html" target="_top" xlink:title="KuszkAPI::Containers\l::Box\&lt; HRGN \&gt;">
<polygon fill="white" stroke="black" points="291.5,-729 291.5,-759 404.5,-759 404.5,-729 291.5,-729"/>
<text text-anchor="start" x="299.5" y="-747" font-family="Helvetica,sans-Serif" font-size="10.00">KuszkAPI::Containers</text>
<text text-anchor="middle" x="348" y="-736" font-family="Helvetica,sans-Serif" font-size="10.00">::Box&lt; HRGN &gt;</text>
</a>
</g>
</g>
<!-- Node1&#45;&gt;Node12 -->
<g id="edge11" class="edge"><title>Node1&#45;&gt;Node12</title>
<path fill="none" stroke="orange" stroke-dasharray="5,2" d="M86.9003,-682.027C100.073,-690.68 116.225,-700.051 132,-706 183.958,-725.596 246.859,-735.208 291.162,-739.846"/>
<polygon fill="orange" stroke="orange" points="88.5406,-678.911 78.2979,-676.202 84.6155,-684.707 88.5406,-678.911"/>
<text text-anchor="middle" x="194" y="-738" font-family="Helvetica,sans-Serif" font-size="10.00"> &lt; HRGN &gt;</text>
</g>
<!-- Node13 -->
<g id="node13" class="node"><title>Node13</title>
<g id="a_node13"><a xlink:href="class_kuszk_a_p_i_1_1_containers_1_1_box.html" target="_top" xlink:title="KuszkAPI::Containers\l::Box\&lt; KuszkAPI::Forms\l::RadioBox::ItemData \&gt;">
<polygon fill="white" stroke="black" points="285,-668.5 285,-709.5 411,-709.5 411,-668.5 285,-668.5"/>
<text text-anchor="start" x="293" y="-697.5" font-family="Helvetica,sans-Serif" font-size="10.00">KuszkAPI::Containers</text>
<text text-anchor="start" x="293" y="-686.5" font-family="Helvetica,sans-Serif" font-size="10.00">::Box&lt; KuszkAPI::Forms</text>
<text text-anchor="middle" x="348" y="-675.5" font-family="Helvetica,sans-Serif" font-size="10.00">::RadioBox::ItemData &gt;</text>
</a>
</g>
</g>
<!-- Node1&#45;&gt;Node13 -->
<g id="edge12" class="edge"><title>Node1&#45;&gt;Node13</title>
<path fill="none" stroke="orange" stroke-dasharray="5,2" d="M123.775,-667.373C172.147,-672.059 237.461,-678.387 284.936,-682.987"/>
<polygon fill="orange" stroke="orange" points="124.013,-663.879 113.722,-666.399 123.338,-670.847 124.013,-663.879"/>
<text text-anchor="start" x="145.5" y="-694" font-family="Helvetica,sans-Serif" font-size="10.00"> &lt; KuszkAPI::Forms::</text>
<text text-anchor="middle" x="194" y="-683" font-family="Helvetica,sans-Serif" font-size="10.00">RadioBox::ItemData &gt;</text>
</g>
<!-- Node14 -->
<g id="node14" class="node"><title>Node14</title>
<g id="a_node14"><a xlink:href="class_kuszk_a_p_i_1_1_containers_1_1_box.html" target="_top" xlink:title="KuszkAPI::Containers\l::Box\&lt; UINT_PTR \&gt;">
<polygon fill="white" stroke="black" points="291.5,-619 291.5,-649 404.5,-649 404.5,-619 291.5,-619"/>
<text text-anchor="start" x="299.5" y="-637" font-family="Helvetica,sans-Serif" font-size="10.00">KuszkAPI::Containers</text>
<text text-anchor="middle" x="348" y="-626" font-family="Helvetica,sans-Serif" font-size="10.00">::Box&lt; UINT_PTR &gt;</text>
</a>
</g>
</g>
<!-- Node1&#45;&gt;Node14 -->
<g id="edge13" class="edge"><title>Node1&#45;&gt;Node14</title>
<path fill="none" stroke="orange" stroke-dasharray="5,2" d="M123.907,-654.843C174.52,-650.114 243.623,-643.658 291.449,-639.19"/>
<polygon fill="orange" stroke="orange" points="123.353,-651.379 113.722,-655.794 124.004,-658.349 123.353,-651.379"/>
<text text-anchor="middle" x="194" y="-657" font-family="Helvetica,sans-Serif" font-size="10.00"> &lt; UINT_PTR &gt;</text>
</g>
<!-- Node15 -->
<g id="node15" class="node"><title>Node15</title>
<g id="a_node15"><a xlink:href="class_kuszk_a_p_i_1_1_containers_1_1_box.html" target="_top" xlink:title="KuszkAPI::Containers\l::Box\&lt; KuszkAPI::Forms\l::Label \&gt;">
<polygon fill="white" stroke="black" points="285,-558.5 285,-599.5 411,-599.5 411,-558.5 285,-558.5"/>
<text text-anchor="start" x="293" y="-587.5" font-family="Helvetica,sans-Serif" font-size="10.00">KuszkAPI::Containers</text>
<text text-anchor="start" x="293" y="-576.5" font-family="Helvetica,sans-Serif" font-size="10.00">::Box&lt; KuszkAPI::Forms</text>
<text text-anchor="middle" x="348" y="-565.5" font-family="Helvetica,sans-Serif" font-size="10.00">::Label &gt;</text>
</a>
</g>
</g>
<!-- Node1&#45;&gt;Node15 -->
<g id="edge14" class="edge"><title>Node1&#45;&gt;Node15</title>
<path fill="none" stroke="orange" stroke-dasharray="5,2" d="M87.2487,-640.274C100.38,-631.868 116.404,-622.794 132,-617 181.568,-598.586 240.956,-588.957 284.744,-584.006"/>
<polygon fill="orange" stroke="orange" points="85.0814,-637.511 78.661,-645.939 88.9357,-643.354 85.0814,-637.511"/>
<text text-anchor="start" x="146" y="-631" font-family="Helvetica,sans-Serif" font-size="10.00"> &lt; KuszkAPI::Forms::</text>
<text text-anchor="middle" x="194" y="-620" font-family="Helvetica,sans-Serif" font-size="10.00">Label &gt;</text>
</g>
<!-- Node16 -->
<g id="node16" class="node"><title>Node16</title>
<g id="a_node16"><a xlink:href="class_kuszk_a_p_i_1_1_containers_1_1_box.html" target="_top" xlink:title="KuszkAPI::Containers\l::Box\&lt; KuszkAPI::Forms\l::Button \&gt;">
<polygon fill="white" stroke="black" points="285,-498.5 285,-539.5 411,-539.5 411,-498.5 285,-498.5"/>
<text text-anchor="start" x="293" y="-527.5" font-family="Helvetica,sans-Serif" font-size="10.00">KuszkAPI::Containers</text>
<text text-anchor="start" x="293" y="-516.5" font-family="Helvetica,sans-Serif" font-size="10.00">::Box&lt; KuszkAPI::Forms</text>
<text text-anchor="middle" x="348" y="-505.5" font-family="Helvetica,sans-Serif" font-size="10.00">::Button &gt;</text>
</a>
</g>
</g>
<!-- Node1&#45;&gt;Node16 -->
<g id="edge15" class="edge"><title>Node1&#45;&gt;Node16</title>
<path fill="none" stroke="orange" stroke-dasharray="5,2" d="M69.6192,-636.976C81.8996,-614.251 103.446,-581.02 132,-563 177.914,-534.025 239.331,-523.674 284.764,-520.191"/>
<polygon fill="orange" stroke="orange" points="66.4367,-635.51 64.93,-645.997 72.6477,-638.739 66.4367,-635.51"/>
<text text-anchor="start" x="146" y="-577" font-family="Helvetica,sans-Serif" font-size="10.00"> &lt; KuszkAPI::Forms::</text>
<text text-anchor="middle" x="194" y="-566" font-family="Helvetica,sans-Serif" font-size="10.00">Button &gt;</text>
</g>
<!-- Node17 -->
<g id="node17" class="node"><title>Node17</title>
<g id="a_node17"><a xlink:href="class_kuszk_a_p_i_1_1_containers_1_1_box.html" target="_top" xlink:title="KuszkAPI::Containers\l::Box\&lt; HICON \&gt;">
<polygon fill="white" stroke="black" points="291.5,-449 291.5,-479 404.5,-479 404.5,-449 291.5,-449"/>
<text text-anchor="start" x="299.5" y="-467" font-family="Helvetica,sans-Serif" font-size="10.00">KuszkAPI::Containers</text>
<text text-anchor="middle" x="348" y="-456" font-family="Helvetica,sans-Serif" font-size="10.00">::Box&lt; HICON &gt;</text>
</a>
</g>
</g>
<!-- Node1&#45;&gt;Node17 -->
<g id="edge16" class="edge"><title>Node1&#45;&gt;Node17</title>
<path fill="none" stroke="orange" stroke-dasharray="5,2" d="M63.1052,-635.55C71.3668,-601.276 91.0575,-540.909 132,-509 177.419,-473.602 244.06,-464.306 291.085,-462.636"/>
<polygon fill="orange" stroke="orange" points="59.6037,-635.167 60.8121,-645.693 66.4313,-636.711 59.6037,-635.167"/>
<text text-anchor="middle" x="194" y="-512" font-family="Helvetica,sans-Serif" font-size="10.00"> &lt; HICON &gt;</text>
</g>
<!-- Node18 -->
<g id="node18" class="node"><title>Node18</title>
<g id="a_node18"><a xlink:href="class_kuszk_a_p_i_1_1_containers_1_1_box.html" target="_top" xlink:title="KuszkAPI::Containers\l::Box\&lt; HCURSOR \&gt;">
<polygon fill="white" stroke="black" points="291.5,-400 291.5,-430 404.5,-430 404.5,-400 291.5,-400"/>
<text text-anchor="start" x="299.5" y="-418" font-family="Helvetica,sans-Serif" font-size="10.00">KuszkAPI::Containers</text>
<text text-anchor="middle" x="348" y="-407" font-family="Helvetica,sans-Serif" font-size="10.00">::Box&lt; HCURSOR &gt;</text>
</a>
</g>
</g>
<!-- Node1&#45;&gt;Node18 -->
<g id="edge17" class="edge"><title>Node1&#45;&gt;Node18</title>
<path fill="none" stroke="orange" stroke-dasharray="5,2" d="M58.9927,-635.963C62.2034,-591.345 75.6847,-498.333 132,-451 176.037,-413.987 243.576,-408.235 291.184,-409.671"/>
<polygon fill="orange" stroke="orange" points="55.4983,-635.767 58.3898,-645.96 62.4856,-636.189 55.4983,-635.767"/>
<text text-anchor="middle" x="194" y="-454" font-family="Helvetica,sans-Serif" font-size="10.00"> &lt; HCURSOR &gt;</text>
</g>
<!-- Node19 -->
<g id="node19" class="node"><title>Node19</title>
<g id="a_node19"><a xlink:href="class_kuszk_a_p_i_1_1_containers_1_1_box.html" target="_top" xlink:title="KuszkAPI::Containers\l::Box\&lt; KuszkAPI::Forms\l::ListBox \&gt;">
<polygon fill="white" stroke="black" points="285,-339.5 285,-380.5 411,-380.5 411,-339.5 285,-339.5"/>
<text text-anchor="start" x="293" y="-368.5" font-family="Helvetica,sans-Serif" font-size="10.00">KuszkAPI::Containers</text>
<text text-anchor="start" x="293" y="-357.5" font-family="Helvetica,sans-Serif" font-size="10.00">::Box&lt; KuszkAPI::Forms</text>
<text text-anchor="middle" x="348" y="-346.5" font-family="Helvetica,sans-Serif" font-size="10.00">::ListBox &gt;</text>
</a>
</g>
</g>
<!-- Node1&#45;&gt;Node19 -->
<g id="edge18" class="edge"><title>Node1&#45;&gt;Node19</title>
<path fill="none" stroke="orange" stroke-dasharray="5,2" d="M61.15,-635.772C69.3943,-574.06 93.6574,-418.11 132,-385 173.382,-349.265 237.176,-346.075 284.539,-349.979"/>
<polygon fill="orange" stroke="orange" points="57.662,-635.453 59.8386,-645.822 64.6032,-636.359 57.662,-635.453"/>
<text text-anchor="start" x="146" y="-399" font-family="Helvetica,sans-Serif" font-size="10.00"> &lt; KuszkAPI::Forms::</text>
<text text-anchor="middle" x="194" y="-388" font-family="Helvetica,sans-Serif" font-size="10.00">ListBox &gt;</text>
</g>
<!-- Node20 -->
<g id="node20" class="node"><title>Node20</title>
<g id="a_node20"><a xlink:href="class_kuszk_a_p_i_1_1_containers_1_1_box.html" target="_top" xlink:title="KuszkAPI::Containers\l::Box\&lt; KuszkAPI::Forms\l::EditBox \&gt;">
<polygon fill="white" stroke="black" points="285,-279.5 285,-320.5 411,-320.5 411,-279.5 285,-279.5"/>
<text text-anchor="start" x="293" y="-308.5" font-family="Helvetica,sans-Serif" font-size="10.00">KuszkAPI::Containers</text>
<text text-anchor="start" x="293" y="-297.5" font-family="Helvetica,sans-Serif" font-size="10.00">::Box&lt; KuszkAPI::Forms</text>
<text text-anchor="middle" x="348" y="-286.5" font-family="Helvetica,sans-Serif" font-size="10.00">::EditBox &gt;</text>
</a>
</g>
</g>
<!-- Node1&#45;&gt;Node20 -->
<g id="edge19" class="edge"><title>Node1&#45;&gt;Node20</title>
<path fill="none" stroke="orange" stroke-dasharray="5,2" d="M59.8162,-635.552C65.4585,-564.247 85.1934,-364.965 132,-323 172.808,-286.413 236.999,-284.077 284.629,-288.825"/>
<polygon fill="orange" stroke="orange" points="56.3012,-635.617 59.0297,-645.854 63.2809,-636.15 56.3012,-635.617"/>
<text text-anchor="start" x="146" y="-337" font-family="Helvetica,sans-Serif" font-size="10.00"> &lt; KuszkAPI::Forms::</text>
<text text-anchor="middle" x="194" y="-326" font-family="Helvetica,sans-Serif" font-size="10.00">EditBox &gt;</text>
</g>
<!-- Node21 -->
<g id="node21" class="node"><title>Node21</title>
<g id="a_node21"><a xlink:href="class_kuszk_a_p_i_1_1_containers_1_1_box.html" target="_top" xlink:title="KuszkAPI::Containers\l::Box\&lt; KuszkAPI::Forms\l::TableBox \&gt;">
<polygon fill="white" stroke="black" points="285,-219.5 285,-260.5 411,-260.5 411,-219.5 285,-219.5"/>
<text text-anchor="start" x="293" y="-248.5" font-family="Helvetica,sans-Serif" font-size="10.00">KuszkAPI::Containers</text>
<text text-anchor="start" x="293" y="-237.5" font-family="Helvetica,sans-Serif" font-size="10.00">::Box&lt; KuszkAPI::Forms</text>
<text text-anchor="middle" x="348" y="-226.5" font-family="Helvetica,sans-Serif" font-size="10.00">::TableBox &gt;</text>
</a>
</g>
</g>
<!-- Node1&#45;&gt;Node21 -->
<g id="edge20" class="edge"><title>Node1&#45;&gt;Node21</title>
<path fill="none" stroke="orange" stroke-dasharray="5,2" d="M58.8709,-635.83C62.175,-556.349 76.7105,-312.962 132,-262 172.418,-224.745 236.986,-222.925 284.828,-228.184"/>
<polygon fill="orange" stroke="orange" points="55.3698,-635.791 58.4761,-645.921 62.3645,-636.065 55.3698,-635.791"/>
<text text-anchor="start" x="146" y="-276" font-family="Helvetica,sans-Serif" font-size="10.00"> &lt; KuszkAPI::Forms::</text>
<text text-anchor="middle" x="194" y="-265" font-family="Helvetica,sans-Serif" font-size="10.00">TableBox &gt;</text>
</g>
<!-- Node22 -->
<g id="node22" class="node"><title>Node22</title>
<g id="a_node22"><a xlink:href="class_kuszk_a_p_i_1_1_containers_1_1_box.html" target="_top" xlink:title="KuszkAPI::Containers\l::Box\&lt; HHOOK \&gt;">
<polygon fill="white" stroke="black" points="291.5,-170 291.5,-200 404.5,-200 404.5,-170 291.5,-170"/>
<text text-anchor="start" x="299.5" y="-188" font-family="Helvetica,sans-Serif" font-size="10.00">KuszkAPI::Containers</text>
<text text-anchor="middle" x="348" y="-177" font-family="Helvetica,sans-Serif" font-size="10.00">::Box&lt; HHOOK &gt;</text>
</a>
</g>
</g>
<!-- Node1&#45;&gt;Node22 -->
<g id="edge21" class="edge"><title>Node1&#45;&gt;Node22</title>
<path fill="none" stroke="orange" stroke-dasharray="5,2" d="M58.3634,-635.337C60.1492,-548.981 70.6473,-271.04 132,-212 173.609,-171.959 242.619,-170.229 291.211,-175.262"/>
<polygon fill="orange" stroke="orange" points="54.8601,-635.491 58.1753,-645.554 61.8589,-635.62 54.8601,-635.491"/>
<text text-anchor="middle" x="194" y="-215" font-family="Helvetica,sans-Serif" font-size="10.00"> &lt; HHOOK &gt;</text>
</g>
<!-- Node23 -->
<g id="node23" class="node"><title>Node23</title>
<g id="a_node23"><a xlink:href="class_kuszk_a_p_i_1_1_containers_1_1_box.html" target="_top" xlink:title="KuszkAPI::Containers\l::Box\&lt; HBRUSH \&gt;">
<polygon fill="white" stroke="black" points="291.5,-121 291.5,-151 404.5,-151 404.5,-121 291.5,-121"/>
<text text-anchor="start" x="299.5" y="-139" font-family="Helvetica,sans-Serif" font-size="10.00">KuszkAPI::Containers</text>
<text text-anchor="middle" x="348" y="-128" font-family="Helvetica,sans-Serif" font-size="10.00">::Box&lt; HBRUSH &gt;</text>
</a>
</g>
</g>
<!-- Node1&#45;&gt;Node23 -->
<g id="edge22" class="edge"><title>Node1&#45;&gt;Node23</title>
<path fill="none" stroke="orange" stroke-dasharray="5,2" d="M57.831,-635.668C57.7779,-543.169 62.7221,-225.575 132,-159 173.548,-119.073 242.57,-118.758 291.181,-124.907"/>
<polygon fill="orange" stroke="orange" points="54.3312,-635.81 57.8582,-645.801 61.3312,-635.791 54.3312,-635.81"/>
<text text-anchor="middle" x="194" y="-162" font-family="Helvetica,sans-Serif" font-size="10.00"> &lt; HBRUSH &gt;</text>
</g>
<!-- Node24 -->
<g id="node24" class="node"><title>Node24</title>
<g id="a_node24"><a xlink:href="class_kuszk_a_p_i_1_1_containers_1_1_box.html" target="_top" xlink:title="KuszkAPI::Containers\l::Box\&lt; KuszkAPI::Forms\l::Font::ItemData \&gt;">
<polygon fill="white" stroke="black" points="285,-60.5 285,-101.5 411,-101.5 411,-60.5 285,-60.5"/>
<text text-anchor="start" x="293" y="-89.5" font-family="Helvetica,sans-Serif" font-size="10.00">KuszkAPI::Containers</text>
<text text-anchor="start" x="293" y="-78.5" font-family="Helvetica,sans-Serif" font-size="10.00">::Box&lt; KuszkAPI::Forms</text>
<text text-anchor="middle" x="348" y="-67.5" font-family="Helvetica,sans-Serif" font-size="10.00">::Font::ItemData &gt;</text>
</a>
</g>
</g>
<!-- Node1&#45;&gt;Node24 -->
<g id="edge23" class="edge"><title>Node1&#45;&gt;Node24</title>
<path fill="none" stroke="orange" stroke-dasharray="5,2" d="M59.4607,-635.618C65.7512,-530.576 92.0338,-133.616 132,-96 171.917,-58.4308 236.558,-58.9484 284.553,-66.2647"/>
<polygon fill="orange" stroke="orange" points="55.9489,-635.717 58.8531,-645.906 62.9367,-636.13 55.9489,-635.717"/>
<text text-anchor="start" x="146" y="-110" font-family="Helvetica,sans-Serif" font-size="10.00"> &lt; KuszkAPI::Forms::</text>
<text text-anchor="middle" x="194" y="-99" font-family="Helvetica,sans-Serif" font-size="10.00">Font::ItemData &gt;</text>
</g>
<!-- Node25 -->
<g id="node25" class="node"><title>Node25</title>
<g id="a_node25"><a xlink:href="class_kuszk_a_p_i_1_1_containers_1_1_box.html" target="_top" xlink:title="KuszkAPI::Containers\l::Box\&lt; KuszkAPI::Forms\l::ComboBox \&gt;">
<polygon fill="white" stroke="black" points="285,-0.5 285,-41.5 411,-41.5 411,-0.5 285,-0.5"/>
<text text-anchor="start" x="293" y="-29.5" font-family="Helvetica,sans-Serif" font-size="10.00">KuszkAPI::Containers</text>
<text text-anchor="start" x="293" y="-18.5" font-family="Helvetica,sans-Serif" font-size="10.00">::Box&lt; KuszkAPI::Forms</text>
<text text-anchor="middle" x="348" y="-7.5" font-family="Helvetica,sans-Serif" font-size="10.00">::ComboBox &gt;</text>
</a>
</g>
</g>
<!-- Node1&#45;&gt;Node25 -->
<g id="edge24" class="edge"><title>Node1&#45;&gt;Node25</title>
<path fill="none" stroke="orange" stroke-dasharray="5,2" d="M59.141,-635.528C64.4006,-523.607 87.9513,-79.1623 132,-37 171.748,1.04564 236.739,0.673879 284.877,-6.53999"/>
<polygon fill="orange" stroke="orange" points="55.6293,-635.702 58.6637,-645.853 62.6218,-636.025 55.6293,-635.702"/>
<text text-anchor="start" x="146" y="-51" font-family="Helvetica,sans-Serif" font-size="10.00"> &lt; KuszkAPI::Forms::</text>
<text text-anchor="middle" x="194" y="-40" font-family="Helvetica,sans-Serif" font-size="10.00">ComboBox &gt;</text>
</g>
</g>
</svg>
        <g id="navigator" transform="translate(0 0)" fill="#404254">
                <rect fill="#f2f5e9" fill-opacity="0.5" stroke="#606060" stroke-width=".5" x="0" y="0" width="60" height="60"/>
                <use id="zoomplus" xlink:href="#zoomPlus" x="17" y="9" onmousedown="handleZoom(evt,'in')"/>
                <use id="zoomminus" xlink:href="#zoomMin" x="42" y="9" onmousedown="handleZoom(evt,'out')"/>
                <use id="reset" xlink:href="#resetDef" x="30" y="36" onmousedown="handleReset()"/>
                <g id="arrowUp" xlink:href="#dirArrow" transform="translate(30 24)" onmousedown="handlePan(0,-1)">
                  <use xlink:href="#rim" fill="#404040">
                        <set attributeName="fill" to="#808080" begin="arrowUp.mouseover" end="arrowUp.mouseout"/>
                  </use>
                  <path fill="none" stroke="white" stroke-width="1.5" d="M0,-3.0v7 M-2.5,-0.5L0,-3.0L2.5,-0.5"/>
                </g>
                <g id="arrowRight" xlink:href="#dirArrow" transform="rotate(90) translate(36 -43)" onmousedown="handlePan(1,0)">
                  <use xlink:href="#rim" fill="#404040">
                        <set attributeName="fill" to="#808080" begin="arrowRight.mouseover" end="arrowRight.mouseout"/>
                  </use>
                  <path fill="none" stroke="white" stroke-width="1.5" d="M0,-3.0v7 M-2.5,-0.5L0,-3.0L2.5,-0.5"/>
                </g>
                <g id="arrowDown" xlink:href="#dirArrow" transform="rotate(180) translate(-30 -48)" onmousedown="handlePan(0,1)">
                  <use xlink:href="#rim" fill="#404040">
                        <set attributeName="fill" to="#808080" begin="arrowDown.mouseover" end="arrowDown.mouseout"/>
                  </use>
                  <path fill="none" stroke="white" stroke-width="1.5" d="M0,-3.0v7 M-2.5,-0.5L0,-3.0L2.5,-0.5"/>
                </g>
                <g id="arrowLeft" xlink:href="#dirArrow" transform="rotate(270) translate(-36 17)" onmousedown="handlePan(-1,0)">
                  <use xlink:href="#rim" fill="#404040">
                        <set attributeName="fill" to="#808080" begin="arrowLeft.mouseover" end="arrowLeft.mouseout"/>
                  </use>
                  <path fill="none" stroke="white" stroke-width="1.5" d="M0,-3.0v7 M-2.5,-0.5L0,-3.0L2.5,-0.5"/>
                </g>
        </g>
        <svg viewBox="0 0 15 15" width="100%" height="30px" preserveAspectRatio="xMaxYMin meet">
         <g id="arrow_out" transform="scale(0.3 0.3)">
          <a xlink:href="class_kuszk_a_p_i_1_1_containers_1_1_box__inherit__graph_org.svg" target="_base">
           <rect id="button" ry="5" rx="5" y="6" x="6" height="38" width="38"
                fill="#f2f5e9" fill-opacity="0.5" stroke="#606060" stroke-width="1.0"/>
           <path id="arrow"
             d="M 11.500037,31.436501 C 11.940474,20.09759 22.043105,11.32322 32.158766,21.979434 L 37.068811,17.246167 C 37.068811,17.246167 37.088388,32 37.088388,32 L 22.160133,31.978069 C 22.160133,31.978069 26.997745,27.140456 26.997745,27.140456 C 18.528582,18.264221 13.291696,25.230495 11.500037,31.436501 z"
             style="fill:#404040;"/>
          </a>
         </g>
        </svg>
</svg>
