<?xml version="1.0" encoding="UTF-8" standalone="no"?>
<!DOCTYPE svg PUBLIC "-//W3C//DTD SVG 1.1//EN"
 "http://www.w3.org/Graphics/SVG/1.1/DTD/svg11.dtd">
<!-- Generated by graphviz version 2.36.0 (20140111.2315)
 -->
<!-- Title: KuszkAPI::Containers::Array::Array Pages: 1 -->
<svg width="272pt" height="136pt"
 viewBox="0.00 0.00 272.00 136.00" xmlns="http://www.w3.org/2000/svg" xmlns:xlink="http://www.w3.org/1999/xlink">
<g id="graph0" class="graph" transform="scale(1 1) rotate(0) translate(4 132)">
<title>KuszkAPI::Containers::Array::Array</title>
<polygon fill="white" stroke="none" points="-4,4 -4,-132 268,-132 268,4 -4,4"/>
<!-- Node1 -->
<g id="node1" class="node"><title>Node1</title>
<polygon fill="#bfbfbf" stroke="black" points="0.5,-49 0.5,-79 113.5,-79 113.5,-49 0.5,-49"/>
<text text-anchor="start" x="8.5" y="-67" font-family="Helvetica,sans-Serif" font-size="10.00">KuszkAPI::Containers</text>
<text text-anchor="middle" x="57" y="-56" font-family="Helvetica,sans-Serif" font-size="10.00">::Array::Array</text>
</g>
<!-- Node2 -->
<g id="node2" class="node"><title>Node2</title>
<g id="a_node2"><a xlink:href="class_kuszk_a_p_i_1_1_containers_1_1_container.html#a378e21dde84b19b1a9a10fed9234aefa" target="_top" xlink:title="Zwraca ilość przechowywanych obiektów. ">
<polygon fill="white" stroke="black" points="150.5,-98 150.5,-128 263.5,-128 263.5,-98 150.5,-98"/>
<text text-anchor="start" x="158.5" y="-116" font-family="Helvetica,sans-Serif" font-size="10.00">KuszkAPI::Containers</text>
<text text-anchor="middle" x="207" y="-105" font-family="Helvetica,sans-Serif" font-size="10.00">::Container::Capacity</text>
</a>
</g>
</g>
<!-- Node1&#45;&gt;Node2 -->
<g id="edge1" class="edge"><title>Node1&#45;&gt;Node2</title>
<path fill="none" stroke="midnightblue" d="M103.613,-79.1014C118.594,-84.0615 135.405,-89.6274 151.007,-94.7929"/>
<polygon fill="midnightblue" stroke="midnightblue" points="149.945,-98.128 160.538,-97.9484 152.145,-91.4827 149.945,-98.128"/>
</g>
<!-- Node3 -->
<g id="node3" class="node"><title>Node3</title>
<g id="a_node3"><a xlink:href="class_kuszk_a_p_i_1_1_containers_1_1_vector.html#a699bdc7b4cfb4c9bd97a3696fb831c65" target="_top" xlink:title="KuszkAPI::Containers\l::Vector::GetBegin">
<polygon fill="white" stroke="black" points="150.5,-49 150.5,-79 263.5,-79 263.5,-49 150.5,-49"/>
<text text-anchor="start" x="158.5" y="-67" font-family="Helvetica,sans-Serif" font-size="10.00">KuszkAPI::Containers</text>
<text text-anchor="middle" x="207" y="-56" font-family="Helvetica,sans-Serif" font-size="10.00">::Vector::GetBegin</text>
</a>
</g>
</g>
<!-- Node1&#45;&gt;Node3 -->
<g id="edge2" class="edge"><title>Node1&#45;&gt;Node3</title>
<path fill="none" stroke="midnightblue" d="M113.531,-64C122.138,-64 131.101,-64 139.913,-64"/>
<polygon fill="midnightblue" stroke="midnightblue" points="140.158,-67.5001 150.158,-64 140.158,-60.5001 140.158,-67.5001"/>
</g>
<!-- Node4 -->
<g id="node4" class="node"><title>Node4</title>
<g id="a_node4"><a xlink:href="class_kuszk_a_p_i_1_1_containers_1_1_container.html#a4a2ac99d90acfaf1acb0c25b3bc93210" target="_top" xlink:title="Zwraca tryb pracy kontenera. ">
<polygon fill="white" stroke="black" points="150.5,-0 150.5,-30 263.5,-30 263.5,-0 150.5,-0"/>
<text text-anchor="start" x="158.5" y="-18" font-family="Helvetica,sans-Serif" font-size="10.00">KuszkAPI::Containers</text>
<text text-anchor="middle" x="207" y="-7" font-family="Helvetica,sans-Serif" font-size="10.00">::Container::GetMode</text>
</a>
</g>
</g>
<!-- Node1&#45;&gt;Node4 -->
<g id="edge3" class="edge"><title>Node1&#45;&gt;Node4</title>
<path fill="none" stroke="midnightblue" d="M103.613,-48.8986C118.594,-43.9385 135.405,-38.3726 151.007,-33.2071"/>
<polygon fill="midnightblue" stroke="midnightblue" points="152.145,-36.5173 160.538,-30.0516 149.945,-29.872 152.145,-36.5173"/>
</g>
</g>
</svg>
