<?xml version="1.0" encoding="UTF-8" standalone="no"?>
<!DOCTYPE svg PUBLIC "-//W3C//DTD SVG 1.1//EN"
 "http://www.w3.org/Graphics/SVG/1.1/DTD/svg11.dtd">
<!-- Generated by graphviz version 2.36.0 (20140111.2315)
 -->
<!-- Title: KuszkAPI::Containers::String::GetData Pages: 1 -->
<svg width="456pt" height="1312pt"
 viewBox="0.00 0.00 456.00 1312.00" xmlns="http://www.w3.org/2000/svg" xmlns:xlink="http://www.w3.org/1999/xlink">
<g id="graph0" class="graph" transform="scale(1 1) rotate(0) translate(4 1308)">
<title>KuszkAPI::Containers::String::GetData</title>
<polygon fill="white" stroke="none" points="-4,4 -4,-1308 452,-1308 452,4 -4,4"/>
<!-- Node1 -->
<g id="node1" class="node"><title>Node1</title>
<polygon fill="#bfbfbf" stroke="black" points="0.5,-686 0.5,-716 113.5,-716 113.5,-686 0.5,-686"/>
<text text-anchor="start" x="8.5" y="-704" font-family="Helvetica,sans-Serif" font-size="10.00">KuszkAPI::Containers</text>
<text text-anchor="middle" x="57" y="-693" font-family="Helvetica,sans-Serif" font-size="10.00">::String::GetData</text>
</g>
<!-- Node2 -->
<g id="node2" class="node"><title>Node2</title>
<g id="a_node2"><a xlink:href="class_kuszk_a_p_i_1_1_containers_1_1_strings.html#aae1e705132390add4e0b03ff36ffb094" target="_top" xlink:title="KuszkAPI::Containers\l::Strings::Add">
<polygon fill="white" stroke="black" points="150.5,-1004 150.5,-1034 263.5,-1034 263.5,-1004 150.5,-1004"/>
<text text-anchor="start" x="158.5" y="-1022" font-family="Helvetica,sans-Serif" font-size="10.00">KuszkAPI::Containers</text>
<text text-anchor="middle" x="207" y="-1011" font-family="Helvetica,sans-Serif" font-size="10.00">::Strings::Add</text>
</a>
</g>
</g>
<!-- Node1&#45;&gt;Node2 -->
<g id="edge1" class="edge"><title>Node1&#45;&gt;Node2</title>
<path fill="none" stroke="midnightblue" d="M69.395,-725.484C98.556,-788.141 175.253,-952.935 198.933,-1003.82"/>
<polygon fill="midnightblue" stroke="midnightblue" points="72.5311,-723.927 65.1383,-716.338 66.1847,-726.881 72.5311,-723.927"/>
</g>
<!-- Node14 -->
<g id="node14" class="node"><title>Node14</title>
<g id="a_node14"><a xlink:href="class_kuszk_a_p_i_1_1_containers_1_1_strings.html#a85279e4024226c7d0a89c0f51771db54" target="_top" xlink:title="KuszkAPI::Containers\l::Strings::All">
<polygon fill="white" stroke="black" points="150.5,-686 150.5,-716 263.5,-716 263.5,-686 150.5,-686"/>
<text text-anchor="start" x="158.5" y="-704" font-family="Helvetica,sans-Serif" font-size="10.00">KuszkAPI::Containers</text>
<text text-anchor="middle" x="207" y="-693" font-family="Helvetica,sans-Serif" font-size="10.00">::Strings::All</text>
</a>
</g>
</g>
<!-- Node1&#45;&gt;Node14 -->
<g id="edge13" class="edge"><title>Node1&#45;&gt;Node14</title>
<path fill="none" stroke="midnightblue" d="M123.768,-701C132.576,-701 141.542,-701 150.158,-701"/>
<polygon fill="midnightblue" stroke="midnightblue" points="123.531,-697.5 113.531,-701 123.531,-704.5 123.531,-697.5"/>
</g>
<!-- Node18 -->
<g id="node18" class="node"><title>Node18</title>
<g id="a_node18"><a xlink:href="class_kuszk_a_p_i_1_1_containers_1_1_strings.html#a9021319df4615931b43c7e715bcf5bf9" target="_top" xlink:title="KuszkAPI::Containers\l::Strings::GetData">
<polygon fill="white" stroke="black" points="150.5,-319 150.5,-349 263.5,-349 263.5,-319 150.5,-319"/>
<text text-anchor="start" x="158.5" y="-337" font-family="Helvetica,sans-Serif" font-size="10.00">KuszkAPI::Containers</text>
<text text-anchor="middle" x="207" y="-326" font-family="Helvetica,sans-Serif" font-size="10.00">::Strings::GetData</text>
</a>
</g>
</g>
<!-- Node1&#45;&gt;Node18 -->
<g id="edge17" class="edge"><title>Node1&#45;&gt;Node18</title>
<path fill="none" stroke="midnightblue" d="M67.9606,-676.3C96.3008,-606.024 176.816,-406.369 199.803,-349.368"/>
<polygon fill="midnightblue" stroke="midnightblue" points="64.665,-675.114 64.171,-685.698 71.157,-677.732 64.665,-675.114"/>
</g>
<!-- Node3 -->
<g id="node3" class="node"><title>Node3</title>
<g id="a_node3"><a xlink:href="class_kuszk_a_p_i_1_1_core_1_1_console.html#a4117149e814f6819b8e592ba2efcb473" target="_top" xlink:title="KuszkAPI::Core::Console\l::GetLines">
<polygon fill="white" stroke="black" points="310,-1274 310,-1304 438,-1304 438,-1274 310,-1274"/>
<text text-anchor="start" x="318" y="-1292" font-family="Helvetica,sans-Serif" font-size="10.00">KuszkAPI::Core::Console</text>
<text text-anchor="middle" x="374" y="-1281" font-family="Helvetica,sans-Serif" font-size="10.00">::GetLines</text>
</a>
</g>
</g>
<!-- Node2&#45;&gt;Node3 -->
<g id="edge2" class="edge"><title>Node2&#45;&gt;Node3</title>
<path fill="none" stroke="midnightblue" d="M210.42,-1044.11C216.475,-1093.21 236.668,-1202.5 300,-1264 303.94,-1267.83 308.491,-1271.07 313.355,-1273.82"/>
<polygon fill="midnightblue" stroke="midnightblue" points="213.883,-1043.59 209.276,-1034.05 206.928,-1044.38 213.883,-1043.59"/>
</g>
<!-- Node4 -->
<g id="node4" class="node"><title>Node4</title>
<g id="a_node4"><a xlink:href="class_kuszk_a_p_i_1_1_forms_1_1_combo_box.html#a5bb4447a9a712967c01fbed2719cca2d" target="_top" xlink:title="KuszkAPI::Forms::ComboBox\l::GetItems">
<polygon fill="white" stroke="black" points="300,-1225 300,-1255 448,-1255 448,-1225 300,-1225"/>
<text text-anchor="start" x="308" y="-1243" font-family="Helvetica,sans-Serif" font-size="10.00">KuszkAPI::Forms::ComboBox</text>
<text text-anchor="middle" x="374" y="-1232" font-family="Helvetica,sans-Serif" font-size="10.00">::GetItems</text>
</a>
</g>
</g>
<!-- Node2&#45;&gt;Node4 -->
<g id="edge3" class="edge"><title>Node2&#45;&gt;Node4</title>
<path fill="none" stroke="midnightblue" d="M213.081,-1043.98C222.766,-1085.35 247.735,-1168.14 300,-1215 304.289,-1218.85 309.197,-1222.1 314.394,-1224.87"/>
<polygon fill="midnightblue" stroke="midnightblue" points="216.486,-1043.17 210.892,-1034.17 209.654,-1044.7 216.486,-1043.17"/>
</g>
<!-- Node5 -->
<g id="node5" class="node"><title>Node5</title>
<g id="a_node5"><a xlink:href="class_kuszk_a_p_i_1_1_forms_1_1_combo_box.html#acd08c06092a749a67c6c419580ace7e3" target="_top" xlink:title="KuszkAPI::Forms::ComboBox\l::Sort">
<polygon fill="white" stroke="black" points="300,-1176 300,-1206 448,-1206 448,-1176 300,-1176"/>
<text text-anchor="start" x="308" y="-1194" font-family="Helvetica,sans-Serif" font-size="10.00">KuszkAPI::Forms::ComboBox</text>
<text text-anchor="middle" x="374" y="-1183" font-family="Helvetica,sans-Serif" font-size="10.00">::Sort</text>
</a>
</g>
</g>
<!-- Node2&#45;&gt;Node5 -->
<g id="edge4" class="edge"><title>Node2&#45;&gt;Node5</title>
<path fill="none" stroke="midnightblue" d="M217.394,-1043.97C230.873,-1076.55 258.715,-1133.24 300,-1166 304.827,-1169.83 310.277,-1173.09 315.969,-1175.86"/>
<polygon fill="midnightblue" stroke="midnightblue" points="220.49,-1042.28 213.524,-1034.3 213.991,-1044.89 220.49,-1042.28"/>
</g>
<!-- Node6 -->
<g id="node6" class="node"><title>Node6</title>
<g id="a_node6"><a xlink:href="class_kuszk_a_p_i_1_1_forms_1_1_edit_box.html#a79e3ff534b41bd0724e77766b6ddd248" target="_top" xlink:title="KuszkAPI::Forms::EditBox\l::AddLine">
<polygon fill="white" stroke="black" points="307,-1127 307,-1157 441,-1157 441,-1127 307,-1127"/>
<text text-anchor="start" x="315" y="-1145" font-family="Helvetica,sans-Serif" font-size="10.00">KuszkAPI::Forms::EditBox</text>
<text text-anchor="middle" x="374" y="-1134" font-family="Helvetica,sans-Serif" font-size="10.00">::AddLine</text>
</a>
</g>
</g>
<!-- Node2&#45;&gt;Node6 -->
<g id="edge5" class="edge"><title>Node2&#45;&gt;Node6</title>
<path fill="none" stroke="midnightblue" d="M224.5,-1042.28C241.233,-1064.34 269.022,-1096.99 300,-1117 305.852,-1120.78 312.338,-1124.05 318.96,-1126.88"/>
<polygon fill="midnightblue" stroke="midnightblue" points="227.208,-1040.06 218.439,-1034.11 221.586,-1044.23 227.208,-1040.06"/>
</g>
<!-- Node7 -->
<g id="node7" class="node"><title>Node7</title>
<g id="a_node7"><a xlink:href="class_kuszk_a_p_i_1_1_forms_1_1_edit_box.html#ae3e0f39c6a2ffa9ab23af30005b7f0b3" target="_top" xlink:title="KuszkAPI::Forms::EditBox\l::GetLines">
<polygon fill="white" stroke="black" points="307,-1078 307,-1108 441,-1108 441,-1078 307,-1078"/>
<text text-anchor="start" x="315" y="-1096" font-family="Helvetica,sans-Serif" font-size="10.00">KuszkAPI::Forms::EditBox</text>
<text text-anchor="middle" x="374" y="-1085" font-family="Helvetica,sans-Serif" font-size="10.00">::GetLines</text>
</a>
</g>
</g>
<!-- Node2&#45;&gt;Node7 -->
<g id="edge6" class="edge"><title>Node2&#45;&gt;Node7</title>
<path fill="none" stroke="midnightblue" d="M242.616,-1039.12C259.593,-1048.55 280.533,-1059.55 300,-1068 308.11,-1071.52 316.89,-1074.89 325.456,-1077.95"/>
<polygon fill="midnightblue" stroke="midnightblue" points="244.059,-1035.92 233.627,-1034.07 240.629,-1042.02 244.059,-1035.92"/>
</g>
<!-- Node8 -->
<g id="node8" class="node"><title>Node8</title>
<g id="a_node8"><a xlink:href="class_kuszk_a_p_i_1_1_forms_1_1_list_box.html#a6a28db85058610a3d57cc445cd5ff746" target="_top" xlink:title="KuszkAPI::Forms::ListBox\l::GetItems">
<polygon fill="white" stroke="black" points="307.5,-1029 307.5,-1059 440.5,-1059 440.5,-1029 307.5,-1029"/>
<text text-anchor="start" x="315.5" y="-1047" font-family="Helvetica,sans-Serif" font-size="10.00">KuszkAPI::Forms::ListBox</text>
<text text-anchor="middle" x="374" y="-1036" font-family="Helvetica,sans-Serif" font-size="10.00">::GetItems</text>
</a>
</g>
</g>
<!-- Node2&#45;&gt;Node8 -->
<g id="edge7" class="edge"><title>Node2&#45;&gt;Node8</title>
<path fill="none" stroke="midnightblue" d="M273.82,-1028.97C284.815,-1030.64 296.223,-1032.37 307.217,-1034.03"/>
<polygon fill="midnightblue" stroke="midnightblue" points="274.273,-1025.5 263.861,-1027.46 273.224,-1032.42 274.273,-1025.5"/>
</g>
<!-- Node9 -->
<g id="node9" class="node"><title>Node9</title>
<g id="a_node9"><a xlink:href="class_kuszk_a_p_i_1_1_forms_1_1_tab_box.html#a89e58110675f0a2d6f632328fa782d45" target="_top" xlink:title="KuszkAPI::Forms::TabBox\l::GetItems">
<polygon fill="white" stroke="black" points="307.5,-980 307.5,-1010 440.5,-1010 440.5,-980 307.5,-980"/>
<text text-anchor="start" x="315.5" y="-998" font-family="Helvetica,sans-Serif" font-size="10.00">KuszkAPI::Forms::TabBox</text>
<text text-anchor="middle" x="374" y="-987" font-family="Helvetica,sans-Serif" font-size="10.00">::GetItems</text>
</a>
</g>
</g>
<!-- Node2&#45;&gt;Node9 -->
<g id="edge8" class="edge"><title>Node2&#45;&gt;Node9</title>
<path fill="none" stroke="midnightblue" d="M273.82,-1009.43C284.815,-1007.83 296.223,-1006.17 307.217,-1004.57"/>
<polygon fill="midnightblue" stroke="midnightblue" points="273.254,-1005.97 263.861,-1010.87 274.261,-1012.9 273.254,-1005.97"/>
</g>
<!-- Node10 -->
<g id="node10" class="node"><title>Node10</title>
<g id="a_node10"><a xlink:href="class_kuszk_a_p_i_1_1_forms_1_1_table_box.html#ab49a3916d6e1f49c4db6809c09b4a201" target="_top" xlink:title="KuszkAPI::Forms::TableBox\l::GetItemStruct">
<polygon fill="white" stroke="black" points="304,-931 304,-961 444,-961 444,-931 304,-931"/>
<text text-anchor="start" x="312" y="-949" font-family="Helvetica,sans-Serif" font-size="10.00">KuszkAPI::Forms::TableBox</text>
<text text-anchor="middle" x="374" y="-938" font-family="Helvetica,sans-Serif" font-size="10.00">::GetItemStruct</text>
</a>
</g>
</g>
<!-- Node2&#45;&gt;Node10 -->
<g id="edge9" class="edge"><title>Node2&#45;&gt;Node10</title>
<path fill="none" stroke="midnightblue" d="M243.397,-998.934C260.251,-989.796 280.863,-979.213 300,-971 308.125,-967.513 316.912,-964.162 325.481,-961.109"/>
<polygon fill="midnightblue" stroke="midnightblue" points="241.54,-995.96 234.454,-1003.84 244.905,-1002.1 241.54,-995.96"/>
</g>
<!-- Node11 -->
<g id="node11" class="node"><title>Node11</title>
<g id="a_node11"><a xlink:href="class_kuszk_a_p_i_1_1_forms_1_1_table_box.html#afe16920a713ba1cfad66443cc9bf8030" target="_top" xlink:title="KuszkAPI::Forms::TableBox\l::GetItems">
<polygon fill="white" stroke="black" points="304,-882 304,-912 444,-912 444,-882 304,-882"/>
<text text-anchor="start" x="312" y="-900" font-family="Helvetica,sans-Serif" font-size="10.00">KuszkAPI::Forms::TableBox</text>
<text text-anchor="middle" x="374" y="-889" font-family="Helvetica,sans-Serif" font-size="10.00">::GetItems</text>
</a>
</g>
</g>
<!-- Node2&#45;&gt;Node11 -->
<g id="edge10" class="edge"><title>Node2&#45;&gt;Node11</title>
<path fill="none" stroke="midnightblue" d="M224.833,-995.594C241.634,-973.771 269.311,-941.709 300,-922 305.861,-918.236 312.353,-914.969 318.978,-912.153"/>
<polygon fill="midnightblue" stroke="midnightblue" points="221.956,-993.596 218.736,-1003.69 227.548,-997.807 221.956,-993.596"/>
</g>
<!-- Node12 -->
<g id="node12" class="node"><title>Node12</title>
<g id="a_node12"><a xlink:href="class_kuszk_a_p_i_1_1_forms_1_1_table_box.html#a591dd077c40df16ef559706357fc5ba5" target="_top" xlink:title="KuszkAPI::Forms::TableBox\l::GetColumn">
<polygon fill="white" stroke="black" points="304,-833 304,-863 444,-863 444,-833 304,-833"/>
<text text-anchor="start" x="312" y="-851" font-family="Helvetica,sans-Serif" font-size="10.00">KuszkAPI::Forms::TableBox</text>
<text text-anchor="middle" x="374" y="-840" font-family="Helvetica,sans-Serif" font-size="10.00">::GetColumn</text>
</a>
</g>
</g>
<!-- Node2&#45;&gt;Node12 -->
<g id="edge11" class="edge"><title>Node2&#45;&gt;Node12</title>
<path fill="none" stroke="midnightblue" d="M217.44,-994.199C230.969,-961.844 258.866,-905.537 300,-873 304.833,-869.177 310.286,-865.921 315.981,-863.151"/>
<polygon fill="midnightblue" stroke="midnightblue" points="214.061,-993.219 213.554,-1003.8 220.55,-995.846 214.061,-993.219"/>
</g>
<!-- Node13 -->
<g id="node13" class="node"><title>Node13</title>
<g id="a_node13"><a xlink:href="class_kuszk_a_p_i_1_1_forms_1_1_table_box.html#a17a5957c6b5ec94902d7c969f35b149a" target="_top" xlink:title="KuszkAPI::Forms::TableBox\l::Sort">
<polygon fill="white" stroke="black" points="304,-784 304,-814 444,-814 444,-784 304,-784"/>
<text text-anchor="start" x="312" y="-802" font-family="Helvetica,sans-Serif" font-size="10.00">KuszkAPI::Forms::TableBox</text>
<text text-anchor="middle" x="374" y="-791" font-family="Helvetica,sans-Serif" font-size="10.00">::Sort</text>
</a>
</g>
</g>
<!-- Node2&#45;&gt;Node13 -->
<g id="edge12" class="edge"><title>Node2&#45;&gt;Node13</title>
<path fill="none" stroke="midnightblue" d="M213.119,-994.142C222.859,-952.986 247.908,-870.614 300,-824 304.293,-820.159 309.203,-816.903 314.402,-814.143"/>
<polygon fill="midnightblue" stroke="midnightblue" points="209.704,-993.377 210.916,-1003.9 216.532,-994.918 209.704,-993.377"/>
</g>
<!-- Node15 -->
<g id="node15" class="node"><title>Node15</title>
<g id="a_node15"><a xlink:href="class_kuszk_a_p_i_1_1_core_1_1_script.html#abf5addecd4187fb491bb7b561eca1d49" target="_top" xlink:title="KuszkAPI::Core::Script\l::GetQuotes">
<polygon fill="white" stroke="black" points="315,-735 315,-765 433,-765 433,-735 315,-735"/>
<text text-anchor="start" x="323" y="-753" font-family="Helvetica,sans-Serif" font-size="10.00">KuszkAPI::Core::Script</text>
<text text-anchor="middle" x="374" y="-742" font-family="Helvetica,sans-Serif" font-size="10.00">::GetQuotes</text>
</a>
</g>
</g>
<!-- Node14&#45;&gt;Node15 -->
<g id="edge14" class="edge"><title>Node14&#45;&gt;Node15</title>
<path fill="none" stroke="midnightblue" d="M268.501,-718.967C286.18,-724.217 305.313,-729.899 322.316,-734.948"/>
<polygon fill="midnightblue" stroke="midnightblue" points="269.434,-715.593 258.852,-716.101 267.442,-722.304 269.434,-715.593"/>
</g>
<!-- Node16 -->
<g id="node16" class="node"><title>Node16</title>
<g id="a_node16"><a xlink:href="class_kuszk_a_p_i_1_1_forms_1_1_edit_box.html#a004954489f1fd9242d0110ec65ed04d1" target="_top" xlink:title="KuszkAPI::Forms::EditBox\l::SetLine">
<polygon fill="white" stroke="black" points="307,-686 307,-716 441,-716 441,-686 307,-686"/>
<text text-anchor="start" x="315" y="-704" font-family="Helvetica,sans-Serif" font-size="10.00">KuszkAPI::Forms::EditBox</text>
<text text-anchor="middle" x="374" y="-693" font-family="Helvetica,sans-Serif" font-size="10.00">::SetLine</text>
</a>
</g>
</g>
<!-- Node14&#45;&gt;Node16 -->
<g id="edge15" class="edge"><title>Node14&#45;&gt;Node16</title>
<path fill="none" stroke="midnightblue" d="M274.086,-701C284.903,-701 296.112,-701 306.928,-701"/>
<polygon fill="midnightblue" stroke="midnightblue" points="273.862,-697.5 263.861,-701 273.861,-704.5 273.862,-697.5"/>
</g>
<!-- Node17 -->
<g id="node17" class="node"><title>Node17</title>
<g id="a_node17"><a xlink:href="class_kuszk_a_p_i_1_1_forms_1_1_edit_box.html#aa7bdf1d87d3f6ab0085754a6e4d35d81" target="_top" xlink:title="KuszkAPI::Forms::EditBox\l::SetLines">
<polygon fill="white" stroke="black" points="307,-637 307,-667 441,-667 441,-637 307,-637"/>
<text text-anchor="start" x="315" y="-655" font-family="Helvetica,sans-Serif" font-size="10.00">KuszkAPI::Forms::EditBox</text>
<text text-anchor="middle" x="374" y="-644" font-family="Helvetica,sans-Serif" font-size="10.00">::SetLines</text>
</a>
</g>
</g>
<!-- Node14&#45;&gt;Node17 -->
<g id="edge16" class="edge"><title>Node14&#45;&gt;Node17</title>
<path fill="none" stroke="midnightblue" d="M268.501,-683.033C286.18,-677.783 305.313,-672.101 322.316,-667.052"/>
<polygon fill="midnightblue" stroke="midnightblue" points="267.442,-679.696 258.852,-685.899 269.434,-686.407 267.442,-679.696"/>
</g>
<!-- Node19 -->
<g id="node19" class="node"><title>Node19</title>
<g id="a_node19"><a xlink:href="class_kuszk_a_p_i_1_1_forms_1_1_combo_box.html#a2769b6f0bc66d3518644212a78ea438c" target="_top" xlink:title="KuszkAPI::Forms::ComboBox\l::AddItems">
<polygon fill="white" stroke="black" points="300,-588 300,-618 448,-618 448,-588 300,-588"/>
<text text-anchor="start" x="308" y="-606" font-family="Helvetica,sans-Serif" font-size="10.00">KuszkAPI::Forms::ComboBox</text>
<text text-anchor="middle" x="374" y="-595" font-family="Helvetica,sans-Serif" font-size="10.00">::AddItems</text>
</a>
</g>
</g>
<!-- Node18&#45;&gt;Node19 -->
<g id="edge18" class="edge"><title>Node18&#45;&gt;Node19</title>
<path fill="none" stroke="midnightblue" d="M210.496,-359.365C216.661,-408.437 237.005,-516.905 300,-578 303.943,-581.824 308.495,-585.064 313.36,-587.81"/>
<polygon fill="midnightblue" stroke="midnightblue" points="213.957,-358.826 209.328,-349.296 207.004,-359.633 213.957,-358.826"/>
</g>
<!-- Node20 -->
<g id="node20" class="node"><title>Node20</title>
<g id="a_node20"><a xlink:href="class_kuszk_a_p_i_1_1_forms_1_1_combo_box.html#aa2b109380bc60c6351419226799d3d43" target="_top" xlink:title="KuszkAPI::Forms::ComboBox\l::SetItems">
<polygon fill="white" stroke="black" points="300,-539 300,-569 448,-569 448,-539 300,-539"/>
<text text-anchor="start" x="308" y="-557" font-family="Helvetica,sans-Serif" font-size="10.00">KuszkAPI::Forms::ComboBox</text>
<text text-anchor="middle" x="374" y="-546" font-family="Helvetica,sans-Serif" font-size="10.00">::SetItems</text>
</a>
</g>
</g>
<!-- Node18&#45;&gt;Node20 -->
<g id="edge19" class="edge"><title>Node18&#45;&gt;Node20</title>
<path fill="none" stroke="midnightblue" d="M213.119,-358.858C222.859,-400.014 247.908,-482.386 300,-529 304.293,-532.841 309.203,-536.097 314.402,-538.857"/>
<polygon fill="midnightblue" stroke="midnightblue" points="216.532,-358.082 210.916,-349.098 209.704,-359.623 216.532,-358.082"/>
</g>
<!-- Node21 -->
<g id="node21" class="node"><title>Node21</title>
<g id="a_node21"><a xlink:href="class_kuszk_a_p_i_1_1_forms_1_1_list_box.html#a634049136f0fd56323f2c3077a1917f1" target="_top" xlink:title="KuszkAPI::Forms::ListBox\l::AddItems">
<polygon fill="white" stroke="black" points="307.5,-490 307.5,-520 440.5,-520 440.5,-490 307.5,-490"/>
<text text-anchor="start" x="315.5" y="-508" font-family="Helvetica,sans-Serif" font-size="10.00">KuszkAPI::Forms::ListBox</text>
<text text-anchor="middle" x="374" y="-497" font-family="Helvetica,sans-Serif" font-size="10.00">::AddItems</text>
</a>
</g>
</g>
<!-- Node18&#45;&gt;Node21 -->
<g id="edge20" class="edge"><title>Node18&#45;&gt;Node21</title>
<path fill="none" stroke="midnightblue" d="M217.44,-358.801C230.969,-391.156 258.866,-447.463 300,-480 304.833,-483.823 310.286,-487.079 315.981,-489.849"/>
<polygon fill="midnightblue" stroke="midnightblue" points="220.55,-357.154 213.554,-349.198 214.061,-359.781 220.55,-357.154"/>
</g>
<!-- Node22 -->
<g id="node22" class="node"><title>Node22</title>
<g id="a_node22"><a xlink:href="class_kuszk_a_p_i_1_1_forms_1_1_tab_box.html#a35fbc304ecd7692c82d5d9507d50c8d1" target="_top" xlink:title="KuszkAPI::Forms::TabBox\l::AddItems">
<polygon fill="white" stroke="black" points="307.5,-441 307.5,-471 440.5,-471 440.5,-441 307.5,-441"/>
<text text-anchor="start" x="315.5" y="-459" font-family="Helvetica,sans-Serif" font-size="10.00">KuszkAPI::Forms::TabBox</text>
<text text-anchor="middle" x="374" y="-448" font-family="Helvetica,sans-Serif" font-size="10.00">::AddItems</text>
</a>
</g>
</g>
<!-- Node18&#45;&gt;Node22 -->
<g id="edge21" class="edge"><title>Node18&#45;&gt;Node22</title>
<path fill="none" stroke="midnightblue" d="M224.833,-357.406C241.634,-379.229 269.311,-411.291 300,-431 305.861,-434.764 312.353,-438.031 318.978,-440.847"/>
<polygon fill="midnightblue" stroke="midnightblue" points="227.548,-355.193 218.736,-349.31 221.956,-359.404 227.548,-355.193"/>
</g>
<!-- Node23 -->
<g id="node23" class="node"><title>Node23</title>
<g id="a_node23"><a xlink:href="class_kuszk_a_p_i_1_1_forms_1_1_table_box.html#aa62710800c2e8e8e7729c80b02f38d1a" target="_top" xlink:title="KuszkAPI::Forms::TableBox\l::AddItems">
<polygon fill="white" stroke="black" points="304,-392 304,-422 444,-422 444,-392 304,-392"/>
<text text-anchor="start" x="312" y="-410" font-family="Helvetica,sans-Serif" font-size="10.00">KuszkAPI::Forms::TableBox</text>
<text text-anchor="middle" x="374" y="-399" font-family="Helvetica,sans-Serif" font-size="10.00">::AddItems</text>
</a>
</g>
</g>
<!-- Node18&#45;&gt;Node23 -->
<g id="edge22" class="edge"><title>Node18&#45;&gt;Node23</title>
<path fill="none" stroke="midnightblue" d="M243.397,-354.066C260.251,-363.204 280.863,-373.787 300,-382 308.125,-385.487 316.912,-388.838 325.481,-391.891"/>
<polygon fill="midnightblue" stroke="midnightblue" points="244.905,-350.902 234.454,-349.163 241.54,-357.04 244.905,-350.902"/>
</g>
<!-- Node24 -->
<g id="node24" class="node"><title>Node24</title>
<g id="a_node24"><a xlink:href="class_kuszk_a_p_i_1_1_forms_1_1_table_box.html#a3129583999a67273404ea16ecbf9a2bd" target="_top" xlink:title="KuszkAPI::Forms::TableBox\l::SetItemData">
<polygon fill="white" stroke="black" points="304,-343 304,-373 444,-373 444,-343 304,-343"/>
<text text-anchor="start" x="312" y="-361" font-family="Helvetica,sans-Serif" font-size="10.00">KuszkAPI::Forms::TableBox</text>
<text text-anchor="middle" x="374" y="-350" font-family="Helvetica,sans-Serif" font-size="10.00">::SetItemData</text>
</a>
</g>
</g>
<!-- Node18&#45;&gt;Node24 -->
<g id="edge23" class="edge"><title>Node18&#45;&gt;Node24</title>
<path fill="none" stroke="midnightblue" d="M273.935,-343.591C283.738,-345.016 293.866,-346.49 303.735,-347.925"/>
<polygon fill="midnightblue" stroke="midnightblue" points="274.261,-340.101 263.861,-342.125 273.254,-347.028 274.261,-340.101"/>
</g>
<!-- Node25 -->
<g id="node25" class="node"><title>Node25</title>
<g id="a_node25"><a xlink:href="class_kuszk_a_p_i_1_1_forms_1_1_table_box.html#af7c0e9f55441b5072e99843bf6a8bcc5" target="_top" xlink:title="KuszkAPI::Forms::TableBox\l::AddGroups">
<polygon fill="white" stroke="black" points="304,-294 304,-324 444,-324 444,-294 304,-294"/>
<text text-anchor="start" x="312" y="-312" font-family="Helvetica,sans-Serif" font-size="10.00">KuszkAPI::Forms::TableBox</text>
<text text-anchor="middle" x="374" y="-301" font-family="Helvetica,sans-Serif" font-size="10.00">::AddGroups</text>
</a>
</g>
</g>
<!-- Node18&#45;&gt;Node25 -->
<g id="edge24" class="edge"><title>Node18&#45;&gt;Node25</title>
<path fill="none" stroke="midnightblue" d="M273.935,-324.01C283.738,-322.525 293.866,-320.99 303.735,-319.495"/>
<polygon fill="midnightblue" stroke="midnightblue" points="273.224,-320.577 263.861,-325.536 274.273,-327.499 273.224,-320.577"/>
</g>
<!-- Node26 -->
<g id="node26" class="node"><title>Node26</title>
<g id="a_node26"><a xlink:href="class_kuszk_a_p_i_1_1_forms_1_1_table_box.html#a114261299700e4eefafb194d3d4f4096" target="_top" xlink:title="KuszkAPI::Forms::TableBox\l::SetColumn">
<polygon fill="white" stroke="black" points="304,-245 304,-275 444,-275 444,-245 304,-245"/>
<text text-anchor="start" x="312" y="-263" font-family="Helvetica,sans-Serif" font-size="10.00">KuszkAPI::Forms::TableBox</text>
<text text-anchor="middle" x="374" y="-252" font-family="Helvetica,sans-Serif" font-size="10.00">::SetColumn</text>
</a>
</g>
</g>
<!-- Node18&#45;&gt;Node26 -->
<g id="edge25" class="edge"><title>Node18&#45;&gt;Node26</title>
<path fill="none" stroke="midnightblue" d="M242.616,-313.876C259.593,-304.446 280.533,-293.454 300,-285 308.11,-281.478 316.89,-278.111 325.456,-275.052"/>
<polygon fill="midnightblue" stroke="midnightblue" points="240.629,-310.978 233.627,-318.929 244.059,-317.08 240.629,-310.978"/>
</g>
<!-- Node27 -->
<g id="node27" class="node"><title>Node27</title>
<g id="a_node27"><a xlink:href="class_kuszk_a_p_i_1_1_forms_1_1_table_box.html#acd578a3280ed91936761e9e64d47cd3d" target="_top" xlink:title="KuszkAPI::Forms::TableBox\l::SetHeader">
<polygon fill="white" stroke="black" points="304,-196 304,-226 444,-226 444,-196 304,-196"/>
<text text-anchor="start" x="312" y="-214" font-family="Helvetica,sans-Serif" font-size="10.00">KuszkAPI::Forms::TableBox</text>
<text text-anchor="middle" x="374" y="-203" font-family="Helvetica,sans-Serif" font-size="10.00">::SetHeader</text>
</a>
</g>
</g>
<!-- Node18&#45;&gt;Node27 -->
<g id="edge26" class="edge"><title>Node18&#45;&gt;Node27</title>
<path fill="none" stroke="midnightblue" d="M224.5,-310.716C241.233,-288.656 269.022,-256.007 300,-236 305.852,-232.221 312.338,-228.945 318.96,-226.125"/>
<polygon fill="midnightblue" stroke="midnightblue" points="221.586,-308.77 218.439,-318.886 227.208,-312.94 221.586,-308.77"/>
</g>
<!-- Node28 -->
<g id="node28" class="node"><title>Node28</title>
<g id="a_node28"><a xlink:href="class_kuszk_a_p_i_1_1_forms_1_1_bitmap.html#a7e210e4a89e10c8584badb55acb09016" target="_top" xlink:title="KuszkAPI::Forms::Bitmap\l::Bitmap">
<polygon fill="white" stroke="black" points="308.5,-147 308.5,-177 439.5,-177 439.5,-147 308.5,-147"/>
<text text-anchor="start" x="316.5" y="-165" font-family="Helvetica,sans-Serif" font-size="10.00">KuszkAPI::Forms::Bitmap</text>
<text text-anchor="middle" x="374" y="-154" font-family="Helvetica,sans-Serif" font-size="10.00">::Bitmap</text>
</a>
</g>
</g>
<!-- Node18&#45;&gt;Node28 -->
<g id="edge27" class="edge"><title>Node18&#45;&gt;Node28</title>
<path fill="none" stroke="midnightblue" d="M217.394,-309.03C230.873,-276.453 258.715,-219.76 300,-187 304.827,-183.17 310.277,-179.909 315.969,-177.136"/>
<polygon fill="midnightblue" stroke="midnightblue" points="213.991,-308.114 213.524,-318.698 220.49,-310.715 213.991,-308.114"/>
</g>
<!-- Node29 -->
<g id="node29" class="node"><title>Node29</title>
<g id="a_node29"><a xlink:href="class_kuszk_a_p_i_1_1_forms_1_1_cursor.html#a2d00aacc319f953ffd32d02bc80ba57e" target="_top" xlink:title="KuszkAPI::Forms::Cursor\l::Cursor">
<polygon fill="white" stroke="black" points="310,-98 310,-128 438,-128 438,-98 310,-98"/>
<text text-anchor="start" x="318" y="-116" font-family="Helvetica,sans-Serif" font-size="10.00">KuszkAPI::Forms::Cursor</text>
<text text-anchor="middle" x="374" y="-105" font-family="Helvetica,sans-Serif" font-size="10.00">::Cursor</text>
</a>
</g>
</g>
<!-- Node18&#45;&gt;Node29 -->
<g id="edge28" class="edge"><title>Node18&#45;&gt;Node29</title>
<path fill="none" stroke="midnightblue" d="M213.081,-309.016C222.766,-267.652 247.735,-184.861 300,-138 304.289,-134.155 309.197,-130.896 314.394,-128.135"/>
<polygon fill="midnightblue" stroke="midnightblue" points="209.654,-308.304 210.892,-318.826 216.486,-309.829 209.654,-308.304"/>
</g>
<!-- Node30 -->
<g id="node30" class="node"><title>Node30</title>
<g id="a_node30"><a xlink:href="class_kuszk_a_p_i_1_1_forms_1_1_icon.html#ae53ce4eadfe59d71d791b2a306c58e38" target="_top" xlink:title="KuszkAPI::Forms::Icon\l::Icon">
<polygon fill="white" stroke="black" points="315,-49 315,-79 433,-79 433,-49 315,-49"/>
<text text-anchor="start" x="323" y="-67" font-family="Helvetica,sans-Serif" font-size="10.00">KuszkAPI::Forms::Icon</text>
<text text-anchor="middle" x="374" y="-56" font-family="Helvetica,sans-Serif" font-size="10.00">::Icon</text>
</a>
</g>
</g>
<!-- Node18&#45;&gt;Node30 -->
<g id="edge29" class="edge"><title>Node18&#45;&gt;Node30</title>
<path fill="none" stroke="midnightblue" d="M210.42,-308.886C216.475,-259.786 236.668,-150.504 300,-89 304.325,-84.8002 309.384,-81.3044 314.787,-78.3949"/>
<polygon fill="midnightblue" stroke="midnightblue" points="206.928,-308.616 209.276,-318.948 213.883,-309.407 206.928,-308.616"/>
</g>
<!-- Node31 -->
<g id="node31" class="node"><title>Node31</title>
<g id="a_node31"><a xlink:href="class_kuszk_a_p_i_1_1_forms_1_1_region.html#ac1722eaf3c05a8b34ac4483a33f9bdc8" target="_top" xlink:title="KuszkAPI::Forms::Region\l::Region">
<polygon fill="white" stroke="black" points="309,-0 309,-30 439,-30 439,-0 309,-0"/>
<text text-anchor="start" x="317" y="-18" font-family="Helvetica,sans-Serif" font-size="10.00">KuszkAPI::Forms::Region</text>
<text text-anchor="middle" x="374" y="-7" font-family="Helvetica,sans-Serif" font-size="10.00">::Region</text>
</a>
</g>
</g>
<!-- Node18&#45;&gt;Node31 -->
<g id="edge30" class="edge"><title>Node18&#45;&gt;Node31</title>
<path fill="none" stroke="midnightblue" d="M208.581,-308.689C211.246,-252.546 225.497,-116.518 300,-40 303.738,-36.1608 308.09,-32.911 312.773,-30.1601"/>
<polygon fill="midnightblue" stroke="midnightblue" points="205.079,-308.682 208.189,-318.81 212.074,-308.954 205.079,-308.682"/>
</g>
</g>
</svg>
