<?xml version="1.0" encoding="UTF-8" standalone="no"?>
<!DOCTYPE svg PUBLIC "-//W3C//DTD SVG 1.1//EN"
 "http://www.w3.org/Graphics/SVG/1.1/DTD/svg11.dtd">
<!-- Generated by graphviz version 2.36.0 (20140111.2315)
 -->
<!-- Title: KuszkAPI::Containers::Box&lt; tnData &gt; Pages: 1 -->
<svg width="375pt" height="368pt"
 viewBox="0.00 0.00 375.00 368.00" xmlns="http://www.w3.org/2000/svg" xmlns:xlink="http://www.w3.org/1999/xlink">
<g id="graph0" class="graph" transform="scale(1 1) rotate(0) translate(4 364)">
<title>KuszkAPI::Containers::Box&lt; tnData &gt;</title>
<polygon fill="white" stroke="none" points="-4,4 -4,-364 371,-364 371,4 -4,4"/>
<!-- Node1 -->
<g id="node1" class="node"><title>Node1</title>
<polygon fill="#bfbfbf" stroke="black" points="-0.5,-1 -0.5,-31 112.5,-31 112.5,-1 -0.5,-1"/>
<text text-anchor="start" x="7.5" y="-19" font-family="Helvetica,sans-Serif" font-size="10.00">KuszkAPI::Containers</text>
<text text-anchor="middle" x="56" y="-8" font-family="Helvetica,sans-Serif" font-size="10.00">::Box&lt; tnData &gt;</text>
</g>
<!-- Node2 -->
<g id="node2" class="node"><title>Node2</title>
<g id="a_node2"><a xlink:href="namespace_3global_scope_4.html#classunsigned" target="_top" xlink:title="unsigned">
<polygon fill="white" stroke="black" points="71,-340.5 71,-359.5 127,-359.5 127,-340.5 71,-340.5"/>
<text text-anchor="middle" x="99" y="-347.5" font-family="Helvetica,sans-Serif" font-size="10.00">unsigned</text>
</a>
</g>
</g>
<!-- Node2&#45;&gt;Node1 -->
<g id="edge1" class="edge"><title>Node2&#45;&gt;Node1</title>
<path fill="none" stroke="#9a32cd" stroke-dasharray="5,2" d="M69.4883,-335.758C44.5985,-322.345 13,-299.012 13,-267 13,-267 13,-267 13,-95 13,-70.2591 29.7969,-45.9755 42.3945,-31.2421"/>
<polygon fill="#9a32cd" stroke="#9a32cd" points="68.1201,-338.989 78.6192,-340.41 71.2981,-332.752 68.1201,-338.989"/>
<text text-anchor="middle" x="27.5" y="-173.5" font-family="Helvetica,sans-Serif" font-size="10.00"> uIlosc</text>
</g>
<!-- Node3 -->
<g id="node3" class="node"><title>Node3</title>
<g id="a_node3"><a xlink:href="class_kuszk_a_p_i_1_1_containers_1_1_vector.html" target="_top" xlink:title="KuszkAPI::Containers\l::Vector\&lt; tnData * \&gt;">
<polygon fill="white" stroke="black" points="98.5,-81 98.5,-111 211.5,-111 211.5,-81 98.5,-81"/>
<text text-anchor="start" x="106.5" y="-99" font-family="Helvetica,sans-Serif" font-size="10.00">KuszkAPI::Containers</text>
<text text-anchor="middle" x="155" y="-88" font-family="Helvetica,sans-Serif" font-size="10.00">::Vector&lt; tnData * &gt;</text>
</a>
</g>
</g>
<!-- Node2&#45;&gt;Node3 -->
<g id="edge6" class="edge"><title>Node2&#45;&gt;Node3</title>
<path fill="none" stroke="#9a32cd" stroke-dasharray="5,2" d="M94.3176,-330.59C89.9028,-310.65 84.5733,-277.943 89,-250 97.6455,-195.427 130.13,-137.119 146.068,-111.027"/>
<polygon fill="#9a32cd" stroke="#9a32cd" points="90.9515,-331.564 96.6694,-340.483 97.7617,-329.945 90.9515,-331.564"/>
<text text-anchor="middle" x="123.5" y="-218.5" font-family="Helvetica,sans-Serif" font-size="10.00"> uDataSize</text>
</g>
<!-- Node4 -->
<g id="node4" class="node"><title>Node4</title>
<g id="a_node4"><a xlink:href="class_kuszk_a_p_i_1_1_containers_1_1_container.html" target="_top" xlink:title="Implementacja bazy dla modułu kontenerów. ">
<polygon fill="white" stroke="black" points="98.5,-251 98.5,-281 211.5,-281 211.5,-251 98.5,-251"/>
<text text-anchor="start" x="106.5" y="-269" font-family="Helvetica,sans-Serif" font-size="10.00">KuszkAPI::Containers</text>
<text text-anchor="middle" x="155" y="-258" font-family="Helvetica,sans-Serif" font-size="10.00">::Container</text>
</a>
</g>
</g>
<!-- Node2&#45;&gt;Node4 -->
<g id="edge4" class="edge"><title>Node2&#45;&gt;Node4</title>
<path fill="none" stroke="#9a32cd" stroke-dasharray="5,2" d="M110.718,-331.842C120.978,-316.819 135.707,-295.25 145.313,-281.184"/>
<polygon fill="#9a32cd" stroke="#9a32cd" points="107.742,-329.993 104.993,-340.225 113.523,-333.94 107.742,-329.993"/>
<text text-anchor="middle" x="148" y="-314" font-family="Helvetica,sans-Serif" font-size="10.00"> uIlosc</text>
<text text-anchor="middle" x="148" y="-303" font-family="Helvetica,sans-Serif" font-size="10.00">uMode</text>
</g>
<!-- Node6 -->
<g id="node6" class="node"><title>Node6</title>
<g id="a_node6"><a xlink:href="class_kuszk_a_p_i_1_1_containers_1_1_vector.html" target="_top" xlink:title="KuszkAPI::Containers\l::Vector\&lt; tnData \&gt;">
<polygon fill="white" stroke="black" points="186.5,-161 186.5,-191 299.5,-191 299.5,-161 186.5,-161"/>
<text text-anchor="start" x="194.5" y="-179" font-family="Helvetica,sans-Serif" font-size="10.00">KuszkAPI::Containers</text>
<text text-anchor="middle" x="243" y="-168" font-family="Helvetica,sans-Serif" font-size="10.00">::Vector&lt; tnData &gt;</text>
</a>
</g>
</g>
<!-- Node2&#45;&gt;Node6 -->
<g id="edge10" class="edge"><title>Node2&#45;&gt;Node6</title>
<path fill="none" stroke="#9a32cd" stroke-dasharray="5,2" d="M136.713,-338.741C164.708,-329.003 201.165,-311.387 220,-282 238.327,-253.405 242.22,-212.398 242.94,-191.08"/>
<polygon fill="#9a32cd" stroke="#9a32cd" points="135.615,-335.417 127.206,-341.863 137.799,-342.068 135.615,-335.417"/>
<text text-anchor="middle" x="258.5" y="-263.5" font-family="Helvetica,sans-Serif" font-size="10.00"> uDataSize</text>
</g>
<!-- Node3&#45;&gt;Node1 -->
<g id="edge2" class="edge"><title>Node3&#45;&gt;Node1</title>
<path fill="none" stroke="#9a32cd" stroke-dasharray="5,2" d="M128.809,-74.3645C111.537,-60.7566 89.3596,-43.2833 74.043,-31.2157"/>
<polygon fill="#9a32cd" stroke="#9a32cd" points="126.821,-77.2541 136.842,-80.6936 131.153,-71.7556 126.821,-77.2541"/>
<text text-anchor="middle" x="133.5" y="-53.5" font-family="Helvetica,sans-Serif" font-size="10.00"> vPointers</text>
</g>
<!-- Node4&#45;&gt;Node3 -->
<g id="edge3" class="edge"><title>Node4&#45;&gt;Node3</title>
<path fill="none" stroke="midnightblue" d="M155,-240.528C155,-204.956 155,-140.082 155,-111.351"/>
<polygon fill="midnightblue" stroke="midnightblue" points="151.5,-240.965 155,-250.965 158.5,-240.965 151.5,-240.965"/>
</g>
<!-- Node4&#45;&gt;Node6 -->
<g id="edge8" class="edge"><title>Node4&#45;&gt;Node6</title>
<path fill="none" stroke="midnightblue" d="M176.632,-243.368C192.926,-227.074 214.797,-205.203 228.896,-191.104"/>
<polygon fill="midnightblue" stroke="midnightblue" points="173.735,-241.315 169.139,-250.861 178.685,-246.265 173.735,-241.315"/>
</g>
<!-- Node5 -->
<g id="node5" class="node"><title>Node5</title>
<polygon fill="white" stroke="#bfbfbf" points="316.5,-256.5 316.5,-275.5 361.5,-275.5 361.5,-256.5 316.5,-256.5"/>
<text text-anchor="middle" x="339" y="-263.5" font-family="Helvetica,sans-Serif" font-size="10.00">tnData</text>
</g>
<!-- Node5&#45;&gt;Node3 -->
<g id="edge5" class="edge"><title>Node5&#45;&gt;Node3</title>
<path fill="none" stroke="#9a32cd" stroke-dasharray="5,2" d="M337.354,-245.979C334.574,-223.488 327.213,-185.852 308,-160 285.296,-129.451 245.107,-113.648 211.615,-105.51"/>
<polygon fill="#9a32cd" stroke="#9a32cd" points="333.904,-246.637 338.429,-256.217 340.866,-245.906 333.904,-246.637"/>
<text text-anchor="middle" x="345.5" y="-179" font-family="Helvetica,sans-Serif" font-size="10.00"> tAbstract</text>
<text text-anchor="middle" x="345.5" y="-168" font-family="Helvetica,sans-Serif" font-size="10.00">ptBegin</text>
</g>
<!-- Node5&#45;&gt;Node6 -->
<g id="edge9" class="edge"><title>Node5&#45;&gt;Node6</title>
<path fill="none" stroke="#9a32cd" stroke-dasharray="5,2" d="M310.719,-251.761C301.001,-246.43 290.451,-239.708 282,-232 269.027,-220.168 257.867,-203.319 250.849,-191.394"/>
<polygon fill="#9a32cd" stroke="#9a32cd" points="309.199,-254.916 319.685,-256.432 312.434,-248.708 309.199,-254.916"/>
<text text-anchor="middle" x="303.5" y="-224" font-family="Helvetica,sans-Serif" font-size="10.00"> tAbstract</text>
<text text-anchor="middle" x="303.5" y="-213" font-family="Helvetica,sans-Serif" font-size="10.00">ptBegin</text>
</g>
<!-- Node6&#45;&gt;Node3 -->
<g id="edge7" class="edge"><title>Node6&#45;&gt;Node3</title>
<path fill="none" stroke="orange" stroke-dasharray="5,2" d="M219.299,-153.992C204.009,-140.439 184.529,-123.174 171.038,-111.216"/>
<polygon fill="orange" stroke="orange" points="217.054,-156.68 226.859,-160.694 221.698,-151.441 217.054,-156.68"/>
<text text-anchor="middle" x="233.5" y="-133.5" font-family="Helvetica,sans-Serif" font-size="10.00"> &lt; tnData * &gt;</text>
</g>
</g>
</svg>
