<?xml version="1.0" encoding="UTF-8" standalone="no"?>
<!DOCTYPE svg PUBLIC "-//W3C//DTD SVG 1.1//EN"
 "http://www.w3.org/Graphics/SVG/1.1/DTD/svg11.dtd">
<!-- Generated by graphviz version 2.36.0 (20140111.2315)
 -->
<!-- Title: KuszkAPI::DateTime::Date Pages: 1 -->
<svg width="204pt" height="118pt"
 viewBox="0.00 0.00 204.00 118.00" xmlns="http://www.w3.org/2000/svg" xmlns:xlink="http://www.w3.org/1999/xlink">
<g id="graph0" class="graph" transform="scale(1 1) rotate(0) translate(4 114)">
<title>KuszkAPI::DateTime::Date</title>
<polygon fill="white" stroke="none" points="-4,4 -4,-114 200,-114 200,4 -4,4"/>
<!-- Node1 -->
<g id="node1" class="node"><title>Node1</title>
<polygon fill="#bfbfbf" stroke="black" points="44.5,-1 44.5,-31 151.5,-31 151.5,-1 44.5,-1"/>
<text text-anchor="start" x="52.5" y="-19" font-family="Helvetica,sans-Serif" font-size="10.00">KuszkAPI::DateTime</text>
<text text-anchor="middle" x="98" y="-8" font-family="Helvetica,sans-Serif" font-size="10.00">::Date</text>
</g>
<!-- Node2 -->
<g id="node2" class="node"><title>Node2</title>
<polygon fill="white" stroke="#bfbfbf" points="-0.5,-90.5 -0.5,-109.5 48.5,-109.5 48.5,-90.5 -0.5,-90.5"/>
<text text-anchor="middle" x="24" y="-97.5" font-family="Helvetica,sans-Serif" font-size="10.00">TCHAR</text>
</g>
<!-- Node2&#45;&gt;Node1 -->
<g id="edge1" class="edge"><title>Node2&#45;&gt;Node1</title>
<path fill="none" stroke="#9a32cd" stroke-dasharray="5,2" d="M28.1648,-80.1377C31.0613,-70.3271 35.7387,-58.6185 43,-50 49.3857,-42.4209 57.9788,-36.1231 66.4729,-31.1317"/>
<polygon fill="#9a32cd" stroke="#9a32cd" points="24.6932,-79.5866 25.6084,-90.1419 31.4753,-81.3197 24.6932,-79.5866"/>
<text text-anchor="middle" x="68.5" y="-58.5" font-family="Helvetica,sans-Serif" font-size="10.00"> cSeparator</text>
</g>
<!-- Node3 -->
<g id="node3" class="node"><title>Node3</title>
<polygon fill="white" stroke="#bfbfbf" points="83.5,-90.5 83.5,-109.5 112.5,-109.5 112.5,-90.5 83.5,-90.5"/>
<text text-anchor="middle" x="98" y="-97.5" font-family="Helvetica,sans-Serif" font-size="10.00">tm</text>
</g>
<!-- Node3&#45;&gt;Node1 -->
<g id="edge2" class="edge"><title>Node3&#45;&gt;Node1</title>
<path fill="none" stroke="#9a32cd" stroke-dasharray="5,2" d="M98,-80.1139C98,-65.2014 98,-44.7195 98,-31.1839"/>
<polygon fill="#9a32cd" stroke="#9a32cd" points="94.5001,-80.2245 98,-90.2246 101.5,-80.2246 94.5001,-80.2245"/>
<text text-anchor="middle" x="111.5" y="-58.5" font-family="Helvetica,sans-Serif" font-size="10.00"> tData</text>
</g>
<!-- Node4 -->
<g id="node4" class="node"><title>Node4</title>
<g id="a_node4"><a xlink:href="namespace_3global_scope_4.html#classunsigned" target="_top" xlink:title="unsigned">
<polygon fill="white" stroke="black" points="131,-90.5 131,-109.5 187,-109.5 187,-90.5 131,-90.5"/>
<text text-anchor="middle" x="159" y="-97.5" font-family="Helvetica,sans-Serif" font-size="10.00">unsigned</text>
</a>
</g>
</g>
<!-- Node4&#45;&gt;Node1 -->
<g id="edge3" class="edge"><title>Node4&#45;&gt;Node1</title>
<path fill="none" stroke="#9a32cd" stroke-dasharray="5,2" d="M149.373,-81.3538C143.856,-71.7678 136.544,-59.8878 129,-50 124.041,-43.5008 117.995,-36.8359 112.564,-31.2125"/>
<polygon fill="#9a32cd" stroke="#9a32cd" points="146.463,-83.3213 154.406,-90.3332 152.569,-79.8987 146.463,-83.3213"/>
<text text-anchor="middle" x="170" y="-64" font-family="Helvetica,sans-Serif" font-size="10.00"> uOrderFlag</text>
<text text-anchor="middle" x="170" y="-53" font-family="Helvetica,sans-Serif" font-size="10.00">uShowFlag</text>
</g>
</g>
</svg>
