<?xml version="1.0" encoding="UTF-8" standalone="no"?>
<!DOCTYPE svg PUBLIC "-//W3C//DTD SVG 1.1//EN"
 "http://www.w3.org/Graphics/SVG/1.1/DTD/svg11.dtd">
<!-- Generated by graphviz version 2.36.0 (20140111.2315)
 -->
<!-- Title: KuszkAPI::Containers::String::Unicode Pages: 1 -->
<svg width="298pt" height="185pt"
 viewBox="0.00 0.00 298.00 185.00" xmlns="http://www.w3.org/2000/svg" xmlns:xlink="http://www.w3.org/1999/xlink">
<g id="graph0" class="graph" transform="scale(1 1) rotate(0) translate(4 181)">
<title>KuszkAPI::Containers::String::Unicode</title>
<polygon fill="white" stroke="none" points="-4,4 -4,-181 294,-181 294,4 -4,4"/>
<!-- Node1 -->
<g id="node1" class="node"><title>Node1</title>
<polygon fill="#bfbfbf" stroke="black" points="0.5,-73 0.5,-103 113.5,-103 113.5,-73 0.5,-73"/>
<text text-anchor="start" x="8.5" y="-91" font-family="Helvetica,sans-Serif" font-size="10.00">KuszkAPI::Containers</text>
<text text-anchor="middle" x="57" y="-80" font-family="Helvetica,sans-Serif" font-size="10.00">::String::Unicode</text>
</g>
<!-- Node2 -->
<g id="node2" class="node"><title>Node2</title>
<g id="a_node2"><a xlink:href="class_kuszk_a_p_i_1_1_forms_1_1_table_box.html#a021fb29e9daaa0d0a5c3c28dc8d9ed77" target="_top" xlink:title="KuszkAPI::Forms::TableBox\l::AddGroup">
<polygon fill="white" stroke="black" points="150,-147 150,-177 290,-177 290,-147 150,-147"/>
<text text-anchor="start" x="158" y="-165" font-family="Helvetica,sans-Serif" font-size="10.00">KuszkAPI::Forms::TableBox</text>
<text text-anchor="middle" x="220" y="-154" font-family="Helvetica,sans-Serif" font-size="10.00">::AddGroup</text>
</a>
</g>
</g>
<!-- Node1&#45;&gt;Node2 -->
<g id="edge1" class="edge"><title>Node1&#45;&gt;Node2</title>
<path fill="none" stroke="midnightblue" d="M93.05,-108.176C109.976,-117.527 130.747,-128.437 150,-137 157.8,-140.469 166.243,-143.835 174.459,-146.914"/>
<polygon fill="midnightblue" stroke="midnightblue" points="94.5141,-104.985 84.0765,-103.166 91.1018,-111.097 94.5141,-104.985"/>
</g>
<!-- Node3 -->
<g id="node3" class="node"><title>Node3</title>
<g id="a_node3"><a xlink:href="class_kuszk_a_p_i_1_1_containers_1_1_strings.html#a847455d02fd870eae89f27d9ef176013" target="_top" xlink:title="KuszkAPI::Containers\l::Strings::AddToFile">
<polygon fill="white" stroke="black" points="163.5,-98 163.5,-128 276.5,-128 276.5,-98 163.5,-98"/>
<text text-anchor="start" x="171.5" y="-116" font-family="Helvetica,sans-Serif" font-size="10.00">KuszkAPI::Containers</text>
<text text-anchor="middle" x="220" y="-105" font-family="Helvetica,sans-Serif" font-size="10.00">::Strings::AddToFile</text>
</a>
</g>
</g>
<!-- Node1&#45;&gt;Node3 -->
<g id="edge2" class="edge"><title>Node1&#45;&gt;Node3</title>
<path fill="none" stroke="midnightblue" d="M123.752,-98.21C136.86,-100.245 150.508,-102.365 163.241,-104.342"/>
<polygon fill="midnightblue" stroke="midnightblue" points="124.277,-94.7496 113.858,-96.6736 123.203,-101.667 124.277,-94.7496"/>
</g>
<!-- Node4 -->
<g id="node4" class="node"><title>Node4</title>
<g id="a_node4"><a xlink:href="class_kuszk_a_p_i_1_1_containers_1_1_strings.html#a517c7f7cfe694d57fee12927ddc86b30" target="_top" xlink:title="KuszkAPI::Containers\l::Strings::SaveToFile">
<polygon fill="white" stroke="black" points="163.5,-49 163.5,-79 276.5,-79 276.5,-49 163.5,-49"/>
<text text-anchor="start" x="171.5" y="-67" font-family="Helvetica,sans-Serif" font-size="10.00">KuszkAPI::Containers</text>
<text text-anchor="middle" x="220" y="-56" font-family="Helvetica,sans-Serif" font-size="10.00">::Strings::SaveToFile</text>
</a>
</g>
</g>
<!-- Node1&#45;&gt;Node4 -->
<g id="edge3" class="edge"><title>Node1&#45;&gt;Node4</title>
<path fill="none" stroke="midnightblue" d="M123.752,-78.1984C136.86,-76.2445 150.508,-74.21 163.241,-72.312"/>
<polygon fill="midnightblue" stroke="midnightblue" points="123.233,-74.7371 113.858,-79.6733 124.265,-81.6606 123.233,-74.7371"/>
</g>
<!-- Node5 -->
<g id="node5" class="node"><title>Node5</title>
<g id="a_node5"><a xlink:href="class_kuszk_a_p_i_1_1_forms_1_1_table_box.html#a930631f9f9421e1e1e559bc70c3dd496" target="_top" xlink:title="KuszkAPI::Forms::TableBox\l::SetGroup">
<polygon fill="white" stroke="black" points="150,-0 150,-30 290,-30 290,-0 150,-0"/>
<text text-anchor="start" x="158" y="-18" font-family="Helvetica,sans-Serif" font-size="10.00">KuszkAPI::Forms::TableBox</text>
<text text-anchor="middle" x="220" y="-7" font-family="Helvetica,sans-Serif" font-size="10.00">::SetGroup</text>
</a>
</g>
</g>
<!-- Node1&#45;&gt;Node5 -->
<g id="edge4" class="edge"><title>Node1&#45;&gt;Node5</title>
<path fill="none" stroke="midnightblue" d="M93.4634,-68.0858C110.331,-58.9809 130.937,-48.382 150,-40 157.931,-36.5127 166.517,-33.1141 174.851,-30.0032"/>
<polygon fill="midnightblue" stroke="midnightblue" points="91.615,-65.1071 84.5104,-72.9668 94.9657,-71.2531 91.615,-65.1071"/>
</g>
</g>
</svg>
