<?xml version="1.0" encoding="UTF-8" standalone="no"?>
<!DOCTYPE svg PUBLIC "-//W3C//DTD SVG 1.1//EN"
 "http://www.w3.org/Graphics/SVG/1.1/DTD/svg11.dtd">
<!-- Generated by graphviz version 2.36.0 (20140111.2315)
 -->
<!-- Title: KuszkAPI::Forms::GdiObject&lt; tnData &gt; Pages: 1 -->
<svg width="572pt" height="234pt"
 viewBox="0.00 0.00 572.00 234.00" xmlns="http://www.w3.org/2000/svg" xmlns:xlink="http://www.w3.org/1999/xlink">
<g id="graph0" class="graph" transform="scale(1 1) rotate(0) translate(4 230)">
<title>KuszkAPI::Forms::GdiObject&lt; tnData &gt;</title>
<polygon fill="white" stroke="none" points="-4,4 -4,-230 568,-230 568,4 -4,4"/>
<!-- Node1 -->
<g id="node1" class="node"><title>Node1</title>
<polygon fill="#bfbfbf" stroke="black" points="0.5,-98 0.5,-128 143.5,-128 143.5,-98 0.5,-98"/>
<text text-anchor="start" x="8.5" y="-116" font-family="Helvetica,sans-Serif" font-size="10.00">KuszkAPI::Forms::GdiObject</text>
<text text-anchor="middle" x="72" y="-105" font-family="Helvetica,sans-Serif" font-size="10.00">&lt; tnData &gt;</text>
</g>
<!-- Node2 -->
<g id="node2" class="node"><title>Node2</title>
<g id="a_node2"><a xlink:href="class_kuszk_a_p_i_1_1_forms_1_1_gdi_object.html" target="_top" xlink:title="KuszkAPI::Forms::GdiObject\l\&lt; HBITMAP \&gt;">
<polygon fill="white" stroke="black" points="250.5,-196 250.5,-226 393.5,-226 393.5,-196 250.5,-196"/>
<text text-anchor="start" x="258.5" y="-214" font-family="Helvetica,sans-Serif" font-size="10.00">KuszkAPI::Forms::GdiObject</text>
<text text-anchor="middle" x="322" y="-203" font-family="Helvetica,sans-Serif" font-size="10.00">&lt; HBITMAP &gt;</text>
</a>
</g>
</g>
<!-- Node1&#45;&gt;Node2 -->
<g id="edge1" class="edge"><title>Node1&#45;&gt;Node2</title>
<path fill="none" stroke="orange" stroke-dasharray="5,2" d="M109.163,-132.799C125.111,-141.133 144.232,-150.594 162,-158 197.183,-172.666 237.994,-186.201 269.459,-195.921"/>
<polygon fill="orange" stroke="orange" points="110.65,-129.626 100.174,-128.046 107.378,-135.815 110.65,-129.626"/>
<text text-anchor="middle" x="197" y="-186" font-family="Helvetica,sans-Serif" font-size="10.00"> &lt; HBITMAP &gt;</text>
</g>
<!-- Node4 -->
<g id="node4" class="node"><title>Node4</title>
<g id="a_node4"><a xlink:href="class_kuszk_a_p_i_1_1_forms_1_1_gdi_object.html" target="_top" xlink:title="KuszkAPI::Forms::GdiObject\l\&lt; HRGN \&gt;">
<polygon fill="white" stroke="black" points="250.5,-147 250.5,-177 393.5,-177 393.5,-147 250.5,-147"/>
<text text-anchor="start" x="258.5" y="-165" font-family="Helvetica,sans-Serif" font-size="10.00">KuszkAPI::Forms::GdiObject</text>
<text text-anchor="middle" x="322" y="-154" font-family="Helvetica,sans-Serif" font-size="10.00">&lt; HRGN &gt;</text>
</a>
</g>
</g>
<!-- Node1&#45;&gt;Node4 -->
<g id="edge3" class="edge"><title>Node1&#45;&gt;Node4</title>
<path fill="none" stroke="orange" stroke-dasharray="5,2" d="M153.678,-128.94C184.788,-135.087 220.06,-142.056 250.171,-148.006"/>
<polygon fill="orange" stroke="orange" points="154.224,-125.481 143.735,-126.976 152.867,-132.348 154.224,-125.481"/>
<text text-anchor="middle" x="197" y="-146" font-family="Helvetica,sans-Serif" font-size="10.00"> &lt; HRGN &gt;</text>
</g>
<!-- Node6 -->
<g id="node6" class="node"><title>Node6</title>
<g id="a_node6"><a xlink:href="class_kuszk_a_p_i_1_1_forms_1_1_gdi_object.html" target="_top" xlink:title="KuszkAPI::Forms::GdiObject\l\&lt; HICON \&gt;">
<polygon fill="white" stroke="black" points="250.5,-98 250.5,-128 393.5,-128 393.5,-98 250.5,-98"/>
<text text-anchor="start" x="258.5" y="-116" font-family="Helvetica,sans-Serif" font-size="10.00">KuszkAPI::Forms::GdiObject</text>
<text text-anchor="middle" x="322" y="-105" font-family="Helvetica,sans-Serif" font-size="10.00">&lt; HICON &gt;</text>
</a>
</g>
</g>
<!-- Node1&#45;&gt;Node6 -->
<g id="edge5" class="edge"><title>Node1&#45;&gt;Node6</title>
<path fill="none" stroke="orange" stroke-dasharray="5,2" d="M154.082,-113C185.093,-113 220.19,-113 250.171,-113"/>
<polygon fill="orange" stroke="orange" points="153.735,-109.5 143.735,-113 153.735,-116.5 153.735,-109.5"/>
<text text-anchor="middle" x="197" y="-116" font-family="Helvetica,sans-Serif" font-size="10.00"> &lt; HICON &gt;</text>
</g>
<!-- Node8 -->
<g id="node8" class="node"><title>Node8</title>
<g id="a_node8"><a xlink:href="class_kuszk_a_p_i_1_1_forms_1_1_gdi_object.html" target="_top" xlink:title="KuszkAPI::Forms::GdiObject\l\&lt; HCURSOR \&gt;">
<polygon fill="white" stroke="black" points="250.5,-49 250.5,-79 393.5,-79 393.5,-49 250.5,-49"/>
<text text-anchor="start" x="258.5" y="-67" font-family="Helvetica,sans-Serif" font-size="10.00">KuszkAPI::Forms::GdiObject</text>
<text text-anchor="middle" x="322" y="-56" font-family="Helvetica,sans-Serif" font-size="10.00">&lt; HCURSOR &gt;</text>
</a>
</g>
</g>
<!-- Node1&#45;&gt;Node8 -->
<g id="edge7" class="edge"><title>Node1&#45;&gt;Node8</title>
<path fill="none" stroke="orange" stroke-dasharray="5,2" d="M153.678,-97.0596C184.788,-90.9128 220.06,-83.9438 250.171,-77.9944"/>
<polygon fill="orange" stroke="orange" points="152.867,-93.6521 143.735,-99.0241 154.224,-100.519 152.867,-93.6521"/>
<text text-anchor="middle" x="197" y="-97" font-family="Helvetica,sans-Serif" font-size="10.00"> &lt; HCURSOR &gt;</text>
</g>
<!-- Node10 -->
<g id="node10" class="node"><title>Node10</title>
<g id="a_node10"><a xlink:href="class_kuszk_a_p_i_1_1_forms_1_1_gdi_object.html" target="_top" xlink:title="KuszkAPI::Forms::GdiObject\l\&lt; HBRUSH \&gt;">
<polygon fill="white" stroke="black" points="250.5,-0 250.5,-30 393.5,-30 393.5,-0 250.5,-0"/>
<text text-anchor="start" x="258.5" y="-18" font-family="Helvetica,sans-Serif" font-size="10.00">KuszkAPI::Forms::GdiObject</text>
<text text-anchor="middle" x="322" y="-7" font-family="Helvetica,sans-Serif" font-size="10.00">&lt; HBRUSH &gt;</text>
</a>
</g>
</g>
<!-- Node1&#45;&gt;Node10 -->
<g id="edge9" class="edge"><title>Node1&#45;&gt;Node10</title>
<path fill="none" stroke="orange" stroke-dasharray="5,2" d="M108.38,-93.0477C124.457,-84.4178 143.895,-74.5815 162,-67 196.558,-52.5291 236.661,-39.4382 267.947,-30.0111"/>
<polygon fill="orange" stroke="orange" points="106.451,-90.1121 99.3374,-97.9633 109.795,-96.2621 106.451,-90.1121"/>
<text text-anchor="middle" x="197" y="-70" font-family="Helvetica,sans-Serif" font-size="10.00"> &lt; HBRUSH &gt;</text>
</g>
<!-- Node3 -->
<g id="node3" class="node"><title>Node3</title>
<g id="a_node3"><a xlink:href="class_kuszk_a_p_i_1_1_forms_1_1_bitmap.html" target="_top" xlink:title="KuszkAPI::Forms::Bitmap">
<polygon fill="white" stroke="black" points="432.5,-201.5 432.5,-220.5 563.5,-220.5 563.5,-201.5 432.5,-201.5"/>
<text text-anchor="middle" x="498" y="-208.5" font-family="Helvetica,sans-Serif" font-size="10.00">KuszkAPI::Forms::Bitmap</text>
</a>
</g>
</g>
<!-- Node2&#45;&gt;Node3 -->
<g id="edge2" class="edge"><title>Node2&#45;&gt;Node3</title>
<path fill="none" stroke="midnightblue" d="M403.814,-211C413.355,-211 422.996,-211 432.275,-211"/>
<polygon fill="midnightblue" stroke="midnightblue" points="403.522,-207.5 393.522,-211 403.522,-214.5 403.522,-207.5"/>
</g>
<!-- Node5 -->
<g id="node5" class="node"><title>Node5</title>
<g id="a_node5"><a xlink:href="class_kuszk_a_p_i_1_1_forms_1_1_region.html" target="_top" xlink:title="KuszkAPI::Forms::Region">
<polygon fill="white" stroke="black" points="433,-152.5 433,-171.5 563,-171.5 563,-152.5 433,-152.5"/>
<text text-anchor="middle" x="498" y="-159.5" font-family="Helvetica,sans-Serif" font-size="10.00">KuszkAPI::Forms::Region</text>
</a>
</g>
</g>
<!-- Node4&#45;&gt;Node5 -->
<g id="edge4" class="edge"><title>Node4&#45;&gt;Node5</title>
<path fill="none" stroke="midnightblue" d="M403.657,-162C413.441,-162 423.331,-162 432.831,-162"/>
<polygon fill="midnightblue" stroke="midnightblue" points="403.522,-158.5 393.522,-162 403.522,-165.5 403.522,-158.5"/>
</g>
<!-- Node7 -->
<g id="node7" class="node"><title>Node7</title>
<g id="a_node7"><a xlink:href="class_kuszk_a_p_i_1_1_forms_1_1_icon.html" target="_top" xlink:title="KuszkAPI::Forms::Icon">
<polygon fill="white" stroke="black" points="439,-103.5 439,-122.5 557,-122.5 557,-103.5 439,-103.5"/>
<text text-anchor="middle" x="498" y="-110.5" font-family="Helvetica,sans-Serif" font-size="10.00">KuszkAPI::Forms::Icon</text>
</a>
</g>
</g>
<!-- Node6&#45;&gt;Node7 -->
<g id="edge6" class="edge"><title>Node6&#45;&gt;Node7</title>
<path fill="none" stroke="midnightblue" d="M403.85,-113C415.672,-113 427.647,-113 438.894,-113"/>
<polygon fill="midnightblue" stroke="midnightblue" points="403.522,-109.5 393.522,-113 403.522,-116.5 403.522,-109.5"/>
</g>
<!-- Node9 -->
<g id="node9" class="node"><title>Node9</title>
<g id="a_node9"><a xlink:href="class_kuszk_a_p_i_1_1_forms_1_1_cursor.html" target="_top" xlink:title="KuszkAPI::Forms::Cursor">
<polygon fill="white" stroke="black" points="434,-54.5 434,-73.5 562,-73.5 562,-54.5 434,-54.5"/>
<text text-anchor="middle" x="498" y="-61.5" font-family="Helvetica,sans-Serif" font-size="10.00">KuszkAPI::Forms::Cursor</text>
</a>
</g>
</g>
<!-- Node8&#45;&gt;Node9 -->
<g id="edge8" class="edge"><title>Node8&#45;&gt;Node9</title>
<path fill="none" stroke="midnightblue" d="M403.635,-64C413.807,-64 424.097,-64 433.943,-64"/>
<polygon fill="midnightblue" stroke="midnightblue" points="403.522,-60.5001 393.522,-64 403.522,-67.5001 403.522,-60.5001"/>
</g>
<!-- Node11 -->
<g id="node11" class="node"><title>Node11</title>
<g id="a_node11"><a xlink:href="class_kuszk_a_p_i_1_1_forms_1_1_brush.html" target="_top" xlink:title="KuszkAPI::Forms::Brush">
<polygon fill="white" stroke="black" points="435.5,-5.5 435.5,-24.5 560.5,-24.5 560.5,-5.5 435.5,-5.5"/>
<text text-anchor="middle" x="498" y="-12.5" font-family="Helvetica,sans-Serif" font-size="10.00">KuszkAPI::Forms::Brush</text>
</a>
</g>
</g>
<!-- Node10&#45;&gt;Node11 -->
<g id="edge10" class="edge"><title>Node10&#45;&gt;Node11</title>
<path fill="none" stroke="midnightblue" d="M403.664,-15C414.305,-15 425.073,-15 435.326,-15"/>
<polygon fill="midnightblue" stroke="midnightblue" points="403.522,-11.5001 393.522,-15 403.522,-18.5001 403.522,-11.5001"/>
</g>
</g>
</svg>
