<?xml version="1.0" encoding="UTF-8" standalone="no"?>
<!DOCTYPE svg PUBLIC "-//W3C//DTD SVG 1.1//EN"
 "http://www.w3.org/Graphics/SVG/1.1/DTD/svg11.dtd">
<!-- Generated by graphviz version 2.36.0 (20140111.2315)
 -->
<!-- Title: KuszkAPI::Forms::Icon::Load Pages: 1 -->
<svg width="276pt" height="87pt"
 viewBox="0.00 0.00 276.00 87.00" xmlns="http://www.w3.org/2000/svg" xmlns:xlink="http://www.w3.org/1999/xlink">
<g id="graph0" class="graph" transform="scale(1 1) rotate(0) translate(4 83)">
<title>KuszkAPI::Forms::Icon::Load</title>
<polygon fill="white" stroke="none" points="-4,4 -4,-83 272,-83 272,4 -4,4"/>
<!-- Node1 -->
<g id="node1" class="node"><title>Node1</title>
<polygon fill="#bfbfbf" stroke="black" points="0,-24 0,-54 118,-54 118,-24 0,-24"/>
<text text-anchor="start" x="8" y="-42" font-family="Helvetica,sans-Serif" font-size="10.00">KuszkAPI::Forms::Icon</text>
<text text-anchor="middle" x="59" y="-31" font-family="Helvetica,sans-Serif" font-size="10.00">::Load</text>
</g>
<!-- Node2 -->
<g id="node2" class="node"><title>Node2</title>
<g id="a_node2"><a xlink:href="class_kuszk_a_p_i_1_1_containers_1_1_string.html#a95d2a3884d9390d418b665d888451edf" target="_top" xlink:title="KuszkAPI::Containers\l::String::Contain">
<polygon fill="white" stroke="black" points="154.5,-49 154.5,-79 267.5,-79 267.5,-49 154.5,-49"/>
<text text-anchor="start" x="162.5" y="-67" font-family="Helvetica,sans-Serif" font-size="10.00">KuszkAPI::Containers</text>
<text text-anchor="middle" x="211" y="-56" font-family="Helvetica,sans-Serif" font-size="10.00">::String::Contain</text>
</a>
</g>
</g>
<!-- Node1&#45;&gt;Node2 -->
<g id="edge1" class="edge"><title>Node1&#45;&gt;Node2</title>
<path fill="none" stroke="midnightblue" d="M118.423,-48.7372C126.937,-50.1562 135.751,-51.6252 144.396,-53.066"/>
<polygon fill="midnightblue" stroke="midnightblue" points="143.999,-56.5481 154.439,-54.7398 145.15,-49.6433 143.999,-56.5481"/>
</g>
<!-- Node3 -->
<g id="node3" class="node"><title>Node3</title>
<g id="a_node3"><a xlink:href="class_kuszk_a_p_i_1_1_containers_1_1_string.html#a264c6116e5592a4464828feb720c8f3a" target="_top" xlink:title="KuszkAPI::Containers\l::String::Str">
<polygon fill="white" stroke="black" points="154.5,-0 154.5,-30 267.5,-30 267.5,-0 154.5,-0"/>
<text text-anchor="start" x="162.5" y="-18" font-family="Helvetica,sans-Serif" font-size="10.00">KuszkAPI::Containers</text>
<text text-anchor="middle" x="211" y="-7" font-family="Helvetica,sans-Serif" font-size="10.00">::String::Str</text>
</a>
</g>
</g>
<!-- Node1&#45;&gt;Node3 -->
<g id="edge2" class="edge"><title>Node1&#45;&gt;Node3</title>
<path fill="none" stroke="midnightblue" d="M118.423,-29.6523C126.937,-28.29 135.751,-26.8798 144.396,-25.4966"/>
<polygon fill="midnightblue" stroke="midnightblue" points="145.117,-28.9259 154.439,-23.8898 144.011,-22.0138 145.117,-28.9259"/>
</g>
</g>
</svg>
