<?xml version="1.0" encoding="UTF-8" standalone="no"?>
<!DOCTYPE svg PUBLIC "-//W3C//DTD SVG 1.1//EN"
 "http://www.w3.org/Graphics/SVG/1.1/DTD/svg11.dtd">
<!-- Generated by graphviz version 2.36.0 (20140111.2315)
 -->
<!-- Title: KuszkAPI::Forms::Window::Timer Pages: 1 -->
<!--zoomable 853 -->
<svg id="main" version="1.1" xmlns="http://www.w3.org/2000/svg" xmlns:xlink="http://www.w3.org/1999/xlink" xml:space="preserve" onload="init(evt)">
<style type="text/css"><![CDATA[
.edge:hover path { stroke: red; }
.edge:hover polygon { stroke: red; fill: red; }
]]></style>
<script type="text/javascript"><![CDATA[
var edges = document.getElementsByTagName('g');
if (edges && edges.length) {
  for (var i=0;i<edges.length;i++) {
    if (edges[i].id.substr(0,4)=='edge') {
      edges[i].setAttribute('class','edge');
    }
  }
}
]]></script>
        <defs>
                <circle id="rim" cx="0" cy="0" r="7"/>
                <circle id="rim2" cx="0" cy="0" r="3.5"/>
                <g id="zoomPlus">
                        <use xlink:href="#rim" fill="#404040">
                                <set attributeName="fill" to="#808080" begin="zoomplus.mouseover" end="zoomplus.mouseout"/>
                        </use>
                        <path d="M-4,0h8M0,-4v8" fill="none" stroke="white" stroke-width="1.5" pointer-events="none"/>
                </g>
                <g id="zoomMin">
                        <use xlink:href="#rim" fill="#404040">
                                <set attributeName="fill" to="#808080" begin="zoomminus.mouseover" end="zoomminus.mouseout"/>
                        </use>
                        <path d="M-4,0h8" fill="none" stroke="white" stroke-width="1.5" pointer-events="none"/>
                </g>
                <g id="dirArrow">
                        <path fill="none" stroke="white" stroke-width="1.5" d="M0,-3.0v7 M-2.5,-0.5L0,-3.0L2.5,-0.5"/>
                </g>
               <g id="resetDef">
                       <use xlink:href="#rim2" fill="#404040">
                               <set attributeName="fill" to="#808080" begin="reset.mouseover" end="reset.mouseout"/>
                       </use>
               </g>
        </defs>

<script type="text/javascript">
var viewWidth = 1536;
var viewHeight = 853;
var sectionId = 'dynsection-0';
</script>
<script xlink:href="svgpan.js"/>
<svg id="graph" class="graph">
<g id="viewport">
<title>KuszkAPI::Forms::Window::Timer</title>
<polygon fill="white" stroke="none" points="-4,4 -4,-849 1532,-849 1532,4 -4,4"/>
<!-- Node1 -->
<g id="node1" class="node"><title>Node1</title>
<polygon fill="#bfbfbf" stroke="black" points="1394,-482 1394,-512 1528,-512 1528,-482 1394,-482"/>
<text text-anchor="start" x="1402" y="-500" font-family="Helvetica,sans-Serif" font-size="10.00">KuszkAPI::Forms::Window</text>
<text text-anchor="middle" x="1461" y="-489" font-family="Helvetica,sans-Serif" font-size="10.00">::Timer</text>
</g>
<!-- Node2 -->
<g id="node2" class="node"><title>Node2</title>
<polygon fill="white" stroke="#bfbfbf" points="1221.5,-507.5 1221.5,-526.5 1268.5,-526.5 1268.5,-507.5 1221.5,-507.5"/>
<text text-anchor="middle" x="1245" y="-514.5" font-family="Helvetica,sans-Serif" font-size="10.00">HWND</text>
</g>
<!-- Node2&#45;&gt;Node1 -->
<g id="edge1" class="edge"><title>Node2&#45;&gt;Node1</title>
<path fill="none" stroke="#9a32cd" stroke-dasharray="5,2" d="M1278.98,-513.918C1309.44,-511.071 1355.59,-506.758 1393.66,-503.2"/>
<polygon fill="#9a32cd" stroke="#9a32cd" points="1278.53,-510.444 1268.9,-514.86 1279.18,-517.414 1278.53,-510.444"/>
<text text-anchor="middle" x="1357" y="-512" font-family="Helvetica,sans-Serif" font-size="10.00"> hOwner</text>
</g>
<!-- Node3 -->
<g id="node3" class="node"><title>Node3</title>
<g id="a_node3"><a xlink:href="class_kuszk_a_p_i_1_1_containers_1_1_map.html" target="_top" xlink:title="KuszkAPI::Containers\l::Map\&lt; UINT_PTR, unsigned \&gt;">
<polygon fill="white" stroke="black" points="1170.5,-458 1170.5,-488 1319.5,-488 1319.5,-458 1170.5,-458"/>
<text text-anchor="start" x="1178.5" y="-476" font-family="Helvetica,sans-Serif" font-size="10.00">KuszkAPI::Containers</text>
<text text-anchor="middle" x="1245" y="-465" font-family="Helvetica,sans-Serif" font-size="10.00">::Map&lt; UINT_PTR, unsigned &gt;</text>
</a>
</g>
</g>
<!-- Node3&#45;&gt;Node1 -->
<g id="edge2" class="edge"><title>Node3&#45;&gt;Node1</title>
<path fill="none" stroke="#9a32cd" stroke-dasharray="5,2" d="M1329.64,-482.38C1350.91,-484.766 1373.48,-487.296 1393.75,-489.57"/>
<polygon fill="#9a32cd" stroke="#9a32cd" points="1329.97,-478.896 1319.65,-481.259 1329.19,-485.852 1329.97,-478.896"/>
<text text-anchor="middle" x="1357" y="-491" font-family="Helvetica,sans-Serif" font-size="10.00"> mTimer</text>
</g>
<!-- Node4 -->
<g id="node4" class="node"><title>Node4</title>
<g id="a_node4"><a xlink:href="class_kuszk_a_p_i_1_1_containers_1_1_list.html" target="_top" xlink:title="KuszkAPI::Containers\l::List\&lt; unsigned \&gt;">
<polygon fill="white" stroke="black" points="568.5,-308 568.5,-338 681.5,-338 681.5,-308 568.5,-308"/>
<text text-anchor="start" x="576.5" y="-326" font-family="Helvetica,sans-Serif" font-size="10.00">KuszkAPI::Containers</text>
<text text-anchor="middle" x="625" y="-315" font-family="Helvetica,sans-Serif" font-size="10.00">::List&lt; unsigned &gt;</text>
</a>
</g>
</g>
<!-- Node4&#45;&gt;Node3 -->
<g id="edge3" class="edge"><title>Node4&#45;&gt;Node3</title>
<path fill="none" stroke="#9a32cd" stroke-dasharray="5,2" d="M691.443,-338.884C811.263,-367.967 1064.34,-429.393 1181.75,-457.89"/>
<polygon fill="#9a32cd" stroke="#9a32cd" points="692.203,-335.467 681.66,-336.51 690.552,-342.27 692.203,-335.467"/>
<text text-anchor="middle" x="938" y="-410" font-family="Helvetica,sans-Serif" font-size="10.00"> lKey</text>
</g>
<!-- Node5 -->
<g id="node5" class="node"><title>Node5</title>
<g id="a_node5"><a xlink:href="class_kuszk_a_p_i_1_1_containers_1_1_container.html" target="_top" xlink:title="Implementacja bazy dla modułu kontenerów. ">
<polygon fill="white" stroke="black" points="132.5,-390 132.5,-420 245.5,-420 245.5,-390 132.5,-390"/>
<text text-anchor="start" x="140.5" y="-408" font-family="Helvetica,sans-Serif" font-size="10.00">KuszkAPI::Containers</text>
<text text-anchor="middle" x="189" y="-397" font-family="Helvetica,sans-Serif" font-size="10.00">::Container</text>
</a>
</g>
</g>
<!-- Node5&#45;&gt;Node4 -->
<g id="edge4" class="edge"><title>Node5&#45;&gt;Node4</title>
<path fill="none" stroke="midnightblue" d="M255.71,-392.714C327.161,-379.335 444.715,-357.27 546,-338 553.18,-336.634 560.73,-335.191 568.189,-333.761"/>
<polygon fill="midnightblue" stroke="midnightblue" points="254.695,-389.343 245.51,-394.623 255.984,-396.223 254.695,-389.343"/>
</g>
<!-- Node9 -->
<g id="node9" class="node"><title>Node9</title>
<g id="a_node9"><a xlink:href="class_kuszk_a_p_i_1_1_containers_1_1_list.html" target="_top" xlink:title="Implementacja szablonu listy dla modułu kontenerów. ">
<polygon fill="white" stroke="black" points="340.5,-308 340.5,-338 453.5,-338 453.5,-308 340.5,-308"/>
<text text-anchor="start" x="348.5" y="-326" font-family="Helvetica,sans-Serif" font-size="10.00">KuszkAPI::Containers</text>
<text text-anchor="middle" x="397" y="-315" font-family="Helvetica,sans-Serif" font-size="10.00">::List&lt; tnData &gt;</text>
</a>
</g>
</g>
<!-- Node5&#45;&gt;Node9 -->
<g id="edge11" class="edge"><title>Node5&#45;&gt;Node9</title>
<path fill="none" stroke="midnightblue" d="M209.26,-382.414C224.5,-366.226 247.274,-345.499 272,-335 293.202,-325.997 318.224,-322.408 340.218,-321.287"/>
<polygon fill="midnightblue" stroke="midnightblue" points="206.558,-380.183 202.409,-389.931 211.732,-384.898 206.558,-380.183"/>
</g>
<!-- Node12 -->
<g id="node12" class="node"><title>Node12</title>
<g id="a_node12"><a xlink:href="class_kuszk_a_p_i_1_1_containers_1_1_vector.html" target="_top" xlink:title="KuszkAPI::Containers\l::Vector\&lt; UINT_PTR * \&gt;">
<polygon fill="white" stroke="black" points="564.5,-656 564.5,-686 685.5,-686 685.5,-656 564.5,-656"/>
<text text-anchor="start" x="572.5" y="-674" font-family="Helvetica,sans-Serif" font-size="10.00">KuszkAPI::Containers</text>
<text text-anchor="middle" x="625" y="-663" font-family="Helvetica,sans-Serif" font-size="10.00">::Vector&lt; UINT_PTR * &gt;</text>
</a>
</g>
</g>
<!-- Node5&#45;&gt;Node12 -->
<g id="edge17" class="edge"><title>Node5&#45;&gt;Node12</title>
<path fill="none" stroke="midnightblue" d="M255.441,-420.814C277.049,-426.957 300.935,-434.762 322,-444 384.614,-471.46 410.386,-470.346 454,-523 468.8,-540.867 456.535,-554.705 472,-572 496.51,-599.411 514.996,-589.231 546,-609 568.316,-623.229 591.819,-642.596 607.118,-655.877"/>
<polygon fill="midnightblue" stroke="midnightblue" points="256.264,-417.41 245.692,-418.109 254.392,-424.155 256.264,-417.41"/>
</g>
<!-- Node15 -->
<g id="node15" class="node"><title>Node15</title>
<g id="a_node15"><a xlink:href="class_kuszk_a_p_i_1_1_containers_1_1_vector.html" target="_top" xlink:title="KuszkAPI::Containers\l::Vector\&lt; tnData \&gt;">
<polygon fill="white" stroke="black" points="340.5,-568 340.5,-598 453.5,-598 453.5,-568 340.5,-568"/>
<text text-anchor="start" x="348.5" y="-586" font-family="Helvetica,sans-Serif" font-size="10.00">KuszkAPI::Containers</text>
<text text-anchor="middle" x="397" y="-575" font-family="Helvetica,sans-Serif" font-size="10.00">::Vector&lt; tnData &gt;</text>
</a>
</g>
</g>
<!-- Node5&#45;&gt;Node15 -->
<g id="edge22" class="edge"><title>Node5&#45;&gt;Node15</title>
<path fill="none" stroke="midnightblue" d="M234.426,-424.215C270.382,-440.144 316.011,-461.366 322,-469 345.566,-499.04 317.045,-522.491 340,-553 344.509,-558.993 350.574,-563.919 357.05,-567.922"/>
<polygon fill="midnightblue" stroke="midnightblue" points="235.616,-420.915 225.054,-420.085 232.793,-427.321 235.616,-420.915"/>
</g>
<!-- Node17 -->
<g id="node17" class="node"><title>Node17</title>
<g id="a_node17"><a xlink:href="class_kuszk_a_p_i_1_1_containers_1_1_vector.html" target="_top" xlink:title="KuszkAPI::Containers\l::Vector\&lt; tnData * \&gt;">
<polygon fill="white" stroke="black" points="568.5,-512 568.5,-542 681.5,-542 681.5,-512 568.5,-512"/>
<text text-anchor="start" x="576.5" y="-530" font-family="Helvetica,sans-Serif" font-size="10.00">KuszkAPI::Containers</text>
<text text-anchor="middle" x="625" y="-519" font-family="Helvetica,sans-Serif" font-size="10.00">::Vector&lt; tnData * &gt;</text>
</a>
</g>
</g>
<!-- Node5&#45;&gt;Node17 -->
<g id="edge29" class="edge"><title>Node5&#45;&gt;Node17</title>
<path fill="none" stroke="midnightblue" d="M255.782,-405.517C309.747,-407.237 387.77,-412.709 454,-429 496.959,-439.567 507.69,-444.876 546,-467 568.488,-479.987 591.77,-498.704 606.974,-511.768"/>
<polygon fill="midnightblue" stroke="midnightblue" points="255.752,-402.015 245.657,-405.229 255.553,-409.012 255.752,-402.015"/>
</g>
<!-- Node20 -->
<g id="node20" class="node"><title>Node20</title>
<g id="a_node20"><a xlink:href="class_kuszk_a_p_i_1_1_containers_1_1_list.html" target="_top" xlink:title="KuszkAPI::Containers\l::List\&lt; tnKey \&gt;">
<polygon fill="white" stroke="black" points="568.5,-116 568.5,-146 681.5,-146 681.5,-116 568.5,-116"/>
<text text-anchor="start" x="576.5" y="-134" font-family="Helvetica,sans-Serif" font-size="10.00">KuszkAPI::Containers</text>
<text text-anchor="middle" x="625" y="-123" font-family="Helvetica,sans-Serif" font-size="10.00">::List&lt; tnKey &gt;</text>
</a>
</g>
</g>
<!-- Node5&#45;&gt;Node20 -->
<g id="edge36" class="edge"><title>Node5&#45;&gt;Node20</title>
<path fill="none" stroke="midnightblue" d="M208.373,-381.935C223.951,-363.38 247.596,-337.448 272,-319 344.953,-263.852 373.34,-266.097 454,-223 504.318,-196.115 562.774,-164.367 596.37,-146.07"/>
<polygon fill="midnightblue" stroke="midnightblue" points="205.475,-379.948 201.81,-389.889 210.874,-384.403 205.475,-379.948"/>
</g>
<!-- Node6 -->
<g id="node6" class="node"><title>Node6</title>
<g id="a_node6"><a xlink:href="namespace_3global_scope_4.html#classunsigned" target="_top" xlink:title="unsigned">
<polygon fill="white" stroke="black" points="0,-586.5 0,-605.5 56,-605.5 56,-586.5 0,-586.5"/>
<text text-anchor="middle" x="28" y="-593.5" font-family="Helvetica,sans-Serif" font-size="10.00">unsigned</text>
</a>
</g>
</g>
<!-- Node6&#45;&gt;Node3 -->
<g id="edge14" class="edge"><title>Node6&#45;&gt;Node3</title>
<path fill="none" stroke="#9a32cd" stroke-dasharray="5,2" d="M32.302,-615.527C43.1479,-672.414 83.1811,-834 188,-834 188,-834 188,-834 1048,-834 1182,-834 1107.34,-677.341 1152,-551 1160.29,-527.545 1152.4,-515.577 1170,-498 1173.84,-494.168 1178.28,-490.922 1183.05,-488.175"/>
<polygon fill="#9a32cd" stroke="#9a32cd" points="35.735,-614.842 30.5114,-605.625 28.8467,-616.088 35.735,-614.842"/>
<text text-anchor="middle" x="625" y="-837" font-family="Helvetica,sans-Serif" font-size="10.00"> uIlosc</text>
</g>
<!-- Node6&#45;&gt;Node4 -->
<g id="edge9" class="edge"><title>Node6&#45;&gt;Node4</title>
<path fill="none" stroke="#9a32cd" stroke-dasharray="5,2" d="M30.8573,-576.278C34.6821,-543.103 45.6023,-474.875 74,-425 136.046,-316.029 156.329,-272.423 272,-224 292.499,-215.419 300.056,-220.495 322,-224 422.525,-240.056 535.015,-284.391 590.01,-307.903"/>
<polygon fill="#9a32cd" stroke="#9a32cd" points="27.3514,-576.151 29.7833,-586.463 34.3128,-576.885 27.3514,-576.151"/>
<text text-anchor="middle" x="297" y="-227" font-family="Helvetica,sans-Serif" font-size="10.00"> tAbstract</text>
</g>
<!-- Node6&#45;&gt;Node5 -->
<g id="edge5" class="edge"><title>Node6&#45;&gt;Node5</title>
<path fill="none" stroke="#9a32cd" stroke-dasharray="5,2" d="M30.0091,-576.007C32.5794,-545.533 41.693,-487.289 74,-452 89.3231,-435.263 111.502,-424.328 132.232,-417.26"/>
<polygon fill="#9a32cd" stroke="#9a32cd" points="26.5011,-576.005 29.3097,-586.221 33.4848,-576.483 26.5011,-576.005"/>
<text text-anchor="middle" x="90" y="-466" font-family="Helvetica,sans-Serif" font-size="10.00"> uIlosc</text>
<text text-anchor="middle" x="90" y="-455" font-family="Helvetica,sans-Serif" font-size="10.00">uMode</text>
</g>
<!-- Node11 -->
<g id="node11" class="node"><title>Node11</title>
<g id="a_node11"><a xlink:href="class_kuszk_a_p_i_1_1_containers_1_1_box.html" target="_top" xlink:title="KuszkAPI::Containers\l::Box\&lt; UINT_PTR \&gt;">
<polygon fill="white" stroke="black" points="990.5,-619 990.5,-649 1103.5,-649 1103.5,-619 990.5,-619"/>
<text text-anchor="start" x="998.5" y="-637" font-family="Helvetica,sans-Serif" font-size="10.00">KuszkAPI::Containers</text>
<text text-anchor="middle" x="1047" y="-626" font-family="Helvetica,sans-Serif" font-size="10.00">::Box&lt; UINT_PTR &gt;</text>
</a>
</g>
</g>
<!-- Node6&#45;&gt;Node11 -->
<g id="edge25" class="edge"><title>Node6&#45;&gt;Node11</title>
<path fill="none" stroke="#9a32cd" stroke-dasharray="5,2" d="M34.6407,-615.164C50.2527,-663.765 98.8767,-788 188,-788 188,-788 188,-788 827,-788 922.981,-788 1006.61,-687.797 1035.37,-649.047"/>
<polygon fill="#9a32cd" stroke="#9a32cd" points="37.9575,-614.043 31.6617,-605.521 31.2694,-616.109 37.9575,-614.043"/>
<text text-anchor="middle" x="509" y="-791" font-family="Helvetica,sans-Serif" font-size="10.00"> uIlosc</text>
</g>
<!-- Node6&#45;&gt;Node12 -->
<g id="edge19" class="edge"><title>Node6&#45;&gt;Node12</title>
<path fill="none" stroke="#9a32cd" stroke-dasharray="5,2" d="M40.4096,-614.133C48.5004,-625.63 60.3234,-639.982 74,-649 177.281,-717.101 217.668,-712.572 340,-731 430.842,-744.684 459.493,-744.92 546,-714 565.657,-706.974 586.273,-695.4 601.371,-686.029"/>
<polygon fill="#9a32cd" stroke="#9a32cd" points="43.226,-612.049 34.757,-605.683 37.4076,-615.941 43.226,-612.049"/>
<text text-anchor="middle" x="297" y="-731" font-family="Helvetica,sans-Serif" font-size="10.00"> uDataSize</text>
</g>
<!-- Node6&#45;&gt;Node15 -->
<g id="edge24" class="edge"><title>Node6&#45;&gt;Node15</title>
<path fill="none" stroke="#9a32cd" stroke-dasharray="5,2" d="M66.4538,-594.673C131.293,-592.377 264.755,-587.649 340.433,-584.968"/>
<polygon fill="#9a32cd" stroke="#9a32cd" points="66.1546,-591.182 56.2848,-595.034 66.4025,-598.177 66.1546,-591.182"/>
<text text-anchor="middle" x="189" y="-595" font-family="Helvetica,sans-Serif" font-size="10.00"> uDataSize</text>
</g>
<!-- Node16 -->
<g id="node16" class="node"><title>Node16</title>
<g id="a_node16"><a xlink:href="class_kuszk_a_p_i_1_1_containers_1_1_box.html" target="_top" xlink:title="Implementacja szablonu pudełka dla modułu kontenerów. ">
<polygon fill="white" stroke="black" points="769.5,-596 769.5,-626 882.5,-626 882.5,-596 769.5,-596"/>
<text text-anchor="start" x="777.5" y="-614" font-family="Helvetica,sans-Serif" font-size="10.00">KuszkAPI::Containers</text>
<text text-anchor="middle" x="826" y="-603" font-family="Helvetica,sans-Serif" font-size="10.00">::Box&lt; tnData &gt;</text>
</a>
</g>
</g>
<!-- Node6&#45;&gt;Node16 -->
<g id="edge27" class="edge"><title>Node6&#45;&gt;Node16</title>
<path fill="none" stroke="#9a32cd" stroke-dasharray="5,2" d="M66.3226,-605.827C68.9087,-606.29 71.4856,-606.69 74,-607 208.421,-623.554 619.257,-615.874 769.347,-612.391"/>
<polygon fill="#9a32cd" stroke="#9a32cd" points="66.9176,-602.376 56.4165,-603.782 65.5025,-609.232 66.9176,-602.376"/>
<text text-anchor="middle" x="397" y="-620" font-family="Helvetica,sans-Serif" font-size="10.00"> uIlosc</text>
</g>
<!-- Node6&#45;&gt;Node17 -->
<g id="edge31" class="edge"><title>Node6&#45;&gt;Node17</title>
<path fill="none" stroke="#9a32cd" stroke-dasharray="5,2" d="M41.4366,-577.968C57.5686,-556.348 87.9542,-521.247 124,-507 278.315,-446.008 480.691,-487.161 573.512,-511.99"/>
<polygon fill="#9a32cd" stroke="#9a32cd" points="38.4321,-576.15 35.4206,-586.308 44.1093,-580.245 38.4321,-576.15"/>
<text text-anchor="middle" x="297" y="-480" font-family="Helvetica,sans-Serif" font-size="10.00"> uDataSize</text>
</g>
<!-- Node18 -->
<g id="node18" class="node"><title>Node18</title>
<g id="a_node18"><a xlink:href="class_kuszk_a_p_i_1_1_containers_1_1_map.html" target="_top" xlink:title="KuszkAPI::Containers\l::Map\&lt; tnData, tnKey \&gt;">
<polygon fill="white" stroke="black" points="766.5,-62 766.5,-92 885.5,-92 885.5,-62 766.5,-62"/>
<text text-anchor="start" x="774.5" y="-80" font-family="Helvetica,sans-Serif" font-size="10.00">KuszkAPI::Containers</text>
<text text-anchor="middle" x="826" y="-69" font-family="Helvetica,sans-Serif" font-size="10.00">::Map&lt; tnData, tnKey &gt;</text>
</a>
</g>
</g>
<!-- Node6&#45;&gt;Node18 -->
<g id="edge40" class="edge"><title>Node6&#45;&gt;Node18</title>
<path fill="none" stroke="#9a32cd" stroke-dasharray="5,2" d="M29.0869,-576.158C29.7099,-499.661 34.6933,-224.353 74,-148 104.849,-88.0768 120.603,-48 188,-48 188,-48 188,-48 626,-48 673.482,-48 726.678,-56.1846 766.115,-63.8576"/>
<polygon fill="#9a32cd" stroke="#9a32cd" points="25.586,-576.291 29.0213,-586.314 32.5859,-576.337 25.586,-576.291"/>
<text text-anchor="middle" x="397" y="-51" font-family="Helvetica,sans-Serif" font-size="10.00"> uIlosc</text>
</g>
<!-- Node7 -->
<g id="node7" class="node"><title>Node7</title>
<g id="a_node7"><a xlink:href="class_kuszk_a_p_i_1_1_containers_1_1_list.html#struct_kuszk_a_p_i_1_1_containers_1_1_list_1_1_item_data" target="_top" xlink:title="Struktura przechowująca wskaźnik na element listy oraz wskaźnik na kolejny obiekt. ">
<polygon fill="white" stroke="black" points="124,-137 124,-167 254,-167 254,-137 124,-137"/>
<text text-anchor="start" x="132" y="-155" font-family="Helvetica,sans-Serif" font-size="10.00">KuszkAPI::Containers</text>
<text text-anchor="middle" x="189" y="-144" font-family="Helvetica,sans-Serif" font-size="10.00">::List&lt; tnData &gt;::ItemData</text>
</a>
</g>
</g>
<!-- Node7&#45;&gt;Node4 -->
<g id="edge6" class="edge"><title>Node7&#45;&gt;Node4</title>
<path fill="none" stroke="#9a32cd" stroke-dasharray="5,2" d="M264.467,-162.129C354.613,-175.442 500.068,-200.616 546,-230 577.597,-250.213 602.964,-287.279 615.489,-307.99"/>
<polygon fill="#9a32cd" stroke="#9a32cd" points="264.701,-158.626 254.3,-160.643 263.689,-165.552 264.701,-158.626"/>
<text text-anchor="middle" x="397" y="-211" font-family="Helvetica,sans-Serif" font-size="10.00"> ptLast</text>
<text text-anchor="middle" x="397" y="-200" font-family="Helvetica,sans-Serif" font-size="10.00">ptBegin</text>
</g>
<!-- Node7&#45;&gt;Node7 -->
<g id="edge7" class="edge"><title>Node7&#45;&gt;Node7</title>
<path fill="none" stroke="#9a32cd" stroke-dasharray="5,2" d="M171.846,-177.598C174.19,-181.97 179.908,-185 189,-185 204.313,-185 210.055,-176.406 206.227,-167.275"/>
<polygon fill="#9a32cd" stroke="#9a32cd" points="175.344,-177.25 171.773,-167.275 168.344,-177.3 175.344,-177.25"/>
<text text-anchor="middle" x="189" y="-188" font-family="Helvetica,sans-Serif" font-size="10.00"> ptNext</text>
</g>
<!-- Node7&#45;&gt;Node9 -->
<g id="edge13" class="edge"><title>Node7&#45;&gt;Node9</title>
<path fill="none" stroke="#9a32cd" stroke-dasharray="5,2" d="M209.881,-174.965C225.834,-192.791 249.246,-217.645 272,-237 304.328,-264.5 345.397,-291.634 371.198,-307.853"/>
<polygon fill="#9a32cd" stroke="#9a32cd" points="212.356,-172.48 203.106,-167.314 207.115,-177.121 212.356,-172.48"/>
<text text-anchor="middle" x="297" y="-289" font-family="Helvetica,sans-Serif" font-size="10.00"> ptLast</text>
<text text-anchor="middle" x="297" y="-278" font-family="Helvetica,sans-Serif" font-size="10.00">ptBegin</text>
</g>
<!-- Node7&#45;&gt;Node20 -->
<g id="edge37" class="edge"><title>Node7&#45;&gt;Node20</title>
<path fill="none" stroke="#9a32cd" stroke-dasharray="5,2" d="M235.745,-133.282C265.005,-122.34 304.078,-109.607 340,-104 418.786,-91.7015 510.802,-105.551 568.246,-117.524"/>
<polygon fill="#9a32cd" stroke="#9a32cd" points="234.316,-130.081 226.217,-136.912 236.808,-136.623 234.316,-130.081"/>
<text text-anchor="middle" x="397" y="-118" font-family="Helvetica,sans-Serif" font-size="10.00"> ptLast</text>
<text text-anchor="middle" x="397" y="-107" font-family="Helvetica,sans-Serif" font-size="10.00">ptBegin</text>
</g>
<!-- Node8 -->
<g id="node8" class="node"><title>Node8</title>
<polygon fill="white" stroke="#bfbfbf" points="2,-142.5 2,-161.5 54,-161.5 54,-142.5 2,-142.5"/>
<text text-anchor="middle" x="28" y="-149.5" font-family="Helvetica,sans-Serif" font-size="10.00">tnData *</text>
</g>
<!-- Node8&#45;&gt;Node7 -->
<g id="edge8" class="edge"><title>Node8&#45;&gt;Node7</title>
<path fill="none" stroke="#9a32cd" stroke-dasharray="5,2" d="M64.4904,-152C81.966,-152 103.584,-152 123.825,-152"/>
<polygon fill="#9a32cd" stroke="#9a32cd" points="64.1941,-148.5 54.194,-152 64.194,-155.5 64.1941,-148.5"/>
<text text-anchor="middle" x="90" y="-155" font-family="Helvetica,sans-Serif" font-size="10.00"> ptData</text>
</g>
<!-- Node9&#45;&gt;Node4 -->
<g id="edge10" class="edge"><title>Node9&#45;&gt;Node4</title>
<path fill="none" stroke="orange" stroke-dasharray="5,2" d="M463.636,-323C496.793,-323 536.593,-323 568.248,-323"/>
<polygon fill="orange" stroke="orange" points="463.575,-319.5 453.575,-323 463.575,-326.5 463.575,-319.5"/>
<text text-anchor="middle" x="509" y="-326" font-family="Helvetica,sans-Serif" font-size="10.00"> &lt; unsigned &gt;</text>
</g>
<!-- Node9&#45;&gt;Node20 -->
<g id="edge39" class="edge"><title>Node9&#45;&gt;Node20</title>
<path fill="none" stroke="orange" stroke-dasharray="5,2" d="M438.62,-302.932C443.931,-299.823 449.192,-296.48 454,-293 518.398,-246.385 583.326,-176.79 610.612,-146.271"/>
<polygon fill="orange" stroke="orange" points="436.718,-299.986 429.705,-307.927 440.14,-306.092 436.718,-299.986"/>
<text text-anchor="middle" x="509" y="-281" font-family="Helvetica,sans-Serif" font-size="10.00"> &lt; tnKey &gt;</text>
</g>
<!-- Node10 -->
<g id="node10" class="node"><title>Node10</title>
<polygon fill="white" stroke="#bfbfbf" points="166.5,-516.5 166.5,-535.5 211.5,-535.5 211.5,-516.5 166.5,-516.5"/>
<text text-anchor="middle" x="189" y="-523.5" font-family="Helvetica,sans-Serif" font-size="10.00">tnData</text>
</g>
<!-- Node10&#45;&gt;Node9 -->
<g id="edge12" class="edge"><title>Node10&#45;&gt;Node9</title>
<path fill="none" stroke="#9a32cd" stroke-dasharray="5,2" d="M207.152,-509.098C246.506,-470.316 342.798,-375.427 380.501,-338.273"/>
<polygon fill="#9a32cd" stroke="#9a32cd" points="204.326,-506.969 199.66,-516.481 209.239,-511.955 204.326,-506.969"/>
<text text-anchor="middle" x="297" y="-446" font-family="Helvetica,sans-Serif" font-size="10.00"> tAbstract</text>
</g>
<!-- Node10&#45;&gt;Node15 -->
<g id="edge23" class="edge"><title>Node10&#45;&gt;Node15</title>
<path fill="none" stroke="#9a32cd" stroke-dasharray="5,2" d="M221.547,-533.662C248.363,-540.286 287.836,-550.297 322,-560 330.671,-562.463 339.872,-565.212 348.732,-567.928"/>
<polygon fill="#9a32cd" stroke="#9a32cd" points="222.126,-530.2 211.579,-531.212 220.455,-536.998 222.126,-530.2"/>
<text text-anchor="middle" x="297" y="-574" font-family="Helvetica,sans-Serif" font-size="10.00"> tAbstract</text>
<text text-anchor="middle" x="297" y="-563" font-family="Helvetica,sans-Serif" font-size="10.00">ptBegin</text>
</g>
<!-- Node10&#45;&gt;Node17 -->
<g id="edge30" class="edge"><title>Node10&#45;&gt;Node17</title>
<path fill="none" stroke="#9a32cd" stroke-dasharray="5,2" d="M221.936,-526.074C295.269,-526.243 476.454,-526.66 568.466,-526.872"/>
<polygon fill="#9a32cd" stroke="#9a32cd" points="221.53,-522.573 211.522,-526.05 221.514,-529.573 221.53,-522.573"/>
<text text-anchor="middle" x="397" y="-541" font-family="Helvetica,sans-Serif" font-size="10.00"> tAbstract</text>
<text text-anchor="middle" x="397" y="-530" font-family="Helvetica,sans-Serif" font-size="10.00">ptBegin</text>
</g>
<!-- Node11&#45;&gt;Node3 -->
<g id="edge15" class="edge"><title>Node11&#45;&gt;Node3</title>
<path fill="none" stroke="#9a32cd" stroke-dasharray="5,2" d="M1063.67,-609.954C1084.53,-579.745 1124.16,-528.213 1170,-498 1175.77,-494.194 1182.19,-490.913 1188.75,-488.097"/>
<polygon fill="#9a32cd" stroke="#9a32cd" points="1060.53,-608.355 1057.82,-618.597 1066.32,-612.282 1060.53,-608.355"/>
<text text-anchor="middle" x="1137" y="-539" font-family="Helvetica,sans-Serif" font-size="10.00"> bData</text>
</g>
<!-- Node12&#45;&gt;Node11 -->
<g id="edge16" class="edge"><title>Node12&#45;&gt;Node11</title>
<path fill="none" stroke="#9a32cd" stroke-dasharray="5,2" d="M695.791,-664.852C778.493,-657.566 914.611,-645.575 990.494,-638.89"/>
<polygon fill="#9a32cd" stroke="#9a32cd" points="695.384,-661.374 685.73,-665.738 695.998,-668.347 695.384,-661.374"/>
<text text-anchor="middle" x="826" y="-661" font-family="Helvetica,sans-Serif" font-size="10.00"> vPointers</text>
</g>
<!-- Node13 -->
<g id="node13" class="node"><title>Node13</title>
<polygon fill="white" stroke="#bfbfbf" points="363,-664.5 363,-683.5 431,-683.5 431,-664.5 363,-664.5"/>
<text text-anchor="middle" x="397" y="-671.5" font-family="Helvetica,sans-Serif" font-size="10.00">UINT_PTR *</text>
</g>
<!-- Node13&#45;&gt;Node12 -->
<g id="edge18" class="edge"><title>Node13&#45;&gt;Node12</title>
<path fill="none" stroke="#9a32cd" stroke-dasharray="5,2" d="M441.67,-673.42C476.503,-672.958 525.662,-672.305 564.159,-671.794"/>
<polygon fill="#9a32cd" stroke="#9a32cd" points="441.3,-669.925 431.347,-673.557 441.393,-676.924 441.3,-669.925"/>
<text text-anchor="middle" x="509" y="-675" font-family="Helvetica,sans-Serif" font-size="10.00"> tAbstract</text>
</g>
<!-- Node14 -->
<g id="node14" class="node"><title>Node14</title>
<polygon fill="white" stroke="#bfbfbf" points="361,-702.5 361,-721.5 433,-721.5 433,-702.5 361,-702.5"/>
<text text-anchor="middle" x="397" y="-709.5" font-family="Helvetica,sans-Serif" font-size="10.00">UINT_PTR **</text>
</g>
<!-- Node14&#45;&gt;Node12 -->
<g id="edge20" class="edge"><title>Node14&#45;&gt;Node12</title>
<path fill="none" stroke="#9a32cd" stroke-dasharray="5,2" d="M443.004,-704.818C472.371,-700.027 511.516,-693.447 546,-687 551.979,-685.882 558.207,-684.676 564.421,-683.445"/>
<polygon fill="#9a32cd" stroke="#9a32cd" points="442.358,-701.377 433.048,-706.434 443.48,-708.286 442.358,-701.377"/>
<text text-anchor="middle" x="509" y="-702" font-family="Helvetica,sans-Serif" font-size="10.00"> ptBegin</text>
</g>
<!-- Node15&#45;&gt;Node12 -->
<g id="edge21" class="edge"><title>Node15&#45;&gt;Node12</title>
<path fill="none" stroke="orange" stroke-dasharray="5,2" d="M445.945,-601.669C487.421,-617.819 546.628,-640.873 585.187,-655.887"/>
<polygon fill="orange" stroke="orange" points="447.182,-598.395 436.594,-598.028 444.643,-604.918 447.182,-598.395"/>
<text text-anchor="middle" x="509" y="-643" font-family="Helvetica,sans-Serif" font-size="10.00"> &lt; UINT_PTR * &gt;</text>
</g>
<!-- Node15&#45;&gt;Node17 -->
<g id="edge32" class="edge"><title>Node15&#45;&gt;Node17</title>
<path fill="none" stroke="orange" stroke-dasharray="5,2" d="M463.636,-566.736C496.793,-558.52 536.593,-548.658 568.248,-540.815"/>
<polygon fill="orange" stroke="orange" points="462.44,-563.427 453.575,-569.229 464.124,-570.221 462.44,-563.427"/>
<text text-anchor="middle" x="509" y="-566" font-family="Helvetica,sans-Serif" font-size="10.00"> &lt; tnData * &gt;</text>
</g>
<!-- Node16&#45;&gt;Node11 -->
<g id="edge26" class="edge"><title>Node16&#45;&gt;Node11</title>
<path fill="none" stroke="orange" stroke-dasharray="5,2" d="M892.835,-617.914C923.862,-621.173 960.481,-625.019 990.133,-628.133"/>
<polygon fill="orange" stroke="orange" points="892.857,-614.397 882.546,-616.834 892.126,-621.359 892.857,-614.397"/>
<text text-anchor="middle" x="938" y="-628" font-family="Helvetica,sans-Serif" font-size="10.00"> &lt; UINT_PTR &gt;</text>
</g>
<!-- Node17&#45;&gt;Node16 -->
<g id="edge28" class="edge"><title>Node17&#45;&gt;Node16</title>
<path fill="none" stroke="#9a32cd" stroke-dasharray="5,2" d="M670.835,-545.925C706.676,-561.054 756.239,-581.975 789.396,-595.971"/>
<polygon fill="#9a32cd" stroke="#9a32cd" points="672.151,-542.682 661.577,-542.018 669.429,-549.131 672.151,-542.682"/>
<text text-anchor="middle" x="726" y="-579" font-family="Helvetica,sans-Serif" font-size="10.00"> vPointers</text>
</g>
<!-- Node18&#45;&gt;Node3 -->
<g id="edge33" class="edge"><title>Node18&#45;&gt;Node3</title>
<path fill="none" stroke="orange" stroke-dasharray="5,2" d="M850.482,-99.2993C926.461,-171.452 1164.39,-397.396 1228.15,-457.945"/>
<polygon fill="orange" stroke="orange" points="852.499,-96.3883 842.838,-92.0401 847.679,-101.464 852.499,-96.3883"/>
<text text-anchor="middle" x="1047" y="-343" font-family="Helvetica,sans-Serif" font-size="10.00"> &lt; UINT_PTR, unsigned &gt;</text>
</g>
<!-- Node19 -->
<g id="node19" class="node"><title>Node19</title>
<polygon fill="white" stroke="#bfbfbf" points="585,-0.5 585,-19.5 665,-19.5 665,-0.5 585,-0.5"/>
<text text-anchor="middle" x="625" y="-7.5" font-family="Helvetica,sans-Serif" font-size="10.00">Box&lt; tnData &gt;</text>
</g>
<!-- Node19&#45;&gt;Node18 -->
<g id="edge34" class="edge"><title>Node19&#45;&gt;Node18</title>
<path fill="none" stroke="#9a32cd" stroke-dasharray="5,2" d="M675.189,-9.64622C697.959,-10.8791 724.998,-14.3715 748,-23 771.237,-31.7167 794.026,-49.1194 808.706,-61.8206"/>
<polygon fill="#9a32cd" stroke="#9a32cd" points="675.194,-6.14352 665.058,-9.22845 674.905,-13.1376 675.194,-6.14352"/>
<text text-anchor="middle" x="726" y="-26" font-family="Helvetica,sans-Serif" font-size="10.00"> bData</text>
</g>
<!-- Node20&#45;&gt;Node18 -->
<g id="edge35" class="edge"><title>Node20&#45;&gt;Node18</title>
<path fill="none" stroke="#9a32cd" stroke-dasharray="5,2" d="M691.309,-113.278C716.601,-106.415 745.249,-98.641 769.52,-92.0549"/>
<polygon fill="#9a32cd" stroke="#9a32cd" points="690.167,-109.961 681.433,-115.958 692,-116.717 690.167,-109.961"/>
<text text-anchor="middle" x="726" y="-112" font-family="Helvetica,sans-Serif" font-size="10.00"> lKey</text>
</g>
<!-- Node21 -->
<g id="node21" class="node"><title>Node21</title>
<polygon fill="white" stroke="#bfbfbf" points="376,-135.5 376,-154.5 418,-154.5 418,-135.5 376,-135.5"/>
<text text-anchor="middle" x="397" y="-142.5" font-family="Helvetica,sans-Serif" font-size="10.00">tnKey</text>
</g>
<!-- Node21&#45;&gt;Node20 -->
<g id="edge38" class="edge"><title>Node21&#45;&gt;Node20</title>
<path fill="none" stroke="#9a32cd" stroke-dasharray="5,2" d="M428.357,-138.486C441.679,-135.934 457.547,-133.308 472,-132 503.801,-129.122 539.498,-128.742 568.303,-129.14"/>
<polygon fill="#9a32cd" stroke="#9a32cd" points="427.417,-135.104 418.294,-140.49 428.785,-141.97 427.417,-135.104"/>
<text text-anchor="middle" x="509" y="-135" font-family="Helvetica,sans-Serif" font-size="10.00"> tAbstract</text>
</g>
</g>
</svg>
        <g id="navigator" transform="translate(0 0)" fill="#404254">
                <rect fill="#f2f5e9" fill-opacity="0.5" stroke="#606060" stroke-width=".5" x="0" y="0" width="60" height="60"/>
                <use id="zoomplus" xlink:href="#zoomPlus" x="17" y="9" onmousedown="handleZoom(evt,'in')"/>
                <use id="zoomminus" xlink:href="#zoomMin" x="42" y="9" onmousedown="handleZoom(evt,'out')"/>
                <use id="reset" xlink:href="#resetDef" x="30" y="36" onmousedown="handleReset()"/>
                <g id="arrowUp" xlink:href="#dirArrow" transform="translate(30 24)" onmousedown="handlePan(0,-1)">
                  <use xlink:href="#rim" fill="#404040">
                        <set attributeName="fill" to="#808080" begin="arrowUp.mouseover" end="arrowUp.mouseout"/>
                  </use>
                  <path fill="none" stroke="white" stroke-width="1.5" d="M0,-3.0v7 M-2.5,-0.5L0,-3.0L2.5,-0.5"/>
                </g>
                <g id="arrowRight" xlink:href="#dirArrow" transform="rotate(90) translate(36 -43)" onmousedown="handlePan(1,0)">
                  <use xlink:href="#rim" fill="#404040">
                        <set attributeName="fill" to="#808080" begin="arrowRight.mouseover" end="arrowRight.mouseout"/>
                  </use>
                  <path fill="none" stroke="white" stroke-width="1.5" d="M0,-3.0v7 M-2.5,-0.5L0,-3.0L2.5,-0.5"/>
                </g>
                <g id="arrowDown" xlink:href="#dirArrow" transform="rotate(180) translate(-30 -48)" onmousedown="handlePan(0,1)">
                  <use xlink:href="#rim" fill="#404040">
                        <set attributeName="fill" to="#808080" begin="arrowDown.mouseover" end="arrowDown.mouseout"/>
                  </use>
                  <path fill="none" stroke="white" stroke-width="1.5" d="M0,-3.0v7 M-2.5,-0.5L0,-3.0L2.5,-0.5"/>
                </g>
                <g id="arrowLeft" xlink:href="#dirArrow" transform="rotate(270) translate(-36 17)" onmousedown="handlePan(-1,0)">
                  <use xlink:href="#rim" fill="#404040">
                        <set attributeName="fill" to="#808080" begin="arrowLeft.mouseover" end="arrowLeft.mouseout"/>
                  </use>
                  <path fill="none" stroke="white" stroke-width="1.5" d="M0,-3.0v7 M-2.5,-0.5L0,-3.0L2.5,-0.5"/>
                </g>
        </g>
        <svg viewBox="0 0 15 15" width="100%" height="30px" preserveAspectRatio="xMaxYMin meet">
         <g id="arrow_out" transform="scale(0.3 0.3)">
          <a xlink:href="class_kuszk_a_p_i_1_1_forms_1_1_window_1_1_timer__coll__graph_org.svg" target="_base">
           <rect id="button" ry="5" rx="5" y="6" x="6" height="38" width="38"
                fill="#f2f5e9" fill-opacity="0.5" stroke="#606060" stroke-width="1.0"/>
           <path id="arrow"
             d="M 11.500037,31.436501 C 11.940474,20.09759 22.043105,11.32322 32.158766,21.979434 L 37.068811,17.246167 C 37.068811,17.246167 37.088388,32 37.088388,32 L 22.160133,31.978069 C 22.160133,31.978069 26.997745,27.140456 26.997745,27.140456 C 18.528582,18.264221 13.291696,25.230495 11.500037,31.436501 z"
             style="fill:#404040;"/>
          </a>
         </g>
        </svg>
</svg>
