<?xml version="1.0" encoding="UTF-8" standalone="no"?>
<!DOCTYPE svg PUBLIC "-//W3C//DTD SVG 1.1//EN"
 "http://www.w3.org/Graphics/SVG/1.1/DTD/svg11.dtd">
<!-- Generated by graphviz version 2.36.0 (20140111.2315)
 -->
<!-- Title: KuszkAPI::Sockets::Client Pages: 1 -->
<svg width="251pt" height="178pt"
 viewBox="0.00 0.00 251.00 178.00" xmlns="http://www.w3.org/2000/svg" xmlns:xlink="http://www.w3.org/1999/xlink">
<g id="graph0" class="graph" transform="scale(1 1) rotate(0) translate(4 174)">
<title>KuszkAPI::Sockets::Client</title>
<polygon fill="white" stroke="none" points="-4,4 -4,-174 247,-174 247,4 -4,4"/>
<!-- Node1 -->
<g id="node1" class="node"><title>Node1</title>
<polygon fill="#bfbfbf" stroke="black" points="135,-1 135,-31 243,-31 243,-1 135,-1"/>
<text text-anchor="start" x="143" y="-19" font-family="Helvetica,sans-Serif" font-size="10.00">KuszkAPI::Sockets::</text>
<text text-anchor="middle" x="189" y="-8" font-family="Helvetica,sans-Serif" font-size="10.00">Client</text>
</g>
<!-- Node2 -->
<g id="node2" class="node"><title>Node2</title>
<g id="a_node2"><a xlink:href="class_kuszk_a_p_i_1_1_sockets_1_1_socket.html" target="_top" xlink:title="KuszkAPI::Sockets::\lSocket">
<polygon fill="white" stroke="black" points="60,-71 60,-101 168,-101 168,-71 60,-71"/>
<text text-anchor="start" x="68" y="-89" font-family="Helvetica,sans-Serif" font-size="10.00">KuszkAPI::Sockets::</text>
<text text-anchor="middle" x="114" y="-78" font-family="Helvetica,sans-Serif" font-size="10.00">Socket</text>
</a>
</g>
</g>
<!-- Node2&#45;&gt;Node1 -->
<g id="edge1" class="edge"><title>Node2&#45;&gt;Node1</title>
<path fill="none" stroke="#8b1a1a" d="M137.272,-63.8998C149.05,-53.2214 163.026,-40.5498 173.48,-31.0716"/>
<polygon fill="#8b1a1a" stroke="#8b1a1a" points="134.597,-61.6005 129.54,-70.9104 139.299,-66.7864 134.597,-61.6005"/>
</g>
<!-- Node3 -->
<g id="node3" class="node"><title>Node3</title>
<polygon fill="white" stroke="#bfbfbf" points="0,-150.5 0,-169.5 56,-169.5 56,-150.5 0,-150.5"/>
<text text-anchor="middle" x="28" y="-157.5" font-family="Helvetica,sans-Serif" font-size="10.00">SOCKET</text>
</g>
<!-- Node3&#45;&gt;Node2 -->
<g id="edge2" class="edge"><title>Node3&#45;&gt;Node2</title>
<path fill="none" stroke="#9a32cd" stroke-dasharray="5,2" d="M42.5773,-142.64C49.3876,-135.374 57.7913,-126.919 66,-120 73.8871,-113.352 83.1093,-106.763 91.3506,-101.241"/>
<polygon fill="#9a32cd" stroke="#9a32cd" points="39.5894,-140.721 35.4216,-150.462 44.7541,-145.446 39.5894,-140.721"/>
<text text-anchor="middle" x="86" y="-123.5" font-family="Helvetica,sans-Serif" font-size="10.00"> sSocket</text>
</g>
<!-- Node4 -->
<g id="node4" class="node"><title>Node4</title>
<polygon fill="white" stroke="#bfbfbf" points="74.5,-150.5 74.5,-169.5 143.5,-169.5 143.5,-150.5 74.5,-150.5"/>
<text text-anchor="middle" x="109" y="-157.5" font-family="Helvetica,sans-Serif" font-size="10.00">sockaddr_in</text>
</g>
<!-- Node4&#45;&gt;Node2 -->
<g id="edge3" class="edge"><title>Node4&#45;&gt;Node2</title>
<path fill="none" stroke="#9a32cd" stroke-dasharray="5,2" d="M109.126,-139.989C109.264,-133.627 109.524,-126.502 110,-120 110.455,-113.784 111.238,-106.939 111.992,-101.103"/>
<polygon fill="#9a32cd" stroke="#9a32cd" points="105.622,-140.268 108.987,-150.314 112.621,-140.362 105.622,-140.268"/>
<text text-anchor="middle" x="127" y="-123.5" font-family="Helvetica,sans-Serif" font-size="10.00"> sAdres</text>
</g>
<!-- Node5 -->
<g id="node5" class="node"><title>Node5</title>
<g id="a_node5"><a xlink:href="namespace_3global_scope_4.html#classunsigned" target="_top" xlink:title="unsigned">
<polygon fill="white" stroke="black" points="172,-150.5 172,-169.5 228,-169.5 228,-150.5 172,-150.5"/>
<text text-anchor="middle" x="200" y="-157.5" font-family="Helvetica,sans-Serif" font-size="10.00">unsigned</text>
</a>
</g>
</g>
<!-- Node5&#45;&gt;Node1 -->
<g id="edge5" class="edge"><title>Node5&#45;&gt;Node1</title>
<path fill="none" stroke="#9a32cd" stroke-dasharray="5,2" d="M198.536,-140.103C196.301,-111.247 192.087,-56.8487 190.095,-31.1408"/>
<polygon fill="#9a32cd" stroke="#9a32cd" points="195.05,-140.417 199.312,-150.117 202.029,-139.877 195.05,-140.417"/>
<text text-anchor="middle" x="210" y="-83.5" font-family="Helvetica,sans-Serif" font-size="10.00"> uSize</text>
</g>
<!-- Node5&#45;&gt;Node2 -->
<g id="edge4" class="edge"><title>Node5&#45;&gt;Node2</title>
<path fill="none" stroke="#9a32cd" stroke-dasharray="5,2" d="M181.321,-143.816C176.632,-139.977 171.62,-135.851 167,-132 154.761,-121.799 141.052,-110.153 130.644,-101.265"/>
<polygon fill="#9a32cd" stroke="#9a32cd" points="179.298,-146.683 189.259,-150.294 183.724,-141.26 179.298,-146.683"/>
<text text-anchor="middle" x="181.5" y="-123.5" font-family="Helvetica,sans-Serif" font-size="10.00"> uIlosc</text>
</g>
</g>
</svg>
