<?xml version="1.0" encoding="UTF-8" standalone="no"?>
<!DOCTYPE svg PUBLIC "-//W3C//DTD SVG 1.1//EN"
 "http://www.w3.org/Graphics/SVG/1.1/DTD/svg11.dtd">
<!-- Generated by graphviz version 2.36.0 (20140111.2315)
 -->
<!-- Title: KuszkAPI::Forms::Font&lt; tnKey &gt; Pages: 1 -->
<svg width="1584pt" height="762pt"
 viewBox="0.00 0.00 1584.00 762.00" xmlns="http://www.w3.org/2000/svg" xmlns:xlink="http://www.w3.org/1999/xlink">
<g id="graph0" class="graph" transform="scale(1 1) rotate(0) translate(4 758)">
<title>KuszkAPI::Forms::Font&lt; tnKey &gt;</title>
<polygon fill="white" stroke="none" points="-4,4 -4,-758 1580,-758 1580,4 -4,4"/>
<!-- Node1 -->
<g id="node1" class="node"><title>Node1</title>
<polygon fill="#bfbfbf" stroke="black" points="1456.5,-626 1456.5,-656 1575.5,-656 1575.5,-626 1456.5,-626"/>
<text text-anchor="start" x="1464.5" y="-644" font-family="Helvetica,sans-Serif" font-size="10.00">KuszkAPI::Forms::Font</text>
<text text-anchor="middle" x="1516" y="-633" font-family="Helvetica,sans-Serif" font-size="10.00">&lt; tnKey &gt;</text>
</g>
<!-- Node2 -->
<g id="node2" class="node"><title>Node2</title>
<polygon fill="white" stroke="#bfbfbf" points="164.5,-573.5 164.5,-592.5 213.5,-592.5 213.5,-573.5 164.5,-573.5"/>
<text text-anchor="middle" x="189" y="-580.5" font-family="Helvetica,sans-Serif" font-size="10.00">HFONT</text>
</g>
<!-- Node2&#45;&gt;Node1 -->
<g id="edge1" class="edge"><title>Node2&#45;&gt;Node1</title>
<path fill="none" stroke="#9a32cd" stroke-dasharray="5,2" d="M206.94,-600.021C240.466,-631.806 318.985,-697 399,-697 399,-697 399,-697 1319,-697 1378.81,-697 1445.07,-672.595 1483.2,-656.007"/>
<polygon fill="#9a32cd" stroke="#9a32cd" points="209.027,-597.169 199.412,-592.72 204.153,-602.194 209.027,-597.169"/>
<text text-anchor="middle" x="870" y="-700" font-family="Helvetica,sans-Serif" font-size="10.00"> hDef</text>
</g>
<!-- Node9 -->
<g id="node9" class="node"><title>Node9</title>
<g id="a_node9"><a xlink:href="class_kuszk_a_p_i_1_1_forms_1_1_font.html#struct_kuszk_a_p_i_1_1_forms_1_1_font_1_1_item_data" target="_top" xlink:title="KuszkAPI::Forms::Font\l\&lt; tnKey \&gt;::ItemData">
<polygon fill="white" stroke="black" points="340.5,-533 340.5,-563 459.5,-563 459.5,-533 340.5,-533"/>
<text text-anchor="start" x="348.5" y="-551" font-family="Helvetica,sans-Serif" font-size="10.00">KuszkAPI::Forms::Font</text>
<text text-anchor="middle" x="400" y="-540" font-family="Helvetica,sans-Serif" font-size="10.00">&lt; tnKey &gt;::ItemData</text>
</a>
</g>
</g>
<!-- Node2&#45;&gt;Node9 -->
<g id="edge10" class="edge"><title>Node2&#45;&gt;Node9</title>
<path fill="none" stroke="#9a32cd" stroke-dasharray="5,2" d="M223.569,-577.378C255,-572.115 302.645,-564.136 340.354,-557.821"/>
<polygon fill="#9a32cd" stroke="#9a32cd" points="222.853,-573.949 213.569,-579.053 224.009,-580.853 222.853,-573.949"/>
<text text-anchor="middle" x="297" y="-572" font-family="Helvetica,sans-Serif" font-size="10.00"> hFont</text>
</g>
<!-- Node3 -->
<g id="node3" class="node"><title>Node3</title>
<polygon fill="white" stroke="#bfbfbf" points="1294.5,-631.5 1294.5,-650.5 1341.5,-650.5 1341.5,-631.5 1294.5,-631.5"/>
<text text-anchor="middle" x="1318" y="-638.5" font-family="Helvetica,sans-Serif" font-size="10.00">HWND</text>
</g>
<!-- Node3&#45;&gt;Node1 -->
<g id="edge2" class="edge"><title>Node3&#45;&gt;Node1</title>
<path fill="none" stroke="#9a32cd" stroke-dasharray="5,2" d="M1352.08,-641C1380.52,-641 1422.23,-641 1456.32,-641"/>
<polygon fill="#9a32cd" stroke="#9a32cd" points="1351.87,-637.5 1341.87,-641 1351.87,-644.5 1351.87,-637.5"/>
<text text-anchor="middle" x="1419" y="-644" font-family="Helvetica,sans-Serif" font-size="10.00"> hOwner</text>
</g>
<!-- Node4 -->
<g id="node4" class="node"><title>Node4</title>
<g id="a_node4"><a xlink:href="class_kuszk_a_p_i_1_1_containers_1_1_map.html" target="_top" xlink:title="KuszkAPI::Containers\l::Map\&lt; KuszkAPI::Forms\l::Font::ItemData, tnKey \&gt;">
<polygon fill="white" stroke="black" points="1254,-531.5 1254,-572.5 1382,-572.5 1382,-531.5 1254,-531.5"/>
<text text-anchor="start" x="1262" y="-560.5" font-family="Helvetica,sans-Serif" font-size="10.00">KuszkAPI::Containers</text>
<text text-anchor="start" x="1262" y="-549.5" font-family="Helvetica,sans-Serif" font-size="10.00">::Map&lt; KuszkAPI::Forms</text>
<text text-anchor="middle" x="1318" y="-538.5" font-family="Helvetica,sans-Serif" font-size="10.00">::Font::ItemData, tnKey &gt;</text>
</a>
</g>
</g>
<!-- Node4&#45;&gt;Node1 -->
<g id="edge3" class="edge"><title>Node4&#45;&gt;Node1</title>
<path fill="none" stroke="#9a32cd" stroke-dasharray="5,2" d="M1373.98,-576.964C1408.63,-592.701 1452.24,-612.504 1481.72,-625.89"/>
<polygon fill="#9a32cd" stroke="#9a32cd" points="1375.01,-573.59 1364.46,-572.642 1372.12,-579.964 1375.01,-573.59"/>
<text text-anchor="middle" x="1419" y="-608" font-family="Helvetica,sans-Serif" font-size="10.00"> mFont</text>
</g>
<!-- Node5 -->
<g id="node5" class="node"><title>Node5</title>
<g id="a_node5"><a xlink:href="class_kuszk_a_p_i_1_1_containers_1_1_box.html" target="_top" xlink:title="KuszkAPI::Containers\l::Box\&lt; KuszkAPI::Forms\l::Font::ItemData \&gt;">
<polygon fill="white" stroke="black" points="1062,-531.5 1062,-572.5 1188,-572.5 1188,-531.5 1062,-531.5"/>
<text text-anchor="start" x="1070" y="-560.5" font-family="Helvetica,sans-Serif" font-size="10.00">KuszkAPI::Containers</text>
<text text-anchor="start" x="1070" y="-549.5" font-family="Helvetica,sans-Serif" font-size="10.00">::Box&lt; KuszkAPI::Forms</text>
<text text-anchor="middle" x="1125" y="-538.5" font-family="Helvetica,sans-Serif" font-size="10.00">::Font::ItemData &gt;</text>
</a>
</g>
</g>
<!-- Node5&#45;&gt;Node4 -->
<g id="edge4" class="edge"><title>Node5&#45;&gt;Node4</title>
<path fill="none" stroke="#9a32cd" stroke-dasharray="5,2" d="M1198.08,-552C1216.47,-552 1236.09,-552 1253.99,-552"/>
<polygon fill="#9a32cd" stroke="#9a32cd" points="1198.01,-548.5 1188.01,-552 1198.01,-555.5 1198.01,-548.5"/>
<text text-anchor="middle" x="1221" y="-555" font-family="Helvetica,sans-Serif" font-size="10.00"> bData</text>
</g>
<!-- Node6 -->
<g id="node6" class="node"><title>Node6</title>
<g id="a_node6"><a xlink:href="class_kuszk_a_p_i_1_1_containers_1_1_vector.html" target="_top" xlink:title="KuszkAPI::Containers\l::Vector\&lt; KuszkAPI::Forms\l::Font::ItemData * \&gt;">
<polygon fill="white" stroke="black" points="592.5,-529.5 592.5,-570.5 729.5,-570.5 729.5,-529.5 592.5,-529.5"/>
<text text-anchor="start" x="600.5" y="-558.5" font-family="Helvetica,sans-Serif" font-size="10.00">KuszkAPI::Containers</text>
<text text-anchor="start" x="600.5" y="-547.5" font-family="Helvetica,sans-Serif" font-size="10.00">::Vector&lt; KuszkAPI::Forms</text>
<text text-anchor="middle" x="661" y="-536.5" font-family="Helvetica,sans-Serif" font-size="10.00">::Font::ItemData * &gt;</text>
</a>
</g>
</g>
<!-- Node6&#45;&gt;Node5 -->
<g id="edge5" class="edge"><title>Node6&#45;&gt;Node5</title>
<path fill="none" stroke="#9a32cd" stroke-dasharray="5,2" d="M739.89,-550.337C830.515,-550.73 978.337,-551.369 1061.7,-551.73"/>
<polygon fill="#9a32cd" stroke="#9a32cd" points="739.689,-546.836 729.674,-550.293 739.658,-553.836 739.689,-546.836"/>
<text text-anchor="middle" x="870" y="-555" font-family="Helvetica,sans-Serif" font-size="10.00"> vPointers</text>
</g>
<!-- Node7 -->
<g id="node7" class="node"><title>Node7</title>
<g id="a_node7"><a xlink:href="class_kuszk_a_p_i_1_1_containers_1_1_container.html" target="_top" xlink:title="Implementacja bazy dla modułu kontenerów. ">
<polygon fill="white" stroke="black" points="132.5,-363 132.5,-393 245.5,-393 245.5,-363 132.5,-363"/>
<text text-anchor="start" x="140.5" y="-381" font-family="Helvetica,sans-Serif" font-size="10.00">KuszkAPI::Containers</text>
<text text-anchor="middle" x="189" y="-370" font-family="Helvetica,sans-Serif" font-size="10.00">::Container</text>
</a>
</g>
</g>
<!-- Node7&#45;&gt;Node6 -->
<g id="edge6" class="edge"><title>Node7&#45;&gt;Node6</title>
<path fill="none" stroke="midnightblue" d="M238.674,-396.752C267.983,-407.98 306.076,-422.46 340,-435 431.226,-468.722 537.566,-506.669 601.784,-529.436"/>
<polygon fill="midnightblue" stroke="midnightblue" points="239.68,-393.389 229.09,-393.077 237.174,-399.925 239.68,-393.389"/>
</g>
<!-- Node12 -->
<g id="node12" class="node"><title>Node12</title>
<g id="a_node12"><a xlink:href="class_kuszk_a_p_i_1_1_containers_1_1_vector.html" target="_top" xlink:title="KuszkAPI::Containers\l::Vector\&lt; tnData \&gt;">
<polygon fill="white" stroke="black" points="343.5,-396 343.5,-426 456.5,-426 456.5,-396 343.5,-396"/>
<text text-anchor="start" x="351.5" y="-414" font-family="Helvetica,sans-Serif" font-size="10.00">KuszkAPI::Containers</text>
<text text-anchor="middle" x="400" y="-403" font-family="Helvetica,sans-Serif" font-size="10.00">::Vector&lt; tnData &gt;</text>
</a>
</g>
</g>
<!-- Node7&#45;&gt;Node12 -->
<g id="edge14" class="edge"><title>Node7&#45;&gt;Node12</title>
<path fill="none" stroke="midnightblue" d="M255.569,-388.401C261.127,-389.281 266.661,-390.156 272,-391 295.37,-394.693 321.16,-398.756 343.36,-402.251"/>
<polygon fill="midnightblue" stroke="midnightblue" points="256.001,-384.926 245.576,-386.819 254.906,-391.84 256.001,-384.926"/>
</g>
<!-- Node15 -->
<g id="node15" class="node"><title>Node15</title>
<g id="a_node15"><a xlink:href="class_kuszk_a_p_i_1_1_containers_1_1_vector.html" target="_top" xlink:title="KuszkAPI::Containers\l::Vector\&lt; tnData * \&gt;">
<polygon fill="white" stroke="black" points="604.5,-352 604.5,-382 717.5,-382 717.5,-352 604.5,-352"/>
<text text-anchor="start" x="612.5" y="-370" font-family="Helvetica,sans-Serif" font-size="10.00">KuszkAPI::Containers</text>
<text text-anchor="middle" x="661" y="-359" font-family="Helvetica,sans-Serif" font-size="10.00">::Vector&lt; tnData * &gt;</text>
</a>
</g>
</g>
<!-- Node7&#45;&gt;Node15 -->
<g id="edge21" class="edge"><title>Node7&#45;&gt;Node15</title>
<path fill="none" stroke="midnightblue" d="M255.9,-376.458C348.943,-374.28 517.169,-370.343 604.312,-368.303"/>
<polygon fill="midnightblue" stroke="midnightblue" points="255.676,-372.962 245.761,-376.695 255.84,-379.96 255.676,-372.962"/>
</g>
<!-- Node16 -->
<g id="node16" class="node"><title>Node16</title>
<g id="a_node16"><a xlink:href="class_kuszk_a_p_i_1_1_containers_1_1_list.html" target="_top" xlink:title="KuszkAPI::Containers\l::List\&lt; tnKey \&gt;">
<polygon fill="white" stroke="black" points="604.5,-163 604.5,-193 717.5,-193 717.5,-163 604.5,-163"/>
<text text-anchor="start" x="612.5" y="-181" font-family="Helvetica,sans-Serif" font-size="10.00">KuszkAPI::Containers</text>
<text text-anchor="middle" x="661" y="-170" font-family="Helvetica,sans-Serif" font-size="10.00">::List&lt; tnKey &gt;</text>
</a>
</g>
</g>
<!-- Node7&#45;&gt;Node16 -->
<g id="edge26" class="edge"><title>Node7&#45;&gt;Node16</title>
<path fill="none" stroke="midnightblue" d="M218.395,-357.08C233.531,-347.076 252.926,-335.997 272,-330 351.962,-304.861 380.98,-342.961 460,-315 536.973,-287.763 612.14,-223.131 644.034,-193.422"/>
<polygon fill="midnightblue" stroke="midnightblue" points="216.299,-354.273 210.011,-362.799 220.244,-360.055 216.299,-354.273"/>
</g>
<!-- Node20 -->
<g id="node20" class="node"><title>Node20</title>
<g id="a_node20"><a xlink:href="class_kuszk_a_p_i_1_1_containers_1_1_list.html" target="_top" xlink:title="Implementacja szablonu listy dla modułu kontenerów. ">
<polygon fill="white" stroke="black" points="343.5,-136 343.5,-166 456.5,-166 456.5,-136 343.5,-136"/>
<text text-anchor="start" x="351.5" y="-154" font-family="Helvetica,sans-Serif" font-size="10.00">KuszkAPI::Containers</text>
<text text-anchor="middle" x="400" y="-143" font-family="Helvetica,sans-Serif" font-size="10.00">::List&lt; tnData &gt;</text>
</a>
</g>
</g>
<!-- Node7&#45;&gt;Node20 -->
<g id="edge32" class="edge"><title>Node7&#45;&gt;Node20</title>
<path fill="none" stroke="midnightblue" d="M212.622,-355.666C226.59,-340.614 243.744,-319.622 254,-298 270.363,-263.503 249.317,-244.712 272,-214 272.321,-213.565 339.514,-176.238 340,-176 346.894,-172.625 354.358,-169.254 361.584,-166.129"/>
<polygon fill="midnightblue" stroke="midnightblue" points="210.028,-353.315 205.661,-362.968 215.094,-358.145 210.028,-353.315"/>
</g>
<!-- Node8 -->
<g id="node8" class="node"><title>Node8</title>
<g id="a_node8"><a xlink:href="namespace_3global_scope_4.html#classunsigned" target="_top" xlink:title="unsigned">
<polygon fill="white" stroke="black" points="0,-439.5 0,-458.5 56,-458.5 56,-439.5 0,-439.5"/>
<text text-anchor="middle" x="28" y="-446.5" font-family="Helvetica,sans-Serif" font-size="10.00">unsigned</text>
</a>
</g>
</g>
<!-- Node8&#45;&gt;Node4 -->
<g id="edge35" class="edge"><title>Node8&#45;&gt;Node4</title>
<path fill="none" stroke="#9a32cd" stroke-dasharray="5,2" d="M30.3218,-469.128C35.8673,-535.465 63.1901,-743 188,-743 188,-743 188,-743 1126,-743 1137.93,-743 1251.59,-622.307 1297.7,-572.804"/>
<polygon fill="#9a32cd" stroke="#9a32cd" points="33.7837,-468.491 29.542,-458.782 26.8035,-469.017 33.7837,-468.491"/>
<text text-anchor="middle" x="661" y="-746" font-family="Helvetica,sans-Serif" font-size="10.00"> uIlosc</text>
</g>
<!-- Node8&#45;&gt;Node5 -->
<g id="edge17" class="edge"><title>Node8&#45;&gt;Node5</title>
<path fill="none" stroke="#9a32cd" stroke-dasharray="5,2" d="M31.461,-468.538C35.8521,-496.973 47.2261,-550.355 74,-587 90.1545,-609.11 98.1148,-614.068 124,-623 322.228,-691.401 582.422,-626.412 1044,-566 1049.73,-565.25 1055.68,-564.381 1061.63,-563.45"/>
<polygon fill="#9a32cd" stroke="#9a32cd" points="34.9259,-468.043 30.0618,-458.63 27.9947,-469.022 34.9259,-468.043"/>
<text text-anchor="middle" x="526" y="-647" font-family="Helvetica,sans-Serif" font-size="10.00"> uIlosc</text>
</g>
<!-- Node8&#45;&gt;Node6 -->
<g id="edge12" class="edge"><title>Node8&#45;&gt;Node6</title>
<path fill="none" stroke="#9a32cd" stroke-dasharray="5,2" d="M34.2694,-468.294C44.7876,-502.541 71.9755,-573.065 124,-602 175.852,-630.838 405.841,-607.875 574,-576 581.663,-574.548 589.613,-572.671 597.445,-570.59"/>
<polygon fill="#9a32cd" stroke="#9a32cd" points="37.5876,-467.17 31.4298,-458.548 30.867,-469.128 37.5876,-467.17"/>
<text text-anchor="middle" x="297" y="-617" font-family="Helvetica,sans-Serif" font-size="10.00"> uDataSize</text>
</g>
<!-- Node8&#45;&gt;Node7 -->
<g id="edge7" class="edge"><title>Node8&#45;&gt;Node7</title>
<path fill="none" stroke="#9a32cd" stroke-dasharray="5,2" d="M39.0298,-430.637C46.8549,-418.177 58.9178,-402.481 74,-394 91.5074,-384.155 112.838,-379.574 132.292,-377.641"/>
<polygon fill="#9a32cd" stroke="#9a32cd" points="35.9506,-428.969 33.8921,-439.362 41.9824,-432.521 35.9506,-428.969"/>
<text text-anchor="middle" x="90" y="-408" font-family="Helvetica,sans-Serif" font-size="10.00"> uIlosc</text>
<text text-anchor="middle" x="90" y="-397" font-family="Helvetica,sans-Serif" font-size="10.00">uMode</text>
</g>
<!-- Node8&#45;&gt;Node12 -->
<g id="edge16" class="edge"><title>Node8&#45;&gt;Node12</title>
<path fill="none" stroke="#9a32cd" stroke-dasharray="5,2" d="M66.4442,-445.154C131.756,-438.447 266.814,-424.576 343.195,-416.731"/>
<polygon fill="#9a32cd" stroke="#9a32cd" points="65.797,-441.702 56.207,-446.206 66.5123,-448.666 65.797,-441.702"/>
<text text-anchor="middle" x="189" y="-443" font-family="Helvetica,sans-Serif" font-size="10.00"> uDataSize</text>
</g>
<!-- Node14 -->
<g id="node14" class="node"><title>Node14</title>
<g id="a_node14"><a xlink:href="class_kuszk_a_p_i_1_1_containers_1_1_box.html" target="_top" xlink:title="Implementacja szablonu pudełka dla modułu kontenerów. ">
<polygon fill="white" stroke="black" points="813.5,-485 813.5,-515 926.5,-515 926.5,-485 813.5,-485"/>
<text text-anchor="start" x="821.5" y="-503" font-family="Helvetica,sans-Serif" font-size="10.00">KuszkAPI::Containers</text>
<text text-anchor="middle" x="870" y="-492" font-family="Helvetica,sans-Serif" font-size="10.00">::Box&lt; tnData &gt;</text>
</a>
</g>
</g>
<!-- Node8&#45;&gt;Node14 -->
<g id="edge19" class="edge"><title>Node8&#45;&gt;Node14</title>
<path fill="none" stroke="#9a32cd" stroke-dasharray="5,2" d="M66.2077,-454.185C68.8422,-454.483 71.4597,-454.759 74,-455 350.969,-481.265 683.783,-494.045 813.471,-498.31"/>
<polygon fill="#9a32cd" stroke="#9a32cd" points="66.4396,-450.687 56.0894,-452.951 65.5921,-457.636 66.4396,-450.687"/>
<text text-anchor="middle" x="400" y="-486" font-family="Helvetica,sans-Serif" font-size="10.00"> uIlosc</text>
</g>
<!-- Node8&#45;&gt;Node15 -->
<g id="edge23" class="edge"><title>Node8&#45;&gt;Node15</title>
<path fill="none" stroke="#9a32cd" stroke-dasharray="5,2" d="M32.0528,-429.269C39.4693,-388.981 62.5667,-297.878 124,-260 298.266,-152.552 559.502,-302.211 637.34,-351.928"/>
<polygon fill="#9a32cd" stroke="#9a32cd" points="28.5906,-428.752 30.358,-439.198 35.4908,-429.93 28.5906,-428.752"/>
<text text-anchor="middle" x="297" y="-229" font-family="Helvetica,sans-Serif" font-size="10.00"> uDataSize</text>
</g>
<!-- Node21 -->
<g id="node21" class="node"><title>Node21</title>
<g id="a_node21"><a xlink:href="class_kuszk_a_p_i_1_1_containers_1_1_map.html" target="_top" xlink:title="KuszkAPI::Containers\l::Map\&lt; tnData, tnKey \&gt;">
<polygon fill="white" stroke="black" points="810.5,-76 810.5,-106 929.5,-106 929.5,-76 810.5,-76"/>
<text text-anchor="start" x="818.5" y="-94" font-family="Helvetica,sans-Serif" font-size="10.00">KuszkAPI::Containers</text>
<text text-anchor="middle" x="870" y="-83" font-family="Helvetica,sans-Serif" font-size="10.00">::Map&lt; tnData, tnKey &gt;</text>
</a>
</g>
</g>
<!-- Node8&#45;&gt;Node21 -->
<g id="edge39" class="edge"><title>Node8&#45;&gt;Node21</title>
<path fill="none" stroke="#9a32cd" stroke-dasharray="5,2" d="M31.4869,-428.993C40.5994,-358.675 74.246,-124.201 124,-70 144.34,-47.8421 157.922,-48 188,-48 188,-48 188,-48 662,-48 718.525,-48 781.952,-63.5607 823.522,-75.9607"/>
<polygon fill="#9a32cd" stroke="#9a32cd" points="27.9847,-428.789 30.1946,-439.151 34.9287,-429.673 27.9847,-428.789"/>
<text text-anchor="middle" x="400" y="-51" font-family="Helvetica,sans-Serif" font-size="10.00"> uIlosc</text>
</g>
<!-- Node9&#45;&gt;Node6 -->
<g id="edge8" class="edge"><title>Node9&#45;&gt;Node6</title>
<path fill="none" stroke="#9a32cd" stroke-dasharray="5,2" d="M470.194,-548.534C508.031,-548.826 554.711,-549.187 592.31,-549.477"/>
<polygon fill="#9a32cd" stroke="#9a32cd" points="469.798,-545.031 459.771,-548.454 469.744,-552.031 469.798,-545.031"/>
<text text-anchor="middle" x="526" y="-564" font-family="Helvetica,sans-Serif" font-size="10.00"> tAbstract</text>
<text text-anchor="middle" x="526" y="-553" font-family="Helvetica,sans-Serif" font-size="10.00">ptBegin</text>
</g>
<!-- Node10 -->
<g id="node10" class="node"><title>Node10</title>
<polygon fill="white" stroke="#bfbfbf" points="158,-535.5 158,-554.5 220,-554.5 220,-535.5 158,-535.5"/>
<text text-anchor="middle" x="189" y="-542.5" font-family="Helvetica,sans-Serif" font-size="10.00">LOGFONT</text>
</g>
<!-- Node10&#45;&gt;Node9 -->
<g id="edge9" class="edge"><title>Node10&#45;&gt;Node9</title>
<path fill="none" stroke="#9a32cd" stroke-dasharray="5,2" d="M230.483,-545.581C261.737,-546.03 305.42,-546.657 340.479,-547.16"/>
<polygon fill="#9a32cd" stroke="#9a32cd" points="230.44,-542.08 220.39,-545.436 230.339,-549.079 230.44,-542.08"/>
<text text-anchor="middle" x="297" y="-550" font-family="Helvetica,sans-Serif" font-size="10.00"> lFont</text>
</g>
<!-- Node11 -->
<g id="node11" class="node"><title>Node11</title>
<polygon fill="white" stroke="#bfbfbf" points="154,-497.5 154,-516.5 224,-516.5 224,-497.5 154,-497.5"/>
<text text-anchor="middle" x="189" y="-504.5" font-family="Helvetica,sans-Serif" font-size="10.00">COLORREF</text>
</g>
<!-- Node11&#45;&gt;Node9 -->
<g id="edge11" class="edge"><title>Node11&#45;&gt;Node9</title>
<path fill="none" stroke="#9a32cd" stroke-dasharray="5,2" d="M234.374,-515.202C260.005,-519.99 292.845,-526.21 322,-532 327.893,-533.17 334.034,-534.411 340.165,-535.663"/>
<polygon fill="#9a32cd" stroke="#9a32cd" points="234.691,-511.701 224.219,-513.309 233.409,-518.582 234.691,-511.701"/>
<text text-anchor="middle" x="297" y="-535" font-family="Helvetica,sans-Serif" font-size="10.00"> cColor</text>
</g>
<!-- Node12&#45;&gt;Node6 -->
<g id="edge13" class="edge"><title>Node12&#45;&gt;Node6</title>
<path fill="none" stroke="orange" stroke-dasharray="5,2" d="M466.628,-414.878C507.692,-418.293 556.089,-424.427 574,-435 611.571,-457.179 637.963,-502.774 650.903,-529.408"/>
<polygon fill="orange" stroke="orange" points="466.886,-411.387 456.641,-414.087 466.334,-418.365 466.886,-411.387"/>
<text text-anchor="start" x="478" y="-449" font-family="Helvetica,sans-Serif" font-size="10.00"> &lt; KuszkAPI::Forms::</text>
<text text-anchor="middle" x="526" y="-438" font-family="Helvetica,sans-Serif" font-size="10.00">Font::ItemData * &gt;</text>
</g>
<!-- Node12&#45;&gt;Node15 -->
<g id="edge24" class="edge"><title>Node12&#45;&gt;Node15</title>
<path fill="none" stroke="orange" stroke-dasharray="5,2" d="M466.522,-399.869C508.976,-392.657 563.681,-383.363 604.084,-376.499"/>
<polygon fill="orange" stroke="orange" points="465.835,-396.435 456.562,-401.561 467.007,-403.337 465.835,-396.435"/>
<text text-anchor="middle" x="526" y="-400" font-family="Helvetica,sans-Serif" font-size="10.00"> &lt; tnData * &gt;</text>
</g>
<!-- Node13 -->
<g id="node13" class="node"><title>Node13</title>
<polygon fill="white" stroke="#bfbfbf" points="166.5,-269.5 166.5,-288.5 211.5,-288.5 211.5,-269.5 166.5,-269.5"/>
<text text-anchor="middle" x="189" y="-276.5" font-family="Helvetica,sans-Serif" font-size="10.00">tnData</text>
</g>
<!-- Node13&#45;&gt;Node12 -->
<g id="edge15" class="edge"><title>Node13&#45;&gt;Node12</title>
<path fill="none" stroke="#9a32cd" stroke-dasharray="5,2" d="M214.009,-294.163C254.299,-319.61 335.041,-370.605 375.194,-395.965"/>
<polygon fill="#9a32cd" stroke="#9a32cd" points="215.692,-291.087 205.368,-288.706 211.954,-297.005 215.692,-291.087"/>
<text text-anchor="middle" x="297" y="-375" font-family="Helvetica,sans-Serif" font-size="10.00"> tAbstract</text>
<text text-anchor="middle" x="297" y="-364" font-family="Helvetica,sans-Serif" font-size="10.00">ptBegin</text>
</g>
<!-- Node13&#45;&gt;Node15 -->
<g id="edge22" class="edge"><title>Node13&#45;&gt;Node15</title>
<path fill="none" stroke="#9a32cd" stroke-dasharray="5,2" d="M221.543,-282.024C248.356,-284.785 287.827,-289.301 322,-295 422.162,-311.704 537.622,-337.792 604.371,-353.554"/>
<polygon fill="#9a32cd" stroke="#9a32cd" points="221.877,-278.54 211.576,-281.018 221.174,-285.504 221.877,-278.54"/>
<text text-anchor="middle" x="400" y="-335" font-family="Helvetica,sans-Serif" font-size="10.00"> tAbstract</text>
<text text-anchor="middle" x="400" y="-324" font-family="Helvetica,sans-Serif" font-size="10.00">ptBegin</text>
</g>
<!-- Node13&#45;&gt;Node20 -->
<g id="edge33" class="edge"><title>Node13&#45;&gt;Node20</title>
<path fill="none" stroke="#9a32cd" stroke-dasharray="5,2" d="M199.292,-260.259C212.164,-236.39 237.763,-195.754 272,-175 293.299,-162.089 320.005,-155.862 343.424,-152.95"/>
<polygon fill="#9a32cd" stroke="#9a32cd" points="196.07,-258.868 194.566,-269.356 202.282,-262.095 196.07,-258.868"/>
<text text-anchor="middle" x="297" y="-178" font-family="Helvetica,sans-Serif" font-size="10.00"> tAbstract</text>
</g>
<!-- Node14&#45;&gt;Node5 -->
<g id="edge18" class="edge"><title>Node14&#45;&gt;Node5</title>
<path fill="none" stroke="orange" stroke-dasharray="5,2" d="M937.068,-501.003C969.696,-502.781 1009.39,-506.884 1044,-516 1057.84,-519.646 1072.31,-525.469 1085.07,-531.377"/>
<polygon fill="orange" stroke="orange" points="936.895,-497.491 926.738,-500.504 936.557,-504.482 936.895,-497.491"/>
<text text-anchor="start" x="948" y="-530" font-family="Helvetica,sans-Serif" font-size="10.00"> &lt; KuszkAPI::Forms::</text>
<text text-anchor="middle" x="996" y="-519" font-family="Helvetica,sans-Serif" font-size="10.00">Font::ItemData &gt;</text>
</g>
<!-- Node15&#45;&gt;Node14 -->
<g id="edge20" class="edge"><title>Node15&#45;&gt;Node14</title>
<path fill="none" stroke="#9a32cd" stroke-dasharray="5,2" d="M694.208,-387.694C736.137,-414.634 808.428,-461.082 845.531,-484.921"/>
<polygon fill="#9a32cd" stroke="#9a32cd" points="696.051,-384.718 685.746,-382.257 692.267,-390.607 696.051,-384.718"/>
<text text-anchor="middle" x="770" y="-453" font-family="Helvetica,sans-Serif" font-size="10.00"> vPointers</text>
</g>
<!-- Node16&#45;&gt;Node4 -->
<g id="edge25" class="edge"><title>Node16&#45;&gt;Node4</title>
<path fill="none" stroke="#9a32cd" stroke-dasharray="5,2" d="M697.504,-198.272C811.31,-263.255 1166.25,-465.925 1280.9,-531.387"/>
<polygon fill="#9a32cd" stroke="#9a32cd" points="698.908,-195.044 688.488,-193.124 695.437,-201.122 698.908,-195.044"/>
<text text-anchor="middle" x="996" y="-399" font-family="Helvetica,sans-Serif" font-size="10.00"> lKey</text>
</g>
<!-- Node16&#45;&gt;Node21 -->
<g id="edge38" class="edge"><title>Node16&#45;&gt;Node21</title>
<path fill="none" stroke="#9a32cd" stroke-dasharray="5,2" d="M707.305,-158.959C745.057,-143.092 798.114,-120.792 833.01,-106.126"/>
<polygon fill="#9a32cd" stroke="#9a32cd" points="705.919,-155.744 698.057,-162.846 708.632,-162.198 705.919,-155.744"/>
<text text-anchor="middle" x="770" y="-143" font-family="Helvetica,sans-Serif" font-size="10.00"> lKey</text>
</g>
<!-- Node17 -->
<g id="node17" class="node"><title>Node17</title>
<g id="a_node17"><a xlink:href="class_kuszk_a_p_i_1_1_containers_1_1_list.html#struct_kuszk_a_p_i_1_1_containers_1_1_list_1_1_item_data" target="_top" xlink:title="Struktura przechowująca wskaźnik na element listy oraz wskaźnik na kolejny obiekt. ">
<polygon fill="white" stroke="black" points="124,-80 124,-110 254,-110 254,-80 124,-80"/>
<text text-anchor="start" x="132" y="-98" font-family="Helvetica,sans-Serif" font-size="10.00">KuszkAPI::Containers</text>
<text text-anchor="middle" x="189" y="-87" font-family="Helvetica,sans-Serif" font-size="10.00">::List&lt; tnData &gt;::ItemData</text>
</a>
</g>
</g>
<!-- Node17&#45;&gt;Node16 -->
<g id="edge27" class="edge"><title>Node17&#45;&gt;Node16</title>
<path fill="none" stroke="#9a32cd" stroke-dasharray="5,2" d="M264.498,-91.1217C319.126,-89.8118 394.822,-91.2045 460,-104 522.123,-116.196 590.49,-145.116 629.041,-162.977"/>
<polygon fill="#9a32cd" stroke="#9a32cd" points="264.106,-87.6311 254.206,-91.4063 264.299,-94.6284 264.106,-87.6311"/>
<text text-anchor="middle" x="400" y="-118" font-family="Helvetica,sans-Serif" font-size="10.00"> ptLast</text>
<text text-anchor="middle" x="400" y="-107" font-family="Helvetica,sans-Serif" font-size="10.00">ptBegin</text>
</g>
<!-- Node17&#45;&gt;Node17 -->
<g id="edge28" class="edge"><title>Node17&#45;&gt;Node17</title>
<path fill="none" stroke="#9a32cd" stroke-dasharray="5,2" d="M171.846,-120.598C174.19,-124.97 179.908,-128 189,-128 204.313,-128 210.055,-119.406 206.227,-110.275"/>
<polygon fill="#9a32cd" stroke="#9a32cd" points="175.344,-120.25 171.773,-110.275 168.344,-120.3 175.344,-120.25"/>
<text text-anchor="middle" x="189" y="-131" font-family="Helvetica,sans-Serif" font-size="10.00"> ptNext</text>
</g>
<!-- Node17&#45;&gt;Node20 -->
<g id="edge34" class="edge"><title>Node17&#45;&gt;Node20</title>
<path fill="none" stroke="#9a32cd" stroke-dasharray="5,2" d="M259.613,-112.567C279.769,-117.751 301.785,-123.51 322,-129 330.05,-131.186 338.557,-133.556 346.863,-135.904"/>
<polygon fill="#9a32cd" stroke="#9a32cd" points="260.44,-109.166 249.884,-110.071 258.701,-115.946 260.44,-109.166"/>
<text text-anchor="middle" x="297" y="-143" font-family="Helvetica,sans-Serif" font-size="10.00"> ptLast</text>
<text text-anchor="middle" x="297" y="-132" font-family="Helvetica,sans-Serif" font-size="10.00">ptBegin</text>
</g>
<!-- Node18 -->
<g id="node18" class="node"><title>Node18</title>
<polygon fill="white" stroke="#bfbfbf" points="2,-12.5 2,-31.5 54,-31.5 54,-12.5 2,-12.5"/>
<text text-anchor="middle" x="28" y="-19.5" font-family="Helvetica,sans-Serif" font-size="10.00">tnData *</text>
</g>
<!-- Node18&#45;&gt;Node17 -->
<g id="edge29" class="edge"><title>Node18&#45;&gt;Node17</title>
<path fill="none" stroke="#9a32cd" stroke-dasharray="5,2" d="M58.8844,-35.7205C86.265,-48.2915 126.727,-66.8682 155.037,-79.866"/>
<polygon fill="#9a32cd" stroke="#9a32cd" points="60.3348,-32.5352 49.7865,-31.5435 57.414,-38.8968 60.3348,-32.5352"/>
<text text-anchor="middle" x="90" y="-60" font-family="Helvetica,sans-Serif" font-size="10.00"> ptData</text>
</g>
<!-- Node19 -->
<g id="node19" class="node"><title>Node19</title>
<polygon fill="white" stroke="#bfbfbf" points="379,-185.5 379,-204.5 421,-204.5 421,-185.5 379,-185.5"/>
<text text-anchor="middle" x="400" y="-192.5" font-family="Helvetica,sans-Serif" font-size="10.00">tnKey</text>
</g>
<!-- Node19&#45;&gt;Node16 -->
<g id="edge30" class="edge"><title>Node19&#45;&gt;Node16</title>
<path fill="none" stroke="#9a32cd" stroke-dasharray="5,2" d="M431.567,-192.994C473.992,-190.209 551.461,-185.124 604.309,-181.655"/>
<polygon fill="#9a32cd" stroke="#9a32cd" points="431.073,-189.519 421.323,-193.666 431.531,-196.503 431.073,-189.519"/>
<text text-anchor="middle" x="526" y="-193" font-family="Helvetica,sans-Serif" font-size="10.00"> tAbstract</text>
</g>
<!-- Node20&#45;&gt;Node16 -->
<g id="edge31" class="edge"><title>Node20&#45;&gt;Node16</title>
<path fill="none" stroke="orange" stroke-dasharray="5,2" d="M466.922,-157.85C499.199,-161.206 538.633,-165.31 574,-169 583.854,-170.028 594.344,-171.125 604.486,-172.185"/>
<polygon fill="orange" stroke="orange" points="467.016,-154.341 456.708,-156.788 466.292,-161.303 467.016,-154.341"/>
<text text-anchor="middle" x="526" y="-172" font-family="Helvetica,sans-Serif" font-size="10.00"> &lt; tnKey &gt;</text>
</g>
<!-- Node21&#45;&gt;Node4 -->
<g id="edge36" class="edge"><title>Node21&#45;&gt;Node4</title>
<path fill="none" stroke="orange" stroke-dasharray="5,2" d="M921.445,-109.955C999.707,-141.834 1150.27,-213.432 1236,-321 1288.18,-386.473 1308.02,-487.972 1314.39,-531.279"/>
<polygon fill="orange" stroke="orange" points="922.395,-106.564 911.811,-106.083 919.785,-113.059 922.395,-106.564"/>
<text text-anchor="start" x="1072" y="-284" font-family="Helvetica,sans-Serif" font-size="10.00"> &lt; KuszkAPI::Forms::</text>
<text text-anchor="middle" x="1125" y="-273" font-family="Helvetica,sans-Serif" font-size="10.00">Font::ItemData, tnKey &gt;</text>
</g>
<!-- Node22 -->
<g id="node22" class="node"><title>Node22</title>
<polygon fill="white" stroke="#bfbfbf" points="621,-0.5 621,-19.5 701,-19.5 701,-0.5 621,-0.5"/>
<text text-anchor="middle" x="661" y="-7.5" font-family="Helvetica,sans-Serif" font-size="10.00">Box&lt; tnData &gt;</text>
</g>
<!-- Node22&#45;&gt;Node21 -->
<g id="edge37" class="edge"><title>Node22&#45;&gt;Node21</title>
<path fill="none" stroke="#9a32cd" stroke-dasharray="5,2" d="M711.162,-7.86891C736.283,-8.50001 766.786,-11.9951 792,-23 818.97,-34.7715 843.162,-59.6174 856.952,-75.7938"/>
<polygon fill="#9a32cd" stroke="#9a32cd" points="711.151,-4.36868 701.113,-7.75901 711.074,-11.3683 711.151,-4.36868"/>
<text text-anchor="middle" x="770" y="-26" font-family="Helvetica,sans-Serif" font-size="10.00"> bData</text>
</g>
</g>
</svg>
