<?xml version="1.0" encoding="UTF-8" standalone="no"?>
<!DOCTYPE svg PUBLIC "-//W3C//DTD SVG 1.1//EN"
 "http://www.w3.org/Graphics/SVG/1.1/DTD/svg11.dtd">
<!-- Generated by graphviz version 2.36.0 (20140111.2315)
 -->
<!-- Title: KuszkAPI::Containers::Strings::All Pages: 1 -->
<svg width="292pt" height="136pt"
 viewBox="0.00 0.00 292.00 136.00" xmlns="http://www.w3.org/2000/svg" xmlns:xlink="http://www.w3.org/1999/xlink">
<g id="graph0" class="graph" transform="scale(1 1) rotate(0) translate(4 132)">
<title>KuszkAPI::Containers::Strings::All</title>
<polygon fill="white" stroke="none" points="-4,4 -4,-132 288,-132 288,4 -4,4"/>
<!-- Node1 -->
<g id="node1" class="node"><title>Node1</title>
<polygon fill="#bfbfbf" stroke="black" points="0.5,-49 0.5,-79 113.5,-79 113.5,-49 0.5,-49"/>
<text text-anchor="start" x="8.5" y="-67" font-family="Helvetica,sans-Serif" font-size="10.00">KuszkAPI::Containers</text>
<text text-anchor="middle" x="57" y="-56" font-family="Helvetica,sans-Serif" font-size="10.00">::Strings::All</text>
</g>
<!-- Node2 -->
<g id="node2" class="node"><title>Node2</title>
<g id="a_node2"><a xlink:href="class_kuszk_a_p_i_1_1_core_1_1_script.html#abf5addecd4187fb491bb7b561eca1d49" target="_top" xlink:title="KuszkAPI::Core::Script\l::GetQuotes">
<polygon fill="white" stroke="black" points="158,-98 158,-128 276,-128 276,-98 158,-98"/>
<text text-anchor="start" x="166" y="-116" font-family="Helvetica,sans-Serif" font-size="10.00">KuszkAPI::Core::Script</text>
<text text-anchor="middle" x="217" y="-105" font-family="Helvetica,sans-Serif" font-size="10.00">::GetQuotes</text>
</a>
</g>
</g>
<!-- Node1&#45;&gt;Node2 -->
<g id="edge1" class="edge"><title>Node1&#45;&gt;Node2</title>
<path fill="none" stroke="midnightblue" d="M116.405,-82.1129C133.202,-87.3222 151.335,-92.9457 167.466,-97.9484"/>
<polygon fill="midnightblue" stroke="midnightblue" points="117.282,-78.7207 106.694,-79.1014 115.209,-85.4065 117.282,-78.7207"/>
</g>
<!-- Node3 -->
<g id="node3" class="node"><title>Node3</title>
<g id="a_node3"><a xlink:href="class_kuszk_a_p_i_1_1_forms_1_1_edit_box.html#a004954489f1fd9242d0110ec65ed04d1" target="_top" xlink:title="KuszkAPI::Forms::EditBox\l::SetLine">
<polygon fill="white" stroke="black" points="150,-49 150,-79 284,-79 284,-49 150,-49"/>
<text text-anchor="start" x="158" y="-67" font-family="Helvetica,sans-Serif" font-size="10.00">KuszkAPI::Forms::EditBox</text>
<text text-anchor="middle" x="217" y="-56" font-family="Helvetica,sans-Serif" font-size="10.00">::SetLine</text>
</a>
</g>
</g>
<!-- Node1&#45;&gt;Node3 -->
<g id="edge2" class="edge"><title>Node1&#45;&gt;Node3</title>
<path fill="none" stroke="midnightblue" d="M123.753,-64C132.42,-64 141.306,-64 149.977,-64"/>
<polygon fill="midnightblue" stroke="midnightblue" points="123.705,-60.5001 113.705,-64 123.705,-67.5001 123.705,-60.5001"/>
</g>
<!-- Node4 -->
<g id="node4" class="node"><title>Node4</title>
<g id="a_node4"><a xlink:href="class_kuszk_a_p_i_1_1_forms_1_1_edit_box.html#aa7bdf1d87d3f6ab0085754a6e4d35d81" target="_top" xlink:title="KuszkAPI::Forms::EditBox\l::SetLines">
<polygon fill="white" stroke="black" points="150,-0 150,-30 284,-30 284,-0 150,-0"/>
<text text-anchor="start" x="158" y="-18" font-family="Helvetica,sans-Serif" font-size="10.00">KuszkAPI::Forms::EditBox</text>
<text text-anchor="middle" x="217" y="-7" font-family="Helvetica,sans-Serif" font-size="10.00">::SetLines</text>
</a>
</g>
</g>
<!-- Node1&#45;&gt;Node4 -->
<g id="edge3" class="edge"><title>Node1&#45;&gt;Node4</title>
<path fill="none" stroke="midnightblue" d="M116.405,-45.8871C133.202,-40.6778 151.335,-35.0543 167.466,-30.0516"/>
<polygon fill="midnightblue" stroke="midnightblue" points="115.209,-42.5935 106.694,-48.8986 117.282,-49.2793 115.209,-42.5935"/>
</g>
</g>
</svg>
