<?xml version="1.0" encoding="UTF-8" standalone="no"?>
<!DOCTYPE svg PUBLIC "-//W3C//DTD SVG 1.1//EN"
 "http://www.w3.org/Graphics/SVG/1.1/DTD/svg11.dtd">
<!-- Generated by graphviz version 2.36.0 (20140111.2315)
 -->
<!-- Title: KuszkAPI::Application::App Pages: 1 -->
<svg width="254pt" height="96pt"
 viewBox="0.00 0.00 254.00 96.00" xmlns="http://www.w3.org/2000/svg" xmlns:xlink="http://www.w3.org/1999/xlink">
<g id="graph0" class="graph" transform="scale(1 1) rotate(0) translate(4 92)">
<title>KuszkAPI::Application::App</title>
<polygon fill="white" stroke="none" points="-4,4 -4,-92 250,-92 250,4 -4,4"/>
<!-- Node1 -->
<g id="node1" class="node"><title>Node1</title>
<polygon fill="#bfbfbf" stroke="black" points="54.5,-68.5 54.5,-87.5 191.5,-87.5 191.5,-68.5 54.5,-68.5"/>
<text text-anchor="middle" x="123" y="-75.5" font-family="Helvetica,sans-Serif" font-size="10.00">KuszkAPI::Application::App</text>
</g>
<!-- Node2 -->
<g id="node2" class="node"><title>Node2</title>
<g id="a_node2"><a xlink:href="class_kuszk_a_p_i_1_1_application_1_1_dll_app.html" target="_top" xlink:title="Implementacja modelu aplikacji bibliotekowej. ">
<polygon fill="white" stroke="black" points="0,-1 0,-31 114,-31 114,-1 0,-1"/>
<text text-anchor="start" x="8" y="-19" font-family="Helvetica,sans-Serif" font-size="10.00">KuszkAPI::Application</text>
<text text-anchor="middle" x="57" y="-8" font-family="Helvetica,sans-Serif" font-size="10.00">::DllApp</text>
</a>
</g>
</g>
<!-- Node1&#45;&gt;Node2 -->
<g id="edge1" class="edge"><title>Node1&#45;&gt;Node2</title>
<path fill="none" stroke="midnightblue" d="M105.969,-61.5169C95.6523,-52.1384 82.5925,-40.2659 72.5549,-31.1408"/>
<polygon fill="midnightblue" stroke="midnightblue" points="103.79,-64.2665 113.544,-68.4035 108.499,-59.0869 103.79,-64.2665"/>
</g>
<!-- Node3 -->
<g id="node3" class="node"><title>Node3</title>
<g id="a_node3"><a xlink:href="class_kuszk_a_p_i_1_1_application_1_1_win_app.html" target="_top" xlink:title="Implementacja modelu aplikacji okienkowej. ">
<polygon fill="white" stroke="black" points="132,-1 132,-31 246,-31 246,-1 132,-1"/>
<text text-anchor="start" x="140" y="-19" font-family="Helvetica,sans-Serif" font-size="10.00">KuszkAPI::Application</text>
<text text-anchor="middle" x="189" y="-8" font-family="Helvetica,sans-Serif" font-size="10.00">::WinApp</text>
</a>
</g>
</g>
<!-- Node1&#45;&gt;Node3 -->
<g id="edge2" class="edge"><title>Node1&#45;&gt;Node3</title>
<path fill="none" stroke="midnightblue" d="M140.031,-61.5169C150.348,-52.1384 163.408,-40.2659 173.445,-31.1408"/>
<polygon fill="midnightblue" stroke="midnightblue" points="137.501,-59.0869 132.456,-68.4035 142.21,-64.2665 137.501,-59.0869"/>
</g>
</g>
</svg>
