<?xml version="1.0" encoding="UTF-8" standalone="no"?>
<!DOCTYPE svg PUBLIC "-//W3C//DTD SVG 1.1//EN"
 "http://www.w3.org/Graphics/SVG/1.1/DTD/svg11.dtd">
<!-- Generated by graphviz version 2.36.0 (20140111.2315)
 -->
<!-- Title: KuszkAPI::Forms::Controls::Group&lt; tnData &gt; Pages: 1 -->
<svg width="412pt" height="590pt"
 viewBox="0.00 0.00 412.00 590.00" xmlns="http://www.w3.org/2000/svg" xmlns:xlink="http://www.w3.org/1999/xlink">
<g id="graph0" class="graph" transform="scale(1 1) rotate(0) translate(4 586)">
<title>KuszkAPI::Forms::Controls::Group&lt; tnData &gt;</title>
<polygon fill="white" stroke="none" points="-4,4 -4,-586 408,-586 408,4 -4,4"/>
<!-- Node1 -->
<g id="node1" class="node"><title>Node1</title>
<polygon fill="#bfbfbf" stroke="black" points="0,-276 0,-306 136,-306 136,-276 0,-276"/>
<text text-anchor="start" x="8" y="-294" font-family="Helvetica,sans-Serif" font-size="10.00">KuszkAPI::Forms::Controls</text>
<text text-anchor="middle" x="68" y="-283" font-family="Helvetica,sans-Serif" font-size="10.00">::Group&lt; tnData &gt;</text>
</g>
<!-- Node2 -->
<g id="node2" class="node"><title>Node2</title>
<g id="a_node2"><a xlink:href="class_kuszk_a_p_i_1_1_forms_1_1_controls_1_1_group.html" target="_top" xlink:title="KuszkAPI::Forms::Controls\l::Group\&lt; KuszkAPI::Forms\l::RadioBox \&gt;">
<polygon fill="white" stroke="black" points="268,-540.5 268,-581.5 404,-581.5 404,-540.5 268,-540.5"/>
<text text-anchor="start" x="276" y="-569.5" font-family="Helvetica,sans-Serif" font-size="10.00">KuszkAPI::Forms::Controls</text>
<text text-anchor="start" x="276" y="-558.5" font-family="Helvetica,sans-Serif" font-size="10.00">::Group&lt; KuszkAPI::Forms</text>
<text text-anchor="middle" x="336" y="-547.5" font-family="Helvetica,sans-Serif" font-size="10.00">::RadioBox &gt;</text>
</a>
</g>
</g>
<!-- Node1&#45;&gt;Node2 -->
<g id="edge1" class="edge"><title>Node1&#45;&gt;Node2</title>
<path fill="none" stroke="orange" stroke-dasharray="5,2" d="M70.9128,-316.373C75.8741,-363.482 93.3781,-464.521 154,-518 185.002,-545.349 230.252,-556.099 267.752,-560.012"/>
<polygon fill="orange" stroke="orange" points="74.3707,-315.762 69.9457,-306.135 67.4018,-316.42 74.3707,-315.762"/>
<text text-anchor="start" x="154" y="-571" font-family="Helvetica,sans-Serif" font-size="10.00"> &lt; KuszkAPI::Forms::</text>
<text text-anchor="middle" x="202" y="-560" font-family="Helvetica,sans-Serif" font-size="10.00">RadioBox &gt;</text>
</g>
<!-- Node3 -->
<g id="node3" class="node"><title>Node3</title>
<g id="a_node3"><a xlink:href="class_kuszk_a_p_i_1_1_forms_1_1_controls_1_1_group.html" target="_top" xlink:title="KuszkAPI::Forms::Controls\l::Group\&lt; KuszkAPI::Forms\l::Calendar \&gt;">
<polygon fill="white" stroke="black" points="268,-480.5 268,-521.5 404,-521.5 404,-480.5 268,-480.5"/>
<text text-anchor="start" x="276" y="-509.5" font-family="Helvetica,sans-Serif" font-size="10.00">KuszkAPI::Forms::Controls</text>
<text text-anchor="start" x="276" y="-498.5" font-family="Helvetica,sans-Serif" font-size="10.00">::Group&lt; KuszkAPI::Forms</text>
<text text-anchor="middle" x="336" y="-487.5" font-family="Helvetica,sans-Serif" font-size="10.00">::Calendar &gt;</text>
</a>
</g>
</g>
<!-- Node1&#45;&gt;Node3 -->
<g id="edge2" class="edge"><title>Node1&#45;&gt;Node3</title>
<path fill="none" stroke="orange" stroke-dasharray="5,2" d="M75.1741,-315.803C85.3866,-351.586 109.257,-417.304 154,-453 186.147,-478.648 230.72,-490.669 267.588,-496.267"/>
<polygon fill="orange" stroke="orange" points="78.547,-314.868 72.5422,-306.139 71.793,-316.707 78.547,-314.868"/>
<text text-anchor="start" x="154" y="-506" font-family="Helvetica,sans-Serif" font-size="10.00"> &lt; KuszkAPI::Forms::</text>
<text text-anchor="middle" x="202" y="-495" font-family="Helvetica,sans-Serif" font-size="10.00">Calendar &gt;</text>
</g>
<!-- Node4 -->
<g id="node4" class="node"><title>Node4</title>
<g id="a_node4"><a xlink:href="class_kuszk_a_p_i_1_1_forms_1_1_controls_1_1_group.html" target="_top" xlink:title="KuszkAPI::Forms::Controls\l::Group\&lt; KuszkAPI::Forms\l::TabBox \&gt;">
<polygon fill="white" stroke="black" points="268,-420.5 268,-461.5 404,-461.5 404,-420.5 268,-420.5"/>
<text text-anchor="start" x="276" y="-449.5" font-family="Helvetica,sans-Serif" font-size="10.00">KuszkAPI::Forms::Controls</text>
<text text-anchor="start" x="276" y="-438.5" font-family="Helvetica,sans-Serif" font-size="10.00">::Group&lt; KuszkAPI::Forms</text>
<text text-anchor="middle" x="336" y="-427.5" font-family="Helvetica,sans-Serif" font-size="10.00">::TabBox &gt;</text>
</a>
</g>
</g>
<!-- Node1&#45;&gt;Node4 -->
<g id="edge3" class="edge"><title>Node1&#45;&gt;Node4</title>
<path fill="none" stroke="orange" stroke-dasharray="5,2" d="M83.5097,-314.864C98.456,-337.462 123.789,-370.721 154,-390 188.264,-411.865 232.01,-424.525 267.911,-431.762"/>
<polygon fill="orange" stroke="orange" points="86.2891,-312.715 77.9378,-306.196 80.4005,-316.5 86.2891,-312.715"/>
<text text-anchor="start" x="154" y="-441" font-family="Helvetica,sans-Serif" font-size="10.00"> &lt; KuszkAPI::Forms::</text>
<text text-anchor="middle" x="202" y="-430" font-family="Helvetica,sans-Serif" font-size="10.00">TabBox &gt;</text>
</g>
<!-- Node5 -->
<g id="node5" class="node"><title>Node5</title>
<g id="a_node5"><a xlink:href="class_kuszk_a_p_i_1_1_forms_1_1_controls_1_1_group.html" target="_top" xlink:title="KuszkAPI::Forms::Controls\l::Group\&lt; KuszkAPI::Forms\l::CheckBox \&gt;">
<polygon fill="white" stroke="black" points="268,-360.5 268,-401.5 404,-401.5 404,-360.5 268,-360.5"/>
<text text-anchor="start" x="276" y="-389.5" font-family="Helvetica,sans-Serif" font-size="10.00">KuszkAPI::Forms::Controls</text>
<text text-anchor="start" x="276" y="-378.5" font-family="Helvetica,sans-Serif" font-size="10.00">::Group&lt; KuszkAPI::Forms</text>
<text text-anchor="middle" x="336" y="-367.5" font-family="Helvetica,sans-Serif" font-size="10.00">::CheckBox &gt;</text>
</a>
</g>
</g>
<!-- Node1&#45;&gt;Node5 -->
<g id="edge4" class="edge"><title>Node1&#45;&gt;Node5</title>
<path fill="none" stroke="orange" stroke-dasharray="5,2" d="M101.418,-311.103C116.89,-320.023 135.934,-330.05 154,-337 190.671,-351.108 233.305,-361.735 267.98,-369.008"/>
<polygon fill="orange" stroke="orange" points="103.149,-308.061 92.7548,-306.011 99.602,-314.096 103.149,-308.061"/>
<text text-anchor="start" x="154" y="-378" font-family="Helvetica,sans-Serif" font-size="10.00"> &lt; KuszkAPI::Forms::</text>
<text text-anchor="middle" x="202" y="-367" font-family="Helvetica,sans-Serif" font-size="10.00">CheckBox &gt;</text>
</g>
<!-- Node6 -->
<g id="node6" class="node"><title>Node6</title>
<g id="a_node6"><a xlink:href="class_kuszk_a_p_i_1_1_forms_1_1_controls_1_1_group.html" target="_top" xlink:title="KuszkAPI::Forms::Controls\l::Group\&lt; KuszkAPI::Forms\l::Label \&gt;">
<polygon fill="white" stroke="black" points="268,-300.5 268,-341.5 404,-341.5 404,-300.5 268,-300.5"/>
<text text-anchor="start" x="276" y="-329.5" font-family="Helvetica,sans-Serif" font-size="10.00">KuszkAPI::Forms::Controls</text>
<text text-anchor="start" x="276" y="-318.5" font-family="Helvetica,sans-Serif" font-size="10.00">::Group&lt; KuszkAPI::Forms</text>
<text text-anchor="middle" x="336" y="-307.5" font-family="Helvetica,sans-Serif" font-size="10.00">::Label &gt;</text>
</a>
</g>
</g>
<!-- Node1&#45;&gt;Node6 -->
<g id="edge5" class="edge"><title>Node1&#45;&gt;Node6</title>
<path fill="none" stroke="orange" stroke-dasharray="5,2" d="M146.253,-299.713C184.763,-304.056 230.886,-309.258 267.898,-313.432"/>
<polygon fill="orange" stroke="orange" points="146.452,-296.213 136.123,-298.57 145.668,-303.169 146.452,-296.213"/>
<text text-anchor="start" x="154" y="-325" font-family="Helvetica,sans-Serif" font-size="10.00"> &lt; KuszkAPI::Forms::</text>
<text text-anchor="middle" x="202" y="-314" font-family="Helvetica,sans-Serif" font-size="10.00">Label &gt;</text>
</g>
<!-- Node7 -->
<g id="node7" class="node"><title>Node7</title>
<g id="a_node7"><a xlink:href="class_kuszk_a_p_i_1_1_forms_1_1_controls_1_1_group.html" target="_top" xlink:title="KuszkAPI::Forms::Controls\l::Group\&lt; KuszkAPI::Forms\l::Button \&gt;">
<polygon fill="white" stroke="black" points="268,-240.5 268,-281.5 404,-281.5 404,-240.5 268,-240.5"/>
<text text-anchor="start" x="276" y="-269.5" font-family="Helvetica,sans-Serif" font-size="10.00">KuszkAPI::Forms::Controls</text>
<text text-anchor="start" x="276" y="-258.5" font-family="Helvetica,sans-Serif" font-size="10.00">::Group&lt; KuszkAPI::Forms</text>
<text text-anchor="middle" x="336" y="-247.5" font-family="Helvetica,sans-Serif" font-size="10.00">::Button &gt;</text>
</a>
</g>
</g>
<!-- Node1&#45;&gt;Node7 -->
<g id="edge6" class="edge"><title>Node1&#45;&gt;Node7</title>
<path fill="none" stroke="orange" stroke-dasharray="5,2" d="M146.268,-275.117C148.872,-274.718 151.455,-274.344 154,-274 191.464,-268.929 233.576,-265.755 267.746,-263.815"/>
<polygon fill="orange" stroke="orange" points="145.455,-271.703 136.146,-276.761 146.578,-278.612 145.455,-271.703"/>
<text text-anchor="start" x="154" y="-288" font-family="Helvetica,sans-Serif" font-size="10.00"> &lt; KuszkAPI::Forms::</text>
<text text-anchor="middle" x="202" y="-277" font-family="Helvetica,sans-Serif" font-size="10.00">Button &gt;</text>
</g>
<!-- Node8 -->
<g id="node8" class="node"><title>Node8</title>
<g id="a_node8"><a xlink:href="class_kuszk_a_p_i_1_1_forms_1_1_controls_1_1_group.html" target="_top" xlink:title="KuszkAPI::Forms::Controls\l::Group\&lt; KuszkAPI::Forms\l::ListBox \&gt;">
<polygon fill="white" stroke="black" points="268,-180.5 268,-221.5 404,-221.5 404,-180.5 268,-180.5"/>
<text text-anchor="start" x="276" y="-209.5" font-family="Helvetica,sans-Serif" font-size="10.00">KuszkAPI::Forms::Controls</text>
<text text-anchor="start" x="276" y="-198.5" font-family="Helvetica,sans-Serif" font-size="10.00">::Group&lt; KuszkAPI::Forms</text>
<text text-anchor="middle" x="336" y="-187.5" font-family="Helvetica,sans-Serif" font-size="10.00">::ListBox &gt;</text>
</a>
</g>
</g>
<!-- Node1&#45;&gt;Node8 -->
<g id="edge7" class="edge"><title>Node1&#45;&gt;Node8</title>
<path fill="none" stroke="orange" stroke-dasharray="5,2" d="M97.5776,-270.104C113.487,-259.37 134.058,-246.918 154,-239 190.258,-224.603 232.87,-215.312 267.638,-209.524"/>
<polygon fill="orange" stroke="orange" points="95.4938,-267.289 89.2523,-275.851 99.4703,-273.05 95.4938,-267.289"/>
<text text-anchor="start" x="154" y="-253" font-family="Helvetica,sans-Serif" font-size="10.00"> &lt; KuszkAPI::Forms::</text>
<text text-anchor="middle" x="202" y="-242" font-family="Helvetica,sans-Serif" font-size="10.00">ListBox &gt;</text>
</g>
<!-- Node9 -->
<g id="node9" class="node"><title>Node9</title>
<g id="a_node9"><a xlink:href="class_kuszk_a_p_i_1_1_forms_1_1_controls_1_1_group.html" target="_top" xlink:title="KuszkAPI::Forms::Controls\l::Group\&lt; KuszkAPI::Forms\l::EditBox \&gt;">
<polygon fill="white" stroke="black" points="268,-120.5 268,-161.5 404,-161.5 404,-120.5 268,-120.5"/>
<text text-anchor="start" x="276" y="-149.5" font-family="Helvetica,sans-Serif" font-size="10.00">KuszkAPI::Forms::Controls</text>
<text text-anchor="start" x="276" y="-138.5" font-family="Helvetica,sans-Serif" font-size="10.00">::Group&lt; KuszkAPI::Forms</text>
<text text-anchor="middle" x="336" y="-127.5" font-family="Helvetica,sans-Serif" font-size="10.00">::EditBox &gt;</text>
</a>
</g>
</g>
<!-- Node1&#45;&gt;Node9 -->
<g id="edge8" class="edge"><title>Node1&#45;&gt;Node9</title>
<path fill="none" stroke="orange" stroke-dasharray="5,2" d="M82.4363,-266.851C96.9839,-242.959 122.401,-207.131 154,-187 188.044,-165.311 231.785,-153.839 267.738,-147.775"/>
<polygon fill="orange" stroke="orange" points="79.2997,-265.28 77.2285,-275.67 85.3272,-268.839 79.2997,-265.28"/>
<text text-anchor="start" x="154" y="-201" font-family="Helvetica,sans-Serif" font-size="10.00"> &lt; KuszkAPI::Forms::</text>
<text text-anchor="middle" x="202" y="-190" font-family="Helvetica,sans-Serif" font-size="10.00">EditBox &gt;</text>
</g>
<!-- Node10 -->
<g id="node10" class="node"><title>Node10</title>
<g id="a_node10"><a xlink:href="class_kuszk_a_p_i_1_1_forms_1_1_controls_1_1_group.html" target="_top" xlink:title="KuszkAPI::Forms::Controls\l::Group\&lt; KuszkAPI::Forms\l::TableBox \&gt;">
<polygon fill="white" stroke="black" points="268,-60.5 268,-101.5 404,-101.5 404,-60.5 268,-60.5"/>
<text text-anchor="start" x="276" y="-89.5" font-family="Helvetica,sans-Serif" font-size="10.00">KuszkAPI::Forms::Controls</text>
<text text-anchor="start" x="276" y="-78.5" font-family="Helvetica,sans-Serif" font-size="10.00">::Group&lt; KuszkAPI::Forms</text>
<text text-anchor="middle" x="336" y="-67.5" font-family="Helvetica,sans-Serif" font-size="10.00">::TableBox &gt;</text>
</a>
</g>
</g>
<!-- Node1&#45;&gt;Node10 -->
<g id="edge9" class="edge"><title>Node1&#45;&gt;Node10</title>
<path fill="none" stroke="orange" stroke-dasharray="5,2" d="M74.7459,-266.025C84.5203,-229.343 107.962,-161.325 154,-125 186.115,-99.6601 230.687,-88.6195 267.564,-83.9338"/>
<polygon fill="orange" stroke="orange" points="71.3044,-265.359 72.2423,-275.912 78.0902,-267.077 71.3044,-265.359"/>
<text text-anchor="start" x="154" y="-139" font-family="Helvetica,sans-Serif" font-size="10.00"> &lt; KuszkAPI::Forms::</text>
<text text-anchor="middle" x="202" y="-128" font-family="Helvetica,sans-Serif" font-size="10.00">TableBox &gt;</text>
</g>
<!-- Node11 -->
<g id="node11" class="node"><title>Node11</title>
<g id="a_node11"><a xlink:href="class_kuszk_a_p_i_1_1_forms_1_1_controls_1_1_group.html" target="_top" xlink:title="KuszkAPI::Forms::Controls\l::Group\&lt; KuszkAPI::Forms\l::ComboBox \&gt;">
<polygon fill="white" stroke="black" points="268,-0.5 268,-41.5 404,-41.5 404,-0.5 268,-0.5"/>
<text text-anchor="start" x="276" y="-29.5" font-family="Helvetica,sans-Serif" font-size="10.00">KuszkAPI::Forms::Controls</text>
<text text-anchor="start" x="276" y="-18.5" font-family="Helvetica,sans-Serif" font-size="10.00">::Group&lt; KuszkAPI::Forms</text>
<text text-anchor="middle" x="336" y="-7.5" font-family="Helvetica,sans-Serif" font-size="10.00">::ComboBox &gt;</text>
</a>
</g>
</g>
<!-- Node1&#45;&gt;Node11 -->
<g id="edge10" class="edge"><title>Node1&#45;&gt;Node11</title>
<path fill="none" stroke="orange" stroke-dasharray="5,2" d="M70.6613,-265.856C75.216,-218.27 92.0872,-114.99 154,-61 185.046,-33.9266 230.296,-23.9266 267.785,-20.6949"/>
<polygon fill="orange" stroke="orange" points="67.1662,-265.652 69.8057,-275.912 74.141,-266.245 67.1662,-265.652"/>
<text text-anchor="start" x="154" y="-75" font-family="Helvetica,sans-Serif" font-size="10.00"> &lt; KuszkAPI::Forms::</text>
<text text-anchor="middle" x="202" y="-64" font-family="Helvetica,sans-Serif" font-size="10.00">ComboBox &gt;</text>
</g>
</g>
</svg>
