<?xml version="1.0" encoding="UTF-8" standalone="no"?>
<!DOCTYPE svg PUBLIC "-//W3C//DTD SVG 1.1//EN"
 "http://www.w3.org/Graphics/SVG/1.1/DTD/svg11.dtd">
<!-- Generated by graphviz version 2.36.0 (20140111.2315)
 -->
<!-- Title: KuszkAPI::Sockets::Server Pages: 1 -->
<svg width="116pt" height="108pt"
 viewBox="0.00 0.00 116.00 108.00" xmlns="http://www.w3.org/2000/svg" xmlns:xlink="http://www.w3.org/1999/xlink">
<g id="graph0" class="graph" transform="scale(1 1) rotate(0) translate(4 104)">
<title>KuszkAPI::Sockets::Server</title>
<polygon fill="white" stroke="none" points="-4,4 -4,-104 112,-104 112,4 -4,4"/>
<!-- Node1 -->
<g id="node1" class="node"><title>Node1</title>
<polygon fill="#bfbfbf" stroke="black" points="0,-1 0,-31 108,-31 108,-1 0,-1"/>
<text text-anchor="start" x="8" y="-19" font-family="Helvetica,sans-Serif" font-size="10.00">KuszkAPI::Sockets::</text>
<text text-anchor="middle" x="54" y="-8" font-family="Helvetica,sans-Serif" font-size="10.00">Server</text>
</g>
<!-- Node2 -->
<g id="node2" class="node"><title>Node2</title>
<g id="a_node2"><a xlink:href="class_kuszk_a_p_i_1_1_sockets_1_1_socket.html" target="_top" xlink:title="KuszkAPI::Sockets::\lSocket">
<polygon fill="white" stroke="black" points="0,-69 0,-99 108,-99 108,-69 0,-69"/>
<text text-anchor="start" x="8" y="-87" font-family="Helvetica,sans-Serif" font-size="10.00">KuszkAPI::Sockets::</text>
<text text-anchor="middle" x="54" y="-76" font-family="Helvetica,sans-Serif" font-size="10.00">Socket</text>
</a>
</g>
</g>
<!-- Node2&#45;&gt;Node1 -->
<g id="edge1" class="edge"><title>Node2&#45;&gt;Node1</title>
<path fill="none" stroke="#8b1a1a" d="M54,-58.5322C54,-49.3606 54,-39.2449 54,-31.2931"/>
<polygon fill="#8b1a1a" stroke="#8b1a1a" points="50.5001,-58.6789 54,-68.679 57.5001,-58.679 50.5001,-58.6789"/>
</g>
</g>
</svg>
