<?xml version="1.0" encoding="UTF-8" standalone="no"?>
<!DOCTYPE svg PUBLIC "-//W3C//DTD SVG 1.1//EN"
 "http://www.w3.org/Graphics/SVG/1.1/DTD/svg11.dtd">
<!-- Generated by graphviz version 2.36.0 (20140111.2315)
 -->
<!-- Title: KuszkAPI::Containers::Vector&lt; tnData &gt; Pages: 1 -->
<svg width="600pt" height="1443pt"
 viewBox="0.00 0.00 600.00 1442.66" xmlns="http://www.w3.org/2000/svg" xmlns:xlink="http://www.w3.org/1999/xlink">
<g id="graph0" class="graph" transform="scale(1 1) rotate(0) translate(4 1438.66)">
<title>KuszkAPI::Containers::Vector&lt; tnData &gt;</title>
<polygon fill="white" stroke="none" points="-4,4 -4,-1438.66 596,-1438.66 596,4 -4,4"/>
<!-- Node1 -->
<g id="node1" class="node"><title>Node1</title>
<polygon fill="#bfbfbf" stroke="black" points="152.5,-705.66 152.5,-735.66 265.5,-735.66 265.5,-705.66 152.5,-705.66"/>
<text text-anchor="start" x="160.5" y="-723.66" font-family="Helvetica,sans-Serif" font-size="10.00">KuszkAPI::Containers</text>
<text text-anchor="middle" x="209" y="-712.66" font-family="Helvetica,sans-Serif" font-size="10.00">::Vector&lt; tnData &gt;</text>
</g>
<!-- Node3 -->
<g id="node3" class="node"><title>Node3</title>
<g id="a_node3"><a xlink:href="class_kuszk_a_p_i_1_1_containers_1_1_vector.html" target="_top" xlink:title="KuszkAPI::Containers\l::Vector\&lt; KuszkAPI::Forms\l::TabBox * \&gt;">
<polygon fill="white" stroke="black" points="440.5,-1377.16 440.5,-1418.16 577.5,-1418.16 577.5,-1377.16 440.5,-1377.16"/>
<text text-anchor="start" x="448.5" y="-1406.16" font-family="Helvetica,sans-Serif" font-size="10.00">KuszkAPI::Containers</text>
<text text-anchor="start" x="448.5" y="-1395.16" font-family="Helvetica,sans-Serif" font-size="10.00">::Vector&lt; KuszkAPI::Forms</text>
<text text-anchor="middle" x="509" y="-1384.16" font-family="Helvetica,sans-Serif" font-size="10.00">::TabBox * &gt;</text>
</a>
</g>
</g>
<!-- Node1&#45;&gt;Node3 -->
<g id="edge2" class="edge"><title>Node1&#45;&gt;Node3</title>
<path fill="none" stroke="orange" stroke-dasharray="5,2" d="M211.052,-746.085C216.039,-860.796 238.955,-1326.51 284,-1371.66 323.955,-1411.71 390.172,-1414.83 440.275,-1409.95"/>
<polygon fill="orange" stroke="orange" points="214.537,-745.663 210.613,-735.822 207.544,-745.962 214.537,-745.663"/>
<text text-anchor="start" x="298" y="-1426.66" font-family="Helvetica,sans-Serif" font-size="10.00"> &lt; KuszkAPI::Forms::</text>
<text text-anchor="middle" x="346" y="-1415.66" font-family="Helvetica,sans-Serif" font-size="10.00">TabBox * &gt;</text>
</g>
<!-- Node4 -->
<g id="node4" class="node"><title>Node4</title>
<g id="a_node4"><a xlink:href="class_kuszk_a_p_i_1_1_containers_1_1_vector.html" target="_top" xlink:title="KuszkAPI::Containers\l::Vector\&lt; HHOOK * \&gt;">
<polygon fill="white" stroke="black" points="452.5,-1327.66 452.5,-1357.66 565.5,-1357.66 565.5,-1327.66 452.5,-1327.66"/>
<text text-anchor="start" x="460.5" y="-1345.66" font-family="Helvetica,sans-Serif" font-size="10.00">KuszkAPI::Containers</text>
<text text-anchor="middle" x="509" y="-1334.66" font-family="Helvetica,sans-Serif" font-size="10.00">::Vector&lt; HHOOK * &gt;</text>
</a>
</g>
</g>
<!-- Node1&#45;&gt;Node4 -->
<g id="edge3" class="edge"><title>Node1&#45;&gt;Node4</title>
<path fill="none" stroke="orange" stroke-dasharray="5,2" d="M211.335,-745.953C217.284,-854.191 242.916,-1274.73 284,-1315.66 327.429,-1358.92 401.473,-1359.38 452.47,-1353.2"/>
<polygon fill="orange" stroke="orange" points="214.828,-745.73 210.791,-735.935 207.838,-746.109 214.828,-745.73"/>
<text text-anchor="middle" x="346" y="-1359.66" font-family="Helvetica,sans-Serif" font-size="10.00"> &lt; HHOOK * &gt;</text>
</g>
<!-- Node5 -->
<g id="node5" class="node"><title>Node5</title>
<g id="a_node5"><a xlink:href="class_kuszk_a_p_i_1_1_containers_1_1_vector.html" target="_top" xlink:title="KuszkAPI::Containers\l::Vector\&lt; KuszkAPI::Forms\l::Font::ItemData * \&gt;">
<polygon fill="white" stroke="black" points="440.5,-1267.16 440.5,-1308.16 577.5,-1308.16 577.5,-1267.16 440.5,-1267.16"/>
<text text-anchor="start" x="448.5" y="-1296.16" font-family="Helvetica,sans-Serif" font-size="10.00">KuszkAPI::Containers</text>
<text text-anchor="start" x="448.5" y="-1285.16" font-family="Helvetica,sans-Serif" font-size="10.00">::Vector&lt; KuszkAPI::Forms</text>
<text text-anchor="middle" x="509" y="-1274.16" font-family="Helvetica,sans-Serif" font-size="10.00">::Font::ItemData * &gt;</text>
</a>
</g>
</g>
<!-- Node1&#45;&gt;Node5 -->
<g id="edge4" class="edge"><title>Node1&#45;&gt;Node5</title>
<path fill="none" stroke="orange" stroke-dasharray="5,2" d="M209.487,-745.93C208.078,-843.366 208.442,-1192.85 284,-1265.66 305.701,-1286.57 382.575,-1290.27 440.255,-1289.91"/>
<polygon fill="orange" stroke="orange" points="212.989,-745.874 209.654,-735.818 205.989,-745.759 212.989,-745.874"/>
<text text-anchor="start" x="298" y="-1303.66" font-family="Helvetica,sans-Serif" font-size="10.00"> &lt; KuszkAPI::Forms::</text>
<text text-anchor="middle" x="346" y="-1292.66" font-family="Helvetica,sans-Serif" font-size="10.00">Font::ItemData * &gt;</text>
</g>
<!-- Node6 -->
<g id="node6" class="node"><title>Node6</title>
<g id="a_node6"><a xlink:href="class_kuszk_a_p_i_1_1_containers_1_1_vector.html" target="_top" xlink:title="KuszkAPI::Containers\l::Vector\&lt; KuszkAPI::Forms\l::CheckBox * \&gt;">
<polygon fill="white" stroke="black" points="440.5,-1207.16 440.5,-1248.16 577.5,-1248.16 577.5,-1207.16 440.5,-1207.16"/>
<text text-anchor="start" x="448.5" y="-1236.16" font-family="Helvetica,sans-Serif" font-size="10.00">KuszkAPI::Containers</text>
<text text-anchor="start" x="448.5" y="-1225.16" font-family="Helvetica,sans-Serif" font-size="10.00">::Vector&lt; KuszkAPI::Forms</text>
<text text-anchor="middle" x="509" y="-1214.16" font-family="Helvetica,sans-Serif" font-size="10.00">::CheckBox * &gt;</text>
</a>
</g>
</g>
<!-- Node1&#45;&gt;Node6 -->
<g id="edge5" class="edge"><title>Node1&#45;&gt;Node6</title>
<path fill="none" stroke="orange" stroke-dasharray="5,2" d="M210.07,-746.255C210.881,-836.24 218.53,-1136.06 284,-1199.66 324.549,-1239.05 390.523,-1242.94 440.394,-1238.83"/>
<polygon fill="orange" stroke="orange" points="213.569,-746.099 210.001,-736.123 206.569,-746.147 213.569,-746.099"/>
<text text-anchor="start" x="298" y="-1254.66" font-family="Helvetica,sans-Serif" font-size="10.00"> &lt; KuszkAPI::Forms::</text>
<text text-anchor="middle" x="346" y="-1243.66" font-family="Helvetica,sans-Serif" font-size="10.00">CheckBox * &gt;</text>
</g>
<!-- Node7 -->
<g id="node7" class="node"><title>Node7</title>
<g id="a_node7"><a xlink:href="class_kuszk_a_p_i_1_1_containers_1_1_vector.html" target="_top" xlink:title="KuszkAPI::Containers\l::Vector\&lt; tnData * \&gt;">
<polygon fill="white" stroke="black" points="452.5,-1157.66 452.5,-1187.66 565.5,-1187.66 565.5,-1157.66 452.5,-1157.66"/>
<text text-anchor="start" x="460.5" y="-1175.66" font-family="Helvetica,sans-Serif" font-size="10.00">KuszkAPI::Containers</text>
<text text-anchor="middle" x="509" y="-1164.66" font-family="Helvetica,sans-Serif" font-size="10.00">::Vector&lt; tnData * &gt;</text>
</a>
</g>
</g>
<!-- Node1&#45;&gt;Node7 -->
<g id="edge6" class="edge"><title>Node1&#45;&gt;Node7</title>
<path fill="none" stroke="orange" stroke-dasharray="5,2" d="M210.643,-745.892C213.298,-828.444 226.183,-1088.36 284,-1143.66 328.206,-1185.94 401.716,-1187.46 452.4,-1182.2"/>
<polygon fill="orange" stroke="orange" points="214.135,-745.561 210.339,-735.67 207.138,-745.77 214.135,-745.561"/>
<text text-anchor="middle" x="346" y="-1187.66" font-family="Helvetica,sans-Serif" font-size="10.00"> &lt; tnData * &gt;</text>
</g>
<!-- Node8 -->
<g id="node8" class="node"><title>Node8</title>
<g id="a_node8"><a xlink:href="class_kuszk_a_p_i_1_1_containers_1_1_vector.html" target="_top" xlink:title="KuszkAPI::Containers\l::Vector\&lt; KuszkAPI::Core\l::Threads::ItemData * \&gt;">
<polygon fill="white" stroke="black" points="444,-1097.16 444,-1138.16 574,-1138.16 574,-1097.16 444,-1097.16"/>
<text text-anchor="start" x="452" y="-1126.16" font-family="Helvetica,sans-Serif" font-size="10.00">KuszkAPI::Containers</text>
<text text-anchor="start" x="452" y="-1115.16" font-family="Helvetica,sans-Serif" font-size="10.00">::Vector&lt; KuszkAPI::Core</text>
<text text-anchor="middle" x="509" y="-1104.16" font-family="Helvetica,sans-Serif" font-size="10.00">::Threads::ItemData * &gt;</text>
</a>
</g>
</g>
<!-- Node1&#45;&gt;Node8 -->
<g id="edge7" class="edge"><title>Node1&#45;&gt;Node8</title>
<path fill="none" stroke="orange" stroke-dasharray="5,2" d="M211.275,-746.103C215.643,-822.176 232.685,-1045.54 284,-1092.66 306.662,-1113.47 386.001,-1118.15 443.838,-1118.66"/>
<polygon fill="orange" stroke="orange" points="214.763,-745.78 210.72,-735.986 207.773,-746.163 214.763,-745.78"/>
<text text-anchor="start" x="284.5" y="-1131.66" font-family="Helvetica,sans-Serif" font-size="10.00"> &lt; KuszkAPI::Core::Threads</text>
<text text-anchor="middle" x="346" y="-1120.66" font-family="Helvetica,sans-Serif" font-size="10.00">::ItemData * &gt;</text>
</g>
<!-- Node9 -->
<g id="node9" class="node"><title>Node9</title>
<g id="a_node9"><a xlink:href="class_kuszk_a_p_i_1_1_containers_1_1_vector.html" target="_top" xlink:title="KuszkAPI::Containers\l::Vector\&lt; UINT_PTR * \&gt;">
<polygon fill="white" stroke="black" points="448.5,-1047.66 448.5,-1077.66 569.5,-1077.66 569.5,-1047.66 448.5,-1047.66"/>
<text text-anchor="start" x="456.5" y="-1065.66" font-family="Helvetica,sans-Serif" font-size="10.00">KuszkAPI::Containers</text>
<text text-anchor="middle" x="509" y="-1054.66" font-family="Helvetica,sans-Serif" font-size="10.00">::Vector&lt; UINT_PTR * &gt;</text>
</a>
</g>
</g>
<!-- Node1&#45;&gt;Node9 -->
<g id="edge8" class="edge"><title>Node1&#45;&gt;Node9</title>
<path fill="none" stroke="orange" stroke-dasharray="5,2" d="M212.137,-746.138C218.455,-814.869 239.46,-1001.54 284,-1040.66 328.332,-1079.6 398.299,-1080.26 448.236,-1074.24"/>
<polygon fill="orange" stroke="orange" points="215.59,-745.452 211.216,-735.802 208.617,-746.073 215.59,-745.452"/>
<text text-anchor="middle" x="346" y="-1080.66" font-family="Helvetica,sans-Serif" font-size="10.00"> &lt; UINT_PTR * &gt;</text>
</g>
<!-- Node10 -->
<g id="node10" class="node"><title>Node10</title>
<g id="a_node10"><a xlink:href="class_kuszk_a_p_i_1_1_containers_1_1_vector.html" target="_top" xlink:title="KuszkAPI::Containers\l::Vector\&lt; HBRUSH * \&gt;">
<polygon fill="white" stroke="black" points="451,-998.66 451,-1028.66 567,-1028.66 567,-998.66 451,-998.66"/>
<text text-anchor="start" x="459" y="-1016.66" font-family="Helvetica,sans-Serif" font-size="10.00">KuszkAPI::Containers</text>
<text text-anchor="middle" x="509" y="-1005.66" font-family="Helvetica,sans-Serif" font-size="10.00">::Vector&lt; HBRUSH * &gt;</text>
</a>
</g>
</g>
<!-- Node1&#45;&gt;Node10 -->
<g id="edge9" class="edge"><title>Node1&#45;&gt;Node10</title>
<path fill="none" stroke="orange" stroke-dasharray="5,2" d="M213.389,-745.865C222.028,-806.118 246.848,-955.856 284,-987.66 329.652,-1026.74 401.093,-1028.3 450.982,-1023.29"/>
<polygon fill="orange" stroke="orange" points="216.819,-745.122 211.965,-735.704 209.887,-746.093 216.819,-745.122"/>
<text text-anchor="middle" x="346" y="-1028.66" font-family="Helvetica,sans-Serif" font-size="10.00"> &lt; HBRUSH * &gt;</text>
</g>
<!-- Node11 -->
<g id="node11" class="node"><title>Node11</title>
<g id="a_node11"><a xlink:href="class_kuszk_a_p_i_1_1_containers_1_1_vector.html" target="_top" xlink:title="KuszkAPI::Containers\l::Vector\&lt; HCURSOR * \&gt;">
<polygon fill="white" stroke="black" points="447,-949.66 447,-979.66 571,-979.66 571,-949.66 447,-949.66"/>
<text text-anchor="start" x="455" y="-967.66" font-family="Helvetica,sans-Serif" font-size="10.00">KuszkAPI::Containers</text>
<text text-anchor="middle" x="509" y="-956.66" font-family="Helvetica,sans-Serif" font-size="10.00">::Vector&lt; HCURSOR * &gt;</text>
</a>
</g>
</g>
<!-- Node1&#45;&gt;Node11 -->
<g id="edge10" class="edge"><title>Node1&#45;&gt;Node11</title>
<path fill="none" stroke="orange" stroke-dasharray="5,2" d="M210.718,-745.874C213.481,-791.241 226.259,-886.297 284,-933.66 329.076,-970.634 397.231,-975.144 446.522,-972.411"/>
<polygon fill="orange" stroke="orange" points="214.206,-745.537 210.22,-735.721 207.215,-745.881 214.206,-745.537"/>
<text text-anchor="middle" x="346" y="-975.66" font-family="Helvetica,sans-Serif" font-size="10.00"> &lt; HCURSOR * &gt;</text>
</g>
<!-- Node12 -->
<g id="node12" class="node"><title>Node12</title>
<g id="a_node12"><a xlink:href="class_kuszk_a_p_i_1_1_containers_1_1_vector.html" target="_top" xlink:title="KuszkAPI::Containers\l::Vector\&lt; KuszkAPI::Forms\l::Calendar * \&gt;">
<polygon fill="white" stroke="black" points="440.5,-889.16 440.5,-930.16 577.5,-930.16 577.5,-889.16 440.5,-889.16"/>
<text text-anchor="start" x="448.5" y="-918.16" font-family="Helvetica,sans-Serif" font-size="10.00">KuszkAPI::Containers</text>
<text text-anchor="start" x="448.5" y="-907.16" font-family="Helvetica,sans-Serif" font-size="10.00">::Vector&lt; KuszkAPI::Forms</text>
<text text-anchor="middle" x="509" y="-896.16" font-family="Helvetica,sans-Serif" font-size="10.00">::Calendar * &gt;</text>
</a>
</g>
</g>
<!-- Node1&#45;&gt;Node12 -->
<g id="edge11" class="edge"><title>Node1&#45;&gt;Node12</title>
<path fill="none" stroke="orange" stroke-dasharray="5,2" d="M215.93,-746.075C224.9,-778.603 245.151,-834.256 284,-863.66 328.713,-897.503 392.278,-908.004 440.28,-910.618"/>
<polygon fill="orange" stroke="orange" points="219.215,-744.798 213.31,-736.001 212.44,-746.56 219.215,-744.798"/>
<text text-anchor="start" x="298" y="-921.66" font-family="Helvetica,sans-Serif" font-size="10.00"> &lt; KuszkAPI::Forms::</text>
<text text-anchor="middle" x="346" y="-910.66" font-family="Helvetica,sans-Serif" font-size="10.00">Calendar * &gt;</text>
</g>
<!-- Node13 -->
<g id="node13" class="node"><title>Node13</title>
<g id="a_node13"><a xlink:href="class_kuszk_a_p_i_1_1_containers_1_1_vector.html" target="_top" xlink:title="KuszkAPI::Containers\l::Vector\&lt; KuszkAPI::Forms\l::TableBox * \&gt;">
<polygon fill="white" stroke="black" points="440.5,-829.16 440.5,-870.16 577.5,-870.16 577.5,-829.16 440.5,-829.16"/>
<text text-anchor="start" x="448.5" y="-858.16" font-family="Helvetica,sans-Serif" font-size="10.00">KuszkAPI::Containers</text>
<text text-anchor="start" x="448.5" y="-847.16" font-family="Helvetica,sans-Serif" font-size="10.00">::Vector&lt; KuszkAPI::Forms</text>
<text text-anchor="middle" x="509" y="-836.16" font-family="Helvetica,sans-Serif" font-size="10.00">::TableBox * &gt;</text>
</a>
</g>
</g>
<!-- Node1&#45;&gt;Node13 -->
<g id="edge12" class="edge"><title>Node1&#45;&gt;Node13</title>
<path fill="none" stroke="orange" stroke-dasharray="5,2" d="M227.197,-744.055C240.788,-760.879 261.217,-782.786 284,-795.66 332.323,-822.966 394.066,-836.535 440.487,-843.237"/>
<polygon fill="orange" stroke="orange" points="229.654,-741.516 220.737,-735.795 224.14,-745.828 229.654,-741.516"/>
<text text-anchor="start" x="298" y="-851.66" font-family="Helvetica,sans-Serif" font-size="10.00"> &lt; KuszkAPI::Forms::</text>
<text text-anchor="middle" x="346" y="-840.66" font-family="Helvetica,sans-Serif" font-size="10.00">TableBox * &gt;</text>
</g>
<!-- Node14 -->
<g id="node14" class="node"><title>Node14</title>
<g id="a_node14"><a xlink:href="class_kuszk_a_p_i_1_1_containers_1_1_vector.html" target="_top" xlink:title="KuszkAPI::Containers\l::Vector\&lt; HINSTANCE * \&gt;">
<polygon fill="white" stroke="black" points="443.5,-779.66 443.5,-809.66 574.5,-809.66 574.5,-779.66 443.5,-779.66"/>
<text text-anchor="start" x="451.5" y="-797.66" font-family="Helvetica,sans-Serif" font-size="10.00">KuszkAPI::Containers</text>
<text text-anchor="middle" x="509" y="-786.66" font-family="Helvetica,sans-Serif" font-size="10.00">::Vector&lt; HINSTANCE * &gt;</text>
</a>
</g>
</g>
<!-- Node1&#45;&gt;Node14 -->
<g id="edge13" class="edge"><title>Node1&#45;&gt;Node14</title>
<path fill="none" stroke="orange" stroke-dasharray="5,2" d="M249.982,-739.878C260.838,-744.561 272.716,-749.21 284,-752.66 336.594,-768.742 398.113,-779.742 443.359,-786.438"/>
<polygon fill="orange" stroke="orange" points="251.306,-736.637 240.746,-735.783 248.469,-743.036 251.306,-736.637"/>
<text text-anchor="middle" x="346" y="-783.66" font-family="Helvetica,sans-Serif" font-size="10.00"> &lt; HINSTANCE * &gt;</text>
</g>
<!-- Node15 -->
<g id="node15" class="node"><title>Node15</title>
<g id="a_node15"><a xlink:href="class_kuszk_a_p_i_1_1_containers_1_1_vector.html" target="_top" xlink:title="KuszkAPI::Containers\l::Vector\&lt; HKEY \&gt;">
<polygon fill="white" stroke="black" points="452.5,-730.66 452.5,-760.66 565.5,-760.66 565.5,-730.66 452.5,-730.66"/>
<text text-anchor="start" x="460.5" y="-748.66" font-family="Helvetica,sans-Serif" font-size="10.00">KuszkAPI::Containers</text>
<text text-anchor="middle" x="509" y="-737.66" font-family="Helvetica,sans-Serif" font-size="10.00">::Vector&lt; HKEY &gt;</text>
</a>
</g>
</g>
<!-- Node1&#45;&gt;Node15 -->
<g id="edge14" class="edge"><title>Node1&#45;&gt;Node15</title>
<path fill="none" stroke="orange" stroke-dasharray="5,2" d="M275.668,-726.169C328.608,-730.61 402.236,-736.787 452.319,-740.989"/>
<polygon fill="orange" stroke="orange" points="275.96,-722.681 265.702,-725.333 275.374,-729.657 275.96,-722.681"/>
<text text-anchor="middle" x="346" y="-740.66" font-family="Helvetica,sans-Serif" font-size="10.00"> &lt; HKEY &gt;</text>
</g>
<!-- Node16 -->
<g id="node16" class="node"><title>Node16</title>
<g id="a_node16"><a xlink:href="class_kuszk_a_p_i_1_1_containers_1_1_vector.html" target="_top" xlink:title="KuszkAPI::Containers\l::Vector\&lt; HBITMAP * \&gt;">
<polygon fill="white" stroke="black" points="449.5,-681.66 449.5,-711.66 568.5,-711.66 568.5,-681.66 449.5,-681.66"/>
<text text-anchor="start" x="457.5" y="-699.66" font-family="Helvetica,sans-Serif" font-size="10.00">KuszkAPI::Containers</text>
<text text-anchor="middle" x="509" y="-688.66" font-family="Helvetica,sans-Serif" font-size="10.00">::Vector&lt; HBITMAP * &gt;</text>
</a>
</g>
</g>
<!-- Node1&#45;&gt;Node16 -->
<g id="edge15" class="edge"><title>Node1&#45;&gt;Node16</title>
<path fill="none" stroke="orange" stroke-dasharray="5,2" d="M275.817,-713.42C278.581,-713.155 281.317,-712.901 284,-712.66 340.112,-707.625 404.247,-703.176 449.47,-700.256"/>
<polygon fill="orange" stroke="orange" points="275.347,-709.949 265.739,-714.415 276.035,-716.915 275.347,-709.949"/>
<text text-anchor="middle" x="346" y="-715.66" font-family="Helvetica,sans-Serif" font-size="10.00"> &lt; HBITMAP * &gt;</text>
</g>
<!-- Node17 -->
<g id="node17" class="node"><title>Node17</title>
<g id="a_node17"><a xlink:href="class_kuszk_a_p_i_1_1_containers_1_1_vector.html" target="_top" xlink:title="KuszkAPI::Containers\l::Vector\&lt; KuszkAPI::Forms\l::Button * \&gt;">
<polygon fill="white" stroke="black" points="440.5,-621.16 440.5,-662.16 577.5,-662.16 577.5,-621.16 440.5,-621.16"/>
<text text-anchor="start" x="448.5" y="-650.16" font-family="Helvetica,sans-Serif" font-size="10.00">KuszkAPI::Containers</text>
<text text-anchor="start" x="448.5" y="-639.16" font-family="Helvetica,sans-Serif" font-size="10.00">::Vector&lt; KuszkAPI::Forms</text>
<text text-anchor="middle" x="509" y="-628.16" font-family="Helvetica,sans-Serif" font-size="10.00">::Button * &gt;</text>
</a>
</g>
</g>
<!-- Node1&#45;&gt;Node17 -->
<g id="edge16" class="edge"><title>Node1&#45;&gt;Node17</title>
<path fill="none" stroke="orange" stroke-dasharray="5,2" d="M239.555,-700.128C252.635,-691.946 268.537,-683.18 284,-677.66 334.635,-659.585 394.957,-650.55 440.24,-646.054"/>
<polygon fill="orange" stroke="orange" points="237.497,-697.29 230.991,-705.651 241.291,-703.173 237.497,-697.29"/>
<text text-anchor="start" x="298" y="-691.66" font-family="Helvetica,sans-Serif" font-size="10.00"> &lt; KuszkAPI::Forms::</text>
<text text-anchor="middle" x="346" y="-680.66" font-family="Helvetica,sans-Serif" font-size="10.00">Button * &gt;</text>
</g>
<!-- Node18 -->
<g id="node18" class="node"><title>Node18</title>
<g id="a_node18"><a xlink:href="class_kuszk_a_p_i_1_1_containers_1_1_vector.html" target="_top" xlink:title="KuszkAPI::Containers\l::Vector\&lt; KuszkAPI::Forms\l::Label * \&gt;">
<polygon fill="white" stroke="black" points="440.5,-561.16 440.5,-602.16 577.5,-602.16 577.5,-561.16 440.5,-561.16"/>
<text text-anchor="start" x="448.5" y="-590.16" font-family="Helvetica,sans-Serif" font-size="10.00">KuszkAPI::Containers</text>
<text text-anchor="start" x="448.5" y="-579.16" font-family="Helvetica,sans-Serif" font-size="10.00">::Vector&lt; KuszkAPI::Forms</text>
<text text-anchor="middle" x="509" y="-568.16" font-family="Helvetica,sans-Serif" font-size="10.00">::Label * &gt;</text>
</a>
</g>
</g>
<!-- Node1&#45;&gt;Node18 -->
<g id="edge17" class="edge"><title>Node1&#45;&gt;Node18</title>
<path fill="none" stroke="orange" stroke-dasharray="5,2" d="M221.901,-696.678C234.271,-674.369 255.777,-642.037 284,-624.66 331.04,-595.698 393.328,-585.532 440.278,-582.277"/>
<polygon fill="orange" stroke="orange" points="218.785,-695.082 217.165,-705.552 224.961,-698.377 218.785,-695.082"/>
<text text-anchor="start" x="298" y="-638.66" font-family="Helvetica,sans-Serif" font-size="10.00"> &lt; KuszkAPI::Forms::</text>
<text text-anchor="middle" x="346" y="-627.66" font-family="Helvetica,sans-Serif" font-size="10.00">Label * &gt;</text>
</g>
<!-- Node19 -->
<g id="node19" class="node"><title>Node19</title>
<g id="a_node19"><a xlink:href="class_kuszk_a_p_i_1_1_containers_1_1_vector.html" target="_top" xlink:title="KuszkAPI::Containers\l::Vector\&lt; HANDLE * \&gt;">
<polygon fill="white" stroke="black" points="451.5,-511.66 451.5,-541.66 566.5,-541.66 566.5,-511.66 451.5,-511.66"/>
<text text-anchor="start" x="459.5" y="-529.66" font-family="Helvetica,sans-Serif" font-size="10.00">KuszkAPI::Containers</text>
<text text-anchor="middle" x="509" y="-518.66" font-family="Helvetica,sans-Serif" font-size="10.00">::Vector&lt; HANDLE * &gt;</text>
</a>
</g>
</g>
<!-- Node1&#45;&gt;Node19 -->
<g id="edge18" class="edge"><title>Node1&#45;&gt;Node19</title>
<path fill="none" stroke="orange" stroke-dasharray="5,2" d="M215.221,-695.655C223.616,-661.991 243.46,-602.738 284,-571.66 332.007,-534.858 402.307,-525.933 451.305,-524.732"/>
<polygon fill="orange" stroke="orange" points="211.76,-695.083 212.886,-705.618 218.575,-696.681 211.76,-695.083"/>
<text text-anchor="middle" x="346" y="-574.66" font-family="Helvetica,sans-Serif" font-size="10.00"> &lt; HANDLE * &gt;</text>
</g>
<!-- Node20 -->
<g id="node20" class="node"><title>Node20</title>
<g id="a_node20"><a xlink:href="class_kuszk_a_p_i_1_1_containers_1_1_vector.html" target="_top" xlink:title="KuszkAPI::Containers\l::Vector\&lt; HRGN * \&gt;">
<polygon fill="white" stroke="black" points="452.5,-462.66 452.5,-492.66 565.5,-492.66 565.5,-462.66 452.5,-462.66"/>
<text text-anchor="start" x="460.5" y="-480.66" font-family="Helvetica,sans-Serif" font-size="10.00">KuszkAPI::Containers</text>
<text text-anchor="middle" x="509" y="-469.66" font-family="Helvetica,sans-Serif" font-size="10.00">::Vector&lt; HRGN * &gt;</text>
</a>
</g>
</g>
<!-- Node1&#45;&gt;Node20 -->
<g id="edge19" class="edge"><title>Node1&#45;&gt;Node20</title>
<path fill="none" stroke="orange" stroke-dasharray="5,2" d="M211.129,-695.332C214.563,-651.048 228.395,-559.873 284,-513.66 330.801,-474.764 402.7,-469.705 452.356,-471.807"/>
<polygon fill="orange" stroke="orange" points="207.623,-695.317 210.461,-705.525 214.608,-695.775 207.623,-695.317"/>
<text text-anchor="middle" x="346" y="-516.66" font-family="Helvetica,sans-Serif" font-size="10.00"> &lt; HRGN * &gt;</text>
</g>
<!-- Node21 -->
<g id="node21" class="node"><title>Node21</title>
<g id="a_node21"><a xlink:href="class_kuszk_a_p_i_1_1_containers_1_1_vector.html" target="_top" xlink:title="KuszkAPI::Containers\l::Vector\&lt; KuszkAPI::Sockets\l::Client * \&gt;">
<polygon fill="white" stroke="black" points="436,-402.16 436,-443.16 582,-443.16 582,-402.16 436,-402.16"/>
<text text-anchor="start" x="444" y="-431.16" font-family="Helvetica,sans-Serif" font-size="10.00">KuszkAPI::Containers</text>
<text text-anchor="start" x="444" y="-420.16" font-family="Helvetica,sans-Serif" font-size="10.00">::Vector&lt; KuszkAPI::Sockets</text>
<text text-anchor="middle" x="509" y="-409.16" font-family="Helvetica,sans-Serif" font-size="10.00">::Client * &gt;</text>
</a>
</g>
</g>
<!-- Node1&#45;&gt;Node21 -->
<g id="edge20" class="edge"><title>Node1&#45;&gt;Node21</title>
<path fill="none" stroke="orange" stroke-dasharray="5,2" d="M213.16,-695.592C221.427,-634.273 245.739,-479.339 284,-446.66 325.19,-411.479 387.376,-407.34 435.782,-410.952"/>
<polygon fill="orange" stroke="orange" points="209.681,-695.206 211.845,-705.578 216.621,-696.12 209.681,-695.206"/>
<text text-anchor="start" x="297" y="-460.66" font-family="Helvetica,sans-Serif" font-size="10.00"> &lt; KuszkAPI::Sockets</text>
<text text-anchor="middle" x="346" y="-449.66" font-family="Helvetica,sans-Serif" font-size="10.00">::Client * &gt;</text>
</g>
<!-- Node22 -->
<g id="node22" class="node"><title>Node22</title>
<g id="a_node22"><a xlink:href="class_kuszk_a_p_i_1_1_containers_1_1_vector.html" target="_top" xlink:title="KuszkAPI::Containers\l::Vector\&lt; KuszkAPI::Forms\l::ComboBox * \&gt;">
<polygon fill="white" stroke="black" points="440.5,-342.16 440.5,-383.16 577.5,-383.16 577.5,-342.16 440.5,-342.16"/>
<text text-anchor="start" x="448.5" y="-371.16" font-family="Helvetica,sans-Serif" font-size="10.00">KuszkAPI::Containers</text>
<text text-anchor="start" x="448.5" y="-360.16" font-family="Helvetica,sans-Serif" font-size="10.00">::Vector&lt; KuszkAPI::Forms</text>
<text text-anchor="middle" x="509" y="-349.16" font-family="Helvetica,sans-Serif" font-size="10.00">::ComboBox * &gt;</text>
</a>
</g>
</g>
<!-- Node1&#45;&gt;Node22 -->
<g id="edge21" class="edge"><title>Node1&#45;&gt;Node22</title>
<path fill="none" stroke="orange" stroke-dasharray="5,2" d="M211.822,-695.341C217.48,-624.399 237.251,-426.157 284,-384.66 325.863,-347.5 391.014,-345.039 440.282,-350.079"/>
<polygon fill="orange" stroke="orange" points="208.311,-695.351 211.033,-705.59 215.29,-695.888 208.311,-695.351"/>
<text text-anchor="start" x="298" y="-398.66" font-family="Helvetica,sans-Serif" font-size="10.00"> &lt; KuszkAPI::Forms::</text>
<text text-anchor="middle" x="346" y="-387.66" font-family="Helvetica,sans-Serif" font-size="10.00">ComboBox * &gt;</text>
</g>
<!-- Node23 -->
<g id="node23" class="node"><title>Node23</title>
<g id="a_node23"><a xlink:href="class_kuszk_a_p_i_1_1_containers_1_1_vector.html" target="_top" xlink:title="KuszkAPI::Containers\l::Vector\&lt; KuszkAPI::Forms\l::ListBox * \&gt;">
<polygon fill="white" stroke="black" points="440.5,-282.16 440.5,-323.16 577.5,-323.16 577.5,-282.16 440.5,-282.16"/>
<text text-anchor="start" x="448.5" y="-311.16" font-family="Helvetica,sans-Serif" font-size="10.00">KuszkAPI::Containers</text>
<text text-anchor="start" x="448.5" y="-300.16" font-family="Helvetica,sans-Serif" font-size="10.00">::Vector&lt; KuszkAPI::Forms</text>
<text text-anchor="middle" x="509" y="-289.16" font-family="Helvetica,sans-Serif" font-size="10.00">::ListBox * &gt;</text>
</a>
</g>
</g>
<!-- Node1&#45;&gt;Node23 -->
<g id="edge22" class="edge"><title>Node1&#45;&gt;Node23</title>
<path fill="none" stroke="orange" stroke-dasharray="5,2" d="M210.854,-695.523C214.107,-616.15 228.506,-373.129 284,-322.66 325.45,-284.964 390.814,-283.244 440.259,-289.013"/>
<polygon fill="orange" stroke="orange" points="207.353,-695.473 210.466,-705.6 214.348,-695.742 207.353,-695.473"/>
<text text-anchor="start" x="298" y="-336.66" font-family="Helvetica,sans-Serif" font-size="10.00"> &lt; KuszkAPI::Forms::</text>
<text text-anchor="middle" x="346" y="-325.66" font-family="Helvetica,sans-Serif" font-size="10.00">ListBox * &gt;</text>
</g>
<!-- Node24 -->
<g id="node24" class="node"><title>Node24</title>
<g id="a_node24"><a xlink:href="class_kuszk_a_p_i_1_1_containers_1_1_vector.html" target="_top" xlink:title="KuszkAPI::Containers\l::Vector\&lt; KuszkAPI::Forms\l::EditBox * \&gt;">
<polygon fill="white" stroke="black" points="440.5,-222.16 440.5,-263.16 577.5,-263.16 577.5,-222.16 440.5,-222.16"/>
<text text-anchor="start" x="448.5" y="-251.16" font-family="Helvetica,sans-Serif" font-size="10.00">KuszkAPI::Containers</text>
<text text-anchor="start" x="448.5" y="-240.16" font-family="Helvetica,sans-Serif" font-size="10.00">::Vector&lt; KuszkAPI::Forms</text>
<text text-anchor="middle" x="509" y="-229.16" font-family="Helvetica,sans-Serif" font-size="10.00">::EditBox * &gt;</text>
</a>
</g>
</g>
<!-- Node1&#45;&gt;Node24 -->
<g id="edge23" class="edge"><title>Node1&#45;&gt;Node24</title>
<path fill="none" stroke="orange" stroke-dasharray="5,2" d="M210.151,-695.126C211.245,-607.33 219.753,-320.003 284,-260.66 325.198,-222.607 390.758,-221.614 440.33,-228.059"/>
<polygon fill="orange" stroke="orange" points="206.65,-695.227 210.048,-705.263 213.65,-695.299 206.65,-695.227"/>
<text text-anchor="start" x="298" y="-274.66" font-family="Helvetica,sans-Serif" font-size="10.00"> &lt; KuszkAPI::Forms::</text>
<text text-anchor="middle" x="346" y="-263.66" font-family="Helvetica,sans-Serif" font-size="10.00">EditBox * &gt;</text>
</g>
<!-- Node25 -->
<g id="node25" class="node"><title>Node25</title>
<g id="a_node25"><a xlink:href="class_kuszk_a_p_i_1_1_containers_1_1_vector.html" target="_top" xlink:title="KuszkAPI::Containers\l::Vector\&lt; KuszkAPI::Forms\l::RadioBox * \&gt;">
<polygon fill="white" stroke="black" points="440.5,-162.16 440.5,-203.16 577.5,-203.16 577.5,-162.16 440.5,-162.16"/>
<text text-anchor="start" x="448.5" y="-191.16" font-family="Helvetica,sans-Serif" font-size="10.00">KuszkAPI::Containers</text>
<text text-anchor="start" x="448.5" y="-180.16" font-family="Helvetica,sans-Serif" font-size="10.00">::Vector&lt; KuszkAPI::Forms</text>
<text text-anchor="middle" x="509" y="-169.16" font-family="Helvetica,sans-Serif" font-size="10.00">::RadioBox * &gt;</text>
</a>
</g>
</g>
<!-- Node1&#45;&gt;Node25 -->
<g id="edge24" class="edge"><title>Node1&#45;&gt;Node25</title>
<path fill="none" stroke="orange" stroke-dasharray="5,2" d="M209.616,-695.54C208.739,-600.941 210.964,-268.073 284,-199.66 324.988,-161.267 390.739,-160.687 440.427,-167.528"/>
<polygon fill="orange" stroke="orange" points="206.117,-695.666 209.731,-705.625 213.117,-695.586 206.117,-695.666"/>
<text text-anchor="start" x="298" y="-213.66" font-family="Helvetica,sans-Serif" font-size="10.00"> &lt; KuszkAPI::Forms::</text>
<text text-anchor="middle" x="346" y="-202.66" font-family="Helvetica,sans-Serif" font-size="10.00">RadioBox * &gt;</text>
</g>
<!-- Node26 -->
<g id="node26" class="node"><title>Node26</title>
<g id="a_node26"><a xlink:href="class_kuszk_a_p_i_1_1_containers_1_1_vector.html" target="_top" xlink:title="KuszkAPI::Containers\l::Vector\&lt; KuszkAPI::Forms\l::RadioBox::ItemData * \&gt;">
<polygon fill="white" stroke="black" points="440.5,-102.16 440.5,-143.16 577.5,-143.16 577.5,-102.16 440.5,-102.16"/>
<text text-anchor="start" x="448.5" y="-131.16" font-family="Helvetica,sans-Serif" font-size="10.00">KuszkAPI::Containers</text>
<text text-anchor="start" x="448.5" y="-120.16" font-family="Helvetica,sans-Serif" font-size="10.00">::Vector&lt; KuszkAPI::Forms</text>
<text text-anchor="middle" x="509" y="-109.16" font-family="Helvetica,sans-Serif" font-size="10.00">::RadioBox::ItemData * &gt;</text>
</a>
</g>
</g>
<!-- Node1&#45;&gt;Node26 -->
<g id="edge25" class="edge"><title>Node1&#45;&gt;Node26</title>
<path fill="none" stroke="orange" stroke-dasharray="5,2" d="M211.366,-695.197C217.357,-588.055 242.87,-177.582 284,-138.66 324.779,-100.071 390.556,-99.8322 440.306,-107.009"/>
<polygon fill="orange" stroke="orange" points="207.859,-695.225 210.803,-705.403 214.848,-695.61 207.859,-695.225"/>
<text text-anchor="start" x="294.5" y="-152.66" font-family="Helvetica,sans-Serif" font-size="10.00"> &lt; KuszkAPI::Forms::</text>
<text text-anchor="middle" x="346" y="-141.66" font-family="Helvetica,sans-Serif" font-size="10.00">RadioBox::ItemData * &gt;</text>
</g>
<!-- Node27 -->
<g id="node27" class="node"><title>Node27</title>
<g id="a_node27"><a xlink:href="class_kuszk_a_p_i_1_1_containers_1_1_vector.html" target="_top" xlink:title="KuszkAPI::Containers\l::Vector\&lt; HICON * \&gt;">
<polygon fill="white" stroke="black" points="452.5,-52.6601 452.5,-82.6601 565.5,-82.6601 565.5,-52.6601 452.5,-52.6601"/>
<text text-anchor="start" x="460.5" y="-70.6601" font-family="Helvetica,sans-Serif" font-size="10.00">KuszkAPI::Containers</text>
<text text-anchor="middle" x="509" y="-59.6601" font-family="Helvetica,sans-Serif" font-size="10.00">::Vector&lt; HICON * &gt;</text>
</a>
</g>
</g>
<!-- Node1&#45;&gt;Node27 -->
<g id="edge26" class="edge"><title>Node1&#45;&gt;Node27</title>
<path fill="none" stroke="orange" stroke-dasharray="5,2" d="M211.103,-695.59C216.274,-583.504 239.746,-131.905 284,-88.6601 327.58,-46.0743 401.227,-47.5918 452.113,-55.2755"/>
<polygon fill="orange" stroke="orange" points="207.604,-695.482 210.647,-705.63 214.597,-695.799 207.604,-695.482"/>
<text text-anchor="middle" x="346" y="-91.6601" font-family="Helvetica,sans-Serif" font-size="10.00"> &lt; HICON * &gt;</text>
</g>
<!-- Node28 -->
<g id="node28" class="node"><title>Node28</title>
<g id="a_node28"><a xlink:href="class_kuszk_a_p_i_1_1_containers_1_1_vector.html" target="_top" xlink:title="KuszkAPI::Containers\l::Vector\&lt; CRITICAL_SECTION * \&gt;">
<polygon fill="white" stroke="black" points="426.5,-3.66008 426.5,-33.6601 591.5,-33.6601 591.5,-3.66008 426.5,-3.66008"/>
<text text-anchor="start" x="434.5" y="-21.6601" font-family="Helvetica,sans-Serif" font-size="10.00">KuszkAPI::Containers</text>
<text text-anchor="middle" x="509" y="-10.6601" font-family="Helvetica,sans-Serif" font-size="10.00">::Vector&lt; CRITICAL_SECTION * &gt;</text>
</a>
</g>
</g>
<!-- Node1&#45;&gt;Node28 -->
<g id="edge27" class="edge"><title>Node1&#45;&gt;Node28</title>
<path fill="none" stroke="orange" stroke-dasharray="5,2" d="M210.861,-695.43C215.13,-577.407 235.791,-83.5573 284,-36.6601 324.549,2.78594 391.027,3.32171 441.052,-3.62968"/>
<polygon fill="orange" stroke="orange" points="207.355,-695.533 210.498,-705.651 214.35,-695.781 207.355,-695.533"/>
<text text-anchor="middle" x="346" y="-39.6601" font-family="Helvetica,sans-Serif" font-size="10.00"> &lt; CRITICAL_SECTION * &gt;</text>
</g>
<!-- Node2 -->
<g id="node2" class="node"><title>Node2</title>
<g id="a_node2"><a xlink:href="class_kuszk_a_p_i_1_1_containers_1_1_container.html" target="_top" xlink:title="Implementacja bazy dla modułu kontenerów. ">
<polygon fill="white" stroke="black" points="0.5,-705.66 0.5,-735.66 113.5,-735.66 113.5,-705.66 0.5,-705.66"/>
<text text-anchor="start" x="8.5" y="-723.66" font-family="Helvetica,sans-Serif" font-size="10.00">KuszkAPI::Containers</text>
<text text-anchor="middle" x="57" y="-712.66" font-family="Helvetica,sans-Serif" font-size="10.00">::Container</text>
</a>
</g>
</g>
<!-- Node2&#45;&gt;Node1 -->
<g id="edge1" class="edge"><title>Node2&#45;&gt;Node1</title>
<path fill="none" stroke="midnightblue" d="M124.011,-720.66C133.468,-720.66 143.118,-720.66 152.349,-720.66"/>
<polygon fill="midnightblue" stroke="midnightblue" points="123.854,-717.16 113.854,-720.66 123.854,-724.16 123.854,-717.16"/>
</g>
</g>
</svg>
