<?xml version="1.0" encoding="UTF-8" standalone="no"?>
<!DOCTYPE svg PUBLIC "-//W3C//DTD SVG 1.1//EN"
 "http://www.w3.org/Graphics/SVG/1.1/DTD/svg11.dtd">
<!-- Generated by graphviz version 2.36.0 (20140111.2315)
 -->
<!-- Title: KuszkAPI::Containers::List&lt; tnData &gt; Pages: 1 -->
<!--zoomable 197 -->
<svg id="main" version="1.1" xmlns="http://www.w3.org/2000/svg" xmlns:xlink="http://www.w3.org/1999/xlink" xml:space="preserve" onload="init(evt)">
<style type="text/css"><![CDATA[
.edge:hover path { stroke: red; }
.edge:hover polygon { stroke: red; fill: red; }
]]></style>
<script type="text/javascript"><![CDATA[
var edges = document.getElementsByTagName('g');
if (edges && edges.length) {
  for (var i=0;i<edges.length;i++) {
    if (edges[i].id.substr(0,4)=='edge') {
      edges[i].setAttribute('class','edge');
    }
  }
}
]]></script>
        <defs>
                <circle id="rim" cx="0" cy="0" r="7"/>
                <circle id="rim2" cx="0" cy="0" r="3.5"/>
                <g id="zoomPlus">
                        <use xlink:href="#rim" fill="#404040">
                                <set attributeName="fill" to="#808080" begin="zoomplus.mouseover" end="zoomplus.mouseout"/>
                        </use>
                        <path d="M-4,0h8M0,-4v8" fill="none" stroke="white" stroke-width="1.5" pointer-events="none"/>
                </g>
                <g id="zoomMin">
                        <use xlink:href="#rim" fill="#404040">
                                <set attributeName="fill" to="#808080" begin="zoomminus.mouseover" end="zoomminus.mouseout"/>
                        </use>
                        <path d="M-4,0h8" fill="none" stroke="white" stroke-width="1.5" pointer-events="none"/>
                </g>
                <g id="dirArrow">
                        <path fill="none" stroke="white" stroke-width="1.5" d="M0,-3.0v7 M-2.5,-0.5L0,-3.0L2.5,-0.5"/>
                </g>
               <g id="resetDef">
                       <use xlink:href="#rim2" fill="#404040">
                               <set attributeName="fill" to="#808080" begin="reset.mouseover" end="reset.mouseout"/>
                       </use>
               </g>
        </defs>

<script type="text/javascript">
var viewWidth = 564;
var viewHeight = 197;
var sectionId = 'dynsection-0';
</script>
<script xlink:href="svgpan.js"/>
<svg id="graph" class="graph">
<g id="viewport">
<title>KuszkAPI::Containers::List&lt; tnData &gt;</title>
<polygon fill="white" stroke="none" points="-4,4 -4,-193 560,-193 560,4 -4,4"/>
<!-- Node1 -->
<g id="node1" class="node"><title>Node1</title>
<polygon fill="#bfbfbf" stroke="black" points="152.5,-73 152.5,-103 265.5,-103 265.5,-73 152.5,-73"/>
<text text-anchor="start" x="160.5" y="-91" font-family="Helvetica,sans-Serif" font-size="10.00">KuszkAPI::Containers</text>
<text text-anchor="middle" x="209" y="-80" font-family="Helvetica,sans-Serif" font-size="10.00">::List&lt; tnData &gt;</text>
</g>
<!-- Node3 -->
<g id="node3" class="node"><title>Node3</title>
<g id="a_node3"><a xlink:href="class_kuszk_a_p_i_1_1_containers_1_1_list.html" target="_top" xlink:title="KuszkAPI::Containers\l::List\&lt; KuszkAPI::Containers\l::String \&gt;">
<polygon fill="white" stroke="black" points="412.5,-147.5 412.5,-188.5 555.5,-188.5 555.5,-147.5 412.5,-147.5"/>
<text text-anchor="start" x="420.5" y="-176.5" font-family="Helvetica,sans-Serif" font-size="10.00">KuszkAPI::Containers</text>
<text text-anchor="start" x="420.5" y="-165.5" font-family="Helvetica,sans-Serif" font-size="10.00">::List&lt; KuszkAPI::Containers</text>
<text text-anchor="middle" x="484" y="-154.5" font-family="Helvetica,sans-Serif" font-size="10.00">::String &gt;</text>
</a>
</g>
</g>
<!-- Node1&#45;&gt;Node3 -->
<g id="edge2" class="edge"><title>Node1&#45;&gt;Node3</title>
<path fill="none" stroke="orange" stroke-dasharray="5,2" d="M251.03,-107.226C261.631,-111.782 273.124,-116.367 284,-120 325.798,-133.964 373.794,-145.662 412.176,-154.013"/>
<polygon fill="orange" stroke="orange" points="252.151,-103.896 241.587,-103.079 249.336,-110.305 252.151,-103.896"/>
<text text-anchor="start" x="284.5" y="-164" font-family="Helvetica,sans-Serif" font-size="10.00"> &lt; KuszkAPI::Containers</text>
<text text-anchor="middle" x="339" y="-153" font-family="Helvetica,sans-Serif" font-size="10.00">::String &gt;</text>
</g>
<!-- Node4 -->
<g id="node4" class="node"><title>Node4</title>
<g id="a_node4"><a xlink:href="class_kuszk_a_p_i_1_1_containers_1_1_list.html" target="_top" xlink:title="KuszkAPI::Containers\l::List\&lt; tnKey \&gt;">
<polygon fill="white" stroke="black" points="427.5,-98 427.5,-128 540.5,-128 540.5,-98 427.5,-98"/>
<text text-anchor="start" x="435.5" y="-116" font-family="Helvetica,sans-Serif" font-size="10.00">KuszkAPI::Containers</text>
<text text-anchor="middle" x="484" y="-105" font-family="Helvetica,sans-Serif" font-size="10.00">::List&lt; tnKey &gt;</text>
</a>
</g>
</g>
<!-- Node1&#45;&gt;Node4 -->
<g id="edge3" class="edge"><title>Node1&#45;&gt;Node4</title>
<path fill="none" stroke="orange" stroke-dasharray="5,2" d="M275.79,-94.0248C322.006,-98.2569 383.161,-103.857 427.035,-107.875"/>
<polygon fill="orange" stroke="orange" points="275.852,-90.5159 265.575,-93.0893 275.214,-97.4867 275.852,-90.5159"/>
<text text-anchor="middle" x="339" y="-108" font-family="Helvetica,sans-Serif" font-size="10.00"> &lt; tnKey &gt;</text>
</g>
<!-- Node5 -->
<g id="node5" class="node"><title>Node5</title>
<g id="a_node5"><a xlink:href="class_kuszk_a_p_i_1_1_containers_1_1_list.html" target="_top" xlink:title="KuszkAPI::Containers\l::List\&lt; SOCKET \&gt;">
<polygon fill="white" stroke="black" points="427.5,-49 427.5,-79 540.5,-79 540.5,-49 427.5,-49"/>
<text text-anchor="start" x="435.5" y="-67" font-family="Helvetica,sans-Serif" font-size="10.00">KuszkAPI::Containers</text>
<text text-anchor="middle" x="484" y="-56" font-family="Helvetica,sans-Serif" font-size="10.00">::List&lt; SOCKET &gt;</text>
</a>
</g>
</g>
<!-- Node1&#45;&gt;Node5 -->
<g id="edge4" class="edge"><title>Node1&#45;&gt;Node5</title>
<path fill="none" stroke="orange" stroke-dasharray="5,2" d="M275.82,-80.7902C278.583,-80.5173 281.318,-80.2527 284,-80 332.31,-75.4474 387.296,-71.089 427.209,-68.074"/>
<polygon fill="orange" stroke="orange" points="275.342,-77.3206 265.744,-81.8079 276.045,-84.2851 275.342,-77.3206"/>
<text text-anchor="middle" x="339" y="-83" font-family="Helvetica,sans-Serif" font-size="10.00"> &lt; SOCKET &gt;</text>
</g>
<!-- Node6 -->
<g id="node6" class="node"><title>Node6</title>
<g id="a_node6"><a xlink:href="class_kuszk_a_p_i_1_1_containers_1_1_list.html" target="_top" xlink:title="KuszkAPI::Containers\l::List\&lt; unsigned \&gt;">
<polygon fill="white" stroke="black" points="427.5,-0 427.5,-30 540.5,-30 540.5,-0 427.5,-0"/>
<text text-anchor="start" x="435.5" y="-18" font-family="Helvetica,sans-Serif" font-size="10.00">KuszkAPI::Containers</text>
<text text-anchor="middle" x="484" y="-7" font-family="Helvetica,sans-Serif" font-size="10.00">::List&lt; unsigned &gt;</text>
</a>
</g>
</g>
<!-- Node1&#45;&gt;Node6 -->
<g id="edge5" class="edge"><title>Node1&#45;&gt;Node6</title>
<path fill="none" stroke="orange" stroke-dasharray="5,2" d="M250.324,-68.7884C261.098,-64.1477 272.85,-59.5184 284,-56 331.431,-41.0327 386.983,-30.1151 427.321,-23.3266"/>
<polygon fill="orange" stroke="orange" points="248.88,-65.5998 241.147,-72.8418 251.708,-72.003 248.88,-65.5998"/>
<text text-anchor="middle" x="339" y="-59" font-family="Helvetica,sans-Serif" font-size="10.00"> &lt; unsigned &gt;</text>
</g>
<!-- Node2 -->
<g id="node2" class="node"><title>Node2</title>
<g id="a_node2"><a xlink:href="class_kuszk_a_p_i_1_1_containers_1_1_container.html" target="_top" xlink:title="Implementacja bazy dla modułu kontenerów. ">
<polygon fill="white" stroke="black" points="0.5,-73 0.5,-103 113.5,-103 113.5,-73 0.5,-73"/>
<text text-anchor="start" x="8.5" y="-91" font-family="Helvetica,sans-Serif" font-size="10.00">KuszkAPI::Containers</text>
<text text-anchor="middle" x="57" y="-80" font-family="Helvetica,sans-Serif" font-size="10.00">::Container</text>
</a>
</g>
</g>
<!-- Node2&#45;&gt;Node1 -->
<g id="edge1" class="edge"><title>Node2&#45;&gt;Node1</title>
<path fill="none" stroke="midnightblue" d="M124.011,-88C133.468,-88 143.118,-88 152.349,-88"/>
<polygon fill="midnightblue" stroke="midnightblue" points="123.854,-84.5001 113.854,-88 123.854,-91.5001 123.854,-84.5001"/>
</g>
</g>
</svg>
        <g id="navigator" transform="translate(0 0)" fill="#404254">
                <rect fill="#f2f5e9" fill-opacity="0.5" stroke="#606060" stroke-width=".5" x="0" y="0" width="60" height="60"/>
                <use id="zoomplus" xlink:href="#zoomPlus" x="17" y="9" onmousedown="handleZoom(evt,'in')"/>
                <use id="zoomminus" xlink:href="#zoomMin" x="42" y="9" onmousedown="handleZoom(evt,'out')"/>
                <use id="reset" xlink:href="#resetDef" x="30" y="36" onmousedown="handleReset()"/>
                <g id="arrowUp" xlink:href="#dirArrow" transform="translate(30 24)" onmousedown="handlePan(0,-1)">
                  <use xlink:href="#rim" fill="#404040">
                        <set attributeName="fill" to="#808080" begin="arrowUp.mouseover" end="arrowUp.mouseout"/>
                  </use>
                  <path fill="none" stroke="white" stroke-width="1.5" d="M0,-3.0v7 M-2.5,-0.5L0,-3.0L2.5,-0.5"/>
                </g>
                <g id="arrowRight" xlink:href="#dirArrow" transform="rotate(90) translate(36 -43)" onmousedown="handlePan(1,0)">
                  <use xlink:href="#rim" fill="#404040">
                        <set attributeName="fill" to="#808080" begin="arrowRight.mouseover" end="arrowRight.mouseout"/>
                  </use>
                  <path fill="none" stroke="white" stroke-width="1.5" d="M0,-3.0v7 M-2.5,-0.5L0,-3.0L2.5,-0.5"/>
                </g>
                <g id="arrowDown" xlink:href="#dirArrow" transform="rotate(180) translate(-30 -48)" onmousedown="handlePan(0,1)">
                  <use xlink:href="#rim" fill="#404040">
                        <set attributeName="fill" to="#808080" begin="arrowDown.mouseover" end="arrowDown.mouseout"/>
                  </use>
                  <path fill="none" stroke="white" stroke-width="1.5" d="M0,-3.0v7 M-2.5,-0.5L0,-3.0L2.5,-0.5"/>
                </g>
                <g id="arrowLeft" xlink:href="#dirArrow" transform="rotate(270) translate(-36 17)" onmousedown="handlePan(-1,0)">
                  <use xlink:href="#rim" fill="#404040">
                        <set attributeName="fill" to="#808080" begin="arrowLeft.mouseover" end="arrowLeft.mouseout"/>
                  </use>
                  <path fill="none" stroke="white" stroke-width="1.5" d="M0,-3.0v7 M-2.5,-0.5L0,-3.0L2.5,-0.5"/>
                </g>
        </g>
        <svg viewBox="0 0 15 15" width="100%" height="30px" preserveAspectRatio="xMaxYMin meet">
         <g id="arrow_out" transform="scale(0.3 0.3)">
          <a xlink:href="class_kuszk_a_p_i_1_1_containers_1_1_list__inherit__graph_org.svg" target="_base">
           <rect id="button" ry="5" rx="5" y="6" x="6" height="38" width="38"
                fill="#f2f5e9" fill-opacity="0.5" stroke="#606060" stroke-width="1.0"/>
           <path id="arrow"
             d="M 11.500037,31.436501 C 11.940474,20.09759 22.043105,11.32322 32.158766,21.979434 L 37.068811,17.246167 C 37.068811,17.246167 37.088388,32 37.088388,32 L 22.160133,31.978069 C 22.160133,31.978069 26.997745,27.140456 26.997745,27.140456 C 18.528582,18.264221 13.291696,25.230495 11.500037,31.436501 z"
             style="fill:#404040;"/>
          </a>
         </g>
        </svg>
</svg>
