<?xml version="1.0" encoding="UTF-8" standalone="no"?>
<!DOCTYPE svg PUBLIC "-//W3C//DTD SVG 1.1//EN"
 "http://www.w3.org/Graphics/SVG/1.1/DTD/svg11.dtd">
<!-- Generated by graphviz version 2.36.0 (20140111.2315)
 -->
<!-- Title: KuszkAPI::Containers::String Pages: 1 -->
<svg width="288pt" height="130pt"
 viewBox="0.00 0.00 288.00 130.00" xmlns="http://www.w3.org/2000/svg" xmlns:xlink="http://www.w3.org/1999/xlink">
<g id="graph0" class="graph" transform="scale(1 1) rotate(0) translate(4 126)">
<title>KuszkAPI::Containers::String</title>
<polygon fill="white" stroke="none" points="-4,4 -4,-126 284,-126 284,4 -4,4"/>
<!-- Node1 -->
<g id="node1" class="node"><title>Node1</title>
<polygon fill="#bfbfbf" stroke="black" points="75.5,-1 75.5,-31 188.5,-31 188.5,-1 75.5,-1"/>
<text text-anchor="start" x="83.5" y="-19" font-family="Helvetica,sans-Serif" font-size="10.00">KuszkAPI::Containers</text>
<text text-anchor="middle" x="132" y="-8" font-family="Helvetica,sans-Serif" font-size="10.00">::String</text>
</g>
<!-- Node2 -->
<g id="node2" class="node"><title>Node2</title>
<polygon fill="white" stroke="#bfbfbf" points="-0.5,-102.5 -0.5,-121.5 48.5,-121.5 48.5,-102.5 -0.5,-102.5"/>
<text text-anchor="middle" x="24" y="-109.5" font-family="Helvetica,sans-Serif" font-size="10.00">TCHAR</text>
</g>
<!-- Node2&#45;&gt;Node1 -->
<g id="edge1" class="edge"><title>Node2&#45;&gt;Node1</title>
<path fill="none" stroke="#9a32cd" stroke-dasharray="5,2" d="M27.915,-92.3433C31.5837,-79.0045 38.3086,-61.4564 50,-50 58.2205,-41.9448 68.6624,-35.777 79.3185,-31.0821"/>
<polygon fill="#9a32cd" stroke="#9a32cd" points="24.4482,-91.7902 25.5102,-102.332 31.2538,-93.4287 24.4482,-91.7902"/>
<text text-anchor="middle" x="73" y="-64.5" font-family="Helvetica,sans-Serif" font-size="10.00"> cAbstract</text>
</g>
<!-- Node3 -->
<g id="node3" class="node"><title>Node3</title>
<polygon fill="white" stroke="#bfbfbf" points="67,-102.5 67,-121.5 123,-121.5 123,-102.5 67,-102.5"/>
<text text-anchor="middle" x="95" y="-109.5" font-family="Helvetica,sans-Serif" font-size="10.00">TCHAR *</text>
</g>
<!-- Node3&#45;&gt;Node1 -->
<g id="edge2" class="edge"><title>Node3&#45;&gt;Node1</title>
<path fill="none" stroke="#9a32cd" stroke-dasharray="5,2" d="M97.8455,-92.381C100.15,-80.0105 104.014,-63.6036 110,-50 112.884,-43.4456 117.056,-36.7703 120.993,-31.1542"/>
<polygon fill="#9a32cd" stroke="#9a32cd" points="94.3659,-91.9673 96.1514,-102.411 101.268,-93.1332 94.3659,-91.9673"/>
<text text-anchor="middle" x="128.5" y="-70" font-family="Helvetica,sans-Serif" font-size="10.00"> pcBufor</text>
<text text-anchor="middle" x="128.5" y="-59" font-family="Helvetica,sans-Serif" font-size="10.00">pcData</text>
</g>
<!-- Node4 -->
<g id="node4" class="node"><title>Node4</title>
<g id="a_node4"><a xlink:href="namespace_3global_scope_4.html#classunsigned" target="_top" xlink:title="unsigned">
<polygon fill="white" stroke="black" points="141,-102.5 141,-121.5 197,-121.5 197,-102.5 141,-102.5"/>
<text text-anchor="middle" x="169" y="-109.5" font-family="Helvetica,sans-Serif" font-size="10.00">unsigned</text>
</a>
</g>
</g>
<!-- Node4&#45;&gt;Node1 -->
<g id="edge3" class="edge"><title>Node4&#45;&gt;Node1</title>
<path fill="none" stroke="#9a32cd" stroke-dasharray="5,2" d="M162.845,-92.7378C158.629,-80.5416 152.775,-64.1952 147,-50 144.439,-43.7043 141.369,-36.8474 138.675,-31.0232"/>
<polygon fill="#9a32cd" stroke="#9a32cd" points="159.542,-93.8961 166.085,-102.229 166.166,-91.6345 159.542,-93.8961"/>
<text text-anchor="middle" x="183" y="-75.5" font-family="Helvetica,sans-Serif" font-size="10.00"> uFormat</text>
<text text-anchor="middle" x="183" y="-64.5" font-family="Helvetica,sans-Serif" font-size="10.00">uDataSize</text>
<text text-anchor="middle" x="183" y="-53.5" font-family="Helvetica,sans-Serif" font-size="10.00">uIlosc</text>
</g>
<!-- Node5 -->
<g id="node5" class="node"><title>Node5</title>
<polygon fill="white" stroke="#bfbfbf" points="215.5,-102.5 215.5,-121.5 272.5,-121.5 272.5,-102.5 215.5,-102.5"/>
<text text-anchor="middle" x="244" y="-109.5" font-family="Helvetica,sans-Serif" font-size="10.00">DCHAR *</text>
</g>
<!-- Node5&#45;&gt;Node1 -->
<g id="edge4" class="edge"><title>Node5&#45;&gt;Node1</title>
<path fill="none" stroke="#9a32cd" stroke-dasharray="5,2" d="M237.588,-92.775C232.079,-79.406 222.96,-61.6277 210,-50 201.135,-42.0463 190.071,-35.822 179.087,-31.0291"/>
<polygon fill="#9a32cd" stroke="#9a32cd" points="234.405,-94.2515 241.237,-102.35 240.946,-91.7588 234.405,-94.2515"/>
<text text-anchor="middle" x="257" y="-64.5" font-family="Helvetica,sans-Serif" font-size="10.00"> pcConvert</text>
</g>
</g>
</svg>
