<?xml version="1.0" encoding="UTF-8" standalone="no"?>
<!DOCTYPE svg PUBLIC "-//W3C//DTD SVG 1.1//EN"
 "http://www.w3.org/Graphics/SVG/1.1/DTD/svg11.dtd">
<!-- Generated by graphviz version 2.36.0 (20140111.2315)
 -->
<!-- Title: KuszkAPI::Containers::File::Load Pages: 1 -->
<svg width="288pt" height="136pt"
 viewBox="0.00 0.00 288.00 136.00" xmlns="http://www.w3.org/2000/svg" xmlns:xlink="http://www.w3.org/1999/xlink">
<g id="graph0" class="graph" transform="scale(1 1) rotate(0) translate(4 132)">
<title>KuszkAPI::Containers::File::Load</title>
<polygon fill="white" stroke="none" points="-4,4 -4,-132 284,-132 284,4 -4,4"/>
<!-- Node1 -->
<g id="node1" class="node"><title>Node1</title>
<polygon fill="#bfbfbf" stroke="black" points="0.5,-49 0.5,-79 113.5,-79 113.5,-49 0.5,-49"/>
<text text-anchor="start" x="8.5" y="-67" font-family="Helvetica,sans-Serif" font-size="10.00">KuszkAPI::Containers</text>
<text text-anchor="middle" x="57" y="-56" font-family="Helvetica,sans-Serif" font-size="10.00">::File::Load</text>
</g>
<!-- Node2 -->
<g id="node2" class="node"><title>Node2</title>
<g id="a_node2"><a xlink:href="class_kuszk_a_p_i_1_1_containers_1_1_strings.html#a847455d02fd870eae89f27d9ef176013" target="_top" xlink:title="KuszkAPI::Containers\l::Strings::AddToFile">
<polygon fill="white" stroke="black" points="158.5,-98 158.5,-128 271.5,-128 271.5,-98 158.5,-98"/>
<text text-anchor="start" x="166.5" y="-116" font-family="Helvetica,sans-Serif" font-size="10.00">KuszkAPI::Containers</text>
<text text-anchor="middle" x="215" y="-105" font-family="Helvetica,sans-Serif" font-size="10.00">::Strings::AddToFile</text>
</a>
</g>
</g>
<!-- Node1&#45;&gt;Node2 -->
<g id="edge1" class="edge"><title>Node1&#45;&gt;Node2</title>
<path fill="none" stroke="midnightblue" d="M115.666,-82.1129C132.25,-87.3222 150.154,-92.9457 166.081,-97.9484"/>
<polygon fill="midnightblue" stroke="midnightblue" points="116.667,-78.759 106.078,-79.1014 114.57,-85.4373 116.667,-78.759"/>
</g>
<!-- Node3 -->
<g id="node3" class="node"><title>Node3</title>
<g id="a_node3"><a xlink:href="class_kuszk_a_p_i_1_1_forms_1_1_region.html#acf6bf3d1ec44a80132f29740f1ba3e47" target="_top" xlink:title="KuszkAPI::Forms::Region\l::Load">
<polygon fill="white" stroke="black" points="150,-49 150,-79 280,-79 280,-49 150,-49"/>
<text text-anchor="start" x="158" y="-67" font-family="Helvetica,sans-Serif" font-size="10.00">KuszkAPI::Forms::Region</text>
<text text-anchor="middle" x="215" y="-56" font-family="Helvetica,sans-Serif" font-size="10.00">::Load</text>
</a>
</g>
</g>
<!-- Node1&#45;&gt;Node3 -->
<g id="edge2" class="edge"><title>Node1&#45;&gt;Node3</title>
<path fill="none" stroke="midnightblue" d="M124.114,-64C132.606,-64 141.29,-64 149.751,-64"/>
<polygon fill="midnightblue" stroke="midnightblue" points="123.879,-60.5001 113.879,-64 123.879,-67.5001 123.879,-60.5001"/>
</g>
<!-- Node4 -->
<g id="node4" class="node"><title>Node4</title>
<g id="a_node4"><a xlink:href="class_kuszk_a_p_i_1_1_containers_1_1_strings.html#a67ba13de7be7201b1d86c4762424cfa1" target="_top" xlink:title="KuszkAPI::Containers\l::Strings::LoadFromFile">
<polygon fill="white" stroke="black" points="155.5,-0 155.5,-30 274.5,-30 274.5,-0 155.5,-0"/>
<text text-anchor="start" x="163.5" y="-18" font-family="Helvetica,sans-Serif" font-size="10.00">KuszkAPI::Containers</text>
<text text-anchor="middle" x="215" y="-7" font-family="Helvetica,sans-Serif" font-size="10.00">::Strings::LoadFromFile</text>
</a>
</g>
</g>
<!-- Node1&#45;&gt;Node4 -->
<g id="edge3" class="edge"><title>Node1&#45;&gt;Node4</title>
<path fill="none" stroke="midnightblue" d="M115.666,-45.8871C132.25,-40.6778 150.154,-35.0543 166.081,-30.0516"/>
<polygon fill="midnightblue" stroke="midnightblue" points="114.57,-42.5627 106.078,-48.8986 116.667,-49.241 114.57,-42.5627"/>
</g>
</g>
</svg>
