<?xml version="1.0" encoding="UTF-8" standalone="no"?>
<!DOCTYPE svg PUBLIC "-//W3C//DTD SVG 1.1//EN"
 "http://www.w3.org/Graphics/SVG/1.1/DTD/svg11.dtd">
<!-- Generated by graphviz version 2.36.0 (20140111.2315)
 -->
<!-- Title: KuszkAPI::Core::Events&lt; tnKey &gt; Pages: 1 -->
<svg width="1490pt" height="682pt"
 viewBox="0.00 0.00 1490.00 682.00" xmlns="http://www.w3.org/2000/svg" xmlns:xlink="http://www.w3.org/1999/xlink">
<g id="graph0" class="graph" transform="scale(1 1) rotate(0) translate(4 678)">
<title>KuszkAPI::Core::Events&lt; tnKey &gt;</title>
<polygon fill="white" stroke="none" points="-4,4 -4,-678 1486,-678 1486,4 -4,4"/>
<!-- Node1 -->
<g id="node1" class="node"><title>Node1</title>
<polygon fill="#bfbfbf" stroke="black" points="1360,-243 1360,-273 1482,-273 1482,-243 1360,-243"/>
<text text-anchor="start" x="1368" y="-261" font-family="Helvetica,sans-Serif" font-size="10.00">KuszkAPI::Core::Events</text>
<text text-anchor="middle" x="1421" y="-250" font-family="Helvetica,sans-Serif" font-size="10.00">&lt; tnKey &gt;</text>
</g>
<!-- Node2 -->
<g id="node2" class="node"><title>Node2</title>
<g id="a_node2"><a xlink:href="class_kuszk_a_p_i_1_1_containers_1_1_map.html" target="_top" xlink:title="KuszkAPI::Containers\l::Map\&lt; HANDLE, tnKey \&gt;">
<polygon fill="white" stroke="black" points="1152,-243 1152,-273 1282,-273 1282,-243 1152,-243"/>
<text text-anchor="start" x="1160" y="-261" font-family="Helvetica,sans-Serif" font-size="10.00">KuszkAPI::Containers</text>
<text text-anchor="middle" x="1217" y="-250" font-family="Helvetica,sans-Serif" font-size="10.00">::Map&lt; HANDLE, tnKey &gt;</text>
</a>
</g>
</g>
<!-- Node2&#45;&gt;Node1 -->
<g id="edge1" class="edge"><title>Node2&#45;&gt;Node1</title>
<path fill="none" stroke="#9a32cd" stroke-dasharray="5,2" d="M1292.25,-258C1314.47,-258 1338.55,-258 1359.76,-258"/>
<polygon fill="#9a32cd" stroke="#9a32cd" points="1292.19,-254.5 1282.19,-258 1292.19,-261.5 1292.19,-254.5"/>
<text text-anchor="middle" x="1321" y="-261" font-family="Helvetica,sans-Serif" font-size="10.00"> mEvents</text>
</g>
<!-- Node3 -->
<g id="node3" class="node"><title>Node3</title>
<g id="a_node3"><a xlink:href="class_kuszk_a_p_i_1_1_containers_1_1_box.html" target="_top" xlink:title="KuszkAPI::Containers\l::Box\&lt; HANDLE \&gt;">
<polygon fill="white" stroke="black" points="972.5,-410 972.5,-440 1085.5,-440 1085.5,-410 972.5,-410"/>
<text text-anchor="start" x="980.5" y="-428" font-family="Helvetica,sans-Serif" font-size="10.00">KuszkAPI::Containers</text>
<text text-anchor="middle" x="1029" y="-417" font-family="Helvetica,sans-Serif" font-size="10.00">::Box&lt; HANDLE &gt;</text>
</a>
</g>
</g>
<!-- Node3&#45;&gt;Node2 -->
<g id="edge2" class="edge"><title>Node3&#45;&gt;Node2</title>
<path fill="none" stroke="#9a32cd" stroke-dasharray="5,2" d="M1054.46,-403.043C1092.78,-368.634 1166.01,-302.879 1199.07,-273.201"/>
<polygon fill="#9a32cd" stroke="#9a32cd" points="1051.94,-400.6 1046.83,-409.885 1056.61,-405.809 1051.94,-400.6"/>
<text text-anchor="middle" x="1119" y="-360" font-family="Helvetica,sans-Serif" font-size="10.00"> bData</text>
</g>
<!-- Node4 -->
<g id="node4" class="node"><title>Node4</title>
<g id="a_node4"><a xlink:href="class_kuszk_a_p_i_1_1_containers_1_1_vector.html" target="_top" xlink:title="KuszkAPI::Containers\l::Vector\&lt; HANDLE * \&gt;">
<polygon fill="white" stroke="black" points="558.5,-487 558.5,-517 673.5,-517 673.5,-487 558.5,-487"/>
<text text-anchor="start" x="566.5" y="-505" font-family="Helvetica,sans-Serif" font-size="10.00">KuszkAPI::Containers</text>
<text text-anchor="middle" x="616" y="-494" font-family="Helvetica,sans-Serif" font-size="10.00">::Vector&lt; HANDLE * &gt;</text>
</a>
</g>
</g>
<!-- Node4&#45;&gt;Node3 -->
<g id="edge3" class="edge"><title>Node4&#45;&gt;Node3</title>
<path fill="none" stroke="#9a32cd" stroke-dasharray="5,2" d="M683.711,-489.502C763.944,-474.47 897.166,-449.512 972.194,-435.455"/>
<polygon fill="#9a32cd" stroke="#9a32cd" points="682.901,-486.093 673.716,-491.374 684.19,-492.973 682.901,-486.093"/>
<text text-anchor="middle" x="814" y="-480" font-family="Helvetica,sans-Serif" font-size="10.00"> vPointers</text>
</g>
<!-- Node5 -->
<g id="node5" class="node"><title>Node5</title>
<g id="a_node5"><a xlink:href="class_kuszk_a_p_i_1_1_containers_1_1_container.html" target="_top" xlink:title="Implementacja bazy dla modułu kontenerów. ">
<polygon fill="white" stroke="black" points="132.5,-424 132.5,-454 245.5,-454 245.5,-424 132.5,-424"/>
<text text-anchor="start" x="140.5" y="-442" font-family="Helvetica,sans-Serif" font-size="10.00">KuszkAPI::Containers</text>
<text text-anchor="middle" x="189" y="-431" font-family="Helvetica,sans-Serif" font-size="10.00">::Container</text>
</a>
</g>
</g>
<!-- Node5&#45;&gt;Node4 -->
<g id="edge4" class="edge"><title>Node5&#45;&gt;Node4</title>
<path fill="none" stroke="midnightblue" d="M250.82,-456.891C257.956,-458.964 265.137,-461.037 272,-463 302.17,-471.63 309.086,-476.613 340,-482 414.746,-495.026 502.353,-499.589 558.242,-501.175"/>
<polygon fill="midnightblue" stroke="midnightblue" points="251.73,-453.511 241.15,-454.076 249.773,-460.232 251.73,-453.511"/>
</g>
<!-- Node8 -->
<g id="node8" class="node"><title>Node8</title>
<g id="a_node8"><a xlink:href="class_kuszk_a_p_i_1_1_containers_1_1_vector.html" target="_top" xlink:title="KuszkAPI::Containers\l::Vector\&lt; tnData \&gt;">
<polygon fill="white" stroke="black" points="340.5,-443 340.5,-473 453.5,-473 453.5,-443 340.5,-443"/>
<text text-anchor="start" x="348.5" y="-461" font-family="Helvetica,sans-Serif" font-size="10.00">KuszkAPI::Containers</text>
<text text-anchor="middle" x="397" y="-450" font-family="Helvetica,sans-Serif" font-size="10.00">::Vector&lt; tnData &gt;</text>
</a>
</g>
</g>
<!-- Node5&#45;&gt;Node8 -->
<g id="edge9" class="edge"><title>Node5&#45;&gt;Node8</title>
<path fill="none" stroke="midnightblue" d="M255.94,-445.082C283.093,-447.586 314.211,-450.456 340.209,-452.854"/>
<polygon fill="midnightblue" stroke="midnightblue" points="256.026,-441.575 245.747,-444.142 255.383,-448.545 256.026,-441.575"/>
</g>
<!-- Node11 -->
<g id="node11" class="node"><title>Node11</title>
<g id="a_node11"><a xlink:href="class_kuszk_a_p_i_1_1_containers_1_1_vector.html" target="_top" xlink:title="KuszkAPI::Containers\l::Vector\&lt; tnData * \&gt;">
<polygon fill="white" stroke="black" points="559.5,-353 559.5,-383 672.5,-383 672.5,-353 559.5,-353"/>
<text text-anchor="start" x="567.5" y="-371" font-family="Helvetica,sans-Serif" font-size="10.00">KuszkAPI::Containers</text>
<text text-anchor="middle" x="616" y="-360" font-family="Helvetica,sans-Serif" font-size="10.00">::Vector&lt; tnData * &gt;</text>
</a>
</g>
</g>
<!-- Node5&#45;&gt;Node11 -->
<g id="edge16" class="edge"><title>Node5&#45;&gt;Node11</title>
<path fill="none" stroke="midnightblue" d="M255.704,-432.702C326.421,-425.25 441.956,-411.124 540,-390 549.02,-388.057 558.54,-385.593 567.658,-383.024"/>
<polygon fill="midnightblue" stroke="midnightblue" points="255.187,-429.236 245.603,-433.753 255.912,-436.199 255.187,-429.236"/>
</g>
<!-- Node12 -->
<g id="node12" class="node"><title>Node12</title>
<g id="a_node12"><a xlink:href="class_kuszk_a_p_i_1_1_containers_1_1_list.html" target="_top" xlink:title="KuszkAPI::Containers\l::List\&lt; tnKey \&gt;">
<polygon fill="white" stroke="black" points="559.5,-152 559.5,-182 672.5,-182 672.5,-152 559.5,-152"/>
<text text-anchor="start" x="567.5" y="-170" font-family="Helvetica,sans-Serif" font-size="10.00">KuszkAPI::Containers</text>
<text text-anchor="middle" x="616" y="-159" font-family="Helvetica,sans-Serif" font-size="10.00">::List&lt; tnKey &gt;</text>
</a>
</g>
</g>
<!-- Node5&#45;&gt;Node12 -->
<g id="edge21" class="edge"><title>Node5&#45;&gt;Node12</title>
<path fill="none" stroke="midnightblue" d="M211.842,-416.95C227.248,-402.892 249.141,-385.73 272,-377 347.822,-348.043 382.062,-399.582 454,-362 533.769,-320.327 589.025,-220.352 607.874,-182.172"/>
<polygon fill="midnightblue" stroke="midnightblue" points="209.283,-414.552 204.406,-423.958 214.084,-419.647 209.283,-414.552"/>
</g>
<!-- Node16 -->
<g id="node16" class="node"><title>Node16</title>
<g id="a_node16"><a xlink:href="class_kuszk_a_p_i_1_1_containers_1_1_list.html" target="_top" xlink:title="Implementacja szablonu listy dla modułu kontenerów. ">
<polygon fill="white" stroke="black" points="340.5,-174 340.5,-204 453.5,-204 453.5,-174 340.5,-174"/>
<text text-anchor="start" x="348.5" y="-192" font-family="Helvetica,sans-Serif" font-size="10.00">KuszkAPI::Containers</text>
<text text-anchor="middle" x="397" y="-181" font-family="Helvetica,sans-Serif" font-size="10.00">::List&lt; tnData &gt;</text>
</a>
</g>
</g>
<!-- Node5&#45;&gt;Node16 -->
<g id="edge27" class="edge"><title>Node5&#45;&gt;Node16</title>
<path fill="none" stroke="midnightblue" d="M209.806,-415.614C224.169,-397.468 242.943,-371.088 254,-345 269.409,-308.645 248.832,-289.974 272,-258 290.647,-232.265 321.988,-214.945 348.494,-204.095"/>
<polygon fill="midnightblue" stroke="midnightblue" points="206.733,-413.848 203.162,-423.823 212.174,-418.251 206.733,-413.848"/>
</g>
<!-- Node6 -->
<g id="node6" class="node"><title>Node6</title>
<g id="a_node6"><a xlink:href="namespace_3global_scope_4.html#classunsigned" target="_top" xlink:title="unsigned">
<polygon fill="white" stroke="black" points="0,-466.5 0,-485.5 56,-485.5 56,-466.5 0,-466.5"/>
<text text-anchor="middle" x="28" y="-473.5" font-family="Helvetica,sans-Serif" font-size="10.00">unsigned</text>
</a>
</g>
</g>
<!-- Node6&#45;&gt;Node2 -->
<g id="edge30" class="edge"><title>Node6&#45;&gt;Node2</title>
<path fill="none" stroke="#9a32cd" stroke-dasharray="5,2" d="M35.0086,-495.287C51.2198,-543.052 100.628,-663 188,-663 188,-663 188,-663 1030,-663 1204.86,-663 1215.94,-347.36 1216.14,-273.382"/>
<polygon fill="#9a32cd" stroke="#9a32cd" points="38.2537,-493.95 31.8223,-485.53 31.5996,-496.123 38.2537,-493.95"/>
<text text-anchor="middle" x="616" y="-666" font-family="Helvetica,sans-Serif" font-size="10.00"> uIlosc</text>
</g>
<!-- Node6&#45;&gt;Node3 -->
<g id="edge12" class="edge"><title>Node6&#45;&gt;Node3</title>
<path fill="none" stroke="#9a32cd" stroke-dasharray="5,2" d="M38.7432,-494.803C60.1388,-533.195 115.183,-617 188,-617 188,-617 188,-617 815,-617 920.545,-617 997.354,-485.328 1020.64,-440.066"/>
<polygon fill="#9a32cd" stroke="#9a32cd" points="41.6547,-492.829 33.8248,-485.692 35.4948,-496.154 41.6547,-492.829"/>
<text text-anchor="middle" x="506" y="-620" font-family="Helvetica,sans-Serif" font-size="10.00"> uIlosc</text>
</g>
<!-- Node6&#45;&gt;Node4 -->
<g id="edge7" class="edge"><title>Node6&#45;&gt;Node4</title>
<path fill="none" stroke="#9a32cd" stroke-dasharray="5,2" d="M50.0798,-491.061C57.3194,-495.429 65.698,-499.651 74,-502 244.27,-550.184 295.06,-510.555 472,-513 502.219,-513.418 509.858,-515.199 540,-513 545.906,-512.569 552.054,-511.95 558.175,-511.222"/>
<polygon fill="#9a32cd" stroke="#9a32cd" points="51.9073,-488.075 41.6102,-485.58 48.1044,-493.952 51.9073,-488.075"/>
<text text-anchor="middle" x="297" y="-528" font-family="Helvetica,sans-Serif" font-size="10.00"> uDataSize</text>
</g>
<!-- Node6&#45;&gt;Node5 -->
<g id="edge5" class="edge"><title>Node6&#45;&gt;Node5</title>
<path fill="none" stroke="#9a32cd" stroke-dasharray="5,2" d="M65.9401,-466.921C68.6665,-466.266 71.3755,-465.62 74,-465 92.9658,-460.519 113.739,-455.743 132.296,-451.523"/>
<polygon fill="#9a32cd" stroke="#9a32cd" points="65.0069,-463.546 56.1111,-469.301 66.6539,-470.35 65.0069,-463.546"/>
<text text-anchor="middle" x="90" y="-479" font-family="Helvetica,sans-Serif" font-size="10.00"> uIlosc</text>
<text text-anchor="middle" x="90" y="-468" font-family="Helvetica,sans-Serif" font-size="10.00">uMode</text>
</g>
<!-- Node6&#45;&gt;Node8 -->
<g id="edge11" class="edge"><title>Node6&#45;&gt;Node8</title>
<path fill="none" stroke="#9a32cd" stroke-dasharray="5,2" d="M66.3207,-485.842C68.9072,-486.302 71.4848,-486.697 74,-487 88.1202,-488.701 91.7954,-487.708 106,-487 187.741,-482.923 281.961,-472.421 340.258,-465.24"/>
<polygon fill="#9a32cd" stroke="#9a32cd" points="66.9136,-482.391 56.4136,-483.806 65.5041,-489.248 66.9136,-482.391"/>
<text text-anchor="middle" x="189" y="-489" font-family="Helvetica,sans-Serif" font-size="10.00"> uDataSize</text>
</g>
<!-- Node10 -->
<g id="node10" class="node"><title>Node10</title>
<g id="a_node10"><a xlink:href="class_kuszk_a_p_i_1_1_containers_1_1_box.html" target="_top" xlink:title="Implementacja szablonu pudełka dla modułu kontenerów. ">
<polygon fill="white" stroke="black" points="757.5,-353 757.5,-383 870.5,-383 870.5,-353 757.5,-353"/>
<text text-anchor="start" x="765.5" y="-371" font-family="Helvetica,sans-Serif" font-size="10.00">KuszkAPI::Containers</text>
<text text-anchor="middle" x="814" y="-360" font-family="Helvetica,sans-Serif" font-size="10.00">::Box&lt; tnData &gt;</text>
</a>
</g>
</g>
<!-- Node6&#45;&gt;Node10 -->
<g id="edge14" class="edge"><title>Node6&#45;&gt;Node10</title>
<path fill="none" stroke="#9a32cd" stroke-dasharray="5,2" d="M31.3117,-456.331C35.6819,-424.993 47.235,-362.618 74,-317 104.815,-264.479 127.106,-241 188,-241 188,-241 188,-241 617,-241 698.499,-241 772.847,-319.292 801.032,-352.933"/>
<polygon fill="#9a32cd" stroke="#9a32cd" points="27.8232,-456.018 30.0118,-466.384 34.7654,-456.915 27.8232,-456.018"/>
<text text-anchor="middle" x="397" y="-244" font-family="Helvetica,sans-Serif" font-size="10.00"> uIlosc</text>
</g>
<!-- Node6&#45;&gt;Node11 -->
<g id="edge18" class="edge"><title>Node6&#45;&gt;Node11</title>
<path fill="none" stroke="#9a32cd" stroke-dasharray="5,2" d="M33.2369,-456.31C42.3993,-419.226 67.9212,-339.808 124,-307 278.401,-216.67 506.515,-313.669 586.241,-352.997"/>
<polygon fill="#9a32cd" stroke="#9a32cd" points="29.7556,-455.829 30.9029,-466.362 36.5742,-457.413 29.7556,-455.829"/>
<text text-anchor="middle" x="297" y="-275" font-family="Helvetica,sans-Serif" font-size="10.00"> uDataSize</text>
</g>
<!-- Node17 -->
<g id="node17" class="node"><title>Node17</title>
<g id="a_node17"><a xlink:href="class_kuszk_a_p_i_1_1_containers_1_1_map.html" target="_top" xlink:title="KuszkAPI::Containers\l::Map\&lt; tnData, tnKey \&gt;">
<polygon fill="white" stroke="black" points="754.5,-71 754.5,-101 873.5,-101 873.5,-71 754.5,-71"/>
<text text-anchor="start" x="762.5" y="-89" font-family="Helvetica,sans-Serif" font-size="10.00">KuszkAPI::Containers</text>
<text text-anchor="middle" x="814" y="-78" font-family="Helvetica,sans-Serif" font-size="10.00">::Map&lt; tnData, tnKey &gt;</text>
</a>
</g>
</g>
<!-- Node6&#45;&gt;Node17 -->
<g id="edge34" class="edge"><title>Node6&#45;&gt;Node17</title>
<path fill="none" stroke="#9a32cd" stroke-dasharray="5,2" d="M31.0966,-455.987C39.1822,-382.421 70.5807,-128.23 124,-70 144.333,-47.8358 157.922,-48 188,-48 188,-48 188,-48 617,-48 667.606,-48 724.239,-60.3597 763.566,-70.9814"/>
<polygon fill="#9a32cd" stroke="#9a32cd" points="27.5892,-455.868 29.9992,-466.185 34.549,-456.617 27.5892,-455.868"/>
<text text-anchor="middle" x="397" y="-51" font-family="Helvetica,sans-Serif" font-size="10.00"> uIlosc</text>
</g>
<!-- Node7 -->
<g id="node7" class="node"><title>Node7</title>
<polygon fill="white" stroke="#bfbfbf" points="369,-568.5 369,-587.5 425,-587.5 425,-568.5 369,-568.5"/>
<text text-anchor="middle" x="397" y="-575.5" font-family="Helvetica,sans-Serif" font-size="10.00">HANDLE</text>
</g>
<!-- Node7&#45;&gt;Node4 -->
<g id="edge6" class="edge"><title>Node7&#45;&gt;Node4</title>
<path fill="none" stroke="#9a32cd" stroke-dasharray="5,2" d="M435.229,-574.513C464.523,-570.866 505.944,-563.682 540,-550 560.37,-541.817 581.218,-527.943 595.746,-517.21"/>
<polygon fill="#9a32cd" stroke="#9a32cd" points="434.549,-571.069 425.021,-575.702 435.359,-578.022 434.549,-571.069"/>
<text text-anchor="middle" x="506" y="-583" font-family="Helvetica,sans-Serif" font-size="10.00"> tAbstract</text>
<text text-anchor="middle" x="506" y="-572" font-family="Helvetica,sans-Serif" font-size="10.00">ptBegin</text>
</g>
<!-- Node8&#45;&gt;Node4 -->
<g id="edge8" class="edge"><title>Node8&#45;&gt;Node4</title>
<path fill="none" stroke="orange" stroke-dasharray="5,2" d="M463.858,-464.189C487.99,-467.144 515.404,-471.309 540,-477 551.366,-479.63 563.453,-483.27 574.528,-486.958"/>
<polygon fill="orange" stroke="orange" points="464.076,-460.691 453.735,-462.996 463.256,-467.643 464.076,-460.691"/>
<text text-anchor="middle" x="506" y="-480" font-family="Helvetica,sans-Serif" font-size="10.00"> &lt; HANDLE * &gt;</text>
</g>
<!-- Node8&#45;&gt;Node11 -->
<g id="edge19" class="edge"><title>Node8&#45;&gt;Node11</title>
<path fill="none" stroke="orange" stroke-dasharray="5,2" d="M463.785,-445.393C488.358,-439.403 516.087,-431.079 540,-420 560.989,-410.276 582.432,-394.73 596.984,-383.165"/>
<polygon fill="orange" stroke="orange" points="462.758,-442.038 453.825,-447.736 464.361,-448.852 462.758,-442.038"/>
<text text-anchor="middle" x="506" y="-446" font-family="Helvetica,sans-Serif" font-size="10.00"> &lt; tnData * &gt;</text>
</g>
<!-- Node9 -->
<g id="node9" class="node"><title>Node9</title>
<polygon fill="white" stroke="#bfbfbf" points="166.5,-316.5 166.5,-335.5 211.5,-335.5 211.5,-316.5 166.5,-316.5"/>
<text text-anchor="middle" x="189" y="-323.5" font-family="Helvetica,sans-Serif" font-size="10.00">tnData</text>
</g>
<!-- Node9&#45;&gt;Node8 -->
<g id="edge10" class="edge"><title>Node9&#45;&gt;Node8</title>
<path fill="none" stroke="#9a32cd" stroke-dasharray="5,2" d="M213.664,-341.163C253.376,-366.61 332.959,-417.605 372.536,-442.965"/>
<polygon fill="#9a32cd" stroke="#9a32cd" points="215.456,-338.155 205.148,-335.706 211.679,-344.048 215.456,-338.155"/>
<text text-anchor="middle" x="297" y="-422" font-family="Helvetica,sans-Serif" font-size="10.00"> tAbstract</text>
<text text-anchor="middle" x="297" y="-411" font-family="Helvetica,sans-Serif" font-size="10.00">ptBegin</text>
</g>
<!-- Node9&#45;&gt;Node11 -->
<g id="edge17" class="edge"><title>Node9&#45;&gt;Node11</title>
<path fill="none" stroke="#9a32cd" stroke-dasharray="5,2" d="M221.883,-329.151C293.744,-336.252 469.104,-353.582 559.341,-362.5"/>
<polygon fill="#9a32cd" stroke="#9a32cd" points="221.956,-325.641 211.66,-328.141 221.267,-332.607 221.956,-325.641"/>
<text text-anchor="middle" x="397" y="-366" font-family="Helvetica,sans-Serif" font-size="10.00"> tAbstract</text>
<text text-anchor="middle" x="397" y="-355" font-family="Helvetica,sans-Serif" font-size="10.00">ptBegin</text>
</g>
<!-- Node9&#45;&gt;Node16 -->
<g id="edge28" class="edge"><title>Node9&#45;&gt;Node16</title>
<path fill="none" stroke="#9a32cd" stroke-dasharray="5,2" d="M195.242,-306.514C204.722,-275.604 227.948,-216.254 272,-191 292.36,-179.328 317.862,-177.233 340.436,-178.675"/>
<polygon fill="#9a32cd" stroke="#9a32cd" points="191.868,-305.58 192.45,-316.159 198.592,-307.526 191.868,-305.58"/>
<text text-anchor="middle" x="297" y="-194" font-family="Helvetica,sans-Serif" font-size="10.00"> tAbstract</text>
</g>
<!-- Node10&#45;&gt;Node3 -->
<g id="edge13" class="edge"><title>Node10&#45;&gt;Node3</title>
<path fill="none" stroke="orange" stroke-dasharray="5,2" d="M880.445,-385.513C909.829,-393.377 944.135,-402.557 972.27,-410.086"/>
<polygon fill="orange" stroke="orange" points="881.25,-382.106 870.685,-382.902 879.44,-388.868 881.25,-382.106"/>
<text text-anchor="middle" x="923" y="-408" font-family="Helvetica,sans-Serif" font-size="10.00"> &lt; HANDLE &gt;</text>
</g>
<!-- Node11&#45;&gt;Node10 -->
<g id="edge15" class="edge"><title>Node11&#45;&gt;Node10</title>
<path fill="none" stroke="#9a32cd" stroke-dasharray="5,2" d="M682.792,-368C706.944,-368 734.031,-368 757.219,-368"/>
<polygon fill="#9a32cd" stroke="#9a32cd" points="682.641,-364.5 672.641,-368 682.641,-371.5 682.641,-364.5"/>
<text text-anchor="middle" x="714" y="-371" font-family="Helvetica,sans-Serif" font-size="10.00"> vPointers</text>
</g>
<!-- Node12&#45;&gt;Node2 -->
<g id="edge20" class="edge"><title>Node12&#45;&gt;Node2</title>
<path fill="none" stroke="#9a32cd" stroke-dasharray="5,2" d="M682.685,-176.979C798.453,-194.566 1037.38,-230.865 1151.97,-248.272"/>
<polygon fill="#9a32cd" stroke="#9a32cd" points="682.959,-173.48 672.546,-175.439 681.907,-180.401 682.959,-173.48"/>
<text text-anchor="middle" x="923" y="-221" font-family="Helvetica,sans-Serif" font-size="10.00"> lKey</text>
</g>
<!-- Node12&#45;&gt;Node17 -->
<g id="edge33" class="edge"><title>Node12&#45;&gt;Node17</title>
<path fill="none" stroke="#9a32cd" stroke-dasharray="5,2" d="M662.825,-148.062C697.448,-133.754 744.336,-114.376 776.456,-101.102"/>
<polygon fill="#9a32cd" stroke="#9a32cd" points="661.312,-144.9 653.407,-151.954 663.985,-151.37 661.312,-144.9"/>
<text text-anchor="middle" x="714" y="-137" font-family="Helvetica,sans-Serif" font-size="10.00"> lKey</text>
</g>
<!-- Node13 -->
<g id="node13" class="node"><title>Node13</title>
<g id="a_node13"><a xlink:href="class_kuszk_a_p_i_1_1_containers_1_1_list.html#struct_kuszk_a_p_i_1_1_containers_1_1_list_1_1_item_data" target="_top" xlink:title="Struktura przechowująca wskaźnik na element listy oraz wskaźnik na kolejny obiekt. ">
<polygon fill="white" stroke="black" points="124,-80 124,-110 254,-110 254,-80 124,-80"/>
<text text-anchor="start" x="132" y="-98" font-family="Helvetica,sans-Serif" font-size="10.00">KuszkAPI::Containers</text>
<text text-anchor="middle" x="189" y="-87" font-family="Helvetica,sans-Serif" font-size="10.00">::List&lt; tnData &gt;::ItemData</text>
</a>
</g>
</g>
<!-- Node13&#45;&gt;Node12 -->
<g id="edge22" class="edge"><title>Node13&#45;&gt;Node12</title>
<path fill="none" stroke="#9a32cd" stroke-dasharray="5,2" d="M264.249,-90.8881C317.593,-89.5381 390.92,-90.9809 454,-104 501.768,-113.859 553.764,-136.586 585.374,-151.872"/>
<polygon fill="#9a32cd" stroke="#9a32cd" points="264.086,-87.3913 254.193,-91.1816 264.29,-94.3883 264.086,-87.3913"/>
<text text-anchor="middle" x="397" y="-118" font-family="Helvetica,sans-Serif" font-size="10.00"> ptLast</text>
<text text-anchor="middle" x="397" y="-107" font-family="Helvetica,sans-Serif" font-size="10.00">ptBegin</text>
</g>
<!-- Node13&#45;&gt;Node13 -->
<g id="edge23" class="edge"><title>Node13&#45;&gt;Node13</title>
<path fill="none" stroke="#9a32cd" stroke-dasharray="5,2" d="M171.846,-120.598C174.19,-124.97 179.908,-128 189,-128 204.313,-128 210.055,-119.406 206.227,-110.275"/>
<polygon fill="#9a32cd" stroke="#9a32cd" points="175.344,-120.25 171.773,-110.275 168.344,-120.3 175.344,-120.25"/>
<text text-anchor="middle" x="189" y="-131" font-family="Helvetica,sans-Serif" font-size="10.00"> ptNext</text>
</g>
<!-- Node13&#45;&gt;Node16 -->
<g id="edge29" class="edge"><title>Node13&#45;&gt;Node16</title>
<path fill="none" stroke="#9a32cd" stroke-dasharray="5,2" d="M255.64,-113.318C277.766,-121.155 301.919,-131.635 322,-145 331.683,-151.445 330.507,-157.278 340,-164 345.213,-167.692 351.059,-171.026 356.955,-173.968"/>
<polygon fill="#9a32cd" stroke="#9a32cd" points="256.564,-109.936 245.97,-110.012 254.3,-116.559 256.564,-109.936"/>
<text text-anchor="middle" x="297" y="-159" font-family="Helvetica,sans-Serif" font-size="10.00"> ptLast</text>
<text text-anchor="middle" x="297" y="-148" font-family="Helvetica,sans-Serif" font-size="10.00">ptBegin</text>
</g>
<!-- Node14 -->
<g id="node14" class="node"><title>Node14</title>
<polygon fill="white" stroke="#bfbfbf" points="2,-12.5 2,-31.5 54,-31.5 54,-12.5 2,-12.5"/>
<text text-anchor="middle" x="28" y="-19.5" font-family="Helvetica,sans-Serif" font-size="10.00">tnData *</text>
</g>
<!-- Node14&#45;&gt;Node13 -->
<g id="edge24" class="edge"><title>Node14&#45;&gt;Node13</title>
<path fill="none" stroke="#9a32cd" stroke-dasharray="5,2" d="M58.8844,-35.7205C86.265,-48.2915 126.727,-66.8682 155.037,-79.866"/>
<polygon fill="#9a32cd" stroke="#9a32cd" points="60.3348,-32.5352 49.7865,-31.5435 57.414,-38.8968 60.3348,-32.5352"/>
<text text-anchor="middle" x="90" y="-60" font-family="Helvetica,sans-Serif" font-size="10.00"> ptData</text>
</g>
<!-- Node15 -->
<g id="node15" class="node"><title>Node15</title>
<polygon fill="white" stroke="#bfbfbf" points="376,-135.5 376,-154.5 418,-154.5 418,-135.5 376,-135.5"/>
<text text-anchor="middle" x="397" y="-142.5" font-family="Helvetica,sans-Serif" font-size="10.00">tnKey</text>
</g>
<!-- Node15&#45;&gt;Node12 -->
<g id="edge25" class="edge"><title>Node15&#45;&gt;Node12</title>
<path fill="none" stroke="#9a32cd" stroke-dasharray="5,2" d="M428.56,-144.813C457.401,-144.986 501.798,-146.153 540,-151 546.34,-151.804 552.939,-152.87 559.477,-154.07"/>
<polygon fill="#9a32cd" stroke="#9a32cd" points="428.321,-141.313 418.313,-144.79 428.305,-148.313 428.321,-141.313"/>
<text text-anchor="middle" x="506" y="-154" font-family="Helvetica,sans-Serif" font-size="10.00"> tAbstract</text>
</g>
<!-- Node16&#45;&gt;Node12 -->
<g id="edge26" class="edge"><title>Node16&#45;&gt;Node12</title>
<path fill="none" stroke="orange" stroke-dasharray="5,2" d="M463.713,-182.338C494.187,-179.248 530.023,-175.615 559.167,-172.661"/>
<polygon fill="orange" stroke="orange" points="463.197,-178.872 453.601,-183.363 463.903,-185.836 463.197,-178.872"/>
<text text-anchor="middle" x="506" y="-185" font-family="Helvetica,sans-Serif" font-size="10.00"> &lt; tnKey &gt;</text>
</g>
<!-- Node17&#45;&gt;Node2 -->
<g id="edge31" class="edge"><title>Node17&#45;&gt;Node2</title>
<path fill="none" stroke="orange" stroke-dasharray="5,2" d="M883.767,-95.8004C951.114,-107.633 1054.86,-131.958 1134,-178 1163.23,-195.003 1189.8,-224.702 1204.35,-242.737"/>
<polygon fill="orange" stroke="orange" points="884.138,-92.3132 873.691,-94.0757 882.957,-99.2128 884.138,-92.3132"/>
<text text-anchor="middle" x="1029" y="-157" font-family="Helvetica,sans-Serif" font-size="10.00"> &lt; HANDLE, tnKey &gt;</text>
</g>
<!-- Node18 -->
<g id="node18" class="node"><title>Node18</title>
<polygon fill="white" stroke="#bfbfbf" points="576,-0.5 576,-19.5 656,-19.5 656,-0.5 576,-0.5"/>
<text text-anchor="middle" x="616" y="-7.5" font-family="Helvetica,sans-Serif" font-size="10.00">Box&lt; tnData &gt;</text>
</g>
<!-- Node18&#45;&gt;Node17 -->
<g id="edge32" class="edge"><title>Node18&#45;&gt;Node17</title>
<path fill="none" stroke="#9a32cd" stroke-dasharray="5,2" d="M666.336,-9.11571C688.383,-10.283 714.245,-13.8719 736,-23 761.643,-33.7592 785.487,-55.9033 799.653,-70.8567"/>
<polygon fill="#9a32cd" stroke="#9a32cd" points="666.304,-5.6121 656.179,-8.73092 666.039,-12.6071 666.304,-5.6121"/>
<text text-anchor="middle" x="714" y="-26" font-family="Helvetica,sans-Serif" font-size="10.00"> bData</text>
</g>
</g>
</svg>
