<?xml version="1.0" encoding="UTF-8" standalone="no"?>
<!DOCTYPE svg PUBLIC "-//W3C//DTD SVG 1.1//EN"
 "http://www.w3.org/Graphics/SVG/1.1/DTD/svg11.dtd">
<!-- Generated by graphviz version 2.36.0 (20140111.2315)
 -->
<!-- Title: KuszkAPI::DateTime::Time Pages: 1 -->
<svg width="136pt" height="118pt"
 viewBox="0.00 0.00 136.00 118.00" xmlns="http://www.w3.org/2000/svg" xmlns:xlink="http://www.w3.org/1999/xlink">
<g id="graph0" class="graph" transform="scale(1 1) rotate(0) translate(4 114)">
<title>KuszkAPI::DateTime::Time</title>
<polygon fill="white" stroke="none" points="-4,4 -4,-114 132,-114 132,4 -4,4"/>
<!-- Node1 -->
<g id="node1" class="node"><title>Node1</title>
<polygon fill="#bfbfbf" stroke="black" points="0.5,-1 0.5,-31 107.5,-31 107.5,-1 0.5,-1"/>
<text text-anchor="start" x="8.5" y="-19" font-family="Helvetica,sans-Serif" font-size="10.00">KuszkAPI::DateTime</text>
<text text-anchor="middle" x="54" y="-8" font-family="Helvetica,sans-Serif" font-size="10.00">::Time</text>
</g>
<!-- Node2 -->
<g id="node2" class="node"><title>Node2</title>
<polygon fill="white" stroke="#bfbfbf" points="-0.5,-90.5 -0.5,-109.5 34.5,-109.5 34.5,-90.5 -0.5,-90.5"/>
<text text-anchor="middle" x="17" y="-97.5" font-family="Helvetica,sans-Serif" font-size="10.00">char</text>
</g>
<!-- Node2&#45;&gt;Node1 -->
<g id="edge1" class="edge"><title>Node2&#45;&gt;Node1</title>
<path fill="none" stroke="#9a32cd" stroke-dasharray="5,2" d="M13.998,-80.26C13.305,-70.7937 13.7672,-59.3618 18,-50 21.2834,-42.7379 27.0093,-36.3597 32.9414,-31.1953"/>
<polygon fill="#9a32cd" stroke="#9a32cd" points="10.5271,-80.7122 15.1856,-90.2279 17.4779,-79.884 10.5271,-80.7122"/>
<text text-anchor="middle" x="43.5" y="-58.5" font-family="Helvetica,sans-Serif" font-size="10.00"> cSeparator</text>
</g>
<!-- Node3 -->
<g id="node3" class="node"><title>Node3</title>
<g id="a_node3"><a xlink:href="namespace_3global_scope_4.html#classunsigned" target="_top" xlink:title="unsigned">
<polygon fill="white" stroke="black" points="63,-90.5 63,-109.5 119,-109.5 119,-90.5 63,-90.5"/>
<text text-anchor="middle" x="91" y="-97.5" font-family="Helvetica,sans-Serif" font-size="10.00">unsigned</text>
</a>
</g>
</g>
<!-- Node3&#45;&gt;Node1 -->
<g id="edge2" class="edge"><title>Node3&#45;&gt;Node1</title>
<path fill="none" stroke="#9a32cd" stroke-dasharray="5,2" d="M82.9337,-80.9809C78.7809,-71.7175 73.6303,-60.2495 69,-50 66.2018,-43.806 63.0949,-36.9649 60.4378,-31.1251"/>
<polygon fill="#9a32cd" stroke="#9a32cd" points="79.835,-82.6251 87.1175,-90.3203 86.2233,-79.7632 79.835,-82.6251"/>
<text text-anchor="middle" x="103.5" y="-64" font-family="Helvetica,sans-Serif" font-size="10.00"> uCzas</text>
<text text-anchor="middle" x="103.5" y="-53" font-family="Helvetica,sans-Serif" font-size="10.00">uShowFlag</text>
</g>
</g>
</svg>
