<?xml version="1.0" encoding="UTF-8" standalone="no"?>
<!DOCTYPE svg PUBLIC "-//W3C//DTD SVG 1.1//EN"
 "http://www.w3.org/Graphics/SVG/1.1/DTD/svg11.dtd">
<!-- Generated by graphviz version 2.36.0 (20140111.2315)
 -->
<!-- Title: KuszkAPI::Containers::Array&lt; tnData &gt; Pages: 1 -->
<svg width="320pt" height="208pt"
 viewBox="0.00 0.00 320.19 208.00" xmlns="http://www.w3.org/2000/svg" xmlns:xlink="http://www.w3.org/1999/xlink">
<g id="graph0" class="graph" transform="scale(1 1) rotate(0) translate(4 204)">
<title>KuszkAPI::Containers::Array&lt; tnData &gt;</title>
<polygon fill="white" stroke="none" points="-4,4 -4,-204 316.185,-204 316.185,4 -4,4"/>
<!-- Node1 -->
<g id="node1" class="node"><title>Node1</title>
<polygon fill="#bfbfbf" stroke="black" points="137.685,-1 137.685,-31 250.685,-31 250.685,-1 137.685,-1"/>
<text text-anchor="start" x="145.685" y="-19" font-family="Helvetica,sans-Serif" font-size="10.00">KuszkAPI::Containers</text>
<text text-anchor="middle" x="194.185" y="-8" font-family="Helvetica,sans-Serif" font-size="10.00">::Array&lt; tnData &gt;</text>
</g>
<!-- Node2 -->
<g id="node2" class="node"><title>Node2</title>
<g id="a_node2"><a xlink:href="class_kuszk_a_p_i_1_1_containers_1_1_container.html" target="_top" xlink:title="Implementacja bazy dla modułu kontenerów. ">
<polygon fill="white" stroke="black" points="65.6854,-91 65.6854,-121 178.685,-121 178.685,-91 65.6854,-91"/>
<text text-anchor="start" x="73.6854" y="-109" font-family="Helvetica,sans-Serif" font-size="10.00">KuszkAPI::Containers</text>
<text text-anchor="middle" x="122.185" y="-98" font-family="Helvetica,sans-Serif" font-size="10.00">::Container</text>
</a>
</g>
</g>
<!-- Node2&#45;&gt;Node1 -->
<g id="edge1" class="edge"><title>Node2&#45;&gt;Node1</title>
<path fill="none" stroke="midnightblue" d="M140.249,-82.9227C153.541,-66.6768 171.215,-45.075 182.646,-31.1036"/>
<polygon fill="midnightblue" stroke="midnightblue" points="137.377,-80.9053 133.753,-90.8613 142.795,-85.338 137.377,-80.9053"/>
</g>
<!-- Node3 -->
<g id="node3" class="node"><title>Node3</title>
<g id="a_node3"><a xlink:href="namespace_3global_scope_4.html#classunsigned" target="_top" xlink:title="unsigned">
<polygon fill="white" stroke="black" points="9.18541,-180.5 9.18541,-199.5 65.1854,-199.5 65.1854,-180.5 9.18541,-180.5"/>
<text text-anchor="middle" x="37.1854" y="-187.5" font-family="Helvetica,sans-Serif" font-size="10.00">unsigned</text>
</a>
</g>
</g>
<!-- Node3&#45;&gt;Node1 -->
<g id="edge5" class="edge"><title>Node3&#45;&gt;Node1</title>
<path fill="none" stroke="#9a32cd" stroke-dasharray="5,2" d="M23.886,-172.113C9.20387,-151.264 -10.1988,-115.448 7.18541,-90 36.1819,-47.553 93.8436,-29.7854 137.512,-22.3494"/>
<polygon fill="#9a32cd" stroke="#9a32cd" points="21.1916,-174.356 29.9594,-180.304 26.8144,-170.186 21.1916,-174.356"/>
<text text-anchor="middle" x="31.6854" y="-103.5" font-family="Helvetica,sans-Serif" font-size="10.00"> uDataSize</text>
</g>
<!-- Node3&#45;&gt;Node2 -->
<g id="edge2" class="edge"><title>Node3&#45;&gt;Node2</title>
<path fill="none" stroke="#9a32cd" stroke-dasharray="5,2" d="M53.6657,-173.101C69.2725,-158.045 92.4888,-135.648 107.483,-121.184"/>
<polygon fill="#9a32cd" stroke="#9a32cd" points="51.0488,-170.763 46.2819,-180.225 55.9089,-175.801 51.0488,-170.763"/>
<text text-anchor="middle" x="103.185" y="-154" font-family="Helvetica,sans-Serif" font-size="10.00"> uIlosc</text>
<text text-anchor="middle" x="103.185" y="-143" font-family="Helvetica,sans-Serif" font-size="10.00">uMode</text>
</g>
<!-- Node4 -->
<g id="node4" class="node"><title>Node4</title>
<polygon fill="white" stroke="#bfbfbf" points="196.685,-96.5 196.685,-115.5 241.685,-115.5 241.685,-96.5 196.685,-96.5"/>
<text text-anchor="middle" x="219.185" y="-103.5" font-family="Helvetica,sans-Serif" font-size="10.00">tnData</text>
</g>
<!-- Node4&#45;&gt;Node1 -->
<g id="edge3" class="edge"><title>Node4&#45;&gt;Node1</title>
<path fill="none" stroke="#9a32cd" stroke-dasharray="5,2" d="M213.834,-86.1633C209.155,-69.6933 202.463,-46.1376 198.222,-31.209"/>
<polygon fill="#9a32cd" stroke="#9a32cd" points="210.597,-87.5776 216.697,-96.2405 217.331,-85.6647 210.597,-87.5776"/>
<text text-anchor="middle" x="231.685" y="-64" font-family="Helvetica,sans-Serif" font-size="10.00"> tAbstract</text>
<text text-anchor="middle" x="231.685" y="-53" font-family="Helvetica,sans-Serif" font-size="10.00">ptBegin</text>
</g>
<!-- Node5 -->
<g id="node5" class="node"><title>Node5</title>
<polygon fill="white" stroke="#bfbfbf" points="260.185,-96.5 260.185,-115.5 312.185,-115.5 312.185,-96.5 260.185,-96.5"/>
<text text-anchor="middle" x="286.185" y="-103.5" font-family="Helvetica,sans-Serif" font-size="10.00">tnData *</text>
</g>
<!-- Node5&#45;&gt;Node1 -->
<g id="edge4" class="edge"><title>Node5&#45;&gt;Node1</title>
<path fill="none" stroke="#9a32cd" stroke-dasharray="5,2" d="M279.763,-86.5858C274.976,-74.9682 267.485,-60.2715 257.185,-50 249.492,-42.3274 239.643,-36.0303 230.03,-31.0696"/>
<polygon fill="#9a32cd" stroke="#9a32cd" points="276.581,-88.0659 283.4,-96.1741 283.125,-85.5828 276.581,-88.0659"/>
<text text-anchor="middle" x="291.685" y="-58.5" font-family="Helvetica,sans-Serif" font-size="10.00"> ptBegin</text>
</g>
</g>
</svg>
