<?xml version="1.0" encoding="UTF-8" standalone="no"?>
<!DOCTYPE svg PUBLIC "-//W3C//DTD SVG 1.1//EN"
 "http://www.w3.org/Graphics/SVG/1.1/DTD/svg11.dtd">
<!-- Generated by graphviz version 2.36.0 (20140111.2315)
 -->
<!-- Title: KuszkAPI::Forms::Images::Create Pages: 1 -->
<svg width="308pt" height="87pt"
 viewBox="0.00 0.00 308.00 87.00" xmlns="http://www.w3.org/2000/svg" xmlns:xlink="http://www.w3.org/1999/xlink">
<g id="graph0" class="graph" transform="scale(1 1) rotate(0) translate(4 83)">
<title>KuszkAPI::Forms::Images::Create</title>
<polygon fill="white" stroke="none" points="-4,4 -4,-83 304,-83 304,4 -4,4"/>
<!-- Node1 -->
<g id="node1" class="node"><title>Node1</title>
<polygon fill="#bfbfbf" stroke="black" points="0.5,-24 0.5,-54 131.5,-54 131.5,-24 0.5,-24"/>
<text text-anchor="start" x="8.5" y="-42" font-family="Helvetica,sans-Serif" font-size="10.00">KuszkAPI::Forms::Images</text>
<text text-anchor="middle" x="66" y="-31" font-family="Helvetica,sans-Serif" font-size="10.00">::Create</text>
</g>
<!-- Node2 -->
<g id="node2" class="node"><title>Node2</title>
<g id="a_node2"><a xlink:href="class_kuszk_a_p_i_1_1_containers_1_1_strings.html#a89fcfadc786b1736408189065ce5deaf" target="_top" xlink:title="KuszkAPI::Containers\l::Strings::Capacity">
<polygon fill="white" stroke="black" points="177.5,-49 177.5,-79 290.5,-79 290.5,-49 177.5,-49"/>
<text text-anchor="start" x="185.5" y="-67" font-family="Helvetica,sans-Serif" font-size="10.00">KuszkAPI::Containers</text>
<text text-anchor="middle" x="234" y="-56" font-family="Helvetica,sans-Serif" font-size="10.00">::Strings::Capacity</text>
</a>
</g>
</g>
<!-- Node1&#45;&gt;Node2 -->
<g id="edge1" class="edge"><title>Node1&#45;&gt;Node2</title>
<path fill="none" stroke="midnightblue" d="M131.655,-48.7372C143.343,-50.4975 155.542,-52.3347 167.261,-54.0995"/>
<polygon fill="midnightblue" stroke="midnightblue" points="167.001,-57.5998 177.411,-55.6281 168.043,-50.6778 167.001,-57.5998"/>
</g>
<!-- Node3 -->
<g id="node3" class="node"><title>Node3</title>
<g id="a_node3"><a xlink:href="class_kuszk_a_p_i_1_1_forms_1_1_bitmap.html#a8a62ef56ffbf8e7e807a0dd383cf132a" target="_top" xlink:title="KuszkAPI::Forms::Bitmap\l::GetSize">
<polygon fill="white" stroke="black" points="168.5,-0 168.5,-30 299.5,-30 299.5,-0 168.5,-0"/>
<text text-anchor="start" x="176.5" y="-18" font-family="Helvetica,sans-Serif" font-size="10.00">KuszkAPI::Forms::Bitmap</text>
<text text-anchor="middle" x="234" y="-7" font-family="Helvetica,sans-Serif" font-size="10.00">::GetSize</text>
</a>
</g>
</g>
<!-- Node1&#45;&gt;Node3 -->
<g id="edge2" class="edge"><title>Node1&#45;&gt;Node3</title>
<path fill="none" stroke="midnightblue" d="M131.655,-29.6523C140.386,-28.39 149.402,-27.0865 158.29,-25.8015"/>
<polygon fill="midnightblue" stroke="midnightblue" points="158.852,-29.2567 168.248,-24.3617 157.85,-22.3287 158.852,-29.2567"/>
</g>
</g>
</svg>
