<?xml version="1.0" encoding="UTF-8" standalone="no"?>
<!DOCTYPE svg PUBLIC "-//W3C//DTD SVG 1.1//EN"
 "http://www.w3.org/Graphics/SVG/1.1/DTD/svg11.dtd">
<!-- Generated by graphviz version 2.36.0 (20140111.2315)
 -->
<!-- Title: KuszkAPI::Forms::Brush Pages: 1 -->
<svg width="1508pt" height="363pt"
 viewBox="0.00 0.00 1508.00 362.83" xmlns="http://www.w3.org/2000/svg" xmlns:xlink="http://www.w3.org/1999/xlink">
<g id="graph0" class="graph" transform="scale(1 1) rotate(0) translate(4 358.835)">
<title>KuszkAPI::Forms::Brush</title>
<polygon fill="white" stroke="none" points="-4,4 -4,-358.835 1504,-358.835 1504,4 -4,4"/>
<!-- Node1 -->
<g id="node1" class="node"><title>Node1</title>
<polygon fill="#bfbfbf" stroke="black" points="1374.5,-160.5 1374.5,-179.5 1499.5,-179.5 1499.5,-160.5 1374.5,-160.5"/>
<text text-anchor="middle" x="1437" y="-167.5" font-family="Helvetica,sans-Serif" font-size="10.00">KuszkAPI::Forms::Brush</text>
</g>
<!-- Node2 -->
<g id="node2" class="node"><title>Node2</title>
<g id="a_node2"><a xlink:href="class_kuszk_a_p_i_1_1_forms_1_1_gdi_object.html" target="_top" xlink:title="KuszkAPI::Forms::GdiObject\l\&lt; HBRUSH \&gt;">
<polygon fill="white" stroke="black" points="1192.5,-155 1192.5,-185 1335.5,-185 1335.5,-155 1192.5,-155"/>
<text text-anchor="start" x="1200.5" y="-173" font-family="Helvetica,sans-Serif" font-size="10.00">KuszkAPI::Forms::GdiObject</text>
<text text-anchor="middle" x="1264" y="-162" font-family="Helvetica,sans-Serif" font-size="10.00">&lt; HBRUSH &gt;</text>
</a>
</g>
</g>
<!-- Node2&#45;&gt;Node1 -->
<g id="edge1" class="edge"><title>Node2&#45;&gt;Node1</title>
<path fill="none" stroke="midnightblue" d="M1345.57,-170C1355.25,-170 1365.01,-170 1374.36,-170"/>
<polygon fill="midnightblue" stroke="midnightblue" points="1345.54,-166.5 1335.54,-170 1345.54,-173.5 1345.54,-166.5"/>
</g>
<!-- Node3 -->
<g id="node3" class="node"><title>Node3</title>
<g id="a_node3"><a xlink:href="class_kuszk_a_p_i_1_1_containers_1_1_box.html" target="_top" xlink:title="KuszkAPI::Containers\l::Box\&lt; HBRUSH \&gt;">
<polygon fill="white" stroke="black" points="965.5,-182 965.5,-212 1078.5,-212 1078.5,-182 965.5,-182"/>
<text text-anchor="start" x="973.5" y="-200" font-family="Helvetica,sans-Serif" font-size="10.00">KuszkAPI::Containers</text>
<text text-anchor="middle" x="1022" y="-189" font-family="Helvetica,sans-Serif" font-size="10.00">::Box&lt; HBRUSH &gt;</text>
</a>
</g>
</g>
<!-- Node3&#45;&gt;Node2 -->
<g id="edge2" class="edge"><title>Node3&#45;&gt;Node2</title>
<path fill="none" stroke="#9a32cd" stroke-dasharray="5,2" d="M1088.82,-189.595C1120.87,-185.99 1159.44,-181.651 1192.13,-177.973"/>
<polygon fill="#9a32cd" stroke="#9a32cd" points="1088.21,-186.142 1078.66,-190.738 1088.99,-193.098 1088.21,-186.142"/>
<text text-anchor="middle" x="1143" y="-190" font-family="Helvetica,sans-Serif" font-size="10.00"> bObject</text>
</g>
<!-- Node4 -->
<g id="node4" class="node"><title>Node4</title>
<g id="a_node4"><a xlink:href="class_kuszk_a_p_i_1_1_containers_1_1_vector.html" target="_top" xlink:title="KuszkAPI::Containers\l::Vector\&lt; HBRUSH * \&gt;">
<polygon fill="white" stroke="black" points="542,-279 542,-309 658,-309 658,-279 542,-279"/>
<text text-anchor="start" x="550" y="-297" font-family="Helvetica,sans-Serif" font-size="10.00">KuszkAPI::Containers</text>
<text text-anchor="middle" x="600" y="-286" font-family="Helvetica,sans-Serif" font-size="10.00">::Vector&lt; HBRUSH * &gt;</text>
</a>
</g>
</g>
<!-- Node4&#45;&gt;Node3 -->
<g id="edge3" class="edge"><title>Node4&#45;&gt;Node3</title>
<path fill="none" stroke="#9a32cd" stroke-dasharray="5,2" d="M668.126,-281.095C735.233,-267.844 841.222,-245.963 932,-223 944.953,-219.723 958.862,-215.839 971.746,-212.084"/>
<polygon fill="#9a32cd" stroke="#9a32cd" points="667.242,-277.702 658.106,-283.067 668.594,-284.57 667.242,-277.702"/>
<text text-anchor="middle" x="795" y="-270" font-family="Helvetica,sans-Serif" font-size="10.00"> vPointers</text>
</g>
<!-- Node5 -->
<g id="node5" class="node"><title>Node5</title>
<g id="a_node5"><a xlink:href="class_kuszk_a_p_i_1_1_containers_1_1_container.html" target="_top" xlink:title="Implementacja bazy dla modułu kontenerów. ">
<polygon fill="white" stroke="black" points="122.5,-171 122.5,-201 235.5,-201 235.5,-171 122.5,-171"/>
<text text-anchor="start" x="130.5" y="-189" font-family="Helvetica,sans-Serif" font-size="10.00">KuszkAPI::Containers</text>
<text text-anchor="middle" x="179" y="-178" font-family="Helvetica,sans-Serif" font-size="10.00">::Container</text>
</a>
</g>
</g>
<!-- Node5&#45;&gt;Node4 -->
<g id="edge4" class="edge"><title>Node5&#45;&gt;Node4</title>
<path fill="none" stroke="midnightblue" d="M196.25,-209.551C219.723,-241.246 266.449,-296.168 322,-318 400.395,-348.809 500.619,-326.466 556.488,-309.116"/>
<polygon fill="midnightblue" stroke="midnightblue" points="198.958,-207.322 190.259,-201.274 193.288,-211.427 198.958,-207.322"/>
</g>
<!-- Node9 -->
<g id="node9" class="node"><title>Node9</title>
<g id="a_node9"><a xlink:href="class_kuszk_a_p_i_1_1_containers_1_1_vector.html" target="_top" xlink:title="KuszkAPI::Containers\l::Vector\&lt; tnData \&gt;">
<polygon fill="white" stroke="black" points="322.5,-126 322.5,-156 435.5,-156 435.5,-126 322.5,-126"/>
<text text-anchor="start" x="330.5" y="-144" font-family="Helvetica,sans-Serif" font-size="10.00">KuszkAPI::Containers</text>
<text text-anchor="middle" x="379" y="-133" font-family="Helvetica,sans-Serif" font-size="10.00">::Vector&lt; tnData &gt;</text>
</a>
</g>
</g>
<!-- Node5&#45;&gt;Node9 -->
<g id="edge10" class="edge"><title>Node5&#45;&gt;Node9</title>
<path fill="none" stroke="midnightblue" d="M245.747,-171.057C270.583,-165.413 298.577,-159.051 322.394,-153.638"/>
<polygon fill="midnightblue" stroke="midnightblue" points="244.657,-167.716 235.681,-173.345 246.208,-174.542 244.657,-167.716"/>
</g>
<!-- Node12 -->
<g id="node12" class="node"><title>Node12</title>
<g id="a_node12"><a xlink:href="class_kuszk_a_p_i_1_1_containers_1_1_vector.html" target="_top" xlink:title="KuszkAPI::Containers\l::Vector\&lt; tnData * \&gt;">
<polygon fill="white" stroke="black" points="543.5,-126 543.5,-156 656.5,-156 656.5,-126 543.5,-126"/>
<text text-anchor="start" x="551.5" y="-144" font-family="Helvetica,sans-Serif" font-size="10.00">KuszkAPI::Containers</text>
<text text-anchor="middle" x="600" y="-133" font-family="Helvetica,sans-Serif" font-size="10.00">::Vector&lt; tnData * &gt;</text>
</a>
</g>
</g>
<!-- Node5&#45;&gt;Node12 -->
<g id="edge17" class="edge"><title>Node5&#45;&gt;Node12</title>
<path fill="none" stroke="midnightblue" d="M246.013,-182.706C315.479,-178.665 427.865,-170.496 524,-156 530.303,-155.05 536.878,-153.928 543.403,-152.734"/>
<polygon fill="midnightblue" stroke="midnightblue" points="245.447,-179.232 235.662,-183.296 245.845,-186.221 245.447,-179.232"/>
</g>
<!-- Node6 -->
<g id="node6" class="node"><title>Node6</title>
<g id="a_node6"><a xlink:href="namespace_3global_scope_4.html#classunsigned" target="_top" xlink:title="unsigned">
<polygon fill="white" stroke="black" points="0,-148.5 0,-167.5 56,-167.5 56,-148.5 0,-148.5"/>
<text text-anchor="middle" x="28" y="-155.5" font-family="Helvetica,sans-Serif" font-size="10.00">unsigned</text>
</a>
</g>
</g>
<!-- Node6&#45;&gt;Node3 -->
<g id="edge13" class="edge"><title>Node6&#45;&gt;Node3</title>
<path fill="none" stroke="#9a32cd" stroke-dasharray="5,2" d="M44.5206,-175.217C52.5916,-183.216 63.0466,-192.216 74,-198 137.844,-231.711 163.805,-210.598 236,-210 509.62,-207.735 836.832,-201.028 965.325,-198.239"/>
<polygon fill="#9a32cd" stroke="#9a32cd" points="46.7633,-172.499 37.314,-167.707 41.7126,-177.346 46.7633,-172.499"/>
<text text-anchor="middle" x="489" y="-211" font-family="Helvetica,sans-Serif" font-size="10.00"> uIlosc</text>
</g>
<!-- Node6&#45;&gt;Node4 -->
<g id="edge8" class="edge"><title>Node6&#45;&gt;Node4</title>
<path fill="none" stroke="#9a32cd" stroke-dasharray="5,2" d="M33.5811,-177.542C39.4978,-198.673 51.7793,-232.008 74,-252 160.946,-330.225 206.74,-320.157 322,-340 410.477,-355.232 437.616,-363.456 524,-339 544.893,-333.085 565.847,-319.737 580.274,-309.106"/>
<polygon fill="#9a32cd" stroke="#9a32cd" points="36.9387,-176.545 31.0483,-167.739 30.1613,-178.297 36.9387,-176.545"/>
<text text-anchor="middle" x="279" y="-341" font-family="Helvetica,sans-Serif" font-size="10.00"> uDataSize</text>
</g>
<!-- Node6&#45;&gt;Node5 -->
<g id="edge5" class="edge"><title>Node6&#45;&gt;Node5</title>
<path fill="none" stroke="#9a32cd" stroke-dasharray="5,2" d="M66.3963,-165.028C83.354,-168.214 103.756,-172.048 122.452,-175.561"/>
<polygon fill="#9a32cd" stroke="#9a32cd" points="66.8033,-161.543 56.3289,-163.136 65.5104,-168.422 66.8033,-161.543"/>
<text text-anchor="middle" x="89" y="-186" font-family="Helvetica,sans-Serif" font-size="10.00"> uIlosc</text>
<text text-anchor="middle" x="89" y="-175" font-family="Helvetica,sans-Serif" font-size="10.00">uMode</text>
</g>
<!-- Node6&#45;&gt;Node9 -->
<g id="edge12" class="edge"><title>Node6&#45;&gt;Node9</title>
<path fill="none" stroke="#9a32cd" stroke-dasharray="5,2" d="M66.3225,-154.355C83.2967,-152.809 103.648,-151.111 122,-150 190.916,-145.827 270.395,-143.406 322.28,-142.146"/>
<polygon fill="#9a32cd" stroke="#9a32cd" points="65.8718,-150.881 56.2382,-155.291 66.519,-157.851 65.8718,-150.881"/>
<text text-anchor="middle" x="179" y="-153" font-family="Helvetica,sans-Serif" font-size="10.00"> uDataSize</text>
</g>
<!-- Node11 -->
<g id="node11" class="node"><title>Node11</title>
<g id="a_node11"><a xlink:href="class_kuszk_a_p_i_1_1_containers_1_1_box.html" target="_top" xlink:title="Implementacja szablonu pudełka dla modułu kontenerów. ">
<polygon fill="white" stroke="black" points="738.5,-144 738.5,-174 851.5,-174 851.5,-144 738.5,-144"/>
<text text-anchor="start" x="746.5" y="-162" font-family="Helvetica,sans-Serif" font-size="10.00">KuszkAPI::Containers</text>
<text text-anchor="middle" x="795" y="-151" font-family="Helvetica,sans-Serif" font-size="10.00">::Box&lt; tnData &gt;</text>
</a>
</g>
</g>
<!-- Node6&#45;&gt;Node11 -->
<g id="edge15" class="edge"><title>Node6&#45;&gt;Node11</title>
<path fill="none" stroke="#9a32cd" stroke-dasharray="5,2" d="M36.4328,-138.656C54.0439,-96.4808 102.574,-0 178,-0 178,-0 178,-0 601,-0 686.172,-0 667.565,-86.1119 738,-134 743.371,-137.652 749.362,-140.983 755.372,-143.938"/>
<polygon fill="#9a32cd" stroke="#9a32cd" points="33.1119,-137.533 32.624,-148.116 39.6054,-140.147 33.1119,-137.533"/>
<text text-anchor="middle" x="379" y="-3" font-family="Helvetica,sans-Serif" font-size="10.00"> uIlosc</text>
</g>
<!-- Node6&#45;&gt;Node12 -->
<g id="edge19" class="edge"><title>Node6&#45;&gt;Node12</title>
<path fill="none" stroke="#9a32cd" stroke-dasharray="5,2" d="M40.6966,-139.727C56.1791,-117.435 85.7912,-80.8837 122,-66 287.651,2.09097 354.614,-35.8188 524,-94 544.782,-101.138 565.749,-114.967 580.209,-125.784"/>
<polygon fill="#9a32cd" stroke="#9a32cd" points="37.6089,-138.048 34.9483,-148.303 43.4235,-141.945 37.6089,-138.048"/>
<text text-anchor="middle" x="279" y="-34" font-family="Helvetica,sans-Serif" font-size="10.00"> uDataSize</text>
</g>
<!-- Node7 -->
<g id="node7" class="node"><title>Node7</title>
<g id="a_node7"><a xlink:href="namespace_3global_scope_4.html#class_h_b_r_u_s_h_01_5_5" target="_top" xlink:title="HBRUSH **">
<polygon fill="white" stroke="black" points="345,-289.5 345,-308.5 413,-308.5 413,-289.5 345,-289.5"/>
<text text-anchor="middle" x="379" y="-296.5" font-family="Helvetica,sans-Serif" font-size="10.00">HBRUSH **</text>
</a>
</g>
</g>
<!-- Node7&#45;&gt;Node4 -->
<g id="edge6" class="edge"><title>Node7&#45;&gt;Node4</title>
<path fill="none" stroke="#9a32cd" stroke-dasharray="5,2" d="M423.342,-298.01C457.318,-297.235 504.886,-296.149 541.954,-295.302"/>
<polygon fill="#9a32cd" stroke="#9a32cd" points="423.179,-294.513 413.261,-298.241 423.339,-301.511 423.179,-294.513"/>
<text text-anchor="middle" x="489" y="-301" font-family="Helvetica,sans-Serif" font-size="10.00"> ptBegin</text>
</g>
<!-- Node8 -->
<g id="node8" class="node"><title>Node8</title>
<g id="a_node8"><a xlink:href="namespace_3global_scope_4.html#class_h_b_r_u_s_h_01_5" target="_top" xlink:title="HBRUSH *">
<polygon fill="white" stroke="black" points="347,-251.5 347,-270.5 411,-270.5 411,-251.5 347,-251.5"/>
<text text-anchor="middle" x="379" y="-258.5" font-family="Helvetica,sans-Serif" font-size="10.00">HBRUSH *</text>
</a>
</g>
</g>
<!-- Node8&#45;&gt;Node4 -->
<g id="edge7" class="edge"><title>Node8&#45;&gt;Node4</title>
<path fill="none" stroke="#9a32cd" stroke-dasharray="5,2" d="M421.337,-266.366C450.15,-270.198 489.463,-275.61 524,-281 529.745,-281.897 535.731,-282.869 541.705,-283.865"/>
<polygon fill="#9a32cd" stroke="#9a32cd" points="421.597,-262.87 411.224,-265.029 420.679,-269.81 421.597,-262.87"/>
<text text-anchor="middle" x="489" y="-284" font-family="Helvetica,sans-Serif" font-size="10.00"> tAbstract</text>
</g>
<!-- Node9&#45;&gt;Node4 -->
<g id="edge9" class="edge"><title>Node9&#45;&gt;Node4</title>
<path fill="none" stroke="orange" stroke-dasharray="5,2" d="M397.492,-163.995C411.434,-181.227 432.179,-204.57 454,-221 459.01,-224.772 527.154,-258.591 568.215,-278.849"/>
<polygon fill="orange" stroke="orange" points="400.175,-161.745 391.219,-156.083 394.689,-166.093 400.175,-161.745"/>
<text text-anchor="middle" x="489" y="-259" font-family="Helvetica,sans-Serif" font-size="10.00"> &lt; HBRUSH * &gt;</text>
</g>
<!-- Node9&#45;&gt;Node12 -->
<g id="edge20" class="edge"><title>Node9&#45;&gt;Node12</title>
<path fill="none" stroke="orange" stroke-dasharray="5,2" d="M445.835,-141C476.862,-141 513.481,-141 543.133,-141"/>
<polygon fill="orange" stroke="orange" points="445.546,-137.5 435.546,-141 445.546,-144.5 445.546,-137.5"/>
<text text-anchor="middle" x="489" y="-144" font-family="Helvetica,sans-Serif" font-size="10.00"> &lt; tnData * &gt;</text>
</g>
<!-- Node10 -->
<g id="node10" class="node"><title>Node10</title>
<polygon fill="white" stroke="#bfbfbf" points="156.5,-75.5 156.5,-94.5 201.5,-94.5 201.5,-75.5 156.5,-75.5"/>
<text text-anchor="middle" x="179" y="-82.5" font-family="Helvetica,sans-Serif" font-size="10.00">tnData</text>
</g>
<!-- Node10&#45;&gt;Node9 -->
<g id="edge11" class="edge"><title>Node10&#45;&gt;Node9</title>
<path fill="none" stroke="#9a32cd" stroke-dasharray="5,2" d="M211.756,-86.3112C237.215,-88.0803 273.587,-92.2364 304,-102 306.506,-102.805 329.914,-115.21 349.741,-125.816"/>
<polygon fill="#9a32cd" stroke="#9a32cd" points="211.757,-82.8048 201.562,-85.6897 211.331,-89.7918 211.757,-82.8048"/>
<text text-anchor="middle" x="279" y="-116" font-family="Helvetica,sans-Serif" font-size="10.00"> tAbstract</text>
<text text-anchor="middle" x="279" y="-105" font-family="Helvetica,sans-Serif" font-size="10.00">ptBegin</text>
</g>
<!-- Node10&#45;&gt;Node12 -->
<g id="edge18" class="edge"><title>Node10&#45;&gt;Node12</title>
<path fill="none" stroke="#9a32cd" stroke-dasharray="5,2" d="M211.54,-85.5784C236.605,-86.0826 272.552,-86.905 304,-88 362.692,-90.0437 378.052,-84.4654 436,-94 477.993,-100.909 524.513,-114.993 557.07,-125.951"/>
<polygon fill="#9a32cd" stroke="#9a32cd" points="211.576,-82.0785 201.509,-85.3819 211.439,-89.0772 211.576,-82.0785"/>
<text text-anchor="middle" x="379" y="-108" font-family="Helvetica,sans-Serif" font-size="10.00"> tAbstract</text>
<text text-anchor="middle" x="379" y="-97" font-family="Helvetica,sans-Serif" font-size="10.00">ptBegin</text>
</g>
<!-- Node11&#45;&gt;Node3 -->
<g id="edge14" class="edge"><title>Node11&#45;&gt;Node3</title>
<path fill="none" stroke="orange" stroke-dasharray="5,2" d="M861.595,-170.078C894.467,-175.63 933.848,-182.281 965.242,-187.583"/>
<polygon fill="orange" stroke="orange" points="862.061,-166.608 851.618,-168.393 860.895,-173.51 862.061,-166.608"/>
<text text-anchor="middle" x="901" y="-185" font-family="Helvetica,sans-Serif" font-size="10.00"> &lt; HBRUSH &gt;</text>
</g>
<!-- Node12&#45;&gt;Node11 -->
<g id="edge16" class="edge"><title>Node12&#45;&gt;Node11</title>
<path fill="none" stroke="#9a32cd" stroke-dasharray="5,2" d="M666.73,-147.13C690.07,-149.307 716.092,-151.734 738.493,-153.823"/>
<polygon fill="#9a32cd" stroke="#9a32cd" points="666.847,-143.626 656.565,-146.182 666.196,-150.596 666.847,-143.626"/>
<text text-anchor="middle" x="698" y="-155" font-family="Helvetica,sans-Serif" font-size="10.00"> vPointers</text>
</g>
<!-- Node13 -->
<g id="node13" class="node"><title>Node13</title>
<g id="a_node13"><a xlink:href="class_kuszk_a_p_i_1_1_forms_1_1_gdi_object.html" target="_top" xlink:title="KuszkAPI::Forms::GdiObject\l\&lt; tnData \&gt;">
<polygon fill="white" stroke="black" points="950.5,-122 950.5,-152 1093.5,-152 1093.5,-122 950.5,-122"/>
<text text-anchor="start" x="958.5" y="-140" font-family="Helvetica,sans-Serif" font-size="10.00">KuszkAPI::Forms::GdiObject</text>
<text text-anchor="middle" x="1022" y="-129" font-family="Helvetica,sans-Serif" font-size="10.00">&lt; tnData &gt;</text>
</a>
</g>
</g>
<!-- Node13&#45;&gt;Node2 -->
<g id="edge21" class="edge"><title>Node13&#45;&gt;Node2</title>
<path fill="none" stroke="orange" stroke-dasharray="5,2" d="M1103.72,-148.099C1132.45,-152.05 1164.56,-156.465 1192.38,-160.29"/>
<polygon fill="orange" stroke="orange" points="1104.09,-144.617 1093.71,-146.723 1103.14,-151.552 1104.09,-144.617"/>
<text text-anchor="middle" x="1143" y="-161" font-family="Helvetica,sans-Serif" font-size="10.00"> &lt; HBRUSH &gt;</text>
</g>
<!-- Node14 -->
<g id="node14" class="node"><title>Node14</title>
<polygon fill="white" stroke="#bfbfbf" points="755,-105.5 755,-124.5 835,-124.5 835,-105.5 755,-105.5"/>
<text text-anchor="middle" x="795" y="-112.5" font-family="Helvetica,sans-Serif" font-size="10.00">Box&lt; tnData &gt;</text>
</g>
<!-- Node14&#45;&gt;Node13 -->
<g id="edge22" class="edge"><title>Node14&#45;&gt;Node13</title>
<path fill="none" stroke="#9a32cd" stroke-dasharray="5,2" d="M845.56,-119.672C871.341,-122.118 903.37,-125.184 932,-128 937.873,-128.578 943.964,-129.182 950.078,-129.793"/>
<polygon fill="#9a32cd" stroke="#9a32cd" points="845.57,-116.157 835.285,-118.698 844.91,-123.126 845.57,-116.157"/>
<text text-anchor="middle" x="901" y="-131" font-family="Helvetica,sans-Serif" font-size="10.00"> bObject</text>
</g>
</g>
</svg>
