<?xml version="1.0" encoding="UTF-8" standalone="no"?>
<!DOCTYPE svg PUBLIC "-//W3C//DTD SVG 1.1//EN"
 "http://www.w3.org/Graphics/SVG/1.1/DTD/svg11.dtd">
<!-- Generated by graphviz version 2.36.0 (20140111.2315)
 -->
<!-- Title: KuszkAPI::Containers::Strings Pages: 1 -->
<svg width="938pt" height="282pt"
 viewBox="0.00 0.00 938.00 282.00" xmlns="http://www.w3.org/2000/svg" xmlns:xlink="http://www.w3.org/1999/xlink">
<g id="graph0" class="graph" transform="scale(1 1) rotate(0) translate(4 278)">
<title>KuszkAPI::Containers::Strings</title>
<polygon fill="white" stroke="none" points="-4,4 -4,-278 934,-278 934,4 -4,4"/>
<!-- Node1 -->
<g id="node1" class="node"><title>Node1</title>
<polygon fill="#bfbfbf" stroke="black" points="816.5,-211 816.5,-241 929.5,-241 929.5,-211 816.5,-211"/>
<text text-anchor="start" x="824.5" y="-229" font-family="Helvetica,sans-Serif" font-size="10.00">KuszkAPI::Containers</text>
<text text-anchor="middle" x="873" y="-218" font-family="Helvetica,sans-Serif" font-size="10.00">::Strings</text>
</g>
<!-- Node2 -->
<g id="node2" class="node"><title>Node2</title>
<g id="a_node2"><a xlink:href="class_kuszk_a_p_i_1_1_containers_1_1_list.html" target="_top" xlink:title="KuszkAPI::Containers\l::List\&lt; KuszkAPI::Containers\l::String \&gt;">
<polygon fill="white" stroke="black" points="610.5,-120.5 610.5,-161.5 753.5,-161.5 753.5,-120.5 610.5,-120.5"/>
<text text-anchor="start" x="618.5" y="-149.5" font-family="Helvetica,sans-Serif" font-size="10.00">KuszkAPI::Containers</text>
<text text-anchor="start" x="618.5" y="-138.5" font-family="Helvetica,sans-Serif" font-size="10.00">::List&lt; KuszkAPI::Containers</text>
<text text-anchor="middle" x="682" y="-127.5" font-family="Helvetica,sans-Serif" font-size="10.00">::String &gt;</text>
</a>
</g>
</g>
<!-- Node2&#45;&gt;Node1 -->
<g id="edge1" class="edge"><title>Node2&#45;&gt;Node1</title>
<path fill="none" stroke="#9a32cd" stroke-dasharray="5,2" d="M738.139,-165.798C770.651,-180.42 810.731,-198.445 838.517,-210.941"/>
<polygon fill="#9a32cd" stroke="#9a32cd" points="739.307,-162.486 728.752,-161.576 736.436,-168.87 739.307,-162.486"/>
<text text-anchor="middle" x="785" y="-195" font-family="Helvetica,sans-Serif" font-size="10.00"> lData</text>
</g>
<!-- Node3 -->
<g id="node3" class="node"><title>Node3</title>
<g id="a_node3"><a xlink:href="class_kuszk_a_p_i_1_1_containers_1_1_container.html" target="_top" xlink:title="Implementacja bazy dla modułu kontenerów. ">
<polygon fill="white" stroke="black" points="148.5,-176 148.5,-206 261.5,-206 261.5,-176 148.5,-176"/>
<text text-anchor="start" x="156.5" y="-194" font-family="Helvetica,sans-Serif" font-size="10.00">KuszkAPI::Containers</text>
<text text-anchor="middle" x="205" y="-183" font-family="Helvetica,sans-Serif" font-size="10.00">::Container</text>
</a>
</g>
</g>
<!-- Node3&#45;&gt;Node2 -->
<g id="edge2" class="edge"><title>Node3&#45;&gt;Node2</title>
<path fill="none" stroke="midnightblue" d="M271.729,-185.697C348.634,-179.261 479.745,-167.57 592,-154 597.891,-153.288 603.994,-152.501 610.116,-151.676"/>
<polygon fill="midnightblue" stroke="midnightblue" points="271.38,-182.213 261.705,-186.531 271.961,-189.189 271.38,-182.213"/>
</g>
<!-- Node11 -->
<g id="node11" class="node"><title>Node11</title>
<g id="a_node11"><a xlink:href="class_kuszk_a_p_i_1_1_containers_1_1_list.html" target="_top" xlink:title="Implementacja szablonu listy dla modułu kontenerów. ">
<polygon fill="white" stroke="black" points="350.5,-74 350.5,-104 463.5,-104 463.5,-74 350.5,-74"/>
<text text-anchor="start" x="358.5" y="-92" font-family="Helvetica,sans-Serif" font-size="10.00">KuszkAPI::Containers</text>
<text text-anchor="middle" x="407" y="-81" font-family="Helvetica,sans-Serif" font-size="10.00">::List&lt; tnData &gt;</text>
</a>
</g>
</g>
<!-- Node3&#45;&gt;Node11 -->
<g id="edge13" class="edge"><title>Node3&#45;&gt;Node11</title>
<path fill="none" stroke="midnightblue" d="M248.145,-171.6C255.462,-168.131 262.974,-164.504 270,-161 290.501,-150.776 344.57,-121.937 378.03,-104.013"/>
<polygon fill="midnightblue" stroke="midnightblue" points="246.592,-168.463 239.035,-175.888 249.573,-174.796 246.592,-168.463"/>
</g>
<!-- Node4 -->
<g id="node4" class="node"><title>Node4</title>
<g id="a_node4"><a xlink:href="namespace_3global_scope_4.html#classunsigned" target="_top" xlink:title="unsigned">
<polygon fill="white" stroke="black" points="1,-216.5 1,-235.5 57,-235.5 57,-216.5 1,-216.5"/>
<text text-anchor="middle" x="29" y="-223.5" font-family="Helvetica,sans-Serif" font-size="10.00">unsigned</text>
</a>
</g>
</g>
<!-- Node4&#45;&gt;Node1 -->
<g id="edge16" class="edge"><title>Node4&#45;&gt;Node1</title>
<path fill="none" stroke="#9a32cd" stroke-dasharray="5,2" d="M62.6163,-238.957C67.0704,-240.46 71.6175,-241.86 76,-243 131.725,-257.496 146.421,-263 204,-263 204,-263 204,-263 683,-263 731.147,-263 784.929,-251.293 822.773,-241.049"/>
<polygon fill="#9a32cd" stroke="#9a32cd" points="63.7087,-235.631 53.114,-235.563 61.3544,-242.223 63.7087,-235.631"/>
<text text-anchor="middle" x="407" y="-266" font-family="Helvetica,sans-Serif" font-size="10.00"> uIlosc</text>
</g>
<!-- Node4&#45;&gt;Node3 -->
<g id="edge3" class="edge"><title>Node4&#45;&gt;Node3</title>
<path fill="none" stroke="#9a32cd" stroke-dasharray="5,2" d="M67.1381,-218.53C90.7315,-213.784 121.711,-207.552 148.227,-202.219"/>
<polygon fill="#9a32cd" stroke="#9a32cd" points="66.3009,-215.128 57.1875,-220.531 67.6814,-221.99 66.3009,-215.128"/>
<text text-anchor="middle" x="99" y="-231" font-family="Helvetica,sans-Serif" font-size="10.00"> uIlosc</text>
<text text-anchor="middle" x="99" y="-220" font-family="Helvetica,sans-Serif" font-size="10.00">uMode</text>
</g>
<!-- Node5 -->
<g id="node5" class="node"><title>Node5</title>
<g id="a_node5"><a xlink:href="class_kuszk_a_p_i_1_1_containers_1_1_string.html" target="_top" xlink:title="KuszkAPI::Containers\l::String">
<polygon fill="white" stroke="black" points="148.5,-122 148.5,-152 261.5,-152 261.5,-122 148.5,-122"/>
<text text-anchor="start" x="156.5" y="-140" font-family="Helvetica,sans-Serif" font-size="10.00">KuszkAPI::Containers</text>
<text text-anchor="middle" x="205" y="-129" font-family="Helvetica,sans-Serif" font-size="10.00">::String</text>
</a>
</g>
</g>
<!-- Node4&#45;&gt;Node5 -->
<g id="edge7" class="edge"><title>Node4&#45;&gt;Node5</title>
<path fill="none" stroke="#9a32cd" stroke-dasharray="5,2" d="M41.2936,-207.786C49.5342,-195.942 61.7289,-181.068 76,-172 97.6805,-158.223 124.757,-149.808 148.416,-144.697"/>
<polygon fill="#9a32cd" stroke="#9a32cd" points="38.1528,-206.191 35.5684,-216.466 43.9962,-210.045 38.1528,-206.191"/>
<text text-anchor="middle" x="99" y="-197" font-family="Helvetica,sans-Serif" font-size="10.00"> uFormat</text>
<text text-anchor="middle" x="99" y="-186" font-family="Helvetica,sans-Serif" font-size="10.00">uDataSize</text>
<text text-anchor="middle" x="99" y="-175" font-family="Helvetica,sans-Serif" font-size="10.00">uIlosc</text>
</g>
<!-- Node5&#45;&gt;Node2 -->
<g id="edge4" class="edge"><title>Node5&#45;&gt;Node2</title>
<path fill="none" stroke="#9a32cd" stroke-dasharray="5,2" d="M272.131,-137.557C361.176,-138.307 518.965,-139.635 610.296,-140.405"/>
<polygon fill="#9a32cd" stroke="#9a32cd" points="271.914,-134.055 261.885,-137.471 271.855,-141.055 271.914,-134.055"/>
<text text-anchor="middle" x="407" y="-143" font-family="Helvetica,sans-Serif" font-size="10.00"> tAbstract</text>
</g>
<!-- Node6 -->
<g id="node6" class="node"><title>Node6</title>
<polygon fill="white" stroke="#bfbfbf" points="4.5,-126.5 4.5,-145.5 53.5,-145.5 53.5,-126.5 4.5,-126.5"/>
<text text-anchor="middle" x="29" y="-133.5" font-family="Helvetica,sans-Serif" font-size="10.00">TCHAR</text>
</g>
<!-- Node6&#45;&gt;Node5 -->
<g id="edge5" class="edge"><title>Node6&#45;&gt;Node5</title>
<path fill="none" stroke="#9a32cd" stroke-dasharray="5,2" d="M63.8486,-136.195C87.8075,-136.332 120.486,-136.52 148.261,-136.68"/>
<polygon fill="#9a32cd" stroke="#9a32cd" points="63.8491,-132.695 53.8291,-136.137 63.8088,-139.694 63.8491,-132.695"/>
<text text-anchor="middle" x="99" y="-140" font-family="Helvetica,sans-Serif" font-size="10.00"> cAbstract</text>
</g>
<!-- Node7 -->
<g id="node7" class="node"><title>Node7</title>
<polygon fill="white" stroke="#bfbfbf" points="1,-81.5 1,-100.5 57,-100.5 57,-81.5 1,-81.5"/>
<text text-anchor="middle" x="29" y="-88.5" font-family="Helvetica,sans-Serif" font-size="10.00">TCHAR *</text>
</g>
<!-- Node7&#45;&gt;Node5 -->
<g id="edge6" class="edge"><title>Node7&#45;&gt;Node5</title>
<path fill="none" stroke="#9a32cd" stroke-dasharray="5,2" d="M67.141,-98.2538C83.976,-101.752 104.082,-106.223 122,-111 134.122,-114.232 147.117,-118.142 159.108,-121.938"/>
<polygon fill="#9a32cd" stroke="#9a32cd" points="67.6287,-94.7811 57.1303,-96.2075 66.2268,-101.639 67.6287,-94.7811"/>
<text text-anchor="middle" x="99" y="-125" font-family="Helvetica,sans-Serif" font-size="10.00"> pcBufor</text>
<text text-anchor="middle" x="99" y="-114" font-family="Helvetica,sans-Serif" font-size="10.00">pcData</text>
</g>
<!-- Node8 -->
<g id="node8" class="node"><title>Node8</title>
<polygon fill="white" stroke="#bfbfbf" points="0.5,-43.5 0.5,-62.5 57.5,-62.5 57.5,-43.5 0.5,-43.5"/>
<text text-anchor="middle" x="29" y="-50.5" font-family="Helvetica,sans-Serif" font-size="10.00">DCHAR *</text>
</g>
<!-- Node8&#45;&gt;Node5 -->
<g id="edge8" class="edge"><title>Node8&#45;&gt;Node5</title>
<path fill="none" stroke="#9a32cd" stroke-dasharray="5,2" d="M67.595,-60.816C85.3781,-65.8595 106.137,-73.8193 122,-86 133.147,-94.5595 128.973,-103.285 140,-112 144.773,-115.772 150.184,-119.034 155.79,-121.838"/>
<polygon fill="#9a32cd" stroke="#9a32cd" points="68.0888,-57.3271 57.5278,-58.1736 66.3116,-64.0978 68.0888,-57.3271"/>
<text text-anchor="middle" x="99" y="-89" font-family="Helvetica,sans-Serif" font-size="10.00"> pcConvert</text>
</g>
<!-- Node9 -->
<g id="node9" class="node"><title>Node9</title>
<g id="a_node9"><a xlink:href="class_kuszk_a_p_i_1_1_containers_1_1_list.html#struct_kuszk_a_p_i_1_1_containers_1_1_list_1_1_item_data" target="_top" xlink:title="Struktura przechowująca wskaźnik na element listy oraz wskaźnik na kolejny obiekt. ">
<polygon fill="white" stroke="black" points="140,-0 140,-30 270,-30 270,-0 140,-0"/>
<text text-anchor="start" x="148" y="-18" font-family="Helvetica,sans-Serif" font-size="10.00">KuszkAPI::Containers</text>
<text text-anchor="middle" x="205" y="-7" font-family="Helvetica,sans-Serif" font-size="10.00">::List&lt; tnData &gt;::ItemData</text>
</a>
</g>
</g>
<!-- Node9&#45;&gt;Node2 -->
<g id="edge9" class="edge"><title>Node9&#45;&gt;Node2</title>
<path fill="none" stroke="#9a32cd" stroke-dasharray="5,2" d="M280.158,-18.1598C332.127,-21.489 402.931,-28.2689 464,-42 522.833,-55.2285 537.486,-61.2215 592,-87 612.26,-96.5803 633.774,-109.549 650.574,-120.376"/>
<polygon fill="#9a32cd" stroke="#9a32cd" points="280.219,-14.6571 270.023,-17.539 279.791,-21.644 280.219,-14.6571"/>
<text text-anchor="middle" x="407" y="-56" font-family="Helvetica,sans-Serif" font-size="10.00"> ptLast</text>
<text text-anchor="middle" x="407" y="-45" font-family="Helvetica,sans-Serif" font-size="10.00">ptBegin</text>
</g>
<!-- Node9&#45;&gt;Node9 -->
<g id="edge10" class="edge"><title>Node9&#45;&gt;Node9</title>
<path fill="none" stroke="#9a32cd" stroke-dasharray="5,2" d="M186.796,-40.5975C189.284,-44.9704 195.352,-48 205,-48 221.25,-48 227.344,-39.4063 223.281,-30.2754"/>
<polygon fill="#9a32cd" stroke="#9a32cd" points="190.294,-40.2488 186.719,-30.2754 183.294,-40.3014 190.294,-40.2488"/>
<text text-anchor="middle" x="205" y="-51" font-family="Helvetica,sans-Serif" font-size="10.00"> ptNext</text>
</g>
<!-- Node9&#45;&gt;Node11 -->
<g id="edge15" class="edge"><title>Node9&#45;&gt;Node11</title>
<path fill="none" stroke="#9a32cd" stroke-dasharray="5,2" d="M256.624,-33.7308C290.33,-46.2021 334.028,-62.3703 365.441,-73.9933"/>
<polygon fill="#9a32cd" stroke="#9a32cd" points="257.549,-30.3412 246.956,-30.1536 255.12,-36.9062 257.549,-30.3412"/>
<text text-anchor="middle" x="310" y="-75" font-family="Helvetica,sans-Serif" font-size="10.00"> ptLast</text>
<text text-anchor="middle" x="310" y="-64" font-family="Helvetica,sans-Serif" font-size="10.00">ptBegin</text>
</g>
<!-- Node10 -->
<g id="node10" class="node"><title>Node10</title>
<polygon fill="white" stroke="#bfbfbf" points="3,-5.5 3,-24.5 55,-24.5 55,-5.5 3,-5.5"/>
<text text-anchor="middle" x="29" y="-12.5" font-family="Helvetica,sans-Serif" font-size="10.00">tnData *</text>
</g>
<!-- Node10&#45;&gt;Node9 -->
<g id="edge11" class="edge"><title>Node10&#45;&gt;Node9</title>
<path fill="none" stroke="#9a32cd" stroke-dasharray="5,2" d="M65.5495,-15C86.9527,-15 114.84,-15 139.972,-15"/>
<polygon fill="#9a32cd" stroke="#9a32cd" points="65.3011,-11.5001 55.3011,-15 65.3011,-18.5001 65.3011,-11.5001"/>
<text text-anchor="middle" x="99" y="-18" font-family="Helvetica,sans-Serif" font-size="10.00"> ptData</text>
</g>
<!-- Node11&#45;&gt;Node2 -->
<g id="edge12" class="edge"><title>Node11&#45;&gt;Node2</title>
<path fill="none" stroke="orange" stroke-dasharray="5,2" d="M474.053,-90.0015C509.441,-91.7207 553.548,-95.7709 592,-105 607.235,-108.657 623.281,-114.482 637.489,-120.39"/>
<polygon fill="orange" stroke="orange" points="473.984,-86.4953 463.842,-89.5577 473.68,-93.4887 473.984,-86.4953"/>
<text text-anchor="start" x="482.5" y="-119" font-family="Helvetica,sans-Serif" font-size="10.00"> &lt; KuszkAPI::Containers</text>
<text text-anchor="middle" x="537" y="-108" font-family="Helvetica,sans-Serif" font-size="10.00">::String &gt;</text>
</g>
<!-- Node12 -->
<g id="node12" class="node"><title>Node12</title>
<polygon fill="white" stroke="#bfbfbf" points="182.5,-83.5 182.5,-102.5 227.5,-102.5 227.5,-83.5 182.5,-83.5"/>
<text text-anchor="middle" x="205" y="-90.5" font-family="Helvetica,sans-Serif" font-size="10.00">tnData</text>
</g>
<!-- Node12&#45;&gt;Node11 -->
<g id="edge14" class="edge"><title>Node12&#45;&gt;Node11</title>
<path fill="none" stroke="#9a32cd" stroke-dasharray="5,2" d="M238.151,-92.357C268.334,-91.7533 314.123,-90.8375 350.256,-90.1149"/>
<polygon fill="#9a32cd" stroke="#9a32cd" points="237.712,-88.865 227.784,-92.5643 237.852,-95.8636 237.712,-88.865"/>
<text text-anchor="middle" x="310" y="-95" font-family="Helvetica,sans-Serif" font-size="10.00"> tAbstract</text>
</g>
</g>
</svg>
