<?xml version="1.0" encoding="UTF-8" standalone="no"?>
<!DOCTYPE svg PUBLIC "-//W3C//DTD SVG 1.1//EN"
 "http://www.w3.org/Graphics/SVG/1.1/DTD/svg11.dtd">
<!-- Generated by graphviz version 2.36.0 (20140111.2315)
 -->
<!-- Title: KuszkAPI::Containers::Strings::Sort Pages: 1 -->
<svg width="306pt" height="185pt"
 viewBox="0.00 0.00 306.00 185.00" xmlns="http://www.w3.org/2000/svg" xmlns:xlink="http://www.w3.org/1999/xlink">
<g id="graph0" class="graph" transform="scale(1 1) rotate(0) translate(4 181)">
<title>KuszkAPI::Containers::Strings::Sort</title>
<polygon fill="white" stroke="none" points="-4,4 -4,-181 302,-181 302,4 -4,4"/>
<!-- Node1 -->
<g id="node1" class="node"><title>Node1</title>
<polygon fill="#bfbfbf" stroke="black" points="0.5,-73 0.5,-103 113.5,-103 113.5,-73 0.5,-73"/>
<text text-anchor="start" x="8.5" y="-91" font-family="Helvetica,sans-Serif" font-size="10.00">KuszkAPI::Containers</text>
<text text-anchor="middle" x="57" y="-80" font-family="Helvetica,sans-Serif" font-size="10.00">::Strings::Sort</text>
</g>
<!-- Node2 -->
<g id="node2" class="node"><title>Node2</title>
<g id="a_node2"><a xlink:href="class_kuszk_a_p_i_1_1_containers_1_1_strings.html#a08e5d6f13fd14c9e880a3b52fb1f7dbf" target="_top" xlink:title="KuszkAPI::Containers\l::Strings::Sort">
<polygon fill="white" stroke="black" points="167.5,-147 167.5,-177 280.5,-177 280.5,-147 167.5,-147"/>
<text text-anchor="start" x="175.5" y="-165" font-family="Helvetica,sans-Serif" font-size="10.00">KuszkAPI::Containers</text>
<text text-anchor="middle" x="224" y="-154" font-family="Helvetica,sans-Serif" font-size="10.00">::Strings::Sort</text>
</a>
</g>
</g>
<!-- Node1&#45;&gt;Node2 -->
<g id="edge1" class="edge"><title>Node1&#45;&gt;Node2</title>
<path fill="none" stroke="midnightblue" d="M92.6163,-108.124C109.593,-117.554 130.533,-128.546 150,-137 158.11,-140.522 166.89,-143.889 175.456,-146.948"/>
<polygon fill="midnightblue" stroke="midnightblue" points="94.0592,-104.92 83.6269,-103.071 90.6294,-111.022 94.0592,-104.92"/>
</g>
<!-- Node3 -->
<g id="node3" class="node"><title>Node3</title>
<g id="a_node3"><a xlink:href="class_kuszk_a_p_i_1_1_forms_1_1_list_box.html#aefaeea918b0c4895175e8872288de8bb" target="_top" xlink:title="KuszkAPI::Forms::ListBox\l::Sort">
<polygon fill="white" stroke="black" points="157.5,-98 157.5,-128 290.5,-128 290.5,-98 157.5,-98"/>
<text text-anchor="start" x="165.5" y="-116" font-family="Helvetica,sans-Serif" font-size="10.00">KuszkAPI::Forms::ListBox</text>
<text text-anchor="middle" x="224" y="-105" font-family="Helvetica,sans-Serif" font-size="10.00">::Sort</text>
</a>
</g>
</g>
<!-- Node1&#45;&gt;Node3 -->
<g id="edge2" class="edge"><title>Node1&#45;&gt;Node3</title>
<path fill="none" stroke="midnightblue" d="M123.82,-97.9727C134.815,-99.6386 146.223,-101.367 157.217,-103.033"/>
<polygon fill="midnightblue" stroke="midnightblue" points="124.273,-94.5015 113.861,-96.4639 123.224,-101.423 124.273,-94.5015"/>
</g>
<!-- Node4 -->
<g id="node4" class="node"><title>Node4</title>
<g id="a_node4"><a xlink:href="class_kuszk_a_p_i_1_1_forms_1_1_combo_box.html#acd08c06092a749a67c6c419580ace7e3" target="_top" xlink:title="KuszkAPI::Forms::ComboBox\l::Sort">
<polygon fill="white" stroke="black" points="150,-49 150,-79 298,-79 298,-49 150,-49"/>
<text text-anchor="start" x="158" y="-67" font-family="Helvetica,sans-Serif" font-size="10.00">KuszkAPI::Forms::ComboBox</text>
<text text-anchor="middle" x="224" y="-56" font-family="Helvetica,sans-Serif" font-size="10.00">::Sort</text>
</a>
</g>
</g>
<!-- Node1&#45;&gt;Node4 -->
<g id="edge3" class="edge"><title>Node1&#45;&gt;Node4</title>
<path fill="none" stroke="midnightblue" d="M123.806,-78.4282C132.396,-77.1788 141.238,-75.8927 149.938,-74.6272"/>
<polygon fill="midnightblue" stroke="midnightblue" points="123.254,-74.9717 113.861,-79.8747 124.261,-81.8988 123.254,-74.9717"/>
</g>
<!-- Node5 -->
<g id="node5" class="node"><title>Node5</title>
<g id="a_node5"><a xlink:href="class_kuszk_a_p_i_1_1_forms_1_1_table_box.html#a17a5957c6b5ec94902d7c969f35b149a" target="_top" xlink:title="KuszkAPI::Forms::TableBox\l::Sort">
<polygon fill="white" stroke="black" points="154,-0 154,-30 294,-30 294,-0 154,-0"/>
<text text-anchor="start" x="162" y="-18" font-family="Helvetica,sans-Serif" font-size="10.00">KuszkAPI::Forms::TableBox</text>
<text text-anchor="middle" x="224" y="-7" font-family="Helvetica,sans-Serif" font-size="10.00">::Sort</text>
</a>
</g>
</g>
<!-- Node1&#45;&gt;Node5 -->
<g id="edge4" class="edge"><title>Node1&#45;&gt;Node5</title>
<path fill="none" stroke="midnightblue" d="M93.3973,-67.9336C110.251,-58.7959 130.863,-48.2133 150,-40 158.125,-36.5129 166.912,-33.1621 175.481,-30.1092"/>
<polygon fill="midnightblue" stroke="midnightblue" points="91.5398,-64.9605 84.4541,-72.8372 94.9053,-71.0984 91.5398,-64.9605"/>
</g>
</g>
</svg>
