<?xml version="1.0" encoding="UTF-8" standalone="no"?>
<!DOCTYPE svg PUBLIC "-//W3C//DTD SVG 1.1//EN"
 "http://www.w3.org/Graphics/SVG/1.1/DTD/svg11.dtd">
<!-- Generated by graphviz version 2.36.0 (20140111.2315)
 -->
<!-- Title: KuszkAPI::Sockets::Client::Send Pages: 1 -->
<svg width="266pt" height="87pt"
 viewBox="0.00 0.00 266.00 87.00" xmlns="http://www.w3.org/2000/svg" xmlns:xlink="http://www.w3.org/1999/xlink">
<g id="graph0" class="graph" transform="scale(1 1) rotate(0) translate(4 83)">
<title>KuszkAPI::Sockets::Client::Send</title>
<polygon fill="white" stroke="none" points="-4,4 -4,-83 262,-83 262,4 -4,4"/>
<!-- Node1 -->
<g id="node1" class="node"><title>Node1</title>
<polygon fill="#bfbfbf" stroke="black" points="0,-24 0,-54 108,-54 108,-24 0,-24"/>
<text text-anchor="start" x="8" y="-42" font-family="Helvetica,sans-Serif" font-size="10.00">KuszkAPI::Sockets::</text>
<text text-anchor="middle" x="54" y="-31" font-family="Helvetica,sans-Serif" font-size="10.00">Client::Send</text>
</g>
<!-- Node2 -->
<g id="node2" class="node"><title>Node2</title>
<g id="a_node2"><a xlink:href="class_kuszk_a_p_i_1_1_containers_1_1_container.html#a378e21dde84b19b1a9a10fed9234aefa" target="_top" xlink:title="Zwraca ilość przechowywanych obiektów. ">
<polygon fill="white" stroke="black" points="144.5,-49 144.5,-79 257.5,-79 257.5,-49 144.5,-49"/>
<text text-anchor="start" x="152.5" y="-67" font-family="Helvetica,sans-Serif" font-size="10.00">KuszkAPI::Containers</text>
<text text-anchor="middle" x="201" y="-56" font-family="Helvetica,sans-Serif" font-size="10.00">::Container::Capacity</text>
</a>
</g>
</g>
<!-- Node1&#45;&gt;Node2 -->
<g id="edge1" class="edge"><title>Node1&#45;&gt;Node2</title>
<path fill="none" stroke="midnightblue" d="M108.169,-48.1671C116.743,-49.6454 125.706,-51.1907 134.529,-52.7119"/>
<polygon fill="midnightblue" stroke="midnightblue" points="133.953,-56.1642 144.402,-54.4142 135.143,-49.266 133.953,-56.1642"/>
</g>
<!-- Node3 -->
<g id="node3" class="node"><title>Node3</title>
<g id="a_node3"><a xlink:href="class_kuszk_a_p_i_1_1_containers_1_1_array.html#ab996e7ad2a6da444cfd8f2553b9b4070" target="_top" xlink:title="Zwraca adres pamięci w którym znajduje się początek organizacji. ">
<polygon fill="white" stroke="black" points="144.5,-0 144.5,-30 257.5,-30 257.5,-0 144.5,-0"/>
<text text-anchor="start" x="152.5" y="-18" font-family="Helvetica,sans-Serif" font-size="10.00">KuszkAPI::Containers</text>
<text text-anchor="middle" x="201" y="-7" font-family="Helvetica,sans-Serif" font-size="10.00">::Array::GetBegin</text>
</a>
</g>
</g>
<!-- Node1&#45;&gt;Node3 -->
<g id="edge2" class="edge"><title>Node1&#45;&gt;Node3</title>
<path fill="none" stroke="midnightblue" d="M108.169,-30.1996C116.743,-28.7804 125.706,-27.2969 134.529,-25.8366"/>
<polygon fill="midnightblue" stroke="midnightblue" points="135.108,-29.2884 144.402,-24.2024 133.965,-22.3824 135.108,-29.2884"/>
</g>
</g>
</svg>
