<?xml version="1.0" encoding="UTF-8" standalone="no"?>
<!DOCTYPE svg PUBLIC "-//W3C//DTD SVG 1.1//EN"
 "http://www.w3.org/Graphics/SVG/1.1/DTD/svg11.dtd">
<!-- Generated by graphviz version 2.36.0 (20140111.2315)
 -->
<!-- Title: KuszkAPI::Core::Script::GetQuotes Pages: 1 -->
<svg width="426pt" height="185pt"
 viewBox="0.00 0.00 426.00 185.00" xmlns="http://www.w3.org/2000/svg" xmlns:xlink="http://www.w3.org/1999/xlink">
<g id="graph0" class="graph" transform="scale(1 1) rotate(0) translate(4 181)">
<title>KuszkAPI::Core::Script::GetQuotes</title>
<polygon fill="white" stroke="none" points="-4,4 -4,-181 422,-181 422,4 -4,4"/>
<!-- Node1 -->
<g id="node1" class="node"><title>Node1</title>
<polygon fill="#bfbfbf" stroke="black" points="0,-73 0,-103 118,-103 118,-73 0,-73"/>
<text text-anchor="start" x="8" y="-91" font-family="Helvetica,sans-Serif" font-size="10.00">KuszkAPI::Core::Script</text>
<text text-anchor="middle" x="59" y="-80" font-family="Helvetica,sans-Serif" font-size="10.00">::GetQuotes</text>
</g>
<!-- Node2 -->
<g id="node2" class="node"><title>Node2</title>
<g id="a_node2"><a xlink:href="class_kuszk_a_p_i_1_1_containers_1_1_strings.html#a85279e4024226c7d0a89c0f51771db54" target="_top" xlink:title="KuszkAPI::Containers\l::Strings::All">
<polygon fill="white" stroke="black" points="154.5,-147 154.5,-177 267.5,-177 267.5,-147 154.5,-147"/>
<text text-anchor="start" x="162.5" y="-165" font-family="Helvetica,sans-Serif" font-size="10.00">KuszkAPI::Containers</text>
<text text-anchor="middle" x="211" y="-154" font-family="Helvetica,sans-Serif" font-size="10.00">::Strings::All</text>
</a>
</g>
</g>
<!-- Node1&#45;&gt;Node2 -->
<g id="edge1" class="edge"><title>Node1&#45;&gt;Node2</title>
<path fill="none" stroke="midnightblue" d="M87.7449,-103.027C106.344,-112.96 131.465,-126.109 154,-137 157.99,-138.929 162.163,-140.891 166.355,-142.825"/>
<polygon fill="midnightblue" stroke="midnightblue" points="164.943,-146.028 175.494,-146.99 167.846,-139.658 164.943,-146.028"/>
</g>
<!-- Node4 -->
<g id="node4" class="node"><title>Node4</title>
<g id="a_node4"><a xlink:href="class_kuszk_a_p_i_1_1_containers_1_1_strings.html#a89fcfadc786b1736408189065ce5deaf" target="_top" xlink:title="KuszkAPI::Containers\l::Strings::Capacity">
<polygon fill="white" stroke="black" points="154.5,-98 154.5,-128 267.5,-128 267.5,-98 154.5,-98"/>
<text text-anchor="start" x="162.5" y="-116" font-family="Helvetica,sans-Serif" font-size="10.00">KuszkAPI::Containers</text>
<text text-anchor="middle" x="211" y="-105" font-family="Helvetica,sans-Serif" font-size="10.00">::Strings::Capacity</text>
</a>
</g>
</g>
<!-- Node1&#45;&gt;Node4 -->
<g id="edge3" class="edge"><title>Node1&#45;&gt;Node4</title>
<path fill="none" stroke="midnightblue" d="M118.423,-97.7372C126.937,-99.1562 135.751,-100.625 144.396,-102.066"/>
<polygon fill="midnightblue" stroke="midnightblue" points="143.999,-105.548 154.439,-103.74 145.15,-98.6433 143.999,-105.548"/>
</g>
<!-- Node5 -->
<g id="node5" class="node"><title>Node5</title>
<g id="a_node5"><a xlink:href="class_kuszk_a_p_i_1_1_containers_1_1_string.html#a4dcb84e56f7d2cfb8a12846d0f86ab4d" target="_top" xlink:title="KuszkAPI::Containers\l::String::Count">
<polygon fill="white" stroke="black" points="154.5,-49 154.5,-79 267.5,-79 267.5,-49 154.5,-49"/>
<text text-anchor="start" x="162.5" y="-67" font-family="Helvetica,sans-Serif" font-size="10.00">KuszkAPI::Containers</text>
<text text-anchor="middle" x="211" y="-56" font-family="Helvetica,sans-Serif" font-size="10.00">::String::Count</text>
</a>
</g>
</g>
<!-- Node1&#45;&gt;Node5 -->
<g id="edge4" class="edge"><title>Node1&#45;&gt;Node5</title>
<path fill="none" stroke="midnightblue" d="M118.423,-78.6523C126.937,-77.29 135.751,-75.8798 144.396,-74.4966"/>
<polygon fill="midnightblue" stroke="midnightblue" points="145.117,-77.9259 154.439,-72.8898 144.011,-71.0138 145.117,-77.9259"/>
</g>
<!-- Node6 -->
<g id="node6" class="node"><title>Node6</title>
<g id="a_node6"><a xlink:href="class_kuszk_a_p_i_1_1_containers_1_1_strings.html#a65d04e46a0b67df68730abe6054aab28" target="_top" xlink:title="KuszkAPI::Containers\l::Strings::Delete">
<polygon fill="white" stroke="black" points="154.5,-0 154.5,-30 267.5,-30 267.5,-0 154.5,-0"/>
<text text-anchor="start" x="162.5" y="-18" font-family="Helvetica,sans-Serif" font-size="10.00">KuszkAPI::Containers</text>
<text text-anchor="middle" x="211" y="-7" font-family="Helvetica,sans-Serif" font-size="10.00">::Strings::Delete</text>
</a>
</g>
</g>
<!-- Node1&#45;&gt;Node6 -->
<g id="edge5" class="edge"><title>Node1&#45;&gt;Node6</title>
<path fill="none" stroke="midnightblue" d="M88.6046,-72.9028C107.131,-63.2466 131.848,-50.5917 154,-40 157.998,-38.0883 162.177,-36.1373 166.371,-34.2103"/>
<polygon fill="midnightblue" stroke="midnightblue" points="167.86,-37.3785 175.516,-30.0549 164.964,-31.0057 167.86,-37.3785"/>
</g>
<!-- Node3 -->
<g id="node3" class="node"><title>Node3</title>
<g id="a_node3"><a xlink:href="class_kuszk_a_p_i_1_1_containers_1_1_string.html#a8ca4879ad62f0f4521b7e13eaa711c2c" target="_top" xlink:title="KuszkAPI::Containers\l::String::GetData">
<polygon fill="white" stroke="black" points="304.5,-147 304.5,-177 417.5,-177 417.5,-147 304.5,-147"/>
<text text-anchor="start" x="312.5" y="-165" font-family="Helvetica,sans-Serif" font-size="10.00">KuszkAPI::Containers</text>
<text text-anchor="middle" x="361" y="-154" font-family="Helvetica,sans-Serif" font-size="10.00">::String::GetData</text>
</a>
</g>
</g>
<!-- Node2&#45;&gt;Node3 -->
<g id="edge2" class="edge"><title>Node2&#45;&gt;Node3</title>
<path fill="none" stroke="midnightblue" d="M267.531,-162C276.138,-162 285.101,-162 293.913,-162"/>
<polygon fill="midnightblue" stroke="midnightblue" points="294.158,-165.5 304.158,-162 294.158,-158.5 294.158,-165.5"/>
</g>
</g>
</svg>
