<?xml version="1.0" encoding="UTF-8" standalone="no"?>
<!DOCTYPE svg PUBLIC "-//W3C//DTD SVG 1.1//EN"
 "http://www.w3.org/Graphics/SVG/1.1/DTD/svg11.dtd">
<!-- Generated by graphviz version 2.36.0 (20140111.2315)
 -->
<!-- Title: KuszkAPI::Containers::Strings::LoadFromFile Pages: 1 -->
<svg width="278pt" height="136pt"
 viewBox="0.00 0.00 278.00 136.00" xmlns="http://www.w3.org/2000/svg" xmlns:xlink="http://www.w3.org/1999/xlink">
<g id="graph0" class="graph" transform="scale(1 1) rotate(0) translate(4 132)">
<title>KuszkAPI::Containers::Strings::LoadFromFile</title>
<polygon fill="white" stroke="none" points="-4,4 -4,-132 274,-132 274,4 -4,4"/>
<!-- Node1 -->
<g id="node1" class="node"><title>Node1</title>
<polygon fill="#bfbfbf" stroke="black" points="0.5,-49 0.5,-79 119.5,-79 119.5,-49 0.5,-49"/>
<text text-anchor="start" x="8.5" y="-67" font-family="Helvetica,sans-Serif" font-size="10.00">KuszkAPI::Containers</text>
<text text-anchor="middle" x="60" y="-56" font-family="Helvetica,sans-Serif" font-size="10.00">::Strings::LoadFromFile</text>
</g>
<!-- Node2 -->
<g id="node2" class="node"><title>Node2</title>
<g id="a_node2"><a xlink:href="class_kuszk_a_p_i_1_1_containers_1_1_string.html#a95d2a3884d9390d418b665d888451edf" target="_top" xlink:title="KuszkAPI::Containers\l::String::Contain">
<polygon fill="white" stroke="black" points="156.5,-98 156.5,-128 269.5,-128 269.5,-98 156.5,-98"/>
<text text-anchor="start" x="164.5" y="-116" font-family="Helvetica,sans-Serif" font-size="10.00">KuszkAPI::Containers</text>
<text text-anchor="middle" x="213" y="-105" font-family="Helvetica,sans-Serif" font-size="10.00">::String::Contain</text>
</a>
</g>
</g>
<!-- Node1&#45;&gt;Node2 -->
<g id="edge1" class="edge"><title>Node1&#45;&gt;Node2</title>
<path fill="none" stroke="midnightblue" d="M107.537,-79.1014C122.822,-84.0615 139.974,-89.6274 155.892,-94.7929"/>
<polygon fill="midnightblue" stroke="midnightblue" points="155.025,-98.1909 165.617,-97.9484 157.185,-91.5327 155.025,-98.1909"/>
</g>
<!-- Node3 -->
<g id="node3" class="node"><title>Node3</title>
<g id="a_node3"><a xlink:href="class_kuszk_a_p_i_1_1_containers_1_1_string.html#a50852c9287323f062a5bb9f9b7e41f7b" target="_top" xlink:title="KuszkAPI::Containers\l::String::Delete">
<polygon fill="white" stroke="black" points="156.5,-49 156.5,-79 269.5,-79 269.5,-49 156.5,-49"/>
<text text-anchor="start" x="164.5" y="-67" font-family="Helvetica,sans-Serif" font-size="10.00">KuszkAPI::Containers</text>
<text text-anchor="middle" x="213" y="-56" font-family="Helvetica,sans-Serif" font-size="10.00">::String::Delete</text>
</a>
</g>
</g>
<!-- Node1&#45;&gt;Node3 -->
<g id="edge2" class="edge"><title>Node1&#45;&gt;Node3</title>
<path fill="none" stroke="midnightblue" d="M119.813,-64C128.384,-64 137.256,-64 145.959,-64"/>
<polygon fill="midnightblue" stroke="midnightblue" points="146.068,-67.5001 156.068,-64 146.068,-60.5001 146.068,-67.5001"/>
</g>
<!-- Node4 -->
<g id="node4" class="node"><title>Node4</title>
<g id="a_node4"><a xlink:href="class_kuszk_a_p_i_1_1_containers_1_1_file.html#a05549b025756f90ce3bb01047d05cb6e" target="_top" xlink:title="KuszkAPI::Containers\l::File::Load">
<polygon fill="white" stroke="black" points="156.5,-0 156.5,-30 269.5,-30 269.5,-0 156.5,-0"/>
<text text-anchor="start" x="164.5" y="-18" font-family="Helvetica,sans-Serif" font-size="10.00">KuszkAPI::Containers</text>
<text text-anchor="middle" x="213" y="-7" font-family="Helvetica,sans-Serif" font-size="10.00">::File::Load</text>
</a>
</g>
</g>
<!-- Node1&#45;&gt;Node4 -->
<g id="edge3" class="edge"><title>Node1&#45;&gt;Node4</title>
<path fill="none" stroke="midnightblue" d="M107.537,-48.8986C122.822,-43.9385 139.974,-38.3726 155.892,-33.2071"/>
<polygon fill="midnightblue" stroke="midnightblue" points="157.185,-36.4673 165.617,-30.0516 155.025,-29.8091 157.185,-36.4673"/>
</g>
</g>
</svg>
