<?xml version="1.0" encoding="UTF-8" standalone="no"?>
<!DOCTYPE svg PUBLIC "-//W3C//DTD SVG 1.1//EN"
 "http://www.w3.org/Graphics/SVG/1.1/DTD/svg11.dtd">
<!-- Generated by graphviz version 2.36.0 (20140111.2315)
 -->
<!-- Title: KuszkAPI::Forms::TextControl Pages: 1 -->
<svg width="860pt" height="154pt"
 viewBox="0.00 0.00 860.00 154.00" xmlns="http://www.w3.org/2000/svg" xmlns:xlink="http://www.w3.org/1999/xlink">
<g id="graph0" class="graph" transform="scale(1 1) rotate(0) translate(4 150)">
<title>KuszkAPI::Forms::TextControl</title>
<polygon fill="white" stroke="none" points="-4,4 -4,-150 856,-150 856,4 -4,4"/>
<!-- Node1 -->
<g id="node1" class="node"><title>Node1</title>
<polygon fill="#bfbfbf" stroke="black" points="338.5,-60.5 338.5,-79.5 487.5,-79.5 487.5,-60.5 338.5,-60.5"/>
<text text-anchor="middle" x="413" y="-67.5" font-family="Helvetica,sans-Serif" font-size="10.00">KuszkAPI::Forms::TextControl</text>
</g>
<!-- Node4 -->
<g id="node4" class="node"><title>Node4</title>
<g id="a_node4"><a xlink:href="class_kuszk_a_p_i_1_1_forms_1_1_button.html" target="_top" xlink:title="KuszkAPI::Forms::Button">
<polygon fill="white" stroke="black" points="533,-126.5 533,-145.5 661,-145.5 661,-126.5 533,-126.5"/>
<text text-anchor="middle" x="597" y="-133.5" font-family="Helvetica,sans-Serif" font-size="10.00">KuszkAPI::Forms::Button</text>
</a>
</g>
</g>
<!-- Node1&#45;&gt;Node4 -->
<g id="edge3" class="edge"><title>Node1&#45;&gt;Node4</title>
<path fill="none" stroke="midnightblue" d="M444.195,-83.8307C466.076,-93.556 496.522,-106.48 524,-116 535.033,-119.822 547.207,-123.429 558.356,-126.499"/>
<polygon fill="midnightblue" stroke="midnightblue" points="445.342,-80.5093 434.785,-79.6112 442.477,-86.8966 445.342,-80.5093"/>
</g>
<!-- Node5 -->
<g id="node5" class="node"><title>Node5</title>
<g id="a_node5"><a xlink:href="class_kuszk_a_p_i_1_1_forms_1_1_check_box_control.html" target="_top" xlink:title="KuszkAPI::Forms::CheckBox\lControl">
<polygon fill="white" stroke="black" points="524.5,-77 524.5,-107 669.5,-107 669.5,-77 524.5,-77"/>
<text text-anchor="start" x="532.5" y="-95" font-family="Helvetica,sans-Serif" font-size="10.00">KuszkAPI::Forms::CheckBox</text>
<text text-anchor="middle" x="597" y="-84" font-family="Helvetica,sans-Serif" font-size="10.00">Control</text>
</a>
</g>
</g>
<!-- Node1&#45;&gt;Node5 -->
<g id="edge4" class="edge"><title>Node1&#45;&gt;Node5</title>
<path fill="none" stroke="midnightblue" d="M497.534,-80.0975C506.473,-81.178 515.508,-82.2702 524.292,-83.332"/>
<polygon fill="midnightblue" stroke="midnightblue" points="497.85,-76.6103 487.502,-78.8848 497.009,-83.5597 497.85,-76.6103"/>
</g>
<!-- Node8 -->
<g id="node8" class="node"><title>Node8</title>
<g id="a_node8"><a xlink:href="class_kuszk_a_p_i_1_1_forms_1_1_edit_box.html" target="_top" xlink:title="KuszkAPI::Forms::EditBox">
<polygon fill="white" stroke="black" points="530,-38.5 530,-57.5 664,-57.5 664,-38.5 530,-38.5"/>
<text text-anchor="middle" x="597" y="-45.5" font-family="Helvetica,sans-Serif" font-size="10.00">KuszkAPI::Forms::EditBox</text>
</a>
</g>
</g>
<!-- Node1&#45;&gt;Node8 -->
<g id="edge7" class="edge"><title>Node1&#45;&gt;Node8</title>
<path fill="none" stroke="midnightblue" d="M497.762,-59.875C508.527,-58.5737 519.428,-57.256 529.857,-55.9953"/>
<polygon fill="midnightblue" stroke="midnightblue" points="497.009,-56.4403 487.502,-61.1152 497.85,-63.3897 497.009,-56.4403"/>
</g>
<!-- Node9 -->
<g id="node9" class="node"><title>Node9</title>
<g id="a_node9"><a xlink:href="class_kuszk_a_p_i_1_1_forms_1_1_label.html" target="_top" xlink:title="KuszkAPI::Forms::Label">
<polygon fill="white" stroke="black" points="535.5,-0.5 535.5,-19.5 658.5,-19.5 658.5,-0.5 535.5,-0.5"/>
<text text-anchor="middle" x="597" y="-7.5" font-family="Helvetica,sans-Serif" font-size="10.00">KuszkAPI::Forms::Label</text>
</a>
</g>
</g>
<!-- Node1&#45;&gt;Node9 -->
<g id="edge8" class="edge"><title>Node1&#45;&gt;Node9</title>
<path fill="none" stroke="midnightblue" d="M447.2,-56.6488C468.873,-48.1765 497.89,-37.2888 524,-29 534.597,-25.636 546.199,-22.3879 556.936,-19.5576"/>
<polygon fill="midnightblue" stroke="midnightblue" points="445.817,-53.4318 437.796,-60.3535 448.383,-59.9446 445.817,-53.4318"/>
</g>
<!-- Node2 -->
<g id="node2" class="node"><title>Node2</title>
<g id="a_node2"><a xlink:href="class_kuszk_a_p_i_1_1_forms_1_1_control.html" target="_top" xlink:title="KuszkAPI::Forms::Control">
<polygon fill="white" stroke="black" points="170.5,-60.5 170.5,-79.5 301.5,-79.5 301.5,-60.5 170.5,-60.5"/>
<text text-anchor="middle" x="236" y="-67.5" font-family="Helvetica,sans-Serif" font-size="10.00">KuszkAPI::Forms::Control</text>
</a>
</g>
</g>
<!-- Node2&#45;&gt;Node1 -->
<g id="edge1" class="edge"><title>Node2&#45;&gt;Node1</title>
<path fill="none" stroke="midnightblue" d="M311.895,-70C320.694,-70 329.668,-70 338.449,-70"/>
<polygon fill="midnightblue" stroke="midnightblue" points="311.666,-66.5001 301.666,-70 311.666,-73.5001 311.666,-66.5001"/>
</g>
<!-- Node3 -->
<g id="node3" class="node"><title>Node3</title>
<g id="a_node3"><a xlink:href="class_kuszk_a_p_i_1_1_forms_1_1_window.html" target="_top" xlink:title="KuszkAPI::Forms::Window">
<polygon fill="white" stroke="black" points="0,-60.5 0,-79.5 134,-79.5 134,-60.5 0,-60.5"/>
<text text-anchor="middle" x="67" y="-67.5" font-family="Helvetica,sans-Serif" font-size="10.00">KuszkAPI::Forms::Window</text>
</a>
</g>
</g>
<!-- Node3&#45;&gt;Node2 -->
<g id="edge2" class="edge"><title>Node3&#45;&gt;Node2</title>
<path fill="none" stroke="midnightblue" d="M144.176,-70C152.903,-70 161.738,-70 170.295,-70"/>
<polygon fill="midnightblue" stroke="midnightblue" points="144.003,-66.5001 134.003,-70 144.003,-73.5001 144.003,-66.5001"/>
</g>
<!-- Node6 -->
<g id="node6" class="node"><title>Node6</title>
<g id="a_node6"><a xlink:href="class_kuszk_a_p_i_1_1_forms_1_1_check_box.html" target="_top" xlink:title="KuszkAPI::Forms::CheckBox">
<polygon fill="white" stroke="black" points="706.5,-101.5 706.5,-120.5 851.5,-120.5 851.5,-101.5 706.5,-101.5"/>
<text text-anchor="middle" x="779" y="-108.5" font-family="Helvetica,sans-Serif" font-size="10.00">KuszkAPI::Forms::CheckBox</text>
</a>
</g>
</g>
<!-- Node5&#45;&gt;Node6 -->
<g id="edge5" class="edge"><title>Node5&#45;&gt;Node6</title>
<path fill="none" stroke="midnightblue" d="M679.634,-100.617C688.528,-101.556 697.532,-102.506 706.295,-103.431"/>
<polygon fill="midnightblue" stroke="midnightblue" points="679.97,-97.133 669.658,-99.5639 679.235,-104.094 679.97,-97.133"/>
</g>
<!-- Node7 -->
<g id="node7" class="node"><title>Node7</title>
<g id="a_node7"><a xlink:href="class_kuszk_a_p_i_1_1_forms_1_1_radio_box.html" target="_top" xlink:title="KuszkAPI::Forms::RadioBox">
<polygon fill="white" stroke="black" points="708,-63.5 708,-82.5 850,-82.5 850,-63.5 708,-63.5"/>
<text text-anchor="middle" x="779" y="-70.5" font-family="Helvetica,sans-Serif" font-size="10.00">KuszkAPI::Forms::RadioBox</text>
</a>
</g>
</g>
<!-- Node5&#45;&gt;Node7 -->
<g id="edge6" class="edge"><title>Node5&#45;&gt;Node7</title>
<path fill="none" stroke="midnightblue" d="M679.744,-83.3715C689.1,-82.3839 698.576,-81.3837 707.763,-80.4139"/>
<polygon fill="midnightblue" stroke="midnightblue" points="679.235,-79.9056 669.658,-84.4361 679.97,-86.867 679.235,-79.9056"/>
</g>
</g>
</svg>
