<?xml version="1.0" encoding="UTF-8" standalone="no"?>
<!DOCTYPE svg PUBLIC "-//W3C//DTD SVG 1.1//EN"
 "http://www.w3.org/Graphics/SVG/1.1/DTD/svg11.dtd">
<!-- Generated by graphviz version 2.36.0 (20140111.2315)
 -->
<!-- Title: KuszkAPI::Forms::Font::SetColor Pages: 1 -->
<svg width="330pt" height="87pt"
 viewBox="0.00 0.00 330.00 87.00" xmlns="http://www.w3.org/2000/svg" xmlns:xlink="http://www.w3.org/1999/xlink">
<g id="graph0" class="graph" transform="scale(1 1) rotate(0) translate(4 83)">
<title>KuszkAPI::Forms::Font::SetColor</title>
<polygon fill="white" stroke="none" points="-4,4 -4,-83 326,-83 326,4 -4,4"/>
<!-- Node1 -->
<g id="node1" class="node"><title>Node1</title>
<polygon fill="#bfbfbf" stroke="black" points="0.5,-24 0.5,-54 119.5,-54 119.5,-24 0.5,-24"/>
<text text-anchor="start" x="8.5" y="-42" font-family="Helvetica,sans-Serif" font-size="10.00">KuszkAPI::Forms::Font</text>
<text text-anchor="middle" x="60" y="-31" font-family="Helvetica,sans-Serif" font-size="10.00">::SetColor</text>
</g>
<!-- Node2 -->
<g id="node2" class="node"><title>Node2</title>
<g id="a_node2"><a xlink:href="class_kuszk_a_p_i_1_1_forms_1_1_common_dialog.html#a6233e003ad8101d404a9c1ad87801814" target="_top" xlink:title="KuszkAPI::Forms::CommonDialog\l::GetColor">
<polygon fill="white" stroke="black" points="156,-49 156,-79 322,-79 322,-49 156,-49"/>
<text text-anchor="start" x="164" y="-67" font-family="Helvetica,sans-Serif" font-size="10.00">KuszkAPI::Forms::CommonDialog</text>
<text text-anchor="middle" x="239" y="-56" font-family="Helvetica,sans-Serif" font-size="10.00">::GetColor</text>
</a>
</g>
</g>
<!-- Node1&#45;&gt;Node2 -->
<g id="edge1" class="edge"><title>Node1&#45;&gt;Node2</title>
<path fill="none" stroke="midnightblue" d="M119.938,-47.3246C128.341,-48.5115 137.146,-49.755 145.997,-51.0052"/>
<polygon fill="midnightblue" stroke="midnightblue" points="145.6,-54.4838 155.991,-52.4168 146.579,-47.5526 145.6,-54.4838"/>
</g>
<!-- Node3 -->
<g id="node3" class="node"><title>Node3</title>
<g id="a_node3"><a xlink:href="class_kuszk_a_p_i_1_1_forms_1_1_common_dialog.html#a9577b9062ac0f639cf444100e16bfeb5" target="_top" xlink:title="KuszkAPI::Forms::CommonDialog\l::GetLastColor">
<polygon fill="white" stroke="black" points="156,-0 156,-30 322,-30 322,-0 156,-0"/>
<text text-anchor="start" x="164" y="-18" font-family="Helvetica,sans-Serif" font-size="10.00">KuszkAPI::Forms::CommonDialog</text>
<text text-anchor="middle" x="239" y="-7" font-family="Helvetica,sans-Serif" font-size="10.00">::GetLastColor</text>
</a>
</g>
</g>
<!-- Node1&#45;&gt;Node3 -->
<g id="edge2" class="edge"><title>Node1&#45;&gt;Node3</title>
<path fill="none" stroke="midnightblue" d="M119.938,-31.0083C128.341,-29.869 137.146,-28.6752 145.997,-27.475"/>
<polygon fill="midnightblue" stroke="midnightblue" points="146.552,-30.9319 155.991,-26.1199 145.611,-23.9953 146.552,-30.9319"/>
</g>
</g>
</svg>
