<?xml version="1.0" encoding="UTF-8" standalone="no"?>
<!DOCTYPE svg PUBLIC "-//W3C//DTD SVG 1.1//EN"
 "http://www.w3.org/Graphics/SVG/1.1/DTD/svg11.dtd">
<!-- Generated by graphviz version 2.36.0 (20140111.2315)
 -->
<!-- Title: KuszkAPI::Forms::Form::Clean Pages: 1 -->
<svg width="298pt" height="38pt"
 viewBox="0.00 0.00 298.00 38.00" xmlns="http://www.w3.org/2000/svg" xmlns:xlink="http://www.w3.org/1999/xlink">
<g id="graph0" class="graph" transform="scale(1 1) rotate(0) translate(4 34)">
<title>KuszkAPI::Forms::Form::Clean</title>
<polygon fill="white" stroke="none" points="-4,4 -4,-34 294,-34 294,4 -4,4"/>
<!-- Node1 -->
<g id="node1" class="node"><title>Node1</title>
<polygon fill="#bfbfbf" stroke="black" points="0,-0 0,-30 122,-30 122,-0 0,-0"/>
<text text-anchor="start" x="8" y="-18" font-family="Helvetica,sans-Serif" font-size="10.00">KuszkAPI::Forms::Form</text>
<text text-anchor="middle" x="61" y="-7" font-family="Helvetica,sans-Serif" font-size="10.00">::Clean</text>
</g>
<!-- Node2 -->
<g id="node2" class="node"><title>Node2</title>
<g id="a_node2"><a xlink:href="class_kuszk_a_p_i_1_1_forms_1_1_control.html#aad8c0098389a04efd1748f2590b2d1c6" target="_top" xlink:title="KuszkAPI::Forms::Control\l::Clean">
<polygon fill="white" stroke="black" points="158.5,-0 158.5,-30 289.5,-30 289.5,-0 158.5,-0"/>
<text text-anchor="start" x="166.5" y="-18" font-family="Helvetica,sans-Serif" font-size="10.00">KuszkAPI::Forms::Control</text>
<text text-anchor="middle" x="224" y="-7" font-family="Helvetica,sans-Serif" font-size="10.00">::Clean</text>
</a>
</g>
</g>
<!-- Node1&#45;&gt;Node2 -->
<g id="edge1" class="edge"><title>Node1&#45;&gt;Node2</title>
<path fill="none" stroke="midnightblue" d="M122.409,-15C130.874,-15 139.656,-15 148.347,-15"/>
<polygon fill="midnightblue" stroke="midnightblue" points="148.483,-18.5001 158.483,-15 148.483,-11.5001 148.483,-18.5001"/>
</g>
</g>
</svg>
