<?xml version="1.0" encoding="UTF-8" standalone="no"?>
<!DOCTYPE svg PUBLIC "-//W3C//DTD SVG 1.1//EN"
 "http://www.w3.org/Graphics/SVG/1.1/DTD/svg11.dtd">
<!-- Generated by graphviz version 2.36.0 (20140111.2315)
 -->
<!-- Title: KuszkAPI::Containers::Vector::Sort Pages: 1 -->
<svg width="272pt" height="87pt"
 viewBox="0.00 0.00 272.00 87.00" xmlns="http://www.w3.org/2000/svg" xmlns:xlink="http://www.w3.org/1999/xlink">
<g id="graph0" class="graph" transform="scale(1 1) rotate(0) translate(4 83)">
<title>KuszkAPI::Containers::Vector::Sort</title>
<polygon fill="white" stroke="none" points="-4,4 -4,-83 268,-83 268,4 -4,4"/>
<!-- Node1 -->
<g id="node1" class="node"><title>Node1</title>
<polygon fill="#bfbfbf" stroke="black" points="0.5,-24 0.5,-54 113.5,-54 113.5,-24 0.5,-24"/>
<text text-anchor="start" x="8.5" y="-42" font-family="Helvetica,sans-Serif" font-size="10.00">KuszkAPI::Containers</text>
<text text-anchor="middle" x="57" y="-31" font-family="Helvetica,sans-Serif" font-size="10.00">::Vector::Sort</text>
</g>
<!-- Node2 -->
<g id="node2" class="node"><title>Node2</title>
<g id="a_node2"><a xlink:href="class_kuszk_a_p_i_1_1_containers_1_1_vector.html#a186dd56ed63612595f86074e91d99a47" target="_top" xlink:title="KuszkAPI::Containers\l::Vector::Change">
<polygon fill="white" stroke="black" points="150.5,-49 150.5,-79 263.5,-79 263.5,-49 150.5,-49"/>
<text text-anchor="start" x="158.5" y="-67" font-family="Helvetica,sans-Serif" font-size="10.00">KuszkAPI::Containers</text>
<text text-anchor="middle" x="207" y="-56" font-family="Helvetica,sans-Serif" font-size="10.00">::Vector::Change</text>
</a>
</g>
</g>
<!-- Node1&#45;&gt;Node2 -->
<g id="edge1" class="edge"><title>Node1&#45;&gt;Node2</title>
<path fill="none" stroke="midnightblue" d="M113.531,-48.3802C122.232,-49.8499 131.296,-51.3811 140.201,-52.8853"/>
<polygon fill="midnightblue" stroke="midnightblue" points="139.715,-56.3527 150.158,-54.5672 140.881,-49.4504 139.715,-56.3527"/>
</g>
<!-- Node3 -->
<g id="node3" class="node"><title>Node3</title>
<g id="a_node3"><a xlink:href="class_kuszk_a_p_i_1_1_containers_1_1_vector.html#ae9aaadce54b4b2ea7531b0e74d0130c2" target="_top" xlink:title="KuszkAPI::Containers\l::Vector::Reverse">
<polygon fill="white" stroke="black" points="150.5,-0 150.5,-30 263.5,-30 263.5,-0 150.5,-0"/>
<text text-anchor="start" x="158.5" y="-18" font-family="Helvetica,sans-Serif" font-size="10.00">KuszkAPI::Containers</text>
<text text-anchor="middle" x="207" y="-7" font-family="Helvetica,sans-Serif" font-size="10.00">::Vector::Reverse</text>
</a>
</g>
</g>
<!-- Node1&#45;&gt;Node3 -->
<g id="edge2" class="edge"><title>Node1&#45;&gt;Node3</title>
<path fill="none" stroke="midnightblue" d="M113.531,-29.995C122.232,-28.5841 131.296,-27.1141 140.201,-25.6702"/>
<polygon fill="midnightblue" stroke="midnightblue" points="140.847,-29.1111 150.158,-24.0555 139.727,-22.2014 140.847,-29.1111"/>
</g>
</g>
</svg>
