<?xml version="1.0" encoding="UTF-8" standalone="no"?>
<!DOCTYPE svg PUBLIC "-//W3C//DTD SVG 1.1//EN"
 "http://www.w3.org/Graphics/SVG/1.1/DTD/svg11.dtd">
<!-- Generated by graphviz version 2.36.0 (20140111.2315)
 -->
<!-- Title: KuszkAPI::Sockets::Server Pages: 1 -->
<!--zoomable 809 -->
<svg id="main" version="1.1" xmlns="http://www.w3.org/2000/svg" xmlns:xlink="http://www.w3.org/1999/xlink" xml:space="preserve" onload="init(evt)">
<style type="text/css"><![CDATA[
.edge:hover path { stroke: red; }
.edge:hover polygon { stroke: red; fill: red; }
]]></style>
<script type="text/javascript"><![CDATA[
var edges = document.getElementsByTagName('g');
if (edges && edges.length) {
  for (var i=0;i<edges.length;i++) {
    if (edges[i].id.substr(0,4)=='edge') {
      edges[i].setAttribute('class','edge');
    }
  }
}
]]></script>
        <defs>
                <circle id="rim" cx="0" cy="0" r="7"/>
                <circle id="rim2" cx="0" cy="0" r="3.5"/>
                <g id="zoomPlus">
                        <use xlink:href="#rim" fill="#404040">
                                <set attributeName="fill" to="#808080" begin="zoomplus.mouseover" end="zoomplus.mouseout"/>
                        </use>
                        <path d="M-4,0h8M0,-4v8" fill="none" stroke="white" stroke-width="1.5" pointer-events="none"/>
                </g>
                <g id="zoomMin">
                        <use xlink:href="#rim" fill="#404040">
                                <set attributeName="fill" to="#808080" begin="zoomminus.mouseover" end="zoomminus.mouseout"/>
                        </use>
                        <path d="M-4,0h8" fill="none" stroke="white" stroke-width="1.5" pointer-events="none"/>
                </g>
                <g id="dirArrow">
                        <path fill="none" stroke="white" stroke-width="1.5" d="M0,-3.0v7 M-2.5,-0.5L0,-3.0L2.5,-0.5"/>
                </g>
               <g id="resetDef">
                       <use xlink:href="#rim2" fill="#404040">
                               <set attributeName="fill" to="#808080" begin="reset.mouseover" end="reset.mouseout"/>
                       </use>
               </g>
        </defs>

<script type="text/javascript">
var viewWidth = 1612;
var viewHeight = 809;
var sectionId = 'dynsection-1';
</script>
<script xlink:href="svgpan.js"/>
<svg id="graph" class="graph">
<g id="viewport">
<title>KuszkAPI::Sockets::Server</title>
<polygon fill="white" stroke="none" points="-4,4 -4,-804.841 1608,-804.841 1608,4 -4,4"/>
<!-- Node1 -->
<g id="node1" class="node"><title>Node1</title>
<polygon fill="#bfbfbf" stroke="black" points="1496,-732.841 1496,-762.841 1604,-762.841 1604,-732.841 1496,-732.841"/>
<text text-anchor="start" x="1504" y="-750.841" font-family="Helvetica,sans-Serif" font-size="10.00">KuszkAPI::Sockets::</text>
<text text-anchor="middle" x="1550" y="-739.841" font-family="Helvetica,sans-Serif" font-size="10.00">Server</text>
</g>
<!-- Node2 -->
<g id="node2" class="node"><title>Node2</title>
<g id="a_node2"><a xlink:href="class_kuszk_a_p_i_1_1_sockets_1_1_socket.html" target="_top" xlink:title="KuszkAPI::Sockets::\lSocket">
<polygon fill="white" stroke="black" points="157,-647.841 157,-677.841 265,-677.841 265,-647.841 157,-647.841"/>
<text text-anchor="start" x="165" y="-665.841" font-family="Helvetica,sans-Serif" font-size="10.00">KuszkAPI::Sockets::</text>
<text text-anchor="middle" x="211" y="-654.841" font-family="Helvetica,sans-Serif" font-size="10.00">Socket</text>
</a>
</g>
</g>
<!-- Node2&#45;&gt;Node1 -->
<g id="edge1" class="edge"><title>Node2&#45;&gt;Node1</title>
<path fill="none" stroke="#8b1a1a" d="M275.425,-674.792C297.172,-678.906 321.654,-683.555 344,-687.841 374.625,-693.715 863.817,-794.841 895,-794.841 895,-794.841 895,-794.841 1359,-794.841 1413.2,-794.841 1473.62,-776.596 1511.46,-762.841"/>
<polygon fill="#8b1a1a" stroke="#8b1a1a" points="275.795,-671.3 265.319,-672.881 274.494,-678.178 275.795,-671.3"/>
</g>
<!-- Node10 -->
<g id="node10" class="node"><title>Node10</title>
<g id="a_node10"><a xlink:href="class_kuszk_a_p_i_1_1_sockets_1_1_client.html" target="_top" xlink:title="KuszkAPI::Sockets::\lClient">
<polygon fill="white" stroke="black" points="365,-570.841 365,-600.841 473,-600.841 473,-570.841 365,-570.841"/>
<text text-anchor="start" x="373" y="-588.841" font-family="Helvetica,sans-Serif" font-size="10.00">KuszkAPI::Sockets::</text>
<text text-anchor="middle" x="419" y="-577.841" font-family="Helvetica,sans-Serif" font-size="10.00">Client</text>
</a>
</g>
</g>
<!-- Node2&#45;&gt;Node10 -->
<g id="edge11" class="edge"><title>Node2&#45;&gt;Node10</title>
<path fill="none" stroke="#8b1a1a" d="M261.885,-644.195C297.357,-630.936 344.401,-613.352 377.542,-600.964"/>
<polygon fill="#8b1a1a" stroke="#8b1a1a" points="260.349,-641.032 252.208,-647.812 262.8,-647.589 260.349,-641.032"/>
</g>
<!-- Node3 -->
<g id="node3" class="node"><title>Node3</title>
<polygon fill="white" stroke="#bfbfbf" points="7,-299.341 7,-318.341 63,-318.341 63,-299.341 7,-299.341"/>
<text text-anchor="middle" x="35" y="-306.341" font-family="Helvetica,sans-Serif" font-size="10.00">SOCKET</text>
</g>
<!-- Node3&#45;&gt;Node2 -->
<g id="edge2" class="edge"><title>Node3&#45;&gt;Node2</title>
<path fill="none" stroke="#9a32cd" stroke-dasharray="5,2" d="M40.6879,-328.33C52.8136,-376.352 88.3507,-503.121 146,-594.841 158.768,-615.155 178.164,-634.709 192.256,-647.591"/>
<polygon fill="#9a32cd" stroke="#9a32cd" points="44.079,-327.463 38.2811,-318.596 37.2836,-329.144 44.079,-327.463"/>
<text text-anchor="middle" x="108" y="-561.841" font-family="Helvetica,sans-Serif" font-size="10.00"> sSocket</text>
</g>
<!-- Node15 -->
<g id="node15" class="node"><title>Node15</title>
<g id="a_node15"><a xlink:href="class_kuszk_a_p_i_1_1_containers_1_1_list.html" target="_top" xlink:title="KuszkAPI::Containers\l::List\&lt; SOCKET \&gt;">
<polygon fill="white" stroke="black" points="626.5,-65.8411 626.5,-95.8411 739.5,-95.8411 739.5,-65.8411 626.5,-65.8411"/>
<text text-anchor="start" x="634.5" y="-83.8411" font-family="Helvetica,sans-Serif" font-size="10.00">KuszkAPI::Containers</text>
<text text-anchor="middle" x="683" y="-72.8411" font-family="Helvetica,sans-Serif" font-size="10.00">::List&lt; SOCKET &gt;</text>
</a>
</g>
</g>
<!-- Node3&#45;&gt;Node15 -->
<g id="edge28" class="edge"><title>Node3&#45;&gt;Node15</title>
<path fill="none" stroke="#9a32cd" stroke-dasharray="5,2" d="M38.4526,-288.786C43.068,-259.268 55.6786,-204.041 88,-170.841 156.971,-99.9947 199.4,-115.599 294,-86.8411 407.927,-52.2082 549.494,-62.5383 626.226,-72.2531"/>
<polygon fill="#9a32cd" stroke="#9a32cd" points="34.9332,-288.681 37.0099,-299.07 41.8653,-289.653 34.9332,-288.681"/>
<text text-anchor="middle" x="319" y="-89.8411" font-family="Helvetica,sans-Serif" font-size="10.00"> tAbstract</text>
</g>
<!-- Node4 -->
<g id="node4" class="node"><title>Node4</title>
<polygon fill="white" stroke="#bfbfbf" points="0.5,-755.341 0.5,-774.341 69.5,-774.341 69.5,-755.341 0.5,-755.341"/>
<text text-anchor="middle" x="35" y="-762.341" font-family="Helvetica,sans-Serif" font-size="10.00">sockaddr_in</text>
</g>
<!-- Node4&#45;&gt;Node2 -->
<g id="edge3" class="edge"><title>Node4&#45;&gt;Node2</title>
<path fill="none" stroke="#9a32cd" stroke-dasharray="5,2" d="M61.3544,-749.978C94.2365,-730.702 151.28,-697.263 184.321,-677.895"/>
<polygon fill="#9a32cd" stroke="#9a32cd" points="59.2265,-747.168 52.3695,-755.245 62.7665,-753.207 59.2265,-747.168"/>
<text text-anchor="middle" x="108" y="-735.841" font-family="Helvetica,sans-Serif" font-size="10.00"> sAdres</text>
</g>
<!-- Node5 -->
<g id="node5" class="node"><title>Node5</title>
<g id="a_node5"><a xlink:href="namespace_3global_scope_4.html#classunsigned" target="_top" xlink:title="unsigned">
<polygon fill="white" stroke="black" points="7,-590.341 7,-609.341 63,-609.341 63,-590.341 7,-590.341"/>
<text text-anchor="middle" x="35" y="-597.341" font-family="Helvetica,sans-Serif" font-size="10.00">unsigned</text>
</a>
</g>
</g>
<!-- Node5&#45;&gt;Node2 -->
<g id="edge4" class="edge"><title>Node5&#45;&gt;Node2</title>
<path fill="none" stroke="#9a32cd" stroke-dasharray="5,2" d="M57.0176,-615.379C66.1612,-621.545 77.2313,-628.246 88,-632.841 109.767,-642.129 134.998,-648.933 156.846,-653.69"/>
<polygon fill="#9a32cd" stroke="#9a32cd" points="58.7993,-612.354 48.5988,-609.49 54.787,-618.09 58.7993,-612.354"/>
<text text-anchor="middle" x="108" y="-649.841" font-family="Helvetica,sans-Serif" font-size="10.00"> uIlosc</text>
</g>
<!-- Node6 -->
<g id="node6" class="node"><title>Node6</title>
<g id="a_node6"><a xlink:href="class_kuszk_a_p_i_1_1_containers_1_1_map.html" target="_top" xlink:title="KuszkAPI::Containers\l::Map\&lt; KuszkAPI::Sockets\l::Client, SOCKET \&gt;">
<polygon fill="white" stroke="black" points="1290,-614.341 1290,-655.341 1426,-655.341 1426,-614.341 1290,-614.341"/>
<text text-anchor="start" x="1298" y="-643.341" font-family="Helvetica,sans-Serif" font-size="10.00">KuszkAPI::Containers</text>
<text text-anchor="start" x="1298" y="-632.341" font-family="Helvetica,sans-Serif" font-size="10.00">::Map&lt; KuszkAPI::Sockets</text>
<text text-anchor="middle" x="1358" y="-621.341" font-family="Helvetica,sans-Serif" font-size="10.00">::Client, SOCKET &gt;</text>
</a>
</g>
</g>
<!-- Node5&#45;&gt;Node6 -->
<g id="edge36" class="edge"><title>Node5&#45;&gt;Node6</title>
<path fill="none" stroke="#9a32cd" stroke-dasharray="5,2" d="M37.6007,-619.78C41.1707,-651.204 52.5144,-712.32 88,-747.841 128.633,-788.514 152.508,-790.841 210,-790.841 210,-790.841 210,-790.841 544,-790.841 828.208,-790.841 1158.45,-697.756 1294.02,-655.396"/>
<polygon fill="#9a32cd" stroke="#9a32cd" points="41.0665,-619.259 36.6068,-609.648 34.0999,-619.942 41.0665,-619.259"/>
<text text-anchor="middle" x="683" y="-792.841" font-family="Helvetica,sans-Serif" font-size="10.00"> uIlosc</text>
</g>
<!-- Node7 -->
<g id="node7" class="node"><title>Node7</title>
<g id="a_node7"><a xlink:href="class_kuszk_a_p_i_1_1_containers_1_1_box.html" target="_top" xlink:title="KuszkAPI::Containers\l::Box\&lt; KuszkAPI::Sockets\l::Client \&gt;">
<polygon fill="white" stroke="black" points="1090,-614.341 1090,-655.341 1224,-655.341 1224,-614.341 1090,-614.341"/>
<text text-anchor="start" x="1098" y="-643.341" font-family="Helvetica,sans-Serif" font-size="10.00">KuszkAPI::Containers</text>
<text text-anchor="start" x="1098" y="-632.341" font-family="Helvetica,sans-Serif" font-size="10.00">::Box&lt; KuszkAPI::Sockets</text>
<text text-anchor="middle" x="1157" y="-621.341" font-family="Helvetica,sans-Serif" font-size="10.00">::Client &gt;</text>
</a>
</g>
</g>
<!-- Node5&#45;&gt;Node7 -->
<g id="edge18" class="edge"><title>Node5&#45;&gt;Node7</title>
<path fill="none" stroke="#9a32cd" stroke-dasharray="5,2" d="M73.2303,-603.729C78.1923,-604.157 83.2166,-604.544 88,-604.841 466.83,-628.348 922.402,-633.443 1090,-634.541"/>
<polygon fill="#9a32cd" stroke="#9a32cd" points="73.5084,-600.24 63.23,-602.81 72.8677,-607.211 73.5084,-600.24"/>
<text text-anchor="middle" x="543" y="-629.841" font-family="Helvetica,sans-Serif" font-size="10.00"> uIlosc</text>
</g>
<!-- Node8 -->
<g id="node8" class="node"><title>Node8</title>
<g id="a_node8"><a xlink:href="class_kuszk_a_p_i_1_1_containers_1_1_vector.html" target="_top" xlink:title="KuszkAPI::Containers\l::Vector\&lt; KuszkAPI::Sockets\l::Client * \&gt;">
<polygon fill="white" stroke="black" points="610,-440.341 610,-481.341 756,-481.341 756,-440.341 610,-440.341"/>
<text text-anchor="start" x="618" y="-469.341" font-family="Helvetica,sans-Serif" font-size="10.00">KuszkAPI::Containers</text>
<text text-anchor="start" x="618" y="-458.341" font-family="Helvetica,sans-Serif" font-size="10.00">::Vector&lt; KuszkAPI::Sockets</text>
<text text-anchor="middle" x="683" y="-447.341" font-family="Helvetica,sans-Serif" font-size="10.00">::Client * &gt;</text>
</a>
</g>
</g>
<!-- Node5&#45;&gt;Node8 -->
<g id="edge13" class="edge"><title>Node5&#45;&gt;Node8</title>
<path fill="none" stroke="#9a32cd" stroke-dasharray="5,2" d="M41.5166,-580.242C48.7801,-557.662 63.5752,-520.739 88,-497.841 108.478,-478.642 118.8,-479.776 146,-472.841 307.672,-431.62 505.726,-442.241 609.95,-452.315"/>
<polygon fill="#9a32cd" stroke="#9a32cd" points="38.0951,-579.464 38.5466,-590.049 44.7946,-581.493 38.0951,-579.464"/>
<text text-anchor="middle" x="319" y="-451.841" font-family="Helvetica,sans-Serif" font-size="10.00"> uDataSize</text>
</g>
<!-- Node9 -->
<g id="node9" class="node"><title>Node9</title>
<g id="a_node9"><a xlink:href="class_kuszk_a_p_i_1_1_containers_1_1_container.html" target="_top" xlink:title="Implementacja bazy dla modułu kontenerów. ">
<polygon fill="white" stroke="black" points="154.5,-324.841 154.5,-354.841 267.5,-354.841 267.5,-324.841 154.5,-324.841"/>
<text text-anchor="start" x="162.5" y="-342.841" font-family="Helvetica,sans-Serif" font-size="10.00">KuszkAPI::Containers</text>
<text text-anchor="middle" x="211" y="-331.841" font-family="Helvetica,sans-Serif" font-size="10.00">::Container</text>
</a>
</g>
</g>
<!-- Node5&#45;&gt;Node9 -->
<g id="edge9" class="edge"><title>Node5&#45;&gt;Node9</title>
<path fill="none" stroke="#9a32cd" stroke-dasharray="5,2" d="M37.3753,-580.104C41.4462,-527.755 55.2586,-387.295 88,-356.841 105.538,-340.529 131.082,-335.236 154.269,-334.442"/>
<polygon fill="#9a32cd" stroke="#9a32cd" points="33.8813,-579.895 36.6329,-590.126 40.8622,-580.412 33.8813,-579.895"/>
<text text-anchor="middle" x="108" y="-370.841" font-family="Helvetica,sans-Serif" font-size="10.00"> uIlosc</text>
<text text-anchor="middle" x="108" y="-359.841" font-family="Helvetica,sans-Serif" font-size="10.00">uMode</text>
</g>
<!-- Node5&#45;&gt;Node10 -->
<g id="edge12" class="edge"><title>Node5&#45;&gt;Node10</title>
<path fill="none" stroke="#9a32cd" stroke-dasharray="5,2" d="M73.3547,-597.57C94.6379,-596.335 121.806,-594.857 146,-593.841 221.994,-590.651 309.984,-588.31 364.824,-587.011"/>
<polygon fill="#9a32cd" stroke="#9a32cd" points="72.8914,-594.091 63.114,-598.172 73.3022,-601.079 72.8914,-594.091"/>
<text text-anchor="middle" x="211" y="-596.841" font-family="Helvetica,sans-Serif" font-size="10.00"> uSize</text>
</g>
<!-- Node11 -->
<g id="node11" class="node"><title>Node11</title>
<g id="a_node11"><a xlink:href="class_kuszk_a_p_i_1_1_containers_1_1_vector.html" target="_top" xlink:title="KuszkAPI::Containers\l::Vector\&lt; tnData \&gt;">
<polygon fill="white" stroke="black" points="362.5,-462.841 362.5,-492.841 475.5,-492.841 475.5,-462.841 362.5,-462.841"/>
<text text-anchor="start" x="370.5" y="-480.841" font-family="Helvetica,sans-Serif" font-size="10.00">KuszkAPI::Containers</text>
<text text-anchor="middle" x="419" y="-469.841" font-family="Helvetica,sans-Serif" font-size="10.00">::Vector&lt; tnData &gt;</text>
</a>
</g>
</g>
<!-- Node5&#45;&gt;Node11 -->
<g id="edge17" class="edge"><title>Node5&#45;&gt;Node11</title>
<path fill="none" stroke="#9a32cd" stroke-dasharray="5,2" d="M47.9591,-581.642C65.828,-556.239 102.134,-511.106 146,-491.841 183.395,-475.418 294.179,-474.784 362.278,-476.109"/>
<polygon fill="#9a32cd" stroke="#9a32cd" points="44.9836,-579.792 42.2301,-590.023 50.7626,-583.743 44.9836,-579.792"/>
<text text-anchor="middle" x="211" y="-494.841" font-family="Helvetica,sans-Serif" font-size="10.00"> uDataSize</text>
</g>
<!-- Node13 -->
<g id="node13" class="node"><title>Node13</title>
<g id="a_node13"><a xlink:href="class_kuszk_a_p_i_1_1_containers_1_1_box.html" target="_top" xlink:title="Implementacja szablonu pudełka dla modułu kontenerów. ">
<polygon fill="white" stroke="black" points="839.5,-663.841 839.5,-693.841 952.5,-693.841 952.5,-663.841 839.5,-663.841"/>
<text text-anchor="start" x="847.5" y="-681.841" font-family="Helvetica,sans-Serif" font-size="10.00">KuszkAPI::Containers</text>
<text text-anchor="middle" x="896" y="-670.841" font-family="Helvetica,sans-Serif" font-size="10.00">::Box&lt; tnData &gt;</text>
</a>
</g>
</g>
<!-- Node5&#45;&gt;Node13 -->
<g id="edge20" class="edge"><title>Node5&#45;&gt;Node13</title>
<path fill="none" stroke="#9a32cd" stroke-dasharray="5,2" d="M42.7102,-619.163C50.5809,-639.096 65.4853,-669.752 88,-687.841 109.146,-704.831 119.354,-701.762 146,-706.841 401.329,-755.507 714.216,-711.18 839.388,-689.351"/>
<polygon fill="#9a32cd" stroke="#9a32cd" points="45.915,-617.739 39.1448,-609.59 39.3552,-620.183 45.915,-617.739"/>
<text text-anchor="middle" x="419" y="-731.841" font-family="Helvetica,sans-Serif" font-size="10.00"> uIlosc</text>
</g>
<!-- Node14 -->
<g id="node14" class="node"><title>Node14</title>
<g id="a_node14"><a xlink:href="class_kuszk_a_p_i_1_1_containers_1_1_vector.html" target="_top" xlink:title="KuszkAPI::Containers\l::Vector\&lt; tnData * \&gt;">
<polygon fill="white" stroke="black" points="626.5,-516.841 626.5,-546.841 739.5,-546.841 739.5,-516.841 626.5,-516.841"/>
<text text-anchor="start" x="634.5" y="-534.841" font-family="Helvetica,sans-Serif" font-size="10.00">KuszkAPI::Containers</text>
<text text-anchor="middle" x="683" y="-523.841" font-family="Helvetica,sans-Serif" font-size="10.00">::Vector&lt; tnData * &gt;</text>
</a>
</g>
</g>
<!-- Node5&#45;&gt;Node14 -->
<g id="edge24" class="edge"><title>Node5&#45;&gt;Node14</title>
<path fill="none" stroke="#9a32cd" stroke-dasharray="5,2" d="M47.7088,-617.946C57.2229,-631.496 71.7024,-649.709 88,-661.841 155.613,-712.175 192.751,-700.056 276,-686.841 376.638,-670.866 396.551,-645.621 494,-615.841 537.321,-602.603 550.592,-606.206 592,-587.841 617.234,-576.649 643.796,-559.347 661.466,-546.937"/>
<polygon fill="#9a32cd" stroke="#9a32cd" points="50.4572,-615.763 41.9541,-609.442 44.6598,-619.686 50.4572,-615.763"/>
<text text-anchor="middle" x="319" y="-686.841" font-family="Helvetica,sans-Serif" font-size="10.00"> uDataSize</text>
</g>
<!-- Node19 -->
<g id="node19" class="node"><title>Node19</title>
<g id="a_node19"><a xlink:href="class_kuszk_a_p_i_1_1_containers_1_1_map.html" target="_top" xlink:title="KuszkAPI::Containers\l::Map\&lt; tnData, tnKey \&gt;">
<polygon fill="white" stroke="black" points="836.5,-272.841 836.5,-302.841 955.5,-302.841 955.5,-272.841 836.5,-272.841"/>
<text text-anchor="start" x="844.5" y="-290.841" font-family="Helvetica,sans-Serif" font-size="10.00">KuszkAPI::Containers</text>
<text text-anchor="middle" x="896" y="-279.841" font-family="Helvetica,sans-Serif" font-size="10.00">::Map&lt; tnData, tnKey &gt;</text>
</a>
</g>
</g>
<!-- Node5&#45;&gt;Node19 -->
<g id="edge44" class="edge"><title>Node5&#45;&gt;Node19</title>
<path fill="none" stroke="#9a32cd" stroke-dasharray="5,2" d="M38.5761,-579.801C44.3482,-534.777 58.6978,-422.166 70,-327.841 74.1779,-292.973 67.6391,-199.453 88,-170.841 146.895,-88.0778 196.868,-101.569 294,-71.8411 490.461,-11.7131 577.244,45.4438 756,-55.8411 841.789,-104.45 880.365,-229.426 891.459,-272.769"/>
<polygon fill="#9a32cd" stroke="#9a32cd" points="35.0731,-579.601 37.2714,-589.965 42.0161,-580.492 35.0731,-579.601"/>
<text text-anchor="middle" x="419" y="-53.8411" font-family="Helvetica,sans-Serif" font-size="10.00"> uIlosc</text>
</g>
<!-- Node6&#45;&gt;Node1 -->
<g id="edge5" class="edge"><title>Node6&#45;&gt;Node1</title>
<path fill="none" stroke="#9a32cd" stroke-dasharray="5,2" d="M1402.56,-660.745C1440.06,-683.052 1492.89,-714.471 1523.78,-732.841"/>
<polygon fill="#9a32cd" stroke="#9a32cd" points="1404.23,-657.671 1393.85,-655.567 1400.65,-663.687 1404.23,-657.671"/>
<text text-anchor="middle" x="1461" y="-707.841" font-family="Helvetica,sans-Serif" font-size="10.00"> Clients</text>
</g>
<!-- Node7&#45;&gt;Node6 -->
<g id="edge6" class="edge"><title>Node7&#45;&gt;Node6</title>
<path fill="none" stroke="#9a32cd" stroke-dasharray="5,2" d="M1234.27,-634.841C1252.51,-634.841 1271.86,-634.841 1289.67,-634.841"/>
<polygon fill="#9a32cd" stroke="#9a32cd" points="1234.26,-631.341 1224.26,-634.841 1234.26,-638.341 1234.26,-631.341"/>
<text text-anchor="middle" x="1257" y="-637.841" font-family="Helvetica,sans-Serif" font-size="10.00"> bData</text>
</g>
<!-- Node8&#45;&gt;Node7 -->
<g id="edge7" class="edge"><title>Node8&#45;&gt;Node7</title>
<path fill="none" stroke="#9a32cd" stroke-dasharray="5,2" d="M749.613,-485.029C842.935,-519.431 1012.38,-581.898 1100.07,-614.225"/>
<polygon fill="#9a32cd" stroke="#9a32cd" points="750.592,-481.659 739.998,-481.484 748.17,-488.227 750.592,-481.659"/>
<text text-anchor="middle" x="896" y="-562.841" font-family="Helvetica,sans-Serif" font-size="10.00"> vPointers</text>
</g>
<!-- Node9&#45;&gt;Node8 -->
<g id="edge8" class="edge"><title>Node9&#45;&gt;Node8</title>
<path fill="none" stroke="midnightblue" d="M277.908,-333.819C356.376,-329.386 489.66,-330.648 592,-376.841 623.169,-390.91 650.533,-420.205 666.673,-440.198"/>
<polygon fill="midnightblue" stroke="midnightblue" points="277.444,-330.341 267.678,-334.447 277.873,-337.328 277.444,-330.341"/>
</g>
<!-- Node9&#45;&gt;Node11 -->
<g id="edge15" class="edge"><title>Node9&#45;&gt;Node11</title>
<path fill="none" stroke="midnightblue" d="M224.834,-363.873C238.767,-387.673 263.208,-423.43 294,-443.841 314.28,-457.284 339.771,-465.444 362.358,-470.382"/>
<polygon fill="midnightblue" stroke="midnightblue" points="227.83,-362.061 219.851,-355.091 221.742,-365.516 227.83,-362.061"/>
</g>
<!-- Node9&#45;&gt;Node14 -->
<g id="edge22" class="edge"><title>Node9&#45;&gt;Node14</title>
<path fill="none" stroke="midnightblue" d="M244.274,-360.237C258.991,-368.824 276.914,-378.318 294,-384.841 421.006,-433.332 485.675,-369.124 592,-453.841 606.302,-465.237 597.495,-477.498 610,-490.841 620.033,-501.547 633.501,-510.23 646.074,-516.804"/>
<polygon fill="midnightblue" stroke="midnightblue" points="245.942,-357.157 235.561,-355.042 242.357,-363.169 245.942,-357.157"/>
</g>
<!-- Node9&#45;&gt;Node15 -->
<g id="edge27" class="edge"><title>Node9&#45;&gt;Node15</title>
<path fill="none" stroke="midnightblue" d="M223.387,-315.562C244.235,-274.295 292.838,-191.574 362,-156.841 407.925,-133.778 547.471,-105.574 626.279,-90.8607"/>
<polygon fill="midnightblue" stroke="midnightblue" points="220.194,-314.125 218.912,-324.642 226.473,-317.22 220.194,-314.125"/>
</g>
<!-- Node18 -->
<g id="node18" class="node"><title>Node18</title>
<g id="a_node18"><a xlink:href="class_kuszk_a_p_i_1_1_containers_1_1_list.html" target="_top" xlink:title="Implementacja szablonu listy dla modułu kontenerów. ">
<polygon fill="white" stroke="black" points="362.5,-217.841 362.5,-247.841 475.5,-247.841 475.5,-217.841 362.5,-217.841"/>
<text text-anchor="start" x="370.5" y="-235.841" font-family="Helvetica,sans-Serif" font-size="10.00">KuszkAPI::Containers</text>
<text text-anchor="middle" x="419" y="-224.841" font-family="Helvetica,sans-Serif" font-size="10.00">::List&lt; tnData &gt;</text>
</a>
</g>
</g>
<!-- Node9&#45;&gt;Node18 -->
<g id="edge33" class="edge"><title>Node9&#45;&gt;Node18</title>
<path fill="none" stroke="midnightblue" d="M246.803,-319.778C276.938,-302.657 321.874,-277.725 362,-257.841 368.773,-254.485 376.097,-251.067 383.145,-247.88"/>
<polygon fill="midnightblue" stroke="midnightblue" points="244.901,-316.833 237.947,-324.827 248.368,-322.915 244.901,-316.833"/>
</g>
<!-- Node21 -->
<g id="node21" class="node"><title>Node21</title>
<g id="a_node21"><a xlink:href="class_kuszk_a_p_i_1_1_containers_1_1_list.html" target="_top" xlink:title="KuszkAPI::Containers\l::List\&lt; tnKey \&gt;">
<polygon fill="white" stroke="black" points="626.5,-245.841 626.5,-275.841 739.5,-275.841 739.5,-245.841 626.5,-245.841"/>
<text text-anchor="start" x="634.5" y="-263.841" font-family="Helvetica,sans-Serif" font-size="10.00">KuszkAPI::Containers</text>
<text text-anchor="middle" x="683" y="-252.841" font-family="Helvetica,sans-Serif" font-size="10.00">::List&lt; tnKey &gt;</text>
</a>
</g>
</g>
<!-- Node9&#45;&gt;Node21 -->
<g id="edge40" class="edge"><title>Node9&#45;&gt;Node21</title>
<path fill="none" stroke="midnightblue" d="M277.918,-330.953C384.688,-316.538 584.386,-289.494 592,-287.841 606.666,-284.658 622.415,-280.275 636.574,-275.967"/>
<polygon fill="midnightblue" stroke="midnightblue" points="277.327,-327.501 267.885,-332.307 278.263,-334.438 277.327,-327.501"/>
</g>
<!-- Node10&#45;&gt;Node8 -->
<g id="edge10" class="edge"><title>Node10&#45;&gt;Node8</title>
<path fill="none" stroke="#9a32cd" stroke-dasharray="5,2" d="M482.948,-568.091C516.546,-557.239 557.883,-541.624 592,-521.841 601.009,-516.617 601.595,-512.99 610,-506.841 621.971,-498.083 635.577,-489.148 647.712,-481.51"/>
<polygon fill="#9a32cd" stroke="#9a32cd" points="481.716,-564.81 473.238,-571.165 483.829,-571.484 481.716,-564.81"/>
<text text-anchor="middle" x="543" y="-577.841" font-family="Helvetica,sans-Serif" font-size="10.00"> tAbstract</text>
<text text-anchor="middle" x="543" y="-566.841" font-family="Helvetica,sans-Serif" font-size="10.00">ptBegin</text>
</g>
<!-- Node11&#45;&gt;Node8 -->
<g id="edge14" class="edge"><title>Node11&#45;&gt;Node8</title>
<path fill="none" stroke="orange" stroke-dasharray="5,2" d="M485.714,-462.897C488.506,-462.495 491.277,-462.139 494,-461.841 532.123,-457.664 574.856,-457.111 609.935,-457.735"/>
<polygon fill="orange" stroke="orange" points="484.873,-459.488 475.558,-464.535 485.987,-466.398 484.873,-459.488"/>
<text text-anchor="start" x="494" y="-475.841" font-family="Helvetica,sans-Serif" font-size="10.00"> &lt; KuszkAPI::Sockets</text>
<text text-anchor="middle" x="543" y="-464.841" font-family="Helvetica,sans-Serif" font-size="10.00">::Client * &gt;</text>
</g>
<!-- Node11&#45;&gt;Node14 -->
<g id="edge25" class="edge"><title>Node11&#45;&gt;Node14</title>
<path fill="none" stroke="orange" stroke-dasharray="5,2" d="M485.85,-487.301C518.014,-492.338 557.192,-499.094 592,-506.841 604.822,-509.695 618.54,-513.245 631.304,-516.766"/>
<polygon fill="orange" stroke="orange" points="486.086,-483.796 475.669,-485.726 485.016,-490.713 486.086,-483.796"/>
<text text-anchor="middle" x="543" y="-509.841" font-family="Helvetica,sans-Serif" font-size="10.00"> &lt; tnData * &gt;</text>
</g>
<!-- Node12 -->
<g id="node12" class="node"><title>Node12</title>
<polygon fill="white" stroke="#bfbfbf" points="188.5,-512.341 188.5,-531.341 233.5,-531.341 233.5,-512.341 188.5,-512.341"/>
<text text-anchor="middle" x="211" y="-519.341" font-family="Helvetica,sans-Serif" font-size="10.00">tnData</text>
</g>
<!-- Node12&#45;&gt;Node11 -->
<g id="edge16" class="edge"><title>Node12&#45;&gt;Node11</title>
<path fill="none" stroke="#9a32cd" stroke-dasharray="5,2" d="M243.91,-515.109C270.649,-509.459 309.824,-501.161 344,-493.841 349.912,-492.575 356.089,-491.247 362.244,-489.921"/>
<polygon fill="#9a32cd" stroke="#9a32cd" points="243.021,-511.719 233.96,-517.21 244.468,-518.568 243.021,-511.719"/>
<text text-anchor="middle" x="319" y="-518.841" font-family="Helvetica,sans-Serif" font-size="10.00"> tAbstract</text>
<text text-anchor="middle" x="319" y="-507.841" font-family="Helvetica,sans-Serif" font-size="10.00">ptBegin</text>
</g>
<!-- Node12&#45;&gt;Node14 -->
<g id="edge23" class="edge"><title>Node12&#45;&gt;Node14</title>
<path fill="none" stroke="#9a32cd" stroke-dasharray="5,2" d="M243.475,-526.091C258.704,-527.944 277.27,-529.904 294,-530.841 412.202,-537.461 550.977,-535.463 626.367,-533.559"/>
<polygon fill="#9a32cd" stroke="#9a32cd" points="243.888,-522.615 233.529,-524.84 243.014,-529.561 243.888,-522.615"/>
<text text-anchor="middle" x="419" y="-549.841" font-family="Helvetica,sans-Serif" font-size="10.00"> tAbstract</text>
<text text-anchor="middle" x="419" y="-538.841" font-family="Helvetica,sans-Serif" font-size="10.00">ptBegin</text>
</g>
<!-- Node12&#45;&gt;Node18 -->
<g id="edge34" class="edge"><title>Node12&#45;&gt;Node18</title>
<path fill="none" stroke="#9a32cd" stroke-dasharray="5,2" d="M243.619,-516.792C255.406,-513.348 267.88,-507.561 276,-497.841 304.671,-463.52 280.161,-441.367 294,-398.841 294.168,-398.324 361.61,-258.22 362,-257.841 365.896,-254.058 370.462,-250.791 375.277,-247.983"/>
<polygon fill="#9a32cd" stroke="#9a32cd" points="242.446,-513.476 233.566,-519.255 244.111,-520.275 242.446,-513.476"/>
<text text-anchor="middle" x="319" y="-401.841" font-family="Helvetica,sans-Serif" font-size="10.00"> tAbstract</text>
</g>
<!-- Node13&#45;&gt;Node7 -->
<g id="edge19" class="edge"><title>Node13&#45;&gt;Node7</title>
<path fill="none" stroke="orange" stroke-dasharray="5,2" d="M962.75,-667.671C1001.72,-661.05 1050.96,-652.685 1089.99,-646.056"/>
<polygon fill="orange" stroke="orange" points="961.835,-664.276 952.562,-669.402 963.007,-671.178 961.835,-664.276"/>
<text text-anchor="start" x="974" y="-678.841" font-family="Helvetica,sans-Serif" font-size="10.00"> &lt; KuszkAPI::Sockets</text>
<text text-anchor="middle" x="1023" y="-667.841" font-family="Helvetica,sans-Serif" font-size="10.00">::Client &gt;</text>
</g>
<!-- Node14&#45;&gt;Node13 -->
<g id="edge21" class="edge"><title>Node14&#45;&gt;Node13</title>
<path fill="none" stroke="#9a32cd" stroke-dasharray="5,2" d="M714.173,-552.862C757.291,-582.901 835.492,-637.383 873.333,-663.746"/>
<polygon fill="#9a32cd" stroke="#9a32cd" points="715.992,-549.864 705.786,-547.019 711.99,-555.607 715.992,-549.864"/>
<text text-anchor="middle" x="796" y="-625.841" font-family="Helvetica,sans-Serif" font-size="10.00"> vPointers</text>
</g>
<!-- Node15&#45;&gt;Node6 -->
<g id="edge26" class="edge"><title>Node15&#45;&gt;Node6</title>
<path fill="none" stroke="#9a32cd" stroke-dasharray="5,2" d="M725.225,-100.402C821.336,-147.481 1064.22,-275.119 1224,-434.841 1280.62,-491.443 1327.12,-575.642 1346.84,-614.204"/>
<polygon fill="#9a32cd" stroke="#9a32cd" points="726.644,-97.2 716.121,-95.9688 723.579,-103.494 726.644,-97.2"/>
<text text-anchor="middle" x="1023" y="-307.841" font-family="Helvetica,sans-Serif" font-size="10.00"> lKey</text>
</g>
<!-- Node16 -->
<g id="node16" class="node"><title>Node16</title>
<g id="a_node16"><a xlink:href="class_kuszk_a_p_i_1_1_containers_1_1_list.html#struct_kuszk_a_p_i_1_1_containers_1_1_list_1_1_item_data" target="_top" xlink:title="Struktura przechowująca wskaźnik na element listy oraz wskaźnik na kolejny obiekt. ">
<polygon fill="white" stroke="black" points="146,-159.841 146,-189.841 276,-189.841 276,-159.841 146,-159.841"/>
<text text-anchor="start" x="154" y="-177.841" font-family="Helvetica,sans-Serif" font-size="10.00">KuszkAPI::Containers</text>
<text text-anchor="middle" x="211" y="-166.841" font-family="Helvetica,sans-Serif" font-size="10.00">::List&lt; tnData &gt;::ItemData</text>
</a>
</g>
</g>
<!-- Node16&#45;&gt;Node15 -->
<g id="edge29" class="edge"><title>Node16&#45;&gt;Node15</title>
<path fill="none" stroke="#9a32cd" stroke-dasharray="5,2" d="M241.513,-153.937C270.607,-134.62 317.107,-107.113 362,-94.8411 451.982,-70.2436 561.441,-71.8709 626.215,-75.9159"/>
<polygon fill="#9a32cd" stroke="#9a32cd" points="239.392,-151.146 233.063,-159.643 243.309,-156.947 239.392,-151.146"/>
<text text-anchor="middle" x="419" y="-108.841" font-family="Helvetica,sans-Serif" font-size="10.00"> ptLast</text>
<text text-anchor="middle" x="419" y="-97.8411" font-family="Helvetica,sans-Serif" font-size="10.00">ptBegin</text>
</g>
<!-- Node16&#45;&gt;Node16 -->
<g id="edge30" class="edge"><title>Node16&#45;&gt;Node16</title>
<path fill="none" stroke="#9a32cd" stroke-dasharray="5,2" d="M193.146,-200.439C195.586,-204.811 201.537,-207.841 211,-207.841 226.938,-207.841 232.914,-199.247 228.93,-190.116"/>
<polygon fill="#9a32cd" stroke="#9a32cd" points="196.644,-200.09 193.07,-190.116 189.644,-200.142 196.644,-200.09"/>
<text text-anchor="middle" x="211" y="-210.841" font-family="Helvetica,sans-Serif" font-size="10.00"> ptNext</text>
</g>
<!-- Node16&#45;&gt;Node18 -->
<g id="edge35" class="edge"><title>Node16&#45;&gt;Node18</title>
<path fill="none" stroke="#9a32cd" stroke-dasharray="5,2" d="M275.212,-192.639C303.803,-200.689 337.228,-210.099 364.548,-217.791"/>
<polygon fill="#9a32cd" stroke="#9a32cd" points="275.892,-189.194 265.318,-189.853 273.995,-195.932 275.892,-189.194"/>
<text text-anchor="middle" x="319" y="-224.841" font-family="Helvetica,sans-Serif" font-size="10.00"> ptLast</text>
<text text-anchor="middle" x="319" y="-213.841" font-family="Helvetica,sans-Serif" font-size="10.00">ptBegin</text>
</g>
<!-- Node16&#45;&gt;Node21 -->
<g id="edge41" class="edge"><title>Node16&#45;&gt;Node21</title>
<path fill="none" stroke="#9a32cd" stroke-dasharray="5,2" d="M286.454,-164.905C365.013,-157.375 491.16,-153.796 592,-190.841 623.215,-202.308 652.22,-228.871 668.473,-245.778"/>
<polygon fill="#9a32cd" stroke="#9a32cd" points="285.767,-161.456 276.167,-165.94 286.467,-168.421 285.767,-161.456"/>
<text text-anchor="middle" x="419" y="-178.841" font-family="Helvetica,sans-Serif" font-size="10.00"> ptLast</text>
<text text-anchor="middle" x="419" y="-167.841" font-family="Helvetica,sans-Serif" font-size="10.00">ptBegin</text>
</g>
<!-- Node17 -->
<g id="node17" class="node"><title>Node17</title>
<polygon fill="white" stroke="#bfbfbf" points="9,-165.341 9,-184.341 61,-184.341 61,-165.341 9,-165.341"/>
<text text-anchor="middle" x="35" y="-172.341" font-family="Helvetica,sans-Serif" font-size="10.00">tnData *</text>
</g>
<!-- Node17&#45;&gt;Node16 -->
<g id="edge31" class="edge"><title>Node17&#45;&gt;Node16</title>
<path fill="none" stroke="#9a32cd" stroke-dasharray="5,2" d="M71.5495,-174.841C92.9527,-174.841 120.84,-174.841 145.972,-174.841"/>
<polygon fill="#9a32cd" stroke="#9a32cd" points="71.3011,-171.341 61.3011,-174.841 71.3011,-178.341 71.3011,-171.341"/>
<text text-anchor="middle" x="108" y="-177.841" font-family="Helvetica,sans-Serif" font-size="10.00"> ptData</text>
</g>
<!-- Node18&#45;&gt;Node15 -->
<g id="edge32" class="edge"><title>Node18&#45;&gt;Node15</title>
<path fill="none" stroke="orange" stroke-dasharray="5,2" d="M461.862,-213.53C497.27,-196.703 548.964,-170.962 592,-144.841 617.241,-129.521 644.683,-109.473 662.543,-95.9288"/>
<polygon fill="orange" stroke="orange" points="460.324,-210.386 452.778,-217.822 463.314,-216.715 460.324,-210.386"/>
<text text-anchor="middle" x="543" y="-200.841" font-family="Helvetica,sans-Serif" font-size="10.00"> &lt; SOCKET &gt;</text>
</g>
<!-- Node18&#45;&gt;Node21 -->
<g id="edge43" class="edge"><title>Node18&#45;&gt;Node21</title>
<path fill="none" stroke="orange" stroke-dasharray="5,2" d="M485.704,-239.863C528.95,-244.485 584.952,-250.47 626.066,-254.863"/>
<polygon fill="orange" stroke="orange" points="485.879,-236.362 475.563,-238.779 485.135,-243.322 485.879,-236.362"/>
<text text-anchor="middle" x="543" y="-254.841" font-family="Helvetica,sans-Serif" font-size="10.00"> &lt; tnKey &gt;</text>
</g>
<!-- Node19&#45;&gt;Node6 -->
<g id="edge37" class="edge"><title>Node19&#45;&gt;Node6</title>
<path fill="none" stroke="orange" stroke-dasharray="5,2" d="M925.218,-309.127C1007.76,-371.393 1248.05,-552.657 1329.58,-614.153"/>
<polygon fill="orange" stroke="orange" points="927.153,-306.202 917.061,-302.974 922.937,-311.791 927.153,-306.202"/>
<text text-anchor="start" x="1108" y="-548.841" font-family="Helvetica,sans-Serif" font-size="10.00"> &lt; KuszkAPI::Sockets</text>
<text text-anchor="middle" x="1157" y="-537.841" font-family="Helvetica,sans-Serif" font-size="10.00">::Client, SOCKET &gt;</text>
</g>
<!-- Node20 -->
<g id="node20" class="node"><title>Node20</title>
<polygon fill="white" stroke="#bfbfbf" points="643,-295.341 643,-314.341 723,-314.341 723,-295.341 643,-295.341"/>
<text text-anchor="middle" x="683" y="-302.341" font-family="Helvetica,sans-Serif" font-size="10.00">Box&lt; tnData &gt;</text>
</g>
<!-- Node20&#45;&gt;Node19 -->
<g id="edge38" class="edge"><title>Node20&#45;&gt;Node19</title>
<path fill="none" stroke="#9a32cd" stroke-dasharray="5,2" d="M733.283,-300.87C764.131,-298.385 804.037,-295.17 836.489,-292.555"/>
<polygon fill="#9a32cd" stroke="#9a32cd" points="732.88,-297.391 723.193,-301.683 733.442,-304.369 732.88,-297.391"/>
<text text-anchor="middle" x="796" y="-300.841" font-family="Helvetica,sans-Serif" font-size="10.00"> bData</text>
</g>
<!-- Node21&#45;&gt;Node19 -->
<g id="edge39" class="edge"><title>Node21&#45;&gt;Node19</title>
<path fill="none" stroke="#9a32cd" stroke-dasharray="5,2" d="M749.718,-269.251C777.448,-272.799 809.474,-276.897 836.389,-280.341"/>
<polygon fill="#9a32cd" stroke="#9a32cd" points="750.077,-265.768 739.714,-267.97 749.189,-272.711 750.077,-265.768"/>
<text text-anchor="middle" x="796" y="-280.841" font-family="Helvetica,sans-Serif" font-size="10.00"> lKey</text>
</g>
<!-- Node22 -->
<g id="node22" class="node"><title>Node22</title>
<polygon fill="white" stroke="#bfbfbf" points="398,-267.341 398,-286.341 440,-286.341 440,-267.341 398,-267.341"/>
<text text-anchor="middle" x="419" y="-274.341" font-family="Helvetica,sans-Serif" font-size="10.00">tnKey</text>
</g>
<!-- Node22&#45;&gt;Node21 -->
<g id="edge42" class="edge"><title>Node22&#45;&gt;Node21</title>
<path fill="none" stroke="#9a32cd" stroke-dasharray="5,2" d="M450.226,-274.995C493.21,-272.37 572.733,-267.514 626.498,-264.231"/>
<polygon fill="#9a32cd" stroke="#9a32cd" points="449.892,-271.509 440.124,-275.612 450.318,-278.496 449.892,-271.509"/>
<text text-anchor="middle" x="543" y="-275.841" font-family="Helvetica,sans-Serif" font-size="10.00"> tAbstract</text>
</g>
</g>
</svg>
        <g id="navigator" transform="translate(0 0)" fill="#404254">
                <rect fill="#f2f5e9" fill-opacity="0.5" stroke="#606060" stroke-width=".5" x="0" y="0" width="60" height="60"/>
                <use id="zoomplus" xlink:href="#zoomPlus" x="17" y="9" onmousedown="handleZoom(evt,'in')"/>
                <use id="zoomminus" xlink:href="#zoomMin" x="42" y="9" onmousedown="handleZoom(evt,'out')"/>
                <use id="reset" xlink:href="#resetDef" x="30" y="36" onmousedown="handleReset()"/>
                <g id="arrowUp" xlink:href="#dirArrow" transform="translate(30 24)" onmousedown="handlePan(0,-1)">
                  <use xlink:href="#rim" fill="#404040">
                        <set attributeName="fill" to="#808080" begin="arrowUp.mouseover" end="arrowUp.mouseout"/>
                  </use>
                  <path fill="none" stroke="white" stroke-width="1.5" d="M0,-3.0v7 M-2.5,-0.5L0,-3.0L2.5,-0.5"/>
                </g>
                <g id="arrowRight" xlink:href="#dirArrow" transform="rotate(90) translate(36 -43)" onmousedown="handlePan(1,0)">
                  <use xlink:href="#rim" fill="#404040">
                        <set attributeName="fill" to="#808080" begin="arrowRight.mouseover" end="arrowRight.mouseout"/>
                  </use>
                  <path fill="none" stroke="white" stroke-width="1.5" d="M0,-3.0v7 M-2.5,-0.5L0,-3.0L2.5,-0.5"/>
                </g>
                <g id="arrowDown" xlink:href="#dirArrow" transform="rotate(180) translate(-30 -48)" onmousedown="handlePan(0,1)">
                  <use xlink:href="#rim" fill="#404040">
                        <set attributeName="fill" to="#808080" begin="arrowDown.mouseover" end="arrowDown.mouseout"/>
                  </use>
                  <path fill="none" stroke="white" stroke-width="1.5" d="M0,-3.0v7 M-2.5,-0.5L0,-3.0L2.5,-0.5"/>
                </g>
                <g id="arrowLeft" xlink:href="#dirArrow" transform="rotate(270) translate(-36 17)" onmousedown="handlePan(-1,0)">
                  <use xlink:href="#rim" fill="#404040">
                        <set attributeName="fill" to="#808080" begin="arrowLeft.mouseover" end="arrowLeft.mouseout"/>
                  </use>
                  <path fill="none" stroke="white" stroke-width="1.5" d="M0,-3.0v7 M-2.5,-0.5L0,-3.0L2.5,-0.5"/>
                </g>
        </g>
        <svg viewBox="0 0 15 15" width="100%" height="30px" preserveAspectRatio="xMaxYMin meet">
         <g id="arrow_out" transform="scale(0.3 0.3)">
          <a xlink:href="class_kuszk_a_p_i_1_1_sockets_1_1_server__coll__graph_org.svg" target="_base">
           <rect id="button" ry="5" rx="5" y="6" x="6" height="38" width="38"
                fill="#f2f5e9" fill-opacity="0.5" stroke="#606060" stroke-width="1.0"/>
           <path id="arrow"
             d="M 11.500037,31.436501 C 11.940474,20.09759 22.043105,11.32322 32.158766,21.979434 L 37.068811,17.246167 C 37.068811,17.246167 37.088388,32 37.088388,32 L 22.160133,31.978069 C 22.160133,31.978069 26.997745,27.140456 26.997745,27.140456 C 18.528582,18.264221 13.291696,25.230495 11.500037,31.436501 z"
             style="fill:#404040;"/>
          </a>
         </g>
        </svg>
</svg>
