<?xml version="1.0" encoding="UTF-8" standalone="no"?>
<!DOCTYPE svg PUBLIC "-//W3C//DTD SVG 1.1//EN"
 "http://www.w3.org/Graphics/SVG/1.1/DTD/svg11.dtd">
<!-- Generated by graphviz version 2.36.0 (20140111.2315)
 -->
<!-- Title: KuszkAPI::Forms::Region Pages: 1 -->
<!--zoomable 362 -->
<svg id="main" version="1.1" xmlns="http://www.w3.org/2000/svg" xmlns:xlink="http://www.w3.org/1999/xlink" xml:space="preserve" onload="init(evt)">
<style type="text/css"><![CDATA[
.edge:hover path { stroke: red; }
.edge:hover polygon { stroke: red; fill: red; }
]]></style>
<script type="text/javascript"><![CDATA[
var edges = document.getElementsByTagName('g');
if (edges && edges.length) {
  for (var i=0;i<edges.length;i++) {
    if (edges[i].id.substr(0,4)=='edge') {
      edges[i].setAttribute('class','edge');
    }
  }
}
]]></script>
        <defs>
                <circle id="rim" cx="0" cy="0" r="7"/>
                <circle id="rim2" cx="0" cy="0" r="3.5"/>
                <g id="zoomPlus">
                        <use xlink:href="#rim" fill="#404040">
                                <set attributeName="fill" to="#808080" begin="zoomplus.mouseover" end="zoomplus.mouseout"/>
                        </use>
                        <path d="M-4,0h8M0,-4v8" fill="none" stroke="white" stroke-width="1.5" pointer-events="none"/>
                </g>
                <g id="zoomMin">
                        <use xlink:href="#rim" fill="#404040">
                                <set attributeName="fill" to="#808080" begin="zoomminus.mouseover" end="zoomminus.mouseout"/>
                        </use>
                        <path d="M-4,0h8" fill="none" stroke="white" stroke-width="1.5" pointer-events="none"/>
                </g>
                <g id="dirArrow">
                        <path fill="none" stroke="white" stroke-width="1.5" d="M0,-3.0v7 M-2.5,-0.5L0,-3.0L2.5,-0.5"/>
                </g>
               <g id="resetDef">
                       <use xlink:href="#rim2" fill="#404040">
                               <set attributeName="fill" to="#808080" begin="reset.mouseover" end="reset.mouseout"/>
                       </use>
               </g>
        </defs>

<script type="text/javascript">
var viewWidth = 1474;
var viewHeight = 362;
var sectionId = 'dynsection-1';
</script>
<script xlink:href="svgpan.js"/>
<svg id="graph" class="graph">
<g id="viewport">
<title>KuszkAPI::Forms::Region</title>
<polygon fill="white" stroke="none" points="-4,4 -4,-358.054 1470,-358.054 1470,4 -4,4"/>
<!-- Node1 -->
<g id="node1" class="node"><title>Node1</title>
<polygon fill="#bfbfbf" stroke="black" points="1336,-160.5 1336,-179.5 1466,-179.5 1466,-160.5 1336,-160.5"/>
<text text-anchor="middle" x="1401" y="-167.5" font-family="Helvetica,sans-Serif" font-size="10.00">KuszkAPI::Forms::Region</text>
</g>
<!-- Node2 -->
<g id="node2" class="node"><title>Node2</title>
<g id="a_node2"><a xlink:href="class_kuszk_a_p_i_1_1_forms_1_1_gdi_object.html" target="_top" xlink:title="KuszkAPI::Forms::GdiObject\l\&lt; HRGN \&gt;">
<polygon fill="white" stroke="black" points="1154.5,-155 1154.5,-185 1297.5,-185 1297.5,-155 1154.5,-155"/>
<text text-anchor="start" x="1162.5" y="-173" font-family="Helvetica,sans-Serif" font-size="10.00">KuszkAPI::Forms::GdiObject</text>
<text text-anchor="middle" x="1226" y="-162" font-family="Helvetica,sans-Serif" font-size="10.00">&lt; HRGN &gt;</text>
</a>
</g>
</g>
<!-- Node2&#45;&gt;Node1 -->
<g id="edge1" class="edge"><title>Node2&#45;&gt;Node1</title>
<path fill="none" stroke="midnightblue" d="M1307.98,-170C1317.35,-170 1326.81,-170 1335.91,-170"/>
<polygon fill="midnightblue" stroke="midnightblue" points="1307.86,-166.5 1297.86,-170 1307.86,-173.5 1307.86,-166.5"/>
</g>
<!-- Node3 -->
<g id="node3" class="node"><title>Node3</title>
<g id="a_node3"><a xlink:href="class_kuszk_a_p_i_1_1_containers_1_1_box.html" target="_top" xlink:title="KuszkAPI::Containers\l::Box\&lt; HRGN \&gt;">
<polygon fill="white" stroke="black" points="939.5,-182 939.5,-212 1052.5,-212 1052.5,-182 939.5,-182"/>
<text text-anchor="start" x="947.5" y="-200" font-family="Helvetica,sans-Serif" font-size="10.00">KuszkAPI::Containers</text>
<text text-anchor="middle" x="996" y="-189" font-family="Helvetica,sans-Serif" font-size="10.00">::Box&lt; HRGN &gt;</text>
</a>
</g>
</g>
<!-- Node3&#45;&gt;Node2 -->
<g id="edge2" class="edge"><title>Node3&#45;&gt;Node2</title>
<path fill="none" stroke="#9a32cd" stroke-dasharray="5,2" d="M1063.07,-189.176C1091.66,-185.791 1125.16,-181.823 1154.26,-178.378"/>
<polygon fill="#9a32cd" stroke="#9a32cd" points="1062.29,-185.743 1052.78,-190.395 1063.12,-192.695 1062.29,-185.743"/>
<text text-anchor="middle" x="1111" y="-189" font-family="Helvetica,sans-Serif" font-size="10.00"> bObject</text>
</g>
<!-- Node4 -->
<g id="node4" class="node"><title>Node4</title>
<g id="a_node4"><a xlink:href="class_kuszk_a_p_i_1_1_containers_1_1_vector.html" target="_top" xlink:title="KuszkAPI::Containers\l::Vector\&lt; HRGN * \&gt;">
<polygon fill="white" stroke="black" points="530.5,-279 530.5,-309 643.5,-309 643.5,-279 530.5,-279"/>
<text text-anchor="start" x="538.5" y="-297" font-family="Helvetica,sans-Serif" font-size="10.00">KuszkAPI::Containers</text>
<text text-anchor="middle" x="587" y="-286" font-family="Helvetica,sans-Serif" font-size="10.00">::Vector&lt; HRGN * &gt;</text>
</a>
</g>
</g>
<!-- Node4&#45;&gt;Node3 -->
<g id="edge3" class="edge"><title>Node4&#45;&gt;Node3</title>
<path fill="none" stroke="#9a32cd" stroke-dasharray="5,2" d="M653.727,-280.619C718.238,-267.182 819.29,-245.321 906,-223 918.939,-219.669 932.843,-215.765 945.727,-212.01"/>
<polygon fill="#9a32cd" stroke="#9a32cd" points="652.774,-277.242 643.695,-282.702 654.197,-284.096 652.774,-277.242"/>
<text text-anchor="middle" x="781" y="-269" font-family="Helvetica,sans-Serif" font-size="10.00"> vPointers</text>
</g>
<!-- Node5 -->
<g id="node5" class="node"><title>Node5</title>
<g id="a_node5"><a xlink:href="class_kuszk_a_p_i_1_1_containers_1_1_container.html" target="_top" xlink:title="Implementacja bazy dla modułu kontenerów. ">
<polygon fill="white" stroke="black" points="122.5,-171 122.5,-201 235.5,-201 235.5,-171 122.5,-171"/>
<text text-anchor="start" x="130.5" y="-189" font-family="Helvetica,sans-Serif" font-size="10.00">KuszkAPI::Containers</text>
<text text-anchor="middle" x="179" y="-178" font-family="Helvetica,sans-Serif" font-size="10.00">::Container</text>
</a>
</g>
</g>
<!-- Node5&#45;&gt;Node4 -->
<g id="edge4" class="edge"><title>Node5&#45;&gt;Node4</title>
<path fill="none" stroke="midnightblue" d="M196.25,-209.551C219.723,-241.246 266.449,-296.168 322,-318 396.102,-347.122 490.614,-325.923 544.11,-309.116"/>
<polygon fill="midnightblue" stroke="midnightblue" points="198.958,-207.322 190.259,-201.274 193.288,-211.427 198.958,-207.322"/>
</g>
<!-- Node9 -->
<g id="node9" class="node"><title>Node9</title>
<g id="a_node9"><a xlink:href="class_kuszk_a_p_i_1_1_containers_1_1_vector.html" target="_top" xlink:title="KuszkAPI::Containers\l::Vector\&lt; tnData \&gt;">
<polygon fill="white" stroke="black" points="322.5,-126 322.5,-156 435.5,-156 435.5,-126 322.5,-126"/>
<text text-anchor="start" x="330.5" y="-144" font-family="Helvetica,sans-Serif" font-size="10.00">KuszkAPI::Containers</text>
<text text-anchor="middle" x="379" y="-133" font-family="Helvetica,sans-Serif" font-size="10.00">::Vector&lt; tnData &gt;</text>
</a>
</g>
</g>
<!-- Node5&#45;&gt;Node9 -->
<g id="edge10" class="edge"><title>Node5&#45;&gt;Node9</title>
<path fill="none" stroke="midnightblue" d="M245.747,-171.057C270.583,-165.413 298.577,-159.051 322.394,-153.638"/>
<polygon fill="midnightblue" stroke="midnightblue" points="244.657,-167.716 235.681,-173.345 246.208,-174.542 244.657,-167.716"/>
</g>
<!-- Node12 -->
<g id="node12" class="node"><title>Node12</title>
<g id="a_node12"><a xlink:href="class_kuszk_a_p_i_1_1_containers_1_1_vector.html" target="_top" xlink:title="KuszkAPI::Containers\l::Vector\&lt; tnData * \&gt;">
<polygon fill="white" stroke="black" points="530.5,-126 530.5,-156 643.5,-156 643.5,-126 530.5,-126"/>
<text text-anchor="start" x="538.5" y="-144" font-family="Helvetica,sans-Serif" font-size="10.00">KuszkAPI::Containers</text>
<text text-anchor="middle" x="587" y="-133" font-family="Helvetica,sans-Serif" font-size="10.00">::Vector&lt; tnData * &gt;</text>
</a>
</g>
</g>
<!-- Node5&#45;&gt;Node12 -->
<g id="edge17" class="edge"><title>Node5&#45;&gt;Node12</title>
<path fill="none" stroke="midnightblue" d="M245.534,-182.746C312.74,-178.785 420.142,-170.723 512,-156 517.954,-155.046 524.157,-153.95 530.329,-152.795"/>
<polygon fill="midnightblue" stroke="midnightblue" points="245.291,-179.254 235.509,-183.324 245.694,-186.242 245.291,-179.254"/>
</g>
<!-- Node6 -->
<g id="node6" class="node"><title>Node6</title>
<g id="a_node6"><a xlink:href="namespace_3global_scope_4.html#classunsigned" target="_top" xlink:title="unsigned">
<polygon fill="white" stroke="black" points="0,-148.5 0,-167.5 56,-167.5 56,-148.5 0,-148.5"/>
<text text-anchor="middle" x="28" y="-155.5" font-family="Helvetica,sans-Serif" font-size="10.00">unsigned</text>
</a>
</g>
</g>
<!-- Node6&#45;&gt;Node3 -->
<g id="edge13" class="edge"><title>Node6&#45;&gt;Node3</title>
<path fill="none" stroke="#9a32cd" stroke-dasharray="5,2" d="M44.5206,-175.217C52.5916,-183.216 63.0466,-192.216 74,-198 137.844,-231.711 163.805,-210.618 236,-210 499.241,-207.746 813.782,-201.095 939.298,-198.281"/>
<polygon fill="#9a32cd" stroke="#9a32cd" points="46.7633,-172.499 37.314,-167.707 41.7126,-177.346 46.7633,-172.499"/>
<text text-anchor="middle" x="483" y="-211" font-family="Helvetica,sans-Serif" font-size="10.00"> uIlosc</text>
</g>
<!-- Node6&#45;&gt;Node4 -->
<g id="edge8" class="edge"><title>Node6&#45;&gt;Node4</title>
<path fill="none" stroke="#9a32cd" stroke-dasharray="5,2" d="M33.5811,-177.542C39.4978,-198.673 51.7793,-232.008 74,-252 160.946,-330.225 206.74,-320.157 322,-340 405.221,-354.327 430.837,-362.317 512,-339 532.666,-333.063 553.334,-319.717 567.554,-309.093"/>
<polygon fill="#9a32cd" stroke="#9a32cd" points="36.9387,-176.545 31.0483,-167.739 30.1613,-178.297 36.9387,-176.545"/>
<text text-anchor="middle" x="279" y="-341" font-family="Helvetica,sans-Serif" font-size="10.00"> uDataSize</text>
</g>
<!-- Node6&#45;&gt;Node5 -->
<g id="edge5" class="edge"><title>Node6&#45;&gt;Node5</title>
<path fill="none" stroke="#9a32cd" stroke-dasharray="5,2" d="M66.3963,-165.028C83.354,-168.214 103.756,-172.048 122.452,-175.561"/>
<polygon fill="#9a32cd" stroke="#9a32cd" points="66.8033,-161.543 56.3289,-163.136 65.5104,-168.422 66.8033,-161.543"/>
<text text-anchor="middle" x="89" y="-186" font-family="Helvetica,sans-Serif" font-size="10.00"> uIlosc</text>
<text text-anchor="middle" x="89" y="-175" font-family="Helvetica,sans-Serif" font-size="10.00">uMode</text>
</g>
<!-- Node6&#45;&gt;Node9 -->
<g id="edge12" class="edge"><title>Node6&#45;&gt;Node9</title>
<path fill="none" stroke="#9a32cd" stroke-dasharray="5,2" d="M66.3225,-154.355C83.2967,-152.809 103.648,-151.111 122,-150 190.916,-145.827 270.395,-143.406 322.28,-142.146"/>
<polygon fill="#9a32cd" stroke="#9a32cd" points="65.8718,-150.881 56.2382,-155.291 66.519,-157.851 65.8718,-150.881"/>
<text text-anchor="middle" x="179" y="-153" font-family="Helvetica,sans-Serif" font-size="10.00"> uDataSize</text>
</g>
<!-- Node11 -->
<g id="node11" class="node"><title>Node11</title>
<g id="a_node11"><a xlink:href="class_kuszk_a_p_i_1_1_containers_1_1_box.html" target="_top" xlink:title="Implementacja szablonu pudełka dla modułu kontenerów. ">
<polygon fill="white" stroke="black" points="724.5,-144 724.5,-174 837.5,-174 837.5,-144 724.5,-144"/>
<text text-anchor="start" x="732.5" y="-162" font-family="Helvetica,sans-Serif" font-size="10.00">KuszkAPI::Containers</text>
<text text-anchor="middle" x="781" y="-151" font-family="Helvetica,sans-Serif" font-size="10.00">::Box&lt; tnData &gt;</text>
</a>
</g>
</g>
<!-- Node6&#45;&gt;Node11 -->
<g id="edge15" class="edge"><title>Node6&#45;&gt;Node11</title>
<path fill="none" stroke="#9a32cd" stroke-dasharray="5,2" d="M36.4328,-138.656C54.0439,-96.4808 102.574,-0 178,-0 178,-0 178,-0 588,-0 672.855,-0 653.915,-86.1618 724,-134 729.364,-137.661 735.352,-140.997 741.361,-143.955"/>
<polygon fill="#9a32cd" stroke="#9a32cd" points="33.1119,-137.533 32.624,-148.116 39.6054,-140.147 33.1119,-137.533"/>
<text text-anchor="middle" x="379" y="-3" font-family="Helvetica,sans-Serif" font-size="10.00"> uIlosc</text>
</g>
<!-- Node6&#45;&gt;Node12 -->
<g id="edge19" class="edge"><title>Node6&#45;&gt;Node12</title>
<path fill="none" stroke="#9a32cd" stroke-dasharray="5,2" d="M40.6966,-139.727C56.1791,-117.435 85.7912,-80.8837 122,-66 282.73,0.0683684 348.658,-34.6823 512,-94 532.457,-101.429 553.149,-115.224 567.431,-125.954"/>
<polygon fill="#9a32cd" stroke="#9a32cd" points="37.6089,-138.048 34.9483,-148.303 43.4235,-141.945 37.6089,-138.048"/>
<text text-anchor="middle" x="279" y="-35" font-family="Helvetica,sans-Serif" font-size="10.00"> uDataSize</text>
</g>
<!-- Node7 -->
<g id="node7" class="node"><title>Node7</title>
<g id="a_node7"><a xlink:href="namespace_3global_scope_4.html#class_h_r_g_n_01_5_5" target="_top" xlink:title="HRGN **">
<polygon fill="white" stroke="black" points="351.5,-289.5 351.5,-308.5 406.5,-308.5 406.5,-289.5 351.5,-289.5"/>
<text text-anchor="middle" x="379" y="-296.5" font-family="Helvetica,sans-Serif" font-size="10.00">HRGN **</text>
</a>
</g>
</g>
<!-- Node7&#45;&gt;Node4 -->
<g id="edge6" class="edge"><title>Node7&#45;&gt;Node4</title>
<path fill="none" stroke="#9a32cd" stroke-dasharray="5,2" d="M416.602,-298.112C448.099,-297.347 494.032,-296.232 530.124,-295.356"/>
<polygon fill="#9a32cd" stroke="#9a32cd" points="416.421,-294.615 406.509,-298.357 416.591,-301.613 416.421,-294.615"/>
<text text-anchor="middle" x="483" y="-301" font-family="Helvetica,sans-Serif" font-size="10.00"> ptBegin</text>
</g>
<!-- Node8 -->
<g id="node8" class="node"><title>Node8</title>
<g id="a_node8"><a xlink:href="namespace_3global_scope_4.html#class_h_r_g_n_01_5" target="_top" xlink:title="HRGN *">
<polygon fill="white" stroke="black" points="353.5,-251.5 353.5,-270.5 404.5,-270.5 404.5,-251.5 353.5,-251.5"/>
<text text-anchor="middle" x="379" y="-258.5" font-family="Helvetica,sans-Serif" font-size="10.00">HRGN *</text>
</a>
</g>
</g>
<!-- Node8&#45;&gt;Node4 -->
<g id="edge7" class="edge"><title>Node8&#45;&gt;Node4</title>
<path fill="none" stroke="#9a32cd" stroke-dasharray="5,2" d="M414.832,-266.049C441.466,-269.965 479.084,-275.616 512,-281 517.922,-281.969 524.104,-283.009 530.263,-284.064"/>
<polygon fill="#9a32cd" stroke="#9a32cd" points="415.244,-262.572 404.842,-264.586 414.23,-269.498 415.244,-262.572"/>
<text text-anchor="middle" x="483" y="-284" font-family="Helvetica,sans-Serif" font-size="10.00"> tAbstract</text>
</g>
<!-- Node9&#45;&gt;Node4 -->
<g id="edge9" class="edge"><title>Node9&#45;&gt;Node4</title>
<path fill="none" stroke="orange" stroke-dasharray="5,2" d="M397.927,-164.061C411.963,-181.138 432.629,-204.251 454,-221 471.314,-234.57 522.751,-261.768 556.068,-278.863"/>
<polygon fill="orange" stroke="orange" points="400.6,-161.801 391.596,-156.217 395.153,-166.197 400.6,-161.801"/>
<text text-anchor="middle" x="483" y="-259" font-family="Helvetica,sans-Serif" font-size="10.00"> &lt; HRGN * &gt;</text>
</g>
<!-- Node9&#45;&gt;Node12 -->
<g id="edge20" class="edge"><title>Node9&#45;&gt;Node12</title>
<path fill="none" stroke="orange" stroke-dasharray="5,2" d="M445.94,-141C473.093,-141 504.211,-141 530.209,-141"/>
<polygon fill="orange" stroke="orange" points="445.747,-137.5 435.747,-141 445.747,-144.5 445.747,-137.5"/>
<text text-anchor="middle" x="483" y="-144" font-family="Helvetica,sans-Serif" font-size="10.00"> &lt; tnData * &gt;</text>
</g>
<!-- Node10 -->
<g id="node10" class="node"><title>Node10</title>
<polygon fill="white" stroke="#bfbfbf" points="156.5,-75.5 156.5,-94.5 201.5,-94.5 201.5,-75.5 156.5,-75.5"/>
<text text-anchor="middle" x="179" y="-82.5" font-family="Helvetica,sans-Serif" font-size="10.00">tnData</text>
</g>
<!-- Node10&#45;&gt;Node9 -->
<g id="edge11" class="edge"><title>Node10&#45;&gt;Node9</title>
<path fill="none" stroke="#9a32cd" stroke-dasharray="5,2" d="M211.756,-86.3112C237.215,-88.0803 273.587,-92.2364 304,-102 306.506,-102.805 329.914,-115.21 349.741,-125.816"/>
<polygon fill="#9a32cd" stroke="#9a32cd" points="211.757,-82.8048 201.562,-85.6897 211.331,-89.7918 211.757,-82.8048"/>
<text text-anchor="middle" x="279" y="-116" font-family="Helvetica,sans-Serif" font-size="10.00"> tAbstract</text>
<text text-anchor="middle" x="279" y="-105" font-family="Helvetica,sans-Serif" font-size="10.00">ptBegin</text>
</g>
<!-- Node10&#45;&gt;Node12 -->
<g id="edge18" class="edge"><title>Node10&#45;&gt;Node12</title>
<path fill="none" stroke="#9a32cd" stroke-dasharray="5,2" d="M211.54,-85.5784C236.605,-86.0826 272.552,-86.905 304,-88 362.692,-90.0437 378.165,-83.8021 436,-94 474.835,-100.848 517.62,-114.94 547.523,-125.916"/>
<polygon fill="#9a32cd" stroke="#9a32cd" points="211.576,-82.0785 201.509,-85.3819 211.439,-89.0772 211.576,-82.0785"/>
<text text-anchor="middle" x="379" y="-108" font-family="Helvetica,sans-Serif" font-size="10.00"> tAbstract</text>
<text text-anchor="middle" x="379" y="-97" font-family="Helvetica,sans-Serif" font-size="10.00">ptBegin</text>
</g>
<!-- Node11&#45;&gt;Node3 -->
<g id="edge14" class="edge"><title>Node11&#45;&gt;Node3</title>
<path fill="none" stroke="orange" stroke-dasharray="5,2" d="M847.829,-170.744C877.127,-175.971 911.258,-182.06 939.27,-187.058"/>
<polygon fill="orange" stroke="orange" points="848.144,-167.245 837.685,-168.934 846.915,-174.136 848.144,-167.245"/>
<text text-anchor="middle" x="881" y="-184" font-family="Helvetica,sans-Serif" font-size="10.00"> &lt; HRGN &gt;</text>
</g>
<!-- Node12&#45;&gt;Node11 -->
<g id="edge16" class="edge"><title>Node12&#45;&gt;Node11</title>
<path fill="none" stroke="#9a32cd" stroke-dasharray="5,2" d="M653.553,-147.146C676.548,-149.301 702.143,-151.701 724.258,-153.774"/>
<polygon fill="#9a32cd" stroke="#9a32cd" points="653.817,-143.655 643.534,-146.206 653.164,-150.625 653.817,-143.655"/>
<text text-anchor="middle" x="684" y="-155" font-family="Helvetica,sans-Serif" font-size="10.00"> vPointers</text>
</g>
<!-- Node13 -->
<g id="node13" class="node"><title>Node13</title>
<g id="a_node13"><a xlink:href="class_kuszk_a_p_i_1_1_forms_1_1_gdi_object.html" target="_top" xlink:title="KuszkAPI::Forms::GdiObject\l\&lt; tnData \&gt;">
<polygon fill="white" stroke="black" points="924.5,-122 924.5,-152 1067.5,-152 1067.5,-122 924.5,-122"/>
<text text-anchor="start" x="932.5" y="-140" font-family="Helvetica,sans-Serif" font-size="10.00">KuszkAPI::Forms::GdiObject</text>
<text text-anchor="middle" x="996" y="-129" font-family="Helvetica,sans-Serif" font-size="10.00">&lt; tnData &gt;</text>
</a>
</g>
</g>
<!-- Node13&#45;&gt;Node2 -->
<g id="edge21" class="edge"><title>Node13&#45;&gt;Node2</title>
<path fill="none" stroke="orange" stroke-dasharray="5,2" d="M1077.77,-148.69C1102.77,-152.308 1130.1,-156.265 1154.36,-159.776"/>
<polygon fill="orange" stroke="orange" points="1077.98,-145.184 1067.58,-147.215 1076.97,-152.112 1077.98,-145.184"/>
<text text-anchor="middle" x="1111" y="-160" font-family="Helvetica,sans-Serif" font-size="10.00"> &lt; HRGN &gt;</text>
</g>
<!-- Node14 -->
<g id="node14" class="node"><title>Node14</title>
<polygon fill="white" stroke="#bfbfbf" points="741,-105.5 741,-124.5 821,-124.5 821,-105.5 741,-105.5"/>
<text text-anchor="middle" x="781" y="-112.5" font-family="Helvetica,sans-Serif" font-size="10.00">Box&lt; tnData &gt;</text>
</g>
<!-- Node14&#45;&gt;Node13 -->
<g id="edge22" class="edge"><title>Node14&#45;&gt;Node13</title>
<path fill="none" stroke="#9a32cd" stroke-dasharray="5,2" d="M831.27,-120.089C858.886,-122.941 893.806,-126.548 924.296,-129.697"/>
<polygon fill="#9a32cd" stroke="#9a32cd" points="831.374,-116.581 821.067,-119.035 830.655,-123.544 831.374,-116.581"/>
<text text-anchor="middle" x="881" y="-131" font-family="Helvetica,sans-Serif" font-size="10.00"> bObject</text>
</g>
</g>
</svg>
        <g id="navigator" transform="translate(0 0)" fill="#404254">
                <rect fill="#f2f5e9" fill-opacity="0.5" stroke="#606060" stroke-width=".5" x="0" y="0" width="60" height="60"/>
                <use id="zoomplus" xlink:href="#zoomPlus" x="17" y="9" onmousedown="handleZoom(evt,'in')"/>
                <use id="zoomminus" xlink:href="#zoomMin" x="42" y="9" onmousedown="handleZoom(evt,'out')"/>
                <use id="reset" xlink:href="#resetDef" x="30" y="36" onmousedown="handleReset()"/>
                <g id="arrowUp" xlink:href="#dirArrow" transform="translate(30 24)" onmousedown="handlePan(0,-1)">
                  <use xlink:href="#rim" fill="#404040">
                        <set attributeName="fill" to="#808080" begin="arrowUp.mouseover" end="arrowUp.mouseout"/>
                  </use>
                  <path fill="none" stroke="white" stroke-width="1.5" d="M0,-3.0v7 M-2.5,-0.5L0,-3.0L2.5,-0.5"/>
                </g>
                <g id="arrowRight" xlink:href="#dirArrow" transform="rotate(90) translate(36 -43)" onmousedown="handlePan(1,0)">
                  <use xlink:href="#rim" fill="#404040">
                        <set attributeName="fill" to="#808080" begin="arrowRight.mouseover" end="arrowRight.mouseout"/>
                  </use>
                  <path fill="none" stroke="white" stroke-width="1.5" d="M0,-3.0v7 M-2.5,-0.5L0,-3.0L2.5,-0.5"/>
                </g>
                <g id="arrowDown" xlink:href="#dirArrow" transform="rotate(180) translate(-30 -48)" onmousedown="handlePan(0,1)">
                  <use xlink:href="#rim" fill="#404040">
                        <set attributeName="fill" to="#808080" begin="arrowDown.mouseover" end="arrowDown.mouseout"/>
                  </use>
                  <path fill="none" stroke="white" stroke-width="1.5" d="M0,-3.0v7 M-2.5,-0.5L0,-3.0L2.5,-0.5"/>
                </g>
                <g id="arrowLeft" xlink:href="#dirArrow" transform="rotate(270) translate(-36 17)" onmousedown="handlePan(-1,0)">
                  <use xlink:href="#rim" fill="#404040">
                        <set attributeName="fill" to="#808080" begin="arrowLeft.mouseover" end="arrowLeft.mouseout"/>
                  </use>
                  <path fill="none" stroke="white" stroke-width="1.5" d="M0,-3.0v7 M-2.5,-0.5L0,-3.0L2.5,-0.5"/>
                </g>
        </g>
        <svg viewBox="0 0 15 15" width="100%" height="30px" preserveAspectRatio="xMaxYMin meet">
         <g id="arrow_out" transform="scale(0.3 0.3)">
          <a xlink:href="class_kuszk_a_p_i_1_1_forms_1_1_region__coll__graph_org.svg" target="_base">
           <rect id="button" ry="5" rx="5" y="6" x="6" height="38" width="38"
                fill="#f2f5e9" fill-opacity="0.5" stroke="#606060" stroke-width="1.0"/>
           <path id="arrow"
             d="M 11.500037,31.436501 C 11.940474,20.09759 22.043105,11.32322 32.158766,21.979434 L 37.068811,17.246167 C 37.068811,17.246167 37.088388,32 37.088388,32 L 22.160133,31.978069 C 22.160133,31.978069 26.997745,27.140456 26.997745,27.140456 C 18.528582,18.264221 13.291696,25.230495 11.500037,31.436501 z"
             style="fill:#404040;"/>
          </a>
         </g>
        </svg>
</svg>
