<?xml version="1.0" encoding="UTF-8" standalone="no"?>
<!DOCTYPE svg PUBLIC "-//W3C//DTD SVG 1.1//EN"
 "http://www.w3.org/Graphics/SVG/1.1/DTD/svg11.dtd">
<!-- Generated by graphviz version 2.36.0 (20140111.2315)
 -->
<!-- Title: KuszkAPI::Core::Tray Pages: 1 -->
<svg width="209pt" height="96pt"
 viewBox="0.00 0.00 209.00 96.00" xmlns="http://www.w3.org/2000/svg" xmlns:xlink="http://www.w3.org/1999/xlink">
<g id="graph0" class="graph" transform="scale(1 1) rotate(0) translate(4 92)">
<title>KuszkAPI::Core::Tray</title>
<polygon fill="white" stroke="none" points="-4,4 -4,-92 205,-92 205,4 -4,4"/>
<!-- Node1 -->
<g id="node1" class="node"><title>Node1</title>
<polygon fill="#bfbfbf" stroke="black" points="49.5,-0.5 49.5,-19.5 160.5,-19.5 160.5,-0.5 49.5,-0.5"/>
<text text-anchor="middle" x="105" y="-7.5" font-family="Helvetica,sans-Serif" font-size="10.00">KuszkAPI::Core::Tray</text>
</g>
<!-- Node2 -->
<g id="node2" class="node"><title>Node2</title>
<polygon fill="white" stroke="#bfbfbf" points="0,-68.5 0,-87.5 100,-87.5 100,-68.5 0,-68.5"/>
<text text-anchor="middle" x="50" y="-75.5" font-family="Helvetica,sans-Serif" font-size="10.00">NOTIFYICONDATA</text>
</g>
<!-- Node2&#45;&gt;Node1 -->
<g id="edge1" class="edge"><title>Node2&#45;&gt;Node1</title>
<path fill="none" stroke="#9a32cd" stroke-dasharray="5,2" d="M63.6,-60.68C74.3527,-47.7768 88.9521,-30.2575 97.6324,-19.8411"/>
<polygon fill="#9a32cd" stroke="#9a32cd" points="60.9034,-58.4488 57.1903,-68.3717 66.281,-62.9301 60.9034,-58.4488"/>
<text text-anchor="middle" x="97.5" y="-41.5" font-family="Helvetica,sans-Serif" font-size="10.00"> dData</text>
</g>
<!-- Node3 -->
<g id="node3" class="node"><title>Node3</title>
<polygon fill="white" stroke="#bfbfbf" points="118.5,-68.5 118.5,-87.5 201.5,-87.5 201.5,-68.5 118.5,-68.5"/>
<text text-anchor="middle" x="160" y="-75.5" font-family="Helvetica,sans-Serif" font-size="10.00">const HWND &amp;</text>
</g>
<!-- Node3&#45;&gt;Node1 -->
<g id="edge2" class="edge"><title>Node3&#45;&gt;Node1</title>
<path fill="none" stroke="#9a32cd" stroke-dasharray="5,2" d="M146.4,-60.68C135.647,-47.7768 121.048,-30.2575 112.368,-19.8411"/>
<polygon fill="#9a32cd" stroke="#9a32cd" points="143.719,-62.9301 152.81,-68.3717 149.097,-58.4488 143.719,-62.9301"/>
<text text-anchor="middle" x="156.5" y="-41.5" font-family="Helvetica,sans-Serif" font-size="10.00"> hOwner</text>
</g>
</g>
</svg>
