<?xml version="1.0" encoding="UTF-8" standalone="no"?>
<!DOCTYPE svg PUBLIC "-//W3C//DTD SVG 1.1//EN"
 "http://www.w3.org/Graphics/SVG/1.1/DTD/svg11.dtd">
<!-- Generated by graphviz version 2.36.0 (20140111.2315)
 -->
<!-- Title: KuszkAPI::Containers::Vector&lt; tnData &gt; Pages: 1 -->
<svg width="248pt" height="208pt"
 viewBox="0.00 0.00 247.63 208.00" xmlns="http://www.w3.org/2000/svg" xmlns:xlink="http://www.w3.org/1999/xlink">
<g id="graph0" class="graph" transform="scale(1 1) rotate(0) translate(4 204)">
<title>KuszkAPI::Containers::Vector&lt; tnData &gt;</title>
<polygon fill="white" stroke="none" points="-4,4 -4,-204 243.626,-204 243.626,4 -4,4"/>
<!-- Node1 -->
<g id="node1" class="node"><title>Node1</title>
<polygon fill="#bfbfbf" stroke="black" points="64.1262,-1 64.1262,-31 177.126,-31 177.126,-1 64.1262,-1"/>
<text text-anchor="start" x="72.1262" y="-19" font-family="Helvetica,sans-Serif" font-size="10.00">KuszkAPI::Containers</text>
<text text-anchor="middle" x="120.626" y="-8" font-family="Helvetica,sans-Serif" font-size="10.00">::Vector&lt; tnData &gt;</text>
</g>
<!-- Node2 -->
<g id="node2" class="node"><title>Node2</title>
<g id="a_node2"><a xlink:href="class_kuszk_a_p_i_1_1_containers_1_1_container.html" target="_top" xlink:title="Implementacja bazy dla modułu kontenerów. ">
<polygon fill="white" stroke="black" points="64.1262,-91 64.1262,-121 177.126,-121 177.126,-91 64.1262,-91"/>
<text text-anchor="start" x="72.1262" y="-109" font-family="Helvetica,sans-Serif" font-size="10.00">KuszkAPI::Containers</text>
<text text-anchor="middle" x="120.626" y="-98" font-family="Helvetica,sans-Serif" font-size="10.00">::Container</text>
</a>
</g>
</g>
<!-- Node2&#45;&gt;Node1 -->
<g id="edge1" class="edge"><title>Node2&#45;&gt;Node1</title>
<path fill="none" stroke="midnightblue" d="M120.626,-80.6545C120.626,-64.711 120.626,-44.4341 120.626,-31.1036"/>
<polygon fill="midnightblue" stroke="midnightblue" points="117.126,-80.8612 120.626,-90.8613 124.126,-80.8613 117.126,-80.8612"/>
</g>
<!-- Node3 -->
<g id="node3" class="node"><title>Node3</title>
<g id="a_node3"><a xlink:href="namespace_3global_scope_4.html#classunsigned" target="_top" xlink:title="unsigned">
<polygon fill="white" stroke="black" points="7.62621,-180.5 7.62621,-199.5 63.6262,-199.5 63.6262,-180.5 7.62621,-180.5"/>
<text text-anchor="middle" x="35.6262" y="-187.5" font-family="Helvetica,sans-Serif" font-size="10.00">unsigned</text>
</a>
</g>
</g>
<!-- Node3&#45;&gt;Node1 -->
<g id="edge4" class="edge"><title>Node3&#45;&gt;Node1</title>
<path fill="none" stroke="#9a32cd" stroke-dasharray="5,2" d="M22.7573,-172.036C8.96783,-151.62 -9.07787,-116.75 5.62621,-90 21.3463,-61.4014 53.5358,-42.4227 79.8706,-31.0029"/>
<polygon fill="#9a32cd" stroke="#9a32cd" points="20.0061,-174.206 28.6606,-180.318 25.7063,-170.143 20.0061,-174.206"/>
<text text-anchor="middle" x="30.1262" y="-103.5" font-family="Helvetica,sans-Serif" font-size="10.00"> uDataSize</text>
</g>
<!-- Node3&#45;&gt;Node2 -->
<g id="edge2" class="edge"><title>Node3&#45;&gt;Node2</title>
<path fill="none" stroke="#9a32cd" stroke-dasharray="5,2" d="M52.1065,-173.101C67.7133,-158.045 90.9296,-135.648 105.923,-121.184"/>
<polygon fill="#9a32cd" stroke="#9a32cd" points="49.4896,-170.763 44.7227,-180.225 54.3497,-175.801 49.4896,-170.763"/>
<text text-anchor="middle" x="101.626" y="-154" font-family="Helvetica,sans-Serif" font-size="10.00"> uIlosc</text>
<text text-anchor="middle" x="101.626" y="-143" font-family="Helvetica,sans-Serif" font-size="10.00">uMode</text>
</g>
<!-- Node4 -->
<g id="node4" class="node"><title>Node4</title>
<polygon fill="white" stroke="#bfbfbf" points="195.126,-96.5 195.126,-115.5 240.126,-115.5 240.126,-96.5 195.126,-96.5"/>
<text text-anchor="middle" x="217.626" y="-103.5" font-family="Helvetica,sans-Serif" font-size="10.00">tnData</text>
</g>
<!-- Node4&#45;&gt;Node1 -->
<g id="edge3" class="edge"><title>Node4&#45;&gt;Node1</title>
<path fill="none" stroke="#9a32cd" stroke-dasharray="5,2" d="M200.417,-89.3879C182.247,-72.9034 153.851,-47.1424 136.288,-31.209"/>
<polygon fill="#9a32cd" stroke="#9a32cd" points="198.213,-92.1136 207.971,-96.2405 202.916,-86.9291 198.213,-92.1136"/>
<text text-anchor="middle" x="203.126" y="-64" font-family="Helvetica,sans-Serif" font-size="10.00"> tAbstract</text>
<text text-anchor="middle" x="203.126" y="-53" font-family="Helvetica,sans-Serif" font-size="10.00">ptBegin</text>
</g>
</g>
</svg>
