<?xml version="1.0" encoding="UTF-8" standalone="no"?>
<!DOCTYPE svg PUBLIC "-//W3C//DTD SVG 1.1//EN"
 "http://www.w3.org/Graphics/SVG/1.1/DTD/svg11.dtd">
<!-- Generated by graphviz version 2.36.0 (20140111.2315)
 -->
<!-- Title: KuszkAPI::Forms::ComboBox Pages: 1 -->
<!--zoomable 975 -->
<svg id="main" version="1.1" xmlns="http://www.w3.org/2000/svg" xmlns:xlink="http://www.w3.org/1999/xlink" xml:space="preserve" onload="init(evt)">
<style type="text/css"><![CDATA[
.edge:hover path { stroke: red; }
.edge:hover polygon { stroke: red; fill: red; }
]]></style>
<script type="text/javascript"><![CDATA[
var edges = document.getElementsByTagName('g');
if (edges && edges.length) {
  for (var i=0;i<edges.length;i++) {
    if (edges[i].id.substr(0,4)=='edge') {
      edges[i].setAttribute('class','edge');
    }
  }
}
]]></script>
        <defs>
                <circle id="rim" cx="0" cy="0" r="7"/>
                <circle id="rim2" cx="0" cy="0" r="3.5"/>
                <g id="zoomPlus">
                        <use xlink:href="#rim" fill="#404040">
                                <set attributeName="fill" to="#808080" begin="zoomplus.mouseover" end="zoomplus.mouseout"/>
                        </use>
                        <path d="M-4,0h8M0,-4v8" fill="none" stroke="white" stroke-width="1.5" pointer-events="none"/>
                </g>
                <g id="zoomMin">
                        <use xlink:href="#rim" fill="#404040">
                                <set attributeName="fill" to="#808080" begin="zoomminus.mouseover" end="zoomminus.mouseout"/>
                        </use>
                        <path d="M-4,0h8" fill="none" stroke="white" stroke-width="1.5" pointer-events="none"/>
                </g>
                <g id="dirArrow">
                        <path fill="none" stroke="white" stroke-width="1.5" d="M0,-3.0v7 M-2.5,-0.5L0,-3.0L2.5,-0.5"/>
                </g>
               <g id="resetDef">
                       <use xlink:href="#rim2" fill="#404040">
                               <set attributeName="fill" to="#808080" begin="reset.mouseover" end="reset.mouseout"/>
                       </use>
               </g>
        </defs>

<script type="text/javascript">
var viewWidth = 2398;
var viewHeight = 975;
var sectionId = 'dynsection-1';
</script>
<script xlink:href="svgpan.js"/>
<svg id="graph" class="graph">
<g id="viewport">
<title>KuszkAPI::Forms::ComboBox</title>
<polygon fill="white" stroke="none" points="-4,4 -4,-971 2394,-971 2394,4 -4,4"/>
<!-- Node1 -->
<g id="node1" class="node"><title>Node1</title>
<polygon fill="#bfbfbf" stroke="black" points="2242,-77.5 2242,-96.5 2390,-96.5 2390,-77.5 2242,-77.5"/>
<text text-anchor="middle" x="2316" y="-84.5" font-family="Helvetica,sans-Serif" font-size="10.00">KuszkAPI::Forms::ComboBox</text>
</g>
<!-- Node2 -->
<g id="node2" class="node"><title>Node2</title>
<g id="a_node2"><a xlink:href="class_kuszk_a_p_i_1_1_forms_1_1_list_control.html" target="_top" xlink:title="KuszkAPI::Forms::ListControl">
<polygon fill="white" stroke="black" points="2032,-95.5 2032,-114.5 2178,-114.5 2178,-95.5 2032,-95.5"/>
<text text-anchor="middle" x="2105" y="-102.5" font-family="Helvetica,sans-Serif" font-size="10.00">KuszkAPI::Forms::ListControl</text>
</a>
</g>
</g>
<!-- Node2&#45;&gt;Node1 -->
<g id="edge1" class="edge"><title>Node2&#45;&gt;Node1</title>
<path fill="none" stroke="midnightblue" d="M2188.46,-97.8985C2206.04,-96.3839 2224.5,-94.7942 2241.72,-93.3116"/>
<polygon fill="midnightblue" stroke="midnightblue" points="2187.88,-94.435 2178.22,-98.7802 2188.48,-101.409 2187.88,-94.435"/>
</g>
<!-- Node3 -->
<g id="node3" class="node"><title>Node3</title>
<g id="a_node3"><a xlink:href="class_kuszk_a_p_i_1_1_forms_1_1_control.html" target="_top" xlink:title="KuszkAPI::Forms::Control">
<polygon fill="white" stroke="black" points="1822.5,-95.5 1822.5,-114.5 1953.5,-114.5 1953.5,-95.5 1822.5,-95.5"/>
<text text-anchor="middle" x="1888" y="-102.5" font-family="Helvetica,sans-Serif" font-size="10.00">KuszkAPI::Forms::Control</text>
</a>
</g>
</g>
<!-- Node3&#45;&gt;Node2 -->
<g id="edge2" class="edge"><title>Node3&#45;&gt;Node2</title>
<path fill="none" stroke="midnightblue" d="M1963.79,-105C1985.78,-105 2009.8,-105 2031.63,-105"/>
<polygon fill="midnightblue" stroke="midnightblue" points="1963.51,-101.5 1953.51,-105 1963.51,-108.5 1963.51,-101.5"/>
</g>
<!-- Node4 -->
<g id="node4" class="node"><title>Node4</title>
<g id="a_node4"><a xlink:href="class_kuszk_a_p_i_1_1_forms_1_1_window.html" target="_top" xlink:title="KuszkAPI::Forms::Window">
<polygon fill="white" stroke="black" points="1606,-321.5 1606,-340.5 1740,-340.5 1740,-321.5 1606,-321.5"/>
<text text-anchor="middle" x="1673" y="-328.5" font-family="Helvetica,sans-Serif" font-size="10.00">KuszkAPI::Forms::Window</text>
</a>
</g>
</g>
<!-- Node4&#45;&gt;Node3 -->
<g id="edge3" class="edge"><title>Node4&#45;&gt;Node3</title>
<path fill="none" stroke="midnightblue" d="M1695.47,-315.237C1722.43,-294.89 1769.34,-257.612 1804,-220 1837.04,-184.15 1868.62,-134.962 1881.24,-114.514"/>
<polygon fill="midnightblue" stroke="midnightblue" points="1693.37,-312.436 1687.46,-321.227 1697.56,-318.042 1693.37,-312.436"/>
</g>
<!-- Node5 -->
<g id="node5" class="node"><title>Node5</title>
<polygon fill="white" stroke="#bfbfbf" points="1221.5,-363.5 1221.5,-382.5 1268.5,-382.5 1268.5,-363.5 1221.5,-363.5"/>
<text text-anchor="middle" x="1245" y="-370.5" font-family="Helvetica,sans-Serif" font-size="10.00">HWND</text>
</g>
<!-- Node5&#45;&gt;Node4 -->
<g id="edge4" class="edge"><title>Node5&#45;&gt;Node4</title>
<path fill="none" stroke="#9a32cd" stroke-dasharray="5,2" d="M1278.78,-373.393C1307.98,-373.54 1351.88,-373.266 1390,-371 1457.81,-366.969 1474.77,-364.729 1542,-355 1569.71,-350.99 1600.53,-345.351 1625.21,-340.547"/>
<polygon fill="#9a32cd" stroke="#9a32cd" points="1278.74,-369.892 1268.72,-373.322 1278.69,-376.892 1278.74,-369.892"/>
<text text-anchor="middle" x="1475" y="-384" font-family="Helvetica,sans-Serif" font-size="10.00"> hUchwyt</text>
<text text-anchor="middle" x="1475" y="-373" font-family="Helvetica,sans-Serif" font-size="10.00">hOwner</text>
</g>
<!-- Node6 -->
<g id="node6" class="node"><title>Node6</title>
<g id="a_node6"><a xlink:href="class_kuszk_a_p_i_1_1_forms_1_1_window_1_1_timer.html" target="_top" xlink:title="KuszkAPI::Forms::Window\l::Timer">
<polygon fill="white" stroke="black" points="1408,-316 1408,-346 1542,-346 1542,-316 1408,-316"/>
<text text-anchor="start" x="1416" y="-334" font-family="Helvetica,sans-Serif" font-size="10.00">KuszkAPI::Forms::Window</text>
<text text-anchor="middle" x="1475" y="-323" font-family="Helvetica,sans-Serif" font-size="10.00">::Timer</text>
</a>
</g>
</g>
<!-- Node5&#45;&gt;Node6 -->
<g id="edge6" class="edge"><title>Node5&#45;&gt;Node6</title>
<path fill="none" stroke="#9a32cd" stroke-dasharray="5,2" d="M1278.86,-366.947C1312.39,-360.771 1365.35,-351.014 1407.65,-343.223"/>
<polygon fill="#9a32cd" stroke="#9a32cd" points="1277.9,-363.566 1268.7,-368.819 1279.16,-370.45 1277.9,-363.566"/>
<text text-anchor="middle" x="1364" y="-359" font-family="Helvetica,sans-Serif" font-size="10.00"> hOwner</text>
</g>
<!-- Node28 -->
<g id="node28" class="node"><title>Node28</title>
<g id="a_node28"><a xlink:href="class_kuszk_a_p_i_1_1_forms_1_1_control_1_1_toop_tip.html" target="_top" xlink:title="KuszkAPI::Forms::Control\l::ToopTip">
<polygon fill="white" stroke="black" points="1409.5,-209 1409.5,-239 1540.5,-239 1540.5,-209 1409.5,-209"/>
<text text-anchor="start" x="1417.5" y="-227" font-family="Helvetica,sans-Serif" font-size="10.00">KuszkAPI::Forms::Control</text>
<text text-anchor="middle" x="1475" y="-216" font-family="Helvetica,sans-Serif" font-size="10.00">::ToopTip</text>
</a>
</g>
</g>
<!-- Node5&#45;&gt;Node28 -->
<g id="edge50" class="edge"><title>Node5&#45;&gt;Node28</title>
<path fill="none" stroke="#9a32cd" stroke-dasharray="5,2" d="M1278.65,-371.243C1293.02,-368.852 1309.07,-363.727 1320,-353 1340.48,-332.9 1319.56,-312.986 1338,-291 1358.97,-265.991 1391.53,-249.49 1419.54,-239.122"/>
<polygon fill="#9a32cd" stroke="#9a32cd" points="1278.06,-367.791 1268.59,-372.542 1278.95,-374.733 1278.06,-367.791"/>
<text text-anchor="middle" x="1364" y="-316" font-family="Helvetica,sans-Serif" font-size="10.00"> hUchwyt</text>
<text text-anchor="middle" x="1364" y="-305" font-family="Helvetica,sans-Serif" font-size="10.00">hOwner</text>
<text text-anchor="middle" x="1364" y="-294" font-family="Helvetica,sans-Serif" font-size="10.00">hWindow</text>
</g>
<!-- Node6&#45;&gt;Node4 -->
<g id="edge5" class="edge"><title>Node6&#45;&gt;Node4</title>
<path fill="none" stroke="#9a32cd" stroke-dasharray="5,2" d="M1552.35,-331C1570.02,-331 1588.68,-331 1605.87,-331"/>
<polygon fill="#9a32cd" stroke="#9a32cd" points="1552.08,-327.5 1542.08,-331 1552.08,-334.5 1552.08,-327.5"/>
<text text-anchor="middle" x="1574" y="-334" font-family="Helvetica,sans-Serif" font-size="10.00"> Timer</text>
</g>
<!-- Node7 -->
<g id="node7" class="node"><title>Node7</title>
<g id="a_node7"><a xlink:href="class_kuszk_a_p_i_1_1_containers_1_1_map.html" target="_top" xlink:title="KuszkAPI::Containers\l::Map\&lt; UINT_PTR, unsigned \&gt;">
<polygon fill="white" stroke="black" points="1170.5,-314 1170.5,-344 1319.5,-344 1319.5,-314 1170.5,-314"/>
<text text-anchor="start" x="1178.5" y="-332" font-family="Helvetica,sans-Serif" font-size="10.00">KuszkAPI::Containers</text>
<text text-anchor="middle" x="1245" y="-321" font-family="Helvetica,sans-Serif" font-size="10.00">::Map&lt; UINT_PTR, unsigned &gt;</text>
</a>
</g>
</g>
<!-- Node7&#45;&gt;Node6 -->
<g id="edge7" class="edge"><title>Node7&#45;&gt;Node6</title>
<path fill="none" stroke="#9a32cd" stroke-dasharray="5,2" d="M1329.83,-327.717C1349.56,-327.609 1370.52,-327.652 1390,-328 1395.84,-328.104 1401.9,-328.249 1407.98,-328.419"/>
<polygon fill="#9a32cd" stroke="#9a32cd" points="1329.61,-324.218 1319.63,-327.786 1329.65,-331.218 1329.61,-324.218"/>
<text text-anchor="middle" x="1364" y="-331" font-family="Helvetica,sans-Serif" font-size="10.00"> mTimer</text>
</g>
<!-- Node8 -->
<g id="node8" class="node"><title>Node8</title>
<g id="a_node8"><a xlink:href="class_kuszk_a_p_i_1_1_containers_1_1_list.html" target="_top" xlink:title="KuszkAPI::Containers\l::List\&lt; unsigned \&gt;">
<polygon fill="white" stroke="black" points="568.5,-231 568.5,-261 681.5,-261 681.5,-231 568.5,-231"/>
<text text-anchor="start" x="576.5" y="-249" font-family="Helvetica,sans-Serif" font-size="10.00">KuszkAPI::Containers</text>
<text text-anchor="middle" x="625" y="-238" font-family="Helvetica,sans-Serif" font-size="10.00">::List&lt; unsigned &gt;</text>
</a>
</g>
</g>
<!-- Node8&#45;&gt;Node7 -->
<g id="edge8" class="edge"><title>Node8&#45;&gt;Node7</title>
<path fill="none" stroke="#9a32cd" stroke-dasharray="5,2" d="M691.831,-254.841C807.994,-270.443 1048.54,-302.749 1170.16,-319.083"/>
<polygon fill="#9a32cd" stroke="#9a32cd" points="692.037,-251.338 681.66,-253.475 691.105,-258.275 692.037,-251.338"/>
<text text-anchor="middle" x="938" y="-296" font-family="Helvetica,sans-Serif" font-size="10.00"> lKey</text>
</g>
<!-- Node9 -->
<g id="node9" class="node"><title>Node9</title>
<g id="a_node9"><a xlink:href="class_kuszk_a_p_i_1_1_containers_1_1_container.html" target="_top" xlink:title="Implementacja bazy dla modułu kontenerów. ">
<polygon fill="white" stroke="black" points="132.5,-512 132.5,-542 245.5,-542 245.5,-512 132.5,-512"/>
<text text-anchor="start" x="140.5" y="-530" font-family="Helvetica,sans-Serif" font-size="10.00">KuszkAPI::Containers</text>
<text text-anchor="middle" x="189" y="-519" font-family="Helvetica,sans-Serif" font-size="10.00">::Container</text>
</a>
</g>
</g>
<!-- Node9&#45;&gt;Node8 -->
<g id="edge9" class="edge"><title>Node9&#45;&gt;Node8</title>
<path fill="none" stroke="midnightblue" d="M198.936,-502.448C218.587,-448.731 264.414,-325.059 272,-319 335.947,-267.924 373.855,-307.573 454,-291 495.382,-282.443 505.153,-277.826 546,-267 553.185,-265.096 560.738,-263.08 568.198,-261.08"/>
<polygon fill="midnightblue" stroke="midnightblue" points="195.622,-501.318 195.48,-511.912 202.198,-503.719 195.622,-501.318"/>
</g>
<!-- Node13 -->
<g id="node13" class="node"><title>Node13</title>
<g id="a_node13"><a xlink:href="class_kuszk_a_p_i_1_1_containers_1_1_list.html" target="_top" xlink:title="Implementacja szablonu listy dla modułu kontenerów. ">
<polygon fill="white" stroke="black" points="340.5,-334 340.5,-364 453.5,-364 453.5,-334 340.5,-334"/>
<text text-anchor="start" x="348.5" y="-352" font-family="Helvetica,sans-Serif" font-size="10.00">KuszkAPI::Containers</text>
<text text-anchor="middle" x="397" y="-341" font-family="Helvetica,sans-Serif" font-size="10.00">::List&lt; tnData &gt;</text>
</a>
</g>
</g>
<!-- Node9&#45;&gt;Node13 -->
<g id="edge16" class="edge"><title>Node9&#45;&gt;Node13</title>
<path fill="none" stroke="midnightblue" d="M208.814,-504.126C235.473,-472.801 286.93,-416.21 340,-379 347.676,-373.618 356.429,-368.502 364.696,-364.07"/>
<polygon fill="midnightblue" stroke="midnightblue" points="206.043,-501.983 202.278,-511.887 211.397,-506.493 206.043,-501.983"/>
</g>
<!-- Node16 -->
<g id="node16" class="node"><title>Node16</title>
<g id="a_node16"><a xlink:href="class_kuszk_a_p_i_1_1_containers_1_1_vector.html" target="_top" xlink:title="KuszkAPI::Containers\l::Vector\&lt; UINT_PTR * \&gt;">
<polygon fill="white" stroke="black" points="564.5,-626 564.5,-656 685.5,-656 685.5,-626 564.5,-626"/>
<text text-anchor="start" x="572.5" y="-644" font-family="Helvetica,sans-Serif" font-size="10.00">KuszkAPI::Containers</text>
<text text-anchor="middle" x="625" y="-633" font-family="Helvetica,sans-Serif" font-size="10.00">::Vector&lt; UINT_PTR * &gt;</text>
</a>
</g>
</g>
<!-- Node9&#45;&gt;Node16 -->
<g id="edge22" class="edge"><title>Node9&#45;&gt;Node16</title>
<path fill="none" stroke="midnightblue" d="M255.839,-521.02C330.749,-517.241 454.528,-520.406 546,-570 572.561,-584.401 597.286,-609.733 611.508,-625.923"/>
<polygon fill="midnightblue" stroke="midnightblue" points="255.39,-517.539 245.602,-521.595 255.783,-524.528 255.39,-517.539"/>
</g>
<!-- Node19 -->
<g id="node19" class="node"><title>Node19</title>
<g id="a_node19"><a xlink:href="class_kuszk_a_p_i_1_1_containers_1_1_vector.html" target="_top" xlink:title="KuszkAPI::Containers\l::Vector\&lt; tnData \&gt;">
<polygon fill="white" stroke="black" points="340.5,-708 340.5,-738 453.5,-738 453.5,-708 340.5,-708"/>
<text text-anchor="start" x="348.5" y="-726" font-family="Helvetica,sans-Serif" font-size="10.00">KuszkAPI::Containers</text>
<text text-anchor="middle" x="397" y="-715" font-family="Helvetica,sans-Serif" font-size="10.00">::Vector&lt; tnData &gt;</text>
</a>
</g>
</g>
<!-- Node9&#45;&gt;Node19 -->
<g id="edge27" class="edge"><title>Node9&#45;&gt;Node19</title>
<path fill="none" stroke="midnightblue" d="M207.915,-549.884C223.499,-568.831 247.39,-595.679 272,-615 292.033,-630.728 301.996,-627.236 322,-643 346.816,-662.556 370.746,-690.642 384.385,-707.807"/>
<polygon fill="midnightblue" stroke="midnightblue" points="210.579,-547.613 201.567,-542.042 205.138,-552.017 210.579,-547.613"/>
</g>
<!-- Node21 -->
<g id="node21" class="node"><title>Node21</title>
<g id="a_node21"><a xlink:href="class_kuszk_a_p_i_1_1_containers_1_1_vector.html" target="_top" xlink:title="KuszkAPI::Containers\l::Vector\&lt; tnData * \&gt;">
<polygon fill="white" stroke="black" points="568.5,-747 568.5,-777 681.5,-777 681.5,-747 568.5,-747"/>
<text text-anchor="start" x="576.5" y="-765" font-family="Helvetica,sans-Serif" font-size="10.00">KuszkAPI::Containers</text>
<text text-anchor="middle" x="625" y="-754" font-family="Helvetica,sans-Serif" font-size="10.00">::Vector&lt; tnData * &gt;</text>
</a>
</g>
</g>
<!-- Node9&#45;&gt;Node21 -->
<g id="edge34" class="edge"><title>Node9&#45;&gt;Node21</title>
<path fill="none" stroke="midnightblue" d="M218.49,-548.214C247.752,-569.224 295.223,-601.187 340,-622 427.06,-662.467 463.445,-637.993 546,-687 572.978,-703.015 597.951,-730.052 612.055,-746.915"/>
<polygon fill="midnightblue" stroke="midnightblue" points="220.528,-545.369 210.377,-542.334 216.42,-551.037 220.528,-545.369"/>
</g>
<!-- Node24 -->
<g id="node24" class="node"><title>Node24</title>
<g id="a_node24"><a xlink:href="class_kuszk_a_p_i_1_1_containers_1_1_list.html" target="_top" xlink:title="KuszkAPI::Containers\l::List\&lt; tnKey \&gt;">
<polygon fill="white" stroke="black" points="568.5,-373 568.5,-403 681.5,-403 681.5,-373 568.5,-373"/>
<text text-anchor="start" x="576.5" y="-391" font-family="Helvetica,sans-Serif" font-size="10.00">KuszkAPI::Containers</text>
<text text-anchor="middle" x="625" y="-380" font-family="Helvetica,sans-Serif" font-size="10.00">::List&lt; tnKey &gt;</text>
</a>
</g>
</g>
<!-- Node9&#45;&gt;Node24 -->
<g id="edge41" class="edge"><title>Node9&#45;&gt;Node24</title>
<path fill="none" stroke="midnightblue" d="M236.587,-508.166C266.022,-496.549 304.981,-481.687 340,-470 362.058,-462.638 495.244,-424.596 571.141,-403.008"/>
<polygon fill="midnightblue" stroke="midnightblue" points="234.995,-505.033 226.989,-511.972 237.575,-511.54 234.995,-505.033"/>
</g>
<!-- Node10 -->
<g id="node10" class="node"><title>Node10</title>
<g id="a_node10"><a xlink:href="namespace_3global_scope_4.html#classunsigned" target="_top" xlink:title="unsigned">
<polygon fill="white" stroke="black" points="0,-682.5 0,-701.5 56,-701.5 56,-682.5 0,-682.5"/>
<text text-anchor="middle" x="28" y="-689.5" font-family="Helvetica,sans-Serif" font-size="10.00">unsigned</text>
</a>
</g>
</g>
<!-- Node10&#45;&gt;Node3 -->
<g id="edge52" class="edge"><title>Node10&#45;&gt;Node3</title>
<path fill="none" stroke="#9a32cd" stroke-dasharray="5,2" d="M28.6469,-672.048C27.5187,-590.022 26.5114,-279.206 74,-196 103.704,-143.954 128.074,-124 188,-124 188,-124 188,-124 1674,-124 1723.93,-124 1780.19,-118.755 1822.35,-113.777"/>
<polygon fill="#9a32cd" stroke="#9a32cd" points="25.1532,-672.491 28.8084,-682.435 32.1524,-672.382 25.1532,-672.491"/>
<text text-anchor="middle" x="938" y="-127" font-family="Helvetica,sans-Serif" font-size="10.00"> uId</text>
</g>
<!-- Node10&#45;&gt;Node7 -->
<g id="edge19" class="edge"><title>Node10&#45;&gt;Node7</title>
<path fill="none" stroke="#9a32cd" stroke-dasharray="5,2" d="M31.2782,-711.646C39.5697,-772.847 73.9141,-956 188,-956 188,-956 188,-956 1048,-956 1138.17,-956 1084.3,-848.992 1104,-761 1109,-738.647 1155.19,-371.477 1170,-354 1173.24,-350.172 1177.09,-346.928 1181.31,-344.18"/>
<polygon fill="#9a32cd" stroke="#9a32cd" points="34.7485,-711.19 30.0198,-701.709 27.804,-712.07 34.7485,-711.19"/>
<text text-anchor="middle" x="625" y="-959" font-family="Helvetica,sans-Serif" font-size="10.00"> uIlosc</text>
</g>
<!-- Node10&#45;&gt;Node8 -->
<g id="edge14" class="edge"><title>Node10&#45;&gt;Node8</title>
<path fill="none" stroke="#9a32cd" stroke-dasharray="5,2" d="M29.3171,-672.252C30.9233,-584.268 39.4974,-230.817 74,-197 134.333,-137.866 370.9,-170.792 454,-186 503.413,-195.043 557.689,-216.331 591.307,-230.956"/>
<polygon fill="#9a32cd" stroke="#9a32cd" points="25.8143,-672.385 29.1411,-682.444 32.8133,-672.506 25.8143,-672.385"/>
<text text-anchor="middle" x="297" y="-171" font-family="Helvetica,sans-Serif" font-size="10.00"> tAbstract</text>
</g>
<!-- Node10&#45;&gt;Node9 -->
<g id="edge10" class="edge"><title>Node10&#45;&gt;Node9</title>
<path fill="none" stroke="#9a32cd" stroke-dasharray="5,2" d="M39.5712,-673.902C48.038,-660.103 60.6686,-640.985 74,-626 103.445,-592.902 143.695,-560.359 167.652,-542.062"/>
<polygon fill="#9a32cd" stroke="#9a32cd" points="36.5626,-672.114 34.4173,-682.489 42.5645,-675.716 36.5626,-672.114"/>
<text text-anchor="middle" x="90" y="-640" font-family="Helvetica,sans-Serif" font-size="10.00"> uIlosc</text>
<text text-anchor="middle" x="90" y="-629" font-family="Helvetica,sans-Serif" font-size="10.00">uMode</text>
</g>
<!-- Node15 -->
<g id="node15" class="node"><title>Node15</title>
<g id="a_node15"><a xlink:href="class_kuszk_a_p_i_1_1_containers_1_1_box.html" target="_top" xlink:title="KuszkAPI::Containers\l::Box\&lt; UINT_PTR \&gt;">
<polygon fill="white" stroke="black" points="990.5,-722 990.5,-752 1103.5,-752 1103.5,-722 990.5,-722"/>
<text text-anchor="start" x="998.5" y="-740" font-family="Helvetica,sans-Serif" font-size="10.00">KuszkAPI::Containers</text>
<text text-anchor="middle" x="1047" y="-729" font-family="Helvetica,sans-Serif" font-size="10.00">::Box&lt; UINT_PTR &gt;</text>
</a>
</g>
</g>
<!-- Node10&#45;&gt;Node15 -->
<g id="edge30" class="edge"><title>Node10&#45;&gt;Node15</title>
<path fill="none" stroke="#9a32cd" stroke-dasharray="5,2" d="M32.711,-711.707C38.4292,-738.656 51.1949,-787.788 74,-824 107.822,-877.704 124.533,-910 188,-910 188,-910 188,-910 827,-910 928.508,-910 1010.54,-794.14 1037,-752.05"/>
<polygon fill="#9a32cd" stroke="#9a32cd" points="36.0851,-710.732 30.6831,-701.618 29.2224,-712.112 36.0851,-710.732"/>
<text text-anchor="middle" x="509" y="-913" font-family="Helvetica,sans-Serif" font-size="10.00"> uIlosc</text>
</g>
<!-- Node10&#45;&gt;Node16 -->
<g id="edge24" class="edge"><title>Node10&#45;&gt;Node16</title>
<path fill="none" stroke="#9a32cd" stroke-dasharray="5,2" d="M66.4117,-686.399C114.053,-679.458 198.964,-667.725 272,-661 374.551,-651.557 494.349,-645.887 564.427,-643.11"/>
<polygon fill="#9a32cd" stroke="#9a32cd" points="65.6493,-682.973 56.263,-687.888 66.6651,-689.899 65.6493,-682.973"/>
<text text-anchor="middle" x="297" y="-664" font-family="Helvetica,sans-Serif" font-size="10.00"> uDataSize</text>
</g>
<!-- Node10&#45;&gt;Node19 -->
<g id="edge29" class="edge"><title>Node10&#45;&gt;Node19</title>
<path fill="none" stroke="#9a32cd" stroke-dasharray="5,2" d="M66.4538,-695.164C131.293,-700.641 264.755,-711.914 340.433,-718.306"/>
<polygon fill="#9a32cd" stroke="#9a32cd" points="66.544,-691.659 56.2848,-694.305 65.9547,-698.634 66.544,-691.659"/>
<text text-anchor="middle" x="189" y="-714" font-family="Helvetica,sans-Serif" font-size="10.00"> uDataSize</text>
</g>
<!-- Node20 -->
<g id="node20" class="node"><title>Node20</title>
<g id="a_node20"><a xlink:href="class_kuszk_a_p_i_1_1_containers_1_1_box.html" target="_top" xlink:title="Implementacja szablonu pudełka dla modułu kontenerów. ">
<polygon fill="white" stroke="black" points="769.5,-747 769.5,-777 882.5,-777 882.5,-747 769.5,-747"/>
<text text-anchor="start" x="777.5" y="-765" font-family="Helvetica,sans-Serif" font-size="10.00">KuszkAPI::Containers</text>
<text text-anchor="middle" x="826" y="-754" font-family="Helvetica,sans-Serif" font-size="10.00">::Box&lt; tnData &gt;</text>
</a>
</g>
</g>
<!-- Node10&#45;&gt;Node20 -->
<g id="edge32" class="edge"><title>Node10&#45;&gt;Node20</title>
<path fill="none" stroke="#9a32cd" stroke-dasharray="5,2" d="M35.4945,-711.087C52.5352,-757.22 103.163,-871 188,-871 188,-871 188,-871 626,-871 703.208,-871 778.841,-807.106 810.053,-777.156"/>
<polygon fill="#9a32cd" stroke="#9a32cd" points="38.7762,-709.869 32.1234,-701.624 32.1821,-712.218 38.7762,-709.869"/>
<text text-anchor="middle" x="397" y="-874" font-family="Helvetica,sans-Serif" font-size="10.00"> uIlosc</text>
</g>
<!-- Node10&#45;&gt;Node21 -->
<g id="edge36" class="edge"><title>Node10&#45;&gt;Node21</title>
<path fill="none" stroke="#9a32cd" stroke-dasharray="5,2" d="M41.9743,-709.591C58.4579,-730.428 89.0063,-764.287 124,-780 277.33,-848.849 484.53,-803.334 576.562,-777.006"/>
<polygon fill="#9a32cd" stroke="#9a32cd" points="44.6656,-707.349 35.7991,-701.549 39.1136,-711.612 44.6656,-707.349"/>
<text text-anchor="middle" x="297" y="-819" font-family="Helvetica,sans-Serif" font-size="10.00"> uDataSize</text>
</g>
<!-- Node22 -->
<g id="node22" class="node"><title>Node22</title>
<g id="a_node22"><a xlink:href="class_kuszk_a_p_i_1_1_containers_1_1_map.html" target="_top" xlink:title="KuszkAPI::Containers\l::Map\&lt; tnData, tnKey \&gt;">
<polygon fill="white" stroke="black" points="766.5,-324 766.5,-354 885.5,-354 885.5,-324 766.5,-324"/>
<text text-anchor="start" x="774.5" y="-342" font-family="Helvetica,sans-Serif" font-size="10.00">KuszkAPI::Containers</text>
<text text-anchor="middle" x="826" y="-331" font-family="Helvetica,sans-Serif" font-size="10.00">::Map&lt; tnData, tnKey &gt;</text>
</a>
</g>
</g>
<!-- Node10&#45;&gt;Node22 -->
<g id="edge45" class="edge"><title>Node10&#45;&gt;Node22</title>
<path fill="none" stroke="#9a32cd" stroke-dasharray="5,2" d="M30.6268,-672.109C37.2066,-596.773 64.3996,-330.435 124,-275 195.11,-208.86 243.165,-249.354 340,-242 390.521,-238.163 403.747,-235.539 454,-242 461.913,-243.017 666.117,-296.931 768.119,-323.929"/>
<polygon fill="#9a32cd" stroke="#9a32cd" points="27.1332,-671.886 29.7749,-682.147 34.1081,-672.478 27.1332,-671.886"/>
<text text-anchor="middle" x="397" y="-245" font-family="Helvetica,sans-Serif" font-size="10.00"> uIlosc</text>
</g>
<!-- Node11 -->
<g id="node11" class="node"><title>Node11</title>
<g id="a_node11"><a xlink:href="class_kuszk_a_p_i_1_1_containers_1_1_list.html#struct_kuszk_a_p_i_1_1_containers_1_1_list_1_1_item_data" target="_top" xlink:title="Struktura przechowująca wskaźnik na element listy oraz wskaźnik na kolejny obiekt. ">
<polygon fill="white" stroke="black" points="124,-285 124,-315 254,-315 254,-285 124,-285"/>
<text text-anchor="start" x="132" y="-303" font-family="Helvetica,sans-Serif" font-size="10.00">KuszkAPI::Containers</text>
<text text-anchor="middle" x="189" y="-292" font-family="Helvetica,sans-Serif" font-size="10.00">::List&lt; tnData &gt;::ItemData</text>
</a>
</g>
</g>
<!-- Node11&#45;&gt;Node8 -->
<g id="edge11" class="edge"><title>Node11&#45;&gt;Node8</title>
<path fill="none" stroke="#9a32cd" stroke-dasharray="5,2" d="M263.748,-282.877C287.934,-277.767 315.014,-272.58 340,-269 418.837,-257.705 510.84,-251.52 568.267,-248.485"/>
<polygon fill="#9a32cd" stroke="#9a32cd" points="262.975,-279.464 253.93,-284.981 264.441,-286.308 262.975,-279.464"/>
<text text-anchor="middle" x="397" y="-283" font-family="Helvetica,sans-Serif" font-size="10.00"> ptLast</text>
<text text-anchor="middle" x="397" y="-272" font-family="Helvetica,sans-Serif" font-size="10.00">ptBegin</text>
</g>
<!-- Node11&#45;&gt;Node11 -->
<g id="edge12" class="edge"><title>Node11&#45;&gt;Node11</title>
<path fill="none" stroke="#9a32cd" stroke-dasharray="5,2" d="M171.846,-325.598C174.19,-329.97 179.908,-333 189,-333 204.313,-333 210.055,-324.406 206.227,-315.275"/>
<polygon fill="#9a32cd" stroke="#9a32cd" points="175.344,-325.25 171.773,-315.275 168.344,-325.3 175.344,-325.25"/>
<text text-anchor="middle" x="189" y="-336" font-family="Helvetica,sans-Serif" font-size="10.00"> ptNext</text>
</g>
<!-- Node11&#45;&gt;Node13 -->
<g id="edge18" class="edge"><title>Node11&#45;&gt;Node13</title>
<path fill="none" stroke="#9a32cd" stroke-dasharray="5,2" d="M263.15,-317.4C288.51,-323.432 316.512,-330.093 340.243,-335.737"/>
<polygon fill="#9a32cd" stroke="#9a32cd" points="263.745,-313.944 253.207,-315.035 262.125,-320.754 263.745,-313.944"/>
<text text-anchor="middle" x="297" y="-345" font-family="Helvetica,sans-Serif" font-size="10.00"> ptLast</text>
<text text-anchor="middle" x="297" y="-334" font-family="Helvetica,sans-Serif" font-size="10.00">ptBegin</text>
</g>
<!-- Node11&#45;&gt;Node24 -->
<g id="edge42" class="edge"><title>Node11&#45;&gt;Node24</title>
<path fill="none" stroke="#9a32cd" stroke-dasharray="5,2" d="M215.403,-321.417C230.88,-333.472 251.557,-347.889 272,-357 369.359,-400.393 496.709,-399.163 568.491,-393.894"/>
<polygon fill="#9a32cd" stroke="#9a32cd" points="217.374,-318.513 207.374,-315.012 213.009,-323.985 217.374,-318.513"/>
<text text-anchor="middle" x="397" y="-410" font-family="Helvetica,sans-Serif" font-size="10.00"> ptLast</text>
<text text-anchor="middle" x="397" y="-399" font-family="Helvetica,sans-Serif" font-size="10.00">ptBegin</text>
</g>
<!-- Node12 -->
<g id="node12" class="node"><title>Node12</title>
<polygon fill="white" stroke="#bfbfbf" points="2,-147.5 2,-166.5 54,-166.5 54,-147.5 2,-147.5"/>
<text text-anchor="middle" x="28" y="-154.5" font-family="Helvetica,sans-Serif" font-size="10.00">tnData *</text>
</g>
<!-- Node12&#45;&gt;Node11 -->
<g id="edge13" class="edge"><title>Node12&#45;&gt;Node11</title>
<path fill="none" stroke="#9a32cd" stroke-dasharray="5,2" d="M47.1965,-173.365C78.2421,-201.287 141.002,-257.731 171.122,-284.821"/>
<polygon fill="#9a32cd" stroke="#9a32cd" points="49.4551,-170.689 39.6793,-166.605 44.7741,-175.894 49.4551,-170.689"/>
<text text-anchor="middle" x="90" y="-228" font-family="Helvetica,sans-Serif" font-size="10.00"> ptData</text>
</g>
<!-- Node13&#45;&gt;Node8 -->
<g id="edge15" class="edge"><title>Node13&#45;&gt;Node8</title>
<path fill="none" stroke="orange" stroke-dasharray="5,2" d="M463.763,-342.34C490.376,-337.755 520.719,-330.024 546,-317 572.86,-303.163 597.498,-277.668 611.621,-261.291"/>
<polygon fill="orange" stroke="orange" points="463.082,-338.905 453.765,-343.948 464.193,-345.816 463.082,-338.905"/>
<text text-anchor="middle" x="509" y="-344" font-family="Helvetica,sans-Serif" font-size="10.00"> &lt; unsigned &gt;</text>
</g>
<!-- Node13&#45;&gt;Node24 -->
<g id="edge44" class="edge"><title>Node13&#45;&gt;Node24</title>
<path fill="none" stroke="orange" stroke-dasharray="5,2" d="M463.636,-360.327C496.793,-366.048 536.593,-372.916 568.248,-378.379"/>
<polygon fill="orange" stroke="orange" points="464.025,-356.842 453.575,-358.59 462.834,-363.74 464.025,-356.842"/>
<text text-anchor="middle" x="509" y="-378" font-family="Helvetica,sans-Serif" font-size="10.00"> &lt; tnKey &gt;</text>
</g>
<!-- Node14 -->
<g id="node14" class="node"><title>Node14</title>
<polygon fill="white" stroke="#bfbfbf" points="166.5,-751.5 166.5,-770.5 211.5,-770.5 211.5,-751.5 166.5,-751.5"/>
<text text-anchor="middle" x="189" y="-758.5" font-family="Helvetica,sans-Serif" font-size="10.00">tnData</text>
</g>
<!-- Node14&#45;&gt;Node13 -->
<g id="edge17" class="edge"><title>Node14&#45;&gt;Node13</title>
<path fill="none" stroke="#9a32cd" stroke-dasharray="5,2" d="M221.236,-752.015C232.04,-748.211 243.949,-743.204 254,-737 262.765,-731.59 317.592,-683.309 322,-674 350.108,-614.641 304.56,-434.295 340,-379 343.868,-372.964 349.383,-368.059 355.458,-364.1"/>
<polygon fill="#9a32cd" stroke="#9a32cd" points="220.103,-748.704 211.71,-755.17 222.303,-755.349 220.103,-748.704"/>
<text text-anchor="middle" x="297" y="-725" font-family="Helvetica,sans-Serif" font-size="10.00"> tAbstract</text>
</g>
<!-- Node14&#45;&gt;Node19 -->
<g id="edge28" class="edge"><title>Node14&#45;&gt;Node19</title>
<path fill="none" stroke="#9a32cd" stroke-dasharray="5,2" d="M221.633,-755.165C253.157,-749.35 302.222,-740.299 340.284,-733.278"/>
<polygon fill="#9a32cd" stroke="#9a32cd" points="220.855,-751.749 211.656,-757.005 222.125,-758.633 220.855,-751.749"/>
<text text-anchor="middle" x="297" y="-760" font-family="Helvetica,sans-Serif" font-size="10.00"> tAbstract</text>
<text text-anchor="middle" x="297" y="-749" font-family="Helvetica,sans-Serif" font-size="10.00">ptBegin</text>
</g>
<!-- Node14&#45;&gt;Node21 -->
<g id="edge35" class="edge"><title>Node14&#45;&gt;Node21</title>
<path fill="none" stroke="#9a32cd" stroke-dasharray="5,2" d="M221.442,-766.217C236.663,-768.486 255.232,-770.88 272,-772 376.615,-778.986 499.038,-772.124 568.459,-766.833"/>
<polygon fill="#9a32cd" stroke="#9a32cd" points="221.919,-762.749 211.502,-764.683 220.851,-769.667 221.919,-762.749"/>
<text text-anchor="middle" x="397" y="-789" font-family="Helvetica,sans-Serif" font-size="10.00"> tAbstract</text>
<text text-anchor="middle" x="397" y="-778" font-family="Helvetica,sans-Serif" font-size="10.00">ptBegin</text>
</g>
<!-- Node15&#45;&gt;Node7 -->
<g id="edge20" class="edge"><title>Node15&#45;&gt;Node7</title>
<path fill="none" stroke="#9a32cd" stroke-dasharray="5,2" d="M1048.57,-711.578C1051.48,-643.816 1068.76,-457.02 1170,-354 1173.8,-350.131 1178.22,-346.861 1182.98,-344.097"/>
<polygon fill="#9a32cd" stroke="#9a32cd" points="1045.07,-711.635 1048.21,-721.754 1052.06,-711.885 1045.07,-711.635"/>
<text text-anchor="middle" x="1137" y="-417" font-family="Helvetica,sans-Serif" font-size="10.00"> bData</text>
</g>
<!-- Node16&#45;&gt;Node15 -->
<g id="edge21" class="edge"><title>Node16&#45;&gt;Node15</title>
<path fill="none" stroke="#9a32cd" stroke-dasharray="5,2" d="M695.539,-656.895C778.216,-675.792 914.533,-706.95 990.494,-724.313"/>
<polygon fill="#9a32cd" stroke="#9a32cd" points="696.258,-653.469 685.73,-654.653 694.698,-660.293 696.258,-653.469"/>
<text text-anchor="middle" x="826" y="-704" font-family="Helvetica,sans-Serif" font-size="10.00"> vPointers</text>
</g>
<!-- Node17 -->
<g id="node17" class="node"><title>Node17</title>
<polygon fill="white" stroke="#bfbfbf" points="363,-555.5 363,-574.5 431,-574.5 431,-555.5 363,-555.5"/>
<text text-anchor="middle" x="397" y="-562.5" font-family="Helvetica,sans-Serif" font-size="10.00">UINT_PTR *</text>
</g>
<!-- Node17&#45;&gt;Node16 -->
<g id="edge23" class="edge"><title>Node17&#45;&gt;Node16</title>
<path fill="none" stroke="#9a32cd" stroke-dasharray="5,2" d="M441.215,-568.516C471.378,-572.009 512.137,-578.839 546,-592 567.464,-600.342 589.461,-614.803 604.6,-625.86"/>
<polygon fill="#9a32cd" stroke="#9a32cd" points="441.335,-565.008 431.016,-567.414 440.583,-571.968 441.335,-565.008"/>
<text text-anchor="middle" x="509" y="-595" font-family="Helvetica,sans-Serif" font-size="10.00"> tAbstract</text>
</g>
<!-- Node18 -->
<g id="node18" class="node"><title>Node18</title>
<polygon fill="white" stroke="#bfbfbf" points="361,-593.5 361,-612.5 433,-612.5 433,-593.5 361,-593.5"/>
<text text-anchor="middle" x="397" y="-600.5" font-family="Helvetica,sans-Serif" font-size="10.00">UINT_PTR **</text>
</g>
<!-- Node18&#45;&gt;Node16 -->
<g id="edge25" class="edge"><title>Node18&#45;&gt;Node16</title>
<path fill="none" stroke="#9a32cd" stroke-dasharray="5,2" d="M443.01,-604.354C472.531,-605.877 511.847,-609.116 546,-616 558.128,-618.444 571.021,-622.115 582.759,-625.895"/>
<polygon fill="#9a32cd" stroke="#9a32cd" points="443.154,-600.857 433,-603.883 442.825,-607.849 443.154,-600.857"/>
<text text-anchor="middle" x="509" y="-619" font-family="Helvetica,sans-Serif" font-size="10.00"> ptBegin</text>
</g>
<!-- Node19&#45;&gt;Node16 -->
<g id="edge26" class="edge"><title>Node19&#45;&gt;Node16</title>
<path fill="none" stroke="orange" stroke-dasharray="5,2" d="M463.408,-714.046C489.714,-709.124 519.929,-701.762 546,-691 567.559,-682.101 589.719,-667.242 604.883,-656.029"/>
<polygon fill="orange" stroke="orange" points="462.761,-710.606 453.535,-715.814 463.995,-717.496 462.761,-710.606"/>
<text text-anchor="middle" x="509" y="-715" font-family="Helvetica,sans-Serif" font-size="10.00"> &lt; UINT_PTR * &gt;</text>
</g>
<!-- Node19&#45;&gt;Node21 -->
<g id="edge37" class="edge"><title>Node19&#45;&gt;Node21</title>
<path fill="none" stroke="orange" stroke-dasharray="5,2" d="M463.636,-734.327C496.793,-740.048 536.593,-746.916 568.248,-752.379"/>
<polygon fill="orange" stroke="orange" points="464.025,-730.842 453.575,-732.59 462.834,-737.74 464.025,-730.842"/>
<text text-anchor="middle" x="509" y="-752" font-family="Helvetica,sans-Serif" font-size="10.00"> &lt; tnData * &gt;</text>
</g>
<!-- Node20&#45;&gt;Node15 -->
<g id="edge31" class="edge"><title>Node20&#45;&gt;Node15</title>
<path fill="none" stroke="orange" stroke-dasharray="5,2" d="M892.835,-754.485C923.862,-750.943 960.481,-746.762 990.133,-743.378"/>
<polygon fill="orange" stroke="orange" points="892.085,-751.047 882.546,-755.659 892.879,-758.002 892.085,-751.047"/>
<text text-anchor="middle" x="938" y="-757" font-family="Helvetica,sans-Serif" font-size="10.00"> &lt; UINT_PTR &gt;</text>
</g>
<!-- Node21&#45;&gt;Node20 -->
<g id="edge33" class="edge"><title>Node21&#45;&gt;Node20</title>
<path fill="none" stroke="#9a32cd" stroke-dasharray="5,2" d="M691.862,-762C716.947,-762 745.266,-762 769.316,-762"/>
<polygon fill="#9a32cd" stroke="#9a32cd" points="691.697,-758.5 681.697,-762 691.697,-765.5 691.697,-758.5"/>
<text text-anchor="middle" x="726" y="-765" font-family="Helvetica,sans-Serif" font-size="10.00"> vPointers</text>
</g>
<!-- Node22&#45;&gt;Node7 -->
<g id="edge38" class="edge"><title>Node22&#45;&gt;Node7</title>
<path fill="none" stroke="orange" stroke-dasharray="5,2" d="M896.24,-337.34C971.979,-335.523 1092.89,-332.624 1170.33,-330.767"/>
<polygon fill="orange" stroke="orange" points="895.775,-333.85 885.861,-337.588 895.943,-340.848 895.775,-333.85"/>
<text text-anchor="middle" x="1047" y="-338" font-family="Helvetica,sans-Serif" font-size="10.00"> &lt; UINT_PTR, unsigned &gt;</text>
</g>
<!-- Node23 -->
<g id="node23" class="node"><title>Node23</title>
<polygon fill="white" stroke="#bfbfbf" points="585,-422.5 585,-441.5 665,-441.5 665,-422.5 585,-422.5"/>
<text text-anchor="middle" x="625" y="-429.5" font-family="Helvetica,sans-Serif" font-size="10.00">Box&lt; tnData &gt;</text>
</g>
<!-- Node23&#45;&gt;Node22 -->
<g id="edge39" class="edge"><title>Node23&#45;&gt;Node22</title>
<path fill="none" stroke="#9a32cd" stroke-dasharray="5,2" d="M666.987,-419.043C673.396,-416.815 679.91,-414.43 686,-412 727.52,-395.434 772.888,-370.134 800.134,-354.089"/>
<polygon fill="#9a32cd" stroke="#9a32cd" points="665.428,-415.876 657.08,-422.399 667.674,-422.505 665.428,-415.876"/>
<text text-anchor="middle" x="726" y="-407" font-family="Helvetica,sans-Serif" font-size="10.00"> bData</text>
</g>
<!-- Node24&#45;&gt;Node22 -->
<g id="edge40" class="edge"><title>Node24&#45;&gt;Node22</title>
<path fill="none" stroke="#9a32cd" stroke-dasharray="5,2" d="M691.47,-371.879C715.574,-365.944 742.708,-359.263 766.189,-353.481"/>
<polygon fill="#9a32cd" stroke="#9a32cd" points="690.57,-368.496 681.697,-374.286 692.244,-375.293 690.57,-368.496"/>
<text text-anchor="middle" x="726" y="-371" font-family="Helvetica,sans-Serif" font-size="10.00"> lKey</text>
</g>
<!-- Node25 -->
<g id="node25" class="node"><title>Node25</title>
<polygon fill="white" stroke="#bfbfbf" points="376,-479.5 376,-498.5 418,-498.5 418,-479.5 376,-479.5"/>
<text text-anchor="middle" x="397" y="-486.5" font-family="Helvetica,sans-Serif" font-size="10.00">tnKey</text>
</g>
<!-- Node25&#45;&gt;Node24 -->
<g id="edge43" class="edge"><title>Node25&#45;&gt;Node24</title>
<path fill="none" stroke="#9a32cd" stroke-dasharray="5,2" d="M428.428,-492.541C461.233,-494.618 513.154,-492.618 546,-465 564.719,-449.26 547.247,-430.817 564,-413 567.633,-409.136 571.955,-405.848 576.589,-403.055"/>
<polygon fill="#9a32cd" stroke="#9a32cd" points="428.339,-489.023 418.091,-491.712 427.779,-496.001 428.339,-489.023"/>
<text text-anchor="middle" x="509" y="-495" font-family="Helvetica,sans-Serif" font-size="10.00"> tAbstract</text>
</g>
<!-- Node26 -->
<g id="node26" class="node"><title>Node26</title>
<polygon fill="white" stroke="#bfbfbf" points="1639,-76.5 1639,-95.5 1707,-95.5 1707,-76.5 1639,-76.5"/>
<text text-anchor="middle" x="1673" y="-83.5" font-family="Helvetica,sans-Serif" font-size="10.00">WNDPROC</text>
</g>
<!-- Node26&#45;&gt;Node3 -->
<g id="edge46" class="edge"><title>Node26&#45;&gt;Node3</title>
<path fill="none" stroke="#9a32cd" stroke-dasharray="5,2" d="M1717.48,-89.8781C1747.62,-92.5669 1788.28,-96.194 1822.23,-99.222"/>
<polygon fill="#9a32cd" stroke="#9a32cd" points="1717.55,-86.3712 1707.28,-88.9688 1716.93,-93.3435 1717.55,-86.3712"/>
<text text-anchor="middle" x="1781" y="-101" font-family="Helvetica,sans-Serif" font-size="10.00"> fDefProc</text>
</g>
<!-- Node27 -->
<g id="node27" class="node"><title>Node27</title>
<polygon fill="white" stroke="#bfbfbf" points="1648.5,-38.5 1648.5,-57.5 1697.5,-57.5 1697.5,-38.5 1648.5,-38.5"/>
<text text-anchor="middle" x="1673" y="-45.5" font-family="Helvetica,sans-Serif" font-size="10.00">HFONT</text>
</g>
<!-- Node27&#45;&gt;Node3 -->
<g id="edge47" class="edge"><title>Node27&#45;&gt;Node3</title>
<path fill="none" stroke="#9a32cd" stroke-dasharray="5,2" d="M1707.65,-54.701C1734.1,-60.2846 1771.74,-68.9318 1804,-79 1812.19,-81.5571 1813.87,-83.2377 1822,-86 1831.8,-89.3295 1842.54,-92.615 1852.42,-95.4935"/>
<polygon fill="#9a32cd" stroke="#9a32cd" points="1708.25,-51.251 1697.75,-52.6433 1706.83,-58.1046 1708.25,-51.251"/>
<text text-anchor="middle" x="1781" y="-82" font-family="Helvetica,sans-Serif" font-size="10.00"> hDefFont</text>
</g>
<!-- Node28&#45;&gt;Node3 -->
<g id="edge48" class="edge"><title>Node28&#45;&gt;Node3</title>
<path fill="none" stroke="#9a32cd" stroke-dasharray="5,2" d="M1550.83,-207.133C1617.8,-191.386 1718.35,-166.138 1804,-138 1825.07,-131.079 1848.5,-121.593 1865.08,-114.567"/>
<polygon fill="#9a32cd" stroke="#9a32cd" points="1549.72,-203.796 1540.78,-209.482 1551.32,-210.612 1549.72,-203.796"/>
<text text-anchor="middle" x="1673" y="-197" font-family="Helvetica,sans-Serif" font-size="10.00"> Tooltip</text>
</g>
<!-- Node29 -->
<g id="node29" class="node"><title>Node29</title>
<polygon fill="white" stroke="#bfbfbf" points="1212.5,-214.5 1212.5,-233.5 1277.5,-233.5 1277.5,-214.5 1212.5,-214.5"/>
<text text-anchor="middle" x="1245" y="-221.5" font-family="Helvetica,sans-Serif" font-size="10.00">TOOLINFO</text>
</g>
<!-- Node29&#45;&gt;Node28 -->
<g id="edge49" class="edge"><title>Node29&#45;&gt;Node28</title>
<path fill="none" stroke="#9a32cd" stroke-dasharray="5,2" d="M1287.76,-224C1321.75,-224 1370.31,-224 1409.32,-224"/>
<polygon fill="#9a32cd" stroke="#9a32cd" points="1287.7,-220.5 1277.7,-224 1287.7,-227.5 1287.7,-220.5"/>
<text text-anchor="middle" x="1364" y="-227" font-family="Helvetica,sans-Serif" font-size="10.00"> tToolTipInfo</text>
</g>
<!-- Node30 -->
<g id="node30" class="node"><title>Node30</title>
<polygon fill="white" stroke="#bfbfbf" points="1637.5,-0.5 1637.5,-19.5 1708.5,-19.5 1708.5,-0.5 1637.5,-0.5"/>
<text text-anchor="middle" x="1673" y="-7.5" font-family="Helvetica,sans-Serif" font-size="10.00">HINSTANCE</text>
</g>
<!-- Node30&#45;&gt;Node3 -->
<g id="edge51" class="edge"><title>Node30&#45;&gt;Node3</title>
<path fill="none" stroke="#9a32cd" stroke-dasharray="5,2" d="M1718.66,-15.8825C1745.97,-21.4711 1780.13,-32.2676 1804,-53 1816.61,-63.9545 1808.99,-75.5221 1822,-86 1826.85,-89.908 1832.48,-93.0123 1838.36,-95.478"/>
<polygon fill="#9a32cd" stroke="#9a32cd" points="1719.03,-12.3923 1708.56,-13.9857 1717.74,-19.272 1719.03,-12.3923"/>
<text text-anchor="middle" x="1781" y="-56" font-family="Helvetica,sans-Serif" font-size="10.00"> hInstance</text>
</g>
<!-- Node31 -->
<g id="node31" class="node"><title>Node31</title>
<g id="a_node31"><a xlink:href="class_kuszk_a_p_i_1_1_forms_1_1_images.html" target="_top" xlink:title="KuszkAPI::Forms::Images">
<polygon fill="white" stroke="black" points="2039.5,-57.5 2039.5,-76.5 2170.5,-76.5 2170.5,-57.5 2039.5,-57.5"/>
<text text-anchor="middle" x="2105" y="-64.5" font-family="Helvetica,sans-Serif" font-size="10.00">KuszkAPI::Forms::Images</text>
</a>
</g>
</g>
<!-- Node31&#45;&gt;Node1 -->
<g id="edge53" class="edge"><title>Node31&#45;&gt;Node1</title>
<path fill="none" stroke="#9a32cd" stroke-dasharray="5,2" d="M2180.91,-74.1684C2200.74,-76.066 2222.12,-78.1118 2241.85,-80.0004"/>
<polygon fill="#9a32cd" stroke="#9a32cd" points="2180.99,-70.6597 2170.7,-73.1912 2180.32,-77.6279 2180.99,-70.6597"/>
<text text-anchor="middle" x="2210" y="-82" font-family="Helvetica,sans-Serif" font-size="10.00"> Icons</text>
</g>
<!-- Node32 -->
<g id="node32" class="node"><title>Node32</title>
<polygon fill="white" stroke="#bfbfbf" points="1851,-57.5 1851,-76.5 1925,-76.5 1925,-57.5 1851,-57.5"/>
<text text-anchor="middle" x="1888" y="-64.5" font-family="Helvetica,sans-Serif" font-size="10.00">HIMAGELIST</text>
</g>
<!-- Node32&#45;&gt;Node31 -->
<g id="edge54" class="edge"><title>Node32&#45;&gt;Node31</title>
<path fill="none" stroke="#9a32cd" stroke-dasharray="5,2" d="M1935.78,-67C1966.14,-67 2006.11,-67 2039.47,-67"/>
<polygon fill="#9a32cd" stroke="#9a32cd" points="1935.47,-63.5001 1925.47,-67 1935.47,-70.5001 1935.47,-63.5001"/>
<text text-anchor="middle" x="1993" y="-70" font-family="Helvetica,sans-Serif" font-size="10.00"> hUchwyt</text>
</g>
</g>
</svg>
        <g id="navigator" transform="translate(0 0)" fill="#404254">
                <rect fill="#f2f5e9" fill-opacity="0.5" stroke="#606060" stroke-width=".5" x="0" y="0" width="60" height="60"/>
                <use id="zoomplus" xlink:href="#zoomPlus" x="17" y="9" onmousedown="handleZoom(evt,'in')"/>
                <use id="zoomminus" xlink:href="#zoomMin" x="42" y="9" onmousedown="handleZoom(evt,'out')"/>
                <use id="reset" xlink:href="#resetDef" x="30" y="36" onmousedown="handleReset()"/>
                <g id="arrowUp" xlink:href="#dirArrow" transform="translate(30 24)" onmousedown="handlePan(0,-1)">
                  <use xlink:href="#rim" fill="#404040">
                        <set attributeName="fill" to="#808080" begin="arrowUp.mouseover" end="arrowUp.mouseout"/>
                  </use>
                  <path fill="none" stroke="white" stroke-width="1.5" d="M0,-3.0v7 M-2.5,-0.5L0,-3.0L2.5,-0.5"/>
                </g>
                <g id="arrowRight" xlink:href="#dirArrow" transform="rotate(90) translate(36 -43)" onmousedown="handlePan(1,0)">
                  <use xlink:href="#rim" fill="#404040">
                        <set attributeName="fill" to="#808080" begin="arrowRight.mouseover" end="arrowRight.mouseout"/>
                  </use>
                  <path fill="none" stroke="white" stroke-width="1.5" d="M0,-3.0v7 M-2.5,-0.5L0,-3.0L2.5,-0.5"/>
                </g>
                <g id="arrowDown" xlink:href="#dirArrow" transform="rotate(180) translate(-30 -48)" onmousedown="handlePan(0,1)">
                  <use xlink:href="#rim" fill="#404040">
                        <set attributeName="fill" to="#808080" begin="arrowDown.mouseover" end="arrowDown.mouseout"/>
                  </use>
                  <path fill="none" stroke="white" stroke-width="1.5" d="M0,-3.0v7 M-2.5,-0.5L0,-3.0L2.5,-0.5"/>
                </g>
                <g id="arrowLeft" xlink:href="#dirArrow" transform="rotate(270) translate(-36 17)" onmousedown="handlePan(-1,0)">
                  <use xlink:href="#rim" fill="#404040">
                        <set attributeName="fill" to="#808080" begin="arrowLeft.mouseover" end="arrowLeft.mouseout"/>
                  </use>
                  <path fill="none" stroke="white" stroke-width="1.5" d="M0,-3.0v7 M-2.5,-0.5L0,-3.0L2.5,-0.5"/>
                </g>
        </g>
        <svg viewBox="0 0 15 15" width="100%" height="30px" preserveAspectRatio="xMaxYMin meet">
         <g id="arrow_out" transform="scale(0.3 0.3)">
          <a xlink:href="class_kuszk_a_p_i_1_1_forms_1_1_combo_box__coll__graph_org.svg" target="_base">
           <rect id="button" ry="5" rx="5" y="6" x="6" height="38" width="38"
                fill="#f2f5e9" fill-opacity="0.5" stroke="#606060" stroke-width="1.0"/>
           <path id="arrow"
             d="M 11.500037,31.436501 C 11.940474,20.09759 22.043105,11.32322 32.158766,21.979434 L 37.068811,17.246167 C 37.068811,17.246167 37.088388,32 37.088388,32 L 22.160133,31.978069 C 22.160133,31.978069 26.997745,27.140456 26.997745,27.140456 C 18.528582,18.264221 13.291696,25.230495 11.500037,31.436501 z"
             style="fill:#404040;"/>
          </a>
         </g>
        </svg>
</svg>
