<?xml version="1.0" encoding="UTF-8" standalone="no"?>
<!DOCTYPE svg PUBLIC "-//W3C//DTD SVG 1.1//EN"
 "http://www.w3.org/Graphics/SVG/1.1/DTD/svg11.dtd">
<!-- Generated by graphviz version 2.36.0 (20140111.2315)
 -->
<!-- Title: KuszkAPI::Sockets::Socket Pages: 1 -->
<svg width="226pt" height="108pt"
 viewBox="0.00 0.00 226.00 108.00" xmlns="http://www.w3.org/2000/svg" xmlns:xlink="http://www.w3.org/1999/xlink">
<g id="graph0" class="graph" transform="scale(1 1) rotate(0) translate(4 104)">
<title>KuszkAPI::Sockets::Socket</title>
<polygon fill="white" stroke="none" points="-4,4 -4,-104 222,-104 222,4 -4,4"/>
<!-- Node1 -->
<g id="node1" class="node"><title>Node1</title>
<polygon fill="#bfbfbf" stroke="black" points="55,-1 55,-31 163,-31 163,-1 55,-1"/>
<text text-anchor="start" x="63" y="-19" font-family="Helvetica,sans-Serif" font-size="10.00">KuszkAPI::Sockets::</text>
<text text-anchor="middle" x="109" y="-8" font-family="Helvetica,sans-Serif" font-size="10.00">Socket</text>
</g>
<!-- Node2 -->
<g id="node2" class="node"><title>Node2</title>
<polygon fill="white" stroke="#bfbfbf" points="0,-80.5 0,-99.5 56,-99.5 56,-80.5 0,-80.5"/>
<text text-anchor="middle" x="28" y="-87.5" font-family="Helvetica,sans-Serif" font-size="10.00">SOCKET</text>
</g>
<!-- Node2&#45;&gt;Node1 -->
<g id="edge1" class="edge"><title>Node2&#45;&gt;Node1</title>
<path fill="none" stroke="#9a32cd" stroke-dasharray="5,2" d="M42.519,-72.4859C49.1182,-65.3046 57.1852,-56.9599 65,-50 72.4158,-43.3954 81.068,-36.7107 88.7281,-31.1011"/>
<polygon fill="#9a32cd" stroke="#9a32cd" points="39.6381,-70.4549 35.5494,-80.2291 44.8409,-75.138 39.6381,-70.4549"/>
<text text-anchor="middle" x="85" y="-53.5" font-family="Helvetica,sans-Serif" font-size="10.00"> sSocket</text>
</g>
<!-- Node3 -->
<g id="node3" class="node"><title>Node3</title>
<polygon fill="white" stroke="#bfbfbf" points="74.5,-80.5 74.5,-99.5 143.5,-99.5 143.5,-80.5 74.5,-80.5"/>
<text text-anchor="middle" x="109" y="-87.5" font-family="Helvetica,sans-Serif" font-size="10.00">sockaddr_in</text>
</g>
<!-- Node3&#45;&gt;Node1 -->
<g id="edge2" class="edge"><title>Node3&#45;&gt;Node1</title>
<path fill="none" stroke="#9a32cd" stroke-dasharray="5,2" d="M109,-70.0846C109,-57.9148 109,-42.3538 109,-31.2316"/>
<polygon fill="#9a32cd" stroke="#9a32cd" points="105.5,-70.4579 109,-80.4579 112.5,-70.4579 105.5,-70.4579"/>
<text text-anchor="middle" x="126" y="-53.5" font-family="Helvetica,sans-Serif" font-size="10.00"> sAdres</text>
</g>
<!-- Node4 -->
<g id="node4" class="node"><title>Node4</title>
<g id="a_node4"><a xlink:href="namespace_3global_scope_4.html#classunsigned" target="_top" xlink:title="unsigned">
<polygon fill="white" stroke="black" points="162,-80.5 162,-99.5 218,-99.5 218,-80.5 162,-80.5"/>
<text text-anchor="middle" x="190" y="-87.5" font-family="Helvetica,sans-Serif" font-size="10.00">unsigned</text>
</a>
</g>
</g>
<!-- Node4&#45;&gt;Node1 -->
<g id="edge3" class="edge"><title>Node4&#45;&gt;Node1</title>
<path fill="none" stroke="#9a32cd" stroke-dasharray="5,2" d="M172.98,-73.409C165.109,-66.2392 155.616,-57.6464 147,-50 139.942,-43.736 132.076,-36.884 125.34,-31.0549"/>
<polygon fill="#9a32cd" stroke="#9a32cd" points="170.745,-76.1076 180.489,-80.2663 175.465,-70.9386 170.745,-76.1076"/>
<text text-anchor="middle" x="175.5" y="-53.5" font-family="Helvetica,sans-Serif" font-size="10.00"> uIlosc</text>
</g>
</g>
</svg>
