<?xml version="1.0" encoding="UTF-8" standalone="no"?>
<!DOCTYPE svg PUBLIC "-//W3C//DTD SVG 1.1//EN"
 "http://www.w3.org/Graphics/SVG/1.1/DTD/svg11.dtd">
<!-- Generated by graphviz version 2.36.0 (20140111.2315)
 -->
<!-- Title: KuszkAPI::Containers::Strings::Add Pages: 1 -->
<svg width="306pt" height="528pt"
 viewBox="0.00 0.00 306.00 528.00" xmlns="http://www.w3.org/2000/svg" xmlns:xlink="http://www.w3.org/1999/xlink">
<g id="graph0" class="graph" transform="scale(1 1) rotate(0) translate(4 524)">
<title>KuszkAPI::Containers::Strings::Add</title>
<polygon fill="white" stroke="none" points="-4,4 -4,-524 302,-524 302,4 -4,4"/>
<!-- Node1 -->
<g id="node1" class="node"><title>Node1</title>
<polygon fill="#bfbfbf" stroke="black" points="0.5,-245 0.5,-275 113.5,-275 113.5,-245 0.5,-245"/>
<text text-anchor="start" x="8.5" y="-263" font-family="Helvetica,sans-Serif" font-size="10.00">KuszkAPI::Containers</text>
<text text-anchor="middle" x="57" y="-252" font-family="Helvetica,sans-Serif" font-size="10.00">::Strings::Add</text>
</g>
<!-- Node2 -->
<g id="node2" class="node"><title>Node2</title>
<g id="a_node2"><a xlink:href="class_kuszk_a_p_i_1_1_forms_1_1_edit_box.html#a79e3ff534b41bd0724e77766b6ddd248" target="_top" xlink:title="KuszkAPI::Forms::EditBox\l::AddLine">
<polygon fill="white" stroke="black" points="157,-490 157,-520 291,-520 291,-490 157,-490"/>
<text text-anchor="start" x="165" y="-508" font-family="Helvetica,sans-Serif" font-size="10.00">KuszkAPI::Forms::EditBox</text>
<text text-anchor="middle" x="224" y="-497" font-family="Helvetica,sans-Serif" font-size="10.00">::AddLine</text>
</a>
</g>
</g>
<!-- Node1&#45;&gt;Node2 -->
<g id="edge1" class="edge"><title>Node1&#45;&gt;Node2</title>
<path fill="none" stroke="midnightblue" d="M61.6516,-285.102C69.5401,-330.387 92.3562,-426.048 150,-480 154.108,-483.845 158.833,-487.101 163.862,-489.858"/>
<polygon fill="midnightblue" stroke="midnightblue" points="65.1048,-284.531 60.032,-275.229 58.1972,-285.664 65.1048,-284.531"/>
</g>
<!-- Node3 -->
<g id="node3" class="node"><title>Node3</title>
<g id="a_node3"><a xlink:href="class_kuszk_a_p_i_1_1_forms_1_1_table_box.html#a591dd077c40df16ef559706357fc5ba5" target="_top" xlink:title="KuszkAPI::Forms::TableBox\l::GetColumn">
<polygon fill="white" stroke="black" points="154,-441 154,-471 294,-471 294,-441 154,-441"/>
<text text-anchor="start" x="162" y="-459" font-family="Helvetica,sans-Serif" font-size="10.00">KuszkAPI::Forms::TableBox</text>
<text text-anchor="middle" x="224" y="-448" font-family="Helvetica,sans-Serif" font-size="10.00">::GetColumn</text>
</a>
</g>
</g>
<!-- Node1&#45;&gt;Node3 -->
<g id="edge2" class="edge"><title>Node1&#45;&gt;Node3</title>
<path fill="none" stroke="midnightblue" d="M65.0585,-285.192C76.7116,-322.296 103.441,-391.498 150,-431 154.597,-434.9 159.833,-438.201 165.342,-440.994"/>
<polygon fill="midnightblue" stroke="midnightblue" points="68.2836,-283.765 62.0437,-275.202 61.5821,-285.787 68.2836,-283.765"/>
</g>
<!-- Node4 -->
<g id="node4" class="node"><title>Node4</title>
<g id="a_node4"><a xlink:href="class_kuszk_a_p_i_1_1_forms_1_1_list_box.html#a6a28db85058610a3d57cc445cd5ff746" target="_top" xlink:title="KuszkAPI::Forms::ListBox\l::GetItems">
<polygon fill="white" stroke="black" points="157.5,-392 157.5,-422 290.5,-422 290.5,-392 157.5,-392"/>
<text text-anchor="start" x="165.5" y="-410" font-family="Helvetica,sans-Serif" font-size="10.00">KuszkAPI::Forms::ListBox</text>
<text text-anchor="middle" x="224" y="-399" font-family="Helvetica,sans-Serif" font-size="10.00">::GetItems</text>
</a>
</g>
</g>
<!-- Node1&#45;&gt;Node4 -->
<g id="edge3" class="edge"><title>Node1&#45;&gt;Node4</title>
<path fill="none" stroke="midnightblue" d="M70.3021,-283.98C85.5148,-311.384 113.881,-355.814 150,-382 155.314,-385.853 161.269,-389.147 167.424,-391.955"/>
<polygon fill="midnightblue" stroke="midnightblue" points="73.3122,-282.188 65.4786,-275.054 67.1539,-285.516 73.3122,-282.188"/>
</g>
<!-- Node5 -->
<g id="node5" class="node"><title>Node5</title>
<g id="a_node5"><a xlink:href="class_kuszk_a_p_i_1_1_forms_1_1_combo_box.html#a5bb4447a9a712967c01fbed2719cca2d" target="_top" xlink:title="KuszkAPI::Forms::ComboBox\l::GetItems">
<polygon fill="white" stroke="black" points="150,-343 150,-373 298,-373 298,-343 150,-343"/>
<text text-anchor="start" x="158" y="-361" font-family="Helvetica,sans-Serif" font-size="10.00">KuszkAPI::Forms::ComboBox</text>
<text text-anchor="middle" x="224" y="-350" font-family="Helvetica,sans-Serif" font-size="10.00">::GetItems</text>
</a>
</g>
</g>
<!-- Node1&#45;&gt;Node5 -->
<g id="edge4" class="edge"><title>Node1&#45;&gt;Node5</title>
<path fill="none" stroke="midnightblue" d="M81.2885,-282.199C98.9896,-298.104 124.557,-319.089 150,-333 156.817,-336.727 164.293,-340.049 171.778,-342.958"/>
<polygon fill="midnightblue" stroke="midnightblue" points="83.4788,-279.459 73.7377,-275.292 78.7541,-284.624 83.4788,-279.459"/>
</g>
<!-- Node6 -->
<g id="node6" class="node"><title>Node6</title>
<g id="a_node6"><a xlink:href="class_kuszk_a_p_i_1_1_forms_1_1_table_box.html#afe16920a713ba1cfad66443cc9bf8030" target="_top" xlink:title="KuszkAPI::Forms::TableBox\l::GetItems">
<polygon fill="white" stroke="black" points="154,-294 154,-324 294,-324 294,-294 154,-294"/>
<text text-anchor="start" x="162" y="-312" font-family="Helvetica,sans-Serif" font-size="10.00">KuszkAPI::Forms::TableBox</text>
<text text-anchor="middle" x="224" y="-301" font-family="Helvetica,sans-Serif" font-size="10.00">::GetItems</text>
</a>
</g>
</g>
<!-- Node1&#45;&gt;Node6 -->
<g id="edge5" class="edge"><title>Node1&#45;&gt;Node6</title>
<path fill="none" stroke="midnightblue" d="M118.501,-277.967C136.18,-283.217 155.313,-288.899 172.316,-293.948"/>
<polygon fill="midnightblue" stroke="midnightblue" points="119.434,-274.593 108.852,-275.101 117.442,-281.304 119.434,-274.593"/>
</g>
<!-- Node7 -->
<g id="node7" class="node"><title>Node7</title>
<g id="a_node7"><a xlink:href="class_kuszk_a_p_i_1_1_forms_1_1_tab_box.html#a89e58110675f0a2d6f632328fa782d45" target="_top" xlink:title="KuszkAPI::Forms::TabBox\l::GetItems">
<polygon fill="white" stroke="black" points="157.5,-245 157.5,-275 290.5,-275 290.5,-245 157.5,-245"/>
<text text-anchor="start" x="165.5" y="-263" font-family="Helvetica,sans-Serif" font-size="10.00">KuszkAPI::Forms::TabBox</text>
<text text-anchor="middle" x="224" y="-252" font-family="Helvetica,sans-Serif" font-size="10.00">::GetItems</text>
</a>
</g>
</g>
<!-- Node1&#45;&gt;Node7 -->
<g id="edge6" class="edge"><title>Node1&#45;&gt;Node7</title>
<path fill="none" stroke="midnightblue" d="M124.156,-260C135.048,-260 146.335,-260 157.217,-260"/>
<polygon fill="midnightblue" stroke="midnightblue" points="123.862,-256.5 113.861,-260 123.861,-263.5 123.862,-256.5"/>
</g>
<!-- Node8 -->
<g id="node8" class="node"><title>Node8</title>
<g id="a_node8"><a xlink:href="class_kuszk_a_p_i_1_1_forms_1_1_table_box.html#ab49a3916d6e1f49c4db6809c09b4a201" target="_top" xlink:title="KuszkAPI::Forms::TableBox\l::GetItemStruct">
<polygon fill="white" stroke="black" points="154,-196 154,-226 294,-226 294,-196 154,-196"/>
<text text-anchor="start" x="162" y="-214" font-family="Helvetica,sans-Serif" font-size="10.00">KuszkAPI::Forms::TableBox</text>
<text text-anchor="middle" x="224" y="-203" font-family="Helvetica,sans-Serif" font-size="10.00">::GetItemStruct</text>
</a>
</g>
</g>
<!-- Node1&#45;&gt;Node8 -->
<g id="edge7" class="edge"><title>Node1&#45;&gt;Node8</title>
<path fill="none" stroke="midnightblue" d="M118.501,-242.033C136.18,-236.783 155.313,-231.101 172.316,-226.052"/>
<polygon fill="midnightblue" stroke="midnightblue" points="117.442,-238.696 108.852,-244.899 119.434,-245.407 117.442,-238.696"/>
</g>
<!-- Node9 -->
<g id="node9" class="node"><title>Node9</title>
<g id="a_node9"><a xlink:href="class_kuszk_a_p_i_1_1_core_1_1_console.html#a4117149e814f6819b8e592ba2efcb473" target="_top" xlink:title="KuszkAPI::Core::Console\l::GetLines">
<polygon fill="white" stroke="black" points="160,-147 160,-177 288,-177 288,-147 160,-147"/>
<text text-anchor="start" x="168" y="-165" font-family="Helvetica,sans-Serif" font-size="10.00">KuszkAPI::Core::Console</text>
<text text-anchor="middle" x="224" y="-154" font-family="Helvetica,sans-Serif" font-size="10.00">::GetLines</text>
</a>
</g>
</g>
<!-- Node1&#45;&gt;Node9 -->
<g id="edge8" class="edge"><title>Node1&#45;&gt;Node9</title>
<path fill="none" stroke="midnightblue" d="M81.2885,-237.801C98.9896,-221.896 124.557,-200.911 150,-187 156.817,-183.273 164.293,-179.951 171.778,-177.042"/>
<polygon fill="midnightblue" stroke="midnightblue" points="78.7541,-235.376 73.7377,-244.708 83.4788,-240.541 78.7541,-235.376"/>
</g>
<!-- Node10 -->
<g id="node10" class="node"><title>Node10</title>
<g id="a_node10"><a xlink:href="class_kuszk_a_p_i_1_1_forms_1_1_edit_box.html#ae3e0f39c6a2ffa9ab23af30005b7f0b3" target="_top" xlink:title="KuszkAPI::Forms::EditBox\l::GetLines">
<polygon fill="white" stroke="black" points="157,-98 157,-128 291,-128 291,-98 157,-98"/>
<text text-anchor="start" x="165" y="-116" font-family="Helvetica,sans-Serif" font-size="10.00">KuszkAPI::Forms::EditBox</text>
<text text-anchor="middle" x="224" y="-105" font-family="Helvetica,sans-Serif" font-size="10.00">::GetLines</text>
</a>
</g>
</g>
<!-- Node1&#45;&gt;Node10 -->
<g id="edge9" class="edge"><title>Node1&#45;&gt;Node10</title>
<path fill="none" stroke="midnightblue" d="M70.3021,-236.02C85.5148,-208.616 113.881,-164.186 150,-138 155.314,-134.147 161.269,-130.853 167.424,-128.045"/>
<polygon fill="midnightblue" stroke="midnightblue" points="67.1539,-234.484 65.4786,-244.946 73.3122,-237.812 67.1539,-234.484"/>
</g>
<!-- Node11 -->
<g id="node11" class="node"><title>Node11</title>
<g id="a_node11"><a xlink:href="class_kuszk_a_p_i_1_1_forms_1_1_combo_box.html#acd08c06092a749a67c6c419580ace7e3" target="_top" xlink:title="KuszkAPI::Forms::ComboBox\l::Sort">
<polygon fill="white" stroke="black" points="150,-49 150,-79 298,-79 298,-49 150,-49"/>
<text text-anchor="start" x="158" y="-67" font-family="Helvetica,sans-Serif" font-size="10.00">KuszkAPI::Forms::ComboBox</text>
<text text-anchor="middle" x="224" y="-56" font-family="Helvetica,sans-Serif" font-size="10.00">::Sort</text>
</a>
</g>
</g>
<!-- Node1&#45;&gt;Node11 -->
<g id="edge10" class="edge"><title>Node1&#45;&gt;Node11</title>
<path fill="none" stroke="midnightblue" d="M65.0585,-234.808C76.7116,-197.704 103.441,-128.502 150,-89 154.597,-85.1 159.833,-81.7986 165.342,-79.0059"/>
<polygon fill="midnightblue" stroke="midnightblue" points="61.5821,-234.213 62.0437,-244.798 68.2836,-236.235 61.5821,-234.213"/>
</g>
<!-- Node12 -->
<g id="node12" class="node"><title>Node12</title>
<g id="a_node12"><a xlink:href="class_kuszk_a_p_i_1_1_forms_1_1_table_box.html#a17a5957c6b5ec94902d7c969f35b149a" target="_top" xlink:title="KuszkAPI::Forms::TableBox\l::Sort">
<polygon fill="white" stroke="black" points="154,-0 154,-30 294,-30 294,-0 154,-0"/>
<text text-anchor="start" x="162" y="-18" font-family="Helvetica,sans-Serif" font-size="10.00">KuszkAPI::Forms::TableBox</text>
<text text-anchor="middle" x="224" y="-7" font-family="Helvetica,sans-Serif" font-size="10.00">::Sort</text>
</a>
</g>
</g>
<!-- Node1&#45;&gt;Node12 -->
<g id="edge11" class="edge"><title>Node1&#45;&gt;Node12</title>
<path fill="none" stroke="midnightblue" d="M61.6516,-234.898C69.5401,-189.613 92.3562,-93.9523 150,-40 154.108,-36.1552 158.833,-32.8991 163.862,-30.142"/>
<polygon fill="midnightblue" stroke="midnightblue" points="58.1972,-234.336 60.032,-244.771 65.1048,-235.469 58.1972,-234.336"/>
</g>
</g>
</svg>
