<?xml version="1.0" encoding="UTF-8" standalone="no"?>
<!DOCTYPE svg PUBLIC "-//W3C//DTD SVG 1.1//EN"
 "http://www.w3.org/Graphics/SVG/1.1/DTD/svg11.dtd">
<!-- Generated by graphviz version 2.36.0 (20140111.2315)
 -->
<!-- Title: KuszkAPI::Containers::Map&lt; tnData, tnKey &gt; Pages: 1 -->
<svg width="840pt" height="236pt"
 viewBox="0.00 0.00 840.00 236.00" xmlns="http://www.w3.org/2000/svg" xmlns:xlink="http://www.w3.org/1999/xlink">
<g id="graph0" class="graph" transform="scale(1 1) rotate(0) translate(4 232)">
<title>KuszkAPI::Containers::Map&lt; tnData, tnKey &gt;</title>
<polygon fill="white" stroke="none" points="-4,4 -4,-232 836,-232 836,4 -4,4"/>
<!-- Node1 -->
<g id="node1" class="node"><title>Node1</title>
<polygon fill="#bfbfbf" stroke="black" points="712.5,-82 712.5,-112 831.5,-112 831.5,-82 712.5,-82"/>
<text text-anchor="start" x="720.5" y="-100" font-family="Helvetica,sans-Serif" font-size="10.00">KuszkAPI::Containers</text>
<text text-anchor="middle" x="772" y="-89" font-family="Helvetica,sans-Serif" font-size="10.00">::Map&lt; tnData, tnKey &gt;</text>
</g>
<!-- Node2 -->
<g id="node2" class="node"><title>Node2</title>
<polygon fill="white" stroke="#bfbfbf" points="549,-131.5 549,-150.5 629,-150.5 629,-131.5 549,-131.5"/>
<text text-anchor="middle" x="589" y="-138.5" font-family="Helvetica,sans-Serif" font-size="10.00">Box&lt; tnData &gt;</text>
</g>
<!-- Node2&#45;&gt;Node1 -->
<g id="edge1" class="edge"><title>Node2&#45;&gt;Node1</title>
<path fill="none" stroke="#9a32cd" stroke-dasharray="5,2" d="M639.286,-129.019C661.797,-123.547 688.635,-117.022 712.193,-111.296"/>
<polygon fill="#9a32cd" stroke="#9a32cd" points="638.165,-125.689 629.274,-131.453 639.818,-132.491 638.165,-125.689"/>
<text text-anchor="middle" x="679" y="-126" font-family="Helvetica,sans-Serif" font-size="10.00"> bData</text>
</g>
<!-- Node3 -->
<g id="node3" class="node"><title>Node3</title>
<g id="a_node3"><a xlink:href="class_kuszk_a_p_i_1_1_containers_1_1_list.html" target="_top" xlink:title="KuszkAPI::Containers\l::List\&lt; tnKey \&gt;">
<polygon fill="white" stroke="black" points="532.5,-82 532.5,-112 645.5,-112 645.5,-82 532.5,-82"/>
<text text-anchor="start" x="540.5" y="-100" font-family="Helvetica,sans-Serif" font-size="10.00">KuszkAPI::Containers</text>
<text text-anchor="middle" x="589" y="-89" font-family="Helvetica,sans-Serif" font-size="10.00">::List&lt; tnKey &gt;</text>
</a>
</g>
</g>
<!-- Node3&#45;&gt;Node1 -->
<g id="edge2" class="edge"><title>Node3&#45;&gt;Node1</title>
<path fill="none" stroke="#9a32cd" stroke-dasharray="5,2" d="M655.862,-97C674.318,-97 694.254,-97 712.267,-97"/>
<polygon fill="#9a32cd" stroke="#9a32cd" points="655.783,-93.5001 645.783,-97 655.783,-100.5 655.783,-93.5001"/>
<text text-anchor="middle" x="679" y="-100" font-family="Helvetica,sans-Serif" font-size="10.00"> lKey</text>
</g>
<!-- Node4 -->
<g id="node4" class="node"><title>Node4</title>
<g id="a_node4"><a xlink:href="class_kuszk_a_p_i_1_1_containers_1_1_container.html" target="_top" xlink:title="Implementacja bazy dla modułu kontenerów. ">
<polygon fill="white" stroke="black" points="132.5,-29 132.5,-59 245.5,-59 245.5,-29 132.5,-29"/>
<text text-anchor="start" x="140.5" y="-47" font-family="Helvetica,sans-Serif" font-size="10.00">KuszkAPI::Containers</text>
<text text-anchor="middle" x="189" y="-36" font-family="Helvetica,sans-Serif" font-size="10.00">::Container</text>
</a>
</g>
</g>
<!-- Node4&#45;&gt;Node3 -->
<g id="edge3" class="edge"><title>Node4&#45;&gt;Node3</title>
<path fill="none" stroke="midnightblue" d="M255.885,-49.8937C308.111,-54.8682 382.879,-62.6632 448,-72 475.862,-75.9947 506.672,-81.3892 532.279,-86.1447"/>
<polygon fill="midnightblue" stroke="midnightblue" points="256.035,-46.3923 245.751,-48.9368 255.377,-53.3614 256.035,-46.3923"/>
</g>
<!-- Node9 -->
<g id="node9" class="node"><title>Node9</title>
<g id="a_node9"><a xlink:href="class_kuszk_a_p_i_1_1_containers_1_1_list.html" target="_top" xlink:title="Implementacja szablonu listy dla modułu kontenerów. ">
<polygon fill="white" stroke="black" points="334.5,-82 334.5,-112 447.5,-112 447.5,-82 334.5,-82"/>
<text text-anchor="start" x="342.5" y="-100" font-family="Helvetica,sans-Serif" font-size="10.00">KuszkAPI::Containers</text>
<text text-anchor="middle" x="391" y="-89" font-family="Helvetica,sans-Serif" font-size="10.00">::List&lt; tnData &gt;</text>
</a>
</g>
</g>
<!-- Node4&#45;&gt;Node9 -->
<g id="edge10" class="edge"><title>Node4&#45;&gt;Node9</title>
<path fill="none" stroke="midnightblue" d="M255.637,-61.3939C281.057,-68.13 309.848,-75.7598 334.241,-82.2239"/>
<polygon fill="midnightblue" stroke="midnightblue" points="256.274,-57.9419 245.711,-58.7635 254.481,-64.7083 256.274,-57.9419"/>
</g>
<!-- Node5 -->
<g id="node5" class="node"><title>Node5</title>
<g id="a_node5"><a xlink:href="namespace_3global_scope_4.html#classunsigned" target="_top" xlink:title="unsigned">
<polygon fill="white" stroke="black" points="0,-10.5 0,-29.5 56,-29.5 56,-10.5 0,-10.5"/>
<text text-anchor="middle" x="28" y="-17.5" font-family="Helvetica,sans-Serif" font-size="10.00">unsigned</text>
</a>
</g>
</g>
<!-- Node5&#45;&gt;Node1 -->
<g id="edge13" class="edge"><title>Node5&#45;&gt;Node1</title>
<path fill="none" stroke="#9a32cd" stroke-dasharray="5,2" d="M66.0098,-12.6825C98.1293,-6.97146 145.95,-0 188,-0 188,-0 188,-0 590,-0 658.451,-0 726.038,-54.5625 755.553,-81.8438"/>
<polygon fill="#9a32cd" stroke="#9a32cd" points="65.3684,-9.24163 56.1603,-14.482 66.6265,-16.1276 65.3684,-9.24163"/>
<text text-anchor="middle" x="391" y="-3" font-family="Helvetica,sans-Serif" font-size="10.00"> uIlosc</text>
</g>
<!-- Node5&#45;&gt;Node4 -->
<g id="edge4" class="edge"><title>Node5&#45;&gt;Node4</title>
<path fill="none" stroke="#9a32cd" stroke-dasharray="5,2" d="M66.4236,-25.6488C86.0859,-28.6167 110.572,-32.3128 132.406,-35.6085"/>
<polygon fill="#9a32cd" stroke="#9a32cd" points="66.7435,-22.1576 56.3331,-24.1257 65.6987,-29.0792 66.7435,-22.1576"/>
<text text-anchor="middle" x="90" y="-46" font-family="Helvetica,sans-Serif" font-size="10.00"> uIlosc</text>
<text text-anchor="middle" x="90" y="-35" font-family="Helvetica,sans-Serif" font-size="10.00">uMode</text>
</g>
<!-- Node6 -->
<g id="node6" class="node"><title>Node6</title>
<g id="a_node6"><a xlink:href="class_kuszk_a_p_i_1_1_containers_1_1_list.html#struct_kuszk_a_p_i_1_1_containers_1_1_list_1_1_item_data" target="_top" xlink:title="Struktura przechowująca wskaźnik na element listy oraz wskaźnik na kolejny obiekt. ">
<polygon fill="white" stroke="black" points="124,-139 124,-169 254,-169 254,-139 124,-139"/>
<text text-anchor="start" x="132" y="-157" font-family="Helvetica,sans-Serif" font-size="10.00">KuszkAPI::Containers</text>
<text text-anchor="middle" x="189" y="-146" font-family="Helvetica,sans-Serif" font-size="10.00">::List&lt; tnData &gt;::ItemData</text>
</a>
</g>
</g>
<!-- Node6&#45;&gt;Node3 -->
<g id="edge5" class="edge"><title>Node6&#45;&gt;Node3</title>
<path fill="none" stroke="#9a32cd" stroke-dasharray="5,2" d="M264.628,-156.543C281.553,-156.414 299.423,-155.718 316,-154 392.185,-146.103 478.479,-126.081 533.048,-112.009"/>
<polygon fill="#9a32cd" stroke="#9a32cd" points="264.228,-153.044 254.231,-156.555 264.235,-160.044 264.228,-153.044"/>
<text text-anchor="middle" x="391" y="-166" font-family="Helvetica,sans-Serif" font-size="10.00"> ptLast</text>
<text text-anchor="middle" x="391" y="-155" font-family="Helvetica,sans-Serif" font-size="10.00">ptBegin</text>
</g>
<!-- Node6&#45;&gt;Node6 -->
<g id="edge6" class="edge"><title>Node6&#45;&gt;Node6</title>
<path fill="none" stroke="#9a32cd" stroke-dasharray="5,2" d="M171.846,-179.598C174.19,-183.97 179.908,-187 189,-187 204.313,-187 210.055,-178.406 206.227,-169.275"/>
<polygon fill="#9a32cd" stroke="#9a32cd" points="175.344,-179.25 171.773,-169.275 168.344,-179.3 175.344,-179.25"/>
<text text-anchor="middle" x="189" y="-190" font-family="Helvetica,sans-Serif" font-size="10.00"> ptNext</text>
</g>
<!-- Node6&#45;&gt;Node9 -->
<g id="edge12" class="edge"><title>Node6&#45;&gt;Node9</title>
<path fill="none" stroke="#9a32cd" stroke-dasharray="5,2" d="M252.61,-136.156C279.79,-128.41 311.275,-119.437 337.242,-112.036"/>
<polygon fill="#9a32cd" stroke="#9a32cd" points="251.467,-132.842 242.809,-138.949 253.386,-139.574 251.467,-132.842"/>
<text text-anchor="middle" x="294" y="-145" font-family="Helvetica,sans-Serif" font-size="10.00"> ptLast</text>
<text text-anchor="middle" x="294" y="-134" font-family="Helvetica,sans-Serif" font-size="10.00">ptBegin</text>
</g>
<!-- Node7 -->
<g id="node7" class="node"><title>Node7</title>
<polygon fill="white" stroke="#bfbfbf" points="2,-144.5 2,-163.5 54,-163.5 54,-144.5 2,-144.5"/>
<text text-anchor="middle" x="28" y="-151.5" font-family="Helvetica,sans-Serif" font-size="10.00">tnData *</text>
</g>
<!-- Node7&#45;&gt;Node6 -->
<g id="edge7" class="edge"><title>Node7&#45;&gt;Node6</title>
<path fill="none" stroke="#9a32cd" stroke-dasharray="5,2" d="M64.4904,-154C81.966,-154 103.584,-154 123.825,-154"/>
<polygon fill="#9a32cd" stroke="#9a32cd" points="64.1941,-150.5 54.194,-154 64.194,-157.5 64.1941,-150.5"/>
<text text-anchor="middle" x="90" y="-157" font-family="Helvetica,sans-Serif" font-size="10.00"> ptData</text>
</g>
<!-- Node8 -->
<g id="node8" class="node"><title>Node8</title>
<polygon fill="white" stroke="#bfbfbf" points="370,-208.5 370,-227.5 412,-227.5 412,-208.5 370,-208.5"/>
<text text-anchor="middle" x="391" y="-215.5" font-family="Helvetica,sans-Serif" font-size="10.00">tnKey</text>
</g>
<!-- Node8&#45;&gt;Node3 -->
<g id="edge8" class="edge"><title>Node8&#45;&gt;Node3</title>
<path fill="none" stroke="#9a32cd" stroke-dasharray="5,2" d="M422.458,-216.907C449.943,-214.292 489.683,-206.207 514,-182 533.731,-162.358 513.617,-142.909 532,-122 535.374,-118.162 539.452,-114.884 543.851,-112.092"/>
<polygon fill="#9a32cd" stroke="#9a32cd" points="421.932,-213.436 412.226,-217.684 422.462,-220.416 421.932,-213.436"/>
<text text-anchor="middle" x="490" y="-212" font-family="Helvetica,sans-Serif" font-size="10.00"> tAbstract</text>
</g>
<!-- Node9&#45;&gt;Node3 -->
<g id="edge9" class="edge"><title>Node9&#45;&gt;Node3</title>
<path fill="none" stroke="orange" stroke-dasharray="5,2" d="M457.792,-97C481.944,-97 509.031,-97 532.219,-97"/>
<polygon fill="orange" stroke="orange" points="457.641,-93.5001 447.641,-97 457.641,-100.5 457.641,-93.5001"/>
<text text-anchor="middle" x="490" y="-100" font-family="Helvetica,sans-Serif" font-size="10.00"> &lt; tnKey &gt;</text>
</g>
<!-- Node10 -->
<g id="node10" class="node"><title>Node10</title>
<polygon fill="white" stroke="#bfbfbf" points="166.5,-87.5 166.5,-106.5 211.5,-106.5 211.5,-87.5 166.5,-87.5"/>
<text text-anchor="middle" x="189" y="-94.5" font-family="Helvetica,sans-Serif" font-size="10.00">tnData</text>
</g>
<!-- Node10&#45;&gt;Node9 -->
<g id="edge11" class="edge"><title>Node10&#45;&gt;Node9</title>
<path fill="none" stroke="#9a32cd" stroke-dasharray="5,2" d="M222.151,-97C252.334,-97 298.123,-97 334.256,-97"/>
<polygon fill="#9a32cd" stroke="#9a32cd" points="221.784,-93.5001 211.784,-97 221.784,-100.5 221.784,-93.5001"/>
<text text-anchor="middle" x="294" y="-100" font-family="Helvetica,sans-Serif" font-size="10.00"> tAbstract</text>
</g>
</g>
</svg>
