<?xml version="1.0" encoding="UTF-8" standalone="no"?>
<!DOCTYPE svg PUBLIC "-//W3C//DTD SVG 1.1//EN"
 "http://www.w3.org/Graphics/SVG/1.1/DTD/svg11.dtd">
<!-- Generated by graphviz version 2.36.0 (20140111.2315)
 -->
<!-- Title: KuszkAPI::Forms::TableBox::SetHeader Pages: 1 -->
<svg width="448pt" height="185pt"
 viewBox="0.00 0.00 448.00 185.00" xmlns="http://www.w3.org/2000/svg" xmlns:xlink="http://www.w3.org/1999/xlink">
<g id="graph0" class="graph" transform="scale(1 1) rotate(0) translate(4 181)">
<title>KuszkAPI::Forms::TableBox::SetHeader</title>
<polygon fill="white" stroke="none" points="-4,4 -4,-181 444,-181 444,4 -4,4"/>
<!-- Node1 -->
<g id="node1" class="node"><title>Node1</title>
<polygon fill="#bfbfbf" stroke="black" points="0,-73 0,-103 140,-103 140,-73 0,-73"/>
<text text-anchor="start" x="8" y="-91" font-family="Helvetica,sans-Serif" font-size="10.00">KuszkAPI::Forms::TableBox</text>
<text text-anchor="middle" x="70" y="-80" font-family="Helvetica,sans-Serif" font-size="10.00">::SetHeader</text>
</g>
<!-- Node2 -->
<g id="node2" class="node"><title>Node2</title>
<g id="a_node2"><a xlink:href="class_kuszk_a_p_i_1_1_containers_1_1_strings.html#a89fcfadc786b1736408189065ce5deaf" target="_top" xlink:title="KuszkAPI::Containers\l::Strings::Capacity">
<polygon fill="white" stroke="black" points="176.5,-147 176.5,-177 289.5,-177 289.5,-147 176.5,-147"/>
<text text-anchor="start" x="184.5" y="-165" font-family="Helvetica,sans-Serif" font-size="10.00">KuszkAPI::Containers</text>
<text text-anchor="middle" x="233" y="-154" font-family="Helvetica,sans-Serif" font-size="10.00">::Strings::Capacity</text>
</a>
</g>
</g>
<!-- Node1&#45;&gt;Node2 -->
<g id="edge1" class="edge"><title>Node1&#45;&gt;Node2</title>
<path fill="none" stroke="midnightblue" d="M103.104,-103.151C123.859,-112.905 151.478,-125.806 176,-137 180.088,-138.866 184.349,-140.796 188.617,-142.719"/>
<polygon fill="midnightblue" stroke="midnightblue" points="187.346,-145.985 197.903,-146.887 190.213,-139.599 187.346,-145.985"/>
</g>
<!-- Node3 -->
<g id="node3" class="node"><title>Node3</title>
<g id="a_node3"><a xlink:href="class_kuszk_a_p_i_1_1_containers_1_1_strings.html#a9021319df4615931b43c7e715bcf5bf9" target="_top" xlink:title="KuszkAPI::Containers\l::Strings::GetData">
<polygon fill="white" stroke="black" points="176.5,-98 176.5,-128 289.5,-128 289.5,-98 176.5,-98"/>
<text text-anchor="start" x="184.5" y="-116" font-family="Helvetica,sans-Serif" font-size="10.00">KuszkAPI::Containers</text>
<text text-anchor="middle" x="233" y="-105" font-family="Helvetica,sans-Serif" font-size="10.00">::Strings::GetData</text>
</a>
</g>
</g>
<!-- Node1&#45;&gt;Node3 -->
<g id="edge2" class="edge"><title>Node1&#45;&gt;Node3</title>
<path fill="none" stroke="midnightblue" d="M140.213,-98.7473C148.911,-100.098 157.789,-101.477 166.429,-102.818"/>
<polygon fill="midnightblue" stroke="midnightblue" points="166.019,-106.296 176.438,-104.372 167.093,-99.3793 166.019,-106.296"/>
</g>
<!-- Node5 -->
<g id="node5" class="node"><title>Node5</title>
<g id="a_node5"><a xlink:href="class_kuszk_a_p_i_1_1_containers_1_1_vector.html#ac81f316d6450268d362e6c8d269a9ef3" target="_top" xlink:title="KuszkAPI::Containers\l::Vector::GetData">
<polygon fill="white" stroke="black" points="176.5,-49 176.5,-79 289.5,-79 289.5,-49 176.5,-49"/>
<text text-anchor="start" x="184.5" y="-67" font-family="Helvetica,sans-Serif" font-size="10.00">KuszkAPI::Containers</text>
<text text-anchor="middle" x="233" y="-56" font-family="Helvetica,sans-Serif" font-size="10.00">::Vector::GetData</text>
</a>
</g>
</g>
<!-- Node1&#45;&gt;Node5 -->
<g id="edge4" class="edge"><title>Node1&#45;&gt;Node5</title>
<path fill="none" stroke="midnightblue" d="M140.213,-77.6826C148.911,-76.3859 157.789,-75.0625 166.429,-73.7745"/>
<polygon fill="midnightblue" stroke="midnightblue" points="167.063,-77.2188 176.438,-72.2825 166.031,-70.2953 167.063,-77.2188"/>
</g>
<!-- Node6 -->
<g id="node6" class="node"><title>Node6</title>
<g id="a_node6"><a xlink:href="class_kuszk_a_p_i_1_1_containers_1_1_string.html#a264c6116e5592a4464828feb720c8f3a" target="_top" xlink:title="KuszkAPI::Containers\l::String::Str">
<polygon fill="white" stroke="black" points="176.5,-0 176.5,-30 289.5,-30 289.5,-0 176.5,-0"/>
<text text-anchor="start" x="184.5" y="-18" font-family="Helvetica,sans-Serif" font-size="10.00">KuszkAPI::Containers</text>
<text text-anchor="middle" x="233" y="-7" font-family="Helvetica,sans-Serif" font-size="10.00">::String::Str</text>
</a>
</g>
</g>
<!-- Node1&#45;&gt;Node6 -->
<g id="edge5" class="edge"><title>Node1&#45;&gt;Node6</title>
<path fill="none" stroke="midnightblue" d="M104.069,-72.7916C124.726,-63.3142 151.889,-50.8928 176,-40 180.151,-38.1247 184.479,-36.178 188.808,-34.2361"/>
<polygon fill="midnightblue" stroke="midnightblue" points="190.523,-37.3031 198.22,-30.0223 187.662,-30.9142 190.523,-37.3031"/>
</g>
<!-- Node4 -->
<g id="node4" class="node"><title>Node4</title>
<g id="a_node4"><a xlink:href="class_kuszk_a_p_i_1_1_containers_1_1_string.html#a8ca4879ad62f0f4521b7e13eaa711c2c" target="_top" xlink:title="KuszkAPI::Containers\l::String::GetData">
<polygon fill="white" stroke="black" points="326.5,-98 326.5,-128 439.5,-128 439.5,-98 326.5,-98"/>
<text text-anchor="start" x="334.5" y="-116" font-family="Helvetica,sans-Serif" font-size="10.00">KuszkAPI::Containers</text>
<text text-anchor="middle" x="383" y="-105" font-family="Helvetica,sans-Serif" font-size="10.00">::String::GetData</text>
</a>
</g>
</g>
<!-- Node3&#45;&gt;Node4 -->
<g id="edge3" class="edge"><title>Node3&#45;&gt;Node4</title>
<path fill="none" stroke="midnightblue" d="M289.531,-113C298.138,-113 307.101,-113 315.913,-113"/>
<polygon fill="midnightblue" stroke="midnightblue" points="316.158,-116.5 326.158,-113 316.158,-109.5 316.158,-116.5"/>
</g>
</g>
</svg>
