<?xml version="1.0" encoding="UTF-8" standalone="no"?>
<!DOCTYPE svg PUBLIC "-//W3C//DTD SVG 1.1//EN"
 "http://www.w3.org/Graphics/SVG/1.1/DTD/svg11.dtd">
<!-- Generated by graphviz version 2.36.0 (20140111.2315)
 -->
<!-- Title: KuszkAPI::Containers::String::Ascii Pages: 1 -->
<svg width="286pt" height="234pt"
 viewBox="0.00 0.00 286.00 234.00" xmlns="http://www.w3.org/2000/svg" xmlns:xlink="http://www.w3.org/1999/xlink">
<g id="graph0" class="graph" transform="scale(1 1) rotate(0) translate(4 230)">
<title>KuszkAPI::Containers::String::Ascii</title>
<polygon fill="white" stroke="none" points="-4,4 -4,-230 282,-230 282,4 -4,4"/>
<!-- Node1 -->
<g id="node1" class="node"><title>Node1</title>
<polygon fill="#bfbfbf" stroke="black" points="0.5,-98 0.5,-128 113.5,-128 113.5,-98 0.5,-98"/>
<text text-anchor="start" x="8.5" y="-116" font-family="Helvetica,sans-Serif" font-size="10.00">KuszkAPI::Containers</text>
<text text-anchor="middle" x="57" y="-105" font-family="Helvetica,sans-Serif" font-size="10.00">::String::Ascii</text>
</g>
<!-- Node2 -->
<g id="node2" class="node"><title>Node2</title>
<g id="a_node2"><a xlink:href="class_kuszk_a_p_i_1_1_containers_1_1_strings.html#a847455d02fd870eae89f27d9ef176013" target="_top" xlink:title="KuszkAPI::Containers\l::Strings::AddToFile">
<polygon fill="white" stroke="black" points="157.5,-196 157.5,-226 270.5,-226 270.5,-196 157.5,-196"/>
<text text-anchor="start" x="165.5" y="-214" font-family="Helvetica,sans-Serif" font-size="10.00">KuszkAPI::Containers</text>
<text text-anchor="middle" x="214" y="-203" font-family="Helvetica,sans-Serif" font-size="10.00">::Strings::AddToFile</text>
</a>
</g>
</g>
<!-- Node1&#45;&gt;Node2 -->
<g id="edge1" class="edge"><title>Node1&#45;&gt;Node2</title>
<path fill="none" stroke="midnightblue" d="M81.4899,-134.841C99.2917,-150.567 124.897,-171.485 150,-186 156.316,-189.652 163.268,-193.001 170.177,-195.981"/>
<polygon fill="midnightblue" stroke="midnightblue" points="83.6703,-132.095 73.8896,-128.022 78.9957,-137.305 83.6703,-132.095"/>
</g>
<!-- Node3 -->
<g id="node3" class="node"><title>Node3</title>
<g id="a_node3"><a xlink:href="class_kuszk_a_p_i_1_1_core_1_1_console.html#a1f89bb916e91c319bcb4c03e09246d7e" target="_top" xlink:title="KuszkAPI::Core::Console\l::Command">
<polygon fill="white" stroke="black" points="150,-147 150,-177 278,-177 278,-147 150,-147"/>
<text text-anchor="start" x="158" y="-165" font-family="Helvetica,sans-Serif" font-size="10.00">KuszkAPI::Core::Console</text>
<text text-anchor="middle" x="214" y="-154" font-family="Helvetica,sans-Serif" font-size="10.00">::Command</text>
</a>
</g>
</g>
<!-- Node1&#45;&gt;Node3 -->
<g id="edge2" class="edge"><title>Node1&#45;&gt;Node3</title>
<path fill="none" stroke="midnightblue" d="M115.758,-131.259C132.107,-136.427 149.711,-141.992 165.388,-146.948"/>
<polygon fill="midnightblue" stroke="midnightblue" points="116.36,-127.779 105.77,-128.101 114.25,-134.453 116.36,-127.779"/>
</g>
<!-- Node4 -->
<g id="node4" class="node"><title>Node4</title>
<g id="a_node4"><a xlink:href="class_kuszk_a_p_i_1_1_sockets_1_1_client.html#a9433850e236584f1ab67a65087fe0812" target="_top" xlink:title="KuszkAPI::Sockets::\lClient::Connect">
<polygon fill="white" stroke="black" points="160,-98 160,-128 268,-128 268,-98 160,-98"/>
<text text-anchor="start" x="168" y="-116" font-family="Helvetica,sans-Serif" font-size="10.00">KuszkAPI::Sockets::</text>
<text text-anchor="middle" x="214" y="-105" font-family="Helvetica,sans-Serif" font-size="10.00">Client::Connect</text>
</a>
</g>
</g>
<!-- Node1&#45;&gt;Node4 -->
<g id="edge3" class="edge"><title>Node1&#45;&gt;Node4</title>
<path fill="none" stroke="midnightblue" d="M123.587,-113C135.715,-113 148.242,-113 159.941,-113"/>
<polygon fill="midnightblue" stroke="midnightblue" points="123.521,-109.5 113.521,-113 123.521,-116.5 123.521,-109.5"/>
</g>
<!-- Node5 -->
<g id="node5" class="node"><title>Node5</title>
<g id="a_node5"><a xlink:href="class_kuszk_a_p_i_1_1_core_1_1_dll.html#a41a12b8d049b11d9be90a509b20c0b6b" target="_top" xlink:title="KuszkAPI::Core::Dll\l::GetFunction">
<polygon fill="white" stroke="black" points="162,-49 162,-79 266,-79 266,-49 162,-49"/>
<text text-anchor="start" x="170" y="-67" font-family="Helvetica,sans-Serif" font-size="10.00">KuszkAPI::Core::Dll</text>
<text text-anchor="middle" x="214" y="-56" font-family="Helvetica,sans-Serif" font-size="10.00">::GetFunction</text>
</a>
</g>
</g>
<!-- Node1&#45;&gt;Node5 -->
<g id="edge4" class="edge"><title>Node1&#45;&gt;Node5</title>
<path fill="none" stroke="midnightblue" d="M115.758,-94.7409C132.107,-89.5727 149.711,-84.0076 165.388,-79.0516"/>
<polygon fill="midnightblue" stroke="midnightblue" points="114.25,-91.547 105.77,-97.8986 116.36,-98.2215 114.25,-91.547"/>
</g>
<!-- Node6 -->
<g id="node6" class="node"><title>Node6</title>
<g id="a_node6"><a xlink:href="class_kuszk_a_p_i_1_1_containers_1_1_strings.html#a517c7f7cfe694d57fee12927ddc86b30" target="_top" xlink:title="KuszkAPI::Containers\l::Strings::SaveToFile">
<polygon fill="white" stroke="black" points="157.5,-0 157.5,-30 270.5,-30 270.5,-0 157.5,-0"/>
<text text-anchor="start" x="165.5" y="-18" font-family="Helvetica,sans-Serif" font-size="10.00">KuszkAPI::Containers</text>
<text text-anchor="middle" x="214" y="-7" font-family="Helvetica,sans-Serif" font-size="10.00">::Strings::SaveToFile</text>
</a>
</g>
</g>
<!-- Node1&#45;&gt;Node6 -->
<g id="edge5" class="edge"><title>Node1&#45;&gt;Node6</title>
<path fill="none" stroke="midnightblue" d="M81.4899,-91.1591C99.2917,-75.4328 124.897,-54.5154 150,-40 156.316,-36.348 163.268,-32.9986 170.177,-30.0194"/>
<polygon fill="midnightblue" stroke="midnightblue" points="78.9957,-88.6946 73.8896,-97.9778 83.6703,-93.905 78.9957,-88.6946"/>
</g>
</g>
</svg>
