<?xml version="1.0" encoding="UTF-8" standalone="no"?>
<!DOCTYPE svg PUBLIC "-//W3C//DTD SVG 1.1//EN"
 "http://www.w3.org/Graphics/SVG/1.1/DTD/svg11.dtd">
<!-- Generated by graphviz version 2.36.0 (20140111.2315)
 -->
<!-- Title: KuszkAPI::Forms::TableBox::Sort Pages: 1 -->
<svg width="448pt" height="209pt"
 viewBox="0.00 0.00 448.00 209.00" xmlns="http://www.w3.org/2000/svg" xmlns:xlink="http://www.w3.org/1999/xlink">
<g id="graph0" class="graph" transform="scale(1 1) rotate(0) translate(4 205)">
<title>KuszkAPI::Forms::TableBox::Sort</title>
<polygon fill="white" stroke="none" points="-4,4 -4,-205 444,-205 444,4 -4,4"/>
<!-- Node1 -->
<g id="node1" class="node"><title>Node1</title>
<polygon fill="#bfbfbf" stroke="black" points="0,-49 0,-79 140,-79 140,-49 0,-49"/>
<text text-anchor="start" x="8" y="-67" font-family="Helvetica,sans-Serif" font-size="10.00">KuszkAPI::Forms::TableBox</text>
<text text-anchor="middle" x="70" y="-56" font-family="Helvetica,sans-Serif" font-size="10.00">::Sort</text>
</g>
<!-- Node2 -->
<g id="node2" class="node"><title>Node2</title>
<g id="a_node2"><a xlink:href="class_kuszk_a_p_i_1_1_containers_1_1_strings.html#aae1e705132390add4e0b03ff36ffb094" target="_top" xlink:title="KuszkAPI::Containers\l::Strings::Add">
<polygon fill="white" stroke="black" points="176.5,-98 176.5,-128 289.5,-128 289.5,-98 176.5,-98"/>
<text text-anchor="start" x="184.5" y="-116" font-family="Helvetica,sans-Serif" font-size="10.00">KuszkAPI::Containers</text>
<text text-anchor="middle" x="233" y="-105" font-family="Helvetica,sans-Serif" font-size="10.00">::Strings::Add</text>
</a>
</g>
</g>
<!-- Node1&#45;&gt;Node2 -->
<g id="edge1" class="edge"><title>Node1&#45;&gt;Node2</title>
<path fill="none" stroke="midnightblue" d="M120.619,-79.1014C137.07,-84.1083 155.549,-89.7324 172.657,-94.939"/>
<polygon fill="midnightblue" stroke="midnightblue" points="171.959,-98.3851 182.545,-97.9484 173.997,-91.6884 171.959,-98.3851"/>
</g>
<!-- Node7 -->
<g id="node7" class="node"><title>Node7</title>
<g id="a_node7"><a xlink:href="class_kuszk_a_p_i_1_1_containers_1_1_strings.html#af6d0dfcd345a36c73d3ef27aab19fc7a" target="_top" xlink:title="KuszkAPI::Containers\l::Strings::Clean">
<polygon fill="white" stroke="black" points="176.5,-49 176.5,-79 289.5,-79 289.5,-49 176.5,-49"/>
<text text-anchor="start" x="184.5" y="-67" font-family="Helvetica,sans-Serif" font-size="10.00">KuszkAPI::Containers</text>
<text text-anchor="middle" x="233" y="-56" font-family="Helvetica,sans-Serif" font-size="10.00">::Strings::Clean</text>
</a>
</g>
</g>
<!-- Node1&#45;&gt;Node7 -->
<g id="edge6" class="edge"><title>Node1&#45;&gt;Node7</title>
<path fill="none" stroke="midnightblue" d="M140.213,-64C148.911,-64 157.789,-64 166.429,-64"/>
<polygon fill="midnightblue" stroke="midnightblue" points="166.438,-67.5001 176.438,-64 166.438,-60.5001 166.438,-67.5001"/>
</g>
<!-- Node8 -->
<g id="node8" class="node"><title>Node8</title>
<g id="a_node8"><a xlink:href="class_kuszk_a_p_i_1_1_containers_1_1_strings.html#a68d7e350d2f7209fa3acf597ee8089a8" target="_top" xlink:title="KuszkAPI::Containers\l::Strings::Sort">
<polygon fill="white" stroke="black" points="176.5,-0 176.5,-30 289.5,-30 289.5,-0 176.5,-0"/>
<text text-anchor="start" x="184.5" y="-18" font-family="Helvetica,sans-Serif" font-size="10.00">KuszkAPI::Containers</text>
<text text-anchor="middle" x="233" y="-7" font-family="Helvetica,sans-Serif" font-size="10.00">::Strings::Sort</text>
</a>
</g>
</g>
<!-- Node1&#45;&gt;Node8 -->
<g id="edge7" class="edge"><title>Node1&#45;&gt;Node8</title>
<path fill="none" stroke="midnightblue" d="M120.619,-48.8986C137.07,-43.8917 155.549,-38.2676 172.657,-33.061"/>
<polygon fill="midnightblue" stroke="midnightblue" points="173.997,-36.3116 182.545,-30.0516 171.959,-29.6149 173.997,-36.3116"/>
</g>
<!-- Node3 -->
<g id="node3" class="node"><title>Node3</title>
<g id="a_node3"><a xlink:href="class_kuszk_a_p_i_1_1_containers_1_1_string.html#afd694656c3c52b347d6b965e2f5afb6a" target="_top" xlink:title="KuszkAPI::Containers\l::String::Capacity">
<polygon fill="white" stroke="black" points="326.5,-171 326.5,-201 439.5,-201 439.5,-171 326.5,-171"/>
<text text-anchor="start" x="334.5" y="-189" font-family="Helvetica,sans-Serif" font-size="10.00">KuszkAPI::Containers</text>
<text text-anchor="middle" x="383" y="-178" font-family="Helvetica,sans-Serif" font-size="10.00">::String::Capacity</text>
</a>
</g>
</g>
<!-- Node2&#45;&gt;Node3 -->
<g id="edge2" class="edge"><title>Node2&#45;&gt;Node3</title>
<path fill="none" stroke="midnightblue" d="M261.96,-128.154C280.079,-137.833 304.267,-150.491 326,-161 329.99,-162.929 334.163,-164.892 338.354,-166.826"/>
<polygon fill="midnightblue" stroke="midnightblue" points="336.942,-170.029 347.493,-170.992 339.845,-163.66 336.942,-170.029"/>
</g>
<!-- Node4 -->
<g id="node4" class="node"><title>Node4</title>
<g id="a_node4"><a xlink:href="class_kuszk_a_p_i_1_1_containers_1_1_string.html#a455584fed5c105b9d00ecaf985116d63" target="_top" xlink:title="KuszkAPI::Containers\l::String::Find">
<polygon fill="white" stroke="black" points="326.5,-122 326.5,-152 439.5,-152 439.5,-122 326.5,-122"/>
<text text-anchor="start" x="334.5" y="-140" font-family="Helvetica,sans-Serif" font-size="10.00">KuszkAPI::Containers</text>
<text text-anchor="middle" x="383" y="-129" font-family="Helvetica,sans-Serif" font-size="10.00">::String::Find</text>
</a>
</g>
</g>
<!-- Node2&#45;&gt;Node4 -->
<g id="edge3" class="edge"><title>Node2&#45;&gt;Node4</title>
<path fill="none" stroke="midnightblue" d="M289.531,-122.005C298.232,-123.416 307.296,-124.886 316.201,-126.33"/>
<polygon fill="midnightblue" stroke="midnightblue" points="315.727,-129.799 326.158,-127.945 316.847,-122.889 315.727,-129.799"/>
</g>
<!-- Node5 -->
<g id="node5" class="node"><title>Node5</title>
<g id="a_node5"><a xlink:href="class_kuszk_a_p_i_1_1_containers_1_1_string.html#a8ca4879ad62f0f4521b7e13eaa711c2c" target="_top" xlink:title="KuszkAPI::Containers\l::String::GetData">
<polygon fill="white" stroke="black" points="326.5,-73 326.5,-103 439.5,-103 439.5,-73 326.5,-73"/>
<text text-anchor="start" x="334.5" y="-91" font-family="Helvetica,sans-Serif" font-size="10.00">KuszkAPI::Containers</text>
<text text-anchor="middle" x="383" y="-80" font-family="Helvetica,sans-Serif" font-size="10.00">::String::GetData</text>
</a>
</g>
</g>
<!-- Node2&#45;&gt;Node5 -->
<g id="edge4" class="edge"><title>Node2&#45;&gt;Node5</title>
<path fill="none" stroke="midnightblue" d="M289.531,-103.62C298.232,-102.15 307.296,-100.619 316.201,-99.1147"/>
<polygon fill="midnightblue" stroke="midnightblue" points="316.881,-102.55 326.158,-97.4328 315.715,-95.6473 316.881,-102.55"/>
</g>
<!-- Node6 -->
<g id="node6" class="node"><title>Node6</title>
<g id="a_node6"><a xlink:href="class_kuszk_a_p_i_1_1_containers_1_1_string.html#a34b2866bd4044c00ffafc482d5e44a54" target="_top" xlink:title="KuszkAPI::Containers\l::String::Part">
<polygon fill="white" stroke="black" points="326.5,-24 326.5,-54 439.5,-54 439.5,-24 326.5,-24"/>
<text text-anchor="start" x="334.5" y="-42" font-family="Helvetica,sans-Serif" font-size="10.00">KuszkAPI::Containers</text>
<text text-anchor="middle" x="383" y="-31" font-family="Helvetica,sans-Serif" font-size="10.00">::String::Part</text>
</a>
</g>
</g>
<!-- Node2&#45;&gt;Node6 -->
<g id="edge5" class="edge"><title>Node2&#45;&gt;Node6</title>
<path fill="none" stroke="midnightblue" d="M270.286,-97.8735C276.941,-94.7986 283.753,-91.4446 290,-88 306.839,-78.7144 309.161,-73.2856 326,-64 329.416,-62.1162 333.002,-60.2595 336.638,-58.4608"/>
<polygon fill="midnightblue" stroke="midnightblue" points="338.199,-61.5942 345.714,-54.1265 335.182,-55.2775 338.199,-61.5942"/>
</g>
</g>
</svg>
