<?xml version="1.0" encoding="UTF-8" standalone="no"?>
<!DOCTYPE svg PUBLIC "-//W3C//DTD SVG 1.1//EN"
 "http://www.w3.org/Graphics/SVG/1.1/DTD/svg11.dtd">
<!-- Generated by graphviz version 2.36.0 (20140111.2315)
 -->
<!-- Title: KuszkAPI::Core::Dll&lt; tnKey &gt; Pages: 1 -->
<svg width="1516pt" height="719pt"
 viewBox="0.00 0.00 1516.00 719.00" xmlns="http://www.w3.org/2000/svg" xmlns:xlink="http://www.w3.org/1999/xlink">
<g id="graph0" class="graph" transform="scale(1 1) rotate(0) translate(4 715)">
<title>KuszkAPI::Core::Dll&lt; tnKey &gt;</title>
<polygon fill="white" stroke="none" points="-4,4 -4,-715 1512,-715 1512,4 -4,4"/>
<!-- Node1 -->
<g id="node1" class="node"><title>Node1</title>
<polygon fill="#bfbfbf" stroke="black" points="1404,-322 1404,-352 1508,-352 1508,-322 1404,-322"/>
<text text-anchor="start" x="1412" y="-340" font-family="Helvetica,sans-Serif" font-size="10.00">KuszkAPI::Core::Dll</text>
<text text-anchor="middle" x="1456" y="-329" font-family="Helvetica,sans-Serif" font-size="10.00">&lt; tnKey &gt;</text>
</g>
<!-- Node2 -->
<g id="node2" class="node"><title>Node2</title>
<g id="a_node2"><a xlink:href="class_kuszk_a_p_i_1_1_containers_1_1_map.html" target="_top" xlink:title="KuszkAPI::Containers\l::Map\&lt; HINSTANCE, tnKey \&gt;">
<polygon fill="white" stroke="black" points="1198,-322 1198,-352 1344,-352 1344,-322 1198,-322"/>
<text text-anchor="start" x="1206" y="-340" font-family="Helvetica,sans-Serif" font-size="10.00">KuszkAPI::Containers</text>
<text text-anchor="middle" x="1271" y="-329" font-family="Helvetica,sans-Serif" font-size="10.00">::Map&lt; HINSTANCE, tnKey &gt;</text>
</a>
</g>
</g>
<!-- Node2&#45;&gt;Node1 -->
<g id="edge1" class="edge"><title>Node2&#45;&gt;Node1</title>
<path fill="none" stroke="#9a32cd" stroke-dasharray="5,2" d="M1354.47,-337C1371.31,-337 1388.56,-337 1403.91,-337"/>
<polygon fill="#9a32cd" stroke="#9a32cd" points="1354.06,-333.5 1344.06,-337 1354.06,-340.5 1354.06,-333.5"/>
<text text-anchor="middle" x="1374" y="-340" font-family="Helvetica,sans-Serif" font-size="10.00"> mDll</text>
</g>
<!-- Node3 -->
<g id="node3" class="node"><title>Node3</title>
<g id="a_node3"><a xlink:href="class_kuszk_a_p_i_1_1_containers_1_1_list.html" target="_top" xlink:title="KuszkAPI::Containers\l::List\&lt; tnKey \&gt;">
<polygon fill="white" stroke="black" points="583.5,-149 583.5,-179 696.5,-179 696.5,-149 583.5,-149"/>
<text text-anchor="start" x="591.5" y="-167" font-family="Helvetica,sans-Serif" font-size="10.00">KuszkAPI::Containers</text>
<text text-anchor="middle" x="640" y="-156" font-family="Helvetica,sans-Serif" font-size="10.00">::List&lt; tnKey &gt;</text>
</a>
</g>
</g>
<!-- Node3&#45;&gt;Node2 -->
<g id="edge2" class="edge"><title>Node3&#45;&gt;Node2</title>
<path fill="none" stroke="#9a32cd" stroke-dasharray="5,2" d="M705.474,-181.733C829.563,-215.862 1099.55,-290.12 1215.41,-321.985"/>
<polygon fill="#9a32cd" stroke="#9a32cd" points="706.289,-178.327 695.719,-179.05 704.433,-185.077 706.289,-178.327"/>
<text text-anchor="middle" x="962" y="-266" font-family="Helvetica,sans-Serif" font-size="10.00"> lKey</text>
</g>
<!-- Node18 -->
<g id="node18" class="node"><title>Node18</title>
<g id="a_node18"><a xlink:href="class_kuszk_a_p_i_1_1_containers_1_1_map.html" target="_top" xlink:title="KuszkAPI::Containers\l::Map\&lt; tnData, tnKey \&gt;">
<polygon fill="white" stroke="black" points="786.5,-67 786.5,-97 905.5,-97 905.5,-67 786.5,-67"/>
<text text-anchor="start" x="794.5" y="-85" font-family="Helvetica,sans-Serif" font-size="10.00">KuszkAPI::Containers</text>
<text text-anchor="middle" x="846" y="-74" font-family="Helvetica,sans-Serif" font-size="10.00">::Map&lt; tnData, tnKey &gt;</text>
</a>
</g>
</g>
<!-- Node3&#45;&gt;Node18 -->
<g id="edge34" class="edge"><title>Node3&#45;&gt;Node18</title>
<path fill="none" stroke="#9a32cd" stroke-dasharray="5,2" d="M687.808,-145.185C724.11,-130.593 773.758,-110.636 807.476,-97.0833"/>
<polygon fill="#9a32cd" stroke="#9a32cd" points="686.39,-141.983 678.417,-148.96 689.001,-148.478 686.39,-141.983"/>
<text text-anchor="middle" x="746" y="-134" font-family="Helvetica,sans-Serif" font-size="10.00"> lKey</text>
</g>
<!-- Node4 -->
<g id="node4" class="node"><title>Node4</title>
<g id="a_node4"><a xlink:href="class_kuszk_a_p_i_1_1_containers_1_1_container.html" target="_top" xlink:title="Implementacja bazy dla modułu kontenerów. ">
<polygon fill="white" stroke="black" points="132.5,-363 132.5,-393 245.5,-393 245.5,-363 132.5,-363"/>
<text text-anchor="start" x="140.5" y="-381" font-family="Helvetica,sans-Serif" font-size="10.00">KuszkAPI::Containers</text>
<text text-anchor="middle" x="189" y="-370" font-family="Helvetica,sans-Serif" font-size="10.00">::Container</text>
</a>
</g>
</g>
<!-- Node4&#45;&gt;Node3 -->
<g id="edge3" class="edge"><title>Node4&#45;&gt;Node3</title>
<path fill="none" stroke="midnightblue" d="M255.327,-370.714C278.536,-365.347 303.472,-356.058 322,-340 336.732,-327.232 326.243,-313.813 340,-300 359.845,-280.075 526.619,-210.114 602.121,-179.052"/>
<polygon fill="midnightblue" stroke="midnightblue" points="254.573,-367.296 245.51,-372.782 256.017,-374.146 254.573,-367.296"/>
</g>
<!-- Node9 -->
<g id="node9" class="node"><title>Node9</title>
<g id="a_node9"><a xlink:href="class_kuszk_a_p_i_1_1_containers_1_1_list.html" target="_top" xlink:title="Implementacja szablonu listy dla modułu kontenerów. ">
<polygon fill="white" stroke="black" points="340.5,-174 340.5,-204 453.5,-204 453.5,-174 340.5,-174"/>
<text text-anchor="start" x="348.5" y="-192" font-family="Helvetica,sans-Serif" font-size="10.00">KuszkAPI::Containers</text>
<text text-anchor="middle" x="397" y="-181" font-family="Helvetica,sans-Serif" font-size="10.00">::List&lt; tnData &gt;</text>
</a>
</g>
</g>
<!-- Node4&#45;&gt;Node9 -->
<g id="edge10" class="edge"><title>Node4&#45;&gt;Node9</title>
<path fill="none" stroke="midnightblue" d="M234.583,-358.845C270.381,-343.118 315.69,-322.294 322,-315 339.659,-294.588 327.18,-280.752 340,-257 350.823,-236.947 368.018,-217.201 380.501,-204.198"/>
<polygon fill="midnightblue" stroke="midnightblue" points="233.009,-355.713 225.249,-362.926 235.813,-362.127 233.009,-355.713"/>
</g>
<!-- Node12 -->
<g id="node12" class="node"><title>Node12</title>
<g id="a_node12"><a xlink:href="class_kuszk_a_p_i_1_1_containers_1_1_vector.html" target="_top" xlink:title="KuszkAPI::Containers\l::Vector\&lt; HINSTANCE * \&gt;">
<polygon fill="white" stroke="black" points="574.5,-478 574.5,-508 705.5,-508 705.5,-478 574.5,-478"/>
<text text-anchor="start" x="582.5" y="-496" font-family="Helvetica,sans-Serif" font-size="10.00">KuszkAPI::Containers</text>
<text text-anchor="middle" x="640" y="-485" font-family="Helvetica,sans-Serif" font-size="10.00">::Vector&lt; HINSTANCE * &gt;</text>
</a>
</g>
</g>
<!-- Node4&#45;&gt;Node12 -->
<g id="edge15" class="edge"><title>Node4&#45;&gt;Node12</title>
<path fill="none" stroke="midnightblue" d="M234.177,-397.083C263.702,-409.263 303.651,-424.651 340,-435 419.463,-457.624 513.311,-474.238 574.383,-483.749"/>
<polygon fill="midnightblue" stroke="midnightblue" points="235.161,-393.702 224.584,-393.088 232.469,-400.164 235.161,-393.702"/>
</g>
<!-- Node15 -->
<g id="node15" class="node"><title>Node15</title>
<g id="a_node15"><a xlink:href="class_kuszk_a_p_i_1_1_containers_1_1_vector.html" target="_top" xlink:title="KuszkAPI::Containers\l::Vector\&lt; tnData \&gt;">
<polygon fill="white" stroke="black" points="340.5,-396 340.5,-426 453.5,-426 453.5,-396 340.5,-396"/>
<text text-anchor="start" x="348.5" y="-414" font-family="Helvetica,sans-Serif" font-size="10.00">KuszkAPI::Containers</text>
<text text-anchor="middle" x="397" y="-403" font-family="Helvetica,sans-Serif" font-size="10.00">::Vector&lt; tnData &gt;</text>
</a>
</g>
</g>
<!-- Node4&#45;&gt;Node15 -->
<g id="edge20" class="edge"><title>Node4&#45;&gt;Node15</title>
<path fill="none" stroke="midnightblue" d="M255.94,-388.563C283.093,-392.913 314.211,-397.898 340.209,-402.063"/>
<polygon fill="midnightblue" stroke="midnightblue" points="256.174,-385.056 245.747,-386.93 255.067,-391.968 256.174,-385.056"/>
</g>
<!-- Node17 -->
<g id="node17" class="node"><title>Node17</title>
<g id="a_node17"><a xlink:href="class_kuszk_a_p_i_1_1_containers_1_1_vector.html" target="_top" xlink:title="KuszkAPI::Containers\l::Vector\&lt; tnData * \&gt;">
<polygon fill="white" stroke="black" points="583.5,-352 583.5,-382 696.5,-382 696.5,-352 583.5,-352"/>
<text text-anchor="start" x="591.5" y="-370" font-family="Helvetica,sans-Serif" font-size="10.00">KuszkAPI::Containers</text>
<text text-anchor="middle" x="640" y="-359" font-family="Helvetica,sans-Serif" font-size="10.00">::Vector&lt; tnData * &gt;</text>
</a>
</g>
</g>
<!-- Node4&#45;&gt;Node17 -->
<g id="edge27" class="edge"><title>Node4&#45;&gt;Node17</title>
<path fill="none" stroke="midnightblue" d="M255.693,-376.391C344.2,-374.222 500.194,-370.401 583.268,-368.365"/>
<polygon fill="midnightblue" stroke="midnightblue" points="255.418,-372.896 245.507,-376.64 255.589,-379.894 255.418,-372.896"/>
</g>
<!-- Node5 -->
<g id="node5" class="node"><title>Node5</title>
<g id="a_node5"><a xlink:href="namespace_3global_scope_4.html#classunsigned" target="_top" xlink:title="unsigned">
<polygon fill="white" stroke="black" points="0,-470.5 0,-489.5 56,-489.5 56,-470.5 0,-470.5"/>
<text text-anchor="middle" x="28" y="-477.5" font-family="Helvetica,sans-Serif" font-size="10.00">unsigned</text>
</a>
</g>
</g>
<!-- Node5&#45;&gt;Node2 -->
<g id="edge31" class="edge"><title>Node5&#45;&gt;Node2</title>
<path fill="none" stroke="#9a32cd" stroke-dasharray="5,2" d="M33.2133,-499.788C46.0013,-553.845 89.6689,-700 188,-700 188,-700 188,-700 1076,-700 1236.42,-700 1264.67,-420.836 1269.2,-352.136"/>
<polygon fill="#9a32cd" stroke="#9a32cd" points="36.5605,-498.721 30.9446,-489.737 29.7322,-500.262 36.5605,-498.721"/>
<text text-anchor="middle" x="640" y="-703" font-family="Helvetica,sans-Serif" font-size="10.00"> uIlosc</text>
</g>
<!-- Node5&#45;&gt;Node4 -->
<g id="edge4" class="edge"><title>Node5&#45;&gt;Node4</title>
<path fill="none" stroke="#9a32cd" stroke-dasharray="5,2" d="M33.6303,-460.405C39.4691,-440.306 51.5725,-409.812 74,-394 90.7427,-382.196 112.354,-377.28 132.251,-375.628"/>
<polygon fill="#9a32cd" stroke="#9a32cd" points="30.1752,-459.781 31.0052,-470.343 36.9431,-461.569 30.1752,-459.781"/>
<text text-anchor="middle" x="90" y="-408" font-family="Helvetica,sans-Serif" font-size="10.00"> uIlosc</text>
<text text-anchor="middle" x="90" y="-397" font-family="Helvetica,sans-Serif" font-size="10.00">uMode</text>
</g>
<!-- Node11 -->
<g id="node11" class="node"><title>Node11</title>
<g id="a_node11"><a xlink:href="class_kuszk_a_p_i_1_1_containers_1_1_box.html" target="_top" xlink:title="KuszkAPI::Containers\l::Box\&lt; HINSTANCE \&gt;">
<polygon fill="white" stroke="black" points="1018.5,-459 1018.5,-489 1131.5,-489 1131.5,-459 1018.5,-459"/>
<text text-anchor="start" x="1026.5" y="-477" font-family="Helvetica,sans-Serif" font-size="10.00">KuszkAPI::Containers</text>
<text text-anchor="middle" x="1075" y="-466" font-family="Helvetica,sans-Serif" font-size="10.00">::Box&lt; HINSTANCE &gt;</text>
</a>
</g>
</g>
<!-- Node5&#45;&gt;Node11 -->
<g id="edge23" class="edge"><title>Node5&#45;&gt;Node11</title>
<path fill="none" stroke="#9a32cd" stroke-dasharray="5,2" d="M34.7376,-499.238C41.6716,-520.312 54.8439,-554.386 74,-579 111.249,-626.862 127.352,-654 188,-654 188,-654 188,-654 847,-654 952.873,-654 1038.11,-532.298 1065.07,-489.037"/>
<polygon fill="#9a32cd" stroke="#9a32cd" points="38.0207,-498.011 31.6815,-489.522 31.3432,-500.111 38.0207,-498.011"/>
<text text-anchor="middle" x="514" y="-657" font-family="Helvetica,sans-Serif" font-size="10.00"> uIlosc</text>
</g>
<!-- Node5&#45;&gt;Node12 -->
<g id="edge17" class="edge"><title>Node5&#45;&gt;Node12</title>
<path fill="none" stroke="#9a32cd" stroke-dasharray="5,2" d="M66.5963,-485.127C124.971,-492.802 241.001,-506.92 340,-512 390.6,-514.596 403.343,-512.993 454,-512 499.359,-511.111 510.901,-512.935 556,-508 561.968,-507.347 568.153,-506.518 574.333,-505.587"/>
<polygon fill="#9a32cd" stroke="#9a32cd" points="66.7579,-481.618 56.3845,-483.772 65.8374,-488.557 66.7579,-481.618"/>
<text text-anchor="middle" x="297" y="-514" font-family="Helvetica,sans-Serif" font-size="10.00"> uDataSize</text>
</g>
<!-- Node5&#45;&gt;Node15 -->
<g id="edge22" class="edge"><title>Node5&#45;&gt;Node15</title>
<path fill="none" stroke="#9a32cd" stroke-dasharray="5,2" d="M66.4538,-472.958C131.293,-460.768 264.755,-435.676 340.433,-421.447"/>
<polygon fill="#9a32cd" stroke="#9a32cd" points="65.4659,-469.583 56.2848,-474.87 66.7594,-476.462 65.4659,-469.583"/>
<text text-anchor="middle" x="189" y="-466" font-family="Helvetica,sans-Serif" font-size="10.00"> uDataSize</text>
</g>
<!-- Node16 -->
<g id="node16" class="node"><title>Node16</title>
<g id="a_node16"><a xlink:href="class_kuszk_a_p_i_1_1_containers_1_1_box.html" target="_top" xlink:title="Implementacja szablonu pudełka dla modułu kontenerów. ">
<polygon fill="white" stroke="black" points="789.5,-426 789.5,-456 902.5,-456 902.5,-426 789.5,-426"/>
<text text-anchor="start" x="797.5" y="-444" font-family="Helvetica,sans-Serif" font-size="10.00">KuszkAPI::Containers</text>
<text text-anchor="middle" x="846" y="-433" font-family="Helvetica,sans-Serif" font-size="10.00">::Box&lt; tnData &gt;</text>
</a>
</g>
</g>
<!-- Node5&#45;&gt;Node16 -->
<g id="edge25" class="edge"><title>Node5&#45;&gt;Node16</title>
<path fill="none" stroke="#9a32cd" stroke-dasharray="5,2" d="M39.2617,-498.519C61.2753,-535.505 116.863,-615 188,-615 188,-615 188,-615 641,-615 729.355,-615 716.351,-533.366 786,-479 796.469,-470.828 808.719,-462.726 819.335,-456.116"/>
<polygon fill="#9a32cd" stroke="#9a32cd" points="42.2072,-496.621 34.1773,-489.709 36.1443,-500.12 42.2072,-496.621"/>
<text text-anchor="middle" x="397" y="-618" font-family="Helvetica,sans-Serif" font-size="10.00"> uIlosc</text>
</g>
<!-- Node5&#45;&gt;Node17 -->
<g id="edge29" class="edge"><title>Node5&#45;&gt;Node17</title>
<path fill="none" stroke="#9a32cd" stroke-dasharray="5,2" d="M30.2838,-460.184C34.4641,-414.104 51.9656,-300.023 124,-252 289.219,-141.854 543.849,-300.664 618.045,-351.951"/>
<polygon fill="#9a32cd" stroke="#9a32cd" points="26.779,-460.109 29.483,-470.353 33.7574,-460.659 26.779,-460.109"/>
<text text-anchor="middle" x="297" y="-223" font-family="Helvetica,sans-Serif" font-size="10.00"> uDataSize</text>
</g>
<!-- Node5&#45;&gt;Node18 -->
<g id="edge35" class="edge"><title>Node5&#45;&gt;Node18</title>
<path fill="none" stroke="#9a32cd" stroke-dasharray="5,2" d="M30.9989,-460.257C38.8383,-386.551 69.7508,-128.705 124,-70 144.414,-47.9098 157.922,-48 188,-48 188,-48 188,-48 641,-48 690.549,-48 745.958,-57.88 786.511,-66.9881"/>
<polygon fill="#9a32cd" stroke="#9a32cd" points="27.4925,-460.139 29.9388,-470.447 34.4549,-460.863 27.4925,-460.139"/>
<text text-anchor="middle" x="397" y="-51" font-family="Helvetica,sans-Serif" font-size="10.00"> uIlosc</text>
</g>
<!-- Node6 -->
<g id="node6" class="node"><title>Node6</title>
<g id="a_node6"><a xlink:href="class_kuszk_a_p_i_1_1_containers_1_1_list.html#struct_kuszk_a_p_i_1_1_containers_1_1_list_1_1_item_data" target="_top" xlink:title="Struktura przechowująca wskaźnik na element listy oraz wskaźnik na kolejny obiekt. ">
<polygon fill="white" stroke="black" points="124,-80 124,-110 254,-110 254,-80 124,-80"/>
<text text-anchor="start" x="132" y="-98" font-family="Helvetica,sans-Serif" font-size="10.00">KuszkAPI::Containers</text>
<text text-anchor="middle" x="189" y="-87" font-family="Helvetica,sans-Serif" font-size="10.00">::List&lt; tnData &gt;::ItemData</text>
</a>
</g>
</g>
<!-- Node6&#45;&gt;Node3 -->
<g id="edge5" class="edge"><title>Node6&#45;&gt;Node3</title>
<path fill="none" stroke="#9a32cd" stroke-dasharray="5,2" d="M264.297,-92.0319C317.515,-91.2388 390.667,-92.8774 454,-104 507.21,-113.345 566.173,-134.446 602.913,-148.958"/>
<polygon fill="#9a32cd" stroke="#9a32cd" points="264.199,-88.533 254.264,-92.2137 264.326,-95.5319 264.199,-88.533"/>
<text text-anchor="middle" x="397" y="-118" font-family="Helvetica,sans-Serif" font-size="10.00"> ptLast</text>
<text text-anchor="middle" x="397" y="-107" font-family="Helvetica,sans-Serif" font-size="10.00">ptBegin</text>
</g>
<!-- Node6&#45;&gt;Node6 -->
<g id="edge6" class="edge"><title>Node6&#45;&gt;Node6</title>
<path fill="none" stroke="#9a32cd" stroke-dasharray="5,2" d="M171.846,-120.598C174.19,-124.97 179.908,-128 189,-128 204.313,-128 210.055,-119.406 206.227,-110.275"/>
<polygon fill="#9a32cd" stroke="#9a32cd" points="175.344,-120.25 171.773,-110.275 168.344,-120.3 175.344,-120.25"/>
<text text-anchor="middle" x="189" y="-131" font-family="Helvetica,sans-Serif" font-size="10.00"> ptNext</text>
</g>
<!-- Node6&#45;&gt;Node9 -->
<g id="edge12" class="edge"><title>Node6&#45;&gt;Node9</title>
<path fill="none" stroke="#9a32cd" stroke-dasharray="5,2" d="M231.767,-114.365C261.828,-128.266 303.366,-147.397 340,-164 347.176,-167.252 354.883,-170.713 362.214,-173.991"/>
<polygon fill="#9a32cd" stroke="#9a32cd" points="232.976,-111.069 222.431,-110.046 230.037,-117.422 232.976,-111.069"/>
<text text-anchor="middle" x="297" y="-169" font-family="Helvetica,sans-Serif" font-size="10.00"> ptLast</text>
<text text-anchor="middle" x="297" y="-158" font-family="Helvetica,sans-Serif" font-size="10.00">ptBegin</text>
</g>
<!-- Node7 -->
<g id="node7" class="node"><title>Node7</title>
<polygon fill="white" stroke="#bfbfbf" points="2,-12.5 2,-31.5 54,-31.5 54,-12.5 2,-12.5"/>
<text text-anchor="middle" x="28" y="-19.5" font-family="Helvetica,sans-Serif" font-size="10.00">tnData *</text>
</g>
<!-- Node7&#45;&gt;Node6 -->
<g id="edge7" class="edge"><title>Node7&#45;&gt;Node6</title>
<path fill="none" stroke="#9a32cd" stroke-dasharray="5,2" d="M58.8844,-35.7205C86.265,-48.2915 126.727,-66.8682 155.037,-79.866"/>
<polygon fill="#9a32cd" stroke="#9a32cd" points="60.3348,-32.5352 49.7865,-31.5435 57.414,-38.8968 60.3348,-32.5352"/>
<text text-anchor="middle" x="90" y="-60" font-family="Helvetica,sans-Serif" font-size="10.00"> ptData</text>
</g>
<!-- Node8 -->
<g id="node8" class="node"><title>Node8</title>
<polygon fill="white" stroke="#bfbfbf" points="376,-135.5 376,-154.5 418,-154.5 418,-135.5 376,-135.5"/>
<text text-anchor="middle" x="397" y="-142.5" font-family="Helvetica,sans-Serif" font-size="10.00">tnKey</text>
</g>
<!-- Node8&#45;&gt;Node3 -->
<g id="edge8" class="edge"><title>Node8&#45;&gt;Node3</title>
<path fill="none" stroke="#9a32cd" stroke-dasharray="5,2" d="M428.414,-145.097C460.281,-145.447 511.763,-146.711 556,-151 564.856,-151.859 574.203,-153.046 583.306,-154.357"/>
<polygon fill="#9a32cd" stroke="#9a32cd" points="428.033,-141.594 418.004,-145.009 427.974,-148.594 428.033,-141.594"/>
<text text-anchor="middle" x="514" y="-154" font-family="Helvetica,sans-Serif" font-size="10.00"> tAbstract</text>
</g>
<!-- Node9&#45;&gt;Node3 -->
<g id="edge9" class="edge"><title>Node9&#45;&gt;Node3</title>
<path fill="none" stroke="orange" stroke-dasharray="5,2" d="M463.897,-182.164C501.324,-178.282 547.664,-173.475 583.27,-169.781"/>
<polygon fill="orange" stroke="orange" points="463.178,-178.72 453.593,-183.233 463.901,-185.683 463.178,-178.72"/>
<text text-anchor="middle" x="514" y="-184" font-family="Helvetica,sans-Serif" font-size="10.00"> &lt; tnKey &gt;</text>
</g>
<!-- Node10 -->
<g id="node10" class="node"><title>Node10</title>
<polygon fill="white" stroke="#bfbfbf" points="166.5,-261.5 166.5,-280.5 211.5,-280.5 211.5,-261.5 166.5,-261.5"/>
<text text-anchor="middle" x="189" y="-268.5" font-family="Helvetica,sans-Serif" font-size="10.00">tnData</text>
</g>
<!-- Node10&#45;&gt;Node9 -->
<g id="edge11" class="edge"><title>Node10&#45;&gt;Node9</title>
<path fill="none" stroke="#9a32cd" stroke-dasharray="5,2" d="M204.456,-253.256C219.402,-236.321 244.393,-211.707 272,-200 293.191,-191.014 318.211,-187.601 340.206,-186.679"/>
<polygon fill="#9a32cd" stroke="#9a32cd" points="201.42,-251.422 197.594,-261.303 206.746,-255.964 201.42,-251.422"/>
<text text-anchor="middle" x="297" y="-203" font-family="Helvetica,sans-Serif" font-size="10.00"> tAbstract</text>
</g>
<!-- Node10&#45;&gt;Node15 -->
<g id="edge21" class="edge"><title>Node10&#45;&gt;Node15</title>
<path fill="none" stroke="#9a32cd" stroke-dasharray="5,2" d="M212.654,-286.396C252.465,-313.452 334.483,-369.193 373.899,-395.98"/>
<polygon fill="#9a32cd" stroke="#9a32cd" points="214.397,-283.349 204.159,-280.623 210.463,-289.138 214.397,-283.349"/>
<text text-anchor="middle" x="297" y="-372" font-family="Helvetica,sans-Serif" font-size="10.00"> tAbstract</text>
<text text-anchor="middle" x="297" y="-361" font-family="Helvetica,sans-Serif" font-size="10.00">ptBegin</text>
</g>
<!-- Node10&#45;&gt;Node17 -->
<g id="edge28" class="edge"><title>Node10&#45;&gt;Node17</title>
<path fill="none" stroke="#9a32cd" stroke-dasharray="5,2" d="M221.488,-277.732C296.774,-293.829 488.002,-334.715 583.282,-355.087"/>
<polygon fill="#9a32cd" stroke="#9a32cd" points="222.167,-274.299 211.656,-275.63 220.703,-281.144 222.167,-274.299"/>
<text text-anchor="middle" x="397" y="-341" font-family="Helvetica,sans-Serif" font-size="10.00"> tAbstract</text>
<text text-anchor="middle" x="397" y="-330" font-family="Helvetica,sans-Serif" font-size="10.00">ptBegin</text>
</g>
<!-- Node11&#45;&gt;Node2 -->
<g id="edge13" class="edge"><title>Node11&#45;&gt;Node2</title>
<path fill="none" stroke="#9a32cd" stroke-dasharray="5,2" d="M1105.94,-452.855C1145.46,-424.946 1214.07,-376.5 1248.7,-352.044"/>
<polygon fill="#9a32cd" stroke="#9a32cd" points="1103.65,-450.188 1097.5,-458.815 1107.69,-455.906 1103.65,-450.188"/>
<text text-anchor="middle" x="1165" y="-421" font-family="Helvetica,sans-Serif" font-size="10.00"> bData</text>
</g>
<!-- Node12&#45;&gt;Node11 -->
<g id="edge14" class="edge"><title>Node12&#45;&gt;Node11</title>
<path fill="none" stroke="#9a32cd" stroke-dasharray="5,2" d="M715.954,-490.136C788.589,-487.297 901.86,-482.703 1000,-478 1005.91,-477.717 1012.09,-477.406 1018.24,-477.087"/>
<polygon fill="#9a32cd" stroke="#9a32cd" points="715.394,-486.655 705.538,-490.542 715.667,-493.649 715.394,-486.655"/>
<text text-anchor="middle" x="846" y="-491" font-family="Helvetica,sans-Serif" font-size="10.00"> vPointers</text>
</g>
<!-- Node13 -->
<g id="node13" class="node"><title>Node13</title>
<polygon fill="white" stroke="#bfbfbf" points="356,-559.5 356,-578.5 438,-578.5 438,-559.5 356,-559.5"/>
<text text-anchor="middle" x="397" y="-566.5" font-family="Helvetica,sans-Serif" font-size="10.00">HINSTANCE **</text>
</g>
<!-- Node13&#45;&gt;Node12 -->
<g id="edge16" class="edge"><title>Node13&#45;&gt;Node12</title>
<path fill="none" stroke="#9a32cd" stroke-dasharray="5,2" d="M448.435,-566.589C480.127,-563.808 521.411,-557.831 556,-545 579.754,-536.188 603.974,-520.018 620.071,-508.041"/>
<polygon fill="#9a32cd" stroke="#9a32cd" points="447.769,-563.131 438.079,-567.415 448.325,-570.109 447.769,-563.131"/>
<text text-anchor="middle" x="514" y="-566" font-family="Helvetica,sans-Serif" font-size="10.00"> ptBegin</text>
</g>
<!-- Node14 -->
<g id="node14" class="node"><title>Node14</title>
<polygon fill="white" stroke="#bfbfbf" points="358,-483.5 358,-502.5 436,-502.5 436,-483.5 358,-483.5"/>
<text text-anchor="middle" x="397" y="-490.5" font-family="Helvetica,sans-Serif" font-size="10.00">HINSTANCE *</text>
</g>
<!-- Node14&#45;&gt;Node12 -->
<g id="edge18" class="edge"><title>Node14&#45;&gt;Node12</title>
<path fill="none" stroke="#9a32cd" stroke-dasharray="5,2" d="M446.625,-493C483.338,-493 534.077,-493 574.229,-493"/>
<polygon fill="#9a32cd" stroke="#9a32cd" points="446.187,-489.5 436.187,-493 446.187,-496.5 446.187,-489.5"/>
<text text-anchor="middle" x="514" y="-496" font-family="Helvetica,sans-Serif" font-size="10.00"> tAbstract</text>
</g>
<!-- Node15&#45;&gt;Node12 -->
<g id="edge19" class="edge"><title>Node15&#45;&gt;Node12</title>
<path fill="none" stroke="orange" stroke-dasharray="5,2" d="M463.796,-414.229C492.867,-417.352 526.963,-423.391 556,-435 581.301,-445.115 606.391,-464.244 622.251,-477.763"/>
<polygon fill="orange" stroke="orange" points="464.033,-410.735 453.739,-413.241 463.349,-417.702 464.033,-410.735"/>
<text text-anchor="middle" x="514" y="-438" font-family="Helvetica,sans-Serif" font-size="10.00"> &lt; HINSTANCE * &gt;</text>
</g>
<!-- Node15&#45;&gt;Node17 -->
<g id="edge30" class="edge"><title>Node15&#45;&gt;Node17</title>
<path fill="none" stroke="orange" stroke-dasharray="5,2" d="M463.897,-398.969C501.324,-392.136 547.664,-383.675 583.27,-377.175"/>
<polygon fill="orange" stroke="orange" points="462.802,-395.611 453.593,-400.85 464.059,-402.497 462.802,-395.611"/>
<text text-anchor="middle" x="514" y="-400" font-family="Helvetica,sans-Serif" font-size="10.00"> &lt; tnData * &gt;</text>
</g>
<!-- Node16&#45;&gt;Node11 -->
<g id="edge24" class="edge"><title>Node16&#45;&gt;Node11</title>
<path fill="none" stroke="orange" stroke-dasharray="5,2" d="M912.675,-450.547C946.118,-455.409 986.34,-461.257 1018.26,-465.896"/>
<polygon fill="orange" stroke="orange" points="912.93,-447.048 902.53,-449.073 911.923,-453.975 912.93,-447.048"/>
<text text-anchor="middle" x="962" y="-466" font-family="Helvetica,sans-Serif" font-size="10.00"> &lt; HINSTANCE &gt;</text>
</g>
<!-- Node17&#45;&gt;Node16 -->
<g id="edge26" class="edge"><title>Node17&#45;&gt;Node16</title>
<path fill="none" stroke="#9a32cd" stroke-dasharray="5,2" d="M692.194,-385.57C726.634,-398.063 771.451,-414.32 803.63,-425.993"/>
<polygon fill="#9a32cd" stroke="#9a32cd" points="693.369,-382.273 682.775,-382.154 690.982,-388.854 693.369,-382.273"/>
<text text-anchor="middle" x="746" y="-416" font-family="Helvetica,sans-Serif" font-size="10.00"> vPointers</text>
</g>
<!-- Node18&#45;&gt;Node2 -->
<g id="edge32" class="edge"><title>Node18&#45;&gt;Node2</title>
<path fill="none" stroke="orange" stroke-dasharray="5,2" d="M887.062,-101.719C950.797,-133.647 1078.46,-199.879 1180,-267 1206.26,-284.355 1234.62,-307.155 1252.34,-321.941"/>
<polygon fill="orange" stroke="orange" points="888.274,-98.4127 877.764,-97.0781 885.148,-104.676 888.274,-98.4127"/>
<text text-anchor="middle" x="1075" y="-240" font-family="Helvetica,sans-Serif" font-size="10.00"> &lt; HINSTANCE, tnKey &gt;</text>
</g>
<!-- Node19 -->
<g id="node19" class="node"><title>Node19</title>
<polygon fill="white" stroke="#bfbfbf" points="600,-0.5 600,-19.5 680,-19.5 680,-0.5 600,-0.5"/>
<text text-anchor="middle" x="640" y="-7.5" font-family="Helvetica,sans-Serif" font-size="10.00">Box&lt; tnData &gt;</text>
</g>
<!-- Node19&#45;&gt;Node18 -->
<g id="edge33" class="edge"><title>Node19&#45;&gt;Node18</title>
<path fill="none" stroke="#9a32cd" stroke-dasharray="5,2" d="M690.124,-8.82312C714.32,-9.77494 743.486,-13.2682 768,-23 792.731,-32.8181 816.266,-52.9913 830.66,-66.9976"/>
<polygon fill="#9a32cd" stroke="#9a32cd" points="690.175,-5.32335 680.087,-8.56002 689.992,-12.3209 690.175,-5.32335"/>
<text text-anchor="middle" x="746" y="-26" font-family="Helvetica,sans-Serif" font-size="10.00"> bData</text>
</g>
</g>
</svg>
