<?xml version="1.0" encoding="UTF-8" standalone="no"?>
<!DOCTYPE svg PUBLIC "-//W3C//DTD SVG 1.1//EN"
 "http://www.w3.org/Graphics/SVG/1.1/DTD/svg11.dtd">
<!-- Generated by graphviz version 2.36.0 (20140111.2315)
 -->
<!-- Title: KuszkAPI::Core::Threads&lt; tnKey &gt; Pages: 1 -->
<!--zoomable 737 -->
<svg id="main" version="1.1" xmlns="http://www.w3.org/2000/svg" xmlns:xlink="http://www.w3.org/1999/xlink" xml:space="preserve" onload="init(evt)">
<style type="text/css"><![CDATA[
.edge:hover path { stroke: red; }
.edge:hover polygon { stroke: red; fill: red; }
]]></style>
<script type="text/javascript"><![CDATA[
var edges = document.getElementsByTagName('g');
if (edges && edges.length) {
  for (var i=0;i<edges.length;i++) {
    if (edges[i].id.substr(0,4)=='edge') {
      edges[i].setAttribute('class','edge');
    }
  }
}
]]></script>
        <defs>
                <circle id="rim" cx="0" cy="0" r="7"/>
                <circle id="rim2" cx="0" cy="0" r="3.5"/>
                <g id="zoomPlus">
                        <use xlink:href="#rim" fill="#404040">
                                <set attributeName="fill" to="#808080" begin="zoomplus.mouseover" end="zoomplus.mouseout"/>
                        </use>
                        <path d="M-4,0h8M0,-4v8" fill="none" stroke="white" stroke-width="1.5" pointer-events="none"/>
                </g>
                <g id="zoomMin">
                        <use xlink:href="#rim" fill="#404040">
                                <set attributeName="fill" to="#808080" begin="zoomminus.mouseover" end="zoomminus.mouseout"/>
                        </use>
                        <path d="M-4,0h8" fill="none" stroke="white" stroke-width="1.5" pointer-events="none"/>
                </g>
                <g id="dirArrow">
                        <path fill="none" stroke="white" stroke-width="1.5" d="M0,-3.0v7 M-2.5,-0.5L0,-3.0L2.5,-0.5"/>
                </g>
               <g id="resetDef">
                       <use xlink:href="#rim2" fill="#404040">
                               <set attributeName="fill" to="#808080" begin="reset.mouseover" end="reset.mouseout"/>
                       </use>
               </g>
        </defs>

<script type="text/javascript">
var viewWidth = 1688;
var viewHeight = 737;
var sectionId = 'dynsection-1';
</script>
<script xlink:href="svgpan.js"/>
<svg id="graph" class="graph">
<g id="viewport">
<title>KuszkAPI::Core::Threads&lt; tnKey &gt;</title>
<polygon fill="white" stroke="none" points="-4,4 -4,-733 1684,-733 1684,4 -4,4"/>
<!-- Node1 -->
<g id="node1" class="node"><title>Node1</title>
<polygon fill="#bfbfbf" stroke="black" points="1552.5,-310 1552.5,-340 1679.5,-340 1679.5,-310 1552.5,-310"/>
<text text-anchor="start" x="1560.5" y="-328" font-family="Helvetica,sans-Serif" font-size="10.00">KuszkAPI::Core::Threads</text>
<text text-anchor="middle" x="1616" y="-317" font-family="Helvetica,sans-Serif" font-size="10.00">&lt; tnKey &gt;</text>
</g>
<!-- Node2 -->
<g id="node2" class="node"><title>Node2</title>
<g id="a_node2"><a xlink:href="class_kuszk_a_p_i_1_1_containers_1_1_map.html" target="_top" xlink:title="KuszkAPI::Containers\l::Map\&lt; KuszkAPI::Core\l::Threads::ItemData, tnKey \&gt;">
<polygon fill="white" stroke="black" points="1330.5,-304.5 1330.5,-345.5 1473.5,-345.5 1473.5,-304.5 1330.5,-304.5"/>
<text text-anchor="start" x="1338.5" y="-333.5" font-family="Helvetica,sans-Serif" font-size="10.00">KuszkAPI::Containers</text>
<text text-anchor="start" x="1338.5" y="-322.5" font-family="Helvetica,sans-Serif" font-size="10.00">::Map&lt; KuszkAPI::Core</text>
<text text-anchor="middle" x="1402" y="-311.5" font-family="Helvetica,sans-Serif" font-size="10.00">::Threads::ItemData, tnKey &gt;</text>
</a>
</g>
</g>
<!-- Node2&#45;&gt;Node1 -->
<g id="edge1" class="edge"><title>Node2&#45;&gt;Node1</title>
<path fill="none" stroke="#9a32cd" stroke-dasharray="5,2" d="M1483.87,-325C1506.51,-325 1530.77,-325 1552.2,-325"/>
<polygon fill="#9a32cd" stroke="#9a32cd" points="1483.59,-321.5 1473.59,-325 1483.59,-328.5 1483.59,-321.5"/>
<text text-anchor="middle" x="1513" y="-328" font-family="Helvetica,sans-Serif" font-size="10.00"> mThread</text>
</g>
<!-- Node3 -->
<g id="node3" class="node"><title>Node3</title>
<g id="a_node3"><a xlink:href="class_kuszk_a_p_i_1_1_containers_1_1_box.html" target="_top" xlink:title="KuszkAPI::Containers\l::Box\&lt; KuszkAPI::Core\l::Threads::ItemData \&gt;">
<polygon fill="white" stroke="black" points="1142.5,-408.5 1142.5,-449.5 1261.5,-449.5 1261.5,-408.5 1142.5,-408.5"/>
<text text-anchor="start" x="1150.5" y="-437.5" font-family="Helvetica,sans-Serif" font-size="10.00">KuszkAPI::Containers</text>
<text text-anchor="start" x="1150.5" y="-426.5" font-family="Helvetica,sans-Serif" font-size="10.00">::Box&lt; KuszkAPI::Core</text>
<text text-anchor="middle" x="1202" y="-415.5" font-family="Helvetica,sans-Serif" font-size="10.00">::Threads::ItemData &gt;</text>
</a>
</g>
</g>
<!-- Node3&#45;&gt;Node2 -->
<g id="edge2" class="edge"><title>Node3&#45;&gt;Node2</title>
<path fill="none" stroke="#9a32cd" stroke-dasharray="5,2" d="M1251.4,-403.58C1285.38,-385.727 1330.26,-362.158 1361.96,-345.504"/>
<polygon fill="#9a32cd" stroke="#9a32cd" points="1249.34,-400.704 1242.12,-408.453 1252.6,-406.901 1249.34,-400.704"/>
<text text-anchor="middle" x="1297" y="-390" font-family="Helvetica,sans-Serif" font-size="10.00"> bData</text>
</g>
<!-- Node4 -->
<g id="node4" class="node"><title>Node4</title>
<g id="a_node4"><a xlink:href="class_kuszk_a_p_i_1_1_containers_1_1_vector.html" target="_top" xlink:title="KuszkAPI::Containers\l::Vector\&lt; KuszkAPI::Core\l::Threads::ItemData * \&gt;">
<polygon fill="white" stroke="black" points="650,-446.5 650,-487.5 780,-487.5 780,-446.5 650,-446.5"/>
<text text-anchor="start" x="658" y="-475.5" font-family="Helvetica,sans-Serif" font-size="10.00">KuszkAPI::Containers</text>
<text text-anchor="start" x="658" y="-464.5" font-family="Helvetica,sans-Serif" font-size="10.00">::Vector&lt; KuszkAPI::Core</text>
<text text-anchor="middle" x="715" y="-453.5" font-family="Helvetica,sans-Serif" font-size="10.00">::Threads::ItemData * &gt;</text>
</a>
</g>
</g>
<!-- Node4&#45;&gt;Node3 -->
<g id="edge3" class="edge"><title>Node4&#45;&gt;Node3</title>
<path fill="none" stroke="#9a32cd" stroke-dasharray="5,2" d="M790.271,-463.667C871.782,-459.635 1006.43,-451.874 1122,-440 1128.61,-439.321 1135.52,-438.509 1142.39,-437.64"/>
<polygon fill="#9a32cd" stroke="#9a32cd" points="789.927,-460.179 780.11,-464.164 790.269,-467.171 789.927,-460.179"/>
<text text-anchor="middle" x="920" y="-463" font-family="Helvetica,sans-Serif" font-size="10.00"> vPointers</text>
</g>
<!-- Node5 -->
<g id="node5" class="node"><title>Node5</title>
<g id="a_node5"><a xlink:href="class_kuszk_a_p_i_1_1_containers_1_1_container.html" target="_top" xlink:title="Implementacja bazy dla modułu kontenerów. ">
<polygon fill="white" stroke="black" points="143.5,-321 143.5,-351 256.5,-351 256.5,-321 143.5,-321"/>
<text text-anchor="start" x="151.5" y="-339" font-family="Helvetica,sans-Serif" font-size="10.00">KuszkAPI::Containers</text>
<text text-anchor="middle" x="200" y="-328" font-family="Helvetica,sans-Serif" font-size="10.00">::Container</text>
</a>
</g>
</g>
<!-- Node5&#45;&gt;Node4 -->
<g id="edge4" class="edge"><title>Node5&#45;&gt;Node4</title>
<path fill="none" stroke="midnightblue" d="M266.458,-347.289C292.468,-354.146 321.49,-364.993 344,-382 355.507,-390.694 349.882,-401.18 362,-409 385.776,-424.342 554.988,-447.337 649.875,-459.24"/>
<polygon fill="midnightblue" stroke="midnightblue" points="267.206,-343.868 256.657,-344.851 265.517,-350.661 267.206,-343.868"/>
</g>
<!-- Node10 -->
<g id="node10" class="node"><title>Node10</title>
<g id="a_node10"><a xlink:href="class_kuszk_a_p_i_1_1_containers_1_1_vector.html" target="_top" xlink:title="KuszkAPI::Containers\l::Vector\&lt; tnData \&gt;">
<polygon fill="white" stroke="black" points="369.5,-452 369.5,-482 482.5,-482 482.5,-452 369.5,-452"/>
<text text-anchor="start" x="377.5" y="-470" font-family="Helvetica,sans-Serif" font-size="10.00">KuszkAPI::Containers</text>
<text text-anchor="middle" x="426" y="-459" font-family="Helvetica,sans-Serif" font-size="10.00">::Vector&lt; tnData &gt;</text>
</a>
</g>
</g>
<!-- Node5&#45;&gt;Node10 -->
<g id="edge11" class="edge"><title>Node5&#45;&gt;Node10</title>
<path fill="none" stroke="midnightblue" d="M244.079,-355.586C254.718,-360.874 265.942,-366.847 276,-373 316.642,-397.864 321.186,-412.419 362,-437 370.925,-442.375 380.963,-447.524 390.359,-451.993"/>
<polygon fill="midnightblue" stroke="midnightblue" points="245.448,-352.36 234.925,-351.129 242.384,-358.654 245.448,-352.36"/>
</g>
<!-- Node13 -->
<g id="node13" class="node"><title>Node13</title>
<g id="a_node13"><a xlink:href="class_kuszk_a_p_i_1_1_containers_1_1_vector.html" target="_top" xlink:title="KuszkAPI::Containers\l::Vector\&lt; tnData * \&gt;">
<polygon fill="white" stroke="black" points="658.5,-375 658.5,-405 771.5,-405 771.5,-375 658.5,-375"/>
<text text-anchor="start" x="666.5" y="-393" font-family="Helvetica,sans-Serif" font-size="10.00">KuszkAPI::Containers</text>
<text text-anchor="middle" x="715" y="-382" font-family="Helvetica,sans-Serif" font-size="10.00">::Vector&lt; tnData * &gt;</text>
</a>
</g>
</g>
<!-- Node5&#45;&gt;Node13 -->
<g id="edge18" class="edge"><title>Node5&#45;&gt;Node13</title>
<path fill="none" stroke="midnightblue" d="M266.835,-324.346C291.085,-321.427 318.785,-319.702 344,-322 456.686,-332.269 586.31,-359.783 658.336,-376.497"/>
<polygon fill="midnightblue" stroke="midnightblue" points="266.138,-320.907 256.67,-325.662 267.037,-327.849 266.138,-320.907"/>
</g>
<!-- Node14 -->
<g id="node14" class="node"><title>Node14</title>
<g id="a_node14"><a xlink:href="class_kuszk_a_p_i_1_1_containers_1_1_list.html" target="_top" xlink:title="KuszkAPI::Containers\l::List\&lt; tnKey \&gt;">
<polygon fill="white" stroke="black" points="658.5,-196 658.5,-226 771.5,-226 771.5,-196 658.5,-196"/>
<text text-anchor="start" x="666.5" y="-214" font-family="Helvetica,sans-Serif" font-size="10.00">KuszkAPI::Containers</text>
<text text-anchor="middle" x="715" y="-203" font-family="Helvetica,sans-Serif" font-size="10.00">::List&lt; tnKey &gt;</text>
</a>
</g>
</g>
<!-- Node5&#45;&gt;Node14 -->
<g id="edge23" class="edge"><title>Node5&#45;&gt;Node14</title>
<path fill="none" stroke="midnightblue" d="M220.497,-312.678C247.021,-281.019 291.492,-228.207 294,-227 310.93,-218.854 613.233,-216.877 632,-216 640.548,-215.6 649.594,-215.113 658.434,-214.602"/>
<polygon fill="midnightblue" stroke="midnightblue" points="217.595,-310.692 213.859,-320.607 222.962,-315.186 217.595,-310.692"/>
</g>
<!-- Node18 -->
<g id="node18" class="node"><title>Node18</title>
<g id="a_node18"><a xlink:href="class_kuszk_a_p_i_1_1_containers_1_1_list.html" target="_top" xlink:title="Implementacja szablonu listy dla modułu kontenerów. ">
<polygon fill="white" stroke="black" points="369.5,-259 369.5,-289 482.5,-289 482.5,-259 369.5,-259"/>
<text text-anchor="start" x="377.5" y="-277" font-family="Helvetica,sans-Serif" font-size="10.00">KuszkAPI::Containers</text>
<text text-anchor="middle" x="426" y="-266" font-family="Helvetica,sans-Serif" font-size="10.00">::List&lt; tnData &gt;</text>
</a>
</g>
</g>
<!-- Node5&#45;&gt;Node18 -->
<g id="edge29" class="edge"><title>Node5&#45;&gt;Node18</title>
<path fill="none" stroke="midnightblue" d="M241.788,-316.572C257.781,-309.574 276.471,-302.144 294,-297 318.261,-289.88 345.735,-284.643 369.235,-280.981"/>
<polygon fill="midnightblue" stroke="midnightblue" points="239.917,-313.574 232.214,-320.849 242.772,-319.965 239.917,-313.574"/>
</g>
<!-- Node6 -->
<g id="node6" class="node"><title>Node6</title>
<g id="a_node6"><a xlink:href="namespace_3global_scope_4.html#classunsigned" target="_top" xlink:title="unsigned">
<polygon fill="white" stroke="black" points="0,-490.5 0,-509.5 56,-509.5 56,-490.5 0,-490.5"/>
<text text-anchor="middle" x="28" y="-497.5" font-family="Helvetica,sans-Serif" font-size="10.00">unsigned</text>
</a>
</g>
</g>
<!-- Node6&#45;&gt;Node2 -->
<g id="edge32" class="edge"><title>Node6&#45;&gt;Node2</title>
<path fill="none" stroke="#9a32cd" stroke-dasharray="5,2" d="M32.3282,-519.672C37.6486,-546.955 50.0051,-596.984 74,-633 111.25,-688.911 131.817,-718 199,-718 199,-718 199,-718 1203,-718 1371.46,-718 1396.61,-426.439 1400.35,-345.576"/>
<polygon fill="#9a32cd" stroke="#9a32cd" points="35.7621,-518.993 30.5178,-509.787 28.8766,-520.254 35.7621,-518.993"/>
<text text-anchor="middle" x="715" y="-721" font-family="Helvetica,sans-Serif" font-size="10.00"> uIlosc</text>
</g>
<!-- Node6&#45;&gt;Node3 -->
<g id="edge14" class="edge"><title>Node6&#45;&gt;Node3</title>
<path fill="none" stroke="#9a32cd" stroke-dasharray="5,2" d="M35.5498,-519.423C47.6332,-552.207 76.617,-618.334 124,-653 151.752,-673.304 164.614,-672 199,-672 199,-672 199,-672 921,-672 1056.17,-672 1157.99,-508.482 1190.22,-449.718"/>
<polygon fill="#9a32cd" stroke="#9a32cd" points="38.7355,-517.934 32.0976,-509.676 32.1372,-520.271 38.7355,-517.934"/>
<text text-anchor="middle" x="570" y="-675" font-family="Helvetica,sans-Serif" font-size="10.00"> uIlosc</text>
</g>
<!-- Node6&#45;&gt;Node4 -->
<g id="edge9" class="edge"><title>Node6&#45;&gt;Node4</title>
<path fill="none" stroke="#9a32cd" stroke-dasharray="5,2" d="M45.3533,-516.427C53.2918,-523.257 63.3971,-530.418 74,-534 119.219,-549.276 623.464,-537.061 632,-534 657.612,-524.817 681.017,-503.859 696.206,-487.809"/>
<polygon fill="#9a32cd" stroke="#9a32cd" points="47.6612,-513.794 37.935,-509.593 42.9184,-518.943 47.6612,-513.794"/>
<text text-anchor="middle" x="319" y="-545" font-family="Helvetica,sans-Serif" font-size="10.00"> uDataSize</text>
</g>
<!-- Node6&#45;&gt;Node5 -->
<g id="edge5" class="edge"><title>Node6&#45;&gt;Node5</title>
<path fill="none" stroke="#9a32cd" stroke-dasharray="5,2" d="M39.0929,-481.401C54.4346,-454.544 85.9033,-404.663 124,-373 134.608,-364.184 147.671,-356.815 159.906,-351.035"/>
<polygon fill="#9a32cd" stroke="#9a32cd" points="36.0114,-479.74 34.1879,-490.177 42.1218,-483.155 36.0114,-479.74"/>
<text text-anchor="middle" x="90" y="-442" font-family="Helvetica,sans-Serif" font-size="10.00"> uIlosc</text>
<text text-anchor="middle" x="90" y="-431" font-family="Helvetica,sans-Serif" font-size="10.00">uMode</text>
</g>
<!-- Node6&#45;&gt;Node10 -->
<g id="edge13" class="edge"><title>Node6&#45;&gt;Node10</title>
<path fill="none" stroke="#9a32cd" stroke-dasharray="5,2" d="M66.3195,-496.89C136.199,-491.067 287.115,-478.49 369.155,-471.654"/>
<polygon fill="#9a32cd" stroke="#9a32cd" points="65.8935,-493.413 56.2187,-497.732 66.4748,-500.389 65.8935,-493.413"/>
<text text-anchor="middle" x="200" y="-495" font-family="Helvetica,sans-Serif" font-size="10.00"> uDataSize</text>
</g>
<!-- Node12 -->
<g id="node12" class="node"><title>Node12</title>
<g id="a_node12"><a xlink:href="class_kuszk_a_p_i_1_1_containers_1_1_box.html" target="_top" xlink:title="Implementacja szablonu pudełka dla modułu kontenerów. ">
<polygon fill="white" stroke="black" points="863.5,-375 863.5,-405 976.5,-405 976.5,-375 863.5,-375"/>
<text text-anchor="start" x="871.5" y="-393" font-family="Helvetica,sans-Serif" font-size="10.00">KuszkAPI::Containers</text>
<text text-anchor="middle" x="920" y="-382" font-family="Helvetica,sans-Serif" font-size="10.00">::Box&lt; tnData &gt;</text>
</a>
</g>
</g>
<!-- Node6&#45;&gt;Node12 -->
<g id="edge16" class="edge"><title>Node6&#45;&gt;Node12</title>
<path fill="none" stroke="#9a32cd" stroke-dasharray="5,2" d="M29.9232,-480.346C33.0436,-420.205 44.6878,-239.738 74,-190 109.429,-129.884 129.221,-95 199,-95 199,-95 199,-95 716,-95 775.615,-95 800.916,-97.8023 842,-141 907.174,-209.526 917.253,-332.125 918.757,-374.832"/>
<polygon fill="#9a32cd" stroke="#9a32cd" points="26.4239,-480.246 29.4236,-490.407 33.4153,-480.593 26.4239,-480.246"/>
<text text-anchor="middle" x="426" y="-98" font-family="Helvetica,sans-Serif" font-size="10.00"> uIlosc</text>
</g>
<!-- Node6&#45;&gt;Node13 -->
<g id="edge20" class="edge"><title>Node6&#45;&gt;Node13</title>
<path fill="none" stroke="#9a32cd" stroke-dasharray="5,2" d="M66.1945,-505.35C68.8321,-505.609 71.4539,-505.831 74,-506 163.581,-511.946 186.237,-507.638 276,-506 355.151,-504.555 568.89,-540.792 632,-493 652.841,-477.217 634.721,-458.213 650,-437 659.346,-424.024 673.363,-413.158 685.898,-405.153"/>
<polygon fill="#9a32cd" stroke="#9a32cd" points="66.4003,-501.851 56.0693,-504.2 65.6107,-508.806 66.4003,-501.851"/>
<text text-anchor="middle" x="319" y="-513" font-family="Helvetica,sans-Serif" font-size="10.00"> uDataSize</text>
</g>
<!-- Node19 -->
<g id="node19" class="node"><title>Node19</title>
<g id="a_node19"><a xlink:href="class_kuszk_a_p_i_1_1_containers_1_1_map.html" target="_top" xlink:title="KuszkAPI::Containers\l::Map\&lt; tnData, tnKey \&gt;">
<polygon fill="white" stroke="black" points="860.5,-89 860.5,-119 979.5,-119 979.5,-89 860.5,-89"/>
<text text-anchor="start" x="868.5" y="-107" font-family="Helvetica,sans-Serif" font-size="10.00">KuszkAPI::Containers</text>
<text text-anchor="middle" x="920" y="-96" font-family="Helvetica,sans-Serif" font-size="10.00">::Map&lt; tnData, tnKey &gt;</text>
</a>
</g>
</g>
<!-- Node6&#45;&gt;Node19 -->
<g id="edge36" class="edge"><title>Node6&#45;&gt;Node19</title>
<path fill="none" stroke="#9a32cd" stroke-dasharray="5,2" d="M30.6839,-479.821C36.7859,-408.035 58.2098,-167.69 74,-137 105.201,-76.3573 130.801,-48 199,-48 199,-48 199,-48 716,-48 777.785,-48 846.464,-72.4052 886.007,-88.993"/>
<polygon fill="#9a32cd" stroke="#9a32cd" points="27.1634,-479.919 29.8109,-490.178 34.1386,-480.507 27.1634,-479.919"/>
<text text-anchor="middle" x="426" y="-51" font-family="Helvetica,sans-Serif" font-size="10.00"> uIlosc</text>
</g>
<!-- Node7 -->
<g id="node7" class="node"><title>Node7</title>
<g id="a_node7"><a xlink:href="class_kuszk_a_p_i_1_1_core_1_1_threads.html#struct_kuszk_a_p_i_1_1_core_1_1_threads_1_1_item_data" target="_top" xlink:title="KuszkAPI::Core::Threads\l\&lt; tnKey \&gt;::ItemData">
<polygon fill="white" stroke="black" points="362.5,-587 362.5,-617 489.5,-617 489.5,-587 362.5,-587"/>
<text text-anchor="start" x="370.5" y="-605" font-family="Helvetica,sans-Serif" font-size="10.00">KuszkAPI::Core::Threads</text>
<text text-anchor="middle" x="426" y="-594" font-family="Helvetica,sans-Serif" font-size="10.00">&lt; tnKey &gt;::ItemData</text>
</a>
</g>
</g>
<!-- Node7&#45;&gt;Node4 -->
<g id="edge6" class="edge"><title>Node7&#45;&gt;Node4</title>
<path fill="none" stroke="#9a32cd" stroke-dasharray="5,2" d="M499.695,-604.351C540.985,-602.632 592.211,-595.129 632,-572 665.994,-552.24 691,-512.421 703.965,-487.897"/>
<polygon fill="#9a32cd" stroke="#9a32cd" points="499.582,-600.853 489.696,-604.664 499.801,-607.85 499.582,-600.853"/>
<text text-anchor="middle" x="570" y="-618" font-family="Helvetica,sans-Serif" font-size="10.00"> tAbstract</text>
<text text-anchor="middle" x="570" y="-607" font-family="Helvetica,sans-Serif" font-size="10.00">ptBegin</text>
</g>
<!-- Node8 -->
<g id="node8" class="node"><title>Node8</title>
<polygon fill="white" stroke="#bfbfbf" points="124.5,-624.5 124.5,-643.5 275.5,-643.5 275.5,-624.5 124.5,-624.5"/>
<text text-anchor="middle" x="200" y="-631.5" font-family="Helvetica,sans-Serif" font-size="10.00">LPTHREAD_START_ROUTINE</text>
</g>
<!-- Node8&#45;&gt;Node7 -->
<g id="edge7" class="edge"><title>Node8&#45;&gt;Node7</title>
<path fill="none" stroke="#9a32cd" stroke-dasharray="5,2" d="M277.634,-623.052C305.302,-619.1 336.177,-614.689 362.491,-610.93"/>
<polygon fill="#9a32cd" stroke="#9a32cd" points="277.005,-619.606 267.601,-624.486 277.995,-626.536 277.005,-619.606"/>
<text text-anchor="middle" x="319" y="-623" font-family="Helvetica,sans-Serif" font-size="10.00"> fProc</text>
</g>
<!-- Node9 -->
<g id="node9" class="node"><title>Node9</title>
<polygon fill="white" stroke="#bfbfbf" points="172,-586.5 172,-605.5 228,-605.5 228,-586.5 172,-586.5"/>
<text text-anchor="middle" x="200" y="-593.5" font-family="Helvetica,sans-Serif" font-size="10.00">HANDLE</text>
</g>
<!-- Node9&#45;&gt;Node7 -->
<g id="edge8" class="edge"><title>Node9&#45;&gt;Node7</title>
<path fill="none" stroke="#9a32cd" stroke-dasharray="5,2" d="M238.352,-597.001C272.076,-597.904 322.375,-599.251 362.264,-600.32"/>
<polygon fill="#9a32cd" stroke="#9a32cd" points="238.11,-593.493 228.02,-596.724 237.922,-600.49 238.11,-593.493"/>
<text text-anchor="middle" x="319" y="-603" font-family="Helvetica,sans-Serif" font-size="10.00"> hThread</text>
</g>
<!-- Node10&#45;&gt;Node4 -->
<g id="edge10" class="edge"><title>Node10&#45;&gt;Node4</title>
<path fill="none" stroke="orange" stroke-dasharray="5,2" d="M492.79,-467C539.969,-467 603.193,-467 649.967,-467"/>
<polygon fill="orange" stroke="orange" points="492.677,-463.5 482.677,-467 492.677,-470.5 492.677,-463.5"/>
<text text-anchor="start" x="508.5" y="-481" font-family="Helvetica,sans-Serif" font-size="10.00"> &lt; KuszkAPI::Core::Threads</text>
<text text-anchor="middle" x="570" y="-470" font-family="Helvetica,sans-Serif" font-size="10.00">::ItemData * &gt;</text>
</g>
<!-- Node10&#45;&gt;Node13 -->
<g id="edge21" class="edge"><title>Node10&#45;&gt;Node13</title>
<path fill="none" stroke="orange" stroke-dasharray="5,2" d="M492.449,-449.44C542.587,-435.989 610.996,-417.635 658.478,-404.896"/>
<polygon fill="orange" stroke="orange" points="491.428,-446.091 482.677,-452.062 493.242,-452.851 491.428,-446.091"/>
<text text-anchor="middle" x="570" y="-448" font-family="Helvetica,sans-Serif" font-size="10.00"> &lt; tnData * &gt;</text>
</g>
<!-- Node11 -->
<g id="node11" class="node"><title>Node11</title>
<polygon fill="white" stroke="#bfbfbf" points="177.5,-382.5 177.5,-401.5 222.5,-401.5 222.5,-382.5 177.5,-382.5"/>
<text text-anchor="middle" x="200" y="-389.5" font-family="Helvetica,sans-Serif" font-size="10.00">tnData</text>
</g>
<!-- Node11&#45;&gt;Node10 -->
<g id="edge12" class="edge"><title>Node11&#45;&gt;Node10</title>
<path fill="none" stroke="#9a32cd" stroke-dasharray="5,2" d="M232.023,-404.725C249.996,-411.916 273.127,-420.866 294,-428 319.036,-436.557 347.115,-445.059 370.835,-451.93"/>
<polygon fill="#9a32cd" stroke="#9a32cd" points="233.2,-401.426 222.617,-400.933 230.583,-407.918 233.2,-401.426"/>
<text text-anchor="middle" x="319" y="-457" font-family="Helvetica,sans-Serif" font-size="10.00"> tAbstract</text>
<text text-anchor="middle" x="319" y="-446" font-family="Helvetica,sans-Serif" font-size="10.00">ptBegin</text>
</g>
<!-- Node11&#45;&gt;Node13 -->
<g id="edge19" class="edge"><title>Node11&#45;&gt;Node13</title>
<path fill="none" stroke="#9a32cd" stroke-dasharray="5,2" d="M232.782,-391.876C317.748,-391.545 550.97,-390.636 658.437,-390.217"/>
<polygon fill="#9a32cd" stroke="#9a32cd" points="232.702,-388.376 222.715,-391.915 232.729,-395.376 232.702,-388.376"/>
<text text-anchor="middle" x="426" y="-406" font-family="Helvetica,sans-Serif" font-size="10.00"> tAbstract</text>
<text text-anchor="middle" x="426" y="-395" font-family="Helvetica,sans-Serif" font-size="10.00">ptBegin</text>
</g>
<!-- Node11&#45;&gt;Node18 -->
<g id="edge30" class="edge"><title>Node11&#45;&gt;Node18</title>
<path fill="none" stroke="#9a32cd" stroke-dasharray="5,2" d="M232.086,-379.72C245.731,-374.079 261.835,-367.077 276,-360 321.287,-337.372 371.924,-307.007 400.973,-289.07"/>
<polygon fill="#9a32cd" stroke="#9a32cd" points="230.586,-376.552 222.648,-383.569 233.229,-383.034 230.586,-376.552"/>
<text text-anchor="middle" x="319" y="-353" font-family="Helvetica,sans-Serif" font-size="10.00"> tAbstract</text>
</g>
<!-- Node12&#45;&gt;Node3 -->
<g id="edge15" class="edge"><title>Node12&#45;&gt;Node3</title>
<path fill="none" stroke="orange" stroke-dasharray="5,2" d="M986.747,-399.158C1033.81,-405.713 1096.63,-414.463 1142.07,-420.792"/>
<polygon fill="orange" stroke="orange" points="987.041,-395.665 976.654,-397.752 986.075,-402.598 987.041,-395.665"/>
<text text-anchor="start" x="998.5" y="-432" font-family="Helvetica,sans-Serif" font-size="10.00"> &lt; KuszkAPI::Core::Threads</text>
<text text-anchor="middle" x="1060" y="-421" font-family="Helvetica,sans-Serif" font-size="10.00">::ItemData &gt;</text>
</g>
<!-- Node13&#45;&gt;Node12 -->
<g id="edge17" class="edge"><title>Node13&#45;&gt;Node12</title>
<path fill="none" stroke="#9a32cd" stroke-dasharray="5,2" d="M781.998,-390C808.291,-390 838.221,-390 863.385,-390"/>
<polygon fill="#9a32cd" stroke="#9a32cd" points="781.739,-386.5 771.739,-390 781.739,-393.5 781.739,-386.5"/>
<text text-anchor="middle" x="820" y="-393" font-family="Helvetica,sans-Serif" font-size="10.00"> vPointers</text>
</g>
<!-- Node14&#45;&gt;Node2 -->
<g id="edge22" class="edge"><title>Node14&#45;&gt;Node2</title>
<path fill="none" stroke="#9a32cd" stroke-dasharray="5,2" d="M781.927,-221.972C911.314,-243.505 1197.45,-291.124 1330.46,-313.261"/>
<polygon fill="#9a32cd" stroke="#9a32cd" points="782.205,-218.47 771.766,-220.281 781.056,-225.375 782.205,-218.47"/>
<text text-anchor="middle" x="1060" y="-282" font-family="Helvetica,sans-Serif" font-size="10.00"> lKey</text>
</g>
<!-- Node14&#45;&gt;Node19 -->
<g id="edge35" class="edge"><title>Node14&#45;&gt;Node19</title>
<path fill="none" stroke="#9a32cd" stroke-dasharray="5,2" d="M753.738,-191.109C793.352,-170.228 854.743,-137.869 890.491,-119.027"/>
<polygon fill="#9a32cd" stroke="#9a32cd" points="751.869,-188.137 744.654,-195.896 755.133,-194.33 751.869,-188.137"/>
<text text-anchor="middle" x="820" y="-171" font-family="Helvetica,sans-Serif" font-size="10.00"> lKey</text>
</g>
<!-- Node15 -->
<g id="node15" class="node"><title>Node15</title>
<g id="a_node15"><a xlink:href="class_kuszk_a_p_i_1_1_containers_1_1_list.html#struct_kuszk_a_p_i_1_1_containers_1_1_list_1_1_item_data" target="_top" xlink:title="Struktura przechowująca wskaźnik na element listy oraz wskaźnik na kolejny obiekt. ">
<polygon fill="white" stroke="black" points="135,-179 135,-209 265,-209 265,-179 135,-179"/>
<text text-anchor="start" x="143" y="-197" font-family="Helvetica,sans-Serif" font-size="10.00">KuszkAPI::Containers</text>
<text text-anchor="middle" x="200" y="-186" font-family="Helvetica,sans-Serif" font-size="10.00">::List&lt; tnData &gt;::ItemData</text>
</a>
</g>
</g>
<!-- Node15&#45;&gt;Node14 -->
<g id="edge24" class="edge"><title>Node15&#45;&gt;Node14</title>
<path fill="none" stroke="#9a32cd" stroke-dasharray="5,2" d="M254.524,-175.942C285.517,-166.44 325.504,-155.79 362,-151 418.405,-143.597 433.597,-143.577 490,-151 554.464,-159.484 626.741,-181.143 671.317,-195.977"/>
<polygon fill="#9a32cd" stroke="#9a32cd" points="253.297,-172.658 244.793,-178.978 255.381,-179.34 253.297,-172.658"/>
<text text-anchor="middle" x="426" y="-165" font-family="Helvetica,sans-Serif" font-size="10.00"> ptLast</text>
<text text-anchor="middle" x="426" y="-154" font-family="Helvetica,sans-Serif" font-size="10.00">ptBegin</text>
</g>
<!-- Node15&#45;&gt;Node15 -->
<g id="edge25" class="edge"><title>Node15&#45;&gt;Node15</title>
<path fill="none" stroke="#9a32cd" stroke-dasharray="5,2" d="M180.746,-219.598C183.377,-223.97 189.795,-227 200,-227 217.188,-227 223.633,-218.406 219.336,-209.275"/>
<polygon fill="#9a32cd" stroke="#9a32cd" points="184.243,-219.247 180.664,-209.275 177.244,-219.303 184.243,-219.247"/>
<text text-anchor="middle" x="200" y="-230" font-family="Helvetica,sans-Serif" font-size="10.00"> ptNext</text>
</g>
<!-- Node15&#45;&gt;Node18 -->
<g id="edge31" class="edge"><title>Node15&#45;&gt;Node18</title>
<path fill="none" stroke="#9a32cd" stroke-dasharray="5,2" d="M252.831,-212.511C292.252,-226.59 345.816,-245.72 382.676,-258.884"/>
<polygon fill="#9a32cd" stroke="#9a32cd" points="253.727,-209.115 243.133,-209.047 251.373,-215.707 253.727,-209.115"/>
<text text-anchor="middle" x="319" y="-258" font-family="Helvetica,sans-Serif" font-size="10.00"> ptLast</text>
<text text-anchor="middle" x="319" y="-247" font-family="Helvetica,sans-Serif" font-size="10.00">ptBegin</text>
</g>
<!-- Node16 -->
<g id="node16" class="node"><title>Node16</title>
<polygon fill="white" stroke="#bfbfbf" points="2,-184.5 2,-203.5 54,-203.5 54,-184.5 2,-184.5"/>
<text text-anchor="middle" x="28" y="-191.5" font-family="Helvetica,sans-Serif" font-size="10.00">tnData *</text>
</g>
<!-- Node16&#45;&gt;Node15 -->
<g id="edge26" class="edge"><title>Node16&#45;&gt;Node15</title>
<path fill="none" stroke="#9a32cd" stroke-dasharray="5,2" d="M64.1714,-194C84.5774,-194 110.906,-194 134.874,-194"/>
<polygon fill="#9a32cd" stroke="#9a32cd" points="64.0841,-190.5 54.0841,-194 64.0841,-197.5 64.0841,-190.5"/>
<text text-anchor="middle" x="90" y="-197" font-family="Helvetica,sans-Serif" font-size="10.00"> ptData</text>
</g>
<!-- Node17 -->
<g id="node17" class="node"><title>Node17</title>
<polygon fill="white" stroke="#bfbfbf" points="405,-182.5 405,-201.5 447,-201.5 447,-182.5 405,-182.5"/>
<text text-anchor="middle" x="426" y="-189.5" font-family="Helvetica,sans-Serif" font-size="10.00">tnKey</text>
</g>
<!-- Node17&#45;&gt;Node14 -->
<g id="edge27" class="edge"><title>Node17&#45;&gt;Node14</title>
<path fill="none" stroke="#9a32cd" stroke-dasharray="5,2" d="M457.224,-193.825C497.218,-196.26 569.914,-200.76 632,-205 640.545,-205.584 649.588,-206.223 658.428,-206.86"/>
<polygon fill="#9a32cd" stroke="#9a32cd" points="457.276,-190.321 447.082,-193.209 456.851,-197.309 457.276,-190.321"/>
<text text-anchor="middle" x="570" y="-208" font-family="Helvetica,sans-Serif" font-size="10.00"> tAbstract</text>
</g>
<!-- Node18&#45;&gt;Node14 -->
<g id="edge28" class="edge"><title>Node18&#45;&gt;Node14</title>
<path fill="none" stroke="orange" stroke-dasharray="5,2" d="M492.594,-268.405C533.232,-263.957 586.225,-256.371 632,-244 648.74,-239.476 666.679,-232.516 681.496,-226.152"/>
<polygon fill="orange" stroke="orange" points="492.117,-264.936 482.541,-269.469 492.854,-271.897 492.117,-264.936"/>
<text text-anchor="middle" x="570" y="-270" font-family="Helvetica,sans-Serif" font-size="10.00"> &lt; tnKey &gt;</text>
</g>
<!-- Node19&#45;&gt;Node2 -->
<g id="edge33" class="edge"><title>Node19&#45;&gt;Node2</title>
<path fill="none" stroke="orange" stroke-dasharray="5,2" d="M977.125,-122.287C1054.87,-148.68 1198.58,-201.339 1312,-265 1333.12,-276.857 1355.75,-292.144 1372.9,-304.32"/>
<polygon fill="orange" stroke="orange" points="978.113,-118.926 967.519,-119.045 975.875,-125.559 978.113,-118.926"/>
<text text-anchor="start" x="1140.5" y="-253" font-family="Helvetica,sans-Serif" font-size="10.00"> &lt; KuszkAPI::Core::Threads</text>
<text text-anchor="middle" x="1202" y="-242" font-family="Helvetica,sans-Serif" font-size="10.00">::ItemData, tnKey &gt;</text>
</g>
<!-- Node20 -->
<g id="node20" class="node"><title>Node20</title>
<polygon fill="white" stroke="#bfbfbf" points="675,-0.5 675,-19.5 755,-19.5 755,-0.5 675,-0.5"/>
<text text-anchor="middle" x="715" y="-7.5" font-family="Helvetica,sans-Serif" font-size="10.00">Box&lt; tnData &gt;</text>
</g>
<!-- Node20&#45;&gt;Node19 -->
<g id="edge34" class="edge"><title>Node20&#45;&gt;Node19</title>
<path fill="none" stroke="#9a32cd" stroke-dasharray="5,2" d="M765.188,-7.26178C789.423,-7.81108 818.427,-11.4157 842,-23 872.3,-37.8898 896.983,-69.9588 909.687,-88.9752"/>
<polygon fill="#9a32cd" stroke="#9a32cd" points="765.144,-3.76154 755.123,-7.19908 765.101,-10.7614 765.144,-3.76154"/>
<text text-anchor="middle" x="820" y="-26" font-family="Helvetica,sans-Serif" font-size="10.00"> bData</text>
</g>
</g>
</svg>
        <g id="navigator" transform="translate(0 0)" fill="#404254">
                <rect fill="#f2f5e9" fill-opacity="0.5" stroke="#606060" stroke-width=".5" x="0" y="0" width="60" height="60"/>
                <use id="zoomplus" xlink:href="#zoomPlus" x="17" y="9" onmousedown="handleZoom(evt,'in')"/>
                <use id="zoomminus" xlink:href="#zoomMin" x="42" y="9" onmousedown="handleZoom(evt,'out')"/>
                <use id="reset" xlink:href="#resetDef" x="30" y="36" onmousedown="handleReset()"/>
                <g id="arrowUp" xlink:href="#dirArrow" transform="translate(30 24)" onmousedown="handlePan(0,-1)">
                  <use xlink:href="#rim" fill="#404040">
                        <set attributeName="fill" to="#808080" begin="arrowUp.mouseover" end="arrowUp.mouseout"/>
                  </use>
                  <path fill="none" stroke="white" stroke-width="1.5" d="M0,-3.0v7 M-2.5,-0.5L0,-3.0L2.5,-0.5"/>
                </g>
                <g id="arrowRight" xlink:href="#dirArrow" transform="rotate(90) translate(36 -43)" onmousedown="handlePan(1,0)">
                  <use xlink:href="#rim" fill="#404040">
                        <set attributeName="fill" to="#808080" begin="arrowRight.mouseover" end="arrowRight.mouseout"/>
                  </use>
                  <path fill="none" stroke="white" stroke-width="1.5" d="M0,-3.0v7 M-2.5,-0.5L0,-3.0L2.5,-0.5"/>
                </g>
                <g id="arrowDown" xlink:href="#dirArrow" transform="rotate(180) translate(-30 -48)" onmousedown="handlePan(0,1)">
                  <use xlink:href="#rim" fill="#404040">
                        <set attributeName="fill" to="#808080" begin="arrowDown.mouseover" end="arrowDown.mouseout"/>
                  </use>
                  <path fill="none" stroke="white" stroke-width="1.5" d="M0,-3.0v7 M-2.5,-0.5L0,-3.0L2.5,-0.5"/>
                </g>
                <g id="arrowLeft" xlink:href="#dirArrow" transform="rotate(270) translate(-36 17)" onmousedown="handlePan(-1,0)">
                  <use xlink:href="#rim" fill="#404040">
                        <set attributeName="fill" to="#808080" begin="arrowLeft.mouseover" end="arrowLeft.mouseout"/>
                  </use>
                  <path fill="none" stroke="white" stroke-width="1.5" d="M0,-3.0v7 M-2.5,-0.5L0,-3.0L2.5,-0.5"/>
                </g>
        </g>
        <svg viewBox="0 0 15 15" width="100%" height="30px" preserveAspectRatio="xMaxYMin meet">
         <g id="arrow_out" transform="scale(0.3 0.3)">
          <a xlink:href="class_kuszk_a_p_i_1_1_core_1_1_threads__coll__graph_org.svg" target="_base">
           <rect id="button" ry="5" rx="5" y="6" x="6" height="38" width="38"
                fill="#f2f5e9" fill-opacity="0.5" stroke="#606060" stroke-width="1.0"/>
           <path id="arrow"
             d="M 11.500037,31.436501 C 11.940474,20.09759 22.043105,11.32322 32.158766,21.979434 L 37.068811,17.246167 C 37.068811,17.246167 37.088388,32 37.088388,32 L 22.160133,31.978069 C 22.160133,31.978069 26.997745,27.140456 26.997745,27.140456 C 18.528582,18.264221 13.291696,25.230495 11.500037,31.436501 z"
             style="fill:#404040;"/>
          </a>
         </g>
        </svg>
</svg>
