<?xml version="1.0" encoding="UTF-8" standalone="no"?>
<!DOCTYPE svg PUBLIC "-//W3C//DTD SVG 1.1//EN"
 "http://www.w3.org/Graphics/SVG/1.1/DTD/svg11.dtd">
<!-- Generated by graphviz version 2.36.0 (20140111.2315)
 -->
<!-- Title: KuszkAPI::Core::Reg::Open Pages: 1 -->
<svg width="268pt" height="136pt"
 viewBox="0.00 0.00 268.00 136.00" xmlns="http://www.w3.org/2000/svg" xmlns:xlink="http://www.w3.org/1999/xlink">
<g id="graph0" class="graph" transform="scale(1 1) rotate(0) translate(4 132)">
<title>KuszkAPI::Core::Reg::Open</title>
<polygon fill="white" stroke="none" points="-4,4 -4,-132 264,-132 264,4 -4,4"/>
<!-- Node1 -->
<g id="node1" class="node"><title>Node1</title>
<polygon fill="#bfbfbf" stroke="black" points="0,-49 0,-79 110,-79 110,-49 0,-49"/>
<text text-anchor="start" x="8" y="-67" font-family="Helvetica,sans-Serif" font-size="10.00">KuszkAPI::Core::Reg</text>
<text text-anchor="middle" x="55" y="-56" font-family="Helvetica,sans-Serif" font-size="10.00">::Open</text>
</g>
<!-- Node2 -->
<g id="node2" class="node"><title>Node2</title>
<g id="a_node2"><a xlink:href="class_kuszk_a_p_i_1_1_containers_1_1_strings.html#a89fcfadc786b1736408189065ce5deaf" target="_top" xlink:title="KuszkAPI::Containers\l::Strings::Capacity">
<polygon fill="white" stroke="black" points="146.5,-98 146.5,-128 259.5,-128 259.5,-98 146.5,-98"/>
<text text-anchor="start" x="154.5" y="-116" font-family="Helvetica,sans-Serif" font-size="10.00">KuszkAPI::Containers</text>
<text text-anchor="middle" x="203" y="-105" font-family="Helvetica,sans-Serif" font-size="10.00">::Strings::Capacity</text>
</a>
</g>
</g>
<!-- Node1&#45;&gt;Node2 -->
<g id="edge1" class="edge"><title>Node1&#45;&gt;Node2</title>
<path fill="none" stroke="midnightblue" d="M100.996,-79.1014C115.636,-84.0147 132.046,-89.5224 147.314,-94.6466"/>
<polygon fill="midnightblue" stroke="midnightblue" points="146.558,-98.0847 157.152,-97.9484 148.786,-91.4485 146.558,-98.0847"/>
</g>
<!-- Node3 -->
<g id="node3" class="node"><title>Node3</title>
<g id="a_node3"><a xlink:href="class_kuszk_a_p_i_1_1_containers_1_1_string.html#a95d2a3884d9390d418b665d888451edf" target="_top" xlink:title="KuszkAPI::Containers\l::String::Contain">
<polygon fill="white" stroke="black" points="146.5,-49 146.5,-79 259.5,-79 259.5,-49 146.5,-49"/>
<text text-anchor="start" x="154.5" y="-67" font-family="Helvetica,sans-Serif" font-size="10.00">KuszkAPI::Containers</text>
<text text-anchor="middle" x="203" y="-56" font-family="Helvetica,sans-Serif" font-size="10.00">::String::Contain</text>
</a>
</g>
</g>
<!-- Node1&#45;&gt;Node3 -->
<g id="edge2" class="edge"><title>Node1&#45;&gt;Node3</title>
<path fill="none" stroke="midnightblue" d="M110.365,-64C118.756,-64 127.499,-64 136.109,-64"/>
<polygon fill="midnightblue" stroke="midnightblue" points="136.127,-67.5001 146.127,-64 136.127,-60.5001 136.127,-67.5001"/>
</g>
<!-- Node4 -->
<g id="node4" class="node"><title>Node4</title>
<g id="a_node4"><a xlink:href="class_kuszk_a_p_i_1_1_containers_1_1_string.html#a264c6116e5592a4464828feb720c8f3a" target="_top" xlink:title="KuszkAPI::Containers\l::String::Str">
<polygon fill="white" stroke="black" points="146.5,-0 146.5,-30 259.5,-30 259.5,-0 146.5,-0"/>
<text text-anchor="start" x="154.5" y="-18" font-family="Helvetica,sans-Serif" font-size="10.00">KuszkAPI::Containers</text>
<text text-anchor="middle" x="203" y="-7" font-family="Helvetica,sans-Serif" font-size="10.00">::String::Str</text>
</a>
</g>
</g>
<!-- Node1&#45;&gt;Node4 -->
<g id="edge3" class="edge"><title>Node1&#45;&gt;Node4</title>
<path fill="none" stroke="midnightblue" d="M100.996,-48.8986C115.636,-43.9853 132.046,-38.4776 147.314,-33.3534"/>
<polygon fill="midnightblue" stroke="midnightblue" points="148.786,-36.5515 157.152,-30.0516 146.558,-29.9153 148.786,-36.5515"/>
</g>
</g>
</svg>
