<?xml version="1.0" encoding="UTF-8" standalone="no"?>
<!DOCTYPE svg PUBLIC "-//W3C//DTD SVG 1.1//EN"
 "http://www.w3.org/Graphics/SVG/1.1/DTD/svg11.dtd">
<!-- Generated by graphviz version 2.36.0 (20140111.2315)
 -->
<!-- Title: KuszkAPI::Core::Ini Pages: 1 -->
<svg width="288pt" height="198pt"
 viewBox="0.00 0.00 288.00 198.00" xmlns="http://www.w3.org/2000/svg" xmlns:xlink="http://www.w3.org/1999/xlink">
<g id="graph0" class="graph" transform="scale(1 1) rotate(0) translate(4 194)">
<title>KuszkAPI::Core::Ini</title>
<polygon fill="white" stroke="none" points="-4,4 -4,-194 284,-194 284,4 -4,4"/>
<!-- Node1 -->
<g id="node1" class="node"><title>Node1</title>
<polygon fill="#bfbfbf" stroke="black" points="81,-0.5 81,-19.5 183,-19.5 183,-0.5 81,-0.5"/>
<text text-anchor="middle" x="132" y="-7.5" font-family="Helvetica,sans-Serif" font-size="10.00">KuszkAPI::Core::Ini</text>
</g>
<!-- Node2 -->
<g id="node2" class="node"><title>Node2</title>
<g id="a_node2"><a xlink:href="class_kuszk_a_p_i_1_1_containers_1_1_string.html" target="_top" xlink:title="KuszkAPI::Containers\l::String">
<polygon fill="white" stroke="black" points="75.5,-69 75.5,-99 188.5,-99 188.5,-69 75.5,-69"/>
<text text-anchor="start" x="83.5" y="-87" font-family="Helvetica,sans-Serif" font-size="10.00">KuszkAPI::Containers</text>
<text text-anchor="middle" x="132" y="-76" font-family="Helvetica,sans-Serif" font-size="10.00">::String</text>
</a>
</g>
</g>
<!-- Node2&#45;&gt;Node1 -->
<g id="edge1" class="edge"><title>Node2&#45;&gt;Node1</title>
<path fill="none" stroke="#9a32cd" stroke-dasharray="5,2" d="M132,-58.6883C132,-45.2526 132,-29.3805 132,-19.7589"/>
<polygon fill="#9a32cd" stroke="#9a32cd" points="128.5,-58.7751 132,-68.7751 135.5,-58.7752 128.5,-58.7751"/>
<text text-anchor="middle" x="144.5" y="-41.5" font-family="Helvetica,sans-Serif" font-size="10.00"> sFile</text>
</g>
<!-- Node3 -->
<g id="node3" class="node"><title>Node3</title>
<polygon fill="white" stroke="#bfbfbf" points="-0.5,-170.5 -0.5,-189.5 48.5,-189.5 48.5,-170.5 -0.5,-170.5"/>
<text text-anchor="middle" x="24" y="-177.5" font-family="Helvetica,sans-Serif" font-size="10.00">TCHAR</text>
</g>
<!-- Node3&#45;&gt;Node2 -->
<g id="edge2" class="edge"><title>Node3&#45;&gt;Node2</title>
<path fill="none" stroke="#9a32cd" stroke-dasharray="5,2" d="M27.915,-160.343C31.5837,-147.005 38.3086,-129.456 50,-118 58.2205,-109.945 68.6624,-103.777 79.3185,-99.0821"/>
<polygon fill="#9a32cd" stroke="#9a32cd" points="24.4482,-159.79 25.5102,-170.332 31.2538,-161.429 24.4482,-159.79"/>
<text text-anchor="middle" x="73" y="-132.5" font-family="Helvetica,sans-Serif" font-size="10.00"> cAbstract</text>
</g>
<!-- Node4 -->
<g id="node4" class="node"><title>Node4</title>
<polygon fill="white" stroke="#bfbfbf" points="67,-170.5 67,-189.5 123,-189.5 123,-170.5 67,-170.5"/>
<text text-anchor="middle" x="95" y="-177.5" font-family="Helvetica,sans-Serif" font-size="10.00">TCHAR *</text>
</g>
<!-- Node4&#45;&gt;Node2 -->
<g id="edge3" class="edge"><title>Node4&#45;&gt;Node2</title>
<path fill="none" stroke="#9a32cd" stroke-dasharray="5,2" d="M97.8455,-160.381C100.15,-148.011 104.014,-131.604 110,-118 112.884,-111.446 117.056,-104.77 120.993,-99.1542"/>
<polygon fill="#9a32cd" stroke="#9a32cd" points="94.3659,-159.967 96.1514,-170.411 101.268,-161.133 94.3659,-159.967"/>
<text text-anchor="middle" x="128.5" y="-138" font-family="Helvetica,sans-Serif" font-size="10.00"> pcBufor</text>
<text text-anchor="middle" x="128.5" y="-127" font-family="Helvetica,sans-Serif" font-size="10.00">pcData</text>
</g>
<!-- Node5 -->
<g id="node5" class="node"><title>Node5</title>
<g id="a_node5"><a xlink:href="namespace_3global_scope_4.html#classunsigned" target="_top" xlink:title="unsigned">
<polygon fill="white" stroke="black" points="141,-170.5 141,-189.5 197,-189.5 197,-170.5 141,-170.5"/>
<text text-anchor="middle" x="169" y="-177.5" font-family="Helvetica,sans-Serif" font-size="10.00">unsigned</text>
</a>
</g>
</g>
<!-- Node5&#45;&gt;Node2 -->
<g id="edge4" class="edge"><title>Node5&#45;&gt;Node2</title>
<path fill="none" stroke="#9a32cd" stroke-dasharray="5,2" d="M162.845,-160.738C158.629,-148.542 152.775,-132.195 147,-118 144.439,-111.704 141.369,-104.847 138.675,-99.0232"/>
<polygon fill="#9a32cd" stroke="#9a32cd" points="159.542,-161.896 166.085,-170.229 166.166,-159.634 159.542,-161.896"/>
<text text-anchor="middle" x="183" y="-143.5" font-family="Helvetica,sans-Serif" font-size="10.00"> uFormat</text>
<text text-anchor="middle" x="183" y="-132.5" font-family="Helvetica,sans-Serif" font-size="10.00">uDataSize</text>
<text text-anchor="middle" x="183" y="-121.5" font-family="Helvetica,sans-Serif" font-size="10.00">uIlosc</text>
</g>
<!-- Node6 -->
<g id="node6" class="node"><title>Node6</title>
<polygon fill="white" stroke="#bfbfbf" points="215.5,-170.5 215.5,-189.5 272.5,-189.5 272.5,-170.5 215.5,-170.5"/>
<text text-anchor="middle" x="244" y="-177.5" font-family="Helvetica,sans-Serif" font-size="10.00">DCHAR *</text>
</g>
<!-- Node6&#45;&gt;Node2 -->
<g id="edge5" class="edge"><title>Node6&#45;&gt;Node2</title>
<path fill="none" stroke="#9a32cd" stroke-dasharray="5,2" d="M237.588,-160.775C232.079,-147.406 222.96,-129.628 210,-118 201.135,-110.046 190.071,-103.822 179.087,-99.0291"/>
<polygon fill="#9a32cd" stroke="#9a32cd" points="234.405,-162.252 241.237,-170.35 240.946,-159.759 234.405,-162.252"/>
<text text-anchor="middle" x="257" y="-132.5" font-family="Helvetica,sans-Serif" font-size="10.00"> pcConvert</text>
</g>
</g>
</svg>
