<?xml version="1.0" encoding="UTF-8" standalone="no"?>
<!DOCTYPE svg PUBLIC "-//W3C//DTD SVG 1.1//EN"
 "http://www.w3.org/Graphics/SVG/1.1/DTD/svg11.dtd">
<!-- Generated by graphviz version 2.36.0 (20140111.2315)
 -->
<!-- Title: KuszkAPI::Containers::Strings::Add Pages: 1 -->
<svg width="272pt" height="185pt"
 viewBox="0.00 0.00 272.00 185.00" xmlns="http://www.w3.org/2000/svg" xmlns:xlink="http://www.w3.org/1999/xlink">
<g id="graph0" class="graph" transform="scale(1 1) rotate(0) translate(4 181)">
<title>KuszkAPI::Containers::Strings::Add</title>
<polygon fill="white" stroke="none" points="-4,4 -4,-181 268,-181 268,4 -4,4"/>
<!-- Node1 -->
<g id="node1" class="node"><title>Node1</title>
<polygon fill="#bfbfbf" stroke="black" points="0.5,-73 0.5,-103 113.5,-103 113.5,-73 0.5,-73"/>
<text text-anchor="start" x="8.5" y="-91" font-family="Helvetica,sans-Serif" font-size="10.00">KuszkAPI::Containers</text>
<text text-anchor="middle" x="57" y="-80" font-family="Helvetica,sans-Serif" font-size="10.00">::Strings::Add</text>
</g>
<!-- Node2 -->
<g id="node2" class="node"><title>Node2</title>
<g id="a_node2"><a xlink:href="class_kuszk_a_p_i_1_1_containers_1_1_string.html#afd694656c3c52b347d6b965e2f5afb6a" target="_top" xlink:title="KuszkAPI::Containers\l::String::Capacity">
<polygon fill="white" stroke="black" points="150.5,-147 150.5,-177 263.5,-177 263.5,-147 150.5,-147"/>
<text text-anchor="start" x="158.5" y="-165" font-family="Helvetica,sans-Serif" font-size="10.00">KuszkAPI::Containers</text>
<text text-anchor="middle" x="207" y="-154" font-family="Helvetica,sans-Serif" font-size="10.00">::String::Capacity</text>
</a>
</g>
</g>
<!-- Node1&#45;&gt;Node2 -->
<g id="edge1" class="edge"><title>Node1&#45;&gt;Node2</title>
<path fill="none" stroke="midnightblue" d="M85.1179,-103.082C103.306,-113.039 127.889,-126.192 150,-137 153.82,-138.867 157.811,-140.76 161.827,-142.626"/>
<polygon fill="midnightblue" stroke="midnightblue" points="160.624,-145.924 171.173,-146.903 163.537,-139.559 160.624,-145.924"/>
</g>
<!-- Node3 -->
<g id="node3" class="node"><title>Node3</title>
<g id="a_node3"><a xlink:href="class_kuszk_a_p_i_1_1_containers_1_1_string.html#a455584fed5c105b9d00ecaf985116d63" target="_top" xlink:title="KuszkAPI::Containers\l::String::Find">
<polygon fill="white" stroke="black" points="150.5,-98 150.5,-128 263.5,-128 263.5,-98 150.5,-98"/>
<text text-anchor="start" x="158.5" y="-116" font-family="Helvetica,sans-Serif" font-size="10.00">KuszkAPI::Containers</text>
<text text-anchor="middle" x="207" y="-105" font-family="Helvetica,sans-Serif" font-size="10.00">::String::Find</text>
</a>
</g>
</g>
<!-- Node1&#45;&gt;Node3 -->
<g id="edge2" class="edge"><title>Node1&#45;&gt;Node3</title>
<path fill="none" stroke="midnightblue" d="M113.531,-97.3802C122.232,-98.8499 131.296,-100.381 140.201,-101.885"/>
<polygon fill="midnightblue" stroke="midnightblue" points="139.715,-105.353 150.158,-103.567 140.881,-98.4504 139.715,-105.353"/>
</g>
<!-- Node4 -->
<g id="node4" class="node"><title>Node4</title>
<g id="a_node4"><a xlink:href="class_kuszk_a_p_i_1_1_containers_1_1_string.html#a8ca4879ad62f0f4521b7e13eaa711c2c" target="_top" xlink:title="KuszkAPI::Containers\l::String::GetData">
<polygon fill="white" stroke="black" points="150.5,-49 150.5,-79 263.5,-79 263.5,-49 150.5,-49"/>
<text text-anchor="start" x="158.5" y="-67" font-family="Helvetica,sans-Serif" font-size="10.00">KuszkAPI::Containers</text>
<text text-anchor="middle" x="207" y="-56" font-family="Helvetica,sans-Serif" font-size="10.00">::String::GetData</text>
</a>
</g>
</g>
<!-- Node1&#45;&gt;Node4 -->
<g id="edge3" class="edge"><title>Node1&#45;&gt;Node4</title>
<path fill="none" stroke="midnightblue" d="M113.531,-78.995C122.232,-77.5841 131.296,-76.1141 140.201,-74.6702"/>
<polygon fill="midnightblue" stroke="midnightblue" points="140.847,-78.1111 150.158,-73.0555 139.727,-71.2014 140.847,-78.1111"/>
</g>
<!-- Node5 -->
<g id="node5" class="node"><title>Node5</title>
<g id="a_node5"><a xlink:href="class_kuszk_a_p_i_1_1_containers_1_1_string.html#a34b2866bd4044c00ffafc482d5e44a54" target="_top" xlink:title="KuszkAPI::Containers\l::String::Part">
<polygon fill="white" stroke="black" points="150.5,-0 150.5,-30 263.5,-30 263.5,-0 150.5,-0"/>
<text text-anchor="start" x="158.5" y="-18" font-family="Helvetica,sans-Serif" font-size="10.00">KuszkAPI::Containers</text>
<text text-anchor="middle" x="207" y="-7" font-family="Helvetica,sans-Serif" font-size="10.00">::String::Part</text>
</a>
</g>
</g>
<!-- Node1&#45;&gt;Node5 -->
<g id="edge4" class="edge"><title>Node1&#45;&gt;Node5</title>
<path fill="none" stroke="midnightblue" d="M85.9603,-72.8462C104.079,-63.1675 128.267,-50.5087 150,-40 153.99,-38.0708 158.163,-36.108 162.354,-34.1735"/>
<polygon fill="midnightblue" stroke="midnightblue" points="163.845,-37.3402 171.493,-30.008 160.942,-30.9705 163.845,-37.3402"/>
</g>
</g>
</svg>
