<?xml version="1.0" encoding="UTF-8" standalone="no"?>
<!DOCTYPE svg PUBLIC "-//W3C//DTD SVG 1.1//EN"
 "http://www.w3.org/Graphics/SVG/1.1/DTD/svg11.dtd">
<!-- Generated by graphviz version 2.36.0 (20140111.2315)
 -->
<!-- Title: KuszkAPI::Core::Tray::Msg Pages: 1 -->
<svg width="294pt" height="87pt"
 viewBox="0.00 0.00 294.00 87.00" xmlns="http://www.w3.org/2000/svg" xmlns:xlink="http://www.w3.org/1999/xlink">
<g id="graph0" class="graph" transform="scale(1 1) rotate(0) translate(4 83)">
<title>KuszkAPI::Core::Tray::Msg</title>
<polygon fill="white" stroke="none" points="-4,4 -4,-83 290,-83 290,4 -4,4"/>
<!-- Node1 -->
<g id="node1" class="node"><title>Node1</title>
<polygon fill="#bfbfbf" stroke="black" points="0,-29.5 0,-48.5 136,-48.5 136,-29.5 0,-29.5"/>
<text text-anchor="middle" x="68" y="-36.5" font-family="Helvetica,sans-Serif" font-size="10.00">KuszkAPI::Core::Tray::Msg</text>
</g>
<!-- Node2 -->
<g id="node2" class="node"><title>Node2</title>
<g id="a_node2"><a xlink:href="class_kuszk_a_p_i_1_1_containers_1_1_string.html#afd694656c3c52b347d6b965e2f5afb6a" target="_top" xlink:title="KuszkAPI::Containers\l::String::Capacity">
<polygon fill="white" stroke="black" points="172.5,-49 172.5,-79 285.5,-79 285.5,-49 172.5,-49"/>
<text text-anchor="start" x="180.5" y="-67" font-family="Helvetica,sans-Serif" font-size="10.00">KuszkAPI::Containers</text>
<text text-anchor="middle" x="229" y="-56" font-family="Helvetica,sans-Serif" font-size="10.00">::String::Capacity</text>
</a>
</g>
</g>
<!-- Node1&#45;&gt;Node2 -->
<g id="edge1" class="edge"><title>Node1&#45;&gt;Node2</title>
<path fill="none" stroke="midnightblue" d="M129.565,-48.5227C140.206,-50.1959 151.327,-51.9445 162.105,-53.6391"/>
<polygon fill="midnightblue" stroke="midnightblue" points="161.883,-57.1472 172.306,-55.243 162.971,-50.2322 161.883,-57.1472"/>
</g>
<!-- Node3 -->
<g id="node3" class="node"><title>Node3</title>
<g id="a_node3"><a xlink:href="class_kuszk_a_p_i_1_1_containers_1_1_string.html#a264c6116e5592a4464828feb720c8f3a" target="_top" xlink:title="KuszkAPI::Containers\l::String::Str">
<polygon fill="white" stroke="black" points="172.5,-0 172.5,-30 285.5,-30 285.5,-0 172.5,-0"/>
<text text-anchor="start" x="180.5" y="-18" font-family="Helvetica,sans-Serif" font-size="10.00">KuszkAPI::Containers</text>
<text text-anchor="middle" x="229" y="-7" font-family="Helvetica,sans-Serif" font-size="10.00">::String::Str</text>
</a>
</g>
</g>
<!-- Node1&#45;&gt;Node3 -->
<g id="edge2" class="edge"><title>Node1&#45;&gt;Node3</title>
<path fill="none" stroke="midnightblue" d="M132.298,-29.4456C142.132,-27.9612 152.311,-26.4247 162.199,-24.9322"/>
<polygon fill="midnightblue" stroke="midnightblue" points="163.006,-28.3502 172.371,-23.3968 161.961,-21.4286 163.006,-28.3502"/>
</g>
</g>
</svg>
