<?xml version="1.0" encoding="UTF-8" standalone="no"?>
<!DOCTYPE svg PUBLIC "-//W3C//DTD SVG 1.1//EN"
 "http://www.w3.org/Graphics/SVG/1.1/DTD/svg11.dtd">
<!-- Generated by graphviz version 2.36.0 (20140111.2315)
 -->
<!-- Title: KuszkAPI::Forms::ListControl Pages: 1 -->
<svg width="466pt" height="196pt"
 viewBox="0.00 0.00 466.00 196.00" xmlns="http://www.w3.org/2000/svg" xmlns:xlink="http://www.w3.org/1999/xlink">
<g id="graph0" class="graph" transform="scale(1 1) rotate(0) translate(4 192)">
<title>KuszkAPI::Forms::ListControl</title>
<polygon fill="white" stroke="none" points="-4,4 -4,-192 462,-192 462,4 -4,4"/>
<!-- Node1 -->
<g id="node1" class="node"><title>Node1</title>
<polygon fill="#bfbfbf" stroke="black" points="160,-56.5 160,-75.5 306,-75.5 306,-56.5 160,-56.5"/>
<text text-anchor="middle" x="233" y="-63.5" font-family="Helvetica,sans-Serif" font-size="10.00">KuszkAPI::Forms::ListControl</text>
</g>
<!-- Node4 -->
<g id="node4" class="node"><title>Node4</title>
<g id="a_node4"><a xlink:href="class_kuszk_a_p_i_1_1_forms_1_1_combo_box.html" target="_top" xlink:title="KuszkAPI::Forms::ComboBox">
<polygon fill="white" stroke="black" points="0,-0.5 0,-19.5 148,-19.5 148,-0.5 0,-0.5"/>
<text text-anchor="middle" x="74" y="-7.5" font-family="Helvetica,sans-Serif" font-size="10.00">KuszkAPI::Forms::ComboBox</text>
</a>
</g>
</g>
<!-- Node1&#45;&gt;Node4 -->
<g id="edge3" class="edge"><title>Node1&#45;&gt;Node4</title>
<path fill="none" stroke="midnightblue" d="M198.173,-53.172C168.234,-43.0039 125.779,-28.5852 99.0762,-19.5164"/>
<polygon fill="midnightblue" stroke="midnightblue" points="197.212,-56.5417 207.806,-56.4435 199.463,-49.9136 197.212,-56.5417"/>
</g>
<!-- Node5 -->
<g id="node5" class="node"><title>Node5</title>
<g id="a_node5"><a xlink:href="class_kuszk_a_p_i_1_1_forms_1_1_list_box.html" target="_top" xlink:title="KuszkAPI::Forms::ListBox">
<polygon fill="white" stroke="black" points="166.5,-0.5 166.5,-19.5 299.5,-19.5 299.5,-0.5 166.5,-0.5"/>
<text text-anchor="middle" x="233" y="-7.5" font-family="Helvetica,sans-Serif" font-size="10.00">KuszkAPI::Forms::ListBox</text>
</a>
</g>
</g>
<!-- Node1&#45;&gt;Node5 -->
<g id="edge4" class="edge"><title>Node1&#45;&gt;Node5</title>
<path fill="none" stroke="midnightblue" d="M233,-45.8045C233,-36.9102 233,-26.7798 233,-19.7511"/>
<polygon fill="midnightblue" stroke="midnightblue" points="229.5,-46.083 233,-56.083 236.5,-46.083 229.5,-46.083"/>
</g>
<!-- Node6 -->
<g id="node6" class="node"><title>Node6</title>
<g id="a_node6"><a xlink:href="class_kuszk_a_p_i_1_1_forms_1_1_table_box.html" target="_top" xlink:title="KuszkAPI::Forms::TableBox">
<polygon fill="white" stroke="black" points="318,-0.5 318,-19.5 458,-19.5 458,-0.5 318,-0.5"/>
<text text-anchor="middle" x="388" y="-7.5" font-family="Helvetica,sans-Serif" font-size="10.00">KuszkAPI::Forms::TableBox</text>
</a>
</g>
</g>
<!-- Node1&#45;&gt;Node6 -->
<g id="edge5" class="edge"><title>Node1&#45;&gt;Node6</title>
<path fill="none" stroke="midnightblue" d="M267.332,-53.0392C296.497,-42.8786 337.637,-28.5457 363.555,-19.5164"/>
<polygon fill="midnightblue" stroke="midnightblue" points="265.852,-49.8484 257.56,-56.4435 268.155,-56.4587 265.852,-49.8484"/>
</g>
<!-- Node2 -->
<g id="node2" class="node"><title>Node2</title>
<g id="a_node2"><a xlink:href="class_kuszk_a_p_i_1_1_forms_1_1_control.html" target="_top" xlink:title="KuszkAPI::Forms::Control">
<polygon fill="white" stroke="black" points="167.5,-112.5 167.5,-131.5 298.5,-131.5 298.5,-112.5 167.5,-112.5"/>
<text text-anchor="middle" x="233" y="-119.5" font-family="Helvetica,sans-Serif" font-size="10.00">KuszkAPI::Forms::Control</text>
</a>
</g>
</g>
<!-- Node2&#45;&gt;Node1 -->
<g id="edge1" class="edge"><title>Node2&#45;&gt;Node1</title>
<path fill="none" stroke="midnightblue" d="M233,-101.805C233,-92.9102 233,-82.7798 233,-75.7511"/>
<polygon fill="midnightblue" stroke="midnightblue" points="229.5,-102.083 233,-112.083 236.5,-102.083 229.5,-102.083"/>
</g>
<!-- Node3 -->
<g id="node3" class="node"><title>Node3</title>
<g id="a_node3"><a xlink:href="class_kuszk_a_p_i_1_1_forms_1_1_window.html" target="_top" xlink:title="KuszkAPI::Forms::Window">
<polygon fill="white" stroke="black" points="166,-168.5 166,-187.5 300,-187.5 300,-168.5 166,-168.5"/>
<text text-anchor="middle" x="233" y="-175.5" font-family="Helvetica,sans-Serif" font-size="10.00">KuszkAPI::Forms::Window</text>
</a>
</g>
</g>
<!-- Node3&#45;&gt;Node2 -->
<g id="edge2" class="edge"><title>Node3&#45;&gt;Node2</title>
<path fill="none" stroke="midnightblue" d="M233,-157.805C233,-148.91 233,-138.78 233,-131.751"/>
<polygon fill="midnightblue" stroke="midnightblue" points="229.5,-158.083 233,-168.083 236.5,-158.083 229.5,-158.083"/>
</g>
</g>
</svg>
