<?xml version="1.0" encoding="UTF-8" standalone="no"?>
<!DOCTYPE svg PUBLIC "-//W3C//DTD SVG 1.1//EN"
 "http://www.w3.org/Graphics/SVG/1.1/DTD/svg11.dtd">
<!-- Generated by graphviz version 2.36.0 (20140111.2315)
 -->
<!-- Title: KuszkAPI::Containers::Vector::GetData Pages: 1 -->
<svg width="298pt" height="283pt"
 viewBox="0.00 0.00 298.00 283.00" xmlns="http://www.w3.org/2000/svg" xmlns:xlink="http://www.w3.org/1999/xlink">
<g id="graph0" class="graph" transform="scale(1 1) rotate(0) translate(4 279)">
<title>KuszkAPI::Containers::Vector::GetData</title>
<polygon fill="white" stroke="none" points="-4,4 -4,-279 294,-279 294,4 -4,4"/>
<!-- Node1 -->
<g id="node1" class="node"><title>Node1</title>
<polygon fill="#bfbfbf" stroke="black" points="0.5,-122 0.5,-152 113.5,-152 113.5,-122 0.5,-122"/>
<text text-anchor="start" x="8.5" y="-140" font-family="Helvetica,sans-Serif" font-size="10.00">KuszkAPI::Containers</text>
<text text-anchor="middle" x="57" y="-129" font-family="Helvetica,sans-Serif" font-size="10.00">::Vector::GetData</text>
</g>
<!-- Node2 -->
<g id="node2" class="node"><title>Node2</title>
<g id="a_node2"><a xlink:href="class_kuszk_a_p_i_1_1_containers_1_1_box.html#a118876f262c0fc0abf42b0dc567b4f28" target="_top" xlink:title="Konstruktor kopiujący. ">
<polygon fill="white" stroke="black" points="163.5,-245 163.5,-275 276.5,-275 276.5,-245 163.5,-245"/>
<text text-anchor="start" x="171.5" y="-263" font-family="Helvetica,sans-Serif" font-size="10.00">KuszkAPI::Containers</text>
<text text-anchor="middle" x="220" y="-252" font-family="Helvetica,sans-Serif" font-size="10.00">::Box::Box</text>
</a>
</g>
</g>
<!-- Node1&#45;&gt;Node2 -->
<g id="edge1" class="edge"><title>Node1&#45;&gt;Node2</title>
<path fill="none" stroke="midnightblue" d="M74.5781,-160.165C91.3694,-182.136 119.2,-214.72 150,-235 155.746,-238.784 162.139,-242.084 168.649,-244.935"/>
<polygon fill="midnightblue" stroke="midnightblue" points="77.2859,-157.941 68.4937,-152.03 71.6804,-162.134 77.2859,-157.941"/>
</g>
<!-- Node3 -->
<g id="node3" class="node"><title>Node3</title>
<g id="a_node3"><a xlink:href="class_kuszk_a_p_i_1_1_containers_1_1_list.html#afb58e413e32f5f3d2bd2314594610606" target="_top" xlink:title="Konstruktor konwertujący. ">
<polygon fill="white" stroke="black" points="163.5,-196 163.5,-226 276.5,-226 276.5,-196 163.5,-196"/>
<text text-anchor="start" x="171.5" y="-214" font-family="Helvetica,sans-Serif" font-size="10.00">KuszkAPI::Containers</text>
<text text-anchor="middle" x="220" y="-203" font-family="Helvetica,sans-Serif" font-size="10.00">::List::List</text>
</a>
</g>
</g>
<!-- Node1&#45;&gt;Node3 -->
<g id="edge2" class="edge"><title>Node1&#45;&gt;Node3</title>
<path fill="none" stroke="midnightblue" d="M93.05,-157.176C109.976,-166.527 130.747,-177.437 150,-186 157.8,-189.469 166.243,-192.835 174.459,-195.914"/>
<polygon fill="midnightblue" stroke="midnightblue" points="94.5141,-153.985 84.0765,-152.166 91.1018,-160.097 94.5141,-153.985"/>
</g>
<!-- Node4 -->
<g id="node4" class="node"><title>Node4</title>
<g id="a_node4"><a xlink:href="class_kuszk_a_p_i_1_1_containers_1_1_vector.html#a858e15795a4bdccfc523011e952c507b" target="_top" xlink:title="KuszkAPI::Containers\l::Vector::operator!=">
<polygon fill="white" stroke="black" points="163.5,-147 163.5,-177 276.5,-177 276.5,-147 163.5,-147"/>
<text text-anchor="start" x="171.5" y="-165" font-family="Helvetica,sans-Serif" font-size="10.00">KuszkAPI::Containers</text>
<text text-anchor="middle" x="220" y="-154" font-family="Helvetica,sans-Serif" font-size="10.00">::Vector::operator!=</text>
</a>
</g>
</g>
<!-- Node1&#45;&gt;Node4 -->
<g id="edge3" class="edge"><title>Node1&#45;&gt;Node4</title>
<path fill="none" stroke="midnightblue" d="M123.752,-147.21C136.86,-149.245 150.508,-151.365 163.241,-153.342"/>
<polygon fill="midnightblue" stroke="midnightblue" points="124.277,-143.75 113.858,-145.674 123.203,-150.667 124.277,-143.75"/>
</g>
<!-- Node5 -->
<g id="node5" class="node"><title>Node5</title>
<g id="a_node5"><a xlink:href="class_kuszk_a_p_i_1_1_containers_1_1_box.html#ad3f8ca6a2685af7614f4a778de61e57b" target="_top" xlink:title="Kopiuje wybraną organizacje tworząc bierzącą organizajce na jej podstawie. ">
<polygon fill="white" stroke="black" points="163.5,-98 163.5,-128 276.5,-128 276.5,-98 163.5,-98"/>
<text text-anchor="start" x="171.5" y="-116" font-family="Helvetica,sans-Serif" font-size="10.00">KuszkAPI::Containers</text>
<text text-anchor="middle" x="220" y="-105" font-family="Helvetica,sans-Serif" font-size="10.00">::Box::operator=</text>
</a>
</g>
</g>
<!-- Node1&#45;&gt;Node5 -->
<g id="edge4" class="edge"><title>Node1&#45;&gt;Node5</title>
<path fill="none" stroke="midnightblue" d="M123.752,-127.198C136.86,-125.244 150.508,-123.21 163.241,-121.312"/>
<polygon fill="midnightblue" stroke="midnightblue" points="123.233,-123.737 113.858,-128.673 124.265,-130.661 123.233,-123.737"/>
</g>
<!-- Node6 -->
<g id="node6" class="node"><title>Node6</title>
<g id="a_node6"><a xlink:href="class_kuszk_a_p_i_1_1_containers_1_1_vector.html#a305f82231358f8394e98ce385e58f17f" target="_top" xlink:title="KuszkAPI::Containers\l::Vector::operator==">
<polygon fill="white" stroke="black" points="163.5,-49 163.5,-79 276.5,-79 276.5,-49 163.5,-49"/>
<text text-anchor="start" x="171.5" y="-67" font-family="Helvetica,sans-Serif" font-size="10.00">KuszkAPI::Containers</text>
<text text-anchor="middle" x="220" y="-56" font-family="Helvetica,sans-Serif" font-size="10.00">::Vector::operator==</text>
</a>
</g>
</g>
<!-- Node1&#45;&gt;Node6 -->
<g id="edge5" class="edge"><title>Node1&#45;&gt;Node6</title>
<path fill="none" stroke="midnightblue" d="M93.4634,-117.086C110.331,-107.981 130.937,-97.382 150,-89 157.931,-85.5127 166.517,-82.1141 174.851,-79.0032"/>
<polygon fill="midnightblue" stroke="midnightblue" points="91.615,-114.107 84.5104,-121.967 94.9657,-120.253 91.615,-114.107"/>
</g>
<!-- Node7 -->
<g id="node7" class="node"><title>Node7</title>
<g id="a_node7"><a xlink:href="class_kuszk_a_p_i_1_1_forms_1_1_table_box.html#acd578a3280ed91936761e9e64d47cd3d" target="_top" xlink:title="KuszkAPI::Forms::TableBox\l::SetHeader">
<polygon fill="white" stroke="black" points="150,-0 150,-30 290,-30 290,-0 150,-0"/>
<text text-anchor="start" x="158" y="-18" font-family="Helvetica,sans-Serif" font-size="10.00">KuszkAPI::Forms::TableBox</text>
<text text-anchor="middle" x="220" y="-7" font-family="Helvetica,sans-Serif" font-size="10.00">::SetHeader</text>
</a>
</g>
</g>
<!-- Node1&#45;&gt;Node7 -->
<g id="edge6" class="edge"><title>Node1&#45;&gt;Node7</title>
<path fill="none" stroke="midnightblue" d="M74.9117,-113.715C91.7689,-91.9793 119.487,-59.9794 150,-40 155.756,-36.231 162.154,-32.9397 168.667,-30.0923"/>
<polygon fill="midnightblue" stroke="midnightblue" points="72.051,-111.694 68.7917,-121.776 77.6262,-115.927 72.051,-111.694"/>
</g>
</g>
</svg>
