<?xml version="1.0" encoding="UTF-8" standalone="no"?>
<!DOCTYPE svg PUBLIC "-//W3C//DTD SVG 1.1//EN"
 "http://www.w3.org/Graphics/SVG/1.1/DTD/svg11.dtd">
<!-- Generated by graphviz version 2.36.0 (20140111.2315)
 -->
<!-- Title: KuszkAPI::Containers::Container::Capacity Pages: 1 -->
<svg width="272pt" height="185pt"
 viewBox="0.00 0.00 272.00 185.00" xmlns="http://www.w3.org/2000/svg" xmlns:xlink="http://www.w3.org/1999/xlink">
<g id="graph0" class="graph" transform="scale(1 1) rotate(0) translate(4 181)">
<title>KuszkAPI::Containers::Container::Capacity</title>
<polygon fill="white" stroke="none" points="-4,4 -4,-181 268,-181 268,4 -4,4"/>
<!-- Node1 -->
<g id="node1" class="node"><title>Node1</title>
<polygon fill="#bfbfbf" stroke="black" points="0.5,-73 0.5,-103 113.5,-103 113.5,-73 0.5,-73"/>
<text text-anchor="start" x="8.5" y="-91" font-family="Helvetica,sans-Serif" font-size="10.00">KuszkAPI::Containers</text>
<text text-anchor="middle" x="57" y="-80" font-family="Helvetica,sans-Serif" font-size="10.00">::Container::Capacity</text>
</g>
<!-- Node2 -->
<g id="node2" class="node"><title>Node2</title>
<g id="a_node2"><a xlink:href="class_kuszk_a_p_i_1_1_containers_1_1_array.html#a16b7f7bc610f0e27a854a17dc89077c3" target="_top" xlink:title="Konstruktor konwertujący. ">
<polygon fill="white" stroke="black" points="150.5,-147 150.5,-177 263.5,-177 263.5,-147 150.5,-147"/>
<text text-anchor="start" x="158.5" y="-165" font-family="Helvetica,sans-Serif" font-size="10.00">KuszkAPI::Containers</text>
<text text-anchor="middle" x="207" y="-154" font-family="Helvetica,sans-Serif" font-size="10.00">::Array::Array</text>
</a>
</g>
</g>
<!-- Node1&#45;&gt;Node2 -->
<g id="edge1" class="edge"><title>Node1&#45;&gt;Node2</title>
<path fill="none" stroke="midnightblue" d="M94.0781,-107.962C110.928,-117.092 131.344,-127.881 150,-137 156.792,-140.32 164.123,-143.721 171.173,-146.903"/>
<polygon fill="midnightblue" stroke="midnightblue" points="95.5739,-104.791 85.1179,-103.082 92.2257,-110.939 95.5739,-104.791"/>
</g>
<!-- Node3 -->
<g id="node3" class="node"><title>Node3</title>
<g id="a_node3"><a xlink:href="class_kuszk_a_p_i_1_1_containers_1_1_list.html#afb58e413e32f5f3d2bd2314594610606" target="_top" xlink:title="Konstruktor konwertujący. ">
<polygon fill="white" stroke="black" points="150.5,-98 150.5,-128 263.5,-128 263.5,-98 150.5,-98"/>
<text text-anchor="start" x="158.5" y="-116" font-family="Helvetica,sans-Serif" font-size="10.00">KuszkAPI::Containers</text>
<text text-anchor="middle" x="207" y="-105" font-family="Helvetica,sans-Serif" font-size="10.00">::List::List</text>
</a>
</g>
</g>
<!-- Node1&#45;&gt;Node3 -->
<g id="edge2" class="edge"><title>Node1&#45;&gt;Node3</title>
<path fill="none" stroke="midnightblue" d="M123.481,-99.061C132.381,-100.564 141.449,-102.096 150.158,-103.567"/>
<polygon fill="midnightblue" stroke="midnightblue" points="123.974,-95.5948 113.531,-97.3802 122.808,-102.497 123.974,-95.5948"/>
</g>
<!-- Node4 -->
<g id="node4" class="node"><title>Node4</title>
<g id="a_node4"><a xlink:href="class_kuszk_a_p_i_1_1_sockets_1_1_client.html#a965d89fe855d7d7bff0b6848f71a8530" target="_top" xlink:title="KuszkAPI::Sockets::\lClient::Send">
<polygon fill="white" stroke="black" points="153,-49 153,-79 261,-79 261,-49 153,-49"/>
<text text-anchor="start" x="161" y="-67" font-family="Helvetica,sans-Serif" font-size="10.00">KuszkAPI::Sockets::</text>
<text text-anchor="middle" x="207" y="-56" font-family="Helvetica,sans-Serif" font-size="10.00">Client::Send</text>
</a>
</g>
</g>
<!-- Node1&#45;&gt;Node4 -->
<g id="edge3" class="edge"><title>Node1&#45;&gt;Node4</title>
<path fill="none" stroke="midnightblue" d="M123.556,-77.3693C133.271,-75.7938 143.184,-74.1864 152.611,-72.6577"/>
<polygon fill="midnightblue" stroke="midnightblue" points="122.842,-73.9393 113.531,-78.995 123.962,-80.8491 122.842,-73.9393"/>
</g>
<!-- Node5 -->
<g id="node5" class="node"><title>Node5</title>
<g id="a_node5"><a xlink:href="class_kuszk_a_p_i_1_1_containers_1_1_vector.html#adee65b9538910d78341431385e267cc2" target="_top" xlink:title="KuszkAPI::Containers\l::Vector::Vector">
<polygon fill="white" stroke="black" points="150.5,-0 150.5,-30 263.5,-30 263.5,-0 150.5,-0"/>
<text text-anchor="start" x="158.5" y="-18" font-family="Helvetica,sans-Serif" font-size="10.00">KuszkAPI::Containers</text>
<text text-anchor="middle" x="207" y="-7" font-family="Helvetica,sans-Serif" font-size="10.00">::Vector::Vector</text>
</a>
</g>
</g>
<!-- Node1&#45;&gt;Node5 -->
<g id="edge4" class="edge"><title>Node1&#45;&gt;Node5</title>
<path fill="none" stroke="midnightblue" d="M94.8653,-68.1106C111.577,-59.2641 131.662,-48.8667 150,-40 156.901,-36.663 164.35,-33.2255 171.493,-30.008"/>
<polygon fill="midnightblue" stroke="midnightblue" points="93.1461,-65.0607 85.9603,-72.8462 96.4328,-71.2411 93.1461,-65.0607"/>
</g>
</g>
</svg>
