<?xml version="1.0" encoding="UTF-8" standalone="no"?>
<!DOCTYPE svg PUBLIC "-//W3C//DTD SVG 1.1//EN"
 "http://www.w3.org/Graphics/SVG/1.1/DTD/svg11.dtd">
<!-- Generated by graphviz version 2.36.0 (20140111.2315)
 -->
<!-- Title: KuszkAPI::Containers::List&lt; tnData &gt; Pages: 1 -->
<svg width="456pt" height="162pt"
 viewBox="0.00 0.00 456.00 162.00" xmlns="http://www.w3.org/2000/svg" xmlns:xlink="http://www.w3.org/1999/xlink">
<g id="graph0" class="graph" transform="scale(1 1) rotate(0) translate(4 158)">
<title>KuszkAPI::Containers::List&lt; tnData &gt;</title>
<polygon fill="white" stroke="none" points="-4,4 -4,-158 452,-158 452,4 -4,4"/>
<!-- Node1 -->
<g id="node1" class="node"><title>Node1</title>
<polygon fill="#bfbfbf" stroke="black" points="334.5,-73 334.5,-103 447.5,-103 447.5,-73 334.5,-73"/>
<text text-anchor="start" x="342.5" y="-91" font-family="Helvetica,sans-Serif" font-size="10.00">KuszkAPI::Containers</text>
<text text-anchor="middle" x="391" y="-80" font-family="Helvetica,sans-Serif" font-size="10.00">::List&lt; tnData &gt;</text>
</g>
<!-- Node2 -->
<g id="node2" class="node"><title>Node2</title>
<g id="a_node2"><a xlink:href="class_kuszk_a_p_i_1_1_containers_1_1_container.html" target="_top" xlink:title="Implementacja bazy dla modułu kontenerów. ">
<polygon fill="white" stroke="black" points="132.5,-117 132.5,-147 245.5,-147 245.5,-117 132.5,-117"/>
<text text-anchor="start" x="140.5" y="-135" font-family="Helvetica,sans-Serif" font-size="10.00">KuszkAPI::Containers</text>
<text text-anchor="middle" x="189" y="-124" font-family="Helvetica,sans-Serif" font-size="10.00">::Container</text>
</a>
</g>
</g>
<!-- Node2&#45;&gt;Node1 -->
<g id="edge1" class="edge"><title>Node2&#45;&gt;Node1</title>
<path fill="none" stroke="midnightblue" d="M255.637,-117.56C281.057,-111.968 309.848,-105.633 334.241,-100.267"/>
<polygon fill="midnightblue" stroke="midnightblue" points="254.726,-114.177 245.711,-119.744 256.23,-121.013 254.726,-114.177"/>
</g>
<!-- Node3 -->
<g id="node3" class="node"><title>Node3</title>
<g id="a_node3"><a xlink:href="namespace_3global_scope_4.html#classunsigned" target="_top" xlink:title="unsigned">
<polygon fill="white" stroke="black" points="0,-122.5 0,-141.5 56,-141.5 56,-122.5 0,-122.5"/>
<text text-anchor="middle" x="28" y="-129.5" font-family="Helvetica,sans-Serif" font-size="10.00">unsigned</text>
</a>
</g>
</g>
<!-- Node3&#45;&gt;Node2 -->
<g id="edge2" class="edge"><title>Node3&#45;&gt;Node2</title>
<path fill="none" stroke="#9a32cd" stroke-dasharray="5,2" d="M66.4236,-132C86.0859,-132 110.572,-132 132.406,-132"/>
<polygon fill="#9a32cd" stroke="#9a32cd" points="66.3331,-128.5 56.3331,-132 66.333,-135.5 66.3331,-128.5"/>
<text text-anchor="middle" x="90" y="-146" font-family="Helvetica,sans-Serif" font-size="10.00"> uIlosc</text>
<text text-anchor="middle" x="90" y="-135" font-family="Helvetica,sans-Serif" font-size="10.00">uMode</text>
</g>
<!-- Node4 -->
<g id="node4" class="node"><title>Node4</title>
<polygon fill="white" stroke="#bfbfbf" points="166.5,-78.5 166.5,-97.5 211.5,-97.5 211.5,-78.5 166.5,-78.5"/>
<text text-anchor="middle" x="189" y="-85.5" font-family="Helvetica,sans-Serif" font-size="10.00">tnData</text>
</g>
<!-- Node4&#45;&gt;Node1 -->
<g id="edge3" class="edge"><title>Node4&#45;&gt;Node1</title>
<path fill="none" stroke="#9a32cd" stroke-dasharray="5,2" d="M222.151,-88C252.334,-88 298.123,-88 334.256,-88"/>
<polygon fill="#9a32cd" stroke="#9a32cd" points="221.784,-84.5001 211.784,-88 221.784,-91.5001 221.784,-84.5001"/>
<text text-anchor="middle" x="294" y="-91" font-family="Helvetica,sans-Serif" font-size="10.00"> tAbstract</text>
</g>
<!-- Node5 -->
<g id="node5" class="node"><title>Node5</title>
<g id="a_node5"><a xlink:href="class_kuszk_a_p_i_1_1_containers_1_1_list.html#struct_kuszk_a_p_i_1_1_containers_1_1_list_1_1_item_data" target="_top" xlink:title="Struktura przechowująca wskaźnik na element listy oraz wskaźnik na kolejny obiekt. ">
<polygon fill="white" stroke="black" points="124,-0 124,-30 254,-30 254,-0 124,-0"/>
<text text-anchor="start" x="132" y="-18" font-family="Helvetica,sans-Serif" font-size="10.00">KuszkAPI::Containers</text>
<text text-anchor="middle" x="189" y="-7" font-family="Helvetica,sans-Serif" font-size="10.00">::List&lt; tnData &gt;::ItemData</text>
</a>
</g>
</g>
<!-- Node5&#45;&gt;Node1 -->
<g id="edge4" class="edge"><title>Node5&#45;&gt;Node1</title>
<path fill="none" stroke="#9a32cd" stroke-dasharray="5,2" d="M241.015,-33.6206C274.372,-45.7957 317.385,-61.4956 348.613,-72.8937"/>
<polygon fill="#9a32cd" stroke="#9a32cd" points="242.034,-30.2666 231.44,-30.1256 239.634,-36.8423 242.034,-30.2666"/>
<text text-anchor="middle" x="294" y="-75" font-family="Helvetica,sans-Serif" font-size="10.00"> ptLast</text>
<text text-anchor="middle" x="294" y="-64" font-family="Helvetica,sans-Serif" font-size="10.00">ptBegin</text>
</g>
<!-- Node5&#45;&gt;Node5 -->
<g id="edge5" class="edge"><title>Node5&#45;&gt;Node5</title>
<path fill="none" stroke="#9a32cd" stroke-dasharray="5,2" d="M171.846,-40.5975C174.19,-44.9704 179.908,-48 189,-48 204.313,-48 210.055,-39.4063 206.227,-30.2754"/>
<polygon fill="#9a32cd" stroke="#9a32cd" points="175.344,-40.2504 171.773,-30.2754 168.344,-40.2999 175.344,-40.2504"/>
<text text-anchor="middle" x="189" y="-51" font-family="Helvetica,sans-Serif" font-size="10.00"> ptNext</text>
</g>
<!-- Node6 -->
<g id="node6" class="node"><title>Node6</title>
<polygon fill="white" stroke="#bfbfbf" points="2,-5.5 2,-24.5 54,-24.5 54,-5.5 2,-5.5"/>
<text text-anchor="middle" x="28" y="-12.5" font-family="Helvetica,sans-Serif" font-size="10.00">tnData *</text>
</g>
<!-- Node6&#45;&gt;Node5 -->
<g id="edge6" class="edge"><title>Node6&#45;&gt;Node5</title>
<path fill="none" stroke="#9a32cd" stroke-dasharray="5,2" d="M64.4904,-15C81.966,-15 103.584,-15 123.825,-15"/>
<polygon fill="#9a32cd" stroke="#9a32cd" points="64.1941,-11.5001 54.194,-15 64.194,-18.5001 64.1941,-11.5001"/>
<text text-anchor="middle" x="90" y="-18" font-family="Helvetica,sans-Serif" font-size="10.00"> ptData</text>
</g>
</g>
</svg>
