<?xml version="1.0" encoding="UTF-8" standalone="no"?>
<!DOCTYPE svg PUBLIC "-//W3C//DTD SVG 1.1//EN"
 "http://www.w3.org/Graphics/SVG/1.1/DTD/svg11.dtd">
<!-- Generated by graphviz version 2.36.0 (20140111.2315)
 -->
<!-- Title: KuszkAPI::Containers::List::GetData Pages: 1 -->
<svg width="272pt" height="381pt"
 viewBox="0.00 0.00 272.00 381.00" xmlns="http://www.w3.org/2000/svg" xmlns:xlink="http://www.w3.org/1999/xlink">
<g id="graph0" class="graph" transform="scale(1 1) rotate(0) translate(4 377)">
<title>KuszkAPI::Containers::List::GetData</title>
<polygon fill="white" stroke="none" points="-4,4 -4,-377 268,-377 268,4 -4,4"/>
<!-- Node1 -->
<g id="node1" class="node"><title>Node1</title>
<polygon fill="#bfbfbf" stroke="black" points="0.5,-171 0.5,-201 113.5,-201 113.5,-171 0.5,-171"/>
<text text-anchor="start" x="8.5" y="-189" font-family="Helvetica,sans-Serif" font-size="10.00">KuszkAPI::Containers</text>
<text text-anchor="middle" x="57" y="-178" font-family="Helvetica,sans-Serif" font-size="10.00">::List::GetData</text>
</g>
<!-- Node2 -->
<g id="node2" class="node"><title>Node2</title>
<g id="a_node2"><a xlink:href="class_kuszk_a_p_i_1_1_containers_1_1_array.html#af0eb92f410085576205a8246b1bf6525" target="_top" xlink:title="Konstruktor konwertujący. ">
<polygon fill="white" stroke="black" points="150.5,-343 150.5,-373 263.5,-373 263.5,-343 150.5,-343"/>
<text text-anchor="start" x="158.5" y="-361" font-family="Helvetica,sans-Serif" font-size="10.00">KuszkAPI::Containers</text>
<text text-anchor="middle" x="207" y="-350" font-family="Helvetica,sans-Serif" font-size="10.00">::Array::Array</text>
</a>
</g>
</g>
<!-- Node1&#45;&gt;Node2 -->
<g id="edge1" class="edge"><title>Node1&#45;&gt;Node2</title>
<path fill="none" stroke="midnightblue" d="M68.066,-210.92C82.1241,-242.971 110.434,-298.596 150,-333 154.339,-336.773 159.339,-340.066 164.528,-342.914"/>
<polygon fill="midnightblue" stroke="midnightblue" points="71.1481,-209.225 64.0063,-201.399 64.709,-211.97 71.1481,-209.225"/>
</g>
<!-- Node3 -->
<g id="node3" class="node"><title>Node3</title>
<g id="a_node3"><a xlink:href="class_kuszk_a_p_i_1_1_containers_1_1_list.html#a5b25cd2d286561336a52e3b25072eee9" target="_top" xlink:title="Konstruktor kopiujący. ">
<polygon fill="white" stroke="black" points="150.5,-294 150.5,-324 263.5,-324 263.5,-294 150.5,-294"/>
<text text-anchor="start" x="158.5" y="-312" font-family="Helvetica,sans-Serif" font-size="10.00">KuszkAPI::Containers</text>
<text text-anchor="middle" x="207" y="-301" font-family="Helvetica,sans-Serif" font-size="10.00">::List::List</text>
</a>
</g>
</g>
<!-- Node1&#45;&gt;Node3 -->
<g id="edge2" class="edge"><title>Node1&#45;&gt;Node3</title>
<path fill="none" stroke="midnightblue" d="M75.1954,-209.045C92.2587,-230.655 120.121,-262.74 150,-284 155.205,-287.704 161.046,-291.044 166.94,-293.989"/>
<polygon fill="midnightblue" stroke="midnightblue" points="77.8848,-206.801 68.9917,-201.042 72.3525,-211.09 77.8848,-206.801"/>
</g>
<!-- Node4 -->
<g id="node4" class="node"><title>Node4</title>
<g id="a_node4"><a xlink:href="class_kuszk_a_p_i_1_1_containers_1_1_list.html#afa6d488ac43b13f0b11e7f41b99f4dc5" target="_top" xlink:title="Porównuje dwie organizacje. ">
<polygon fill="white" stroke="black" points="150.5,-245 150.5,-275 263.5,-275 263.5,-245 150.5,-245"/>
<text text-anchor="start" x="158.5" y="-263" font-family="Helvetica,sans-Serif" font-size="10.00">KuszkAPI::Containers</text>
<text text-anchor="middle" x="207" y="-252" font-family="Helvetica,sans-Serif" font-size="10.00">::List::operator!=</text>
</a>
</g>
</g>
<!-- Node1&#45;&gt;Node4 -->
<g id="edge3" class="edge"><title>Node1&#45;&gt;Node4</title>
<path fill="none" stroke="midnightblue" d="M94.0781,-205.962C110.928,-215.092 131.344,-225.881 150,-235 156.792,-238.32 164.123,-241.721 171.173,-244.903"/>
<polygon fill="midnightblue" stroke="midnightblue" points="95.5739,-202.791 85.1179,-201.082 92.2257,-208.939 95.5739,-202.791"/>
</g>
<!-- Node5 -->
<g id="node5" class="node"><title>Node5</title>
<g id="a_node5"><a xlink:href="class_kuszk_a_p_i_1_1_containers_1_1_list.html#a2042217716b50106c7633e00d5a4f7f2" target="_top" xlink:title="Dodaje dwie organizacje do siebie. ">
<polygon fill="white" stroke="black" points="150.5,-196 150.5,-226 263.5,-226 263.5,-196 150.5,-196"/>
<text text-anchor="start" x="158.5" y="-214" font-family="Helvetica,sans-Serif" font-size="10.00">KuszkAPI::Containers</text>
<text text-anchor="middle" x="207" y="-203" font-family="Helvetica,sans-Serif" font-size="10.00">::List::operator+</text>
</a>
</g>
</g>
<!-- Node1&#45;&gt;Node5 -->
<g id="edge4" class="edge"><title>Node1&#45;&gt;Node5</title>
<path fill="none" stroke="midnightblue" d="M123.481,-197.061C132.381,-198.564 141.449,-200.096 150.158,-201.567"/>
<polygon fill="midnightblue" stroke="midnightblue" points="123.974,-193.595 113.531,-195.38 122.808,-200.497 123.974,-193.595"/>
</g>
<!-- Node6 -->
<g id="node6" class="node"><title>Node6</title>
<g id="a_node6"><a xlink:href="class_kuszk_a_p_i_1_1_containers_1_1_list.html#a326479fc4ef2a44a5975f8104dd2ee58" target="_top" xlink:title="Dodaje wybraną organizacje do bierzącej. ">
<polygon fill="white" stroke="black" points="150.5,-147 150.5,-177 263.5,-177 263.5,-147 150.5,-147"/>
<text text-anchor="start" x="158.5" y="-165" font-family="Helvetica,sans-Serif" font-size="10.00">KuszkAPI::Containers</text>
<text text-anchor="middle" x="207" y="-154" font-family="Helvetica,sans-Serif" font-size="10.00">::List::operator+=</text>
</a>
</g>
</g>
<!-- Node1&#45;&gt;Node6 -->
<g id="edge5" class="edge"><title>Node1&#45;&gt;Node6</title>
<path fill="none" stroke="midnightblue" d="M123.481,-175.381C132.381,-173.938 141.449,-172.468 150.158,-171.055"/>
<polygon fill="midnightblue" stroke="midnightblue" points="122.842,-171.939 113.531,-176.995 123.962,-178.849 122.842,-171.939"/>
</g>
<!-- Node7 -->
<g id="node7" class="node"><title>Node7</title>
<g id="a_node7"><a xlink:href="class_kuszk_a_p_i_1_1_containers_1_1_list.html#a3612fab2021614c41cb61d02a97764ce" target="_top" xlink:title="Kopiuje wybraną organizacje tworząc bierzącą organizajce na jej podstawie. ">
<polygon fill="white" stroke="black" points="150.5,-98 150.5,-128 263.5,-128 263.5,-98 150.5,-98"/>
<text text-anchor="start" x="158.5" y="-116" font-family="Helvetica,sans-Serif" font-size="10.00">KuszkAPI::Containers</text>
<text text-anchor="middle" x="207" y="-105" font-family="Helvetica,sans-Serif" font-size="10.00">::List::operator=</text>
</a>
</g>
</g>
<!-- Node1&#45;&gt;Node7 -->
<g id="edge6" class="edge"><title>Node1&#45;&gt;Node7</title>
<path fill="none" stroke="midnightblue" d="M94.8653,-166.111C111.577,-157.264 131.662,-146.867 150,-138 156.901,-134.663 164.35,-131.225 171.493,-128.008"/>
<polygon fill="midnightblue" stroke="midnightblue" points="93.1461,-163.061 85.9603,-170.846 96.4328,-169.241 93.1461,-163.061"/>
</g>
<!-- Node8 -->
<g id="node8" class="node"><title>Node8</title>
<g id="a_node8"><a xlink:href="class_kuszk_a_p_i_1_1_containers_1_1_list.html#a89ae944d5fba01da7c0c39718ba10bc7" target="_top" xlink:title="Porównuje dwie organizacje. ">
<polygon fill="white" stroke="black" points="150.5,-49 150.5,-79 263.5,-79 263.5,-49 150.5,-49"/>
<text text-anchor="start" x="158.5" y="-67" font-family="Helvetica,sans-Serif" font-size="10.00">KuszkAPI::Containers</text>
<text text-anchor="middle" x="207" y="-56" font-family="Helvetica,sans-Serif" font-size="10.00">::List::operator==</text>
</a>
</g>
</g>
<!-- Node1&#45;&gt;Node8 -->
<g id="edge7" class="edge"><title>Node1&#45;&gt;Node8</title>
<path fill="none" stroke="midnightblue" d="M75.5328,-162.841C92.6552,-141.464 120.396,-109.95 150,-89 155.215,-85.3098 161.061,-81.976 166.957,-79.0344"/>
<polygon fill="midnightblue" stroke="midnightblue" points="72.7278,-160.745 69.2959,-170.769 78.2295,-165.073 72.7278,-160.745"/>
</g>
<!-- Node9 -->
<g id="node9" class="node"><title>Node9</title>
<g id="a_node9"><a xlink:href="class_kuszk_a_p_i_1_1_containers_1_1_vector.html#aa1a3b4d85ced1e3629cbeeebeb60dd4b" target="_top" xlink:title="KuszkAPI::Containers\l::Vector::Vector">
<polygon fill="white" stroke="black" points="150.5,-0 150.5,-30 263.5,-30 263.5,-0 150.5,-0"/>
<text text-anchor="start" x="158.5" y="-18" font-family="Helvetica,sans-Serif" font-size="10.00">KuszkAPI::Containers</text>
<text text-anchor="middle" x="207" y="-7" font-family="Helvetica,sans-Serif" font-size="10.00">::Vector::Vector</text>
</a>
</g>
</g>
<!-- Node1&#45;&gt;Node9 -->
<g id="edge8" class="edge"><title>Node1&#45;&gt;Node9</title>
<path fill="none" stroke="midnightblue" d="M68.1091,-161.251C82.2141,-129.42 110.575,-74.1757 150,-40 154.344,-36.2341 159.348,-32.9445 164.539,-30.098"/>
<polygon fill="midnightblue" stroke="midnightblue" points="64.7776,-160.138 64.0346,-170.707 71.2062,-162.908 64.7776,-160.138"/>
</g>
</g>
</svg>
