<?xml version="1.0" encoding="UTF-8" standalone="no"?>
<!DOCTYPE svg PUBLIC "-//W3C//DTD SVG 1.1//EN"
 "http://www.w3.org/Graphics/SVG/1.1/DTD/svg11.dtd">
<!-- Generated by graphviz version 2.36.0 (20140111.2315)
 -->
<!-- Title: KuszkAPI::Core::Instance::GetExeName Pages: 1 -->
<svg width="288pt" height="38pt"
 viewBox="0.00 0.00 288.00 38.00" xmlns="http://www.w3.org/2000/svg" xmlns:xlink="http://www.w3.org/1999/xlink">
<g id="graph0" class="graph" transform="scale(1 1) rotate(0) translate(4 34)">
<title>KuszkAPI::Core::Instance::GetExeName</title>
<polygon fill="white" stroke="none" points="-4,4 -4,-34 284,-34 284,4 -4,4"/>
<!-- Node1 -->
<g id="node1" class="node"><title>Node1</title>
<polygon fill="#bfbfbf" stroke="black" points="0.5,-0 0.5,-30 129.5,-30 129.5,-0 0.5,-0"/>
<text text-anchor="start" x="8.5" y="-18" font-family="Helvetica,sans-Serif" font-size="10.00">KuszkAPI::Core::Instance</text>
<text text-anchor="middle" x="65" y="-7" font-family="Helvetica,sans-Serif" font-size="10.00">::GetExeName</text>
</g>
<!-- Node2 -->
<g id="node2" class="node"><title>Node2</title>
<g id="a_node2"><a xlink:href="class_kuszk_a_p_i_1_1_application_1_1_win_app.html#a600f8d652b64fe8f9e7f3ffb8608228c" target="_top" xlink:title="Domyślny konstruktor. ">
<polygon fill="white" stroke="black" points="166,-0 166,-30 280,-30 280,-0 166,-0"/>
<text text-anchor="start" x="174" y="-18" font-family="Helvetica,sans-Serif" font-size="10.00">KuszkAPI::Application</text>
<text text-anchor="middle" x="223" y="-7" font-family="Helvetica,sans-Serif" font-size="10.00">::WinApp::WinApp</text>
</a>
</g>
</g>
<!-- Node1&#45;&gt;Node2 -->
<g id="edge1" class="edge"><title>Node1&#45;&gt;Node2</title>
<path fill="none" stroke="midnightblue" d="M140.065,-15C148.771,-15 157.542,-15 165.944,-15"/>
<polygon fill="midnightblue" stroke="midnightblue" points="139.901,-11.5001 129.901,-15 139.901,-18.5001 139.901,-11.5001"/>
</g>
</g>
</svg>
