<?xml version="1.0" encoding="UTF-8" standalone="no"?>
<!DOCTYPE svg PUBLIC "-//W3C//DTD SVG 1.1//EN"
 "http://www.w3.org/Graphics/SVG/1.1/DTD/svg11.dtd">
<!-- Generated by graphviz version 2.36.0 (20140111.2315)
 -->
<!-- Title: KuszkAPI::Application::WinApp::WinApp Pages: 1 -->
<svg width="288pt" height="87pt"
 viewBox="0.00 0.00 288.00 87.00" xmlns="http://www.w3.org/2000/svg" xmlns:xlink="http://www.w3.org/1999/xlink">
<g id="graph0" class="graph" transform="scale(1 1) rotate(0) translate(4 83)">
<title>KuszkAPI::Application::WinApp::WinApp</title>
<polygon fill="white" stroke="none" points="-4,4 -4,-83 284,-83 284,4 -4,4"/>
<!-- Node1 -->
<g id="node1" class="node"><title>Node1</title>
<polygon fill="#bfbfbf" stroke="black" points="0,-24 0,-54 114,-54 114,-24 0,-24"/>
<text text-anchor="start" x="8" y="-42" font-family="Helvetica,sans-Serif" font-size="10.00">KuszkAPI::Application</text>
<text text-anchor="middle" x="57" y="-31" font-family="Helvetica,sans-Serif" font-size="10.00">::WinApp::WinApp</text>
</g>
<!-- Node2 -->
<g id="node2" class="node"><title>Node2</title>
<g id="a_node2"><a xlink:href="class_kuszk_a_p_i_1_1_core_1_1_instance.html#a876e6d25ecf135a3a4861256bfc1ddc5" target="_top" xlink:title="KuszkAPI::Core::Instance\l::GetExeName">
<polygon fill="white" stroke="black" points="150.5,-49 150.5,-79 279.5,-79 279.5,-49 150.5,-49"/>
<text text-anchor="start" x="158.5" y="-67" font-family="Helvetica,sans-Serif" font-size="10.00">KuszkAPI::Core::Instance</text>
<text text-anchor="middle" x="215" y="-56" font-family="Helvetica,sans-Serif" font-size="10.00">::GetExeName</text>
</a>
</g>
</g>
<!-- Node1&#45;&gt;Node2 -->
<g id="edge1" class="edge"><title>Node1&#45;&gt;Node2</title>
<path fill="none" stroke="midnightblue" d="M114.32,-48.0256C122.725,-49.3726 131.496,-50.7781 140.196,-52.1725"/>
<polygon fill="midnightblue" stroke="midnightblue" points="139.924,-55.6734 150.352,-53.8 141.032,-48.7616 139.924,-55.6734"/>
</g>
<!-- Node3 -->
<g id="node3" class="node"><title>Node3</title>
<g id="a_node3"><a xlink:href="class_kuszk_a_p_i_1_1_containers_1_1_string.html#a264c6116e5592a4464828feb720c8f3a" target="_top" xlink:title="KuszkAPI::Containers\l::String::Str">
<polygon fill="white" stroke="black" points="158.5,-0 158.5,-30 271.5,-30 271.5,-0 158.5,-0"/>
<text text-anchor="start" x="166.5" y="-18" font-family="Helvetica,sans-Serif" font-size="10.00">KuszkAPI::Containers</text>
<text text-anchor="middle" x="215" y="-7" font-family="Helvetica,sans-Serif" font-size="10.00">::String::Str</text>
</a>
</g>
</g>
<!-- Node1&#45;&gt;Node3 -->
<g id="edge2" class="edge"><title>Node1&#45;&gt;Node3</title>
<path fill="none" stroke="midnightblue" d="M114.32,-30.3354C125.278,-28.6495 136.856,-26.8682 148.092,-25.1397"/>
<polygon fill="midnightblue" stroke="midnightblue" points="148.935,-28.5513 158.286,-23.5714 147.87,-21.6327 148.935,-28.5513"/>
</g>
</g>
</svg>
