<?xml version="1.0" encoding="UTF-8" standalone="no"?>
<!DOCTYPE svg PUBLIC "-//W3C//DTD SVG 1.1//EN"
 "http://www.w3.org/Graphics/SVG/1.1/DTD/svg11.dtd">
<!-- Generated by graphviz version 2.36.0 (20140111.2315)
 -->
<!-- Title: KuszkAPI::Core::Hook&lt; tnKey &gt; Pages: 1 -->
<!--zoomable 719 -->
<svg id="main" version="1.1" xmlns="http://www.w3.org/2000/svg" xmlns:xlink="http://www.w3.org/1999/xlink" xml:space="preserve" onload="init(evt)">
<style type="text/css"><![CDATA[
.edge:hover path { stroke: red; }
.edge:hover polygon { stroke: red; fill: red; }
]]></style>
<script type="text/javascript"><![CDATA[
var edges = document.getElementsByTagName('g');
if (edges && edges.length) {
  for (var i=0;i<edges.length;i++) {
    if (edges[i].id.substr(0,4)=='edge') {
      edges[i].setAttribute('class','edge');
    }
  }
}
]]></script>
        <defs>
                <circle id="rim" cx="0" cy="0" r="7"/>
                <circle id="rim2" cx="0" cy="0" r="3.5"/>
                <g id="zoomPlus">
                        <use xlink:href="#rim" fill="#404040">
                                <set attributeName="fill" to="#808080" begin="zoomplus.mouseover" end="zoomplus.mouseout"/>
                        </use>
                        <path d="M-4,0h8M0,-4v8" fill="none" stroke="white" stroke-width="1.5" pointer-events="none"/>
                </g>
                <g id="zoomMin">
                        <use xlink:href="#rim" fill="#404040">
                                <set attributeName="fill" to="#808080" begin="zoomminus.mouseover" end="zoomminus.mouseout"/>
                        </use>
                        <path d="M-4,0h8" fill="none" stroke="white" stroke-width="1.5" pointer-events="none"/>
                </g>
                <g id="dirArrow">
                        <path fill="none" stroke="white" stroke-width="1.5" d="M0,-3.0v7 M-2.5,-0.5L0,-3.0L2.5,-0.5"/>
                </g>
               <g id="resetDef">
                       <use xlink:href="#rim2" fill="#404040">
                               <set attributeName="fill" to="#808080" begin="reset.mouseover" end="reset.mouseout"/>
                       </use>
               </g>
        </defs>

<script type="text/javascript">
var viewWidth = 1462;
var viewHeight = 719;
var sectionId = 'dynsection-1';
</script>
<script xlink:href="svgpan.js"/>
<svg id="graph" class="graph">
<g id="viewport">
<title>KuszkAPI::Core::Hook&lt; tnKey &gt;</title>
<polygon fill="white" stroke="none" points="-4,4 -4,-715 1458,-715 1458,4 -4,4"/>
<!-- Node1 -->
<g id="node1" class="node"><title>Node1</title>
<polygon fill="#bfbfbf" stroke="black" points="1338.5,-322 1338.5,-352 1453.5,-352 1453.5,-322 1338.5,-322"/>
<text text-anchor="start" x="1346.5" y="-340" font-family="Helvetica,sans-Serif" font-size="10.00">KuszkAPI::Core::Hook</text>
<text text-anchor="middle" x="1396" y="-329" font-family="Helvetica,sans-Serif" font-size="10.00">&lt; tnKey &gt;</text>
</g>
<!-- Node2 -->
<g id="node2" class="node"><title>Node2</title>
<g id="a_node2"><a xlink:href="class_kuszk_a_p_i_1_1_containers_1_1_map.html" target="_top" xlink:title="KuszkAPI::Containers\l::Map\&lt; HHOOK, tnKey \&gt;">
<polygon fill="white" stroke="black" points="1142,-322 1142,-352 1268,-352 1268,-322 1142,-322"/>
<text text-anchor="start" x="1150" y="-340" font-family="Helvetica,sans-Serif" font-size="10.00">KuszkAPI::Containers</text>
<text text-anchor="middle" x="1205" y="-329" font-family="Helvetica,sans-Serif" font-size="10.00">::Map&lt; HHOOK, tnKey &gt;</text>
</a>
</g>
</g>
<!-- Node2&#45;&gt;Node1 -->
<g id="edge1" class="edge"><title>Node2&#45;&gt;Node1</title>
<path fill="none" stroke="#9a32cd" stroke-dasharray="5,2" d="M1278.37,-337C1298.21,-337 1319.42,-337 1338.24,-337"/>
<polygon fill="#9a32cd" stroke="#9a32cd" points="1278.15,-333.5 1268.15,-337 1278.15,-340.5 1278.15,-333.5"/>
<text text-anchor="middle" x="1303" y="-340" font-family="Helvetica,sans-Serif" font-size="10.00"> mHook</text>
</g>
<!-- Node3 -->
<g id="node3" class="node"><title>Node3</title>
<g id="a_node3"><a xlink:href="class_kuszk_a_p_i_1_1_containers_1_1_list.html" target="_top" xlink:title="KuszkAPI::Containers\l::List\&lt; tnKey \&gt;">
<polygon fill="white" stroke="black" points="554.5,-149 554.5,-179 667.5,-179 667.5,-149 554.5,-149"/>
<text text-anchor="start" x="562.5" y="-167" font-family="Helvetica,sans-Serif" font-size="10.00">KuszkAPI::Containers</text>
<text text-anchor="middle" x="611" y="-156" font-family="Helvetica,sans-Serif" font-size="10.00">::List&lt; tnKey &gt;</text>
</a>
</g>
</g>
<!-- Node3&#45;&gt;Node2 -->
<g id="edge2" class="edge"><title>Node3&#45;&gt;Node2</title>
<path fill="none" stroke="#9a32cd" stroke-dasharray="5,2" d="M673.386,-181.939C790.49,-216.16 1043.8,-290.184 1152.62,-321.985"/>
<polygon fill="#9a32cd" stroke="#9a32cd" points="674.081,-178.496 663.501,-179.05 672.117,-185.215 674.081,-178.496"/>
<text text-anchor="middle" x="915" y="-264" font-family="Helvetica,sans-Serif" font-size="10.00"> lKey</text>
</g>
<!-- Node18 -->
<g id="node18" class="node"><title>Node18</title>
<g id="a_node18"><a xlink:href="class_kuszk_a_p_i_1_1_containers_1_1_map.html" target="_top" xlink:title="KuszkAPI::Containers\l::Map\&lt; tnData, tnKey \&gt;">
<polygon fill="white" stroke="black" points="748.5,-67 748.5,-97 867.5,-97 867.5,-67 748.5,-67"/>
<text text-anchor="start" x="756.5" y="-85" font-family="Helvetica,sans-Serif" font-size="10.00">KuszkAPI::Containers</text>
<text text-anchor="middle" x="808" y="-74" font-family="Helvetica,sans-Serif" font-size="10.00">::Map&lt; tnData, tnKey &gt;</text>
</a>
</g>
</g>
<!-- Node3&#45;&gt;Node18 -->
<g id="edge34" class="edge"><title>Node3&#45;&gt;Node18</title>
<path fill="none" stroke="#9a32cd" stroke-dasharray="5,2" d="M657.187,-144.998C691.847,-130.423 739.039,-110.579 771.131,-97.0833"/>
<polygon fill="#9a32cd" stroke="#9a32cd" points="655.627,-141.857 647.766,-148.96 658.341,-148.31 655.627,-141.857"/>
<text text-anchor="middle" x="708" y="-136" font-family="Helvetica,sans-Serif" font-size="10.00"> lKey</text>
</g>
<!-- Node4 -->
<g id="node4" class="node"><title>Node4</title>
<g id="a_node4"><a xlink:href="class_kuszk_a_p_i_1_1_containers_1_1_container.html" target="_top" xlink:title="Implementacja bazy dla modułu kontenerów. ">
<polygon fill="white" stroke="black" points="132.5,-363 132.5,-393 245.5,-393 245.5,-363 132.5,-363"/>
<text text-anchor="start" x="140.5" y="-381" font-family="Helvetica,sans-Serif" font-size="10.00">KuszkAPI::Containers</text>
<text text-anchor="middle" x="189" y="-370" font-family="Helvetica,sans-Serif" font-size="10.00">::Container</text>
</a>
</g>
</g>
<!-- Node4&#45;&gt;Node3 -->
<g id="edge3" class="edge"><title>Node4&#45;&gt;Node3</title>
<path fill="none" stroke="midnightblue" d="M255.677,-370.273C278.685,-364.852 303.398,-355.642 322,-340 335.997,-328.231 327.216,-316.077 340,-303 358.29,-284.291 510.548,-211.025 578.023,-179.056"/>
<polygon fill="midnightblue" stroke="midnightblue" points="254.641,-366.915 245.599,-372.438 256.112,-373.759 254.641,-366.915"/>
</g>
<!-- Node9 -->
<g id="node9" class="node"><title>Node9</title>
<g id="a_node9"><a xlink:href="class_kuszk_a_p_i_1_1_containers_1_1_list.html" target="_top" xlink:title="Implementacja szablonu listy dla modułu kontenerów. ">
<polygon fill="white" stroke="black" points="340.5,-174 340.5,-204 453.5,-204 453.5,-174 340.5,-174"/>
<text text-anchor="start" x="348.5" y="-192" font-family="Helvetica,sans-Serif" font-size="10.00">KuszkAPI::Containers</text>
<text text-anchor="middle" x="397" y="-181" font-family="Helvetica,sans-Serif" font-size="10.00">::List&lt; tnData &gt;</text>
</a>
</g>
</g>
<!-- Node4&#45;&gt;Node9 -->
<g id="edge10" class="edge"><title>Node4&#45;&gt;Node9</title>
<path fill="none" stroke="midnightblue" d="M234.583,-358.845C270.381,-343.118 315.69,-322.294 322,-315 339.659,-294.588 327.18,-280.752 340,-257 350.823,-236.947 368.018,-217.201 380.501,-204.198"/>
<polygon fill="midnightblue" stroke="midnightblue" points="233.009,-355.713 225.249,-362.926 235.813,-362.127 233.009,-355.713"/>
</g>
<!-- Node12 -->
<g id="node12" class="node"><title>Node12</title>
<g id="a_node12"><a xlink:href="class_kuszk_a_p_i_1_1_containers_1_1_vector.html" target="_top" xlink:title="KuszkAPI::Containers\l::Vector\&lt; HHOOK * \&gt;">
<polygon fill="white" stroke="black" points="554.5,-478 554.5,-508 667.5,-508 667.5,-478 554.5,-478"/>
<text text-anchor="start" x="562.5" y="-496" font-family="Helvetica,sans-Serif" font-size="10.00">KuszkAPI::Containers</text>
<text text-anchor="middle" x="611" y="-485" font-family="Helvetica,sans-Serif" font-size="10.00">::Vector&lt; HHOOK * &gt;</text>
</a>
</g>
</g>
<!-- Node4&#45;&gt;Node12 -->
<g id="edge15" class="edge"><title>Node4&#45;&gt;Node12</title>
<path fill="none" stroke="midnightblue" d="M234.541,-396.963C264.065,-409.023 303.876,-424.323 340,-435 412.99,-456.573 499.283,-473.694 554.312,-483.589"/>
<polygon fill="midnightblue" stroke="midnightblue" points="235.522,-393.582 224.942,-393.008 232.855,-400.054 235.522,-393.582"/>
</g>
<!-- Node15 -->
<g id="node15" class="node"><title>Node15</title>
<g id="a_node15"><a xlink:href="class_kuszk_a_p_i_1_1_containers_1_1_vector.html" target="_top" xlink:title="KuszkAPI::Containers\l::Vector\&lt; tnData \&gt;">
<polygon fill="white" stroke="black" points="340.5,-396 340.5,-426 453.5,-426 453.5,-396 340.5,-396"/>
<text text-anchor="start" x="348.5" y="-414" font-family="Helvetica,sans-Serif" font-size="10.00">KuszkAPI::Containers</text>
<text text-anchor="middle" x="397" y="-403" font-family="Helvetica,sans-Serif" font-size="10.00">::Vector&lt; tnData &gt;</text>
</a>
</g>
</g>
<!-- Node4&#45;&gt;Node15 -->
<g id="edge20" class="edge"><title>Node4&#45;&gt;Node15</title>
<path fill="none" stroke="midnightblue" d="M255.94,-388.563C283.093,-392.913 314.211,-397.898 340.209,-402.063"/>
<polygon fill="midnightblue" stroke="midnightblue" points="256.174,-385.056 245.747,-386.93 255.067,-391.968 256.174,-385.056"/>
</g>
<!-- Node17 -->
<g id="node17" class="node"><title>Node17</title>
<g id="a_node17"><a xlink:href="class_kuszk_a_p_i_1_1_containers_1_1_vector.html" target="_top" xlink:title="KuszkAPI::Containers\l::Vector\&lt; tnData * \&gt;">
<polygon fill="white" stroke="black" points="554.5,-352 554.5,-382 667.5,-382 667.5,-352 554.5,-352"/>
<text text-anchor="start" x="562.5" y="-370" font-family="Helvetica,sans-Serif" font-size="10.00">KuszkAPI::Containers</text>
<text text-anchor="middle" x="611" y="-359" font-family="Helvetica,sans-Serif" font-size="10.00">::Vector&lt; tnData * &gt;</text>
</a>
</g>
</g>
<!-- Node4&#45;&gt;Node17 -->
<g id="edge27" class="edge"><title>Node4&#45;&gt;Node17</title>
<path fill="none" stroke="midnightblue" d="M256.001,-376.271C338.22,-374.118 477.244,-370.477 554.331,-368.458"/>
<polygon fill="midnightblue" stroke="midnightblue" points="255.678,-372.779 245.773,-376.539 255.861,-379.776 255.678,-372.779"/>
</g>
<!-- Node5 -->
<g id="node5" class="node"><title>Node5</title>
<g id="a_node5"><a xlink:href="namespace_3global_scope_4.html#classunsigned" target="_top" xlink:title="unsigned">
<polygon fill="white" stroke="black" points="0,-470.5 0,-489.5 56,-489.5 56,-470.5 0,-470.5"/>
<text text-anchor="middle" x="28" y="-477.5" font-family="Helvetica,sans-Serif" font-size="10.00">unsigned</text>
</a>
</g>
</g>
<!-- Node5&#45;&gt;Node2 -->
<g id="edge31" class="edge"><title>Node5&#45;&gt;Node2</title>
<path fill="none" stroke="#9a32cd" stroke-dasharray="5,2" d="M33.2133,-499.788C46.0013,-553.845 89.6689,-700 188,-700 188,-700 188,-700 1020,-700 1178.62,-700 1200.54,-420.836 1203.53,-352.136"/>
<polygon fill="#9a32cd" stroke="#9a32cd" points="36.5605,-498.721 30.9446,-489.737 29.7322,-500.262 36.5605,-498.721"/>
<text text-anchor="middle" x="611" y="-703" font-family="Helvetica,sans-Serif" font-size="10.00"> uIlosc</text>
</g>
<!-- Node5&#45;&gt;Node4 -->
<g id="edge4" class="edge"><title>Node5&#45;&gt;Node4</title>
<path fill="none" stroke="#9a32cd" stroke-dasharray="5,2" d="M33.6303,-460.405C39.4691,-440.306 51.5725,-409.812 74,-394 90.7427,-382.196 112.354,-377.28 132.251,-375.628"/>
<polygon fill="#9a32cd" stroke="#9a32cd" points="30.1752,-459.781 31.0052,-470.343 36.9431,-461.569 30.1752,-459.781"/>
<text text-anchor="middle" x="90" y="-408" font-family="Helvetica,sans-Serif" font-size="10.00"> uIlosc</text>
<text text-anchor="middle" x="90" y="-397" font-family="Helvetica,sans-Serif" font-size="10.00">uMode</text>
</g>
<!-- Node11 -->
<g id="node11" class="node"><title>Node11</title>
<g id="a_node11"><a xlink:href="class_kuszk_a_p_i_1_1_containers_1_1_box.html" target="_top" xlink:title="KuszkAPI::Containers\l::Box\&lt; HHOOK \&gt;">
<polygon fill="white" stroke="black" points="962.5,-459 962.5,-489 1075.5,-489 1075.5,-459 962.5,-459"/>
<text text-anchor="start" x="970.5" y="-477" font-family="Helvetica,sans-Serif" font-size="10.00">KuszkAPI::Containers</text>
<text text-anchor="middle" x="1019" y="-466" font-family="Helvetica,sans-Serif" font-size="10.00">::Box&lt; HHOOK &gt;</text>
</a>
</g>
</g>
<!-- Node5&#45;&gt;Node11 -->
<g id="edge23" class="edge"><title>Node5&#45;&gt;Node11</title>
<path fill="none" stroke="#9a32cd" stroke-dasharray="5,2" d="M34.7376,-499.238C41.6716,-520.312 54.8439,-554.386 74,-579 111.249,-626.862 127.352,-654 188,-654 188,-654 188,-654 809,-654 909.802,-654 986.141,-532.298 1010.09,-489.037"/>
<polygon fill="#9a32cd" stroke="#9a32cd" points="38.0207,-498.011 31.6815,-489.522 31.3432,-500.111 38.0207,-498.011"/>
<text text-anchor="middle" x="504" y="-657" font-family="Helvetica,sans-Serif" font-size="10.00"> uIlosc</text>
</g>
<!-- Node5&#45;&gt;Node12 -->
<g id="edge17" class="edge"><title>Node5&#45;&gt;Node12</title>
<path fill="none" stroke="#9a32cd" stroke-dasharray="5,2" d="M66.5963,-485.127C124.971,-492.802 241.001,-506.92 340,-512 390.6,-514.596 403.348,-513.235 454,-512 490.477,-511.111 499.794,-512.526 536,-508 541.983,-507.252 548.206,-506.289 554.388,-505.211"/>
<polygon fill="#9a32cd" stroke="#9a32cd" points="66.7579,-481.618 56.3845,-483.772 65.8374,-488.557 66.7579,-481.618"/>
<text text-anchor="middle" x="297" y="-514" font-family="Helvetica,sans-Serif" font-size="10.00"> uDataSize</text>
</g>
<!-- Node5&#45;&gt;Node15 -->
<g id="edge22" class="edge"><title>Node5&#45;&gt;Node15</title>
<path fill="none" stroke="#9a32cd" stroke-dasharray="5,2" d="M66.4538,-472.958C131.293,-460.768 264.755,-435.676 340.433,-421.447"/>
<polygon fill="#9a32cd" stroke="#9a32cd" points="65.4659,-469.583 56.2848,-474.87 66.7594,-476.462 65.4659,-469.583"/>
<text text-anchor="middle" x="189" y="-466" font-family="Helvetica,sans-Serif" font-size="10.00"> uDataSize</text>
</g>
<!-- Node16 -->
<g id="node16" class="node"><title>Node16</title>
<g id="a_node16"><a xlink:href="class_kuszk_a_p_i_1_1_containers_1_1_box.html" target="_top" xlink:title="Implementacja szablonu pudełka dla modułu kontenerów. ">
<polygon fill="white" stroke="black" points="751.5,-426 751.5,-456 864.5,-456 864.5,-426 751.5,-426"/>
<text text-anchor="start" x="759.5" y="-444" font-family="Helvetica,sans-Serif" font-size="10.00">KuszkAPI::Containers</text>
<text text-anchor="middle" x="808" y="-433" font-family="Helvetica,sans-Serif" font-size="10.00">::Box&lt; tnData &gt;</text>
</a>
</g>
</g>
<!-- Node5&#45;&gt;Node16 -->
<g id="edge25" class="edge"><title>Node5&#45;&gt;Node16</title>
<path fill="none" stroke="#9a32cd" stroke-dasharray="5,2" d="M39.2617,-498.519C61.2753,-535.505 116.863,-615 188,-615 188,-615 188,-615 612,-615 697.796,-615 680.996,-531.586 748,-478 757.914,-470.071 769.621,-462.422 779.983,-456.157"/>
<polygon fill="#9a32cd" stroke="#9a32cd" points="42.2072,-496.621 34.1773,-489.709 36.1443,-500.12 42.2072,-496.621"/>
<text text-anchor="middle" x="397" y="-618" font-family="Helvetica,sans-Serif" font-size="10.00"> uIlosc</text>
</g>
<!-- Node5&#45;&gt;Node17 -->
<g id="edge29" class="edge"><title>Node5&#45;&gt;Node17</title>
<path fill="none" stroke="#9a32cd" stroke-dasharray="5,2" d="M30.2838,-460.184C34.4641,-414.104 51.9656,-300.023 124,-252 279.829,-148.114 518.687,-301.406 589.525,-351.846"/>
<polygon fill="#9a32cd" stroke="#9a32cd" points="26.779,-460.109 29.483,-470.353 33.7574,-460.659 26.779,-460.109"/>
<text text-anchor="middle" x="297" y="-228" font-family="Helvetica,sans-Serif" font-size="10.00"> uDataSize</text>
</g>
<!-- Node5&#45;&gt;Node18 -->
<g id="edge35" class="edge"><title>Node5&#45;&gt;Node18</title>
<path fill="none" stroke="#9a32cd" stroke-dasharray="5,2" d="M30.9989,-460.257C38.8383,-386.551 69.7508,-128.705 124,-70 144.414,-47.9098 157.922,-48 188,-48 188,-48 188,-48 612,-48 659.424,-48 712.383,-57.88 751.13,-66.9881"/>
<polygon fill="#9a32cd" stroke="#9a32cd" points="27.4925,-460.139 29.9388,-470.447 34.4549,-460.863 27.4925,-460.139"/>
<text text-anchor="middle" x="397" y="-51" font-family="Helvetica,sans-Serif" font-size="10.00"> uIlosc</text>
</g>
<!-- Node6 -->
<g id="node6" class="node"><title>Node6</title>
<g id="a_node6"><a xlink:href="class_kuszk_a_p_i_1_1_containers_1_1_list.html#struct_kuszk_a_p_i_1_1_containers_1_1_list_1_1_item_data" target="_top" xlink:title="Struktura przechowująca wskaźnik na element listy oraz wskaźnik na kolejny obiekt. ">
<polygon fill="white" stroke="black" points="124,-80 124,-110 254,-110 254,-80 124,-80"/>
<text text-anchor="start" x="132" y="-98" font-family="Helvetica,sans-Serif" font-size="10.00">KuszkAPI::Containers</text>
<text text-anchor="middle" x="189" y="-87" font-family="Helvetica,sans-Serif" font-size="10.00">::List&lt; tnData &gt;::ItemData</text>
</a>
</g>
</g>
<!-- Node6&#45;&gt;Node3 -->
<g id="edge5" class="edge"><title>Node6&#45;&gt;Node3</title>
<path fill="none" stroke="#9a32cd" stroke-dasharray="5,2" d="M264.226,-91.0002C317.559,-89.7037 390.882,-91.1643 454,-104 499.497,-113.252 549.06,-134.377 579.835,-148.919"/>
<polygon fill="#9a32cd" stroke="#9a32cd" points="264.069,-87.5032 254.172,-91.283 264.266,-94.5004 264.069,-87.5032"/>
<text text-anchor="middle" x="397" y="-118" font-family="Helvetica,sans-Serif" font-size="10.00"> ptLast</text>
<text text-anchor="middle" x="397" y="-107" font-family="Helvetica,sans-Serif" font-size="10.00">ptBegin</text>
</g>
<!-- Node6&#45;&gt;Node6 -->
<g id="edge6" class="edge"><title>Node6&#45;&gt;Node6</title>
<path fill="none" stroke="#9a32cd" stroke-dasharray="5,2" d="M171.846,-120.598C174.19,-124.97 179.908,-128 189,-128 204.313,-128 210.055,-119.406 206.227,-110.275"/>
<polygon fill="#9a32cd" stroke="#9a32cd" points="175.344,-120.25 171.773,-110.275 168.344,-120.3 175.344,-120.25"/>
<text text-anchor="middle" x="189" y="-131" font-family="Helvetica,sans-Serif" font-size="10.00"> ptNext</text>
</g>
<!-- Node6&#45;&gt;Node9 -->
<g id="edge12" class="edge"><title>Node6&#45;&gt;Node9</title>
<path fill="none" stroke="#9a32cd" stroke-dasharray="5,2" d="M231.767,-114.365C261.828,-128.266 303.366,-147.397 340,-164 347.176,-167.252 354.883,-170.713 362.214,-173.991"/>
<polygon fill="#9a32cd" stroke="#9a32cd" points="232.976,-111.069 222.431,-110.046 230.037,-117.422 232.976,-111.069"/>
<text text-anchor="middle" x="297" y="-169" font-family="Helvetica,sans-Serif" font-size="10.00"> ptLast</text>
<text text-anchor="middle" x="297" y="-158" font-family="Helvetica,sans-Serif" font-size="10.00">ptBegin</text>
</g>
<!-- Node7 -->
<g id="node7" class="node"><title>Node7</title>
<polygon fill="white" stroke="#bfbfbf" points="2,-12.5 2,-31.5 54,-31.5 54,-12.5 2,-12.5"/>
<text text-anchor="middle" x="28" y="-19.5" font-family="Helvetica,sans-Serif" font-size="10.00">tnData *</text>
</g>
<!-- Node7&#45;&gt;Node6 -->
<g id="edge7" class="edge"><title>Node7&#45;&gt;Node6</title>
<path fill="none" stroke="#9a32cd" stroke-dasharray="5,2" d="M58.8844,-35.7205C86.265,-48.2915 126.727,-66.8682 155.037,-79.866"/>
<polygon fill="#9a32cd" stroke="#9a32cd" points="60.3348,-32.5352 49.7865,-31.5435 57.414,-38.8968 60.3348,-32.5352"/>
<text text-anchor="middle" x="90" y="-60" font-family="Helvetica,sans-Serif" font-size="10.00"> ptData</text>
</g>
<!-- Node8 -->
<g id="node8" class="node"><title>Node8</title>
<polygon fill="white" stroke="#bfbfbf" points="376,-135.5 376,-154.5 418,-154.5 418,-135.5 376,-135.5"/>
<text text-anchor="middle" x="397" y="-142.5" font-family="Helvetica,sans-Serif" font-size="10.00">tnKey</text>
</g>
<!-- Node8&#45;&gt;Node3 -->
<g id="edge8" class="edge"><title>Node8&#45;&gt;Node3</title>
<path fill="none" stroke="#9a32cd" stroke-dasharray="5,2" d="M428.513,-145.187C456.534,-145.628 499.17,-146.982 536,-151 541.965,-151.651 548.175,-152.487 554.351,-153.422"/>
<polygon fill="#9a32cd" stroke="#9a32cd" points="428.218,-141.683 418.174,-145.055 428.129,-148.682 428.218,-141.683"/>
<text text-anchor="middle" x="504" y="-154" font-family="Helvetica,sans-Serif" font-size="10.00"> tAbstract</text>
</g>
<!-- Node9&#45;&gt;Node3 -->
<g id="edge9" class="edge"><title>Node9&#45;&gt;Node3</title>
<path fill="none" stroke="orange" stroke-dasharray="5,2" d="M463.753,-181.246C492.782,-177.823 526.54,-173.842 554.304,-170.568"/>
<polygon fill="orange" stroke="orange" points="463.222,-177.784 453.701,-182.432 464.042,-184.736 463.222,-177.784"/>
<text text-anchor="middle" x="504" y="-184" font-family="Helvetica,sans-Serif" font-size="10.00"> &lt; tnKey &gt;</text>
</g>
<!-- Node10 -->
<g id="node10" class="node"><title>Node10</title>
<polygon fill="white" stroke="#bfbfbf" points="166.5,-261.5 166.5,-280.5 211.5,-280.5 211.5,-261.5 166.5,-261.5"/>
<text text-anchor="middle" x="189" y="-268.5" font-family="Helvetica,sans-Serif" font-size="10.00">tnData</text>
</g>
<!-- Node10&#45;&gt;Node9 -->
<g id="edge11" class="edge"><title>Node10&#45;&gt;Node9</title>
<path fill="none" stroke="#9a32cd" stroke-dasharray="5,2" d="M204.456,-253.256C219.402,-236.321 244.393,-211.707 272,-200 293.191,-191.014 318.211,-187.601 340.206,-186.679"/>
<polygon fill="#9a32cd" stroke="#9a32cd" points="201.42,-251.422 197.594,-261.303 206.746,-255.964 201.42,-251.422"/>
<text text-anchor="middle" x="297" y="-203" font-family="Helvetica,sans-Serif" font-size="10.00"> tAbstract</text>
</g>
<!-- Node10&#45;&gt;Node15 -->
<g id="edge21" class="edge"><title>Node10&#45;&gt;Node15</title>
<path fill="none" stroke="#9a32cd" stroke-dasharray="5,2" d="M212.654,-286.396C252.465,-313.452 334.483,-369.193 373.899,-395.98"/>
<polygon fill="#9a32cd" stroke="#9a32cd" points="214.397,-283.349 204.159,-280.623 210.463,-289.138 214.397,-283.349"/>
<text text-anchor="middle" x="297" y="-372" font-family="Helvetica,sans-Serif" font-size="10.00"> tAbstract</text>
<text text-anchor="middle" x="297" y="-361" font-family="Helvetica,sans-Serif" font-size="10.00">ptBegin</text>
</g>
<!-- Node10&#45;&gt;Node17 -->
<g id="edge28" class="edge"><title>Node10&#45;&gt;Node17</title>
<path fill="none" stroke="#9a32cd" stroke-dasharray="5,2" d="M221.811,-278.271C292.847,-294.508 465.131,-333.887 554.364,-354.283"/>
<polygon fill="#9a32cd" stroke="#9a32cd" points="222.225,-274.776 211.697,-275.959 220.665,-281.6 222.225,-274.776"/>
<text text-anchor="middle" x="397" y="-345" font-family="Helvetica,sans-Serif" font-size="10.00"> tAbstract</text>
<text text-anchor="middle" x="397" y="-334" font-family="Helvetica,sans-Serif" font-size="10.00">ptBegin</text>
</g>
<!-- Node11&#45;&gt;Node2 -->
<g id="edge13" class="edge"><title>Node11&#45;&gt;Node2</title>
<path fill="none" stroke="#9a32cd" stroke-dasharray="5,2" d="M1048.87,-452.502C1086.43,-424.539 1151.09,-376.397 1183.79,-352.044"/>
<polygon fill="#9a32cd" stroke="#9a32cd" points="1046.32,-450.036 1040.39,-458.815 1050.51,-455.65 1046.32,-450.036"/>
<text text-anchor="middle" x="1109" y="-421" font-family="Helvetica,sans-Serif" font-size="10.00"> bData</text>
</g>
<!-- Node12&#45;&gt;Node11 -->
<g id="edge14" class="edge"><title>Node12&#45;&gt;Node11</title>
<path fill="none" stroke="#9a32cd" stroke-dasharray="5,2" d="M677.93,-489.915C757.029,-486.213 888.232,-480.073 962.42,-476.601"/>
<polygon fill="#9a32cd" stroke="#9a32cd" points="677.427,-486.434 667.601,-490.398 677.754,-493.427 677.427,-486.434"/>
<text text-anchor="middle" x="808" y="-490" font-family="Helvetica,sans-Serif" font-size="10.00"> vPointers</text>
</g>
<!-- Node13 -->
<g id="node13" class="node"><title>Node13</title>
<polygon fill="white" stroke="#bfbfbf" points="367.5,-559.5 367.5,-578.5 426.5,-578.5 426.5,-559.5 367.5,-559.5"/>
<text text-anchor="middle" x="397" y="-566.5" font-family="Helvetica,sans-Serif" font-size="10.00">HHOOK *</text>
</g>
<!-- Node13&#45;&gt;Node12 -->
<g id="edge16" class="edge"><title>Node13&#45;&gt;Node12</title>
<path fill="none" stroke="#9a32cd" stroke-dasharray="5,2" d="M437.084,-566.784C465.435,-564.096 504.22,-558.151 536,-545 557.473,-536.114 578.851,-520.123 593.066,-508.211"/>
<polygon fill="#9a32cd" stroke="#9a32cd" points="436.433,-563.327 426.766,-567.663 437.027,-570.301 436.433,-563.327"/>
<text text-anchor="middle" x="504" y="-565" font-family="Helvetica,sans-Serif" font-size="10.00"> tAbstract</text>
</g>
<!-- Node14 -->
<g id="node14" class="node"><title>Node14</title>
<polygon fill="white" stroke="#bfbfbf" points="366,-483.5 366,-502.5 428,-502.5 428,-483.5 366,-483.5"/>
<text text-anchor="middle" x="397" y="-490.5" font-family="Helvetica,sans-Serif" font-size="10.00">HHOOK **</text>
</g>
<!-- Node14&#45;&gt;Node12 -->
<g id="edge18" class="edge"><title>Node14&#45;&gt;Node12</title>
<path fill="none" stroke="#9a32cd" stroke-dasharray="5,2" d="M438.512,-493C471.319,-493 517.886,-493 554.217,-493"/>
<polygon fill="#9a32cd" stroke="#9a32cd" points="438.374,-489.5 428.374,-493 438.374,-496.5 438.374,-489.5"/>
<text text-anchor="middle" x="504" y="-496" font-family="Helvetica,sans-Serif" font-size="10.00"> ptBegin</text>
</g>
<!-- Node15&#45;&gt;Node12 -->
<g id="edge19" class="edge"><title>Node15&#45;&gt;Node12</title>
<path fill="none" stroke="orange" stroke-dasharray="5,2" d="M463.478,-415.713C487.085,-419.12 513.447,-424.97 536,-435 559.118,-445.282 581.369,-464.375 595.328,-477.841"/>
<polygon fill="orange" stroke="orange" points="463.922,-412.241 453.549,-414.397 463.003,-419.181 463.922,-412.241"/>
<text text-anchor="middle" x="504" y="-438" font-family="Helvetica,sans-Serif" font-size="10.00"> &lt; HHOOK * &gt;</text>
</g>
<!-- Node15&#45;&gt;Node17 -->
<g id="edge30" class="edge"><title>Node15&#45;&gt;Node17</title>
<path fill="none" stroke="orange" stroke-dasharray="5,2" d="M463.753,-397.353C492.782,-391.328 526.54,-384.322 554.304,-378.56"/>
<polygon fill="orange" stroke="orange" points="462.781,-393.98 453.701,-399.44 464.203,-400.834 462.781,-393.98"/>
<text text-anchor="middle" x="504" y="-399" font-family="Helvetica,sans-Serif" font-size="10.00"> &lt; tnData * &gt;</text>
</g>
<!-- Node16&#45;&gt;Node11 -->
<g id="edge24" class="edge"><title>Node16&#45;&gt;Node11</title>
<path fill="none" stroke="orange" stroke-dasharray="5,2" d="M874.887,-451.403C903.029,-455.847 935.519,-460.977 962.422,-465.224"/>
<polygon fill="orange" stroke="orange" points="875.157,-447.903 864.734,-449.8 874.065,-454.817 875.157,-447.903"/>
<text text-anchor="middle" x="915" y="-465" font-family="Helvetica,sans-Serif" font-size="10.00"> &lt; HHOOK &gt;</text>
</g>
<!-- Node17&#45;&gt;Node16 -->
<g id="edge26" class="edge"><title>Node17&#45;&gt;Node16</title>
<path fill="none" stroke="#9a32cd" stroke-dasharray="5,2" d="M661.358,-385.731C694.222,-398.202 736.827,-414.37 767.455,-425.993"/>
<polygon fill="#9a32cd" stroke="#9a32cd" points="662.523,-382.429 651.932,-382.154 660.039,-388.974 662.523,-382.429"/>
<text text-anchor="middle" x="708" y="-414" font-family="Helvetica,sans-Serif" font-size="10.00"> vPointers</text>
</g>
<!-- Node18&#45;&gt;Node2 -->
<g id="edge32" class="edge"><title>Node18&#45;&gt;Node2</title>
<path fill="none" stroke="orange" stroke-dasharray="5,2" d="M847.697,-101.687C908.594,-133.329 1029.58,-198.886 1124,-267 1147.8,-284.167 1172.89,-307.013 1188.5,-321.86"/>
<polygon fill="orange" stroke="orange" points="849.296,-98.5736 838.806,-97.0868 846.079,-104.791 849.296,-98.5736"/>
<text text-anchor="middle" x="1019" y="-236" font-family="Helvetica,sans-Serif" font-size="10.00"> &lt; HHOOK, tnKey &gt;</text>
</g>
<!-- Node19 -->
<g id="node19" class="node"><title>Node19</title>
<polygon fill="white" stroke="#bfbfbf" points="571,-0.5 571,-19.5 651,-19.5 651,-0.5 571,-0.5"/>
<text text-anchor="middle" x="611" y="-7.5" font-family="Helvetica,sans-Serif" font-size="10.00">Box&lt; tnData &gt;</text>
</g>
<!-- Node19&#45;&gt;Node18 -->
<g id="edge33" class="edge"><title>Node19&#45;&gt;Node18</title>
<path fill="none" stroke="#9a32cd" stroke-dasharray="5,2" d="M661.04,-9.51222C682.823,-10.7679 708.37,-14.3164 730,-23 754.537,-32.8508 777.939,-52.8097 792.369,-66.7734"/>
<polygon fill="#9a32cd" stroke="#9a32cd" points="661.147,-6.01366 651.005,-9.07686 660.844,-13.0071 661.147,-6.01366"/>
<text text-anchor="middle" x="708" y="-26" font-family="Helvetica,sans-Serif" font-size="10.00"> bData</text>
</g>
</g>
</svg>
        <g id="navigator" transform="translate(0 0)" fill="#404254">
                <rect fill="#f2f5e9" fill-opacity="0.5" stroke="#606060" stroke-width=".5" x="0" y="0" width="60" height="60"/>
                <use id="zoomplus" xlink:href="#zoomPlus" x="17" y="9" onmousedown="handleZoom(evt,'in')"/>
                <use id="zoomminus" xlink:href="#zoomMin" x="42" y="9" onmousedown="handleZoom(evt,'out')"/>
                <use id="reset" xlink:href="#resetDef" x="30" y="36" onmousedown="handleReset()"/>
                <g id="arrowUp" xlink:href="#dirArrow" transform="translate(30 24)" onmousedown="handlePan(0,-1)">
                  <use xlink:href="#rim" fill="#404040">
                        <set attributeName="fill" to="#808080" begin="arrowUp.mouseover" end="arrowUp.mouseout"/>
                  </use>
                  <path fill="none" stroke="white" stroke-width="1.5" d="M0,-3.0v7 M-2.5,-0.5L0,-3.0L2.5,-0.5"/>
                </g>
                <g id="arrowRight" xlink:href="#dirArrow" transform="rotate(90) translate(36 -43)" onmousedown="handlePan(1,0)">
                  <use xlink:href="#rim" fill="#404040">
                        <set attributeName="fill" to="#808080" begin="arrowRight.mouseover" end="arrowRight.mouseout"/>
                  </use>
                  <path fill="none" stroke="white" stroke-width="1.5" d="M0,-3.0v7 M-2.5,-0.5L0,-3.0L2.5,-0.5"/>
                </g>
                <g id="arrowDown" xlink:href="#dirArrow" transform="rotate(180) translate(-30 -48)" onmousedown="handlePan(0,1)">
                  <use xlink:href="#rim" fill="#404040">
                        <set attributeName="fill" to="#808080" begin="arrowDown.mouseover" end="arrowDown.mouseout"/>
                  </use>
                  <path fill="none" stroke="white" stroke-width="1.5" d="M0,-3.0v7 M-2.5,-0.5L0,-3.0L2.5,-0.5"/>
                </g>
                <g id="arrowLeft" xlink:href="#dirArrow" transform="rotate(270) translate(-36 17)" onmousedown="handlePan(-1,0)">
                  <use xlink:href="#rim" fill="#404040">
                        <set attributeName="fill" to="#808080" begin="arrowLeft.mouseover" end="arrowLeft.mouseout"/>
                  </use>
                  <path fill="none" stroke="white" stroke-width="1.5" d="M0,-3.0v7 M-2.5,-0.5L0,-3.0L2.5,-0.5"/>
                </g>
        </g>
        <svg viewBox="0 0 15 15" width="100%" height="30px" preserveAspectRatio="xMaxYMin meet">
         <g id="arrow_out" transform="scale(0.3 0.3)">
          <a xlink:href="class_kuszk_a_p_i_1_1_core_1_1_hook__coll__graph_org.svg" target="_base">
           <rect id="button" ry="5" rx="5" y="6" x="6" height="38" width="38"
                fill="#f2f5e9" fill-opacity="0.5" stroke="#606060" stroke-width="1.0"/>
           <path id="arrow"
             d="M 11.500037,31.436501 C 11.940474,20.09759 22.043105,11.32322 32.158766,21.979434 L 37.068811,17.246167 C 37.068811,17.246167 37.088388,32 37.088388,32 L 22.160133,31.978069 C 22.160133,31.978069 26.997745,27.140456 26.997745,27.140456 C 18.528582,18.264221 13.291696,25.230495 11.500037,31.436501 z"
             style="fill:#404040;"/>
          </a>
         </g>
        </svg>
</svg>
