<?xml version="1.0" encoding="UTF-8" standalone="no"?>
<!DOCTYPE svg PUBLIC "-//W3C//DTD SVG 1.1//EN"
 "http://www.w3.org/Graphics/SVG/1.1/DTD/svg11.dtd">
<!-- Generated by graphviz version 2.36.0 (20140111.2315)
 -->
<!-- Title: KuszkAPI::Forms::Label Pages: 1 -->
<svg width="2362pt" height="874pt"
 viewBox="0.00 0.00 2362.00 874.00" xmlns="http://www.w3.org/2000/svg" xmlns:xlink="http://www.w3.org/1999/xlink">
<g id="graph0" class="graph" transform="scale(1 1) rotate(0) translate(4 870)">
<title>KuszkAPI::Forms::Label</title>
<polygon fill="white" stroke="none" points="-4,4 -4,-870 2358,-870 2358,4 -4,4"/>
<!-- Node1 -->
<g id="node1" class="node"><title>Node1</title>
<polygon fill="#bfbfbf" stroke="black" points="2230.5,-753.5 2230.5,-772.5 2353.5,-772.5 2353.5,-753.5 2230.5,-753.5"/>
<text text-anchor="middle" x="2292" y="-760.5" font-family="Helvetica,sans-Serif" font-size="10.00">KuszkAPI::Forms::Label</text>
</g>
<!-- Node2 -->
<g id="node2" class="node"><title>Node2</title>
<g id="a_node2"><a xlink:href="class_kuszk_a_p_i_1_1_forms_1_1_text_control.html" target="_top" xlink:title="KuszkAPI::Forms::TextControl">
<polygon fill="white" stroke="black" points="2008.5,-753.5 2008.5,-772.5 2157.5,-772.5 2157.5,-753.5 2008.5,-753.5"/>
<text text-anchor="middle" x="2083" y="-760.5" font-family="Helvetica,sans-Serif" font-size="10.00">KuszkAPI::Forms::TextControl</text>
</a>
</g>
</g>
<!-- Node2&#45;&gt;Node1 -->
<g id="edge1" class="edge"><title>Node2&#45;&gt;Node1</title>
<path fill="none" stroke="midnightblue" d="M2167.73,-763C2188.67,-763 2210.73,-763 2230.3,-763"/>
<polygon fill="midnightblue" stroke="midnightblue" points="2167.56,-759.5 2157.56,-763 2167.56,-766.5 2167.56,-759.5"/>
</g>
<!-- Node3 -->
<g id="node3" class="node"><title>Node3</title>
<g id="a_node3"><a xlink:href="class_kuszk_a_p_i_1_1_forms_1_1_control.html" target="_top" xlink:title="KuszkAPI::Forms::Control">
<polygon fill="white" stroke="black" points="1838.5,-651.5 1838.5,-670.5 1969.5,-670.5 1969.5,-651.5 1838.5,-651.5"/>
<text text-anchor="middle" x="1904" y="-658.5" font-family="Helvetica,sans-Serif" font-size="10.00">KuszkAPI::Forms::Control</text>
</a>
</g>
</g>
<!-- Node3&#45;&gt;Node2 -->
<g id="edge2" class="edge"><title>Node3&#45;&gt;Node2</title>
<path fill="none" stroke="midnightblue" d="M1921.22,-677.844C1940.28,-696.681 1973.69,-726.796 2008,-744 2015.59,-747.805 2024.01,-750.895 2032.37,-753.39"/>
<polygon fill="midnightblue" stroke="midnightblue" points="1923.49,-675.168 1913.97,-670.533 1918.52,-680.097 1923.49,-675.168"/>
</g>
<!-- Node4 -->
<g id="node4" class="node"><title>Node4</title>
<g id="a_node4"><a xlink:href="class_kuszk_a_p_i_1_1_forms_1_1_window.html" target="_top" xlink:title="KuszkAPI::Forms::Window">
<polygon fill="white" stroke="black" points="1622,-690.5 1622,-709.5 1756,-709.5 1756,-690.5 1622,-690.5"/>
<text text-anchor="middle" x="1689" y="-697.5" font-family="Helvetica,sans-Serif" font-size="10.00">KuszkAPI::Forms::Window</text>
</a>
</g>
</g>
<!-- Node4&#45;&gt;Node3 -->
<g id="edge3" class="edge"><title>Node4&#45;&gt;Node3</title>
<path fill="none" stroke="midnightblue" d="M1752.07,-688.635C1783.49,-682.882 1821.2,-675.978 1851.06,-670.509"/>
<polygon fill="midnightblue" stroke="midnightblue" points="1751.31,-685.216 1742.11,-690.46 1752.57,-692.101 1751.31,-685.216"/>
</g>
<!-- Node5 -->
<g id="node5" class="node"><title>Node5</title>
<polygon fill="white" stroke="#bfbfbf" points="1237.5,-662.5 1237.5,-681.5 1284.5,-681.5 1284.5,-662.5 1237.5,-662.5"/>
<text text-anchor="middle" x="1261" y="-669.5" font-family="Helvetica,sans-Serif" font-size="10.00">HWND</text>
</g>
<!-- Node5&#45;&gt;Node4 -->
<g id="edge4" class="edge"><title>Node5&#45;&gt;Node4</title>
<path fill="none" stroke="#9a32cd" stroke-dasharray="5,2" d="M1294.9,-677.542C1312.41,-680.356 1334.34,-683.664 1354,-686 1464.53,-699.133 1492.69,-701.663 1604,-701 1609.83,-700.965 1615.9,-700.917 1621.97,-700.86"/>
<polygon fill="#9a32cd" stroke="#9a32cd" points="1295.06,-674.021 1284.63,-675.866 1293.94,-680.93 1295.06,-674.021"/>
<text text-anchor="middle" x="1491" y="-716" font-family="Helvetica,sans-Serif" font-size="10.00"> hUchwyt</text>
<text text-anchor="middle" x="1491" y="-705" font-family="Helvetica,sans-Serif" font-size="10.00">hOwner</text>
</g>
<!-- Node6 -->
<g id="node6" class="node"><title>Node6</title>
<g id="a_node6"><a xlink:href="class_kuszk_a_p_i_1_1_forms_1_1_window_1_1_timer.html" target="_top" xlink:title="KuszkAPI::Forms::Window\l::Timer">
<polygon fill="white" stroke="black" points="1424,-653 1424,-683 1558,-683 1558,-653 1424,-653"/>
<text text-anchor="start" x="1432" y="-671" font-family="Helvetica,sans-Serif" font-size="10.00">KuszkAPI::Forms::Window</text>
<text text-anchor="middle" x="1491" y="-660" font-family="Helvetica,sans-Serif" font-size="10.00">::Timer</text>
</a>
</g>
</g>
<!-- Node5&#45;&gt;Node6 -->
<g id="edge6" class="edge"><title>Node5&#45;&gt;Node6</title>
<path fill="none" stroke="#9a32cd" stroke-dasharray="5,2" d="M1294.86,-671.424C1328.39,-670.835 1381.35,-669.906 1423.65,-669.164"/>
<polygon fill="#9a32cd" stroke="#9a32cd" points="1294.63,-667.927 1284.7,-671.602 1294.75,-674.926 1294.63,-667.927"/>
<text text-anchor="middle" x="1380" y="-674" font-family="Helvetica,sans-Serif" font-size="10.00"> hOwner</text>
</g>
<!-- Node28 -->
<g id="node28" class="node"><title>Node28</title>
<g id="a_node28"><a xlink:href="class_kuszk_a_p_i_1_1_forms_1_1_control_1_1_toop_tip.html" target="_top" xlink:title="KuszkAPI::Forms::Control\l::ToopTip">
<polygon fill="white" stroke="black" points="1425.5,-601 1425.5,-631 1556.5,-631 1556.5,-601 1425.5,-601"/>
<text text-anchor="start" x="1433.5" y="-619" font-family="Helvetica,sans-Serif" font-size="10.00">KuszkAPI::Forms::Control</text>
<text text-anchor="middle" x="1491" y="-608" font-family="Helvetica,sans-Serif" font-size="10.00">::ToopTip</text>
</a>
</g>
</g>
<!-- Node5&#45;&gt;Node28 -->
<g id="edge50" class="edge"><title>Node5&#45;&gt;Node28</title>
<path fill="none" stroke="#9a32cd" stroke-dasharray="5,2" d="M1289.75,-657.851C1307.64,-649.332 1331.67,-639.005 1354,-633 1376.86,-626.853 1402.5,-622.916 1425.3,-620.4"/>
<polygon fill="#9a32cd" stroke="#9a32cd" points="1287.95,-654.835 1280.49,-662.359 1291.01,-661.129 1287.95,-654.835"/>
<text text-anchor="middle" x="1380" y="-658" font-family="Helvetica,sans-Serif" font-size="10.00"> hUchwyt</text>
<text text-anchor="middle" x="1380" y="-647" font-family="Helvetica,sans-Serif" font-size="10.00">hOwner</text>
<text text-anchor="middle" x="1380" y="-636" font-family="Helvetica,sans-Serif" font-size="10.00">hWindow</text>
</g>
<!-- Node6&#45;&gt;Node4 -->
<g id="edge5" class="edge"><title>Node6&#45;&gt;Node4</title>
<path fill="none" stroke="#9a32cd" stroke-dasharray="5,2" d="M1568.02,-680.412C1588.53,-683.76 1610.39,-687.329 1629.76,-690.491"/>
<polygon fill="#9a32cd" stroke="#9a32cd" points="1568.52,-676.946 1558.08,-678.789 1567.39,-683.855 1568.52,-676.946"/>
<text text-anchor="middle" x="1590" y="-689" font-family="Helvetica,sans-Serif" font-size="10.00"> Timer</text>
</g>
<!-- Node7 -->
<g id="node7" class="node"><title>Node7</title>
<g id="a_node7"><a xlink:href="class_kuszk_a_p_i_1_1_containers_1_1_map.html" target="_top" xlink:title="KuszkAPI::Containers\l::Map\&lt; UINT_PTR, unsigned \&gt;">
<polygon fill="white" stroke="black" points="1186.5,-537 1186.5,-567 1335.5,-567 1335.5,-537 1186.5,-537"/>
<text text-anchor="start" x="1194.5" y="-555" font-family="Helvetica,sans-Serif" font-size="10.00">KuszkAPI::Containers</text>
<text text-anchor="middle" x="1261" y="-544" font-family="Helvetica,sans-Serif" font-size="10.00">::Map&lt; UINT_PTR, unsigned &gt;</text>
</a>
</g>
</g>
<!-- Node7&#45;&gt;Node6 -->
<g id="edge7" class="edge"><title>Node7&#45;&gt;Node6</title>
<path fill="none" stroke="#9a32cd" stroke-dasharray="5,2" d="M1337.47,-570.441C1361.31,-578.97 1386.5,-591.082 1406,-608 1418.33,-618.694 1411.84,-629.12 1424,-640 1429.75,-645.145 1436.59,-649.441 1443.65,-652.996"/>
<polygon fill="#9a32cd" stroke="#9a32cd" points="1338.3,-567.027 1327.7,-567.116 1336.04,-573.653 1338.3,-567.027"/>
<text text-anchor="middle" x="1380" y="-611" font-family="Helvetica,sans-Serif" font-size="10.00"> mTimer</text>
</g>
<!-- Node8 -->
<g id="node8" class="node"><title>Node8</title>
<g id="a_node8"><a xlink:href="class_kuszk_a_p_i_1_1_containers_1_1_list.html" target="_top" xlink:title="KuszkAPI::Containers\l::List\&lt; unsigned \&gt;">
<polygon fill="white" stroke="black" points="568.5,-120 568.5,-150 681.5,-150 681.5,-120 568.5,-120"/>
<text text-anchor="start" x="576.5" y="-138" font-family="Helvetica,sans-Serif" font-size="10.00">KuszkAPI::Containers</text>
<text text-anchor="middle" x="625" y="-127" font-family="Helvetica,sans-Serif" font-size="10.00">::List&lt; unsigned &gt;</text>
</a>
</g>
</g>
<!-- Node8&#45;&gt;Node7 -->
<g id="edge8" class="edge"><title>Node8&#45;&gt;Node7</title>
<path fill="none" stroke="#9a32cd" stroke-dasharray="5,2" d="M691.425,-148.31C745.642,-160.97 823.636,-183.023 886,-216 995.344,-273.82 1020.88,-297.403 1104,-389 1139.21,-427.799 1142.74,-442.1 1168,-488 1177.21,-504.725 1171.8,-514.239 1186,-527 1190.34,-530.898 1195.3,-534.191 1200.57,-536.974"/>
<polygon fill="#9a32cd" stroke="#9a32cd" points="692.116,-144.878 681.587,-146.055 690.552,-151.701 692.116,-144.878"/>
<text text-anchor="middle" x="938" y="-268" font-family="Helvetica,sans-Serif" font-size="10.00"> lKey</text>
</g>
<!-- Node9 -->
<g id="node9" class="node"><title>Node9</title>
<g id="a_node9"><a xlink:href="class_kuszk_a_p_i_1_1_containers_1_1_container.html" target="_top" xlink:title="Implementacja bazy dla modułu kontenerów. ">
<polygon fill="white" stroke="black" points="132.5,-418 132.5,-448 245.5,-448 245.5,-418 132.5,-418"/>
<text text-anchor="start" x="140.5" y="-436" font-family="Helvetica,sans-Serif" font-size="10.00">KuszkAPI::Containers</text>
<text text-anchor="middle" x="189" y="-425" font-family="Helvetica,sans-Serif" font-size="10.00">::Container</text>
</a>
</g>
</g>
<!-- Node9&#45;&gt;Node8 -->
<g id="edge9" class="edge"><title>Node9&#45;&gt;Node8</title>
<path fill="none" stroke="midnightblue" d="M195.901,-408.087C206.542,-366.363 231.665,-280.758 272,-218 295.279,-181.78 300.703,-166.595 340,-149 413.665,-116.017 509.079,-119.454 568.412,-126.244"/>
<polygon fill="midnightblue" stroke="midnightblue" points="192.467,-407.393 193.451,-417.942 199.26,-409.082 192.467,-407.393"/>
</g>
<!-- Node13 -->
<g id="node13" class="node"><title>Node13</title>
<g id="a_node13"><a xlink:href="class_kuszk_a_p_i_1_1_containers_1_1_list.html" target="_top" xlink:title="Implementacja szablonu listy dla modułu kontenerów. ">
<polygon fill="white" stroke="black" points="340.5,-222 340.5,-252 453.5,-252 453.5,-222 340.5,-222"/>
<text text-anchor="start" x="348.5" y="-240" font-family="Helvetica,sans-Serif" font-size="10.00">KuszkAPI::Containers</text>
<text text-anchor="middle" x="397" y="-229" font-family="Helvetica,sans-Serif" font-size="10.00">::List&lt; tnData &gt;</text>
</a>
</g>
</g>
<!-- Node9&#45;&gt;Node13 -->
<g id="edge16" class="edge"><title>Node9&#45;&gt;Node13</title>
<path fill="none" stroke="midnightblue" d="M199.962,-408.084C212.848,-378.457 237.77,-329.002 272,-297 293.837,-276.584 323.913,-261.8 348.975,-252.016"/>
<polygon fill="midnightblue" stroke="midnightblue" points="196.577,-407.102 195.91,-417.676 203.026,-409.826 196.577,-407.102"/>
</g>
<!-- Node16 -->
<g id="node16" class="node"><title>Node16</title>
<g id="a_node16"><a xlink:href="class_kuszk_a_p_i_1_1_containers_1_1_vector.html" target="_top" xlink:title="KuszkAPI::Containers\l::Vector\&lt; UINT_PTR * \&gt;">
<polygon fill="white" stroke="black" points="564.5,-427 564.5,-457 685.5,-457 685.5,-427 564.5,-427"/>
<text text-anchor="start" x="572.5" y="-445" font-family="Helvetica,sans-Serif" font-size="10.00">KuszkAPI::Containers</text>
<text text-anchor="middle" x="625" y="-434" font-family="Helvetica,sans-Serif" font-size="10.00">::Vector&lt; UINT_PTR * &gt;</text>
</a>
</g>
</g>
<!-- Node9&#45;&gt;Node16 -->
<g id="edge22" class="edge"><title>Node9&#45;&gt;Node16</title>
<path fill="none" stroke="midnightblue" d="M256.023,-434.369C339.89,-436.108 483.403,-439.084 564.192,-440.76"/>
<polygon fill="midnightblue" stroke="midnightblue" points="255.92,-430.866 245.849,-434.158 255.775,-437.865 255.92,-430.866"/>
</g>
<!-- Node19 -->
<g id="node19" class="node"><title>Node19</title>
<g id="a_node19"><a xlink:href="class_kuszk_a_p_i_1_1_containers_1_1_vector.html" target="_top" xlink:title="KuszkAPI::Containers\l::Vector\&lt; tnData \&gt;">
<polygon fill="white" stroke="black" points="340.5,-576 340.5,-606 453.5,-606 453.5,-576 340.5,-576"/>
<text text-anchor="start" x="348.5" y="-594" font-family="Helvetica,sans-Serif" font-size="10.00">KuszkAPI::Containers</text>
<text text-anchor="middle" x="397" y="-583" font-family="Helvetica,sans-Serif" font-size="10.00">::Vector&lt; tnData &gt;</text>
</a>
</g>
</g>
<!-- Node9&#45;&gt;Node19 -->
<g id="edge27" class="edge"><title>Node9&#45;&gt;Node19</title>
<path fill="none" stroke="midnightblue" d="M212.338,-455.587C240.336,-483.026 290.661,-529.538 340,-561 348.184,-566.218 357.358,-571.394 365.875,-575.94"/>
<polygon fill="midnightblue" stroke="midnightblue" points="214.624,-452.925 205.053,-448.382 209.702,-457.903 214.624,-452.925"/>
</g>
<!-- Node21 -->
<g id="node21" class="node"><title>Node21</title>
<g id="a_node21"><a xlink:href="class_kuszk_a_p_i_1_1_containers_1_1_vector.html" target="_top" xlink:title="KuszkAPI::Containers\l::Vector\&lt; tnData * \&gt;">
<polygon fill="white" stroke="black" points="568.5,-609 568.5,-639 681.5,-639 681.5,-609 568.5,-609"/>
<text text-anchor="start" x="576.5" y="-627" font-family="Helvetica,sans-Serif" font-size="10.00">KuszkAPI::Containers</text>
<text text-anchor="middle" x="625" y="-616" font-family="Helvetica,sans-Serif" font-size="10.00">::Vector&lt; tnData * &gt;</text>
</a>
</g>
</g>
<!-- Node9&#45;&gt;Node21 -->
<g id="edge34" class="edge"><title>Node9&#45;&gt;Node21</title>
<path fill="none" stroke="midnightblue" d="M255.526,-449.447C277.336,-456.188 301.323,-465.025 322,-476 330.952,-480.752 331.365,-484.694 340,-490 423.38,-541.23 529.459,-586.498 585.412,-608.978"/>
<polygon fill="midnightblue" stroke="midnightblue" points="256.262,-446.014 245.678,-446.497 254.253,-452.719 256.262,-446.014"/>
</g>
<!-- Node24 -->
<g id="node24" class="node"><title>Node24</title>
<g id="a_node24"><a xlink:href="class_kuszk_a_p_i_1_1_containers_1_1_list.html" target="_top" xlink:title="KuszkAPI::Containers\l::List\&lt; tnKey \&gt;">
<polygon fill="white" stroke="black" points="568.5,-250 568.5,-280 681.5,-280 681.5,-250 568.5,-250"/>
<text text-anchor="start" x="576.5" y="-268" font-family="Helvetica,sans-Serif" font-size="10.00">KuszkAPI::Containers</text>
<text text-anchor="middle" x="625" y="-257" font-family="Helvetica,sans-Serif" font-size="10.00">::List&lt; tnKey &gt;</text>
</a>
</g>
</g>
<!-- Node9&#45;&gt;Node24 -->
<g id="edge41" class="edge"><title>Node9&#45;&gt;Node24</title>
<path fill="none" stroke="midnightblue" d="M238.244,-414.325C324.97,-380.754 505.562,-310.847 585.035,-280.083"/>
<polygon fill="midnightblue" stroke="midnightblue" points="236.959,-411.069 228.897,-417.943 239.486,-417.597 236.959,-411.069"/>
</g>
<!-- Node10 -->
<g id="node10" class="node"><title>Node10</title>
<g id="a_node10"><a xlink:href="namespace_3global_scope_4.html#classunsigned" target="_top" xlink:title="unsigned">
<polygon fill="white" stroke="black" points="0,-644.5 0,-663.5 56,-663.5 56,-644.5 0,-644.5"/>
<text text-anchor="middle" x="28" y="-651.5" font-family="Helvetica,sans-Serif" font-size="10.00">unsigned</text>
</a>
</g>
</g>
<!-- Node10&#45;&gt;Node1 -->
<g id="edge54" class="edge"><title>Node10&#45;&gt;Node1</title>
<path fill="none" stroke="#9a32cd" stroke-dasharray="5,2" d="M32.8371,-673.56C38.592,-699.421 51.2859,-745.609 74,-779 108.25,-829.349 127.106,-855 188,-855 188,-855 188,-855 2084,-855 2164.23,-855 2248.04,-796.579 2278.78,-772.846"/>
<polygon fill="#9a32cd" stroke="#9a32cd" points="36.2095,-672.589 30.728,-663.522 29.3591,-674.028 36.2095,-672.589"/>
<text text-anchor="middle" x="1145" y="-858" font-family="Helvetica,sans-Serif" font-size="10.00"> uImgType</text>
</g>
<!-- Node10&#45;&gt;Node3 -->
<g id="edge52" class="edge"><title>Node10&#45;&gt;Node3</title>
<path fill="none" stroke="#9a32cd" stroke-dasharray="5,2" d="M35.5644,-673.15C42.8712,-692.623 56.0562,-722.982 74,-745 111.858,-791.453 128.074,-817 188,-817 188,-817 188,-817 1690,-817 1789.46,-817 1873.35,-704.911 1896.6,-670.758"/>
<polygon fill="#9a32cd" stroke="#9a32cd" points="38.7973,-671.797 32.1169,-663.574 32.2111,-674.168 38.7973,-671.797"/>
<text text-anchor="middle" x="938" y="-820" font-family="Helvetica,sans-Serif" font-size="10.00"> uId</text>
</g>
<!-- Node10&#45;&gt;Node7 -->
<g id="edge19" class="edge"><title>Node10&#45;&gt;Node7</title>
<path fill="none" stroke="#9a32cd" stroke-dasharray="5,2" d="M40.5898,-672.413C63.9216,-706.95 120.165,-778 188,-778 188,-778 188,-778 1048,-778 1076.98,-778 1207.4,-617.851 1247.94,-567.179"/>
<polygon fill="#9a32cd" stroke="#9a32cd" points="43.308,-670.176 34.8995,-663.73 37.4532,-674.013 43.308,-670.176"/>
<text text-anchor="middle" x="625" y="-781" font-family="Helvetica,sans-Serif" font-size="10.00"> uIlosc</text>
</g>
<!-- Node10&#45;&gt;Node8 -->
<g id="edge14" class="edge"><title>Node10&#45;&gt;Node8</title>
<path fill="none" stroke="#9a32cd" stroke-dasharray="5,2" d="M29.6739,-634.325C32.7565,-548.89 46.5562,-212.681 74,-175 176.061,-34.8689 280.705,-82.2944 454,-87 494.934,-88.1115 506.635,-80.7204 546,-92 566.662,-97.9205 587.882,-110.089 602.963,-119.975"/>
<polygon fill="#9a32cd" stroke="#9a32cd" points="26.1711,-634.346 29.3165,-644.463 33.1668,-634.593 26.1711,-634.346"/>
<text text-anchor="middle" x="297" y="-81" font-family="Helvetica,sans-Serif" font-size="10.00"> tAbstract</text>
</g>
<!-- Node10&#45;&gt;Node9 -->
<g id="edge10" class="edge"><title>Node10&#45;&gt;Node9</title>
<path fill="none" stroke="#9a32cd" stroke-dasharray="5,2" d="M29.0287,-634.16C30.1102,-599.812 37.0281,-528.758 74,-485 89.0223,-467.221 111.402,-455.219 132.365,-447.272"/>
<polygon fill="#9a32cd" stroke="#9a32cd" points="25.5266,-634.249 28.8506,-644.309 32.5256,-634.372 25.5266,-634.249"/>
<text text-anchor="middle" x="90" y="-499" font-family="Helvetica,sans-Serif" font-size="10.00"> uIlosc</text>
<text text-anchor="middle" x="90" y="-488" font-family="Helvetica,sans-Serif" font-size="10.00">uMode</text>
</g>
<!-- Node15 -->
<g id="node15" class="node"><title>Node15</title>
<g id="a_node15"><a xlink:href="class_kuszk_a_p_i_1_1_containers_1_1_box.html" target="_top" xlink:title="KuszkAPI::Containers\l::Box\&lt; UINT_PTR \&gt;">
<polygon fill="white" stroke="black" points="990.5,-525 990.5,-555 1103.5,-555 1103.5,-525 990.5,-525"/>
<text text-anchor="start" x="998.5" y="-543" font-family="Helvetica,sans-Serif" font-size="10.00">KuszkAPI::Containers</text>
<text text-anchor="middle" x="1047" y="-532" font-family="Helvetica,sans-Serif" font-size="10.00">::Box&lt; UINT_PTR &gt;</text>
</a>
</g>
</g>
<!-- Node10&#45;&gt;Node15 -->
<g id="edge30" class="edge"><title>Node10&#45;&gt;Node15</title>
<path fill="none" stroke="#9a32cd" stroke-dasharray="5,2" d="M42.8416,-636.369C59.6128,-616.539 89.8948,-585.361 124,-572 282.917,-509.742 816.259,-528.967 990.45,-537.153"/>
<polygon fill="#9a32cd" stroke="#9a32cd" points="39.9467,-634.38 36.315,-644.333 45.3608,-638.817 39.9467,-634.38"/>
<text text-anchor="middle" x="509" y="-533" font-family="Helvetica,sans-Serif" font-size="10.00"> uIlosc</text>
</g>
<!-- Node10&#45;&gt;Node16 -->
<g id="edge24" class="edge"><title>Node10&#45;&gt;Node16</title>
<path fill="none" stroke="#9a32cd" stroke-dasharray="5,2" d="M29.7803,-634.182C32.0187,-596.94 40.6632,-514.954 74,-456 89.1628,-429.185 97.0876,-422.989 124,-408 288.022,-316.648 370.865,-321.353 546,-389 568.908,-397.848 591.75,-414.524 606.739,-426.816"/>
<polygon fill="#9a32cd" stroke="#9a32cd" points="26.2819,-634.064 29.271,-644.228 33.2729,-634.419 26.2819,-634.064"/>
<text text-anchor="middle" x="297" y="-350" font-family="Helvetica,sans-Serif" font-size="10.00"> uDataSize</text>
</g>
<!-- Node10&#45;&gt;Node19 -->
<g id="edge29" class="edge"><title>Node10&#45;&gt;Node19</title>
<path fill="none" stroke="#9a32cd" stroke-dasharray="5,2" d="M66.1605,-651.842C122.23,-648.019 231.522,-638.352 322,-617 333.928,-614.185 346.615,-610.136 358.053,-606.068"/>
<polygon fill="#9a32cd" stroke="#9a32cd" points="65.751,-648.361 56.0022,-652.51 66.2104,-655.346 65.751,-648.361"/>
<text text-anchor="middle" x="189" y="-650" font-family="Helvetica,sans-Serif" font-size="10.00"> uDataSize</text>
</g>
<!-- Node20 -->
<g id="node20" class="node"><title>Node20</title>
<g id="a_node20"><a xlink:href="class_kuszk_a_p_i_1_1_containers_1_1_box.html" target="_top" xlink:title="Implementacja szablonu pudełka dla modułu kontenerów. ">
<polygon fill="white" stroke="black" points="769.5,-609 769.5,-639 882.5,-639 882.5,-609 769.5,-609"/>
<text text-anchor="start" x="777.5" y="-627" font-family="Helvetica,sans-Serif" font-size="10.00">KuszkAPI::Containers</text>
<text text-anchor="middle" x="826" y="-616" font-family="Helvetica,sans-Serif" font-size="10.00">::Box&lt; tnData &gt;</text>
</a>
</g>
</g>
<!-- Node10&#45;&gt;Node20 -->
<g id="edge32" class="edge"><title>Node10&#45;&gt;Node20</title>
<path fill="none" stroke="#9a32cd" stroke-dasharray="5,2" d="M50.9201,-669.054C57.9752,-673.093 66.0351,-676.915 74,-679 159.132,-701.289 183.999,-679.778 272,-680 294.222,-680.056 299.784,-680.505 322,-680 484.36,-676.312 524.947,-668.887 686,-648 713.613,-644.419 720.549,-643.663 748,-639 754.848,-637.837 762.023,-636.542 769.124,-635.213"/>
<polygon fill="#9a32cd" stroke="#9a32cd" points="52.3719,-665.837 42.0256,-663.555 48.6909,-671.791 52.3719,-665.837"/>
<text text-anchor="middle" x="397" y="-683" font-family="Helvetica,sans-Serif" font-size="10.00"> uIlosc</text>
</g>
<!-- Node10&#45;&gt;Node21 -->
<g id="edge36" class="edge"><title>Node10&#45;&gt;Node21</title>
<path fill="none" stroke="#9a32cd" stroke-dasharray="5,2" d="M66.3422,-662.948C68.9235,-663.366 71.4941,-663.725 74,-664 88.1373,-665.552 91.7781,-664.096 106,-664 260.704,-662.955 299.785,-668.34 454,-656 495.104,-652.711 505.51,-651.802 546,-644 553.413,-642.572 561.169,-640.856 568.793,-639.038"/>
<polygon fill="#9a32cd" stroke="#9a32cd" points="66.9196,-659.496 56.4466,-661.097 65.6326,-666.376 66.9196,-659.496"/>
<text text-anchor="middle" x="297" y="-668" font-family="Helvetica,sans-Serif" font-size="10.00"> uDataSize</text>
</g>
<!-- Node22 -->
<g id="node22" class="node"><title>Node22</title>
<g id="a_node22"><a xlink:href="class_kuszk_a_p_i_1_1_containers_1_1_map.html" target="_top" xlink:title="KuszkAPI::Containers\l::Map\&lt; tnData, tnKey \&gt;">
<polygon fill="white" stroke="black" points="766.5,-226 766.5,-256 885.5,-256 885.5,-226 766.5,-226"/>
<text text-anchor="start" x="774.5" y="-244" font-family="Helvetica,sans-Serif" font-size="10.00">KuszkAPI::Containers</text>
<text text-anchor="middle" x="826" y="-233" font-family="Helvetica,sans-Serif" font-size="10.00">::Map&lt; tnData, tnKey &gt;</text>
</a>
</g>
</g>
<!-- Node10&#45;&gt;Node22 -->
<g id="edge45" class="edge"><title>Node10&#45;&gt;Node22</title>
<path fill="none" stroke="#9a32cd" stroke-dasharray="5,2" d="M29.2057,-633.967C30.2978,-550.234 36.8774,-228.302 74,-135 103.032,-62.0325 109.469,-0 188,-0 188,-0 188,-0 626,-0 743.746,-0 804.861,-173.164 820.75,-225.924"/>
<polygon fill="#9a32cd" stroke="#9a32cd" points="25.7038,-634.112 29.0854,-644.152 32.7033,-634.194 25.7038,-634.112"/>
<text text-anchor="middle" x="397" y="-3" font-family="Helvetica,sans-Serif" font-size="10.00"> uIlosc</text>
</g>
<!-- Node11 -->
<g id="node11" class="node"><title>Node11</title>
<g id="a_node11"><a xlink:href="class_kuszk_a_p_i_1_1_containers_1_1_list.html#struct_kuszk_a_p_i_1_1_containers_1_1_list_1_1_item_data" target="_top" xlink:title="Struktura przechowująca wskaźnik na element listy oraz wskaźnik na kolejny obiekt. ">
<polygon fill="white" stroke="black" points="124,-164 124,-194 254,-194 254,-164 124,-164"/>
<text text-anchor="start" x="132" y="-182" font-family="Helvetica,sans-Serif" font-size="10.00">KuszkAPI::Containers</text>
<text text-anchor="middle" x="189" y="-171" font-family="Helvetica,sans-Serif" font-size="10.00">::List&lt; tnData &gt;::ItemData</text>
</a>
</g>
</g>
<!-- Node11&#45;&gt;Node8 -->
<g id="edge11" class="edge"><title>Node11&#45;&gt;Node8</title>
<path fill="none" stroke="#9a32cd" stroke-dasharray="5,2" d="M218.9,-157.998C247.876,-138.342 294.59,-110.352 340,-99 424.137,-77.9657 525.528,-102.334 581.558,-119.981"/>
<polygon fill="#9a32cd" stroke="#9a32cd" points="216.736,-155.239 210.499,-163.803 220.716,-160.998 216.736,-155.239"/>
<text text-anchor="middle" x="397" y="-113" font-family="Helvetica,sans-Serif" font-size="10.00"> ptLast</text>
<text text-anchor="middle" x="397" y="-102" font-family="Helvetica,sans-Serif" font-size="10.00">ptBegin</text>
</g>
<!-- Node11&#45;&gt;Node11 -->
<g id="edge12" class="edge"><title>Node11&#45;&gt;Node11</title>
<path fill="none" stroke="#9a32cd" stroke-dasharray="5,2" d="M171.846,-204.598C174.19,-208.97 179.908,-212 189,-212 204.313,-212 210.055,-203.406 206.227,-194.275"/>
<polygon fill="#9a32cd" stroke="#9a32cd" points="175.344,-204.25 171.773,-194.275 168.344,-204.3 175.344,-204.25"/>
<text text-anchor="middle" x="189" y="-215" font-family="Helvetica,sans-Serif" font-size="10.00"> ptNext</text>
</g>
<!-- Node11&#45;&gt;Node13 -->
<g id="edge18" class="edge"><title>Node11&#45;&gt;Node13</title>
<path fill="none" stroke="#9a32cd" stroke-dasharray="5,2" d="M253.212,-196.797C281.803,-204.848 315.228,-214.258 342.548,-221.95"/>
<polygon fill="#9a32cd" stroke="#9a32cd" points="253.892,-193.353 243.318,-194.012 251.995,-200.091 253.892,-193.353"/>
<text text-anchor="middle" x="297" y="-229" font-family="Helvetica,sans-Serif" font-size="10.00"> ptLast</text>
<text text-anchor="middle" x="297" y="-218" font-family="Helvetica,sans-Serif" font-size="10.00">ptBegin</text>
</g>
<!-- Node11&#45;&gt;Node24 -->
<g id="edge42" class="edge"><title>Node11&#45;&gt;Node24</title>
<path fill="none" stroke="#9a32cd" stroke-dasharray="5,2" d="M257.397,-161.884C334.683,-146.451 461.566,-134.429 546,-195 563.503,-207.556 548.878,-224.66 564,-240 567.803,-243.857 572.289,-247.147 577.068,-249.947"/>
<polygon fill="#9a32cd" stroke="#9a32cd" points="256.377,-158.521 247.295,-163.977 257.797,-165.375 256.377,-158.521"/>
<text text-anchor="middle" x="397" y="-170" font-family="Helvetica,sans-Serif" font-size="10.00"> ptLast</text>
<text text-anchor="middle" x="397" y="-159" font-family="Helvetica,sans-Serif" font-size="10.00">ptBegin</text>
</g>
<!-- Node12 -->
<g id="node12" class="node"><title>Node12</title>
<polygon fill="white" stroke="#bfbfbf" points="2,-169.5 2,-188.5 54,-188.5 54,-169.5 2,-169.5"/>
<text text-anchor="middle" x="28" y="-176.5" font-family="Helvetica,sans-Serif" font-size="10.00">tnData *</text>
</g>
<!-- Node12&#45;&gt;Node11 -->
<g id="edge13" class="edge"><title>Node12&#45;&gt;Node11</title>
<path fill="none" stroke="#9a32cd" stroke-dasharray="5,2" d="M64.4904,-179C81.966,-179 103.584,-179 123.825,-179"/>
<polygon fill="#9a32cd" stroke="#9a32cd" points="64.1941,-175.5 54.194,-179 64.194,-182.5 64.1941,-175.5"/>
<text text-anchor="middle" x="90" y="-182" font-family="Helvetica,sans-Serif" font-size="10.00"> ptData</text>
</g>
<!-- Node13&#45;&gt;Node8 -->
<g id="edge15" class="edge"><title>Node13&#45;&gt;Node8</title>
<path fill="none" stroke="orange" stroke-dasharray="5,2" d="M440.524,-217.808C484.001,-198.186 550.647,-168.106 590.516,-150.112"/>
<polygon fill="orange" stroke="orange" points="439.022,-214.646 431.347,-221.95 441.902,-221.026 439.022,-214.646"/>
<text text-anchor="middle" x="509" y="-205" font-family="Helvetica,sans-Serif" font-size="10.00"> &lt; unsigned &gt;</text>
</g>
<!-- Node13&#45;&gt;Node24 -->
<g id="edge44" class="edge"><title>Node13&#45;&gt;Node24</title>
<path fill="none" stroke="orange" stroke-dasharray="5,2" d="M463.636,-245.132C496.793,-249.24 536.593,-254.171 568.248,-258.093"/>
<polygon fill="orange" stroke="orange" points="463.93,-241.642 453.575,-243.885 463.069,-248.588 463.93,-241.642"/>
<text text-anchor="middle" x="509" y="-259" font-family="Helvetica,sans-Serif" font-size="10.00"> &lt; tnKey &gt;</text>
</g>
<!-- Node14 -->
<g id="node14" class="node"><title>Node14</title>
<polygon fill="white" stroke="#bfbfbf" points="166.5,-581.5 166.5,-600.5 211.5,-600.5 211.5,-581.5 166.5,-581.5"/>
<text text-anchor="middle" x="189" y="-588.5" font-family="Helvetica,sans-Serif" font-size="10.00">tnData</text>
</g>
<!-- Node14&#45;&gt;Node13 -->
<g id="edge17" class="edge"><title>Node14&#45;&gt;Node13</title>
<path fill="none" stroke="#9a32cd" stroke-dasharray="5,2" d="M201.476,-572.373C226.564,-530.945 286.855,-427.448 322,-334 333.611,-303.126 318.802,-287.272 340,-262 343.216,-258.166 347.138,-254.897 351.4,-252.115"/>
<polygon fill="#9a32cd" stroke="#9a32cd" points="198.37,-570.743 196.152,-581.103 204.347,-574.388 198.37,-570.743"/>
<text text-anchor="middle" x="297" y="-446" font-family="Helvetica,sans-Serif" font-size="10.00"> tAbstract</text>
</g>
<!-- Node14&#45;&gt;Node19 -->
<g id="edge28" class="edge"><title>Node14&#45;&gt;Node19</title>
<path fill="none" stroke="#9a32cd" stroke-dasharray="5,2" d="M222.045,-591C253.583,-591 302.387,-591 340.284,-591"/>
<polygon fill="#9a32cd" stroke="#9a32cd" points="221.656,-587.5 211.656,-591 221.656,-594.5 221.656,-587.5"/>
<text text-anchor="middle" x="297" y="-605" font-family="Helvetica,sans-Serif" font-size="10.00"> tAbstract</text>
<text text-anchor="middle" x="297" y="-594" font-family="Helvetica,sans-Serif" font-size="10.00">ptBegin</text>
</g>
<!-- Node14&#45;&gt;Node21 -->
<g id="edge35" class="edge"><title>Node14&#45;&gt;Node21</title>
<path fill="none" stroke="#9a32cd" stroke-dasharray="5,2" d="M221.473,-601.974C236.571,-606.782 255.028,-612.002 272,-615 375.392,-633.261 498.49,-631.071 568.315,-627.651"/>
<polygon fill="#9a32cd" stroke="#9a32cd" points="222.209,-598.532 211.616,-598.744 220.029,-605.184 222.209,-598.532"/>
<text text-anchor="middle" x="397" y="-644" font-family="Helvetica,sans-Serif" font-size="10.00"> tAbstract</text>
<text text-anchor="middle" x="397" y="-633" font-family="Helvetica,sans-Serif" font-size="10.00">ptBegin</text>
</g>
<!-- Node15&#45;&gt;Node7 -->
<g id="edge20" class="edge"><title>Node15&#45;&gt;Node7</title>
<path fill="none" stroke="#9a32cd" stroke-dasharray="5,2" d="M1113.7,-543.719C1136.72,-545.022 1162.71,-546.493 1186.33,-547.83"/>
<polygon fill="#9a32cd" stroke="#9a32cd" points="1113.88,-540.224 1103.7,-543.153 1113.49,-547.212 1113.88,-540.224"/>
<text text-anchor="middle" x="1145" y="-550" font-family="Helvetica,sans-Serif" font-size="10.00"> bData</text>
</g>
<!-- Node16&#45;&gt;Node15 -->
<g id="edge21" class="edge"><title>Node16&#45;&gt;Node15</title>
<path fill="none" stroke="#9a32cd" stroke-dasharray="5,2" d="M695.728,-453.7C766.072,-466.159 877.494,-487.69 972,-514 983.282,-517.141 995.335,-521.106 1006.37,-524.986"/>
<polygon fill="#9a32cd" stroke="#9a32cd" points="696.109,-450.214 685.654,-451.928 694.897,-457.108 696.109,-450.214"/>
<text text-anchor="middle" x="826" y="-495" font-family="Helvetica,sans-Serif" font-size="10.00"> vPointers</text>
</g>
<!-- Node17 -->
<g id="node17" class="node"><title>Node17</title>
<polygon fill="white" stroke="#bfbfbf" points="363,-385.5 363,-404.5 431,-404.5 431,-385.5 363,-385.5"/>
<text text-anchor="middle" x="397" y="-392.5" font-family="Helvetica,sans-Serif" font-size="10.00">UINT_PTR *</text>
</g>
<!-- Node17&#45;&gt;Node16 -->
<g id="edge23" class="edge"><title>Node17&#45;&gt;Node16</title>
<path fill="none" stroke="#9a32cd" stroke-dasharray="5,2" d="M441.35,-392.265C471.253,-391.531 511.649,-392.841 546,-402 565.704,-407.254 586.152,-417.967 601.166,-426.985"/>
<polygon fill="#9a32cd" stroke="#9a32cd" points="441.117,-388.771 431.238,-392.6 441.349,-395.767 441.117,-388.771"/>
<text text-anchor="middle" x="509" y="-405" font-family="Helvetica,sans-Serif" font-size="10.00"> tAbstract</text>
</g>
<!-- Node18 -->
<g id="node18" class="node"><title>Node18</title>
<polygon fill="white" stroke="#bfbfbf" points="361,-461.5 361,-480.5 433,-480.5 433,-461.5 361,-461.5"/>
<text text-anchor="middle" x="397" y="-468.5" font-family="Helvetica,sans-Serif" font-size="10.00">UINT_PTR **</text>
</g>
<!-- Node18&#45;&gt;Node16 -->
<g id="edge25" class="edge"><title>Node18&#45;&gt;Node16</title>
<path fill="none" stroke="#9a32cd" stroke-dasharray="5,2" d="M443.399,-464.792C452.849,-463.52 462.748,-462.203 472,-461 502.46,-457.038 536.375,-452.784 564.427,-449.307"/>
<polygon fill="#9a32cd" stroke="#9a32cd" points="442.814,-461.339 433.372,-466.147 443.751,-468.276 442.814,-461.339"/>
<text text-anchor="middle" x="509" y="-464" font-family="Helvetica,sans-Serif" font-size="10.00"> ptBegin</text>
</g>
<!-- Node19&#45;&gt;Node16 -->
<g id="edge26" class="edge"><title>Node19&#45;&gt;Node16</title>
<path fill="none" stroke="orange" stroke-dasharray="5,2" d="M410.949,-566.682C423.728,-544.911 445.213,-513.631 472,-495 500.274,-475.334 513.465,-483.299 546,-472 559.158,-467.431 573.416,-462.069 586.099,-457.153"/>
<polygon fill="orange" stroke="orange" points="407.751,-565.227 405.859,-575.651 413.839,-568.682 407.751,-565.227"/>
<text text-anchor="middle" x="509" y="-498" font-family="Helvetica,sans-Serif" font-size="10.00"> &lt; UINT_PTR * &gt;</text>
</g>
<!-- Node19&#45;&gt;Node21 -->
<g id="edge37" class="edge"><title>Node19&#45;&gt;Node21</title>
<path fill="none" stroke="orange" stroke-dasharray="5,2" d="M463.636,-600.584C496.793,-605.425 536.593,-611.237 568.248,-615.859"/>
<polygon fill="orange" stroke="orange" points="463.976,-597.097 453.575,-599.115 462.965,-604.023 463.976,-597.097"/>
<text text-anchor="middle" x="509" y="-616" font-family="Helvetica,sans-Serif" font-size="10.00"> &lt; tnData * &gt;</text>
</g>
<!-- Node20&#45;&gt;Node15 -->
<g id="edge31" class="edge"><title>Node20&#45;&gt;Node15</title>
<path fill="none" stroke="orange" stroke-dasharray="5,2" d="M875.839,-605.267C915.32,-590.124 970.173,-569.084 1006.82,-555.029"/>
<polygon fill="orange" stroke="orange" points="874.236,-602.133 866.153,-608.982 876.743,-608.669 874.236,-602.133"/>
<text text-anchor="middle" x="938" y="-598" font-family="Helvetica,sans-Serif" font-size="10.00"> &lt; UINT_PTR &gt;</text>
</g>
<!-- Node21&#45;&gt;Node20 -->
<g id="edge33" class="edge"><title>Node21&#45;&gt;Node20</title>
<path fill="none" stroke="#9a32cd" stroke-dasharray="5,2" d="M691.862,-624C716.947,-624 745.266,-624 769.316,-624"/>
<polygon fill="#9a32cd" stroke="#9a32cd" points="691.697,-620.5 681.697,-624 691.697,-627.5 691.697,-620.5"/>
<text text-anchor="middle" x="726" y="-627" font-family="Helvetica,sans-Serif" font-size="10.00"> vPointers</text>
</g>
<!-- Node22&#45;&gt;Node7 -->
<g id="edge38" class="edge"><title>Node22&#45;&gt;Node7</title>
<path fill="none" stroke="orange" stroke-dasharray="5,2" d="M849.268,-263.472C902.772,-316.336 1044.64,-449.91 1186,-527 1192.79,-530.701 1200.22,-533.993 1207.67,-536.875"/>
<polygon fill="orange" stroke="orange" points="851.586,-260.841 842.026,-256.274 846.652,-265.806 851.586,-260.841"/>
<text text-anchor="middle" x="1047" y="-479" font-family="Helvetica,sans-Serif" font-size="10.00"> &lt; UINT_PTR, unsigned &gt;</text>
</g>
<!-- Node23 -->
<g id="node23" class="node"><title>Node23</title>
<polygon fill="white" stroke="#bfbfbf" points="585,-211.5 585,-230.5 665,-230.5 665,-211.5 585,-211.5"/>
<text text-anchor="middle" x="625" y="-218.5" font-family="Helvetica,sans-Serif" font-size="10.00">Box&lt; tnData &gt;</text>
</g>
<!-- Node23&#45;&gt;Node22 -->
<g id="edge39" class="edge"><title>Node23&#45;&gt;Node22</title>
<path fill="none" stroke="#9a32cd" stroke-dasharray="5,2" d="M675.336,-221.96C697.592,-222.77 724.175,-224.26 748,-227 753.939,-227.683 760.112,-228.545 766.261,-229.504"/>
<polygon fill="#9a32cd" stroke="#9a32cd" points="675.226,-218.455 665.116,-221.624 674.996,-225.451 675.226,-218.455"/>
<text text-anchor="middle" x="726" y="-230" font-family="Helvetica,sans-Serif" font-size="10.00"> bData</text>
</g>
<!-- Node24&#45;&gt;Node22 -->
<g id="edge40" class="edge"><title>Node24&#45;&gt;Node22</title>
<path fill="none" stroke="#9a32cd" stroke-dasharray="5,2" d="M691.792,-257.065C715.815,-254.168 742.812,-250.912 766.189,-248.093"/>
<polygon fill="#9a32cd" stroke="#9a32cd" points="691.206,-253.61 681.697,-258.283 692.044,-260.56 691.206,-253.61"/>
<text text-anchor="middle" x="726" y="-259" font-family="Helvetica,sans-Serif" font-size="10.00"> lKey</text>
</g>
<!-- Node25 -->
<g id="node25" class="node"><title>Node25</title>
<polygon fill="white" stroke="#bfbfbf" points="376,-271.5 376,-290.5 418,-290.5 418,-271.5 376,-271.5"/>
<text text-anchor="middle" x="397" y="-278.5" font-family="Helvetica,sans-Serif" font-size="10.00">tnKey</text>
</g>
<!-- Node25&#45;&gt;Node24 -->
<g id="edge43" class="edge"><title>Node25&#45;&gt;Node24</title>
<path fill="none" stroke="#9a32cd" stroke-dasharray="5,2" d="M428.315,-278.854C464.036,-276.325 524.108,-272.072 568.291,-268.944"/>
<polygon fill="#9a32cd" stroke="#9a32cd" points="427.784,-275.383 418.056,-279.58 428.278,-282.365 427.784,-275.383"/>
<text text-anchor="middle" x="509" y="-279" font-family="Helvetica,sans-Serif" font-size="10.00"> tAbstract</text>
</g>
<!-- Node26 -->
<g id="node26" class="node"><title>Node26</title>
<polygon fill="white" stroke="#bfbfbf" points="1655,-605.5 1655,-624.5 1723,-624.5 1723,-605.5 1655,-605.5"/>
<text text-anchor="middle" x="1689" y="-612.5" font-family="Helvetica,sans-Serif" font-size="10.00">WNDPROC</text>
</g>
<!-- Node26&#45;&gt;Node3 -->
<g id="edge46" class="edge"><title>Node26&#45;&gt;Node3</title>
<path fill="none" stroke="#9a32cd" stroke-dasharray="5,2" d="M1733.16,-620.51C1758.6,-624.12 1791.31,-629.393 1820,-636 1838.48,-640.256 1858.87,-646.378 1874.82,-651.499"/>
<polygon fill="#9a32cd" stroke="#9a32cd" points="1733.48,-617.021 1723.09,-619.114 1732.52,-623.954 1733.48,-617.021"/>
<text text-anchor="middle" x="1797" y="-639" font-family="Helvetica,sans-Serif" font-size="10.00"> fDefProc</text>
</g>
<!-- Node27 -->
<g id="node27" class="node"><title>Node27</title>
<polygon fill="white" stroke="#bfbfbf" points="1664.5,-567.5 1664.5,-586.5 1713.5,-586.5 1713.5,-567.5 1664.5,-567.5"/>
<text text-anchor="middle" x="1689" y="-574.5" font-family="Helvetica,sans-Serif" font-size="10.00">HFONT</text>
</g>
<!-- Node27&#45;&gt;Node3 -->
<g id="edge47" class="edge"><title>Node27&#45;&gt;Node3</title>
<path fill="none" stroke="#9a32cd" stroke-dasharray="5,2" d="M1723.62,-583.834C1750.34,-589.849 1788.35,-599.723 1820,-613 1845.48,-623.69 1872.82,-640.699 1888.89,-651.337"/>
<polygon fill="#9a32cd" stroke="#9a32cd" points="1724.13,-580.364 1713.61,-581.643 1722.63,-587.202 1724.13,-580.364"/>
<text text-anchor="middle" x="1797" y="-616" font-family="Helvetica,sans-Serif" font-size="10.00"> hDefFont</text>
</g>
<!-- Node28&#45;&gt;Node3 -->
<g id="edge48" class="edge"><title>Node28&#45;&gt;Node3</title>
<path fill="none" stroke="#9a32cd" stroke-dasharray="5,2" d="M1566.65,-626.881C1584.75,-629.368 1604.05,-631.896 1622,-634 1696.11,-642.687 1781.46,-650.591 1838.47,-655.571"/>
<polygon fill="#9a32cd" stroke="#9a32cd" points="1567.12,-623.413 1556.73,-625.506 1566.16,-630.346 1567.12,-623.413"/>
<text text-anchor="middle" x="1689" y="-651" font-family="Helvetica,sans-Serif" font-size="10.00"> Tooltip</text>
</g>
<!-- Node29 -->
<g id="node29" class="node"><title>Node29</title>
<polygon fill="white" stroke="#bfbfbf" points="1228.5,-498.5 1228.5,-517.5 1293.5,-517.5 1293.5,-498.5 1228.5,-498.5"/>
<text text-anchor="middle" x="1261" y="-505.5" font-family="Helvetica,sans-Serif" font-size="10.00">TOOLINFO</text>
</g>
<!-- Node29&#45;&gt;Node28 -->
<g id="edge49" class="edge"><title>Node29&#45;&gt;Node28</title>
<path fill="none" stroke="#9a32cd" stroke-dasharray="5,2" d="M1303.71,-505.451C1333.71,-505.343 1374.3,-508.841 1406,-525 1440.29,-542.479 1467.69,-580.005 1481.08,-600.998"/>
<polygon fill="#9a32cd" stroke="#9a32cd" points="1303.51,-501.954 1293.57,-505.625 1303.63,-508.953 1303.51,-501.954"/>
<text text-anchor="middle" x="1380" y="-528" font-family="Helvetica,sans-Serif" font-size="10.00"> tToolTipInfo</text>
</g>
<!-- Node30 -->
<g id="node30" class="node"><title>Node30</title>
<polygon fill="white" stroke="#bfbfbf" points="1653.5,-529.5 1653.5,-548.5 1724.5,-548.5 1724.5,-529.5 1653.5,-529.5"/>
<text text-anchor="middle" x="1689" y="-536.5" font-family="Helvetica,sans-Serif" font-size="10.00">HINSTANCE</text>
</g>
<!-- Node30&#45;&gt;Node3 -->
<g id="edge51" class="edge"><title>Node30&#45;&gt;Node3</title>
<path fill="none" stroke="#9a32cd" stroke-dasharray="5,2" d="M1734.49,-551.199C1741.71,-553.355 1749.09,-555.661 1756,-558 1784.93,-567.79 1794.18,-566.692 1820,-583 1851.26,-602.748 1881.14,-635.265 1894.97,-651.359"/>
<polygon fill="#9a32cd" stroke="#9a32cd" points="1735.36,-547.809 1724.78,-548.364 1733.4,-554.528 1735.36,-547.809"/>
<text text-anchor="middle" x="1797" y="-586" font-family="Helvetica,sans-Serif" font-size="10.00"> hInstance</text>
</g>
<!-- Node31 -->
<g id="node31" class="node"><title>Node31</title>
<polygon fill="white" stroke="#bfbfbf" points="2053.5,-715.5 2053.5,-734.5 2112.5,-734.5 2112.5,-715.5 2053.5,-715.5"/>
<text text-anchor="middle" x="2083" y="-722.5" font-family="Helvetica,sans-Serif" font-size="10.00">HGDIOBJ</text>
</g>
<!-- Node31&#45;&gt;Node1 -->
<g id="edge53" class="edge"><title>Node31&#45;&gt;Node1</title>
<path fill="none" stroke="#9a32cd" stroke-dasharray="5,2" d="M2122.72,-731.855C2148.11,-736.376 2182.05,-742.465 2212,-748 2221.47,-749.75 2231.58,-751.647 2241.29,-753.483"/>
<polygon fill="#9a32cd" stroke="#9a32cd" points="2123.2,-728.385 2112.74,-730.08 2121.97,-735.277 2123.2,-728.385"/>
<text text-anchor="middle" x="2194" y="-751" font-family="Helvetica,sans-Serif" font-size="10.00"> hImage</text>
</g>
</g>
</svg>
