<?xml version="1.0" encoding="UTF-8" standalone="no"?>
<!DOCTYPE svg PUBLIC "-//W3C//DTD SVG 1.1//EN"
 "http://www.w3.org/Graphics/SVG/1.1/DTD/svg11.dtd">
<!-- Generated by graphviz version 2.36.0 (20140111.2315)
 -->
<!-- Title: KuszkAPI::Sockets::Socket Pages: 1 -->
<svg width="242pt" height="108pt"
 viewBox="0.00 0.00 242.00 108.00" xmlns="http://www.w3.org/2000/svg" xmlns:xlink="http://www.w3.org/1999/xlink">
<g id="graph0" class="graph" transform="scale(1 1) rotate(0) translate(4 104)">
<title>KuszkAPI::Sockets::Socket</title>
<polygon fill="white" stroke="none" points="-4,4 -4,-104 238,-104 238,4 -4,4"/>
<!-- Node1 -->
<g id="node1" class="node"><title>Node1</title>
<polygon fill="#bfbfbf" stroke="black" points="63,-69 63,-99 171,-99 171,-69 63,-69"/>
<text text-anchor="start" x="71" y="-87" font-family="Helvetica,sans-Serif" font-size="10.00">KuszkAPI::Sockets::</text>
<text text-anchor="middle" x="117" y="-76" font-family="Helvetica,sans-Serif" font-size="10.00">Socket</text>
</g>
<!-- Node2 -->
<g id="node2" class="node"><title>Node2</title>
<g id="a_node2"><a xlink:href="class_kuszk_a_p_i_1_1_sockets_1_1_client.html" target="_top" xlink:title="KuszkAPI::Sockets::\lClient">
<polygon fill="white" stroke="black" points="0,-1 0,-31 108,-31 108,-1 0,-1"/>
<text text-anchor="start" x="8" y="-19" font-family="Helvetica,sans-Serif" font-size="10.00">KuszkAPI::Sockets::</text>
<text text-anchor="middle" x="54" y="-8" font-family="Helvetica,sans-Serif" font-size="10.00">Client</text>
</a>
</g>
</g>
<!-- Node1&#45;&gt;Node2 -->
<g id="edge1" class="edge"><title>Node1&#45;&gt;Node2</title>
<path fill="none" stroke="#8b1a1a" d="M96.185,-61.1939C86.7986,-51.3605 75.9763,-40.0228 67.6434,-31.2931"/>
<polygon fill="#8b1a1a" stroke="#8b1a1a" points="93.8934,-63.8621 103.33,-68.679 98.9569,-59.0287 93.8934,-63.8621"/>
</g>
<!-- Node3 -->
<g id="node3" class="node"><title>Node3</title>
<g id="a_node3"><a xlink:href="class_kuszk_a_p_i_1_1_sockets_1_1_server.html" target="_top" xlink:title="KuszkAPI::Sockets::\lServer">
<polygon fill="white" stroke="black" points="126,-1 126,-31 234,-31 234,-1 126,-1"/>
<text text-anchor="start" x="134" y="-19" font-family="Helvetica,sans-Serif" font-size="10.00">KuszkAPI::Sockets::</text>
<text text-anchor="middle" x="180" y="-8" font-family="Helvetica,sans-Serif" font-size="10.00">Server</text>
</a>
</g>
</g>
<!-- Node1&#45;&gt;Node3 -->
<g id="edge2" class="edge"><title>Node1&#45;&gt;Node3</title>
<path fill="none" stroke="#8b1a1a" d="M137.815,-61.1939C147.201,-51.3605 158.024,-40.0228 166.357,-31.2931"/>
<polygon fill="#8b1a1a" stroke="#8b1a1a" points="135.043,-59.0287 130.67,-68.679 140.107,-63.8621 135.043,-59.0287"/>
</g>
</g>
</svg>
