<?xml version="1.0" encoding="UTF-8" standalone="no"?>
<!DOCTYPE svg PUBLIC "-//W3C//DTD SVG 1.1//EN"
 "http://www.w3.org/Graphics/SVG/1.1/DTD/svg11.dtd">
<!-- Generated by graphviz version 2.36.0 (20140111.2315)
 -->
<!-- Title: KuszkAPI::Containers::String::Count Pages: 1 -->
<svg width="276pt" height="38pt"
 viewBox="0.00 0.00 276.00 38.00" xmlns="http://www.w3.org/2000/svg" xmlns:xlink="http://www.w3.org/1999/xlink">
<g id="graph0" class="graph" transform="scale(1 1) rotate(0) translate(4 34)">
<title>KuszkAPI::Containers::String::Count</title>
<polygon fill="white" stroke="none" points="-4,4 -4,-34 272,-34 272,4 -4,4"/>
<!-- Node1 -->
<g id="node1" class="node"><title>Node1</title>
<polygon fill="#bfbfbf" stroke="black" points="0.5,-0 0.5,-30 113.5,-30 113.5,-0 0.5,-0"/>
<text text-anchor="start" x="8.5" y="-18" font-family="Helvetica,sans-Serif" font-size="10.00">KuszkAPI::Containers</text>
<text text-anchor="middle" x="57" y="-7" font-family="Helvetica,sans-Serif" font-size="10.00">::String::Count</text>
</g>
<!-- Node2 -->
<g id="node2" class="node"><title>Node2</title>
<g id="a_node2"><a xlink:href="class_kuszk_a_p_i_1_1_core_1_1_script.html#abf5addecd4187fb491bb7b561eca1d49" target="_top" xlink:title="KuszkAPI::Core::Script\l::GetQuotes">
<polygon fill="white" stroke="black" points="150,-0 150,-30 268,-30 268,-0 150,-0"/>
<text text-anchor="start" x="158" y="-18" font-family="Helvetica,sans-Serif" font-size="10.00">KuszkAPI::Core::Script</text>
<text text-anchor="middle" x="209" y="-7" font-family="Helvetica,sans-Serif" font-size="10.00">::GetQuotes</text>
</a>
</g>
</g>
<!-- Node1&#45;&gt;Node2 -->
<g id="edge1" class="edge"><title>Node1&#45;&gt;Node2</title>
<path fill="none" stroke="midnightblue" d="M123.895,-15C132.536,-15 141.341,-15 149.842,-15"/>
<polygon fill="midnightblue" stroke="midnightblue" points="123.854,-11.5001 113.854,-15 123.854,-18.5001 123.854,-11.5001"/>
</g>
</g>
</svg>
