<?xml version="1.0" encoding="UTF-8" standalone="no"?>
<!DOCTYPE svg PUBLIC "-//W3C//DTD SVG 1.1//EN"
 "http://www.w3.org/Graphics/SVG/1.1/DTD/svg11.dtd">
<!-- Generated by graphviz version 2.36.0 (20140111.2315)
 -->
<!-- Title: KuszkAPI::Core::Reg Pages: 1 -->
<svg width="820pt" height="212pt"
 viewBox="0.00 0.00 820.00 212.00" xmlns="http://www.w3.org/2000/svg" xmlns:xlink="http://www.w3.org/1999/xlink">
<g id="graph0" class="graph" transform="scale(1 1) rotate(0) translate(4 208)">
<title>KuszkAPI::Core::Reg</title>
<polygon fill="white" stroke="none" points="-4,4 -4,-208 816,-208 816,4 -4,4"/>
<!-- Node1 -->
<g id="node1" class="node"><title>Node1</title>
<polygon fill="#bfbfbf" stroke="black" points="702,-163.5 702,-182.5 812,-182.5 812,-163.5 702,-163.5"/>
<text text-anchor="middle" x="757" y="-170.5" font-family="Helvetica,sans-Serif" font-size="10.00">KuszkAPI::Core::Reg</text>
</g>
<!-- Node2 -->
<g id="node2" class="node"><title>Node2</title>
<polygon fill="white" stroke="#bfbfbf" points="357,-184.5 357,-203.5 401,-203.5 401,-184.5 357,-184.5"/>
<text text-anchor="middle" x="379" y="-191.5" font-family="Helvetica,sans-Serif" font-size="10.00">HKEY</text>
</g>
<!-- Node2&#45;&gt;Node1 -->
<g id="edge1" class="edge"><title>Node2&#45;&gt;Node1</title>
<path fill="none" stroke="#9a32cd" stroke-dasharray="5,2" d="M411.271,-192.253C475.277,-188.679 621.899,-180.49 701.751,-176.03"/>
<polygon fill="#9a32cd" stroke="#9a32cd" points="410.81,-188.774 401.021,-192.826 411.201,-195.763 410.81,-188.774"/>
<text text-anchor="middle" x="579" y="-188" font-family="Helvetica,sans-Serif" font-size="10.00"> hKey</text>
</g>
<!-- Node3 -->
<g id="node3" class="node"><title>Node3</title>
<g id="a_node3"><a xlink:href="class_kuszk_a_p_i_1_1_containers_1_1_vector.html" target="_top" xlink:title="KuszkAPI::Containers\l::Vector\&lt; HKEY \&gt;">
<polygon fill="white" stroke="black" points="522.5,-110 522.5,-140 635.5,-140 635.5,-110 522.5,-110"/>
<text text-anchor="start" x="530.5" y="-128" font-family="Helvetica,sans-Serif" font-size="10.00">KuszkAPI::Containers</text>
<text text-anchor="middle" x="579" y="-117" font-family="Helvetica,sans-Serif" font-size="10.00">::Vector&lt; HKEY &gt;</text>
</a>
</g>
</g>
<!-- Node2&#45;&gt;Node3 -->
<g id="edge5" class="edge"><title>Node2&#45;&gt;Node3</title>
<path fill="none" stroke="#9a32cd" stroke-dasharray="5,2" d="M411.031,-185.418C436.285,-178.213 472.736,-167.307 504,-156 517.23,-151.215 531.539,-145.381 544.016,-140.069"/>
<polygon fill="#9a32cd" stroke="#9a32cd" points="409.944,-182.088 401.274,-188.177 411.849,-188.824 409.944,-182.088"/>
<text text-anchor="middle" x="479" y="-175" font-family="Helvetica,sans-Serif" font-size="10.00"> tAbstract</text>
</g>
<!-- Node3&#45;&gt;Node1 -->
<g id="edge2" class="edge"><title>Node3&#45;&gt;Node1</title>
<path fill="none" stroke="#9a32cd" stroke-dasharray="5,2" d="M644.908,-142.702C670.641,-149.72 699.209,-157.511 720.93,-163.436"/>
<polygon fill="#9a32cd" stroke="#9a32cd" points="645.773,-139.31 635.205,-140.056 643.931,-146.064 645.773,-139.31"/>
<text text-anchor="middle" x="669" y="-157" font-family="Helvetica,sans-Serif" font-size="10.00"> vBack</text>
</g>
<!-- Node4 -->
<g id="node4" class="node"><title>Node4</title>
<g id="a_node4"><a xlink:href="class_kuszk_a_p_i_1_1_containers_1_1_container.html" target="_top" xlink:title="Implementacja bazy dla modułu kontenerów. ">
<polygon fill="white" stroke="black" points="122.5,-86 122.5,-116 235.5,-116 235.5,-86 122.5,-86"/>
<text text-anchor="start" x="130.5" y="-104" font-family="Helvetica,sans-Serif" font-size="10.00">KuszkAPI::Containers</text>
<text text-anchor="middle" x="179" y="-93" font-family="Helvetica,sans-Serif" font-size="10.00">::Container</text>
</a>
</g>
</g>
<!-- Node4&#45;&gt;Node3 -->
<g id="edge3" class="edge"><title>Node4&#45;&gt;Node3</title>
<path fill="none" stroke="midnightblue" d="M245.853,-104.971C323.082,-109.628 449.744,-117.266 522.298,-121.641"/>
<polygon fill="midnightblue" stroke="midnightblue" points="245.952,-101.471 235.759,-104.362 245.53,-108.458 245.952,-101.471"/>
</g>
<!-- Node7 -->
<g id="node7" class="node"><title>Node7</title>
<g id="a_node7"><a xlink:href="class_kuszk_a_p_i_1_1_containers_1_1_vector.html" target="_top" xlink:title="KuszkAPI::Containers\l::Vector\&lt; tnData \&gt;">
<polygon fill="white" stroke="black" points="322.5,-48 322.5,-78 435.5,-78 435.5,-48 322.5,-48"/>
<text text-anchor="start" x="330.5" y="-66" font-family="Helvetica,sans-Serif" font-size="10.00">KuszkAPI::Containers</text>
<text text-anchor="middle" x="379" y="-55" font-family="Helvetica,sans-Serif" font-size="10.00">::Vector&lt; tnData &gt;</text>
</a>
</g>
</g>
<!-- Node4&#45;&gt;Node7 -->
<g id="edge9" class="edge"><title>Node4&#45;&gt;Node7</title>
<path fill="none" stroke="midnightblue" d="M245.747,-88.3818C270.583,-83.6154 298.577,-78.2428 322.394,-73.6718"/>
<polygon fill="midnightblue" stroke="midnightblue" points="244.842,-84.9916 235.681,-90.3138 246.161,-91.8662 244.842,-84.9916"/>
</g>
<!-- Node5 -->
<g id="node5" class="node"><title>Node5</title>
<g id="a_node5"><a xlink:href="namespace_3global_scope_4.html#classunsigned" target="_top" xlink:title="unsigned">
<polygon fill="white" stroke="black" points="0,-91.5 0,-110.5 56,-110.5 56,-91.5 0,-91.5"/>
<text text-anchor="middle" x="28" y="-98.5" font-family="Helvetica,sans-Serif" font-size="10.00">unsigned</text>
</a>
</g>
</g>
<!-- Node5&#45;&gt;Node3 -->
<g id="edge6" class="edge"><title>Node5&#45;&gt;Node3</title>
<path fill="none" stroke="#9a32cd" stroke-dasharray="5,2" d="M50.0565,-116.145C57.2946,-120.518 65.6782,-124.722 74,-127 236.904,-171.598 285.104,-130.111 454,-131 476.222,-131.117 481.796,-131.899 504,-131 509.924,-130.76 516.109,-130.413 522.269,-130.004"/>
<polygon fill="#9a32cd" stroke="#9a32cd" points="51.8846,-113.158 41.5917,-110.647 48.0718,-119.029 51.8846,-113.158"/>
<text text-anchor="middle" x="279" y="-150" font-family="Helvetica,sans-Serif" font-size="10.00"> uDataSize</text>
</g>
<!-- Node5&#45;&gt;Node4 -->
<g id="edge4" class="edge"><title>Node5&#45;&gt;Node4</title>
<path fill="none" stroke="#9a32cd" stroke-dasharray="5,2" d="M66.3963,-101C83.354,-101 103.756,-101 122.452,-101"/>
<polygon fill="#9a32cd" stroke="#9a32cd" points="66.3289,-97.5001 56.3289,-101 66.3289,-104.5 66.3289,-97.5001"/>
<text text-anchor="middle" x="89" y="-115" font-family="Helvetica,sans-Serif" font-size="10.00"> uIlosc</text>
<text text-anchor="middle" x="89" y="-104" font-family="Helvetica,sans-Serif" font-size="10.00">uMode</text>
</g>
<!-- Node5&#45;&gt;Node7 -->
<g id="edge11" class="edge"><title>Node5&#45;&gt;Node7</title>
<path fill="none" stroke="#9a32cd" stroke-dasharray="5,2" d="M56.9852,-87.1012C75.0493,-78.9097 99.3284,-69.3267 122,-65 189.997,-52.0234 270.014,-54.0964 322.255,-57.7099"/>
<polygon fill="#9a32cd" stroke="#9a32cd" points="55.2179,-84.0636 47.6386,-91.4667 58.1802,-90.4059 55.2179,-84.0636"/>
<text text-anchor="middle" x="179" y="-68" font-family="Helvetica,sans-Serif" font-size="10.00"> uDataSize</text>
</g>
<!-- Node6 -->
<g id="node6" class="node"><title>Node6</title>
<polygon fill="white" stroke="#bfbfbf" points="354,-9.5 354,-28.5 404,-28.5 404,-9.5 354,-9.5"/>
<text text-anchor="middle" x="379" y="-16.5" font-family="Helvetica,sans-Serif" font-size="10.00">HKEY *</text>
</g>
<!-- Node6&#45;&gt;Node3 -->
<g id="edge7" class="edge"><title>Node6&#45;&gt;Node3</title>
<path fill="none" stroke="#9a32cd" stroke-dasharray="5,2" d="M414.275,-24.416C440.186,-29.5544 475.961,-38.9425 504,-55 529.168,-69.4131 552.459,-94.0874 565.949,-109.961"/>
<polygon fill="#9a32cd" stroke="#9a32cd" points="414.646,-20.9248 404.173,-22.5278 413.36,-27.8056 414.646,-20.9248"/>
<text text-anchor="middle" x="479" y="-58" font-family="Helvetica,sans-Serif" font-size="10.00"> ptBegin</text>
</g>
<!-- Node7&#45;&gt;Node3 -->
<g id="edge8" class="edge"><title>Node7&#45;&gt;Node3</title>
<path fill="none" stroke="orange" stroke-dasharray="5,2" d="M445.849,-68.4328C464.967,-71.2477 485.633,-75.5192 504,-82 523.056,-88.7242 542.75,-100.44 557.026,-109.945"/>
<polygon fill="orange" stroke="orange" points="446.094,-64.934 435.713,-67.0518 445.149,-71.8699 446.094,-64.934"/>
<text text-anchor="middle" x="479" y="-85" font-family="Helvetica,sans-Serif" font-size="10.00"> &lt; HKEY &gt;</text>
</g>
<!-- Node8 -->
<g id="node8" class="node"><title>Node8</title>
<polygon fill="white" stroke="#bfbfbf" points="156.5,-0.5 156.5,-19.5 201.5,-19.5 201.5,-0.5 156.5,-0.5"/>
<text text-anchor="middle" x="179" y="-7.5" font-family="Helvetica,sans-Serif" font-size="10.00">tnData</text>
</g>
<!-- Node8&#45;&gt;Node7 -->
<g id="edge10" class="edge"><title>Node8&#45;&gt;Node7</title>
<path fill="none" stroke="#9a32cd" stroke-dasharray="5,2" d="M211.813,-6.69201C237.807,-5.33392 274.88,-6.54122 304,-20 314.27,-24.7465 312.679,-31.5872 322,-38 327.351,-41.6813 333.331,-45.0277 339.337,-47.9898"/>
<polygon fill="#9a32cd" stroke="#9a32cd" points="211.49,-3.20577 201.75,-7.37411 211.964,-10.1897 211.49,-3.20577"/>
<text text-anchor="middle" x="279" y="-34" font-family="Helvetica,sans-Serif" font-size="10.00"> tAbstract</text>
<text text-anchor="middle" x="279" y="-23" font-family="Helvetica,sans-Serif" font-size="10.00">ptBegin</text>
</g>
</g>
</svg>
