<?xml version="1.0" encoding="UTF-8" standalone="no"?>
<!DOCTYPE svg PUBLIC "-//W3C//DTD SVG 1.1//EN"
 "http://www.w3.org/Graphics/SVG/1.1/DTD/svg11.dtd">
<!-- Generated by graphviz version 2.36.0 (20140111.2315)
 -->
<!-- Title: KuszkAPI::Core::Console Pages: 1 -->
<svg width="311pt" height="106pt"
 viewBox="0.00 0.00 311.00 106.00" xmlns="http://www.w3.org/2000/svg" xmlns:xlink="http://www.w3.org/1999/xlink">
<g id="graph0" class="graph" transform="scale(1 1) rotate(0) translate(4 102)">
<title>KuszkAPI::Core::Console</title>
<polygon fill="white" stroke="none" points="-4,4 -4,-102 307,-102 307,4 -4,4"/>
<!-- Node1 -->
<g id="node1" class="node"><title>Node1</title>
<polygon fill="#bfbfbf" stroke="black" points="108,-0.5 108,-19.5 236,-19.5 236,-0.5 108,-0.5"/>
<text text-anchor="middle" x="172" y="-7.5" font-family="Helvetica,sans-Serif" font-size="10.00">KuszkAPI::Core::Console</text>
</g>
<!-- Node2 -->
<g id="node2" class="node"><title>Node2</title>
<polygon fill="white" stroke="#bfbfbf" points="0,-78.5 0,-97.5 74,-97.5 74,-78.5 0,-78.5"/>
<text text-anchor="middle" x="37" y="-85.5" font-family="Helvetica,sans-Serif" font-size="10.00">static HWND</text>
</g>
<!-- Node2&#45;&gt;Node1 -->
<g id="edge1" class="edge"><title>Node2&#45;&gt;Node1</title>
<path fill="none" stroke="#9a32cd" stroke-dasharray="5,2" d="M55.4517,-71.5229C68.4505,-61.1284 86.577,-47.6251 104,-38 117.342,-30.6294 133.117,-24.2361 146.113,-19.5234"/>
<polygon fill="#9a32cd" stroke="#9a32cd" points="52.8803,-69.1036 47.3434,-78.1365 57.3048,-74.528 52.8803,-69.1036"/>
<text text-anchor="middle" x="124.5" y="-46.5" font-family="Helvetica,sans-Serif" font-size="10.00"> hUchwyt</text>
</g>
<!-- Node3 -->
<g id="node3" class="node"><title>Node3</title>
<polygon fill="white" stroke="#bfbfbf" points="92.5,-78.5 92.5,-97.5 175.5,-97.5 175.5,-78.5 92.5,-78.5"/>
<text text-anchor="middle" x="134" y="-85.5" font-family="Helvetica,sans-Serif" font-size="10.00">static HANDLE</text>
</g>
<!-- Node3&#45;&gt;Node1 -->
<g id="edge2" class="edge"><title>Node3&#45;&gt;Node1</title>
<path fill="none" stroke="#9a32cd" stroke-dasharray="5,2" d="M142.939,-69.1216C150.735,-53.5297 161.707,-31.5862 167.692,-19.6165"/>
<polygon fill="#9a32cd" stroke="#9a32cd" points="139.701,-67.7723 138.359,-78.2818 145.962,-70.9028 139.701,-67.7723"/>
<text text-anchor="middle" x="169" y="-52" font-family="Helvetica,sans-Serif" font-size="10.00"> hIn</text>
<text text-anchor="middle" x="169" y="-41" font-family="Helvetica,sans-Serif" font-size="10.00">hOut</text>
</g>
<!-- Node4 -->
<g id="node4" class="node"><title>Node4</title>
<polygon fill="white" stroke="#bfbfbf" points="193.5,-78.5 193.5,-97.5 228.5,-97.5 228.5,-78.5 193.5,-78.5"/>
<text text-anchor="middle" x="211" y="-85.5" font-family="Helvetica,sans-Serif" font-size="10.00">bool</text>
</g>
<!-- Node4&#45;&gt;Node1 -->
<g id="edge3" class="edge"><title>Node4&#45;&gt;Node1</title>
<path fill="none" stroke="#9a32cd" stroke-dasharray="5,2" d="M201.826,-69.1216C193.824,-53.5297 182.564,-31.5862 176.422,-19.6165"/>
<polygon fill="#9a32cd" stroke="#9a32cd" points="198.847,-70.9828 206.526,-78.2818 205.075,-67.7869 198.847,-70.9828"/>
<text text-anchor="middle" x="216" y="-46.5" font-family="Helvetica,sans-Serif" font-size="10.00"> bVisible</text>
</g>
<!-- Node5 -->
<g id="node5" class="node"><title>Node5</title>
<g id="a_node5"><a xlink:href="namespace_3global_scope_4.html#classunsigned" target="_top" xlink:title="unsigned">
<polygon fill="white" stroke="black" points="247,-78.5 247,-97.5 303,-97.5 303,-78.5 247,-78.5"/>
<text text-anchor="middle" x="275" y="-85.5" font-family="Helvetica,sans-Serif" font-size="10.00">unsigned</text>
</a>
</g>
</g>
<!-- Node5&#45;&gt;Node1 -->
<g id="edge4" class="edge"><title>Node5&#45;&gt;Node1</title>
<path fill="none" stroke="#9a32cd" stroke-dasharray="5,2" d="M265.35,-69.2712C259.002,-58.9855 249.869,-46.4373 239,-38 228.499,-29.8483 215.208,-23.8182 203.236,-19.5502"/>
<polygon fill="#9a32cd" stroke="#9a32cd" points="262.503,-71.3379 270.548,-78.2314 268.557,-67.8253 262.503,-71.3379"/>
<text text-anchor="middle" x="274.5" y="-46.5" font-family="Helvetica,sans-Serif" font-size="10.00"> uIlosc</text>
</g>
</g>
</svg>
