<?xml version="1.0" encoding="UTF-8" standalone="no"?>
<!DOCTYPE svg PUBLIC "-//W3C//DTD SVG 1.1//EN"
 "http://www.w3.org/Graphics/SVG/1.1/DTD/svg11.dtd">
<!-- Generated by graphviz version 2.36.0 (20140111.2315)
 -->
<!-- Title: KuszkAPI::Containers::Strings::AddToFile Pages: 1 -->
<svg width="272pt" height="234pt"
 viewBox="0.00 0.00 272.00 234.00" xmlns="http://www.w3.org/2000/svg" xmlns:xlink="http://www.w3.org/1999/xlink">
<g id="graph0" class="graph" transform="scale(1 1) rotate(0) translate(4 230)">
<title>KuszkAPI::Containers::Strings::AddToFile</title>
<polygon fill="white" stroke="none" points="-4,4 -4,-230 268,-230 268,4 -4,4"/>
<!-- Node1 -->
<g id="node1" class="node"><title>Node1</title>
<polygon fill="#bfbfbf" stroke="black" points="0.5,-98 0.5,-128 113.5,-128 113.5,-98 0.5,-98"/>
<text text-anchor="start" x="8.5" y="-116" font-family="Helvetica,sans-Serif" font-size="10.00">KuszkAPI::Containers</text>
<text text-anchor="middle" x="57" y="-105" font-family="Helvetica,sans-Serif" font-size="10.00">::Strings::AddToFile</text>
</g>
<!-- Node2 -->
<g id="node2" class="node"><title>Node2</title>
<g id="a_node2"><a xlink:href="class_kuszk_a_p_i_1_1_containers_1_1_string.html#a1ffd7df5412875aa5d7b7cfcf1d6a81c" target="_top" xlink:title="KuszkAPI::Containers\l::String::Ascii">
<polygon fill="white" stroke="black" points="150.5,-196 150.5,-226 263.5,-226 263.5,-196 150.5,-196"/>
<text text-anchor="start" x="158.5" y="-214" font-family="Helvetica,sans-Serif" font-size="10.00">KuszkAPI::Containers</text>
<text text-anchor="middle" x="207" y="-203" font-family="Helvetica,sans-Serif" font-size="10.00">::String::Ascii</text>
</a>
</g>
</g>
<!-- Node1&#45;&gt;Node2 -->
<g id="edge1" class="edge"><title>Node1&#45;&gt;Node2</title>
<path fill="none" stroke="midnightblue" d="M74.3531,-128.077C92.0572,-143.88 121.585,-168.761 150,-186 153.004,-187.822 156.164,-189.59 159.39,-191.288"/>
<polygon fill="midnightblue" stroke="midnightblue" points="158.07,-194.541 168.581,-195.871 161.194,-188.276 158.07,-194.541"/>
</g>
<!-- Node3 -->
<g id="node3" class="node"><title>Node3</title>
<g id="a_node3"><a xlink:href="class_kuszk_a_p_i_1_1_containers_1_1_string.html#afd694656c3c52b347d6b965e2f5afb6a" target="_top" xlink:title="KuszkAPI::Containers\l::String::Capacity">
<polygon fill="white" stroke="black" points="150.5,-147 150.5,-177 263.5,-177 263.5,-147 150.5,-147"/>
<text text-anchor="start" x="158.5" y="-165" font-family="Helvetica,sans-Serif" font-size="10.00">KuszkAPI::Containers</text>
<text text-anchor="middle" x="207" y="-154" font-family="Helvetica,sans-Serif" font-size="10.00">::String::Capacity</text>
</a>
</g>
</g>
<!-- Node1&#45;&gt;Node3 -->
<g id="edge2" class="edge"><title>Node1&#45;&gt;Node3</title>
<path fill="none" stroke="midnightblue" d="M103.613,-128.101C118.594,-133.062 135.405,-138.627 151.007,-143.793"/>
<polygon fill="midnightblue" stroke="midnightblue" points="149.945,-147.128 160.538,-146.948 152.145,-140.483 149.945,-147.128"/>
</g>
<!-- Node4 -->
<g id="node4" class="node"><title>Node4</title>
<g id="a_node4"><a xlink:href="class_kuszk_a_p_i_1_1_containers_1_1_file.html#a05549b025756f90ce3bb01047d05cb6e" target="_top" xlink:title="KuszkAPI::Containers\l::File::Load">
<polygon fill="white" stroke="black" points="150.5,-98 150.5,-128 263.5,-128 263.5,-98 150.5,-98"/>
<text text-anchor="start" x="158.5" y="-116" font-family="Helvetica,sans-Serif" font-size="10.00">KuszkAPI::Containers</text>
<text text-anchor="middle" x="207" y="-105" font-family="Helvetica,sans-Serif" font-size="10.00">::File::Load</text>
</a>
</g>
</g>
<!-- Node1&#45;&gt;Node4 -->
<g id="edge3" class="edge"><title>Node1&#45;&gt;Node4</title>
<path fill="none" stroke="midnightblue" d="M113.531,-113C122.138,-113 131.101,-113 139.913,-113"/>
<polygon fill="midnightblue" stroke="midnightblue" points="140.158,-116.5 150.158,-113 140.158,-109.5 140.158,-116.5"/>
</g>
<!-- Node5 -->
<g id="node5" class="node"><title>Node5</title>
<g id="a_node5"><a xlink:href="class_kuszk_a_p_i_1_1_containers_1_1_file.html#a3e7116e7b98e0755ad129d90cf7ac358" target="_top" xlink:title="KuszkAPI::Containers\l::File::Save">
<polygon fill="white" stroke="black" points="150.5,-49 150.5,-79 263.5,-79 263.5,-49 150.5,-49"/>
<text text-anchor="start" x="158.5" y="-67" font-family="Helvetica,sans-Serif" font-size="10.00">KuszkAPI::Containers</text>
<text text-anchor="middle" x="207" y="-56" font-family="Helvetica,sans-Serif" font-size="10.00">::File::Save</text>
</a>
</g>
</g>
<!-- Node1&#45;&gt;Node5 -->
<g id="edge4" class="edge"><title>Node1&#45;&gt;Node5</title>
<path fill="none" stroke="midnightblue" d="M103.613,-97.8986C118.594,-92.9385 135.405,-87.3726 151.007,-82.2071"/>
<polygon fill="midnightblue" stroke="midnightblue" points="152.145,-85.5173 160.538,-79.0516 149.945,-78.872 152.145,-85.5173"/>
</g>
<!-- Node6 -->
<g id="node6" class="node"><title>Node6</title>
<g id="a_node6"><a xlink:href="class_kuszk_a_p_i_1_1_containers_1_1_string.html#a5461984d3e0b2521fd25e51a90ed69c8" target="_top" xlink:title="KuszkAPI::Containers\l::String::Unicode">
<polygon fill="white" stroke="black" points="150.5,-0 150.5,-30 263.5,-30 263.5,-0 150.5,-0"/>
<text text-anchor="start" x="158.5" y="-18" font-family="Helvetica,sans-Serif" font-size="10.00">KuszkAPI::Containers</text>
<text text-anchor="middle" x="207" y="-7" font-family="Helvetica,sans-Serif" font-size="10.00">::String::Unicode</text>
</a>
</g>
</g>
<!-- Node1&#45;&gt;Node6 -->
<g id="edge5" class="edge"><title>Node1&#45;&gt;Node6</title>
<path fill="none" stroke="midnightblue" d="M74.3531,-97.9227C92.0572,-82.1199 121.585,-57.2386 150,-40 153.004,-38.1776 156.164,-36.4096 159.39,-34.7122"/>
<polygon fill="midnightblue" stroke="midnightblue" points="161.194,-37.7239 168.581,-30.1295 158.07,-31.4595 161.194,-37.7239"/>
</g>
</g>
</svg>
