<?xml version="1.0" encoding="UTF-8" standalone="no"?>
<!DOCTYPE svg PUBLIC "-//W3C//DTD SVG 1.1//EN"
 "http://www.w3.org/Graphics/SVG/1.1/DTD/svg11.dtd">
<!-- Generated by graphviz version 2.36.0 (20140111.2315)
 -->
<!-- Title: KuszkAPI::Core::Script&lt; tnResult, tnParam &gt; Pages: 1 -->
<svg width="135pt" height="118pt"
 viewBox="0.00 0.00 135.00 118.00" xmlns="http://www.w3.org/2000/svg" xmlns:xlink="http://www.w3.org/1999/xlink">
<g id="graph0" class="graph" transform="scale(1 1) rotate(0) translate(4 114)">
<title>KuszkAPI::Core::Script&lt; tnResult, tnParam &gt;</title>
<polygon fill="white" stroke="none" points="-4,4 -4,-114 131,-114 131,4 -4,4"/>
<!-- Node1 -->
<g id="node1" class="node"><title>Node1</title>
<polygon fill="#bfbfbf" stroke="black" points="3,-1 3,-31 121,-31 121,-1 3,-1"/>
<text text-anchor="start" x="11" y="-19" font-family="Helvetica,sans-Serif" font-size="10.00">KuszkAPI::Core::Script</text>
<text text-anchor="middle" x="62" y="-8" font-family="Helvetica,sans-Serif" font-size="10.00">&lt; tnResult, tnParam &gt;</text>
</g>
<!-- Node2 -->
<g id="node2" class="node"><title>Node2</title>
<polygon fill="white" stroke="#bfbfbf" points="-0.5,-90.5 -0.5,-109.5 52.5,-109.5 52.5,-90.5 -0.5,-90.5"/>
<text text-anchor="middle" x="26" y="-97.5" font-family="Helvetica,sans-Serif" font-size="10.00">tnResult</text>
</g>
<!-- Node2&#45;&gt;Node1 -->
<g id="edge1" class="edge"><title>Node2&#45;&gt;Node1</title>
<path fill="none" stroke="#9a32cd" stroke-dasharray="5,2" d="M33.9092,-80.9845C40.4846,-66.0073 49.7139,-44.985 55.7729,-31.1839"/>
<polygon fill="#9a32cd" stroke="#9a32cd" points="30.6678,-79.6611 29.8526,-90.2246 37.0773,-82.4751 30.6678,-79.6611"/>
<text text-anchor="middle" x="60.5" y="-64" font-family="Helvetica,sans-Serif" font-size="10.00"> tLast</text>
<text text-anchor="middle" x="60.5" y="-53" font-family="Helvetica,sans-Serif" font-size="10.00">fExe</text>
</g>
<!-- Node3 -->
<g id="node3" class="node"><title>Node3</title>
<g id="a_node3"><a xlink:href="namespace_3global_scope_4.html#classunsigned" target="_top" xlink:title="unsigned">
<polygon fill="white" stroke="black" points="71,-90.5 71,-109.5 127,-109.5 127,-90.5 71,-90.5"/>
<text text-anchor="middle" x="99" y="-97.5" font-family="Helvetica,sans-Serif" font-size="10.00">unsigned</text>
</a>
</g>
</g>
<!-- Node3&#45;&gt;Node1 -->
<g id="edge2" class="edge"><title>Node3&#45;&gt;Node1</title>
<path fill="none" stroke="#9a32cd" stroke-dasharray="5,2" d="M90.9337,-80.9809C86.7809,-71.7175 81.6303,-60.2495 77,-50 74.2018,-43.806 71.0949,-36.9649 68.4378,-31.1251"/>
<polygon fill="#9a32cd" stroke="#9a32cd" points="87.835,-82.6251 95.1175,-90.3203 94.2233,-79.7632 87.835,-82.6251"/>
<text text-anchor="middle" x="97.5" y="-64" font-family="Helvetica,sans-Serif" font-size="10.00"> fPre</text>
<text text-anchor="middle" x="97.5" y="-53" font-family="Helvetica,sans-Serif" font-size="10.00">fExe</text>
</g>
</g>
</svg>
