<?xml version="1.0" encoding="UTF-8" standalone="no"?>
<!DOCTYPE svg PUBLIC "-//W3C//DTD SVG 1.1//EN"
 "http://www.w3.org/Graphics/SVG/1.1/DTD/svg11.dtd">
<!-- Generated by graphviz version 2.36.0 (20140111.2315)
 -->
<!-- Title: KuszkAPI::Forms::TableBox::GetItemStruct Pages: 1 -->
<svg width="448pt" height="185pt"
 viewBox="0.00 0.00 448.00 185.00" xmlns="http://www.w3.org/2000/svg" xmlns:xlink="http://www.w3.org/1999/xlink">
<g id="graph0" class="graph" transform="scale(1 1) rotate(0) translate(4 181)">
<title>KuszkAPI::Forms::TableBox::GetItemStruct</title>
<polygon fill="white" stroke="none" points="-4,4 -4,-181 444,-181 444,4 -4,4"/>
<!-- Node1 -->
<g id="node1" class="node"><title>Node1</title>
<polygon fill="#bfbfbf" stroke="black" points="0,-73 0,-103 140,-103 140,-73 0,-73"/>
<text text-anchor="start" x="8" y="-91" font-family="Helvetica,sans-Serif" font-size="10.00">KuszkAPI::Forms::TableBox</text>
<text text-anchor="middle" x="70" y="-80" font-family="Helvetica,sans-Serif" font-size="10.00">::GetItemStruct</text>
</g>
<!-- Node2 -->
<g id="node2" class="node"><title>Node2</title>
<g id="a_node2"><a xlink:href="class_kuszk_a_p_i_1_1_containers_1_1_strings.html#aae1e705132390add4e0b03ff36ffb094" target="_top" xlink:title="KuszkAPI::Containers\l::Strings::Add">
<polygon fill="white" stroke="black" points="176.5,-73 176.5,-103 289.5,-103 289.5,-73 176.5,-73"/>
<text text-anchor="start" x="184.5" y="-91" font-family="Helvetica,sans-Serif" font-size="10.00">KuszkAPI::Containers</text>
<text text-anchor="middle" x="233" y="-80" font-family="Helvetica,sans-Serif" font-size="10.00">::Strings::Add</text>
</a>
</g>
</g>
<!-- Node1&#45;&gt;Node2 -->
<g id="edge1" class="edge"><title>Node1&#45;&gt;Node2</title>
<path fill="none" stroke="midnightblue" d="M140.213,-88C148.911,-88 157.789,-88 166.429,-88"/>
<polygon fill="midnightblue" stroke="midnightblue" points="166.438,-91.5001 176.438,-88 166.438,-84.5001 166.438,-91.5001"/>
</g>
<!-- Node3 -->
<g id="node3" class="node"><title>Node3</title>
<g id="a_node3"><a xlink:href="class_kuszk_a_p_i_1_1_containers_1_1_string.html#afd694656c3c52b347d6b965e2f5afb6a" target="_top" xlink:title="KuszkAPI::Containers\l::String::Capacity">
<polygon fill="white" stroke="black" points="326.5,-147 326.5,-177 439.5,-177 439.5,-147 326.5,-147"/>
<text text-anchor="start" x="334.5" y="-165" font-family="Helvetica,sans-Serif" font-size="10.00">KuszkAPI::Containers</text>
<text text-anchor="middle" x="383" y="-154" font-family="Helvetica,sans-Serif" font-size="10.00">::String::Capacity</text>
</a>
</g>
</g>
<!-- Node2&#45;&gt;Node3 -->
<g id="edge2" class="edge"><title>Node2&#45;&gt;Node3</title>
<path fill="none" stroke="midnightblue" d="M261.118,-103.082C279.306,-113.039 303.889,-126.192 326,-137 329.82,-138.867 333.811,-140.76 337.827,-142.626"/>
<polygon fill="midnightblue" stroke="midnightblue" points="336.624,-145.924 347.173,-146.903 339.537,-139.559 336.624,-145.924"/>
</g>
<!-- Node4 -->
<g id="node4" class="node"><title>Node4</title>
<g id="a_node4"><a xlink:href="class_kuszk_a_p_i_1_1_containers_1_1_string.html#a455584fed5c105b9d00ecaf985116d63" target="_top" xlink:title="KuszkAPI::Containers\l::String::Find">
<polygon fill="white" stroke="black" points="326.5,-98 326.5,-128 439.5,-128 439.5,-98 326.5,-98"/>
<text text-anchor="start" x="334.5" y="-116" font-family="Helvetica,sans-Serif" font-size="10.00">KuszkAPI::Containers</text>
<text text-anchor="middle" x="383" y="-105" font-family="Helvetica,sans-Serif" font-size="10.00">::String::Find</text>
</a>
</g>
</g>
<!-- Node2&#45;&gt;Node4 -->
<g id="edge3" class="edge"><title>Node2&#45;&gt;Node4</title>
<path fill="none" stroke="midnightblue" d="M289.531,-97.3802C298.232,-98.8499 307.296,-100.381 316.201,-101.885"/>
<polygon fill="midnightblue" stroke="midnightblue" points="315.715,-105.353 326.158,-103.567 316.881,-98.4504 315.715,-105.353"/>
</g>
<!-- Node5 -->
<g id="node5" class="node"><title>Node5</title>
<g id="a_node5"><a xlink:href="class_kuszk_a_p_i_1_1_containers_1_1_string.html#a8ca4879ad62f0f4521b7e13eaa711c2c" target="_top" xlink:title="KuszkAPI::Containers\l::String::GetData">
<polygon fill="white" stroke="black" points="326.5,-49 326.5,-79 439.5,-79 439.5,-49 326.5,-49"/>
<text text-anchor="start" x="334.5" y="-67" font-family="Helvetica,sans-Serif" font-size="10.00">KuszkAPI::Containers</text>
<text text-anchor="middle" x="383" y="-56" font-family="Helvetica,sans-Serif" font-size="10.00">::String::GetData</text>
</a>
</g>
</g>
<!-- Node2&#45;&gt;Node5 -->
<g id="edge4" class="edge"><title>Node2&#45;&gt;Node5</title>
<path fill="none" stroke="midnightblue" d="M289.531,-78.995C298.232,-77.5841 307.296,-76.1141 316.201,-74.6702"/>
<polygon fill="midnightblue" stroke="midnightblue" points="316.847,-78.1111 326.158,-73.0555 315.727,-71.2014 316.847,-78.1111"/>
</g>
<!-- Node6 -->
<g id="node6" class="node"><title>Node6</title>
<g id="a_node6"><a xlink:href="class_kuszk_a_p_i_1_1_containers_1_1_string.html#a34b2866bd4044c00ffafc482d5e44a54" target="_top" xlink:title="KuszkAPI::Containers\l::String::Part">
<polygon fill="white" stroke="black" points="326.5,-0 326.5,-30 439.5,-30 439.5,-0 326.5,-0"/>
<text text-anchor="start" x="334.5" y="-18" font-family="Helvetica,sans-Serif" font-size="10.00">KuszkAPI::Containers</text>
<text text-anchor="middle" x="383" y="-7" font-family="Helvetica,sans-Serif" font-size="10.00">::String::Part</text>
</a>
</g>
</g>
<!-- Node2&#45;&gt;Node6 -->
<g id="edge5" class="edge"><title>Node2&#45;&gt;Node6</title>
<path fill="none" stroke="midnightblue" d="M261.96,-72.8462C280.079,-63.1675 304.267,-50.5087 326,-40 329.99,-38.0708 334.163,-36.108 338.354,-34.1735"/>
<polygon fill="midnightblue" stroke="midnightblue" points="339.845,-37.3402 347.493,-30.008 336.942,-30.9705 339.845,-37.3402"/>
</g>
</g>
</svg>
