<?xml version="1.0" encoding="UTF-8" standalone="no"?>
<!DOCTYPE svg PUBLIC "-//W3C//DTD SVG 1.1//EN"
 "http://www.w3.org/Graphics/SVG/1.1/DTD/svg11.dtd">
<!-- Generated by graphviz version 2.36.0 (20140111.2315)
 -->
<!-- Title: KuszkAPI::Containers::String::Contain Pages: 1 -->
<svg width="290pt" height="283pt"
 viewBox="0.00 0.00 290.00 283.00" xmlns="http://www.w3.org/2000/svg" xmlns:xlink="http://www.w3.org/1999/xlink">
<g id="graph0" class="graph" transform="scale(1 1) rotate(0) translate(4 279)">
<title>KuszkAPI::Containers::String::Contain</title>
<polygon fill="white" stroke="none" points="-4,4 -4,-279 286,-279 286,4 -4,4"/>
<!-- Node1 -->
<g id="node1" class="node"><title>Node1</title>
<polygon fill="#bfbfbf" stroke="black" points="0.5,-122 0.5,-152 113.5,-152 113.5,-122 0.5,-122"/>
<text text-anchor="start" x="8.5" y="-140" font-family="Helvetica,sans-Serif" font-size="10.00">KuszkAPI::Containers</text>
<text text-anchor="middle" x="57" y="-129" font-family="Helvetica,sans-Serif" font-size="10.00">::String::Contain</text>
</g>
<!-- Node2 -->
<g id="node2" class="node"><title>Node2</title>
<g id="a_node2"><a xlink:href="class_kuszk_a_p_i_1_1_forms_1_1_bitmap.html#a99b745a2bbbbf2bcc5cf603238cf1cb3" target="_top" xlink:title="KuszkAPI::Forms::Bitmap\l::Load">
<polygon fill="white" stroke="black" points="150.5,-245 150.5,-275 281.5,-275 281.5,-245 150.5,-245"/>
<text text-anchor="start" x="158.5" y="-263" font-family="Helvetica,sans-Serif" font-size="10.00">KuszkAPI::Forms::Bitmap</text>
<text text-anchor="middle" x="216" y="-252" font-family="Helvetica,sans-Serif" font-size="10.00">::Load</text>
</a>
</g>
</g>
<!-- Node1&#45;&gt;Node2 -->
<g id="edge1" class="edge"><title>Node1&#45;&gt;Node2</title>
<path fill="none" stroke="midnightblue" d="M74.9494,-160.4C91.834,-182.269 119.571,-214.535 150,-235 155.618,-238.779 161.889,-242.1 168.258,-244.984"/>
<polygon fill="midnightblue" stroke="midnightblue" points="77.6418,-158.158 68.8183,-152.293 72.0587,-162.38 77.6418,-158.158"/>
</g>
<!-- Node3 -->
<g id="node3" class="node"><title>Node3</title>
<g id="a_node3"><a xlink:href="class_kuszk_a_p_i_1_1_forms_1_1_icon.html#a8a7697aa166405a230a130320f887211" target="_top" xlink:title="KuszkAPI::Forms::Icon\l::Load">
<polygon fill="white" stroke="black" points="157,-196 157,-226 275,-226 275,-196 157,-196"/>
<text text-anchor="start" x="165" y="-214" font-family="Helvetica,sans-Serif" font-size="10.00">KuszkAPI::Forms::Icon</text>
<text text-anchor="middle" x="216" y="-203" font-family="Helvetica,sans-Serif" font-size="10.00">::Load</text>
</a>
</g>
</g>
<!-- Node1&#45;&gt;Node3 -->
<g id="edge2" class="edge"><title>Node1&#45;&gt;Node3</title>
<path fill="none" stroke="midnightblue" d="M93.1255,-157.008C110.068,-166.322 130.832,-177.249 150,-186 157.479,-189.415 165.571,-192.779 173.423,-195.879"/>
<polygon fill="midnightblue" stroke="midnightblue" points="94.583,-153.814 84.1404,-152.024 91.1874,-159.935 94.583,-153.814"/>
</g>
<!-- Node4 -->
<g id="node4" class="node"><title>Node4</title>
<g id="a_node4"><a xlink:href="class_kuszk_a_p_i_1_1_forms_1_1_cursor.html#ae3910a0c24bf5eae465140e680cb063a" target="_top" xlink:title="KuszkAPI::Forms::Cursor\l::Load">
<polygon fill="white" stroke="black" points="152,-147 152,-177 280,-177 280,-147 152,-147"/>
<text text-anchor="start" x="160" y="-165" font-family="Helvetica,sans-Serif" font-size="10.00">KuszkAPI::Forms::Cursor</text>
<text text-anchor="middle" x="216" y="-154" font-family="Helvetica,sans-Serif" font-size="10.00">::Load</text>
</a>
</g>
</g>
<!-- Node1&#45;&gt;Node4 -->
<g id="edge3" class="edge"><title>Node1&#45;&gt;Node4</title>
<path fill="none" stroke="midnightblue" d="M123.775,-147.474C133.085,-148.956 142.64,-150.478 151.898,-151.952"/>
<polygon fill="midnightblue" stroke="midnightblue" points="124.22,-144.001 113.794,-145.884 123.12,-150.914 124.22,-144.001"/>
</g>
<!-- Node5 -->
<g id="node5" class="node"><title>Node5</title>
<g id="a_node5"><a xlink:href="class_kuszk_a_p_i_1_1_containers_1_1_strings.html#a67ba13de7be7201b1d86c4762424cfa1" target="_top" xlink:title="KuszkAPI::Containers\l::Strings::LoadFromFile">
<polygon fill="white" stroke="black" points="156.5,-98 156.5,-128 275.5,-128 275.5,-98 156.5,-98"/>
<text text-anchor="start" x="164.5" y="-116" font-family="Helvetica,sans-Serif" font-size="10.00">KuszkAPI::Containers</text>
<text text-anchor="middle" x="216" y="-105" font-family="Helvetica,sans-Serif" font-size="10.00">::Strings::LoadFromFile</text>
</a>
</g>
</g>
<!-- Node1&#45;&gt;Node5 -->
<g id="edge4" class="edge"><title>Node1&#45;&gt;Node5</title>
<path fill="none" stroke="midnightblue" d="M124.002,-126.911C134.78,-125.263 145.881,-123.566 156.464,-121.948"/>
<polygon fill="midnightblue" stroke="midnightblue" points="123.151,-123.5 113.794,-128.471 124.208,-130.42 123.151,-123.5"/>
</g>
<!-- Node6 -->
<g id="node6" class="node"><title>Node6</title>
<g id="a_node6"><a xlink:href="class_kuszk_a_p_i_1_1_core_1_1_reg.html#a0b1bba511ac0b7d6377694d5a78d3ad8" target="_top" xlink:title="KuszkAPI::Core::Reg\l::Open">
<polygon fill="white" stroke="black" points="161,-49 161,-79 271,-79 271,-49 161,-49"/>
<text text-anchor="start" x="169" y="-67" font-family="Helvetica,sans-Serif" font-size="10.00">KuszkAPI::Core::Reg</text>
<text text-anchor="middle" x="216" y="-56" font-family="Helvetica,sans-Serif" font-size="10.00">::Open</text>
</a>
</g>
</g>
<!-- Node1&#45;&gt;Node6 -->
<g id="edge5" class="edge"><title>Node1&#45;&gt;Node6</title>
<path fill="none" stroke="midnightblue" d="M93.9086,-117.055C110.723,-108.03 131.158,-97.5055 150,-89 157.604,-85.5676 165.831,-82.1693 173.792,-79.036"/>
<polygon fill="midnightblue" stroke="midnightblue" points="92.1009,-114.054 84.9729,-121.892 95.4333,-120.209 92.1009,-114.054"/>
</g>
<!-- Node7 -->
<g id="node7" class="node"><title>Node7</title>
<g id="a_node7"><a xlink:href="class_kuszk_a_p_i_1_1_core_1_1_ini.html#a85379832bd93ba7dad6f44e90f15e371" target="_top" xlink:title="KuszkAPI::Core::Ini\l::SetFile">
<polygon fill="white" stroke="black" points="165,-0 165,-30 267,-30 267,-0 165,-0"/>
<text text-anchor="start" x="173" y="-18" font-family="Helvetica,sans-Serif" font-size="10.00">KuszkAPI::Core::Ini</text>
<text text-anchor="middle" x="216" y="-7" font-family="Helvetica,sans-Serif" font-size="10.00">::SetFile</text>
</a>
</g>
</g>
<!-- Node1&#45;&gt;Node7 -->
<g id="edge6" class="edge"><title>Node1&#45;&gt;Node7</title>
<path fill="none" stroke="midnightblue" d="M74.9998,-113.848C91.921,-92.2091 119.684,-60.277 150,-40 155.628,-36.2358 161.904,-32.9221 168.275,-30.042"/>
<polygon fill="midnightblue" stroke="midnightblue" points="72.1574,-111.803 68.8538,-121.869 77.714,-116.06 72.1574,-111.803"/>
</g>
</g>
</svg>
