<?xml version="1.0" encoding="UTF-8" standalone="no"?>
<!DOCTYPE svg PUBLIC "-//W3C//DTD SVG 1.1//EN"
 "http://www.w3.org/Graphics/SVG/1.1/DTD/svg11.dtd">
<!-- Generated by graphviz version 2.36.0 (20140111.2315)
 -->
<!-- Title: KuszkAPI::Containers::Array::Add Pages: 1 -->
<svg width="272pt" height="87pt"
 viewBox="0.00 0.00 272.00 87.00" xmlns="http://www.w3.org/2000/svg" xmlns:xlink="http://www.w3.org/1999/xlink">
<g id="graph0" class="graph" transform="scale(1 1) rotate(0) translate(4 83)">
<title>KuszkAPI::Containers::Array::Add</title>
<polygon fill="white" stroke="none" points="-4,4 -4,-83 268,-83 268,4 -4,4"/>
<!-- Node1 -->
<g id="node1" class="node"><title>Node1</title>
<polygon fill="#bfbfbf" stroke="black" points="0.5,-24 0.5,-54 113.5,-54 113.5,-24 0.5,-24"/>
<text text-anchor="start" x="8.5" y="-42" font-family="Helvetica,sans-Serif" font-size="10.00">KuszkAPI::Containers</text>
<text text-anchor="middle" x="57" y="-31" font-family="Helvetica,sans-Serif" font-size="10.00">::Array::Add</text>
</g>
<!-- Node2 -->
<g id="node2" class="node"><title>Node2</title>
<g id="a_node2"><a xlink:href="class_kuszk_a_p_i_1_1_containers_1_1_array.html#a1b528617fdd40ce0339b40a330293e00" target="_top" xlink:title="Dodaje dwie organizacje do siebie. ">
<polygon fill="white" stroke="black" points="150.5,-49 150.5,-79 263.5,-79 263.5,-49 150.5,-49"/>
<text text-anchor="start" x="158.5" y="-67" font-family="Helvetica,sans-Serif" font-size="10.00">KuszkAPI::Containers</text>
<text text-anchor="middle" x="207" y="-56" font-family="Helvetica,sans-Serif" font-size="10.00">::Array::operator+</text>
</a>
</g>
</g>
<!-- Node1&#45;&gt;Node2 -->
<g id="edge1" class="edge"><title>Node1&#45;&gt;Node2</title>
<path fill="none" stroke="midnightblue" d="M123.481,-50.061C132.381,-51.5644 141.449,-53.096 150.158,-54.5672"/>
<polygon fill="midnightblue" stroke="midnightblue" points="123.974,-46.5948 113.531,-48.3802 122.808,-53.497 123.974,-46.5948"/>
</g>
<!-- Node3 -->
<g id="node3" class="node"><title>Node3</title>
<g id="a_node3"><a xlink:href="class_kuszk_a_p_i_1_1_sockets_1_1_client.html#af1692bf3f2648faf83ad0a536505a55b" target="_top" xlink:title="KuszkAPI::Sockets::\lClient::Recv">
<polygon fill="white" stroke="black" points="153,-0 153,-30 261,-30 261,-0 153,-0"/>
<text text-anchor="start" x="161" y="-18" font-family="Helvetica,sans-Serif" font-size="10.00">KuszkAPI::Sockets::</text>
<text text-anchor="middle" x="207" y="-7" font-family="Helvetica,sans-Serif" font-size="10.00">Client::Recv</text>
</a>
</g>
</g>
<!-- Node1&#45;&gt;Node3 -->
<g id="edge2" class="edge"><title>Node1&#45;&gt;Node3</title>
<path fill="none" stroke="midnightblue" d="M123.556,-28.3693C133.271,-26.7938 143.184,-25.1864 152.611,-23.6577"/>
<polygon fill="midnightblue" stroke="midnightblue" points="122.842,-24.9393 113.531,-29.995 123.962,-31.8491 122.842,-24.9393"/>
</g>
</g>
</svg>
