<?xml version="1.0" encoding="UTF-8" standalone="no"?>
<!DOCTYPE svg PUBLIC "-//W3C//DTD SVG 1.1//EN"
 "http://www.w3.org/Graphics/SVG/1.1/DTD/svg11.dtd">
<!-- Generated by graphviz version 2.36.0 (20140111.2315)
 -->
<!-- Title: KuszkAPI::Forms::CommonDialog Pages: 1 -->
<!--zoomable 260 -->
<svg id="main" version="1.1" xmlns="http://www.w3.org/2000/svg" xmlns:xlink="http://www.w3.org/1999/xlink" xml:space="preserve" onload="init(evt)">
<style type="text/css"><![CDATA[
.edge:hover path { stroke: red; }
.edge:hover polygon { stroke: red; fill: red; }
]]></style>
<script type="text/javascript"><![CDATA[
var edges = document.getElementsByTagName('g');
if (edges && edges.length) {
  for (var i=0;i<edges.length;i++) {
    if (edges[i].id.substr(0,4)=='edge') {
      edges[i].setAttribute('class','edge');
    }
  }
}
]]></script>
        <defs>
                <circle id="rim" cx="0" cy="0" r="7"/>
                <circle id="rim2" cx="0" cy="0" r="3.5"/>
                <g id="zoomPlus">
                        <use xlink:href="#rim" fill="#404040">
                                <set attributeName="fill" to="#808080" begin="zoomplus.mouseover" end="zoomplus.mouseout"/>
                        </use>
                        <path d="M-4,0h8M0,-4v8" fill="none" stroke="white" stroke-width="1.5" pointer-events="none"/>
                </g>
                <g id="zoomMin">
                        <use xlink:href="#rim" fill="#404040">
                                <set attributeName="fill" to="#808080" begin="zoomminus.mouseover" end="zoomminus.mouseout"/>
                        </use>
                        <path d="M-4,0h8" fill="none" stroke="white" stroke-width="1.5" pointer-events="none"/>
                </g>
                <g id="dirArrow">
                        <path fill="none" stroke="white" stroke-width="1.5" d="M0,-3.0v7 M-2.5,-0.5L0,-3.0L2.5,-0.5"/>
                </g>
               <g id="resetDef">
                       <use xlink:href="#rim2" fill="#404040">
                               <set attributeName="fill" to="#808080" begin="reset.mouseover" end="reset.mouseout"/>
                       </use>
               </g>
        </defs>

<script type="text/javascript">
var viewWidth = 738;
var viewHeight = 260;
var sectionId = 'dynsection-0';
</script>
<script xlink:href="svgpan.js"/>
<svg id="graph" class="graph">
<g id="viewport">
<title>KuszkAPI::Forms::CommonDialog</title>
<polygon fill="white" stroke="none" points="-4,4 -4,-256 734,-256 734,4 -4,4"/>
<!-- Node1 -->
<g id="node1" class="node"><title>Node1</title>
<polygon fill="#bfbfbf" stroke="black" points="564,-162.5 564,-181.5 730,-181.5 730,-162.5 564,-162.5"/>
<text text-anchor="middle" x="647" y="-169.5" font-family="Helvetica,sans-Serif" font-size="10.00">KuszkAPI::Forms::CommonDialog</text>
</g>
<!-- Node2 -->
<g id="node2" class="node"><title>Node2</title>
<polygon fill="white" stroke="#bfbfbf" points="375.5,-232.5 375.5,-251.5 422.5,-251.5 422.5,-232.5 375.5,-232.5"/>
<text text-anchor="middle" x="399" y="-239.5" font-family="Helvetica,sans-Serif" font-size="10.00">HWND</text>
</g>
<!-- Node2&#45;&gt;Node1 -->
<g id="edge1" class="edge"><title>Node2&#45;&gt;Node1</title>
<path fill="none" stroke="#9a32cd" stroke-dasharray="5,2" d="M432.769,-234.769C462.501,-228.008 507.45,-217.283 546,-206 571.342,-198.582 599.815,-188.752 619.878,-181.57"/>
<polygon fill="#9a32cd" stroke="#9a32cd" points="431.907,-231.375 422.922,-236.99 433.447,-238.204 431.907,-231.375"/>
<text text-anchor="middle" x="523" y="-220" font-family="Helvetica,sans-Serif" font-size="10.00"> hOwner</text>
</g>
<!-- Node3 -->
<g id="node3" class="node"><title>Node3</title>
<polygon fill="white" stroke="#bfbfbf" points="162,-171.5 162,-190.5 232,-190.5 232,-171.5 162,-171.5"/>
<text text-anchor="middle" x="197" y="-178.5" font-family="Helvetica,sans-Serif" font-size="10.00">COLORREF</text>
</g>
<!-- Node3&#45;&gt;Node1 -->
<g id="edge2" class="edge"><title>Node3&#45;&gt;Node1</title>
<path fill="none" stroke="#9a32cd" stroke-dasharray="5,2" d="M242.496,-180.106C317.263,-178.604 469.185,-175.552 563.796,-173.651"/>
<polygon fill="#9a32cd" stroke="#9a32cd" points="241.968,-176.616 232.041,-180.316 242.109,-183.614 241.968,-176.616"/>
<text text-anchor="middle" x="399" y="-192" font-family="Helvetica,sans-Serif" font-size="10.00"> ptColors</text>
<text text-anchor="middle" x="399" y="-181" font-family="Helvetica,sans-Serif" font-size="10.00">tLastColor</text>
</g>
<!-- Node10 -->
<g id="node10" class="node"><title>Node10</title>
<g id="a_node10"><a xlink:href="class_kuszk_a_p_i_1_1_forms_1_1_common_dialog.html#struct_kuszk_a_p_i_1_1_forms_1_1_common_dialog_1_1_font_info" target="_top" xlink:title="KuszkAPI::Forms::CommonDialog\l::FontInfo">
<polygon fill="white" stroke="black" points="316,-125 316,-155 482,-155 482,-125 316,-125"/>
<text text-anchor="start" x="324" y="-143" font-family="Helvetica,sans-Serif" font-size="10.00">KuszkAPI::Forms::CommonDialog</text>
<text text-anchor="middle" x="399" y="-132" font-family="Helvetica,sans-Serif" font-size="10.00">::FontInfo</text>
</a>
</g>
</g>
<!-- Node3&#45;&gt;Node10 -->
<g id="edge11" class="edge"><title>Node3&#45;&gt;Node10</title>
<path fill="none" stroke="#9a32cd" stroke-dasharray="5,2" d="M242.334,-171.912C266.531,-166.951 297.109,-160.683 324.746,-155.017"/>
<polygon fill="#9a32cd" stroke="#9a32cd" points="241.475,-168.515 232.381,-173.952 242.88,-175.372 241.475,-168.515"/>
<text text-anchor="middle" x="285" y="-168" font-family="Helvetica,sans-Serif" font-size="10.00"> Color</text>
</g>
<!-- Node4 -->
<g id="node4" class="node"><title>Node4</title>
<g id="a_node4"><a xlink:href="class_kuszk_a_p_i_1_1_forms_1_1_common_dialog.html#struct_kuszk_a_p_i_1_1_forms_1_1_common_dialog_1_1_file_path" target="_top" xlink:title="KuszkAPI::Forms::CommonDialog\l::FilePath">
<polygon fill="white" stroke="black" points="316,-69 316,-99 482,-99 482,-69 316,-69"/>
<text text-anchor="start" x="324" y="-87" font-family="Helvetica,sans-Serif" font-size="10.00">KuszkAPI::Forms::CommonDialog</text>
<text text-anchor="middle" x="399" y="-76" font-family="Helvetica,sans-Serif" font-size="10.00">::FilePath</text>
</a>
</g>
</g>
<!-- Node4&#45;&gt;Node1 -->
<g id="edge3" class="edge"><title>Node4&#45;&gt;Node1</title>
<path fill="none" stroke="#9a32cd" stroke-dasharray="5,2" d="M451.58,-102.451C502.794,-120.772 579.286,-148.135 619.348,-162.466"/>
<polygon fill="#9a32cd" stroke="#9a32cd" points="452.604,-99.1005 442.009,-99.0278 450.246,-105.692 452.604,-99.1005"/>
<text text-anchor="middle" x="523" y="-138" font-family="Helvetica,sans-Serif" font-size="10.00"> tLastFile</text>
</g>
<!-- Node5 -->
<g id="node5" class="node"><title>Node5</title>
<g id="a_node5"><a xlink:href="class_kuszk_a_p_i_1_1_containers_1_1_string.html" target="_top" xlink:title="KuszkAPI::Containers\l::String">
<polygon fill="white" stroke="black" points="140.5,-61 140.5,-91 253.5,-91 253.5,-61 140.5,-61"/>
<text text-anchor="start" x="148.5" y="-79" font-family="Helvetica,sans-Serif" font-size="10.00">KuszkAPI::Containers</text>
<text text-anchor="middle" x="197" y="-68" font-family="Helvetica,sans-Serif" font-size="10.00">::String</text>
</a>
</g>
</g>
<!-- Node5&#45;&gt;Node4 -->
<g id="edge4" class="edge"><title>Node5&#45;&gt;Node4</title>
<path fill="none" stroke="#9a32cd" stroke-dasharray="5,2" d="M263.882,-76.0988C275.263,-76.276 286.976,-76.5594 298,-77 303.826,-77.2328 309.839,-77.5246 315.891,-77.8558"/>
<polygon fill="#9a32cd" stroke="#9a32cd" points="263.598,-72.5949 253.554,-75.9644 263.507,-79.5943 263.598,-72.5949"/>
<text text-anchor="middle" x="285" y="-102" font-family="Helvetica,sans-Serif" font-size="10.00"> Path</text>
<text text-anchor="middle" x="285" y="-91" font-family="Helvetica,sans-Serif" font-size="10.00">Name</text>
<text text-anchor="middle" x="285" y="-80" font-family="Helvetica,sans-Serif" font-size="10.00">Full</text>
</g>
<!-- Node6 -->
<g id="node6" class="node"><title>Node6</title>
<polygon fill="white" stroke="#bfbfbf" points="4.5,-139.5 4.5,-158.5 53.5,-158.5 53.5,-139.5 4.5,-139.5"/>
<text text-anchor="middle" x="29" y="-146.5" font-family="Helvetica,sans-Serif" font-size="10.00">TCHAR</text>
</g>
<!-- Node6&#45;&gt;Node5 -->
<g id="edge5" class="edge"><title>Node6&#45;&gt;Node5</title>
<path fill="none" stroke="#9a32cd" stroke-dasharray="5,2" d="M63.6123,-141.469C81.3855,-136.911 103.33,-130.356 122,-122 140.916,-113.534 160.779,-100.955 175.158,-91.0903"/>
<polygon fill="#9a32cd" stroke="#9a32cd" points="62.5551,-138.125 53.6859,-143.92 64.2334,-144.921 62.5551,-138.125"/>
<text text-anchor="middle" x="99" y="-140" font-family="Helvetica,sans-Serif" font-size="10.00"> cAbstract</text>
</g>
<!-- Node7 -->
<g id="node7" class="node"><title>Node7</title>
<polygon fill="white" stroke="#bfbfbf" points="1,-94.5 1,-113.5 57,-113.5 57,-94.5 1,-94.5"/>
<text text-anchor="middle" x="29" y="-101.5" font-family="Helvetica,sans-Serif" font-size="10.00">TCHAR *</text>
</g>
<!-- Node7&#45;&gt;Node5 -->
<g id="edge6" class="edge"><title>Node7&#45;&gt;Node5</title>
<path fill="none" stroke="#9a32cd" stroke-dasharray="5,2" d="M67.104,-97.7415C88.6765,-94.1028 116.282,-89.4464 140.408,-85.377"/>
<polygon fill="#9a32cd" stroke="#9a32cd" points="66.3188,-94.3244 57.0402,-99.439 67.4831,-101.227 66.3188,-94.3244"/>
<text text-anchor="middle" x="99" y="-110" font-family="Helvetica,sans-Serif" font-size="10.00"> pcBufor</text>
<text text-anchor="middle" x="99" y="-99" font-family="Helvetica,sans-Serif" font-size="10.00">pcData</text>
</g>
<!-- Node8 -->
<g id="node8" class="node"><title>Node8</title>
<g id="a_node8"><a xlink:href="namespace_3global_scope_4.html#classunsigned" target="_top" xlink:title="unsigned">
<polygon fill="white" stroke="black" points="1,-38.5 1,-57.5 57,-57.5 57,-38.5 1,-38.5"/>
<text text-anchor="middle" x="29" y="-45.5" font-family="Helvetica,sans-Serif" font-size="10.00">unsigned</text>
</a>
</g>
</g>
<!-- Node8&#45;&gt;Node5 -->
<g id="edge7" class="edge"><title>Node8&#45;&gt;Node5</title>
<path fill="none" stroke="#9a32cd" stroke-dasharray="5,2" d="M67.1938,-47.9385C84.0392,-48.4431 104.138,-49.79 122,-53 132.461,-54.88 143.512,-57.7899 153.794,-60.9152"/>
<polygon fill="#9a32cd" stroke="#9a32cd" points="67.2474,-44.4389 57.1748,-47.724 67.0975,-51.4373 67.2474,-44.4389"/>
<text text-anchor="middle" x="99" y="-78" font-family="Helvetica,sans-Serif" font-size="10.00"> uFormat</text>
<text text-anchor="middle" x="99" y="-67" font-family="Helvetica,sans-Serif" font-size="10.00">uDataSize</text>
<text text-anchor="middle" x="99" y="-56" font-family="Helvetica,sans-Serif" font-size="10.00">uIlosc</text>
</g>
<!-- Node9 -->
<g id="node9" class="node"><title>Node9</title>
<polygon fill="white" stroke="#bfbfbf" points="0.5,-0.5 0.5,-19.5 57.5,-19.5 57.5,-0.5 0.5,-0.5"/>
<text text-anchor="middle" x="29" y="-7.5" font-family="Helvetica,sans-Serif" font-size="10.00">DCHAR *</text>
</g>
<!-- Node9&#45;&gt;Node5 -->
<g id="edge8" class="edge"><title>Node9&#45;&gt;Node5</title>
<path fill="none" stroke="#9a32cd" stroke-dasharray="5,2" d="M67.6682,-17.4834C84.6072,-21.4401 104.648,-26.9545 122,-34 139.93,-41.2804 158.887,-52.1077 173.125,-60.9455"/>
<polygon fill="#9a32cd" stroke="#9a32cd" points="68.0973,-13.9928 57.574,-15.2214 66.5666,-20.8234 68.0973,-13.9928"/>
<text text-anchor="middle" x="99" y="-37" font-family="Helvetica,sans-Serif" font-size="10.00"> pcConvert</text>
</g>
<!-- Node10&#45;&gt;Node1 -->
<g id="edge9" class="edge"><title>Node10&#45;&gt;Node1</title>
<path fill="none" stroke="#9a32cd" stroke-dasharray="5,2" d="M492.348,-152.013C518.968,-155.476 547.635,-159.205 572.914,-162.493"/>
<polygon fill="#9a32cd" stroke="#9a32cd" points="492.624,-148.519 482.256,-150.7 491.721,-155.461 492.624,-148.519"/>
<text text-anchor="middle" x="523" y="-161" font-family="Helvetica,sans-Serif" font-size="10.00"> tLastFont</text>
</g>
<!-- Node11 -->
<g id="node11" class="node"><title>Node11</title>
<polygon fill="white" stroke="#bfbfbf" points="166,-122.5 166,-141.5 228,-141.5 228,-122.5 166,-122.5"/>
<text text-anchor="middle" x="197" y="-129.5" font-family="Helvetica,sans-Serif" font-size="10.00">LOGFONT</text>
</g>
<!-- Node11&#45;&gt;Node10 -->
<g id="edge10" class="edge"><title>Node11&#45;&gt;Node10</title>
<path fill="none" stroke="#9a32cd" stroke-dasharray="5,2" d="M238.215,-131.853C256.469,-131.928 278.331,-132.214 298,-133 303.826,-133.233 309.839,-133.525 315.891,-133.856"/>
<polygon fill="#9a32cd" stroke="#9a32cd" points="238.214,-128.353 228.206,-131.832 238.199,-135.353 238.214,-128.353"/>
<text text-anchor="middle" x="285" y="-136" font-family="Helvetica,sans-Serif" font-size="10.00"> Data</text>
</g>
</g>
</svg>
        <g id="navigator" transform="translate(0 0)" fill="#404254">
                <rect fill="#f2f5e9" fill-opacity="0.5" stroke="#606060" stroke-width=".5" x="0" y="0" width="60" height="60"/>
                <use id="zoomplus" xlink:href="#zoomPlus" x="17" y="9" onmousedown="handleZoom(evt,'in')"/>
                <use id="zoomminus" xlink:href="#zoomMin" x="42" y="9" onmousedown="handleZoom(evt,'out')"/>
                <use id="reset" xlink:href="#resetDef" x="30" y="36" onmousedown="handleReset()"/>
                <g id="arrowUp" xlink:href="#dirArrow" transform="translate(30 24)" onmousedown="handlePan(0,-1)">
                  <use xlink:href="#rim" fill="#404040">
                        <set attributeName="fill" to="#808080" begin="arrowUp.mouseover" end="arrowUp.mouseout"/>
                  </use>
                  <path fill="none" stroke="white" stroke-width="1.5" d="M0,-3.0v7 M-2.5,-0.5L0,-3.0L2.5,-0.5"/>
                </g>
                <g id="arrowRight" xlink:href="#dirArrow" transform="rotate(90) translate(36 -43)" onmousedown="handlePan(1,0)">
                  <use xlink:href="#rim" fill="#404040">
                        <set attributeName="fill" to="#808080" begin="arrowRight.mouseover" end="arrowRight.mouseout"/>
                  </use>
                  <path fill="none" stroke="white" stroke-width="1.5" d="M0,-3.0v7 M-2.5,-0.5L0,-3.0L2.5,-0.5"/>
                </g>
                <g id="arrowDown" xlink:href="#dirArrow" transform="rotate(180) translate(-30 -48)" onmousedown="handlePan(0,1)">
                  <use xlink:href="#rim" fill="#404040">
                        <set attributeName="fill" to="#808080" begin="arrowDown.mouseover" end="arrowDown.mouseout"/>
                  </use>
                  <path fill="none" stroke="white" stroke-width="1.5" d="M0,-3.0v7 M-2.5,-0.5L0,-3.0L2.5,-0.5"/>
                </g>
                <g id="arrowLeft" xlink:href="#dirArrow" transform="rotate(270) translate(-36 17)" onmousedown="handlePan(-1,0)">
                  <use xlink:href="#rim" fill="#404040">
                        <set attributeName="fill" to="#808080" begin="arrowLeft.mouseover" end="arrowLeft.mouseout"/>
                  </use>
                  <path fill="none" stroke="white" stroke-width="1.5" d="M0,-3.0v7 M-2.5,-0.5L0,-3.0L2.5,-0.5"/>
                </g>
        </g>
        <svg viewBox="0 0 15 15" width="100%" height="30px" preserveAspectRatio="xMaxYMin meet">
         <g id="arrow_out" transform="scale(0.3 0.3)">
          <a xlink:href="class_kuszk_a_p_i_1_1_forms_1_1_common_dialog__coll__graph_org.svg" target="_base">
           <rect id="button" ry="5" rx="5" y="6" x="6" height="38" width="38"
                fill="#f2f5e9" fill-opacity="0.5" stroke="#606060" stroke-width="1.0"/>
           <path id="arrow"
             d="M 11.500037,31.436501 C 11.940474,20.09759 22.043105,11.32322 32.158766,21.979434 L 37.068811,17.246167 C 37.068811,17.246167 37.088388,32 37.088388,32 L 22.160133,31.978069 C 22.160133,31.978069 26.997745,27.140456 26.997745,27.140456 C 18.528582,18.264221 13.291696,25.230495 11.500037,31.436501 z"
             style="fill:#404040;"/>
          </a>
         </g>
        </svg>
</svg>
