<?xml version="1.0" encoding="UTF-8" standalone="no"?>
<!DOCTYPE svg PUBLIC "-//W3C//DTD SVG 1.1//EN"
 "http://www.w3.org/Graphics/SVG/1.1/DTD/svg11.dtd">
<!-- Generated by graphviz version 2.36.0 (20140111.2315)
 -->
<!-- Title: KuszkAPI::Forms::Controls::Group&lt; tnData &gt; Pages: 1 -->
<svg width="1336pt" height="443pt"
 viewBox="0.00 0.00 1336.00 442.75" xmlns="http://www.w3.org/2000/svg" xmlns:xlink="http://www.w3.org/1999/xlink">
<g id="graph0" class="graph" transform="scale(1 1) rotate(0) translate(4 438.748)">
<title>KuszkAPI::Forms::Controls::Group&lt; tnData &gt;</title>
<polygon fill="white" stroke="none" points="-4,4 -4,-438.748 1332,-438.748 1332,4 -4,4"/>
<!-- Node1 -->
<g id="node1" class="node"><title>Node1</title>
<polygon fill="#bfbfbf" stroke="black" points="1192,-332.748 1192,-362.748 1328,-362.748 1328,-332.748 1192,-332.748"/>
<text text-anchor="start" x="1200" y="-350.748" font-family="Helvetica,sans-Serif" font-size="10.00">KuszkAPI::Forms::Controls</text>
<text text-anchor="middle" x="1260" y="-339.748" font-family="Helvetica,sans-Serif" font-size="10.00">::Group&lt; tnData &gt;</text>
</g>
<!-- Node2 -->
<g id="node2" class="node"><title>Node2</title>
<g id="a_node2"><a xlink:href="class_kuszk_a_p_i_1_1_containers_1_1_map.html" target="_top" xlink:title="KuszkAPI::Containers\l::Map\&lt; tnData, unsigned \&gt;">
<polygon fill="white" stroke="black" points="978.5,-357.748 978.5,-387.748 1111.5,-387.748 1111.5,-357.748 978.5,-357.748"/>
<text text-anchor="start" x="986.5" y="-375.748" font-family="Helvetica,sans-Serif" font-size="10.00">KuszkAPI::Containers</text>
<text text-anchor="middle" x="1045" y="-364.748" font-family="Helvetica,sans-Serif" font-size="10.00">::Map&lt; tnData, unsigned &gt;</text>
</a>
</g>
</g>
<!-- Node2&#45;&gt;Node1 -->
<g id="edge1" class="edge"><title>Node2&#45;&gt;Node1</title>
<path fill="none" stroke="#9a32cd" stroke-dasharray="5,2" d="M1121.64,-363.869C1144.51,-361.186 1169.45,-358.258 1191.73,-355.643"/>
<polygon fill="#9a32cd" stroke="#9a32cd" points="1121.17,-360.401 1111.65,-365.043 1121.98,-367.353 1121.17,-360.401"/>
<text text-anchor="middle" x="1152" y="-365.748" font-family="Helvetica,sans-Serif" font-size="10.00"> mControl</text>
</g>
<!-- Node3 -->
<g id="node3" class="node"><title>Node3</title>
<polygon fill="white" stroke="#bfbfbf" points="563,-365.248 563,-384.248 643,-384.248 643,-365.248 563,-365.248"/>
<text text-anchor="middle" x="603" y="-372.248" font-family="Helvetica,sans-Serif" font-size="10.00">Box&lt; tnData &gt;</text>
</g>
<!-- Node3&#45;&gt;Node2 -->
<g id="edge2" class="edge"><title>Node3&#45;&gt;Node2</title>
<path fill="none" stroke="#9a32cd" stroke-dasharray="5,2" d="M653.272,-374.524C732.746,-374.163 889.291,-373.451 978.213,-373.047"/>
<polygon fill="#9a32cd" stroke="#9a32cd" points="653.031,-371.025 643.047,-374.57 653.063,-378.025 653.031,-371.025"/>
<text text-anchor="middle" x="786" y="-377.748" font-family="Helvetica,sans-Serif" font-size="10.00"> bData</text>
</g>
<!-- Node11 -->
<g id="node11" class="node"><title>Node11</title>
<g id="a_node11"><a xlink:href="class_kuszk_a_p_i_1_1_containers_1_1_map.html" target="_top" xlink:title="KuszkAPI::Containers\l::Map\&lt; tnData, tnKey \&gt;">
<polygon fill="white" stroke="black" points="726.5,-313.748 726.5,-343.748 845.5,-343.748 845.5,-313.748 726.5,-313.748"/>
<text text-anchor="start" x="734.5" y="-331.748" font-family="Helvetica,sans-Serif" font-size="10.00">KuszkAPI::Containers</text>
<text text-anchor="middle" x="786" y="-320.748" font-family="Helvetica,sans-Serif" font-size="10.00">::Map&lt; tnData, tnKey &gt;</text>
</a>
</g>
</g>
<!-- Node3&#45;&gt;Node11 -->
<g id="edge16" class="edge"><title>Node3&#45;&gt;Node11</title>
<path fill="none" stroke="#9a32cd" stroke-dasharray="5,2" d="M651.324,-362.721C674.217,-356.903 701.924,-349.861 726.164,-343.701"/>
<polygon fill="#9a32cd" stroke="#9a32cd" points="650.333,-359.361 641.503,-365.217 652.057,-366.146 650.333,-359.361"/>
<text text-anchor="middle" x="693" y="-359.748" font-family="Helvetica,sans-Serif" font-size="10.00"> bData</text>
</g>
<!-- Node4 -->
<g id="node4" class="node"><title>Node4</title>
<g id="a_node4"><a xlink:href="class_kuszk_a_p_i_1_1_containers_1_1_list.html" target="_top" xlink:title="KuszkAPI::Containers\l::List\&lt; unsigned \&gt;">
<polygon fill="white" stroke="black" points="546.5,-70.7478 546.5,-100.748 659.5,-100.748 659.5,-70.7478 546.5,-70.7478"/>
<text text-anchor="start" x="554.5" y="-88.7478" font-family="Helvetica,sans-Serif" font-size="10.00">KuszkAPI::Containers</text>
<text text-anchor="middle" x="603" y="-77.7478" font-family="Helvetica,sans-Serif" font-size="10.00">::List&lt; unsigned &gt;</text>
</a>
</g>
</g>
<!-- Node4&#45;&gt;Node2 -->
<g id="edge3" class="edge"><title>Node4&#45;&gt;Node2</title>
<path fill="none" stroke="#9a32cd" stroke-dasharray="5,2" d="M630.023,-107.463C688.89,-155.777 838.072,-273.724 978,-347.748 984.823,-351.357 992.285,-354.705 999.659,-357.7"/>
<polygon fill="#9a32cd" stroke="#9a32cd" points="631.947,-104.513 622.005,-100.853 627.495,-109.915 631.947,-104.513"/>
<text text-anchor="middle" x="786" y="-268.748" font-family="Helvetica,sans-Serif" font-size="10.00"> lKey</text>
</g>
<!-- Node5 -->
<g id="node5" class="node"><title>Node5</title>
<g id="a_node5"><a xlink:href="class_kuszk_a_p_i_1_1_containers_1_1_container.html" target="_top" xlink:title="Implementacja bazy dla modułu kontenerów. ">
<polygon fill="white" stroke="black" points="132.5,-208.748 132.5,-238.748 245.5,-238.748 245.5,-208.748 132.5,-208.748"/>
<text text-anchor="start" x="140.5" y="-226.748" font-family="Helvetica,sans-Serif" font-size="10.00">KuszkAPI::Containers</text>
<text text-anchor="middle" x="189" y="-215.748" font-family="Helvetica,sans-Serif" font-size="10.00">::Container</text>
</a>
</g>
</g>
<!-- Node5&#45;&gt;Node4 -->
<g id="edge4" class="edge"><title>Node5&#45;&gt;Node4</title>
<path fill="none" stroke="midnightblue" d="M234.795,-204.761C262.897,-193.4 300.105,-179.351 334,-169.748 418.533,-145.797 446.238,-163.912 528,-131.748 547.567,-124.05 567.702,-111.15 582.019,-100.967"/>
<polygon fill="midnightblue" stroke="midnightblue" points="233.19,-201.635 225.255,-208.655 235.836,-208.116 233.19,-201.635"/>
</g>
<!-- Node9 -->
<g id="node9" class="node"><title>Node9</title>
<g id="a_node9"><a xlink:href="class_kuszk_a_p_i_1_1_containers_1_1_list.html" target="_top" xlink:title="Implementacja szablonu listy dla modułu kontenerów. ">
<polygon fill="white" stroke="black" points="334.5,-86.7478 334.5,-116.748 447.5,-116.748 447.5,-86.7478 334.5,-86.7478"/>
<text text-anchor="start" x="342.5" y="-104.748" font-family="Helvetica,sans-Serif" font-size="10.00">KuszkAPI::Containers</text>
<text text-anchor="middle" x="391" y="-93.7478" font-family="Helvetica,sans-Serif" font-size="10.00">::List&lt; tnData &gt;</text>
</a>
</g>
</g>
<!-- Node5&#45;&gt;Node9 -->
<g id="edge11" class="edge"><title>Node5&#45;&gt;Node9</title>
<path fill="none" stroke="midnightblue" d="M213.33,-201.559C229.081,-187.318 250.794,-169.065 272,-155.748 296.803,-140.172 326.844,-126.49 350.408,-116.795"/>
<polygon fill="midnightblue" stroke="midnightblue" points="210.668,-199.252 205.671,-208.594 215.404,-204.407 210.668,-199.252"/>
</g>
<!-- Node12 -->
<g id="node12" class="node"><title>Node12</title>
<g id="a_node12"><a xlink:href="class_kuszk_a_p_i_1_1_containers_1_1_list.html" target="_top" xlink:title="KuszkAPI::Containers\l::List\&lt; tnKey \&gt;">
<polygon fill="white" stroke="black" points="546.5,-226.748 546.5,-256.748 659.5,-256.748 659.5,-226.748 546.5,-226.748"/>
<text text-anchor="start" x="554.5" y="-244.748" font-family="Helvetica,sans-Serif" font-size="10.00">KuszkAPI::Containers</text>
<text text-anchor="middle" x="603" y="-233.748" font-family="Helvetica,sans-Serif" font-size="10.00">::List&lt; tnKey &gt;</text>
</a>
</g>
</g>
<!-- Node5&#45;&gt;Node12 -->
<g id="edge18" class="edge"><title>Node5&#45;&gt;Node12</title>
<path fill="none" stroke="midnightblue" d="M245.942,-241.615C272.348,-249.143 304.48,-257.016 334,-260.748 419.56,-271.564 442.432,-267.498 528,-256.748 533.983,-255.996 540.205,-255.03 546.387,-253.952"/>
<polygon fill="midnightblue" stroke="midnightblue" points="246.698,-238.19 236.119,-238.756 244.742,-244.911 246.698,-238.19"/>
</g>
<!-- Node6 -->
<g id="node6" class="node"><title>Node6</title>
<g id="a_node6"><a xlink:href="namespace_3global_scope_4.html#classunsigned" target="_top" xlink:title="unsigned">
<polygon fill="white" stroke="black" points="0,-290.248 0,-309.248 56,-309.248 56,-290.248 0,-290.248"/>
<text text-anchor="middle" x="28" y="-297.248" font-family="Helvetica,sans-Serif" font-size="10.00">unsigned</text>
</a>
</g>
</g>
<!-- Node6&#45;&gt;Node2 -->
<g id="edge14" class="edge"><title>Node6&#45;&gt;Node2</title>
<path fill="none" stroke="#9a32cd" stroke-dasharray="5,2" d="M40.5898,-318.161C63.9216,-352.698 120.165,-423.748 188,-423.748 188,-423.748 188,-423.748 787,-423.748 861.6,-423.748 946.092,-402.817 997.186,-387.774"/>
<polygon fill="#9a32cd" stroke="#9a32cd" points="43.308,-315.924 34.8995,-309.478 37.4532,-319.76 43.308,-315.924"/>
<text text-anchor="middle" x="497" y="-426.748" font-family="Helvetica,sans-Serif" font-size="10.00"> uIlosc</text>
</g>
<!-- Node6&#45;&gt;Node4 -->
<g id="edge9" class="edge"><title>Node6&#45;&gt;Node4</title>
<path fill="none" stroke="#9a32cd" stroke-dasharray="5,2" d="M29.9838,-280.123C33.0596,-226.026 44.137,-76.2908 74,-38.7478 89.0043,-19.8849 100.372,-22.5083 124,-17.7478 300.716,17.8561 354.68,-4.18658 528,-53.7478 542.938,-58.0194 558.834,-64.6028 572.049,-70.6902"/>
<polygon fill="#9a32cd" stroke="#9a32cd" points="26.4872,-279.967 29.445,-290.141 33.4771,-280.343 26.4872,-279.967"/>
<text text-anchor="middle" x="294" y="-5.74785" font-family="Helvetica,sans-Serif" font-size="10.00"> tAbstract</text>
</g>
<!-- Node6&#45;&gt;Node5 -->
<g id="edge5" class="edge"><title>Node6&#45;&gt;Node5</title>
<path fill="none" stroke="#9a32cd" stroke-dasharray="5,2" d="M58.3718,-285.708C86.2412,-272.387 127.993,-252.43 156.533,-238.789"/>
<polygon fill="#9a32cd" stroke="#9a32cd" points="56.6504,-282.652 49.1375,-290.122 59.6692,-288.968 56.6504,-282.652"/>
<text text-anchor="middle" x="90" y="-291.748" font-family="Helvetica,sans-Serif" font-size="10.00"> uIlosc</text>
<text text-anchor="middle" x="90" y="-280.748" font-family="Helvetica,sans-Serif" font-size="10.00">uMode</text>
</g>
<!-- Node6&#45;&gt;Node11 -->
<g id="edge22" class="edge"><title>Node6&#45;&gt;Node11</title>
<path fill="none" stroke="#9a32cd" stroke-dasharray="5,2" d="M65.8963,-309.261C97.9446,-316.685 145.724,-325.748 188,-325.748 188,-325.748 188,-325.748 604,-325.748 644.856,-325.748 690.893,-326.521 726.313,-327.283"/>
<polygon fill="#9a32cd" stroke="#9a32cd" points="66.6095,-305.833 56.0707,-306.921 64.9881,-312.642 66.6095,-305.833"/>
<text text-anchor="middle" x="391" y="-328.748" font-family="Helvetica,sans-Serif" font-size="10.00"> uIlosc</text>
</g>
<!-- Node7 -->
<g id="node7" class="node"><title>Node7</title>
<g id="a_node7"><a xlink:href="class_kuszk_a_p_i_1_1_containers_1_1_list.html#struct_kuszk_a_p_i_1_1_containers_1_1_list_1_1_item_data" target="_top" xlink:title="Struktura przechowująca wskaźnik na element listy oraz wskaźnik na kolejny obiekt. ">
<polygon fill="white" stroke="black" points="124,-27.7478 124,-57.7478 254,-57.7478 254,-27.7478 124,-27.7478"/>
<text text-anchor="start" x="132" y="-45.7478" font-family="Helvetica,sans-Serif" font-size="10.00">KuszkAPI::Containers</text>
<text text-anchor="middle" x="189" y="-34.7478" font-family="Helvetica,sans-Serif" font-size="10.00">::List&lt; tnData &gt;::ItemData</text>
</a>
</g>
</g>
<!-- Node7&#45;&gt;Node4 -->
<g id="edge6" class="edge"><title>Node7&#45;&gt;Node4</title>
<path fill="none" stroke="#9a32cd" stroke-dasharray="5,2" d="M264.19,-43.2124C315.887,-44.2652 386.355,-47.1546 448,-54.7478 480.887,-58.7989 517.247,-65.9875 546.374,-72.4229"/>
<polygon fill="#9a32cd" stroke="#9a32cd" points="264.172,-39.7116 254.109,-43.0255 264.043,-46.7104 264.172,-39.7116"/>
<text text-anchor="middle" x="391" y="-68.7478" font-family="Helvetica,sans-Serif" font-size="10.00"> ptLast</text>
<text text-anchor="middle" x="391" y="-57.7478" font-family="Helvetica,sans-Serif" font-size="10.00">ptBegin</text>
</g>
<!-- Node7&#45;&gt;Node7 -->
<g id="edge7" class="edge"><title>Node7&#45;&gt;Node7</title>
<path fill="none" stroke="#9a32cd" stroke-dasharray="5,2" d="M171.846,-68.3454C174.19,-72.7182 179.908,-75.7478 189,-75.7478 204.313,-75.7478 210.055,-67.1541 206.227,-58.0232"/>
<polygon fill="#9a32cd" stroke="#9a32cd" points="175.344,-67.9982 171.773,-58.0232 168.344,-68.0477 175.344,-67.9982"/>
<text text-anchor="middle" x="189" y="-78.7478" font-family="Helvetica,sans-Serif" font-size="10.00"> ptNext</text>
</g>
<!-- Node7&#45;&gt;Node9 -->
<g id="edge13" class="edge"><title>Node7&#45;&gt;Node9</title>
<path fill="none" stroke="#9a32cd" stroke-dasharray="5,2" d="M250.751,-60.6693C278.995,-69.0014 312.205,-78.7983 339.107,-86.7345"/>
<polygon fill="#9a32cd" stroke="#9a32cd" points="251.568,-57.2612 240.986,-57.7887 249.587,-63.9752 251.568,-57.2612"/>
<text text-anchor="middle" x="294" y="-93.7478" font-family="Helvetica,sans-Serif" font-size="10.00"> ptLast</text>
<text text-anchor="middle" x="294" y="-82.7478" font-family="Helvetica,sans-Serif" font-size="10.00">ptBegin</text>
</g>
<!-- Node7&#45;&gt;Node12 -->
<g id="edge19" class="edge"><title>Node7&#45;&gt;Node12</title>
<path fill="none" stroke="#9a32cd" stroke-dasharray="5,2" d="M219.2,-64.1579C230.78,-73.4384 243.75,-84.8877 254,-96.7478 263.919,-108.225 260.173,-116.249 272,-125.748 315.146,-160.401 464.11,-204.505 546.359,-227.041"/>
<polygon fill="#9a32cd" stroke="#9a32cd" points="221.108,-61.2068 211.073,-57.8087 216.798,-66.7231 221.108,-61.2068"/>
<text text-anchor="middle" x="391" y="-211.748" font-family="Helvetica,sans-Serif" font-size="10.00"> ptLast</text>
<text text-anchor="middle" x="391" y="-200.748" font-family="Helvetica,sans-Serif" font-size="10.00">ptBegin</text>
</g>
<!-- Node8 -->
<g id="node8" class="node"><title>Node8</title>
<polygon fill="white" stroke="#bfbfbf" points="2,-33.2478 2,-52.2478 54,-52.2478 54,-33.2478 2,-33.2478"/>
<text text-anchor="middle" x="28" y="-40.2478" font-family="Helvetica,sans-Serif" font-size="10.00">tnData *</text>
</g>
<!-- Node8&#45;&gt;Node7 -->
<g id="edge8" class="edge"><title>Node8&#45;&gt;Node7</title>
<path fill="none" stroke="#9a32cd" stroke-dasharray="5,2" d="M64.4904,-42.7478C81.966,-42.7478 103.584,-42.7478 123.825,-42.7478"/>
<polygon fill="#9a32cd" stroke="#9a32cd" points="64.1941,-39.2479 54.194,-42.7478 64.194,-46.2479 64.1941,-39.2479"/>
<text text-anchor="middle" x="90" y="-45.7478" font-family="Helvetica,sans-Serif" font-size="10.00"> ptData</text>
</g>
<!-- Node9&#45;&gt;Node4 -->
<g id="edge10" class="edge"><title>Node9&#45;&gt;Node4</title>
<path fill="none" stroke="orange" stroke-dasharray="5,2" d="M457.729,-87.7457C460.517,-87.3668 463.282,-87.0306 466,-86.7478 492.303,-84.0111 521.622,-83.4776 546.284,-83.7433"/>
<polygon fill="orange" stroke="orange" points="456.944,-84.3246 447.583,-89.2865 457.996,-91.2453 456.944,-84.3246"/>
<text text-anchor="middle" x="497" y="-89.7478" font-family="Helvetica,sans-Serif" font-size="10.00"> &lt; unsigned &gt;</text>
</g>
<!-- Node9&#45;&gt;Node12 -->
<g id="edge21" class="edge"><title>Node9&#45;&gt;Node12</title>
<path fill="none" stroke="orange" stroke-dasharray="5,2" d="M442.237,-120.81C468.944,-132.134 501.614,-147.951 528,-166.748 552.582,-184.259 576.217,-210.354 589.915,-226.693"/>
<polygon fill="orange" stroke="orange" points="443.269,-117.448 432.691,-116.844 440.583,-123.912 443.269,-117.448"/>
<text text-anchor="middle" x="497" y="-169.748" font-family="Helvetica,sans-Serif" font-size="10.00"> &lt; tnKey &gt;</text>
</g>
<!-- Node10 -->
<g id="node10" class="node"><title>Node10</title>
<polygon fill="white" stroke="#bfbfbf" points="166.5,-106.248 166.5,-125.248 211.5,-125.248 211.5,-106.248 166.5,-106.248"/>
<text text-anchor="middle" x="189" y="-113.248" font-family="Helvetica,sans-Serif" font-size="10.00">tnData</text>
</g>
<!-- Node10&#45;&gt;Node9 -->
<g id="edge12" class="edge"><title>Node10&#45;&gt;Node9</title>
<path fill="none" stroke="#9a32cd" stroke-dasharray="5,2" d="M222.151,-113.497C252.334,-111.384 298.123,-108.179 334.256,-105.65"/>
<polygon fill="#9a32cd" stroke="#9a32cd" points="221.515,-110.033 211.784,-114.223 222.004,-117.016 221.515,-110.033"/>
<text text-anchor="middle" x="294" y="-113.748" font-family="Helvetica,sans-Serif" font-size="10.00"> tAbstract</text>
</g>
<!-- Node11&#45;&gt;Node2 -->
<g id="edge15" class="edge"><title>Node11&#45;&gt;Node2</title>
<path fill="none" stroke="orange" stroke-dasharray="5,2" d="M855.616,-340.495C893.689,-347.014 940.796,-355.079 978.38,-361.513"/>
<polygon fill="orange" stroke="orange" points="856.086,-337.025 845.639,-338.787 854.905,-343.925 856.086,-337.025"/>
<text text-anchor="middle" x="912" y="-360.748" font-family="Helvetica,sans-Serif" font-size="10.00"> &lt; tnData, unsigned &gt;</text>
</g>
<!-- Node12&#45;&gt;Node11 -->
<g id="edge17" class="edge"><title>Node12&#45;&gt;Node11</title>
<path fill="none" stroke="#9a32cd" stroke-dasharray="5,2" d="M644.88,-261.397C677.802,-277.222 723.406,-299.142 753.53,-313.622"/>
<polygon fill="#9a32cd" stroke="#9a32cd" points="646.057,-258.08 635.528,-256.902 643.024,-264.389 646.057,-258.08"/>
<text text-anchor="middle" x="693" y="-293.748" font-family="Helvetica,sans-Serif" font-size="10.00"> lKey</text>
</g>
<!-- Node13 -->
<g id="node13" class="node"><title>Node13</title>
<polygon fill="white" stroke="#bfbfbf" points="370,-232.248 370,-251.248 412,-251.248 412,-232.248 370,-232.248"/>
<text text-anchor="middle" x="391" y="-239.248" font-family="Helvetica,sans-Serif" font-size="10.00">tnKey</text>
</g>
<!-- Node13&#45;&gt;Node12 -->
<g id="edge20" class="edge"><title>Node13&#45;&gt;Node12</title>
<path fill="none" stroke="#9a32cd" stroke-dasharray="5,2" d="M422.299,-241.748C454.618,-241.748 506.519,-241.748 546.254,-241.748"/>
<polygon fill="#9a32cd" stroke="#9a32cd" points="422.136,-238.248 412.136,-241.748 422.136,-245.248 422.136,-238.248"/>
<text text-anchor="middle" x="497" y="-244.748" font-family="Helvetica,sans-Serif" font-size="10.00"> tAbstract</text>
</g>
<!-- Node14 -->
<g id="node14" class="node"><title>Node14</title>
<polygon fill="white" stroke="#bfbfbf" points="1003.5,-319.248 1003.5,-338.248 1086.5,-338.248 1086.5,-319.248 1003.5,-319.248"/>
<text text-anchor="middle" x="1045" y="-326.248" font-family="Helvetica,sans-Serif" font-size="10.00">const HWND &amp;</text>
</g>
<!-- Node14&#45;&gt;Node1 -->
<g id="edge23" class="edge"><title>Node14&#45;&gt;Node1</title>
<path fill="none" stroke="#9a32cd" stroke-dasharray="5,2" d="M1096.83,-329.905C1120.35,-330.755 1148.64,-332.221 1174,-334.748 1179.79,-335.325 1185.79,-336.028 1191.81,-336.805"/>
<polygon fill="#9a32cd" stroke="#9a32cd" points="1096.83,-326.403 1086.72,-329.567 1096.6,-333.399 1096.83,-326.403"/>
<text text-anchor="middle" x="1152" y="-337.748" font-family="Helvetica,sans-Serif" font-size="10.00"> hOwner</text>
</g>
</g>
</svg>
