<?xml version="1.0" encoding="UTF-8" standalone="no"?>
<!DOCTYPE svg PUBLIC "-//W3C//DTD SVG 1.1//EN"
 "http://www.w3.org/Graphics/SVG/1.1/DTD/svg11.dtd">
<!-- Generated by graphviz version 2.36.0 (20140111.2315)
 -->
<!-- Title: KuszkAPI/Containers Pages: 1 -->
<svg width="400pt" height="183pt"
 viewBox="0.00 0.00 400.00 183.00" xmlns="http://www.w3.org/2000/svg" xmlns:xlink="http://www.w3.org/1999/xlink">
<g id="graph0" class="graph" transform="scale(1 1) rotate(0) translate(4 179)">
<title>KuszkAPI/Containers</title>
<polygon fill="white" stroke="none" points="-4,4 -4,-179 396,-179 396,4 -4,4"/>
<g id="clust1" class="cluster"><title>clusterdir_6f7fa3ee7946af07f3c30f8c4eea207f</title>
<g id="a_clust1"><a xlink:href="dir_6f7fa3ee7946af07f3c30f8c4eea207f.html" target="_top" xlink:title="KuszkAPI">
<polygon fill="#ddddee" stroke="black" points="8,-8 8,-167 384,-167 384,-8 8,-8"/>
<text text-anchor="middle" x="196" y="-155" font-family="Helvetica,sans-Serif" font-size="10.00">KuszkAPI</text>
</a>
</g>
</g>
<g id="clust2" class="cluster"><title>clusterdir_f746e1e67071bcc9516e83976125cf5b</title>
<g id="a_clust2"><a xlink:href="dir_f746e1e67071bcc9516e83976125cf5b.html" target="_top">
<polygon fill="#eeeeff" stroke="black" points="16,-16 16,-140 376,-140 376,-16 16,-16"/>
</a>
</g>
</g>
<!-- dir_f746e1e67071bcc9516e83976125cf5b -->
<g id="node1" class="node"><title>dir_f746e1e67071bcc9516e83976125cf5b</title>
<text text-anchor="middle" x="197" y="-111.5" font-family="Helvetica,sans-Serif" font-size="10.00">Containers</text>
</g>
<!-- dir_47166c10c1a14fecbd4c29a2f21f1471 -->
<g id="node2" class="node"><title>dir_47166c10c1a14fecbd4c29a2f21f1471</title>
<g id="a_node2"><a xlink:href="dir_47166c10c1a14fecbd4c29a2f21f1471.html" target="_top" xlink:title="Base">
<polygon fill="white" stroke="black" points="78,-60 24,-60 24,-24 78,-24 78,-60"/>
<text text-anchor="middle" x="51" y="-39.5" font-family="Helvetica,sans-Serif" font-size="10.00">Base</text>
</a>
</g>
</g>
<!-- dir_f746e1e67071bcc9516e83976125cf5b&#45;&gt;dir_47166c10c1a14fecbd4c29a2f21f1471 -->
<g id="edge3" class="edge"><title>dir_f746e1e67071bcc9516e83976125cf5b&#45;&gt;dir_47166c10c1a14fecbd4c29a2f21f1471</title>
<path fill="none" stroke="black" d="M165.679,-97.9832C142.749,-86.9892 111.567,-72.039 87.5063,-60.503"/>
<polygon fill="black" stroke="black" points="88.8673,-57.2741 78.337,-56.1068 85.841,-63.5861 88.8673,-57.2741"/>
<g id="a_edge3&#45;headlabel"><a xlink:href="dir_000002_000007.html" target="_top" xlink:title="2">
<text text-anchor="middle" x="93.3361" y="-53.7679" font-family="Helvetica,sans-Serif" font-size="10.00">2</text>
</a>
</g>
</g>
<!-- dir_c78185a8836065dc1f942669c68a4e10 -->
<g id="node3" class="node"><title>dir_c78185a8836065dc1f942669c68a4e10</title>
<g id="a_node3"><a xlink:href="dir_c78185a8836065dc1f942669c68a4e10.html" target="_top" xlink:title="Common">
<polygon fill="white" stroke="black" points="152,-60 96,-60 96,-24 152,-24 152,-60"/>
<text text-anchor="middle" x="124" y="-39.5" font-family="Helvetica,sans-Serif" font-size="10.00">Common</text>
</a>
</g>
</g>
<!-- dir_f746e1e67071bcc9516e83976125cf5b&#45;&gt;dir_c78185a8836065dc1f942669c68a4e10 -->
<g id="edge1" class="edge"><title>dir_f746e1e67071bcc9516e83976125cf5b&#45;&gt;dir_c78185a8836065dc1f942669c68a4e10</title>
<path fill="none" stroke="black" d="M178.955,-95.6966C169.938,-87.0503 158.882,-76.4486 149.057,-67.027"/>
<polygon fill="black" stroke="black" points="151.478,-64.4993 141.837,-60.1043 146.633,-69.5518 151.478,-64.4993"/>
<g id="a_edge1&#45;headlabel"><a xlink:href="dir_000002_000008.html" target="_top" xlink:title="6">
<text text-anchor="middle" x="156.037" y="-62.4379" font-family="Helvetica,sans-Serif" font-size="10.00">6</text>
</a>
</g>
</g>
<!-- dir_80d31d915e8298a9bd5aa55f2ff6556a -->
<g id="node4" class="node"><title>dir_80d31d915e8298a9bd5aa55f2ff6556a</title>
<g id="a_node4"><a xlink:href="dir_80d31d915e8298a9bd5aa55f2ff6556a.html" target="_top" xlink:title="Files">
<polygon fill="white" stroke="black" points="224,-60 170,-60 170,-24 224,-24 224,-60"/>
<text text-anchor="middle" x="197" y="-39.5" font-family="Helvetica,sans-Serif" font-size="10.00">Files</text>
</a>
</g>
</g>
<!-- dir_f746e1e67071bcc9516e83976125cf5b&#45;&gt;dir_80d31d915e8298a9bd5aa55f2ff6556a -->
<g id="edge2" class="edge"><title>dir_f746e1e67071bcc9516e83976125cf5b&#45;&gt;dir_80d31d915e8298a9bd5aa55f2ff6556a</title>
<path fill="none" stroke="black" d="M197,-95.6966C197,-87.9827 197,-78.7125 197,-70.1124"/>
<polygon fill="black" stroke="black" points="200.5,-70.1043 197,-60.1043 193.5,-70.1044 200.5,-70.1043"/>
<g id="a_edge2&#45;headlabel"><a xlink:href="dir_000002_000009.html" target="_top" xlink:title="2">
<text text-anchor="middle" x="203.339" y="-71.199" font-family="Helvetica,sans-Serif" font-size="10.00">2</text>
</a>
</g>
</g>
<!-- dir_53cd5c678dea310d14c9f600258f7ca2 -->
<g id="node5" class="node"><title>dir_53cd5c678dea310d14c9f600258f7ca2</title>
<g id="a_node5"><a xlink:href="dir_53cd5c678dea310d14c9f600258f7ca2.html" target="_top" xlink:title="String">
<polygon fill="white" stroke="black" points="296,-60 242,-60 242,-24 296,-24 296,-60"/>
<text text-anchor="middle" x="269" y="-39.5" font-family="Helvetica,sans-Serif" font-size="10.00">String</text>
</a>
</g>
</g>
<!-- dir_f746e1e67071bcc9516e83976125cf5b&#45;&gt;dir_53cd5c678dea310d14c9f600258f7ca2 -->
<g id="edge5" class="edge"><title>dir_f746e1e67071bcc9516e83976125cf5b&#45;&gt;dir_53cd5c678dea310d14c9f600258f7ca2</title>
<path fill="none" stroke="black" d="M214.798,-95.6966C223.604,-87.135 234.382,-76.6562 244.001,-67.3045"/>
<polygon fill="black" stroke="black" points="246.677,-69.5846 251.407,-60.1043 241.797,-64.5657 246.677,-69.5846"/>
<g id="a_edge5&#45;headlabel"><a xlink:href="dir_000002_000010.html" target="_top" xlink:title="2">
<text text-anchor="middle" x="246.079" y="-71.6261" font-family="Helvetica,sans-Serif" font-size="10.00">2</text>
</a>
</g>
</g>
<!-- dir_641c162a36b7dceb58fffed0e0f0211c -->
<g id="node6" class="node"><title>dir_641c162a36b7dceb58fffed0e0f0211c</title>
<g id="a_node6"><a xlink:href="dir_641c162a36b7dceb58fffed0e0f0211c.html" target="_top" xlink:title="Strings">
<polygon fill="white" stroke="black" points="368,-60 314,-60 314,-24 368,-24 368,-60"/>
<text text-anchor="middle" x="341" y="-39.5" font-family="Helvetica,sans-Serif" font-size="10.00">Strings</text>
</a>
</g>
</g>
<!-- dir_f746e1e67071bcc9516e83976125cf5b&#45;&gt;dir_641c162a36b7dceb58fffed0e0f0211c -->
<g id="edge4" class="edge"><title>dir_f746e1e67071bcc9516e83976125cf5b&#45;&gt;dir_641c162a36b7dceb58fffed0e0f0211c</title>
<path fill="none" stroke="black" d="M228.601,-97.6382C251.013,-86.7436 281.146,-72.0957 304.57,-60.7088"/>
<polygon fill="black" stroke="black" points="306.369,-63.7261 313.833,-56.2063 303.309,-57.4305 306.369,-63.7261"/>
<g id="a_edge4&#45;headlabel"><a xlink:href="dir_000002_000011.html" target="_top" xlink:title="2">
<text text-anchor="middle" x="304.378" y="-65.3511" font-family="Helvetica,sans-Serif" font-size="10.00">2</text>
</a>
</g>
</g>
</g>
</svg>
