<?xml version="1.0" encoding="UTF-8" standalone="no"?>
<!DOCTYPE svg PUBLIC "-//W3C//DTD SVG 1.1//EN"
 "http://www.w3.org/Graphics/SVG/1.1/DTD/svg11.dtd">
<!-- Generated by graphviz version 2.36.0 (20140111.2315)
 -->
<!-- Title: KuszkAPI/Sockets Pages: 1 -->
<svg width="254pt" height="183pt"
 viewBox="0.00 0.00 254.00 183.00" xmlns="http://www.w3.org/2000/svg" xmlns:xlink="http://www.w3.org/1999/xlink">
<g id="graph0" class="graph" transform="scale(1 1) rotate(0) translate(4 179)">
<title>KuszkAPI/Sockets</title>
<polygon fill="white" stroke="none" points="-4,4 -4,-179 250,-179 250,4 -4,4"/>
<g id="clust1" class="cluster"><title>clusterdir_6f7fa3ee7946af07f3c30f8c4eea207f</title>
<g id="a_clust1"><a xlink:href="dir_6f7fa3ee7946af07f3c30f8c4eea207f.html" target="_top" xlink:title="KuszkAPI">
<polygon fill="#ddddee" stroke="black" points="8,-8 8,-167 238,-167 238,-8 8,-8"/>
<text text-anchor="middle" x="123" y="-155" font-family="Helvetica,sans-Serif" font-size="10.00">KuszkAPI</text>
</a>
</g>
</g>
<g id="clust2" class="cluster"><title>clusterdir_4eb1cee1899202dd97a9e68b23f69ede</title>
<g id="a_clust2"><a xlink:href="dir_4eb1cee1899202dd97a9e68b23f69ede.html" target="_top">
<polygon fill="#eeeeff" stroke="black" points="16,-16 16,-140 230,-140 230,-16 16,-16"/>
</a>
</g>
</g>
<!-- dir_4eb1cee1899202dd97a9e68b23f69ede -->
<g id="node1" class="node"><title>dir_4eb1cee1899202dd97a9e68b23f69ede</title>
<text text-anchor="middle" x="123" y="-111.5" font-family="Helvetica,sans-Serif" font-size="10.00">Sockets</text>
</g>
<!-- dir_a2d802ccfc0b3891aaf7ffdda40aef84 -->
<g id="node2" class="node"><title>dir_a2d802ccfc0b3891aaf7ffdda40aef84</title>
<g id="a_node2"><a xlink:href="dir_a2d802ccfc0b3891aaf7ffdda40aef84.html" target="_top" xlink:title="Base">
<polygon fill="white" stroke="black" points="78,-60 24,-60 24,-24 78,-24 78,-60"/>
<text text-anchor="middle" x="51" y="-39.5" font-family="Helvetica,sans-Serif" font-size="10.00">Base</text>
</a>
</g>
</g>
<!-- dir_4eb1cee1899202dd97a9e68b23f69ede&#45;&gt;dir_a2d802ccfc0b3891aaf7ffdda40aef84 -->
<g id="edge2" class="edge"><title>dir_4eb1cee1899202dd97a9e68b23f69ede&#45;&gt;dir_a2d802ccfc0b3891aaf7ffdda40aef84</title>
<path fill="none" stroke="black" d="M105.202,-95.6966C96.396,-87.135 85.6179,-76.6562 75.9989,-67.3045"/>
<polygon fill="black" stroke="black" points="78.2028,-64.5657 68.593,-60.1043 73.3232,-69.5846 78.2028,-64.5657"/>
<g id="a_edge2&#45;headlabel"><a xlink:href="dir_000004_000023.html" target="_top" xlink:title="2">
<text text-anchor="middle" x="82.7593" y="-62.5356" font-family="Helvetica,sans-Serif" font-size="10.00">2</text>
</a>
</g>
</g>
<!-- dir_bf5f307d38662ca62c3cd8124eb1f57a -->
<g id="node3" class="node"><title>dir_bf5f307d38662ca62c3cd8124eb1f57a</title>
<g id="a_node3"><a xlink:href="dir_bf5f307d38662ca62c3cd8124eb1f57a.html" target="_top" xlink:title="Client">
<polygon fill="white" stroke="black" points="150,-60 96,-60 96,-24 150,-24 150,-60"/>
<text text-anchor="middle" x="123" y="-39.5" font-family="Helvetica,sans-Serif" font-size="10.00">Client</text>
</a>
</g>
</g>
<!-- dir_4eb1cee1899202dd97a9e68b23f69ede&#45;&gt;dir_bf5f307d38662ca62c3cd8124eb1f57a -->
<g id="edge1" class="edge"><title>dir_4eb1cee1899202dd97a9e68b23f69ede&#45;&gt;dir_bf5f307d38662ca62c3cd8124eb1f57a</title>
<path fill="none" stroke="black" d="M123,-95.6966C123,-87.9827 123,-78.7125 123,-70.1124"/>
<polygon fill="black" stroke="black" points="126.5,-70.1043 123,-60.1043 119.5,-70.1044 126.5,-70.1043"/>
<g id="a_edge1&#45;headlabel"><a xlink:href="dir_000004_000024.html" target="_top" xlink:title="2">
<text text-anchor="middle" x="129.339" y="-71.199" font-family="Helvetica,sans-Serif" font-size="10.00">2</text>
</a>
</g>
</g>
<!-- dir_7f1654bc147765fee18a237ee4dd22e8 -->
<g id="node4" class="node"><title>dir_7f1654bc147765fee18a237ee4dd22e8</title>
<g id="a_node4"><a xlink:href="dir_7f1654bc147765fee18a237ee4dd22e8.html" target="_top" xlink:title="Server">
<polygon fill="white" stroke="black" points="222,-60 168,-60 168,-24 222,-24 222,-60"/>
<text text-anchor="middle" x="195" y="-39.5" font-family="Helvetica,sans-Serif" font-size="10.00">Server</text>
</a>
</g>
</g>
<!-- dir_4eb1cee1899202dd97a9e68b23f69ede&#45;&gt;dir_7f1654bc147765fee18a237ee4dd22e8 -->
<g id="edge3" class="edge"><title>dir_4eb1cee1899202dd97a9e68b23f69ede&#45;&gt;dir_7f1654bc147765fee18a237ee4dd22e8</title>
<path fill="none" stroke="black" d="M140.798,-95.6966C149.604,-87.135 160.382,-76.6562 170.001,-67.3045"/>
<polygon fill="black" stroke="black" points="172.677,-69.5846 177.407,-60.1043 167.797,-64.5657 172.677,-69.5846"/>
<g id="a_edge3&#45;headlabel"><a xlink:href="dir_000004_000025.html" target="_top" xlink:title="2">
<text text-anchor="middle" x="172.079" y="-71.6261" font-family="Helvetica,sans-Serif" font-size="10.00">2</text>
</a>
</g>
</g>
</g>
</svg>
