<?xml version="1.0" encoding="UTF-8" standalone="no"?>
<!DOCTYPE svg PUBLIC "-//W3C//DTD SVG 1.1//EN"
 "http://www.w3.org/Graphics/SVG/1.1/DTD/svg11.dtd">
<!-- Generated by graphviz version 2.36.0 (20140111.2315)
 -->
<!-- Title: KuszkAPI/Time Pages: 1 -->
<svg width="182pt" height="183pt"
 viewBox="0.00 0.00 182.00 183.00" xmlns="http://www.w3.org/2000/svg" xmlns:xlink="http://www.w3.org/1999/xlink">
<g id="graph0" class="graph" transform="scale(1 1) rotate(0) translate(4 179)">
<title>KuszkAPI/Time</title>
<polygon fill="white" stroke="none" points="-4,4 -4,-179 178,-179 178,4 -4,4"/>
<g id="clust1" class="cluster"><title>clusterdir_6f7fa3ee7946af07f3c30f8c4eea207f</title>
<g id="a_clust1"><a xlink:href="dir_6f7fa3ee7946af07f3c30f8c4eea207f.html" target="_top" xlink:title="KuszkAPI">
<polygon fill="#ddddee" stroke="black" points="8,-8 8,-167 166,-167 166,-8 8,-8"/>
<text text-anchor="middle" x="87" y="-155" font-family="Helvetica,sans-Serif" font-size="10.00">KuszkAPI</text>
</a>
</g>
</g>
<g id="clust2" class="cluster"><title>clusterdir_8a110f9e0ec60fdd0c8a1210993c501b</title>
<g id="a_clust2"><a xlink:href="dir_8a110f9e0ec60fdd0c8a1210993c501b.html" target="_top">
<polygon fill="#eeeeff" stroke="black" points="16,-16 16,-140 158,-140 158,-16 16,-16"/>
</a>
</g>
</g>
<!-- dir_8a110f9e0ec60fdd0c8a1210993c501b -->
<g id="node1" class="node"><title>dir_8a110f9e0ec60fdd0c8a1210993c501b</title>
<text text-anchor="middle" x="87" y="-111.5" font-family="Helvetica,sans-Serif" font-size="10.00">Time</text>
</g>
<!-- dir_994e35d05e073a73033d8ed9a34a06e6 -->
<g id="node2" class="node"><title>dir_994e35d05e073a73033d8ed9a34a06e6</title>
<g id="a_node2"><a xlink:href="dir_994e35d05e073a73033d8ed9a34a06e6.html" target="_top" xlink:title="Date">
<polygon fill="white" stroke="black" points="78,-60 24,-60 24,-24 78,-24 78,-60"/>
<text text-anchor="middle" x="51" y="-39.5" font-family="Helvetica,sans-Serif" font-size="10.00">Date</text>
</a>
</g>
</g>
<!-- dir_8a110f9e0ec60fdd0c8a1210993c501b&#45;&gt;dir_994e35d05e073a73033d8ed9a34a06e6 -->
<g id="edge1" class="edge"><title>dir_8a110f9e0ec60fdd0c8a1210993c501b&#45;&gt;dir_994e35d05e073a73033d8ed9a34a06e6</title>
<path fill="none" stroke="black" d="M78.1011,-95.6966C74.0032,-87.7284 69.0512,-78.0995 64.5073,-69.2641"/>
<polygon fill="black" stroke="black" points="67.4826,-67.3965 59.7965,-60.1043 61.2575,-70.598 67.4826,-67.3965"/>
<g id="a_edge1&#45;headlabel"><a xlink:href="dir_000026_000027.html" target="_top" xlink:title="2">
<text text-anchor="middle" x="71.6514" y="-66.7946" font-family="Helvetica,sans-Serif" font-size="10.00">2</text>
</a>
</g>
</g>
<!-- dir_dacc44640d2f702a87ff0cbba943db3e -->
<g id="node3" class="node"><title>dir_dacc44640d2f702a87ff0cbba943db3e</title>
<g id="a_node3"><a xlink:href="dir_dacc44640d2f702a87ff0cbba943db3e.html" target="_top" xlink:title="Time">
<polygon fill="white" stroke="black" points="150,-60 96,-60 96,-24 150,-24 150,-60"/>
<text text-anchor="middle" x="123" y="-39.5" font-family="Helvetica,sans-Serif" font-size="10.00">Time</text>
</a>
</g>
</g>
<!-- dir_8a110f9e0ec60fdd0c8a1210993c501b&#45;&gt;dir_dacc44640d2f702a87ff0cbba943db3e -->
<g id="edge2" class="edge"><title>dir_8a110f9e0ec60fdd0c8a1210993c501b&#45;&gt;dir_dacc44640d2f702a87ff0cbba943db3e</title>
<path fill="none" stroke="black" d="M95.8989,-95.6966C99.9968,-87.7284 104.949,-78.0995 109.493,-69.2641"/>
<polygon fill="black" stroke="black" points="112.742,-70.598 114.203,-60.1043 106.517,-67.3965 112.742,-70.598"/>
<g id="a_edge2&#45;headlabel"><a xlink:href="dir_000026_000028.html" target="_top" xlink:title="2">
<text text-anchor="middle" x="113.623" y="-72.5931" font-family="Helvetica,sans-Serif" font-size="10.00">2</text>
</a>
</g>
</g>
</g>
</svg>
