<?xml version="1.0" encoding="UTF-8" standalone="no"?>
<!DOCTYPE svg PUBLIC "-//W3C//DTD SVG 1.1//EN"
 "http://www.w3.org/Graphics/SVG/1.1/DTD/svg11.dtd">
<!-- Generated by graphviz version 2.36.0 (20140111.2315)
 -->
<!-- Title: KuszkAPI Pages: 1 -->
<svg width="398pt" height="148pt"
 viewBox="0.00 0.00 398.00 148.00" xmlns="http://www.w3.org/2000/svg" xmlns:xlink="http://www.w3.org/1999/xlink">
<g id="graph0" class="graph" transform="scale(1 1) rotate(0) translate(4 144)">
<title>KuszkAPI</title>
<polygon fill="white" stroke="none" points="-4,4 -4,-144 394,-144 394,4 -4,4"/>
<g id="clust1" class="cluster"><title>clusterdir_6f7fa3ee7946af07f3c30f8c4eea207f</title>
<g id="a_clust1"><a xlink:href="dir_6f7fa3ee7946af07f3c30f8c4eea207f.html" target="_top">
<polygon fill="#eeeeff" stroke="black" points="8,-8 8,-132 382,-132 382,-8 8,-8"/>
</a>
</g>
</g>
<!-- dir_6f7fa3ee7946af07f3c30f8c4eea207f -->
<g id="node1" class="node"><title>dir_6f7fa3ee7946af07f3c30f8c4eea207f</title>
<text text-anchor="middle" x="344" y="-103.5" font-family="Helvetica,sans-Serif" font-size="10.00">KuszkAPI</text>
</g>
<!-- dir_4eb1cee1899202dd97a9e68b23f69ede -->
<g id="node6" class="node"><title>dir_4eb1cee1899202dd97a9e68b23f69ede</title>
<g id="a_node6"><a xlink:href="dir_4eb1cee1899202dd97a9e68b23f69ede.html" target="_top" xlink:title="Sockets">
<polygon fill="white" stroke="red" points="300,-52 246,-52 246,-16 300,-16 300,-52"/>
<text text-anchor="middle" x="273" y="-31.5" font-family="Helvetica,sans-Serif" font-size="10.00">Sockets</text>
</a>
</g>
</g>
<!-- dir_6f7fa3ee7946af07f3c30f8c4eea207f&#45;&gt;dir_4eb1cee1899202dd97a9e68b23f69ede -->
<g id="edge1" class="edge"><title>dir_6f7fa3ee7946af07f3c30f8c4eea207f&#45;&gt;dir_4eb1cee1899202dd97a9e68b23f69ede</title>
<path fill="none" stroke="black" d="M326.449,-87.6966C317.766,-79.135 307.137,-68.6562 297.652,-59.3045"/>
<polygon fill="black" stroke="black" points="299.927,-56.6327 290.349,-52.1043 295.012,-61.6175 299.927,-56.6327"/>
<g id="a_edge1&#45;headlabel"><a xlink:href="dir_000000_000004.html" target="_top" xlink:title="9">
<text text-anchor="middle" x="304.48" y="-54.6345" font-family="Helvetica,sans-Serif" font-size="10.00">9</text>
</a>
</g>
</g>
<!-- dir_8a110f9e0ec60fdd0c8a1210993c501b -->
<g id="node7" class="node"><title>dir_8a110f9e0ec60fdd0c8a1210993c501b</title>
<g id="a_node7"><a xlink:href="dir_8a110f9e0ec60fdd0c8a1210993c501b.html" target="_top" xlink:title="Time">
<polygon fill="white" stroke="red" points="372,-52 318,-52 318,-16 372,-16 372,-52"/>
<text text-anchor="middle" x="345" y="-31.5" font-family="Helvetica,sans-Serif" font-size="10.00">Time</text>
</a>
</g>
</g>
<!-- dir_6f7fa3ee7946af07f3c30f8c4eea207f&#45;&gt;dir_8a110f9e0ec60fdd0c8a1210993c501b -->
<g id="edge2" class="edge"><title>dir_6f7fa3ee7946af07f3c30f8c4eea207f&#45;&gt;dir_8a110f9e0ec60fdd0c8a1210993c501b</title>
<path fill="none" stroke="black" d="M344.247,-87.6966C344.357,-79.9827 344.49,-70.7125 344.613,-62.1124"/>
<polygon fill="black" stroke="black" points="348.112,-62.1533 344.756,-52.1043 341.113,-62.0533 348.112,-62.1533"/>
<g id="a_edge2&#45;headlabel"><a xlink:href="dir_000000_000026.html" target="_top" xlink:title="6">
<text text-anchor="middle" x="350.9" y="-63.2881" font-family="Helvetica,sans-Serif" font-size="10.00">6</text>
</a>
</g>
</g>
<!-- dir_18802f8efeaf036672e047c01ef39439 -->
<g id="node2" class="node"><title>dir_18802f8efeaf036672e047c01ef39439</title>
<g id="a_node2"><a xlink:href="dir_18802f8efeaf036672e047c01ef39439.html" target="_top" xlink:title="App">
<polygon fill="white" stroke="red" points="296,-124 242,-124 242,-88 296,-88 296,-124"/>
<text text-anchor="middle" x="269" y="-103.5" font-family="Helvetica,sans-Serif" font-size="10.00">App</text>
</a>
</g>
</g>
<!-- dir_f746e1e67071bcc9516e83976125cf5b -->
<g id="node3" class="node"><title>dir_f746e1e67071bcc9516e83976125cf5b</title>
<g id="a_node3"><a xlink:href="dir_f746e1e67071bcc9516e83976125cf5b.html" target="_top" xlink:title="Containers">
<polygon fill="white" stroke="red" points="223.25,-124 160.75,-124 160.75,-88 223.25,-88 223.25,-124"/>
<text text-anchor="middle" x="192" y="-103.5" font-family="Helvetica,sans-Serif" font-size="10.00">Containers</text>
</a>
</g>
</g>
<!-- dir_c1e1de5c01dac8ef2f7c42ae2eacc49d -->
<g id="node4" class="node"><title>dir_c1e1de5c01dac8ef2f7c42ae2eacc49d</title>
<g id="a_node4"><a xlink:href="dir_c1e1de5c01dac8ef2f7c42ae2eacc49d.html" target="_top" xlink:title="Core">
<polygon fill="white" stroke="red" points="142,-124 88,-124 88,-88 142,-88 142,-124"/>
<text text-anchor="middle" x="115" y="-103.5" font-family="Helvetica,sans-Serif" font-size="10.00">Core</text>
</a>
</g>
</g>
<!-- dir_24955163cd35c8a7f8a84f0221855978 -->
<g id="node5" class="node"><title>dir_24955163cd35c8a7f8a84f0221855978</title>
<g id="a_node5"><a xlink:href="dir_24955163cd35c8a7f8a84f0221855978.html" target="_top" xlink:title="Forms">
<polygon fill="white" stroke="red" points="70,-124 16,-124 16,-88 70,-88 70,-124"/>
<text text-anchor="middle" x="43" y="-103.5" font-family="Helvetica,sans-Serif" font-size="10.00">Forms</text>
</a>
</g>
</g>
</g>
</svg>
