<?xml version="1.0" encoding="UTF-8" standalone="no"?>
<!DOCTYPE svg PUBLIC "-//W3C//DTD SVG 1.1//EN"
 "http://www.w3.org/Graphics/SVG/1.1/DTD/svg11.dtd">
<!-- Generated by graphviz version 2.36.0 (20140111.2315)
 -->
<!-- Title: KuszkAPI/Forms Pages: 1 -->
<svg width="470pt" height="183pt"
 viewBox="0.00 0.00 470.00 183.00" xmlns="http://www.w3.org/2000/svg" xmlns:xlink="http://www.w3.org/1999/xlink">
<g id="graph0" class="graph" transform="scale(1 1) rotate(0) translate(4 179)">
<title>KuszkAPI/Forms</title>
<polygon fill="white" stroke="none" points="-4,4 -4,-179 466,-179 466,4 -4,4"/>
<g id="clust1" class="cluster"><title>clusterdir_6f7fa3ee7946af07f3c30f8c4eea207f</title>
<g id="a_clust1"><a xlink:href="dir_6f7fa3ee7946af07f3c30f8c4eea207f.html" target="_top" xlink:title="KuszkAPI">
<polygon fill="#ddddee" stroke="black" points="8,-8 8,-167 454,-167 454,-8 8,-8"/>
<text text-anchor="middle" x="231" y="-155" font-family="Helvetica,sans-Serif" font-size="10.00">KuszkAPI</text>
</a>
</g>
</g>
<g id="clust2" class="cluster"><title>clusterdir_24955163cd35c8a7f8a84f0221855978</title>
<g id="a_clust2"><a xlink:href="dir_24955163cd35c8a7f8a84f0221855978.html" target="_top">
<polygon fill="#eeeeff" stroke="black" points="16,-16 16,-140 446,-140 446,-16 16,-16"/>
</a>
</g>
</g>
<!-- dir_24955163cd35c8a7f8a84f0221855978 -->
<g id="node1" class="node"><title>dir_24955163cd35c8a7f8a84f0221855978</title>
<text text-anchor="middle" x="231" y="-111.5" font-family="Helvetica,sans-Serif" font-size="10.00">Forms</text>
</g>
<!-- dir_476a9abc57d5ccb9ecd9ea727358cc70 -->
<g id="node2" class="node"><title>dir_476a9abc57d5ccb9ecd9ea727358cc70</title>
<g id="a_node2"><a xlink:href="dir_476a9abc57d5ccb9ecd9ea727358cc70.html" target="_top" xlink:title="Base">
<polygon fill="white" stroke="black" points="78,-60 24,-60 24,-24 78,-24 78,-60"/>
<text text-anchor="middle" x="51" y="-39.5" font-family="Helvetica,sans-Serif" font-size="10.00">Base</text>
</a>
</g>
</g>
<!-- dir_24955163cd35c8a7f8a84f0221855978&#45;&gt;dir_476a9abc57d5ccb9ecd9ea727358cc70 -->
<g id="edge1" class="edge"><title>dir_24955163cd35c8a7f8a84f0221855978&#45;&gt;dir_476a9abc57d5ccb9ecd9ea727358cc70</title>
<path fill="none" stroke="black" d="M203.918,-103.837C176.645,-94.4346 133.228,-78.9941 87.4924,-60.0367"/>
<polygon fill="black" stroke="black" points="88.5872,-56.7008 78.0112,-56.0693 85.8851,-63.1582 88.5872,-56.7008"/>
<g id="a_edge1&#45;headlabel"><a xlink:href="dir_000003_000017.html" target="_top" xlink:title="7">
<text text-anchor="middle" x="92.9992" y="-52.9691" font-family="Helvetica,sans-Serif" font-size="10.00">7</text>
</a>
</g>
</g>
<!-- dir_247d5b2b6aee0a1309fcc9e6af38aaf1 -->
<g id="node3" class="node"><title>dir_247d5b2b6aee0a1309fcc9e6af38aaf1</title>
<g id="a_node3"><a xlink:href="dir_247d5b2b6aee0a1309fcc9e6af38aaf1.html" target="_top" xlink:title="Controls">
<polygon fill="white" stroke="black" points="150,-60 96,-60 96,-24 150,-24 150,-60"/>
<text text-anchor="middle" x="123" y="-39.5" font-family="Helvetica,sans-Serif" font-size="10.00">Controls</text>
</a>
</g>
</g>
<!-- dir_24955163cd35c8a7f8a84f0221855978&#45;&gt;dir_247d5b2b6aee0a1309fcc9e6af38aaf1 -->
<g id="edge2" class="edge"><title>dir_24955163cd35c8a7f8a84f0221855978&#45;&gt;dir_247d5b2b6aee0a1309fcc9e6af38aaf1</title>
<path fill="none" stroke="black" d="M204.58,-95.8761C190.59,-86.8083 173.224,-75.5523 158.114,-65.7592"/>
<polygon fill="black" stroke="black" points="159.817,-62.6917 149.521,-60.1898 156.009,-68.5658 159.817,-62.6917"/>
<g id="a_edge2&#45;headlabel"><a xlink:href="dir_000003_000018.html" target="_top" xlink:title="12">
<text text-anchor="middle" x="164.377" y="-59.7642" font-family="Helvetica,sans-Serif" font-size="10.00">12</text>
</a>
</g>
</g>
<!-- dir_6264a47bc75ba61569f6c703cce02ad2 -->
<g id="node4" class="node"><title>dir_6264a47bc75ba61569f6c703cce02ad2</title>
<g id="a_node4"><a xlink:href="dir_6264a47bc75ba61569f6c703cce02ad2.html" target="_top" xlink:title="Dialogs">
<polygon fill="white" stroke="black" points="222,-60 168,-60 168,-24 222,-24 222,-60"/>
<text text-anchor="middle" x="195" y="-39.5" font-family="Helvetica,sans-Serif" font-size="10.00">Dialogs</text>
</a>
</g>
</g>
<!-- dir_24955163cd35c8a7f8a84f0221855978&#45;&gt;dir_6264a47bc75ba61569f6c703cce02ad2 -->
<g id="edge6" class="edge"><title>dir_24955163cd35c8a7f8a84f0221855978&#45;&gt;dir_6264a47bc75ba61569f6c703cce02ad2</title>
<path fill="none" stroke="black" d="M222.101,-95.6966C218.003,-87.7284 213.051,-78.0995 208.507,-69.2641"/>
<polygon fill="black" stroke="black" points="211.483,-67.3965 203.797,-60.1043 205.258,-70.598 211.483,-67.3965"/>
<g id="a_edge6&#45;headlabel"><a xlink:href="dir_000003_000019.html" target="_top" xlink:title="4">
<text text-anchor="middle" x="215.651" y="-66.7946" font-family="Helvetica,sans-Serif" font-size="10.00">4</text>
</a>
</g>
</g>
<!-- dir_c6c743c5fe20b482546911ae9340f9ef -->
<g id="node5" class="node"><title>dir_c6c743c5fe20b482546911ae9340f9ef</title>
<g id="a_node5"><a xlink:href="dir_c6c743c5fe20b482546911ae9340f9ef.html" target="_top" xlink:title="Fonts">
<polygon fill="white" stroke="black" points="294,-60 240,-60 240,-24 294,-24 294,-60"/>
<text text-anchor="middle" x="267" y="-39.5" font-family="Helvetica,sans-Serif" font-size="10.00">Fonts</text>
</a>
</g>
</g>
<!-- dir_24955163cd35c8a7f8a84f0221855978&#45;&gt;dir_c6c743c5fe20b482546911ae9340f9ef -->
<g id="edge3" class="edge"><title>dir_24955163cd35c8a7f8a84f0221855978&#45;&gt;dir_c6c743c5fe20b482546911ae9340f9ef</title>
<path fill="none" stroke="black" d="M239.899,-95.6966C243.997,-87.7284 248.949,-78.0995 253.493,-69.2641"/>
<polygon fill="black" stroke="black" points="256.742,-70.598 258.203,-60.1043 250.517,-67.3965 256.742,-70.598"/>
<g id="a_edge3&#45;headlabel"><a xlink:href="dir_000003_000020.html" target="_top" xlink:title="2">
<text text-anchor="middle" x="257.623" y="-72.5931" font-family="Helvetica,sans-Serif" font-size="10.00">2</text>
</a>
</g>
</g>
<!-- dir_65cd46d0b51d8434d8398607d780ceea -->
<g id="node6" class="node"><title>dir_65cd46d0b51d8434d8398607d780ceea</title>
<g id="a_node6"><a xlink:href="dir_65cd46d0b51d8434d8398607d780ceea.html" target="_top" xlink:title="Form">
<polygon fill="white" stroke="black" points="366,-60 312,-60 312,-24 366,-24 366,-60"/>
<text text-anchor="middle" x="339" y="-39.5" font-family="Helvetica,sans-Serif" font-size="10.00">Form</text>
</a>
</g>
</g>
<!-- dir_24955163cd35c8a7f8a84f0221855978&#45;&gt;dir_65cd46d0b51d8434d8398607d780ceea -->
<g id="edge5" class="edge"><title>dir_24955163cd35c8a7f8a84f0221855978&#45;&gt;dir_65cd46d0b51d8434d8398607d780ceea</title>
<path fill="none" stroke="black" d="M257.42,-95.8761C271.41,-86.8083 288.776,-75.5523 303.886,-65.7592"/>
<polygon fill="black" stroke="black" points="305.991,-68.5658 312.479,-60.1898 302.183,-62.6917 305.991,-68.5658"/>
<g id="a_edge5&#45;headlabel"><a xlink:href="dir_000003_000021.html" target="_top" xlink:title="2">
<text text-anchor="middle" x="304.519" y="-70.4034" font-family="Helvetica,sans-Serif" font-size="10.00">2</text>
</a>
</g>
</g>
<!-- dir_b91d7adc7a356369b9f41a571c8fe5d6 -->
<g id="node7" class="node"><title>dir_b91d7adc7a356369b9f41a571c8fe5d6</title>
<g id="a_node7"><a xlink:href="dir_b91d7adc7a356369b9f41a571c8fe5d6.html" target="_top" xlink:title="Tools">
<polygon fill="white" stroke="black" points="438,-60 384,-60 384,-24 438,-24 438,-60"/>
<text text-anchor="middle" x="411" y="-39.5" font-family="Helvetica,sans-Serif" font-size="10.00">Tools</text>
</a>
</g>
</g>
<!-- dir_24955163cd35c8a7f8a84f0221855978&#45;&gt;dir_b91d7adc7a356369b9f41a571c8fe5d6 -->
<g id="edge4" class="edge"><title>dir_24955163cd35c8a7f8a84f0221855978&#45;&gt;dir_b91d7adc7a356369b9f41a571c8fe5d6</title>
<path fill="none" stroke="black" d="M258.082,-103.837C285.355,-94.4346 328.772,-78.9941 374.508,-60.0367"/>
<polygon fill="black" stroke="black" points="376.115,-63.1582 383.989,-56.0693 373.413,-56.7008 376.115,-63.1582"/>
<g id="a_edge4&#45;headlabel"><a xlink:href="dir_000003_000022.html" target="_top" xlink:title="8">
<text text-anchor="middle" x="373.895" y="-64.665" font-family="Helvetica,sans-Serif" font-size="10.00">8</text>
</a>
</g>
</g>
</g>
</svg>
