<?xml version="1.0" encoding="UTF-8" standalone="no"?>
<!DOCTYPE svg PUBLIC "-//W3C//DTD SVG 1.1//EN"
 "http://www.w3.org/Graphics/SVG/1.1/DTD/svg11.dtd">
<!-- Generated by graphviz version 2.36.0 (20140111.2315)
 -->
<!-- Title: KuszkAPI/Core Pages: 1 -->
<svg width="326pt" height="183pt"
 viewBox="0.00 0.00 326.00 183.00" xmlns="http://www.w3.org/2000/svg" xmlns:xlink="http://www.w3.org/1999/xlink">
<g id="graph0" class="graph" transform="scale(1 1) rotate(0) translate(4 179)">
<title>KuszkAPI/Core</title>
<polygon fill="white" stroke="none" points="-4,4 -4,-179 322,-179 322,4 -4,4"/>
<g id="clust1" class="cluster"><title>clusterdir_6f7fa3ee7946af07f3c30f8c4eea207f</title>
<g id="a_clust1"><a xlink:href="dir_6f7fa3ee7946af07f3c30f8c4eea207f.html" target="_top" xlink:title="KuszkAPI">
<polygon fill="#ddddee" stroke="black" points="8,-8 8,-167 310,-167 310,-8 8,-8"/>
<text text-anchor="middle" x="159" y="-155" font-family="Helvetica,sans-Serif" font-size="10.00">KuszkAPI</text>
</a>
</g>
</g>
<g id="clust2" class="cluster"><title>clusterdir_c1e1de5c01dac8ef2f7c42ae2eacc49d</title>
<g id="a_clust2"><a xlink:href="dir_c1e1de5c01dac8ef2f7c42ae2eacc49d.html" target="_top">
<polygon fill="#eeeeff" stroke="black" points="16,-16 16,-140 302,-140 302,-16 16,-16"/>
</a>
</g>
</g>
<!-- dir_c1e1de5c01dac8ef2f7c42ae2eacc49d -->
<g id="node1" class="node"><title>dir_c1e1de5c01dac8ef2f7c42ae2eacc49d</title>
<text text-anchor="middle" x="159" y="-111.5" font-family="Helvetica,sans-Serif" font-size="10.00">Core</text>
</g>
<!-- dir_19b26e5597f9e252df7d859d69ff40cc -->
<g id="node2" class="node"><title>dir_19b26e5597f9e252df7d859d69ff40cc</title>
<g id="a_node2"><a xlink:href="dir_19b26e5597f9e252df7d859d69ff40cc.html" target="_top" xlink:title="Data">
<polygon fill="white" stroke="black" points="78,-60 24,-60 24,-24 78,-24 78,-60"/>
<text text-anchor="middle" x="51" y="-39.5" font-family="Helvetica,sans-Serif" font-size="10.00">Data</text>
</a>
</g>
</g>
<!-- dir_c1e1de5c01dac8ef2f7c42ae2eacc49d&#45;&gt;dir_19b26e5597f9e252df7d859d69ff40cc -->
<g id="edge3" class="edge"><title>dir_c1e1de5c01dac8ef2f7c42ae2eacc49d&#45;&gt;dir_19b26e5597f9e252df7d859d69ff40cc</title>
<path fill="none" stroke="black" d="M132.58,-95.8761C118.59,-86.8083 101.224,-75.5523 86.1142,-65.7592"/>
<polygon fill="black" stroke="black" points="87.8165,-62.6917 77.5213,-60.1898 84.0092,-68.5658 87.8165,-62.6917"/>
<g id="a_edge3&#45;headlabel"><a xlink:href="dir_000012_000013.html" target="_top" xlink:title="3">
<text text-anchor="middle" x="92.3772" y="-59.7642" font-family="Helvetica,sans-Serif" font-size="10.00">3</text>
</a>
</g>
</g>
<!-- dir_57846da056604bda947cfaf3e255c2e6 -->
<g id="node3" class="node"><title>dir_57846da056604bda947cfaf3e255c2e6</title>
<g id="a_node3"><a xlink:href="dir_57846da056604bda947cfaf3e255c2e6.html" target="_top" xlink:title="Parts">
<polygon fill="white" stroke="black" points="150,-60 96,-60 96,-24 150,-24 150,-60"/>
<text text-anchor="middle" x="123" y="-39.5" font-family="Helvetica,sans-Serif" font-size="10.00">Parts</text>
</a>
</g>
</g>
<!-- dir_c1e1de5c01dac8ef2f7c42ae2eacc49d&#45;&gt;dir_57846da056604bda947cfaf3e255c2e6 -->
<g id="edge1" class="edge"><title>dir_c1e1de5c01dac8ef2f7c42ae2eacc49d&#45;&gt;dir_57846da056604bda947cfaf3e255c2e6</title>
<path fill="none" stroke="black" d="M150.101,-95.6966C146.003,-87.7284 141.051,-78.0995 136.507,-69.2641"/>
<polygon fill="black" stroke="black" points="139.483,-67.3965 131.797,-60.1043 133.258,-70.598 139.483,-67.3965"/>
<g id="a_edge1&#45;headlabel"><a xlink:href="dir_000012_000014.html" target="_top" xlink:title="3">
<text text-anchor="middle" x="143.651" y="-66.7946" font-family="Helvetica,sans-Serif" font-size="10.00">3</text>
</a>
</g>
</g>
<!-- dir_30b52d75edf39c2e2358b3dd5aa66de9 -->
<g id="node4" class="node"><title>dir_30b52d75edf39c2e2358b3dd5aa66de9</title>
<g id="a_node4"><a xlink:href="dir_30b52d75edf39c2e2358b3dd5aa66de9.html" target="_top" xlink:title="Run">
<polygon fill="white" stroke="black" points="222,-60 168,-60 168,-24 222,-24 222,-60"/>
<text text-anchor="middle" x="195" y="-39.5" font-family="Helvetica,sans-Serif" font-size="10.00">Run</text>
</a>
</g>
</g>
<!-- dir_c1e1de5c01dac8ef2f7c42ae2eacc49d&#45;&gt;dir_30b52d75edf39c2e2358b3dd5aa66de9 -->
<g id="edge4" class="edge"><title>dir_c1e1de5c01dac8ef2f7c42ae2eacc49d&#45;&gt;dir_30b52d75edf39c2e2358b3dd5aa66de9</title>
<path fill="none" stroke="black" d="M167.899,-95.6966C171.997,-87.7284 176.949,-78.0995 181.493,-69.2641"/>
<polygon fill="black" stroke="black" points="184.742,-70.598 186.203,-60.1043 178.517,-67.3965 184.742,-70.598"/>
<g id="a_edge4&#45;headlabel"><a xlink:href="dir_000012_000015.html" target="_top" xlink:title="4">
<text text-anchor="middle" x="185.623" y="-72.5931" font-family="Helvetica,sans-Serif" font-size="10.00">4</text>
</a>
</g>
</g>
<!-- dir_9bced544c14a5c01a6480cc91979720a -->
<g id="node5" class="node"><title>dir_9bced544c14a5c01a6480cc91979720a</title>
<g id="a_node5"><a xlink:href="dir_9bced544c14a5c01a6480cc91979720a.html" target="_top" xlink:title="Threads">
<polygon fill="white" stroke="black" points="294,-60 240,-60 240,-24 294,-24 294,-60"/>
<text text-anchor="middle" x="267" y="-39.5" font-family="Helvetica,sans-Serif" font-size="10.00">Threads</text>
</a>
</g>
</g>
<!-- dir_c1e1de5c01dac8ef2f7c42ae2eacc49d&#45;&gt;dir_9bced544c14a5c01a6480cc91979720a -->
<g id="edge2" class="edge"><title>dir_c1e1de5c01dac8ef2f7c42ae2eacc49d&#45;&gt;dir_9bced544c14a5c01a6480cc91979720a</title>
<path fill="none" stroke="black" d="M185.42,-95.8761C199.41,-86.8083 216.776,-75.5523 231.886,-65.7592"/>
<polygon fill="black" stroke="black" points="233.991,-68.5658 240.479,-60.1898 230.183,-62.6917 233.991,-68.5658"/>
<g id="a_edge2&#45;headlabel"><a xlink:href="dir_000012_000016.html" target="_top" xlink:title="6">
<text text-anchor="middle" x="232.519" y="-70.4034" font-family="Helvetica,sans-Serif" font-size="10.00">6</text>
</a>
</g>
</g>
</g>
</svg>
