<?xml version="1.0" encoding="UTF-8" standalone="no"?>
<!DOCTYPE svg PUBLIC "-//W3C//DTD SVG 1.1//EN"
 "http://www.w3.org/Graphics/SVG/1.1/DTD/svg11.dtd">
<!-- Generated by graphviz version 2.36.0 (20140111.2315)
 -->
<!-- Title: KuszkAPI/App Pages: 1 -->
<svg width="182pt" height="183pt"
 viewBox="0.00 0.00 182.00 183.00" xmlns="http://www.w3.org/2000/svg" xmlns:xlink="http://www.w3.org/1999/xlink">
<g id="graph0" class="graph" transform="scale(1 1) rotate(0) translate(4 179)">
<title>KuszkAPI/App</title>
<polygon fill="white" stroke="none" points="-4,4 -4,-179 178,-179 178,4 -4,4"/>
<g id="clust1" class="cluster"><title>clusterdir_6f7fa3ee7946af07f3c30f8c4eea207f</title>
<g id="a_clust1"><a xlink:href="dir_6f7fa3ee7946af07f3c30f8c4eea207f.html" target="_top" xlink:title="KuszkAPI">
<polygon fill="#ddddee" stroke="black" points="8,-8 8,-167 166,-167 166,-8 8,-8"/>
<text text-anchor="middle" x="87" y="-155" font-family="Helvetica,sans-Serif" font-size="10.00">KuszkAPI</text>
</a>
</g>
</g>
<g id="clust2" class="cluster"><title>clusterdir_18802f8efeaf036672e047c01ef39439</title>
<g id="a_clust2"><a xlink:href="dir_18802f8efeaf036672e047c01ef39439.html" target="_top">
<polygon fill="#eeeeff" stroke="black" points="16,-16 16,-140 158,-140 158,-16 16,-16"/>
</a>
</g>
</g>
<!-- dir_18802f8efeaf036672e047c01ef39439 -->
<g id="node1" class="node"><title>dir_18802f8efeaf036672e047c01ef39439</title>
<text text-anchor="middle" x="87" y="-111.5" font-family="Helvetica,sans-Serif" font-size="10.00">App</text>
</g>
<!-- dir_8f421cdb03803809ffec413ed8acdfc5 -->
<g id="node2" class="node"><title>dir_8f421cdb03803809ffec413ed8acdfc5</title>
<g id="a_node2"><a xlink:href="dir_8f421cdb03803809ffec413ed8acdfc5.html" target="_top" xlink:title="Base">
<polygon fill="white" stroke="black" points="78,-60 24,-60 24,-24 78,-24 78,-60"/>
<text text-anchor="middle" x="51" y="-39.5" font-family="Helvetica,sans-Serif" font-size="10.00">Base</text>
</a>
</g>
</g>
<!-- dir_18802f8efeaf036672e047c01ef39439&#45;&gt;dir_8f421cdb03803809ffec413ed8acdfc5 -->
<g id="edge2" class="edge"><title>dir_18802f8efeaf036672e047c01ef39439&#45;&gt;dir_8f421cdb03803809ffec413ed8acdfc5</title>
<path fill="none" stroke="black" d="M78.1011,-95.6966C74.0032,-87.7284 69.0512,-78.0995 64.5073,-69.2641"/>
<polygon fill="black" stroke="black" points="67.4826,-67.3965 59.7965,-60.1043 61.2575,-70.598 67.4826,-67.3965"/>
<g id="a_edge2&#45;headlabel"><a xlink:href="dir_000001_000005.html" target="_top" xlink:title="2">
<text text-anchor="middle" x="71.6514" y="-66.7946" font-family="Helvetica,sans-Serif" font-size="10.00">2</text>
</a>
</g>
</g>
<!-- dir_959fa4c2dc1c27bb5ea2f32620e986d5 -->
<g id="node3" class="node"><title>dir_959fa4c2dc1c27bb5ea2f32620e986d5</title>
<g id="a_node3"><a xlink:href="dir_959fa4c2dc1c27bb5ea2f32620e986d5.html" target="_top" xlink:title="Types">
<polygon fill="white" stroke="black" points="150,-60 96,-60 96,-24 150,-24 150,-60"/>
<text text-anchor="middle" x="123" y="-39.5" font-family="Helvetica,sans-Serif" font-size="10.00">Types</text>
</a>
</g>
</g>
<!-- dir_18802f8efeaf036672e047c01ef39439&#45;&gt;dir_959fa4c2dc1c27bb5ea2f32620e986d5 -->
<g id="edge1" class="edge"><title>dir_18802f8efeaf036672e047c01ef39439&#45;&gt;dir_959fa4c2dc1c27bb5ea2f32620e986d5</title>
<path fill="none" stroke="black" d="M95.8989,-95.6966C99.9968,-87.7284 104.949,-78.0995 109.493,-69.2641"/>
<polygon fill="black" stroke="black" points="112.742,-70.598 114.203,-60.1043 106.517,-67.3965 112.742,-70.598"/>
<g id="a_edge1&#45;headlabel"><a xlink:href="dir_000001_000006.html" target="_top" xlink:title="3">
<text text-anchor="middle" x="113.623" y="-72.5931" font-family="Helvetica,sans-Serif" font-size="10.00">3</text>
</a>
</g>
</g>
</g>
</svg>
