<?xml version="1.0" encoding="UTF-8" standalone="no"?>
<!DOCTYPE svg PUBLIC "-//W3C//DTD SVG 1.1//EN"
 "http://www.w3.org/Graphics/SVG/1.1/DTD/svg11.dtd">
<!-- Generated by graphviz version 2.36.0 (20140111.2315)
 -->
<!-- Title: Graficzna hierarchia klas Pages: 1 -->
<svg width="260pt" height="87pt"
 viewBox="0.00 0.00 260.00 87.00" xmlns="http://www.w3.org/2000/svg" xmlns:xlink="http://www.w3.org/1999/xlink">
<g id="graph0" class="graph" transform="scale(1 1) rotate(0) translate(4 83)">
<title>Graficzna hierarchia klas</title>
<polygon fill="white" stroke="none" points="-4,4 -4,-83 256,-83 256,4 -4,4"/>
<!-- Node1 -->
<g id="node1" class="node"><title>Node1</title>
<g id="a_node1"><a xlink:href="class_kuszk_a_p_i_1_1_sockets_1_1_socket.html" target="_top" xlink:title="KuszkAPI::Sockets::\lSocket">
<polygon fill="white" stroke="black" points="0,-24 0,-54 108,-54 108,-24 0,-24"/>
<text text-anchor="start" x="8" y="-42" font-family="Helvetica,sans-Serif" font-size="10.00">KuszkAPI::Sockets::</text>
<text text-anchor="middle" x="54" y="-31" font-family="Helvetica,sans-Serif" font-size="10.00">Socket</text>
</a>
</g>
</g>
<!-- Node2 -->
<g id="node2" class="node"><title>Node2</title>
<g id="a_node2"><a xlink:href="class_kuszk_a_p_i_1_1_sockets_1_1_client.html" target="_top" xlink:title="KuszkAPI::Sockets::\lClient">
<polygon fill="white" stroke="black" points="144,-49 144,-79 252,-79 252,-49 144,-49"/>
<text text-anchor="start" x="152" y="-67" font-family="Helvetica,sans-Serif" font-size="10.00">KuszkAPI::Sockets::</text>
<text text-anchor="middle" x="198" y="-56" font-family="Helvetica,sans-Serif" font-size="10.00">Client</text>
</a>
</g>
</g>
<!-- Node1&#45;&gt;Node2 -->
<g id="edge1" class="edge"><title>Node1&#45;&gt;Node2</title>
<path fill="none" stroke="#8b1a1a" d="M118.238,-50.1334C126.806,-51.642 135.528,-53.1774 143.894,-54.6504"/>
<polygon fill="#8b1a1a" stroke="#8b1a1a" points="118.735,-46.6672 108.28,-48.3802 117.521,-53.5612 118.735,-46.6672"/>
</g>
<!-- Node3 -->
<g id="node3" class="node"><title>Node3</title>
<g id="a_node3"><a xlink:href="class_kuszk_a_p_i_1_1_sockets_1_1_server.html" target="_top" xlink:title="KuszkAPI::Sockets::\lServer">
<polygon fill="white" stroke="black" points="144,-0 144,-30 252,-30 252,-0 144,-0"/>
<text text-anchor="start" x="152" y="-18" font-family="Helvetica,sans-Serif" font-size="10.00">KuszkAPI::Sockets::</text>
<text text-anchor="middle" x="198" y="-7" font-family="Helvetica,sans-Serif" font-size="10.00">Server</text>
</a>
</g>
</g>
<!-- Node1&#45;&gt;Node3 -->
<g id="edge2" class="edge"><title>Node1&#45;&gt;Node3</title>
<path fill="none" stroke="#8b1a1a" d="M118.238,-28.3119C126.806,-26.8637 135.528,-25.3897 143.894,-23.9756"/>
<polygon fill="#8b1a1a" stroke="#8b1a1a" points="117.556,-24.8774 108.28,-29.995 118.723,-31.7795 117.556,-24.8774"/>
</g>
</g>
</svg>
