<?xml version="1.0" encoding="UTF-8" standalone="no"?>
<!DOCTYPE svg PUBLIC "-//W3C//DTD SVG 1.1//EN"
 "http://www.w3.org/Graphics/SVG/1.1/DTD/svg11.dtd">
<!-- Generated by graphviz version 2.36.0 (20140111.2315)
 -->
<!-- Title: Graficzna hierarchia klas Pages: 1 -->
<svg width="324pt" height="1773pt"
 viewBox="0.00 0.00 324.00 1773.00" xmlns="http://www.w3.org/2000/svg" xmlns:xlink="http://www.w3.org/1999/xlink">
<g id="graph0" class="graph" transform="scale(1 1) rotate(0) translate(4 1769)">
<title>Graficzna hierarchia klas</title>
<polygon fill="white" stroke="none" points="-4,4 -4,-1769 320,-1769 320,4 -4,4"/>
<!-- Node1 -->
<g id="node1" class="node"><title>Node1</title>
<g id="a_node1"><a xlink:href="class_kuszk_a_p_i_1_1_containers_1_1_container.html" target="_top" xlink:title="Implementacja bazy dla modułu kontenerów. ">
<polygon fill="white" stroke="black" points="0.5,-939 0.5,-969 113.5,-969 113.5,-939 0.5,-939"/>
<text text-anchor="start" x="8.5" y="-957" font-family="Helvetica,sans-Serif" font-size="10.00">KuszkAPI::Containers</text>
<text text-anchor="middle" x="57" y="-946" font-family="Helvetica,sans-Serif" font-size="10.00">::Container</text>
</a>
</g>
</g>
<!-- Node2 -->
<g id="node2" class="node"><title>Node2</title>
<g id="a_node2"><a xlink:href="class_kuszk_a_p_i_1_1_containers_1_1_array.html" target="_top" xlink:title="Implementacja szablonu tablicy dla modułu kontenerów. ">
<polygon fill="white" stroke="black" points="176.5,-1735 176.5,-1765 289.5,-1765 289.5,-1735 176.5,-1735"/>
<text text-anchor="start" x="184.5" y="-1753" font-family="Helvetica,sans-Serif" font-size="10.00">KuszkAPI::Containers</text>
<text text-anchor="middle" x="233" y="-1742" font-family="Helvetica,sans-Serif" font-size="10.00">::Array&lt; tnData &gt;</text>
</a>
</g>
</g>
<!-- Node1&#45;&gt;Node2 -->
<g id="edge1" class="edge"><title>Node1&#45;&gt;Node2</title>
<path fill="none" stroke="midnightblue" d="M59.3935,-979.346C66.5693,-1105.98 100.924,-1666.36 150,-1725 156.877,-1733.22 166.372,-1738.79 176.469,-1742.56"/>
<polygon fill="midnightblue" stroke="midnightblue" points="62.8729,-978.879 58.8184,-969.091 55.8839,-979.271 62.8729,-978.879"/>
</g>
<!-- Node3 -->
<g id="node3" class="node"><title>Node3</title>
<g id="a_node3"><a xlink:href="class_kuszk_a_p_i_1_1_containers_1_1_list.html" target="_top" xlink:title="Implementacja szablonu listy dla modułu kontenerów. ">
<polygon fill="white" stroke="black" points="176.5,-1686 176.5,-1716 289.5,-1716 289.5,-1686 176.5,-1686"/>
<text text-anchor="start" x="184.5" y="-1704" font-family="Helvetica,sans-Serif" font-size="10.00">KuszkAPI::Containers</text>
<text text-anchor="middle" x="233" y="-1693" font-family="Helvetica,sans-Serif" font-size="10.00">::List&lt; tnData &gt;</text>
</a>
</g>
</g>
<!-- Node1&#45;&gt;Node3 -->
<g id="edge2" class="edge"><title>Node1&#45;&gt;Node3</title>
<path fill="none" stroke="midnightblue" d="M57.6788,-979.516C56.7428,-1094.99 58.6259,-1567.69 150,-1676 156.814,-1684.08 166.156,-1689.6 176.099,-1693.36"/>
<polygon fill="midnightblue" stroke="midnightblue" points="61.1817,-979.229 57.7785,-969.196 54.182,-979.161 61.1817,-979.229"/>
</g>
<!-- Node4 -->
<g id="node4" class="node"><title>Node4</title>
<g id="a_node4"><a xlink:href="class_kuszk_a_p_i_1_1_containers_1_1_vector.html" target="_top" xlink:title="KuszkAPI::Containers\l::Vector\&lt; tnData \&gt;">
<polygon fill="white" stroke="black" points="176.5,-1637 176.5,-1667 289.5,-1667 289.5,-1637 176.5,-1637"/>
<text text-anchor="start" x="184.5" y="-1655" font-family="Helvetica,sans-Serif" font-size="10.00">KuszkAPI::Containers</text>
<text text-anchor="middle" x="233" y="-1644" font-family="Helvetica,sans-Serif" font-size="10.00">::Vector&lt; tnData &gt;</text>
</a>
</g>
</g>
<!-- Node1&#45;&gt;Node4 -->
<g id="edge3" class="edge"><title>Node1&#45;&gt;Node4</title>
<path fill="none" stroke="midnightblue" d="M57.9414,-979.186C58.1934,-1089.22 64.6283,-1526.74 150,-1627 156.851,-1635.05 166.209,-1640.55 176.157,-1644.31"/>
<polygon fill="midnightblue" stroke="midnightblue" points="61.4414,-979.032 57.9344,-969.034 54.4414,-979.037 61.4414,-979.032"/>
</g>
<!-- Node5 -->
<g id="node5" class="node"><title>Node5</title>
<g id="a_node5"><a xlink:href="class_kuszk_a_p_i_1_1_containers_1_1_list.html" target="_top" xlink:title="KuszkAPI::Containers\l::List\&lt; KuszkAPI::Containers\l::String \&gt;">
<polygon fill="white" stroke="black" points="161.5,-1576.5 161.5,-1617.5 304.5,-1617.5 304.5,-1576.5 161.5,-1576.5"/>
<text text-anchor="start" x="169.5" y="-1605.5" font-family="Helvetica,sans-Serif" font-size="10.00">KuszkAPI::Containers</text>
<text text-anchor="start" x="169.5" y="-1594.5" font-family="Helvetica,sans-Serif" font-size="10.00">::List&lt; KuszkAPI::Containers</text>
<text text-anchor="middle" x="233" y="-1583.5" font-family="Helvetica,sans-Serif" font-size="10.00">::String &gt;</text>
</a>
</g>
</g>
<!-- Node1&#45;&gt;Node5 -->
<g id="edge4" class="edge"><title>Node1&#45;&gt;Node5</title>
<path fill="none" stroke="midnightblue" d="M58.4915,-979.401C60.9857,-1083.13 75.2669,-1473.45 150,-1566 153.251,-1570.03 157.085,-1573.53 161.289,-1576.58"/>
<polygon fill="midnightblue" stroke="midnightblue" points="61.9869,-979.151 58.2634,-969.232 54.9886,-979.308 61.9869,-979.151"/>
</g>
<!-- Node6 -->
<g id="node6" class="node"><title>Node6</title>
<g id="a_node6"><a xlink:href="class_kuszk_a_p_i_1_1_containers_1_1_list.html" target="_top" xlink:title="KuszkAPI::Containers\l::List\&lt; SOCKET \&gt;">
<polygon fill="white" stroke="black" points="176.5,-1527 176.5,-1557 289.5,-1557 289.5,-1527 176.5,-1527"/>
<text text-anchor="start" x="184.5" y="-1545" font-family="Helvetica,sans-Serif" font-size="10.00">KuszkAPI::Containers</text>
<text text-anchor="middle" x="233" y="-1534" font-family="Helvetica,sans-Serif" font-size="10.00">::List&lt; SOCKET &gt;</text>
</a>
</g>
</g>
<!-- Node1&#45;&gt;Node6 -->
<g id="edge5" class="edge"><title>Node1&#45;&gt;Node6</title>
<path fill="none" stroke="midnightblue" d="M58.6914,-979.376C61.8852,-1078.08 78.2868,-1434.97 150,-1517 156.955,-1524.96 166.36,-1530.42 176.32,-1534.17"/>
<polygon fill="midnightblue" stroke="midnightblue" points="62.1826,-979.034 58.3785,-969.145 55.1859,-979.248 62.1826,-979.034"/>
</g>
<!-- Node7 -->
<g id="node7" class="node"><title>Node7</title>
<g id="a_node7"><a xlink:href="class_kuszk_a_p_i_1_1_containers_1_1_list.html" target="_top" xlink:title="KuszkAPI::Containers\l::List\&lt; tnKey \&gt;">
<polygon fill="white" stroke="black" points="176.5,-1478 176.5,-1508 289.5,-1508 289.5,-1478 176.5,-1478"/>
<text text-anchor="start" x="184.5" y="-1496" font-family="Helvetica,sans-Serif" font-size="10.00">KuszkAPI::Containers</text>
<text text-anchor="middle" x="233" y="-1485" font-family="Helvetica,sans-Serif" font-size="10.00">::List&lt; tnKey &gt;</text>
</a>
</g>
</g>
<!-- Node1&#45;&gt;Node7 -->
<g id="edge6" class="edge"><title>Node1&#45;&gt;Node7</title>
<path fill="none" stroke="midnightblue" d="M59.1195,-979.251C63.7401,-1072.23 84.2879,-1393.98 150,-1468 157.015,-1475.9 166.447,-1481.34 176.414,-1485.08"/>
<polygon fill="midnightblue" stroke="midnightblue" points="62.6067,-978.899 58.633,-969.077 55.6147,-979.233 62.6067,-978.899"/>
</g>
<!-- Node8 -->
<g id="node8" class="node"><title>Node8</title>
<g id="a_node8"><a xlink:href="class_kuszk_a_p_i_1_1_containers_1_1_list.html" target="_top" xlink:title="KuszkAPI::Containers\l::List\&lt; unsigned \&gt;">
<polygon fill="white" stroke="black" points="176.5,-1429 176.5,-1459 289.5,-1459 289.5,-1429 176.5,-1429"/>
<text text-anchor="start" x="184.5" y="-1447" font-family="Helvetica,sans-Serif" font-size="10.00">KuszkAPI::Containers</text>
<text text-anchor="middle" x="233" y="-1436" font-family="Helvetica,sans-Serif" font-size="10.00">::List&lt; unsigned &gt;</text>
</a>
</g>
</g>
<!-- Node1&#45;&gt;Node8 -->
<g id="edge7" class="edge"><title>Node1&#45;&gt;Node8</title>
<path fill="none" stroke="midnightblue" d="M59.6491,-979.377C65.8199,-1066.69 90.3241,-1353 150,-1419 156.987,-1426.73 166.284,-1432.1 176.105,-1435.82"/>
<polygon fill="midnightblue" stroke="midnightblue" points="63.1339,-979.034 58.9566,-969.298 56.1504,-979.514 63.1339,-979.034"/>
</g>
<!-- Node9 -->
<g id="node9" class="node"><title>Node9</title>
<g id="a_node9"><a xlink:href="class_kuszk_a_p_i_1_1_containers_1_1_vector.html" target="_top" xlink:title="KuszkAPI::Containers\l::Vector\&lt; CRITICAL_SECTION * \&gt;">
<polygon fill="white" stroke="black" points="150.5,-1380 150.5,-1410 315.5,-1410 315.5,-1380 150.5,-1380"/>
<text text-anchor="start" x="158.5" y="-1398" font-family="Helvetica,sans-Serif" font-size="10.00">KuszkAPI::Containers</text>
<text text-anchor="middle" x="233" y="-1387" font-family="Helvetica,sans-Serif" font-size="10.00">::Vector&lt; CRITICAL_SECTION * &gt;</text>
</a>
</g>
</g>
<!-- Node1&#45;&gt;Node9 -->
<g id="edge8" class="edge"><title>Node1&#45;&gt;Node9</title>
<path fill="none" stroke="midnightblue" d="M60.2845,-979.296C68.097,-1060.38 96.2843,-1311.91 150,-1370 153.536,-1373.82 157.639,-1377.07 162.086,-1379.83"/>
<polygon fill="midnightblue" stroke="midnightblue" points="63.7393,-978.651 59.3168,-969.024 56.7702,-979.308 63.7393,-978.651"/>
</g>
<!-- Node10 -->
<g id="node10" class="node"><title>Node10</title>
<g id="a_node10"><a xlink:href="class_kuszk_a_p_i_1_1_containers_1_1_vector.html" target="_top" xlink:title="KuszkAPI::Containers\l::Vector\&lt; HANDLE * \&gt;">
<polygon fill="white" stroke="black" points="175.5,-1331 175.5,-1361 290.5,-1361 290.5,-1331 175.5,-1331"/>
<text text-anchor="start" x="183.5" y="-1349" font-family="Helvetica,sans-Serif" font-size="10.00">KuszkAPI::Containers</text>
<text text-anchor="middle" x="233" y="-1338" font-family="Helvetica,sans-Serif" font-size="10.00">::Vector&lt; HANDLE * &gt;</text>
</a>
</g>
</g>
<!-- Node1&#45;&gt;Node10 -->
<g id="edge9" class="edge"><title>Node1&#45;&gt;Node10</title>
<path fill="none" stroke="midnightblue" d="M61.0861,-979.254C70.6774,-1053.79 102.219,-1270.75 150,-1321 156.871,-1328.23 165.763,-1333.38 175.146,-1337.06"/>
<polygon fill="midnightblue" stroke="midnightblue" points="64.5578,-978.809 59.8309,-969.327 57.6131,-979.687 64.5578,-978.809"/>
</g>
<!-- Node11 -->
<g id="node11" class="node"><title>Node11</title>
<g id="a_node11"><a xlink:href="class_kuszk_a_p_i_1_1_containers_1_1_vector.html" target="_top" xlink:title="KuszkAPI::Containers\l::Vector\&lt; HBITMAP * \&gt;">
<polygon fill="white" stroke="black" points="173.5,-1282 173.5,-1312 292.5,-1312 292.5,-1282 173.5,-1282"/>
<text text-anchor="start" x="181.5" y="-1300" font-family="Helvetica,sans-Serif" font-size="10.00">KuszkAPI::Containers</text>
<text text-anchor="middle" x="233" y="-1289" font-family="Helvetica,sans-Serif" font-size="10.00">::Vector&lt; HBITMAP * &gt;</text>
</a>
</g>
</g>
<!-- Node1&#45;&gt;Node11 -->
<g id="edge10" class="edge"><title>Node1&#45;&gt;Node11</title>
<path fill="none" stroke="midnightblue" d="M57.6706,-979.087C58.2953,-1038.53 68.336,-1189.16 150,-1272 156.478,-1278.57 164.628,-1283.43 173.26,-1287.01"/>
<polygon fill="midnightblue" stroke="midnightblue" points="61.1707,-979.078 57.6484,-969.086 54.1707,-979.094 61.1707,-979.078"/>
</g>
<!-- Node12 -->
<g id="node12" class="node"><title>Node12</title>
<g id="a_node12"><a xlink:href="class_kuszk_a_p_i_1_1_containers_1_1_vector.html" target="_top" xlink:title="KuszkAPI::Containers\l::Vector\&lt; HBRUSH * \&gt;">
<polygon fill="white" stroke="black" points="175,-1233 175,-1263 291,-1263 291,-1233 175,-1233"/>
<text text-anchor="start" x="183" y="-1251" font-family="Helvetica,sans-Serif" font-size="10.00">KuszkAPI::Containers</text>
<text text-anchor="middle" x="233" y="-1240" font-family="Helvetica,sans-Serif" font-size="10.00">::Vector&lt; HBRUSH * &gt;</text>
</a>
</g>
</g>
<!-- Node1&#45;&gt;Node12 -->
<g id="edge11" class="edge"><title>Node1&#45;&gt;Node12</title>
<path fill="none" stroke="midnightblue" d="M59.2698,-979.518C63.3019,-1032.56 80.1039,-1155.41 150,-1223 156.955,-1229.72 165.664,-1234.65 174.789,-1238.25"/>
<polygon fill="midnightblue" stroke="midnightblue" points="62.7463,-979.048 58.5887,-969.303 55.7618,-979.514 62.7463,-979.048"/>
</g>
<!-- Node13 -->
<g id="node13" class="node"><title>Node13</title>
<g id="a_node13"><a xlink:href="class_kuszk_a_p_i_1_1_containers_1_1_vector.html" target="_top" xlink:title="KuszkAPI::Containers\l::Vector\&lt; HCURSOR * \&gt;">
<polygon fill="white" stroke="black" points="171,-1184 171,-1214 295,-1214 295,-1184 171,-1184"/>
<text text-anchor="start" x="179" y="-1202" font-family="Helvetica,sans-Serif" font-size="10.00">KuszkAPI::Containers</text>
<text text-anchor="middle" x="233" y="-1191" font-family="Helvetica,sans-Serif" font-size="10.00">::Vector&lt; HCURSOR * &gt;</text>
</a>
</g>
</g>
<!-- Node1&#45;&gt;Node13 -->
<g id="edge12" class="edge"><title>Node1&#45;&gt;Node13</title>
<path fill="none" stroke="midnightblue" d="M61.4191,-978.964C68.9679,-1024.42 91.3047,-1120.91 150,-1174 156.071,-1179.49 163.318,-1183.78 170.956,-1187.12"/>
<polygon fill="midnightblue" stroke="midnightblue" points="64.8744,-978.405 59.8776,-969.063 57.9577,-979.482 64.8744,-978.405"/>
</g>
<!-- Node14 -->
<g id="node14" class="node"><title>Node14</title>
<g id="a_node14"><a xlink:href="class_kuszk_a_p_i_1_1_containers_1_1_vector.html" target="_top" xlink:title="KuszkAPI::Containers\l::Vector\&lt; HHOOK * \&gt;">
<polygon fill="white" stroke="black" points="176.5,-1135 176.5,-1165 289.5,-1165 289.5,-1135 176.5,-1135"/>
<text text-anchor="start" x="184.5" y="-1153" font-family="Helvetica,sans-Serif" font-size="10.00">KuszkAPI::Containers</text>
<text text-anchor="middle" x="233" y="-1142" font-family="Helvetica,sans-Serif" font-size="10.00">::Vector&lt; HHOOK * &gt;</text>
</a>
</g>
</g>
<!-- Node1&#45;&gt;Node14 -->
<g id="edge13" class="edge"><title>Node1&#45;&gt;Node14</title>
<path fill="none" stroke="midnightblue" d="M64.8018,-979.116C76.1896,-1016.41 102.657,-1086.2 150,-1125 157.597,-1131.23 166.727,-1135.9 176.095,-1139.42"/>
<polygon fill="midnightblue" stroke="midnightblue" points="68.0331,-977.696 61.8647,-969.082 61.315,-979.662 68.0331,-977.696"/>
</g>
<!-- Node15 -->
<g id="node15" class="node"><title>Node15</title>
<g id="a_node15"><a xlink:href="class_kuszk_a_p_i_1_1_containers_1_1_vector.html" target="_top" xlink:title="KuszkAPI::Containers\l::Vector\&lt; HICON * \&gt;">
<polygon fill="white" stroke="black" points="176.5,-1086 176.5,-1116 289.5,-1116 289.5,-1086 176.5,-1086"/>
<text text-anchor="start" x="184.5" y="-1104" font-family="Helvetica,sans-Serif" font-size="10.00">KuszkAPI::Containers</text>
<text text-anchor="middle" x="233" y="-1093" font-family="Helvetica,sans-Serif" font-size="10.00">::Vector&lt; HICON * &gt;</text>
</a>
</g>
</g>
<!-- Node1&#45;&gt;Node15 -->
<g id="edge14" class="edge"><title>Node1&#45;&gt;Node15</title>
<path fill="none" stroke="midnightblue" d="M70.1466,-978.198C85.2127,-1005.81 113.441,-1050.43 150,-1076 157.928,-1081.54 167.116,-1085.88 176.414,-1089.28"/>
<polygon fill="midnightblue" stroke="midnightblue" points="73.1522,-976.395 65.3744,-969.201 66.9682,-979.675 73.1522,-976.395"/>
</g>
<!-- Node16 -->
<g id="node16" class="node"><title>Node16</title>
<g id="a_node16"><a xlink:href="class_kuszk_a_p_i_1_1_containers_1_1_vector.html" target="_top" xlink:title="KuszkAPI::Containers\l::Vector\&lt; HINSTANCE * \&gt;">
<polygon fill="white" stroke="black" points="167.5,-1037 167.5,-1067 298.5,-1067 298.5,-1037 167.5,-1037"/>
<text text-anchor="start" x="175.5" y="-1055" font-family="Helvetica,sans-Serif" font-size="10.00">KuszkAPI::Containers</text>
<text text-anchor="middle" x="233" y="-1044" font-family="Helvetica,sans-Serif" font-size="10.00">::Vector&lt; HINSTANCE * &gt;</text>
</a>
</g>
</g>
<!-- Node1&#45;&gt;Node16 -->
<g id="edge15" class="edge"><title>Node1&#45;&gt;Node16</title>
<path fill="none" stroke="midnightblue" d="M80.8288,-976.164C98.4711,-992.234 124.167,-1013.44 150,-1027 157.116,-1030.74 164.879,-1034.01 172.699,-1036.84"/>
<polygon fill="midnightblue" stroke="midnightblue" points="83.027,-973.429 73.318,-969.188 78.2631,-978.558 83.027,-973.429"/>
</g>
<!-- Node17 -->
<g id="node17" class="node"><title>Node17</title>
<g id="a_node17"><a xlink:href="class_kuszk_a_p_i_1_1_containers_1_1_vector.html" target="_top" xlink:title="KuszkAPI::Containers\l::Vector\&lt; HKEY \&gt;">
<polygon fill="white" stroke="black" points="176.5,-988 176.5,-1018 289.5,-1018 289.5,-988 176.5,-988"/>
<text text-anchor="start" x="184.5" y="-1006" font-family="Helvetica,sans-Serif" font-size="10.00">KuszkAPI::Containers</text>
<text text-anchor="middle" x="233" y="-995" font-family="Helvetica,sans-Serif" font-size="10.00">::Vector&lt; HKEY &gt;</text>
</a>
</g>
</g>
<!-- Node1&#45;&gt;Node17 -->
<g id="edge16" class="edge"><title>Node1&#45;&gt;Node17</title>
<path fill="none" stroke="midnightblue" d="M121.284,-971.821C140.07,-977.112 160.455,-982.852 178.552,-987.948"/>
<polygon fill="midnightblue" stroke="midnightblue" points="122.2,-968.443 111.626,-969.101 120.302,-975.181 122.2,-968.443"/>
</g>
<!-- Node18 -->
<g id="node18" class="node"><title>Node18</title>
<g id="a_node18"><a xlink:href="class_kuszk_a_p_i_1_1_containers_1_1_vector.html" target="_top" xlink:title="KuszkAPI::Containers\l::Vector\&lt; HRGN * \&gt;">
<polygon fill="white" stroke="black" points="176.5,-939 176.5,-969 289.5,-969 289.5,-939 176.5,-939"/>
<text text-anchor="start" x="184.5" y="-957" font-family="Helvetica,sans-Serif" font-size="10.00">KuszkAPI::Containers</text>
<text text-anchor="middle" x="233" y="-946" font-family="Helvetica,sans-Serif" font-size="10.00">::Vector&lt; HRGN * &gt;</text>
</a>
</g>
</g>
<!-- Node1&#45;&gt;Node18 -->
<g id="edge17" class="edge"><title>Node1&#45;&gt;Node18</title>
<path fill="none" stroke="midnightblue" d="M123.607,-954C140.995,-954 159.598,-954 176.398,-954"/>
<polygon fill="midnightblue" stroke="midnightblue" points="123.533,-950.5 113.533,-954 123.533,-957.5 123.533,-950.5"/>
</g>
<!-- Node19 -->
<g id="node19" class="node"><title>Node19</title>
<g id="a_node19"><a xlink:href="class_kuszk_a_p_i_1_1_containers_1_1_vector.html" target="_top" xlink:title="KuszkAPI::Containers\l::Vector\&lt; KuszkAPI::Core\l::Threads::ItemData * \&gt;">
<polygon fill="white" stroke="black" points="168,-878.5 168,-919.5 298,-919.5 298,-878.5 168,-878.5"/>
<text text-anchor="start" x="176" y="-907.5" font-family="Helvetica,sans-Serif" font-size="10.00">KuszkAPI::Containers</text>
<text text-anchor="start" x="176" y="-896.5" font-family="Helvetica,sans-Serif" font-size="10.00">::Vector&lt; KuszkAPI::Core</text>
<text text-anchor="middle" x="233" y="-885.5" font-family="Helvetica,sans-Serif" font-size="10.00">::Threads::ItemData * &gt;</text>
</a>
</g>
</g>
<!-- Node1&#45;&gt;Node19 -->
<g id="edge18" class="edge"><title>Node1&#45;&gt;Node19</title>
<path fill="none" stroke="midnightblue" d="M115.246,-935.905C132.091,-930.581 150.627,-924.721 167.873,-919.27"/>
<polygon fill="midnightblue" stroke="midnightblue" points="114.026,-932.62 105.546,-938.971 116.136,-939.294 114.026,-932.62"/>
</g>
<!-- Node20 -->
<g id="node20" class="node"><title>Node20</title>
<g id="a_node20"><a xlink:href="class_kuszk_a_p_i_1_1_containers_1_1_vector.html" target="_top" xlink:title="KuszkAPI::Containers\l::Vector\&lt; KuszkAPI::Forms\l::Button * \&gt;">
<polygon fill="white" stroke="black" points="164.5,-818.5 164.5,-859.5 301.5,-859.5 301.5,-818.5 164.5,-818.5"/>
<text text-anchor="start" x="172.5" y="-847.5" font-family="Helvetica,sans-Serif" font-size="10.00">KuszkAPI::Containers</text>
<text text-anchor="start" x="172.5" y="-836.5" font-family="Helvetica,sans-Serif" font-size="10.00">::Vector&lt; KuszkAPI::Forms</text>
<text text-anchor="middle" x="233" y="-825.5" font-family="Helvetica,sans-Serif" font-size="10.00">::Button * &gt;</text>
</a>
</g>
</g>
<!-- Node1&#45;&gt;Node20 -->
<g id="edge19" class="edge"><title>Node1&#45;&gt;Node20</title>
<path fill="none" stroke="midnightblue" d="M77.7656,-931.282C95.183,-912.437 122.07,-886.059 150,-869 155.563,-865.602 161.57,-862.5 167.716,-859.689"/>
<polygon fill="midnightblue" stroke="midnightblue" points="75.0297,-929.089 70.9054,-938.848 80.2154,-933.791 75.0297,-929.089"/>
</g>
<!-- Node21 -->
<g id="node21" class="node"><title>Node21</title>
<g id="a_node21"><a xlink:href="class_kuszk_a_p_i_1_1_containers_1_1_vector.html" target="_top" xlink:title="KuszkAPI::Containers\l::Vector\&lt; KuszkAPI::Forms\l::Calendar * \&gt;">
<polygon fill="white" stroke="black" points="164.5,-758.5 164.5,-799.5 301.5,-799.5 301.5,-758.5 164.5,-758.5"/>
<text text-anchor="start" x="172.5" y="-787.5" font-family="Helvetica,sans-Serif" font-size="10.00">KuszkAPI::Containers</text>
<text text-anchor="start" x="172.5" y="-776.5" font-family="Helvetica,sans-Serif" font-size="10.00">::Vector&lt; KuszkAPI::Forms</text>
<text text-anchor="middle" x="233" y="-765.5" font-family="Helvetica,sans-Serif" font-size="10.00">::Calendar * &gt;</text>
</a>
</g>
</g>
<!-- Node1&#45;&gt;Node21 -->
<g id="edge20" class="edge"><title>Node1&#45;&gt;Node21</title>
<path fill="none" stroke="midnightblue" d="M67.5866,-929.496C81.2786,-897.504 109.356,-841.738 150,-809 154.368,-805.482 159.186,-802.354 164.234,-799.577"/>
<polygon fill="midnightblue" stroke="midnightblue" points="64.2477,-928.411 63.6489,-938.989 70.7135,-931.093 64.2477,-928.411"/>
</g>
<!-- Node22 -->
<g id="node22" class="node"><title>Node22</title>
<g id="a_node22"><a xlink:href="class_kuszk_a_p_i_1_1_containers_1_1_vector.html" target="_top" xlink:title="KuszkAPI::Containers\l::Vector\&lt; KuszkAPI::Forms\l::CheckBox * \&gt;">
<polygon fill="white" stroke="black" points="164.5,-698.5 164.5,-739.5 301.5,-739.5 301.5,-698.5 164.5,-698.5"/>
<text text-anchor="start" x="172.5" y="-727.5" font-family="Helvetica,sans-Serif" font-size="10.00">KuszkAPI::Containers</text>
<text text-anchor="start" x="172.5" y="-716.5" font-family="Helvetica,sans-Serif" font-size="10.00">::Vector&lt; KuszkAPI::Forms</text>
<text text-anchor="middle" x="233" y="-705.5" font-family="Helvetica,sans-Serif" font-size="10.00">::CheckBox * &gt;</text>
</a>
</g>
</g>
<!-- Node1&#45;&gt;Node22 -->
<g id="edge21" class="edge"><title>Node1&#45;&gt;Node22</title>
<path fill="none" stroke="midnightblue" d="M62.6559,-928.914C71.8558,-886.169 96.3131,-798.999 150,-749 154.326,-744.971 159.238,-741.473 164.455,-738.438"/>
<polygon fill="midnightblue" stroke="midnightblue" points="59.214,-928.276 60.6371,-938.775 66.0718,-929.68 59.214,-928.276"/>
</g>
<!-- Node23 -->
<g id="node23" class="node"><title>Node23</title>
<g id="a_node23"><a xlink:href="class_kuszk_a_p_i_1_1_containers_1_1_vector.html" target="_top" xlink:title="KuszkAPI::Containers\l::Vector\&lt; KuszkAPI::Forms\l::ComboBox * \&gt;">
<polygon fill="white" stroke="black" points="164.5,-638.5 164.5,-679.5 301.5,-679.5 301.5,-638.5 164.5,-638.5"/>
<text text-anchor="start" x="172.5" y="-667.5" font-family="Helvetica,sans-Serif" font-size="10.00">KuszkAPI::Containers</text>
<text text-anchor="start" x="172.5" y="-656.5" font-family="Helvetica,sans-Serif" font-size="10.00">::Vector&lt; KuszkAPI::Forms</text>
<text text-anchor="middle" x="233" y="-645.5" font-family="Helvetica,sans-Serif" font-size="10.00">::ComboBox * &gt;</text>
</a>
</g>
</g>
<!-- Node1&#45;&gt;Node23 -->
<g id="edge22" class="edge"><title>Node1&#45;&gt;Node23</title>
<path fill="none" stroke="midnightblue" d="M59.7227,-928.782C64.5986,-876.872 82.888,-757.234 150,-689 154.252,-684.677 159.177,-680.973 164.461,-677.799"/>
<polygon fill="midnightblue" stroke="midnightblue" points="56.2318,-928.528 58.8731,-938.788 63.2067,-929.12 56.2318,-928.528"/>
</g>
<!-- Node24 -->
<g id="node24" class="node"><title>Node24</title>
<g id="a_node24"><a xlink:href="class_kuszk_a_p_i_1_1_containers_1_1_vector.html" target="_top" xlink:title="KuszkAPI::Containers\l::Vector\&lt; KuszkAPI::Forms\l::EditBox * \&gt;">
<polygon fill="white" stroke="black" points="164.5,-578.5 164.5,-619.5 301.5,-619.5 301.5,-578.5 164.5,-578.5"/>
<text text-anchor="start" x="172.5" y="-607.5" font-family="Helvetica,sans-Serif" font-size="10.00">KuszkAPI::Containers</text>
<text text-anchor="start" x="172.5" y="-596.5" font-family="Helvetica,sans-Serif" font-size="10.00">::Vector&lt; KuszkAPI::Forms</text>
<text text-anchor="middle" x="233" y="-585.5" font-family="Helvetica,sans-Serif" font-size="10.00">::EditBox * &gt;</text>
</a>
</g>
</g>
<!-- Node1&#45;&gt;Node24 -->
<g id="edge23" class="edge"><title>Node1&#45;&gt;Node24</title>
<path fill="none" stroke="midnightblue" d="M57.7938,-928.669C58.6877,-868.592 69.2731,-716.009 150,-629 154.124,-624.555 158.961,-620.767 164.188,-617.538"/>
<polygon fill="midnightblue" stroke="midnightblue" points="54.2933,-928.75 57.725,-938.773 61.2931,-928.798 54.2933,-928.75"/>
</g>
<!-- Node25 -->
<g id="node25" class="node"><title>Node25</title>
<g id="a_node25"><a xlink:href="class_kuszk_a_p_i_1_1_containers_1_1_vector.html" target="_top" xlink:title="KuszkAPI::Containers\l::Vector\&lt; KuszkAPI::Forms\l::Font::ItemData * \&gt;">
<polygon fill="white" stroke="black" points="164.5,-518.5 164.5,-559.5 301.5,-559.5 301.5,-518.5 164.5,-518.5"/>
<text text-anchor="start" x="172.5" y="-547.5" font-family="Helvetica,sans-Serif" font-size="10.00">KuszkAPI::Containers</text>
<text text-anchor="start" x="172.5" y="-536.5" font-family="Helvetica,sans-Serif" font-size="10.00">::Vector&lt; KuszkAPI::Forms</text>
<text text-anchor="middle" x="233" y="-525.5" font-family="Helvetica,sans-Serif" font-size="10.00">::Font::ItemData * &gt;</text>
</a>
</g>
</g>
<!-- Node1&#45;&gt;Node25 -->
<g id="edge24" class="edge"><title>Node1&#45;&gt;Node25</title>
<path fill="none" stroke="midnightblue" d="M60.9176,-928.688C70.2378,-851.885 101.551,-623.431 150,-569 154.132,-564.358 159.044,-560.433 164.38,-557.114"/>
<polygon fill="midnightblue" stroke="midnightblue" points="57.4109,-928.537 59.7026,-938.881 64.3617,-929.365 57.4109,-928.537"/>
</g>
<!-- Node26 -->
<g id="node26" class="node"><title>Node26</title>
<g id="a_node26"><a xlink:href="class_kuszk_a_p_i_1_1_containers_1_1_vector.html" target="_top" xlink:title="KuszkAPI::Containers\l::Vector\&lt; KuszkAPI::Forms\l::Label * \&gt;">
<polygon fill="white" stroke="black" points="164.5,-458.5 164.5,-499.5 301.5,-499.5 301.5,-458.5 164.5,-458.5"/>
<text text-anchor="start" x="172.5" y="-487.5" font-family="Helvetica,sans-Serif" font-size="10.00">KuszkAPI::Containers</text>
<text text-anchor="start" x="172.5" y="-476.5" font-family="Helvetica,sans-Serif" font-size="10.00">::Vector&lt; KuszkAPI::Forms</text>
<text text-anchor="middle" x="233" y="-465.5" font-family="Helvetica,sans-Serif" font-size="10.00">::Label * &gt;</text>
</a>
</g>
</g>
<!-- Node1&#45;&gt;Node26 -->
<g id="edge25" class="edge"><title>Node1&#45;&gt;Node26</title>
<path fill="none" stroke="midnightblue" d="M60.0263,-928.746C67.2774,-844.276 94.5075,-573.305 150,-509 154.061,-504.295 158.924,-500.327 164.228,-496.981"/>
<polygon fill="midnightblue" stroke="midnightblue" points="56.5177,-928.703 59.1697,-938.96 63.4932,-929.288 56.5177,-928.703"/>
</g>
<!-- Node27 -->
<g id="node27" class="node"><title>Node27</title>
<g id="a_node27"><a xlink:href="class_kuszk_a_p_i_1_1_containers_1_1_vector.html" target="_top" xlink:title="KuszkAPI::Containers\l::Vector\&lt; KuszkAPI::Forms\l::ListBox * \&gt;">
<polygon fill="white" stroke="black" points="164.5,-398.5 164.5,-439.5 301.5,-439.5 301.5,-398.5 164.5,-398.5"/>
<text text-anchor="start" x="172.5" y="-427.5" font-family="Helvetica,sans-Serif" font-size="10.00">KuszkAPI::Containers</text>
<text text-anchor="start" x="172.5" y="-416.5" font-family="Helvetica,sans-Serif" font-size="10.00">::Vector&lt; KuszkAPI::Forms</text>
<text text-anchor="middle" x="233" y="-405.5" font-family="Helvetica,sans-Serif" font-size="10.00">::ListBox * &gt;</text>
</a>
</g>
</g>
<!-- Node1&#45;&gt;Node27 -->
<g id="edge26" class="edge"><title>Node1&#45;&gt;Node27</title>
<path fill="none" stroke="midnightblue" d="M59.3503,-928.697C64.7271,-836.949 87.4433,-523.25 150,-449 154.102,-444.131 159.066,-440.052 164.497,-436.635"/>
<polygon fill="midnightblue" stroke="midnightblue" points="55.8519,-928.572 58.7791,-938.755 62.8406,-928.969 55.8519,-928.572"/>
</g>
<!-- Node28 -->
<g id="node28" class="node"><title>Node28</title>
<g id="a_node28"><a xlink:href="class_kuszk_a_p_i_1_1_containers_1_1_vector.html" target="_top" xlink:title="KuszkAPI::Containers\l::Vector\&lt; KuszkAPI::Forms\l::RadioBox * \&gt;">
<polygon fill="white" stroke="black" points="164.5,-338.5 164.5,-379.5 301.5,-379.5 301.5,-338.5 164.5,-338.5"/>
<text text-anchor="start" x="172.5" y="-367.5" font-family="Helvetica,sans-Serif" font-size="10.00">KuszkAPI::Containers</text>
<text text-anchor="start" x="172.5" y="-356.5" font-family="Helvetica,sans-Serif" font-size="10.00">::Vector&lt; KuszkAPI::Forms</text>
<text text-anchor="middle" x="233" y="-345.5" font-family="Helvetica,sans-Serif" font-size="10.00">::RadioBox * &gt;</text>
</a>
</g>
</g>
<!-- Node1&#45;&gt;Node28 -->
<g id="edge27" class="edge"><title>Node1&#45;&gt;Node28</title>
<path fill="none" stroke="midnightblue" d="M58.8133,-928.65C62.4635,-830.032 80.3445,-473.269 150,-389 154.056,-384.093 158.989,-379.988 164.401,-376.555"/>
<polygon fill="midnightblue" stroke="midnightblue" points="55.3075,-928.754 58.4525,-938.871 62.3032,-929.001 55.3075,-928.754"/>
</g>
<!-- Node29 -->
<g id="node29" class="node"><title>Node29</title>
<g id="a_node29"><a xlink:href="class_kuszk_a_p_i_1_1_containers_1_1_vector.html" target="_top" xlink:title="KuszkAPI::Containers\l::Vector\&lt; KuszkAPI::Forms\l::RadioBox::ItemData * \&gt;">
<polygon fill="white" stroke="black" points="164.5,-278.5 164.5,-319.5 301.5,-319.5 301.5,-278.5 164.5,-278.5"/>
<text text-anchor="start" x="172.5" y="-307.5" font-family="Helvetica,sans-Serif" font-size="10.00">KuszkAPI::Containers</text>
<text text-anchor="start" x="172.5" y="-296.5" font-family="Helvetica,sans-Serif" font-size="10.00">::Vector&lt; KuszkAPI::Forms</text>
<text text-anchor="middle" x="233" y="-285.5" font-family="Helvetica,sans-Serif" font-size="10.00">::RadioBox::ItemData * &gt;</text>
</a>
</g>
</g>
<!-- Node1&#45;&gt;Node29 -->
<g id="edge28" class="edge"><title>Node1&#45;&gt;Node29</title>
<path fill="none" stroke="midnightblue" d="M58.3733,-928.73C60.413,-823.78 73.1861,-423.387 150,-329 154.019,-324.062 158.926,-319.937 164.322,-316.49"/>
<polygon fill="midnightblue" stroke="midnightblue" points="54.8692,-928.935 58.1906,-938.996 61.8681,-929.06 54.8692,-928.935"/>
</g>
<!-- Node30 -->
<g id="node30" class="node"><title>Node30</title>
<g id="a_node30"><a xlink:href="class_kuszk_a_p_i_1_1_containers_1_1_vector.html" target="_top" xlink:title="KuszkAPI::Containers\l::Vector\&lt; KuszkAPI::Forms\l::TabBox * \&gt;">
<polygon fill="white" stroke="black" points="164.5,-218.5 164.5,-259.5 301.5,-259.5 301.5,-218.5 164.5,-218.5"/>
<text text-anchor="start" x="172.5" y="-247.5" font-family="Helvetica,sans-Serif" font-size="10.00">KuszkAPI::Containers</text>
<text text-anchor="start" x="172.5" y="-236.5" font-family="Helvetica,sans-Serif" font-size="10.00">::Vector&lt; KuszkAPI::Forms</text>
<text text-anchor="middle" x="233" y="-225.5" font-family="Helvetica,sans-Serif" font-size="10.00">::TabBox * &gt;</text>
</a>
</g>
</g>
<!-- Node1&#45;&gt;Node30 -->
<g id="edge29" class="edge"><title>Node1&#45;&gt;Node30</title>
<path fill="none" stroke="midnightblue" d="M58.0126,-928.483C58.565,-816.981 66.0841,-373.456 150,-269 153.987,-264.037 158.874,-259.894 164.256,-256.437"/>
<polygon fill="midnightblue" stroke="midnightblue" points="54.5117,-928.757 57.9775,-938.769 61.5117,-928.781 54.5117,-928.757"/>
</g>
<!-- Node31 -->
<g id="node31" class="node"><title>Node31</title>
<g id="a_node31"><a xlink:href="class_kuszk_a_p_i_1_1_containers_1_1_vector.html" target="_top" xlink:title="KuszkAPI::Containers\l::Vector\&lt; KuszkAPI::Forms\l::TableBox * \&gt;">
<polygon fill="white" stroke="black" points="164.5,-158.5 164.5,-199.5 301.5,-199.5 301.5,-158.5 164.5,-158.5"/>
<text text-anchor="start" x="172.5" y="-187.5" font-family="Helvetica,sans-Serif" font-size="10.00">KuszkAPI::Containers</text>
<text text-anchor="start" x="172.5" y="-176.5" font-family="Helvetica,sans-Serif" font-size="10.00">::Vector&lt; KuszkAPI::Forms</text>
<text text-anchor="middle" x="233" y="-165.5" font-family="Helvetica,sans-Serif" font-size="10.00">::TableBox * &gt;</text>
</a>
</g>
</g>
<!-- Node1&#45;&gt;Node31 -->
<g id="edge30" class="edge"><title>Node1&#45;&gt;Node31</title>
<path fill="none" stroke="midnightblue" d="M57.705,-928.532C56.8459,-811.209 58.8881,-323.657 150,-209 153.961,-204.015 158.829,-199.859 164.201,-196.393"/>
<polygon fill="midnightblue" stroke="midnightblue" points="54.2066,-928.736 57.7943,-938.705 61.2063,-928.675 54.2066,-928.736"/>
</g>
<!-- Node32 -->
<g id="node32" class="node"><title>Node32</title>
<g id="a_node32"><a xlink:href="class_kuszk_a_p_i_1_1_containers_1_1_vector.html" target="_top" xlink:title="KuszkAPI::Containers\l::Vector\&lt; KuszkAPI::Sockets\l::Client * \&gt;">
<polygon fill="white" stroke="black" points="160,-98.5 160,-139.5 306,-139.5 306,-98.5 160,-98.5"/>
<text text-anchor="start" x="168" y="-127.5" font-family="Helvetica,sans-Serif" font-size="10.00">KuszkAPI::Containers</text>
<text text-anchor="start" x="168" y="-116.5" font-family="Helvetica,sans-Serif" font-size="10.00">::Vector&lt; KuszkAPI::Sockets</text>
<text text-anchor="middle" x="233" y="-105.5" font-family="Helvetica,sans-Serif" font-size="10.00">::Client * &gt;</text>
</a>
</g>
</g>
<!-- Node1&#45;&gt;Node32 -->
<g id="edge31" class="edge"><title>Node1&#45;&gt;Node32</title>
<path fill="none" stroke="midnightblue" d="M59.3161,-928.826C66.2903,-799.334 100.486,-211.893 150,-149 152.813,-145.427 156.093,-142.279 159.692,-139.506"/>
<polygon fill="midnightblue" stroke="midnightblue" points="55.8134,-928.785 58.7759,-938.957 62.8035,-929.157 55.8134,-928.785"/>
</g>
<!-- Node33 -->
<g id="node33" class="node"><title>Node33</title>
<g id="a_node33"><a xlink:href="class_kuszk_a_p_i_1_1_containers_1_1_vector.html" target="_top" xlink:title="KuszkAPI::Containers\l::Vector\&lt; tnData * \&gt;">
<polygon fill="white" stroke="black" points="176.5,-49 176.5,-79 289.5,-79 289.5,-49 176.5,-49"/>
<text text-anchor="start" x="184.5" y="-67" font-family="Helvetica,sans-Serif" font-size="10.00">KuszkAPI::Containers</text>
<text text-anchor="middle" x="233" y="-56" font-family="Helvetica,sans-Serif" font-size="10.00">::Vector&lt; tnData * &gt;</text>
</a>
</g>
</g>
<!-- Node1&#45;&gt;Node33 -->
<g id="edge32" class="edge"><title>Node1&#45;&gt;Node33</title>
<path fill="none" stroke="midnightblue" d="M59.0491,-928.635C64.8805,-792.846 95.0401,-155.535 150,-89 156.824,-80.7383 166.296,-75.1463 176.387,-71.3758"/>
<polygon fill="midnightblue" stroke="midnightblue" points="55.5418,-928.734 58.615,-938.874 62.5355,-929.031 55.5418,-928.734"/>
</g>
<!-- Node34 -->
<g id="node34" class="node"><title>Node34</title>
<g id="a_node34"><a xlink:href="class_kuszk_a_p_i_1_1_containers_1_1_vector.html" target="_top" xlink:title="KuszkAPI::Containers\l::Vector\&lt; UINT_PTR * \&gt;">
<polygon fill="white" stroke="black" points="172.5,-0 172.5,-30 293.5,-30 293.5,-0 172.5,-0"/>
<text text-anchor="start" x="180.5" y="-18" font-family="Helvetica,sans-Serif" font-size="10.00">KuszkAPI::Containers</text>
<text text-anchor="middle" x="233" y="-7" font-family="Helvetica,sans-Serif" font-size="10.00">::Vector&lt; UINT_PTR * &gt;</text>
</a>
</g>
</g>
<!-- Node1&#45;&gt;Node34 -->
<g id="edge33" class="edge"><title>Node1&#45;&gt;Node34</title>
<path fill="none" stroke="midnightblue" d="M58.9006,-928.535C64.0886,-787.969 91.9779,-110.647 150,-40 155.857,-32.8692 163.686,-27.7261 172.189,-24.026"/>
<polygon fill="midnightblue" stroke="midnightblue" points="55.3949,-928.631 58.5289,-938.751 62.3903,-928.885 55.3949,-928.631"/>
</g>
</g>
</svg>
