<?xml version="1.0" encoding="UTF-8" standalone="no"?>
<!DOCTYPE svg PUBLIC "-//W3C//DTD SVG 1.1//EN"
 "http://www.w3.org/Graphics/SVG/1.1/DTD/svg11.dtd">
<!-- Generated by graphviz version 2.36.0 (20140111.2315)
 -->
<!-- Title: Graficzna hierarchia klas Pages: 1 -->
<svg width="296pt" height="87pt"
 viewBox="0.00 0.00 296.00 87.00" xmlns="http://www.w3.org/2000/svg" xmlns:xlink="http://www.w3.org/1999/xlink">
<g id="graph0" class="graph" transform="scale(1 1) rotate(0) translate(4 83)">
<title>Graficzna hierarchia klas</title>
<polygon fill="white" stroke="none" points="-4,4 -4,-83 292,-83 292,4 -4,4"/>
<!-- Node1 -->
<g id="node1" class="node"><title>Node1</title>
<g id="a_node1"><a xlink:href="class_kuszk_a_p_i_1_1_application_1_1_app.html" target="_top" xlink:title="Implementacja bazy dla modułu aplikacji. ">
<polygon fill="white" stroke="black" points="0.5,-29.5 0.5,-48.5 137.5,-48.5 137.5,-29.5 0.5,-29.5"/>
<text text-anchor="middle" x="69" y="-36.5" font-family="Helvetica,sans-Serif" font-size="10.00">KuszkAPI::Application::App</text>
</a>
</g>
</g>
<!-- Node2 -->
<g id="node2" class="node"><title>Node2</title>
<g id="a_node2"><a xlink:href="class_kuszk_a_p_i_1_1_application_1_1_dll_app.html" target="_top" xlink:title="Implementacja modelu aplikacji bibliotekowej. ">
<polygon fill="white" stroke="black" points="174,-49 174,-79 288,-79 288,-49 174,-49"/>
<text text-anchor="start" x="182" y="-67" font-family="Helvetica,sans-Serif" font-size="10.00">KuszkAPI::Application</text>
<text text-anchor="middle" x="231" y="-56" font-family="Helvetica,sans-Serif" font-size="10.00">::DllApp</text>
</a>
</g>
</g>
<!-- Node1&#45;&gt;Node2 -->
<g id="edge1" class="edge"><title>Node1&#45;&gt;Node2</title>
<path fill="none" stroke="midnightblue" d="M140.995,-50.093C152.035,-51.818 163.307,-53.5793 173.955,-55.243"/>
<polygon fill="midnightblue" stroke="midnightblue" points="141.366,-46.6086 130.946,-48.5227 140.285,-53.5246 141.366,-46.6086"/>
</g>
<!-- Node3 -->
<g id="node3" class="node"><title>Node3</title>
<g id="a_node3"><a xlink:href="class_kuszk_a_p_i_1_1_application_1_1_win_app.html" target="_top" xlink:title="Implementacja modelu aplikacji okienkowej. ">
<polygon fill="white" stroke="black" points="174,-0 174,-30 288,-30 288,-0 174,-0"/>
<text text-anchor="start" x="182" y="-18" font-family="Helvetica,sans-Serif" font-size="10.00">KuszkAPI::Application</text>
<text text-anchor="middle" x="231" y="-7" font-family="Helvetica,sans-Serif" font-size="10.00">::WinApp</text>
</a>
</g>
</g>
<!-- Node1&#45;&gt;Node3 -->
<g id="edge2" class="edge"><title>Node1&#45;&gt;Node3</title>
<path fill="none" stroke="midnightblue" d="M143.723,-27.9415C153.82,-26.4271 164.05,-24.8925 173.766,-23.4351"/>
<polygon fill="midnightblue" stroke="midnightblue" points="143.066,-24.5008 133.696,-29.4456 144.105,-31.4234 143.066,-24.5008"/>
</g>
</g>
</svg>
