<?xml version="1.0" encoding="UTF-8" standalone="no"?>
<!DOCTYPE svg PUBLIC "-//W3C//DTD SVG 1.1//EN"
 "http://www.w3.org/Graphics/SVG/1.1/DTD/svg11.dtd">
<!-- Generated by graphviz version 2.36.0 (20140111.2315)
 -->
<!-- Title: KuszkAPI::Forms::CommonDialog::FontInfo Pages: 1 -->
<svg width="174pt" height="108pt"
 viewBox="0.00 0.00 174.00 108.00" xmlns="http://www.w3.org/2000/svg" xmlns:xlink="http://www.w3.org/1999/xlink">
<g id="graph0" class="graph" transform="scale(1 1) rotate(0) translate(4 104)">
<title>KuszkAPI::Forms::CommonDialog::FontInfo</title>
<polygon fill="white" stroke="none" points="-4,4 -4,-104 170,-104 170,4 -4,4"/>
<!-- Node1 -->
<g id="node1" class="node"><title>Node1</title>
<polygon fill="#bfbfbf" stroke="black" points="0,-1 0,-31 166,-31 166,-1 0,-1"/>
<text text-anchor="start" x="8" y="-19" font-family="Helvetica,sans-Serif" font-size="10.00">KuszkAPI::Forms::CommonDialog</text>
<text text-anchor="middle" x="83" y="-8" font-family="Helvetica,sans-Serif" font-size="10.00">::FontInfo</text>
</g>
<!-- Node2 -->
<g id="node2" class="node"><title>Node2</title>
<polygon fill="white" stroke="#bfbfbf" points="10,-80.5 10,-99.5 72,-99.5 72,-80.5 10,-80.5"/>
<text text-anchor="middle" x="41" y="-87.5" font-family="Helvetica,sans-Serif" font-size="10.00">LOGFONT</text>
</g>
<!-- Node2&#45;&gt;Node1 -->
<g id="edge1" class="edge"><title>Node2&#45;&gt;Node1</title>
<path fill="none" stroke="#9a32cd" stroke-dasharray="5,2" d="M51.1661,-71.5723C58.38,-59.2058 67.9427,-42.8125 74.6982,-31.2316"/>
<polygon fill="#9a32cd" stroke="#9a32cd" points="47.9984,-70.0565 45.9829,-80.4579 54.0449,-73.5837 47.9984,-70.0565"/>
<text text-anchor="middle" x="76" y="-53.5" font-family="Helvetica,sans-Serif" font-size="10.00"> Data</text>
</g>
<!-- Node3 -->
<g id="node3" class="node"><title>Node3</title>
<polygon fill="white" stroke="#bfbfbf" points="90,-80.5 90,-99.5 160,-99.5 160,-80.5 90,-80.5"/>
<text text-anchor="middle" x="125" y="-87.5" font-family="Helvetica,sans-Serif" font-size="10.00">COLORREF</text>
</g>
<!-- Node3&#45;&gt;Node1 -->
<g id="edge2" class="edge"><title>Node3&#45;&gt;Node1</title>
<path fill="none" stroke="#9a32cd" stroke-dasharray="5,2" d="M114.834,-71.5723C107.62,-59.2058 98.0573,-42.8125 91.3018,-31.2316"/>
<polygon fill="#9a32cd" stroke="#9a32cd" points="111.955,-73.5837 120.017,-80.4579 118.002,-70.0565 111.955,-73.5837"/>
<text text-anchor="middle" x="121" y="-53.5" font-family="Helvetica,sans-Serif" font-size="10.00"> Color</text>
</g>
</g>
</svg>
