<?xml version="1.0" encoding="UTF-8" standalone="no"?>
<!DOCTYPE svg PUBLIC "-//W3C//DTD SVG 1.1//EN"
 "http://www.w3.org/Graphics/SVG/1.1/DTD/svg11.dtd">
<!-- Generated by graphviz version 2.36.0 (20140111.2315)
 -->
<!-- Title: KuszkAPI::Forms::TableBox::ItemData Pages: 1 -->
<svg width="1132pt" height="381pt"
 viewBox="0.00 0.00 1132.00 381.00" xmlns="http://www.w3.org/2000/svg" xmlns:xlink="http://www.w3.org/1999/xlink">
<g id="graph0" class="graph" transform="scale(1 1) rotate(0) translate(4 377)">
<title>KuszkAPI::Forms::TableBox::ItemData</title>
<polygon fill="white" stroke="none" points="-4,4 -4,-377 1128,-377 1128,4 -4,4"/>
<!-- Node1 -->
<g id="node1" class="node"><title>Node1</title>
<polygon fill="#bfbfbf" stroke="black" points="984,-138 984,-168 1124,-168 1124,-138 984,-138"/>
<text text-anchor="start" x="992" y="-156" font-family="Helvetica,sans-Serif" font-size="10.00">KuszkAPI::Forms::TableBox</text>
<text text-anchor="middle" x="1054" y="-145" font-family="Helvetica,sans-Serif" font-size="10.00">::ItemData</text>
</g>
<!-- Node2 -->
<g id="node2" class="node"><title>Node2</title>
<g id="a_node2"><a xlink:href="class_kuszk_a_p_i_1_1_containers_1_1_string.html" target="_top" xlink:title="KuszkAPI::Containers\l::String">
<polygon fill="white" stroke="black" points="336.5,-77 336.5,-107 449.5,-107 449.5,-77 336.5,-77"/>
<text text-anchor="start" x="344.5" y="-95" font-family="Helvetica,sans-Serif" font-size="10.00">KuszkAPI::Containers</text>
<text text-anchor="middle" x="393" y="-84" font-family="Helvetica,sans-Serif" font-size="10.00">::String</text>
</a>
</g>
</g>
<!-- Node2&#45;&gt;Node1 -->
<g id="edge1" class="edge"><title>Node2&#45;&gt;Node1</title>
<path fill="none" stroke="#9a32cd" stroke-dasharray="5,2" d="M460.003,-95.9473C559.779,-102.213 754.899,-115.634 920,-134 940.748,-136.308 963.244,-139.325 983.731,-142.272"/>
<polygon fill="#9a32cd" stroke="#9a32cd" points="459.973,-92.4387 449.774,-95.3091 459.537,-99.4251 459.973,-92.4387"/>
<text text-anchor="middle" x="773" y="-124" font-family="Helvetica,sans-Serif" font-size="10.00"> Name</text>
</g>
<!-- Node9 -->
<g id="node9" class="node"><title>Node9</title>
<g id="a_node9"><a xlink:href="class_kuszk_a_p_i_1_1_containers_1_1_list.html" target="_top" xlink:title="KuszkAPI::Containers\l::List\&lt; KuszkAPI::Containers\l::String \&gt;">
<polygon fill="white" stroke="black" points="596.5,-214.5 596.5,-255.5 739.5,-255.5 739.5,-214.5 596.5,-214.5"/>
<text text-anchor="start" x="604.5" y="-243.5" font-family="Helvetica,sans-Serif" font-size="10.00">KuszkAPI::Containers</text>
<text text-anchor="start" x="604.5" y="-232.5" font-family="Helvetica,sans-Serif" font-size="10.00">::List&lt; KuszkAPI::Containers</text>
<text text-anchor="middle" x="668" y="-221.5" font-family="Helvetica,sans-Serif" font-size="10.00">::String &gt;</text>
</a>
</g>
</g>
<!-- Node2&#45;&gt;Node9 -->
<g id="edge11" class="edge"><title>Node2&#45;&gt;Node9</title>
<path fill="none" stroke="#9a32cd" stroke-dasharray="5,2" d="M447.888,-110.33C493.611,-126.278 555.293,-148.84 578,-162 603.244,-176.63 628.642,-198.316 645.807,-214.252"/>
<polygon fill="#9a32cd" stroke="#9a32cd" points="448.988,-107.007 438.394,-107.033 446.692,-113.62 448.988,-107.007"/>
<text text-anchor="middle" x="523" y="-165" font-family="Helvetica,sans-Serif" font-size="10.00"> tAbstract</text>
</g>
<!-- Node3 -->
<g id="node3" class="node"><title>Node3</title>
<polygon fill="white" stroke="#bfbfbf" points="164.5,-0.5 164.5,-19.5 213.5,-19.5 213.5,-0.5 164.5,-0.5"/>
<text text-anchor="middle" x="189" y="-7.5" font-family="Helvetica,sans-Serif" font-size="10.00">TCHAR</text>
</g>
<!-- Node3&#45;&gt;Node2 -->
<g id="edge2" class="edge"><title>Node3&#45;&gt;Node2</title>
<path fill="none" stroke="#9a32cd" stroke-dasharray="5,2" d="M223.582,-19.774C233.403,-22.6855 244.147,-25.9216 254,-29 282.574,-37.9275 290.624,-37.8849 318,-50 335.426,-57.7119 354.08,-68.3164 368.3,-76.94"/>
<polygon fill="#9a32cd" stroke="#9a32cd" points="224.337,-16.348 213.756,-16.8777 222.358,-23.0624 224.337,-16.348"/>
<text text-anchor="middle" x="295" y="-53" font-family="Helvetica,sans-Serif" font-size="10.00"> cAbstract</text>
</g>
<!-- Node4 -->
<g id="node4" class="node"><title>Node4</title>
<polygon fill="white" stroke="#bfbfbf" points="161,-76.5 161,-95.5 217,-95.5 217,-76.5 161,-76.5"/>
<text text-anchor="middle" x="189" y="-83.5" font-family="Helvetica,sans-Serif" font-size="10.00">TCHAR *</text>
</g>
<!-- Node4&#45;&gt;Node2 -->
<g id="edge3" class="edge"><title>Node4&#45;&gt;Node2</title>
<path fill="none" stroke="#9a32cd" stroke-dasharray="5,2" d="M227.468,-87.1129C258.019,-88.0204 301.626,-89.3156 336.272,-90.3447"/>
<polygon fill="#9a32cd" stroke="#9a32cd" points="227.342,-83.6077 217.243,-86.8092 227.134,-90.6046 227.342,-83.6077"/>
<text text-anchor="middle" x="295" y="-104" font-family="Helvetica,sans-Serif" font-size="10.00"> pcBufor</text>
<text text-anchor="middle" x="295" y="-93" font-family="Helvetica,sans-Serif" font-size="10.00">pcData</text>
</g>
<!-- Node5 -->
<g id="node5" class="node"><title>Node5</title>
<g id="a_node5"><a xlink:href="namespace_3global_scope_4.html#classunsigned" target="_top" xlink:title="unsigned">
<polygon fill="white" stroke="black" points="0,-306.5 0,-325.5 56,-325.5 56,-306.5 0,-306.5"/>
<text text-anchor="middle" x="28" y="-313.5" font-family="Helvetica,sans-Serif" font-size="10.00">unsigned</text>
</a>
</g>
</g>
<!-- Node5&#45;&gt;Node2 -->
<g id="edge4" class="edge"><title>Node5&#45;&gt;Node2</title>
<path fill="none" stroke="#9a32cd" stroke-dasharray="5,2" d="M33.4245,-296.292C42.9079,-259.056 68.9551,-178.723 124,-141 195.711,-91.8548 233.177,-135.047 318,-116 328.542,-113.633 339.722,-110.401 350.112,-107.077"/>
<polygon fill="#9a32cd" stroke="#9a32cd" points="29.9363,-295.828 30.9994,-306.37 36.742,-297.466 29.9363,-295.828"/>
<text text-anchor="middle" x="189" y="-166" font-family="Helvetica,sans-Serif" font-size="10.00"> uFormat</text>
<text text-anchor="middle" x="189" y="-155" font-family="Helvetica,sans-Serif" font-size="10.00">uDataSize</text>
<text text-anchor="middle" x="189" y="-144" font-family="Helvetica,sans-Serif" font-size="10.00">uIlosc</text>
</g>
<!-- Node8 -->
<g id="node8" class="node"><title>Node8</title>
<g id="a_node8"><a xlink:href="class_kuszk_a_p_i_1_1_containers_1_1_strings.html" target="_top" xlink:title="KuszkAPI::Containers\l::Strings">
<polygon fill="white" stroke="black" points="806.5,-220 806.5,-250 919.5,-250 919.5,-220 806.5,-220"/>
<text text-anchor="start" x="814.5" y="-238" font-family="Helvetica,sans-Serif" font-size="10.00">KuszkAPI::Containers</text>
<text text-anchor="middle" x="863" y="-227" font-family="Helvetica,sans-Serif" font-size="10.00">::Strings</text>
</a>
</g>
</g>
<!-- Node5&#45;&gt;Node8 -->
<g id="edge19" class="edge"><title>Node5&#45;&gt;Node8</title>
<path fill="none" stroke="#9a32cd" stroke-dasharray="5,2" d="M51.4253,-331.016C58.4106,-335.12 66.3049,-339.202 74,-342 122.343,-359.581 136.56,-362 188,-362 188,-362 188,-362 669,-362 749.622,-362 822.621,-283.708 850.267,-250.067"/>
<polygon fill="#9a32cd" stroke="#9a32cd" points="52.911,-327.82 42.5675,-325.526 49.223,-333.769 52.911,-327.82"/>
<text text-anchor="middle" x="393" y="-365" font-family="Helvetica,sans-Serif" font-size="10.00"> uIlosc</text>
</g>
<!-- Node10 -->
<g id="node10" class="node"><title>Node10</title>
<g id="a_node10"><a xlink:href="class_kuszk_a_p_i_1_1_containers_1_1_container.html" target="_top" xlink:title="Implementacja bazy dla modułu kontenerów. ">
<polygon fill="white" stroke="black" points="132.5,-301 132.5,-331 245.5,-331 245.5,-301 132.5,-301"/>
<text text-anchor="start" x="140.5" y="-319" font-family="Helvetica,sans-Serif" font-size="10.00">KuszkAPI::Containers</text>
<text text-anchor="middle" x="189" y="-308" font-family="Helvetica,sans-Serif" font-size="10.00">::Container</text>
</a>
</g>
</g>
<!-- Node5&#45;&gt;Node10 -->
<g id="edge10" class="edge"><title>Node5&#45;&gt;Node10</title>
<path fill="none" stroke="#9a32cd" stroke-dasharray="5,2" d="M66.4236,-316C86.0859,-316 110.572,-316 132.406,-316"/>
<polygon fill="#9a32cd" stroke="#9a32cd" points="66.3331,-312.5 56.3331,-316 66.333,-319.5 66.3331,-312.5"/>
<text text-anchor="middle" x="90" y="-330" font-family="Helvetica,sans-Serif" font-size="10.00"> uIlosc</text>
<text text-anchor="middle" x="90" y="-319" font-family="Helvetica,sans-Serif" font-size="10.00">uMode</text>
</g>
<!-- Node6 -->
<g id="node6" class="node"><title>Node6</title>
<polygon fill="white" stroke="#bfbfbf" points="160.5,-38.5 160.5,-57.5 217.5,-57.5 217.5,-38.5 160.5,-38.5"/>
<text text-anchor="middle" x="189" y="-45.5" font-family="Helvetica,sans-Serif" font-size="10.00">DCHAR *</text>
</g>
<!-- Node6&#45;&gt;Node2 -->
<g id="edge5" class="edge"><title>Node6&#45;&gt;Node2</title>
<path fill="none" stroke="#9a32cd" stroke-dasharray="5,2" d="M227.545,-55.2341C253.098,-60.2538 287.655,-67.2301 318,-74 323.936,-75.3243 330.128,-76.7539 336.293,-78.2082"/>
<polygon fill="#9a32cd" stroke="#9a32cd" points="228.016,-51.7601 217.53,-53.2764 226.673,-58.63 228.016,-51.7601"/>
<text text-anchor="middle" x="295" y="-77" font-family="Helvetica,sans-Serif" font-size="10.00"> pcConvert</text>
</g>
<!-- Node7 -->
<g id="node7" class="node"><title>Node7</title>
<polygon fill="white" stroke="#bfbfbf" points="848.5,-143.5 848.5,-162.5 877.5,-162.5 877.5,-143.5 848.5,-143.5"/>
<text text-anchor="middle" x="863" y="-150.5" font-family="Helvetica,sans-Serif" font-size="10.00">int</text>
</g>
<!-- Node7&#45;&gt;Node1 -->
<g id="edge6" class="edge"><title>Node7&#45;&gt;Node1</title>
<path fill="none" stroke="#9a32cd" stroke-dasharray="5,2" d="M887.872,-153C911.914,-153 950.16,-153 983.793,-153"/>
<polygon fill="#9a32cd" stroke="#9a32cd" points="887.592,-149.5 877.592,-153 887.592,-156.5 887.592,-149.5"/>
<text text-anchor="middle" x="952" y="-167" font-family="Helvetica,sans-Serif" font-size="10.00"> Icon</text>
<text text-anchor="middle" x="952" y="-156" font-family="Helvetica,sans-Serif" font-size="10.00">Group</text>
</g>
<!-- Node8&#45;&gt;Node1 -->
<g id="edge7" class="edge"><title>Node8&#45;&gt;Node1</title>
<path fill="none" stroke="#9a32cd" stroke-dasharray="5,2" d="M908.228,-215.811C941.781,-201.254 987.263,-181.521 1018.23,-168.083"/>
<polygon fill="#9a32cd" stroke="#9a32cd" points="906.446,-212.769 898.666,-219.96 909.232,-219.191 906.446,-212.769"/>
<text text-anchor="middle" x="952" y="-205" font-family="Helvetica,sans-Serif" font-size="10.00"> Data</text>
</g>
<!-- Node9&#45;&gt;Node8 -->
<g id="edge8" class="edge"><title>Node9&#45;&gt;Node8</title>
<path fill="none" stroke="#9a32cd" stroke-dasharray="5,2" d="M749.916,-235C768.916,-235 788.743,-235 806.346,-235"/>
<polygon fill="#9a32cd" stroke="#9a32cd" points="749.77,-231.5 739.77,-235 749.77,-238.5 749.77,-231.5"/>
<text text-anchor="middle" x="773" y="-238" font-family="Helvetica,sans-Serif" font-size="10.00"> lData</text>
</g>
<!-- Node10&#45;&gt;Node9 -->
<g id="edge9" class="edge"><title>Node10&#45;&gt;Node9</title>
<path fill="none" stroke="midnightblue" d="M255.848,-315.748C334.015,-313.963 467.673,-306.203 578,-276 595.557,-271.194 613.986,-263.242 629.49,-255.615"/>
<polygon fill="midnightblue" stroke="midnightblue" points="255.589,-312.253 245.662,-315.954 255.731,-319.251 255.589,-312.253"/>
</g>
<!-- Node13 -->
<g id="node13" class="node"><title>Node13</title>
<g id="a_node13"><a xlink:href="class_kuszk_a_p_i_1_1_containers_1_1_list.html" target="_top" xlink:title="Implementacja szablonu listy dla modułu kontenerów. ">
<polygon fill="white" stroke="black" points="336.5,-241 336.5,-271 449.5,-271 449.5,-241 336.5,-241"/>
<text text-anchor="start" x="344.5" y="-259" font-family="Helvetica,sans-Serif" font-size="10.00">KuszkAPI::Containers</text>
<text text-anchor="middle" x="393" y="-248" font-family="Helvetica,sans-Serif" font-size="10.00">::List&lt; tnData &gt;</text>
</a>
</g>
</g>
<!-- Node10&#45;&gt;Node13 -->
<g id="edge16" class="edge"><title>Node10&#45;&gt;Node13</title>
<path fill="none" stroke="midnightblue" d="M250.318,-298.084C279.3,-289.475 313.649,-279.273 341.267,-271.069"/>
<polygon fill="midnightblue" stroke="midnightblue" points="249.302,-294.734 240.712,-300.937 251.295,-301.445 249.302,-294.734"/>
</g>
<!-- Node11 -->
<g id="node11" class="node"><title>Node11</title>
<g id="a_node11"><a xlink:href="class_kuszk_a_p_i_1_1_containers_1_1_list.html#struct_kuszk_a_p_i_1_1_containers_1_1_list_1_1_item_data" target="_top" xlink:title="Struktura przechowująca wskaźnik na element listy oraz wskaźnik na kolejny obiekt. ">
<polygon fill="white" stroke="black" points="124,-184 124,-214 254,-214 254,-184 124,-184"/>
<text text-anchor="start" x="132" y="-202" font-family="Helvetica,sans-Serif" font-size="10.00">KuszkAPI::Containers</text>
<text text-anchor="middle" x="189" y="-191" font-family="Helvetica,sans-Serif" font-size="10.00">::List&lt; tnData &gt;::ItemData</text>
</a>
</g>
</g>
<!-- Node11&#45;&gt;Node9 -->
<g id="edge12" class="edge"><title>Node11&#45;&gt;Node9</title>
<path fill="none" stroke="#9a32cd" stroke-dasharray="5,2" d="M264.341,-200.265C316.389,-201.54 387.518,-204.063 450,-209 498.984,-212.87 553.939,-219.478 596.289,-225.063"/>
<polygon fill="#9a32cd" stroke="#9a32cd" points="264.273,-196.762 254.194,-200.026 264.109,-203.761 264.273,-196.762"/>
<text text-anchor="middle" x="393" y="-223" font-family="Helvetica,sans-Serif" font-size="10.00"> ptLast</text>
<text text-anchor="middle" x="393" y="-212" font-family="Helvetica,sans-Serif" font-size="10.00">ptBegin</text>
</g>
<!-- Node11&#45;&gt;Node11 -->
<g id="edge13" class="edge"><title>Node11&#45;&gt;Node11</title>
<path fill="none" stroke="#9a32cd" stroke-dasharray="5,2" d="M171.846,-224.598C174.19,-228.97 179.908,-232 189,-232 204.313,-232 210.055,-223.406 206.227,-214.275"/>
<polygon fill="#9a32cd" stroke="#9a32cd" points="175.344,-224.25 171.773,-214.275 168.344,-224.3 175.344,-224.25"/>
<text text-anchor="middle" x="189" y="-235" font-family="Helvetica,sans-Serif" font-size="10.00"> ptNext</text>
</g>
<!-- Node11&#45;&gt;Node13 -->
<g id="edge18" class="edge"><title>Node11&#45;&gt;Node13</title>
<path fill="none" stroke="#9a32cd" stroke-dasharray="5,2" d="M253.236,-216.844C280.688,-224.59 312.488,-233.563 338.714,-240.964"/>
<polygon fill="#9a32cd" stroke="#9a32cd" points="253.912,-213.398 243.337,-214.051 252.011,-220.135 253.912,-213.398"/>
<text text-anchor="middle" x="295" y="-249" font-family="Helvetica,sans-Serif" font-size="10.00"> ptLast</text>
<text text-anchor="middle" x="295" y="-238" font-family="Helvetica,sans-Serif" font-size="10.00">ptBegin</text>
</g>
<!-- Node12 -->
<g id="node12" class="node"><title>Node12</title>
<polygon fill="white" stroke="#bfbfbf" points="2,-96.5 2,-115.5 54,-115.5 54,-96.5 2,-96.5"/>
<text text-anchor="middle" x="28" y="-103.5" font-family="Helvetica,sans-Serif" font-size="10.00">tnData *</text>
</g>
<!-- Node12&#45;&gt;Node11 -->
<g id="edge14" class="edge"><title>Node12&#45;&gt;Node11</title>
<path fill="none" stroke="#9a32cd" stroke-dasharray="5,2" d="M50.3364,-121.465C69.225,-134.833 97.7865,-154.27 124,-169 133.307,-174.23 143.68,-179.37 153.319,-183.877"/>
<polygon fill="#9a32cd" stroke="#9a32cd" points="52.3104,-118.574 42.1377,-115.613 48.2437,-124.271 52.3104,-118.574"/>
<text text-anchor="middle" x="90" y="-161" font-family="Helvetica,sans-Serif" font-size="10.00"> ptData</text>
</g>
<!-- Node13&#45;&gt;Node9 -->
<g id="edge15" class="edge"><title>Node13&#45;&gt;Node9</title>
<path fill="none" stroke="orange" stroke-dasharray="5,2" d="M459.798,-250.939C501.074,-247.764 554.265,-243.672 596.418,-240.429"/>
<polygon fill="orange" stroke="orange" points="459.277,-247.468 449.575,-251.725 459.814,-254.448 459.277,-247.468"/>
<text text-anchor="start" x="468.5" y="-264" font-family="Helvetica,sans-Serif" font-size="10.00"> &lt; KuszkAPI::Containers</text>
<text text-anchor="middle" x="523" y="-253" font-family="Helvetica,sans-Serif" font-size="10.00">::String &gt;</text>
</g>
<!-- Node14 -->
<g id="node14" class="node"><title>Node14</title>
<polygon fill="white" stroke="#bfbfbf" points="166.5,-262.5 166.5,-281.5 211.5,-281.5 211.5,-262.5 166.5,-262.5"/>
<text text-anchor="middle" x="189" y="-269.5" font-family="Helvetica,sans-Serif" font-size="10.00">tnData</text>
</g>
<!-- Node14&#45;&gt;Node13 -->
<g id="edge17" class="edge"><title>Node14&#45;&gt;Node13</title>
<path fill="none" stroke="#9a32cd" stroke-dasharray="5,2" d="M221.728,-269.487C252.372,-267.06 299.432,-263.332 336.318,-260.41"/>
<polygon fill="#9a32cd" stroke="#9a32cd" points="221.31,-266.009 211.618,-270.288 221.863,-272.987 221.31,-266.009"/>
<text text-anchor="middle" x="295" y="-269" font-family="Helvetica,sans-Serif" font-size="10.00"> tAbstract</text>
</g>
</g>
</svg>
