<?xml version="1.0" encoding="UTF-8" standalone="no"?>
<!DOCTYPE svg PUBLIC "-//W3C//DTD SVG 1.1//EN"
 "http://www.w3.org/Graphics/SVG/1.1/DTD/svg11.dtd">
<!-- Generated by graphviz version 2.36.0 (20140111.2315)
 -->
<!-- Title: KuszkAPI::Forms::CommonDialog::FilePath Pages: 1 -->
<svg width="288pt" height="232pt"
 viewBox="0.00 0.00 288.00 232.00" xmlns="http://www.w3.org/2000/svg" xmlns:xlink="http://www.w3.org/1999/xlink">
<g id="graph0" class="graph" transform="scale(1 1) rotate(0) translate(4 228)">
<title>KuszkAPI::Forms::CommonDialog::FilePath</title>
<polygon fill="white" stroke="none" points="-4,4 -4,-228 284,-228 284,4 -4,4"/>
<!-- Node1 -->
<g id="node1" class="node"><title>Node1</title>
<polygon fill="#bfbfbf" stroke="black" points="49,-1 49,-31 215,-31 215,-1 49,-1"/>
<text text-anchor="start" x="57" y="-19" font-family="Helvetica,sans-Serif" font-size="10.00">KuszkAPI::Forms::CommonDialog</text>
<text text-anchor="middle" x="132" y="-8" font-family="Helvetica,sans-Serif" font-size="10.00">::FilePath</text>
</g>
<!-- Node2 -->
<g id="node2" class="node"><title>Node2</title>
<g id="a_node2"><a xlink:href="class_kuszk_a_p_i_1_1_containers_1_1_string.html" target="_top" xlink:title="KuszkAPI::Containers\l::String">
<polygon fill="white" stroke="black" points="75.5,-103 75.5,-133 188.5,-133 188.5,-103 75.5,-103"/>
<text text-anchor="start" x="83.5" y="-121" font-family="Helvetica,sans-Serif" font-size="10.00">KuszkAPI::Containers</text>
<text text-anchor="middle" x="132" y="-110" font-family="Helvetica,sans-Serif" font-size="10.00">::String</text>
</a>
</g>
</g>
<!-- Node2&#45;&gt;Node1 -->
<g id="edge1" class="edge"><title>Node2&#45;&gt;Node1</title>
<path fill="none" stroke="#9a32cd" stroke-dasharray="5,2" d="M132,-92.5521C132,-73.3438 132,-47.2552 132,-31.301"/>
<polygon fill="#9a32cd" stroke="#9a32cd" points="128.5,-92.6724 132,-102.672 135.5,-92.6725 128.5,-92.6724"/>
<text text-anchor="middle" x="145" y="-75.5" font-family="Helvetica,sans-Serif" font-size="10.00"> Path</text>
<text text-anchor="middle" x="145" y="-64.5" font-family="Helvetica,sans-Serif" font-size="10.00">Name</text>
<text text-anchor="middle" x="145" y="-53.5" font-family="Helvetica,sans-Serif" font-size="10.00">Full</text>
</g>
<!-- Node3 -->
<g id="node3" class="node"><title>Node3</title>
<polygon fill="white" stroke="#bfbfbf" points="-0.5,-204.5 -0.5,-223.5 48.5,-223.5 48.5,-204.5 -0.5,-204.5"/>
<text text-anchor="middle" x="24" y="-211.5" font-family="Helvetica,sans-Serif" font-size="10.00">TCHAR</text>
</g>
<!-- Node3&#45;&gt;Node2 -->
<g id="edge2" class="edge"><title>Node3&#45;&gt;Node2</title>
<path fill="none" stroke="#9a32cd" stroke-dasharray="5,2" d="M27.915,-194.343C31.5837,-181.005 38.3086,-163.456 50,-152 58.2205,-143.945 68.6624,-137.777 79.3185,-133.082"/>
<polygon fill="#9a32cd" stroke="#9a32cd" points="24.4482,-193.79 25.5102,-204.332 31.2538,-195.429 24.4482,-193.79"/>
<text text-anchor="middle" x="73" y="-166.5" font-family="Helvetica,sans-Serif" font-size="10.00"> cAbstract</text>
</g>
<!-- Node4 -->
<g id="node4" class="node"><title>Node4</title>
<polygon fill="white" stroke="#bfbfbf" points="67,-204.5 67,-223.5 123,-223.5 123,-204.5 67,-204.5"/>
<text text-anchor="middle" x="95" y="-211.5" font-family="Helvetica,sans-Serif" font-size="10.00">TCHAR *</text>
</g>
<!-- Node4&#45;&gt;Node2 -->
<g id="edge3" class="edge"><title>Node4&#45;&gt;Node2</title>
<path fill="none" stroke="#9a32cd" stroke-dasharray="5,2" d="M97.8455,-194.381C100.15,-182.011 104.014,-165.604 110,-152 112.884,-145.446 117.056,-138.77 120.993,-133.154"/>
<polygon fill="#9a32cd" stroke="#9a32cd" points="94.3659,-193.967 96.1514,-204.411 101.268,-195.133 94.3659,-193.967"/>
<text text-anchor="middle" x="128.5" y="-172" font-family="Helvetica,sans-Serif" font-size="10.00"> pcBufor</text>
<text text-anchor="middle" x="128.5" y="-161" font-family="Helvetica,sans-Serif" font-size="10.00">pcData</text>
</g>
<!-- Node5 -->
<g id="node5" class="node"><title>Node5</title>
<g id="a_node5"><a xlink:href="namespace_3global_scope_4.html#classunsigned" target="_top" xlink:title="unsigned">
<polygon fill="white" stroke="black" points="141,-204.5 141,-223.5 197,-223.5 197,-204.5 141,-204.5"/>
<text text-anchor="middle" x="169" y="-211.5" font-family="Helvetica,sans-Serif" font-size="10.00">unsigned</text>
</a>
</g>
</g>
<!-- Node5&#45;&gt;Node2 -->
<g id="edge4" class="edge"><title>Node5&#45;&gt;Node2</title>
<path fill="none" stroke="#9a32cd" stroke-dasharray="5,2" d="M162.845,-194.738C158.629,-182.542 152.775,-166.195 147,-152 144.439,-145.704 141.369,-138.847 138.675,-133.023"/>
<polygon fill="#9a32cd" stroke="#9a32cd" points="159.542,-195.896 166.085,-204.229 166.166,-193.634 159.542,-195.896"/>
<text text-anchor="middle" x="183" y="-177.5" font-family="Helvetica,sans-Serif" font-size="10.00"> uFormat</text>
<text text-anchor="middle" x="183" y="-166.5" font-family="Helvetica,sans-Serif" font-size="10.00">uDataSize</text>
<text text-anchor="middle" x="183" y="-155.5" font-family="Helvetica,sans-Serif" font-size="10.00">uIlosc</text>
</g>
<!-- Node6 -->
<g id="node6" class="node"><title>Node6</title>
<polygon fill="white" stroke="#bfbfbf" points="215.5,-204.5 215.5,-223.5 272.5,-223.5 272.5,-204.5 215.5,-204.5"/>
<text text-anchor="middle" x="244" y="-211.5" font-family="Helvetica,sans-Serif" font-size="10.00">DCHAR *</text>
</g>
<!-- Node6&#45;&gt;Node2 -->
<g id="edge5" class="edge"><title>Node6&#45;&gt;Node2</title>
<path fill="none" stroke="#9a32cd" stroke-dasharray="5,2" d="M237.588,-194.775C232.079,-181.406 222.96,-163.628 210,-152 201.135,-144.046 190.071,-137.822 179.087,-133.029"/>
<polygon fill="#9a32cd" stroke="#9a32cd" points="234.405,-196.252 241.237,-204.35 240.946,-193.759 234.405,-196.252"/>
<text text-anchor="middle" x="257" y="-166.5" font-family="Helvetica,sans-Serif" font-size="10.00"> pcConvert</text>
</g>
</g>
</svg>
