<?xml version="1.0" encoding="UTF-8" standalone="no"?>
<!DOCTYPE svg PUBLIC "-//W3C//DTD SVG 1.1//EN"
 "http://www.w3.org/Graphics/SVG/1.1/DTD/svg11.dtd">
<!-- Generated by graphviz version 2.36.0 (20140111.2315)
 -->
<!-- Title: KuszkAPI::Core::Threads&lt; tnKey &gt;::ItemData Pages: 1 -->
<svg width="233pt" height="108pt"
 viewBox="0.00 0.00 233.00 108.00" xmlns="http://www.w3.org/2000/svg" xmlns:xlink="http://www.w3.org/1999/xlink">
<g id="graph0" class="graph" transform="scale(1 1) rotate(0) translate(4 104)">
<title>KuszkAPI::Core::Threads&lt; tnKey &gt;::ItemData</title>
<polygon fill="white" stroke="none" points="-4,4 -4,-104 229,-104 229,4 -4,4"/>
<!-- Node1 -->
<g id="node1" class="node"><title>Node1</title>
<polygon fill="#bfbfbf" stroke="black" points="72.5,-1 72.5,-31 199.5,-31 199.5,-1 72.5,-1"/>
<text text-anchor="start" x="80.5" y="-19" font-family="Helvetica,sans-Serif" font-size="10.00">KuszkAPI::Core::Threads</text>
<text text-anchor="middle" x="136" y="-8" font-family="Helvetica,sans-Serif" font-size="10.00">&lt; tnKey &gt;::ItemData</text>
</g>
<!-- Node2 -->
<g id="node2" class="node"><title>Node2</title>
<polygon fill="white" stroke="#bfbfbf" points="-0.5,-80.5 -0.5,-99.5 150.5,-99.5 150.5,-80.5 -0.5,-80.5"/>
<text text-anchor="middle" x="75" y="-87.5" font-family="Helvetica,sans-Serif" font-size="10.00">LPTHREAD_START_ROUTINE</text>
</g>
<!-- Node2&#45;&gt;Node1 -->
<g id="edge1" class="edge"><title>Node2&#45;&gt;Node1</title>
<path fill="none" stroke="#9a32cd" stroke-dasharray="5,2" d="M88.8407,-72.6634C99.4137,-60.1839 113.84,-43.1565 123.943,-31.2316"/>
<polygon fill="#9a32cd" stroke="#9a32cd" points="86.0308,-70.5656 82.237,-80.4579 91.3717,-75.0905 86.0308,-70.5656"/>
<text text-anchor="middle" x="121" y="-53.5" font-family="Helvetica,sans-Serif" font-size="10.00"> fProc</text>
</g>
<!-- Node3 -->
<g id="node3" class="node"><title>Node3</title>
<polygon fill="white" stroke="#bfbfbf" points="169,-80.5 169,-99.5 225,-99.5 225,-80.5 169,-80.5"/>
<text text-anchor="middle" x="197" y="-87.5" font-family="Helvetica,sans-Serif" font-size="10.00">HANDLE</text>
</g>
<!-- Node3&#45;&gt;Node1 -->
<g id="edge2" class="edge"><title>Node3&#45;&gt;Node1</title>
<path fill="none" stroke="#9a32cd" stroke-dasharray="5,2" d="M183.159,-72.6634C172.586,-60.1839 158.16,-43.1565 148.057,-31.2316"/>
<polygon fill="#9a32cd" stroke="#9a32cd" points="180.628,-75.0905 189.763,-80.4579 185.969,-70.5656 180.628,-75.0905"/>
<text text-anchor="middle" x="193" y="-53.5" font-family="Helvetica,sans-Serif" font-size="10.00"> hThread</text>
</g>
</g>
</svg>
