<?xml version="1.0" encoding="UTF-8" standalone="no"?>
<!DOCTYPE svg PUBLIC "-//W3C//DTD SVG 1.1//EN"
 "http://www.w3.org/Graphics/SVG/1.1/DTD/svg11.dtd">
<!-- Generated by graphviz version 2.36.0 (20140111.2315)
 -->
<!-- Title: KuszkAPI::DateTime::Time::TTime Pages: 1 -->
<svg width="114pt" height="130pt"
 viewBox="0.00 0.00 114.00 130.00" xmlns="http://www.w3.org/2000/svg" xmlns:xlink="http://www.w3.org/1999/xlink">
<g id="graph0" class="graph" transform="scale(1 1) rotate(0) translate(4 126)">
<title>KuszkAPI::DateTime::Time::TTime</title>
<polygon fill="white" stroke="none" points="-4,4 -4,-126 110,-126 110,4 -4,4"/>
<!-- Node1 -->
<g id="node1" class="node"><title>Node1</title>
<polygon fill="#bfbfbf" stroke="black" points="-0.5,-1 -0.5,-31 106.5,-31 106.5,-1 -0.5,-1"/>
<text text-anchor="start" x="7.5" y="-19" font-family="Helvetica,sans-Serif" font-size="10.00">KuszkAPI::DateTime</text>
<text text-anchor="middle" x="53" y="-8" font-family="Helvetica,sans-Serif" font-size="10.00">::Time::TTime</text>
</g>
<!-- Node2 -->
<g id="node2" class="node"><title>Node2</title>
<g id="a_node2"><a xlink:href="namespace_3global_scope_4.html#classunsigned" target="_top" xlink:title="unsigned">
<polygon fill="white" stroke="black" points="25,-102.5 25,-121.5 81,-121.5 81,-102.5 25,-102.5"/>
<text text-anchor="middle" x="53" y="-109.5" font-family="Helvetica,sans-Serif" font-size="10.00">unsigned</text>
</a>
</g>
</g>
<!-- Node2&#45;&gt;Node1 -->
<g id="edge1" class="edge"><title>Node2&#45;&gt;Node1</title>
<path fill="none" stroke="#9a32cd" stroke-dasharray="5,2" d="M53,-92.1742C53,-74.1467 53,-47.3541 53,-31.0982"/>
<polygon fill="#9a32cd" stroke="#9a32cd" points="49.5001,-92.3252 53,-102.325 56.5001,-92.3252 49.5001,-92.3252"/>
<text text-anchor="middle" x="65" y="-75.5" font-family="Helvetica,sans-Serif" font-size="10.00"> Hour</text>
<text text-anchor="middle" x="65" y="-64.5" font-family="Helvetica,sans-Serif" font-size="10.00">Sec</text>
<text text-anchor="middle" x="65" y="-53.5" font-family="Helvetica,sans-Serif" font-size="10.00">Min</text>
</g>
</g>
</svg>
