<?xml version="1.0" encoding="UTF-8" standalone="no"?>
<!DOCTYPE svg PUBLIC "-//W3C//DTD SVG 1.1//EN"
 "http://www.w3.org/Graphics/SVG/1.1/DTD/svg11.dtd">
<!-- Generated by graphviz version 2.36.0 (20140111.2315)
 -->
<!-- Title: KuszkAPI::Forms::RadioBox::ItemData Pages: 1 -->
<svg width="150pt" height="118pt"
 viewBox="0.00 0.00 150.00 118.00" xmlns="http://www.w3.org/2000/svg" xmlns:xlink="http://www.w3.org/1999/xlink">
<g id="graph0" class="graph" transform="scale(1 1) rotate(0) translate(4 114)">
<title>KuszkAPI::Forms::RadioBox::ItemData</title>
<polygon fill="white" stroke="none" points="-4,4 -4,-114 146,-114 146,4 -4,4"/>
<!-- Node1 -->
<g id="node1" class="node"><title>Node1</title>
<polygon fill="#bfbfbf" stroke="black" points="0,-1 0,-31 142,-31 142,-1 0,-1"/>
<text text-anchor="start" x="8" y="-19" font-family="Helvetica,sans-Serif" font-size="10.00">KuszkAPI::Forms::RadioBox</text>
<text text-anchor="middle" x="71" y="-8" font-family="Helvetica,sans-Serif" font-size="10.00">::ItemData</text>
</g>
<!-- Node2 -->
<g id="node2" class="node"><title>Node2</title>
<polygon fill="white" stroke="#bfbfbf" points="12.5,-90.5 12.5,-109.5 59.5,-109.5 59.5,-90.5 12.5,-90.5"/>
<text text-anchor="middle" x="36" y="-97.5" font-family="Helvetica,sans-Serif" font-size="10.00">HWND</text>
</g>
<!-- Node2&#45;&gt;Node1 -->
<g id="edge1" class="edge"><title>Node2&#45;&gt;Node1</title>
<path fill="none" stroke="#9a32cd" stroke-dasharray="5,2" d="M36.2558,-80.0359C36.9837,-70.6521 38.7891,-59.36 43,-50 46.0826,-43.1479 51.0294,-36.6136 55.9136,-31.1944"/>
<polygon fill="#9a32cd" stroke="#9a32cd" points="32.7483,-80.1358 35.8131,-90.2777 39.7418,-80.4382 32.7483,-80.1358"/>
<text text-anchor="middle" x="63.5" y="-64" font-family="Helvetica,sans-Serif" font-size="10.00"> hUchwyt</text>
<text text-anchor="middle" x="63.5" y="-53" font-family="Helvetica,sans-Serif" font-size="10.00">hOwner</text>
</g>
<!-- Node3 -->
<g id="node3" class="node"><title>Node3</title>
<g id="a_node3"><a xlink:href="namespace_3global_scope_4.html#classunsigned" target="_top" xlink:title="unsigned">
<polygon fill="white" stroke="black" points="78,-90.5 78,-109.5 134,-109.5 134,-90.5 78,-90.5"/>
<text text-anchor="middle" x="106" y="-97.5" font-family="Helvetica,sans-Serif" font-size="10.00">unsigned</text>
</a>
</g>
</g>
<!-- Node3&#45;&gt;Node1 -->
<g id="edge2" class="edge"><title>Node3&#45;&gt;Node1</title>
<path fill="none" stroke="#9a32cd" stroke-dasharray="5,2" d="M98.3105,-80.9845C91.9178,-66.0073 82.9448,-44.985 77.0541,-31.1839"/>
<polygon fill="#9a32cd" stroke="#9a32cd" points="95.1096,-82.4013 102.254,-90.2246 101.548,-79.6533 95.1096,-82.4013"/>
<text text-anchor="middle" x="115.5" y="-58.5" font-family="Helvetica,sans-Serif" font-size="10.00"> uGroupId</text>
</g>
</g>
</svg>
