<?xml version="1.0" encoding="UTF-8" standalone="no"?>
<!DOCTYPE svg PUBLIC "-//W3C//DTD SVG 1.1//EN"
 "http://www.w3.org/Graphics/SVG/1.1/DTD/svg11.dtd">
<!-- Generated by graphviz version 2.36.0 (20140111.2315)
 -->
<!-- Title: KuszkAPI::Forms::Font&lt; tnKey &gt;::ItemData Pages: 1 -->
<svg width="226pt" height="108pt"
 viewBox="0.00 0.00 226.00 108.00" xmlns="http://www.w3.org/2000/svg" xmlns:xlink="http://www.w3.org/1999/xlink">
<g id="graph0" class="graph" transform="scale(1 1) rotate(0) translate(4 104)">
<title>KuszkAPI::Forms::Font&lt; tnKey &gt;::ItemData</title>
<polygon fill="white" stroke="none" points="-4,4 -4,-104 222,-104 222,4 -4,4"/>
<!-- Node1 -->
<g id="node1" class="node"><title>Node1</title>
<polygon fill="#bfbfbf" stroke="black" points="45.5,-1 45.5,-31 164.5,-31 164.5,-1 45.5,-1"/>
<text text-anchor="start" x="53.5" y="-19" font-family="Helvetica,sans-Serif" font-size="10.00">KuszkAPI::Forms::Font</text>
<text text-anchor="middle" x="105" y="-8" font-family="Helvetica,sans-Serif" font-size="10.00">&lt; tnKey &gt;::ItemData</text>
</g>
<!-- Node2 -->
<g id="node2" class="node"><title>Node2</title>
<polygon fill="white" stroke="#bfbfbf" points="0,-80.5 0,-99.5 62,-99.5 62,-80.5 0,-80.5"/>
<text text-anchor="middle" x="31" y="-87.5" font-family="Helvetica,sans-Serif" font-size="10.00">LOGFONT</text>
</g>
<!-- Node2&#45;&gt;Node1 -->
<g id="edge1" class="edge"><title>Node2&#45;&gt;Node1</title>
<path fill="none" stroke="#9a32cd" stroke-dasharray="5,2" d="M47.0557,-73.3783C59.9416,-60.8406 77.8813,-43.3858 90.3731,-31.2316"/>
<polygon fill="#9a32cd" stroke="#9a32cd" points="44.5059,-70.9758 39.7794,-80.4579 49.3874,-75.9929 44.5059,-70.9758"/>
<text text-anchor="middle" x="83.5" y="-53.5" font-family="Helvetica,sans-Serif" font-size="10.00"> lFont</text>
</g>
<!-- Node3 -->
<g id="node3" class="node"><title>Node3</title>
<polygon fill="white" stroke="#bfbfbf" points="80.5,-80.5 80.5,-99.5 129.5,-99.5 129.5,-80.5 80.5,-80.5"/>
<text text-anchor="middle" x="105" y="-87.5" font-family="Helvetica,sans-Serif" font-size="10.00">HFONT</text>
</g>
<!-- Node3&#45;&gt;Node1 -->
<g id="edge2" class="edge"><title>Node3&#45;&gt;Node1</title>
<path fill="none" stroke="#9a32cd" stroke-dasharray="5,2" d="M105,-70.0846C105,-57.9148 105,-42.3538 105,-31.2316"/>
<polygon fill="#9a32cd" stroke="#9a32cd" points="101.5,-70.4579 105,-80.4579 108.5,-70.4579 101.5,-70.4579"/>
<text text-anchor="middle" x="119" y="-53.5" font-family="Helvetica,sans-Serif" font-size="10.00"> hFont</text>
</g>
<!-- Node4 -->
<g id="node4" class="node"><title>Node4</title>
<polygon fill="white" stroke="#bfbfbf" points="148,-80.5 148,-99.5 218,-99.5 218,-80.5 148,-80.5"/>
<text text-anchor="middle" x="183" y="-87.5" font-family="Helvetica,sans-Serif" font-size="10.00">COLORREF</text>
</g>
<!-- Node4&#45;&gt;Node1 -->
<g id="edge3" class="edge"><title>Node4&#45;&gt;Node1</title>
<path fill="none" stroke="#9a32cd" stroke-dasharray="5,2" d="M166.076,-73.3783C152.494,-60.8406 133.585,-43.3858 120.418,-31.2316"/>
<polygon fill="#9a32cd" stroke="#9a32cd" points="164.024,-76.2469 173.746,-80.4579 168.772,-71.1033 164.024,-76.2469"/>
<text text-anchor="middle" x="169.5" y="-53.5" font-family="Helvetica,sans-Serif" font-size="10.00"> cColor</text>
</g>
</g>
</svg>
