<?xml version="1.0" encoding="UTF-8" standalone="no"?>
<!DOCTYPE svg PUBLIC "-//W3C//DTD SVG 1.1//EN"
 "http://www.w3.org/Graphics/SVG/1.1/DTD/svg11.dtd">
<!-- Generated by graphviz version 2.36.0 (20140111.2315)
 -->
<!-- Title: KuszkAPI::Forms::ComboBox::ItemData Pages: 1 -->
<svg width="288pt" height="210pt"
 viewBox="0.00 0.00 288.00 210.00" xmlns="http://www.w3.org/2000/svg" xmlns:xlink="http://www.w3.org/1999/xlink">
<g id="graph0" class="graph" transform="scale(1 1) rotate(0) translate(4 206)">
<title>KuszkAPI::Forms::ComboBox::ItemData</title>
<polygon fill="white" stroke="none" points="-4,4 -4,-206 284,-206 284,4 -4,4"/>
<!-- Node1 -->
<g id="node1" class="node"><title>Node1</title>
<polygon fill="#bfbfbf" stroke="black" points="120,-1 120,-31 268,-31 268,-1 120,-1"/>
<text text-anchor="start" x="128" y="-19" font-family="Helvetica,sans-Serif" font-size="10.00">KuszkAPI::Forms::ComboBox</text>
<text text-anchor="middle" x="194" y="-8" font-family="Helvetica,sans-Serif" font-size="10.00">::ItemData</text>
</g>
<!-- Node2 -->
<g id="node2" class="node"><title>Node2</title>
<g id="a_node2"><a xlink:href="class_kuszk_a_p_i_1_1_containers_1_1_string.html" target="_top" xlink:title="KuszkAPI::Containers\l::String">
<polygon fill="white" stroke="black" points="75.5,-81 75.5,-111 188.5,-111 188.5,-81 75.5,-81"/>
<text text-anchor="start" x="83.5" y="-99" font-family="Helvetica,sans-Serif" font-size="10.00">KuszkAPI::Containers</text>
<text text-anchor="middle" x="132" y="-88" font-family="Helvetica,sans-Serif" font-size="10.00">::String</text>
</a>
</g>
</g>
<!-- Node2&#45;&gt;Node1 -->
<g id="edge1" class="edge"><title>Node2&#45;&gt;Node1</title>
<path fill="none" stroke="#9a32cd" stroke-dasharray="5,2" d="M149.594,-72.8651C160.224,-59.493 173.457,-42.8445 182.7,-31.2157"/>
<polygon fill="#9a32cd" stroke="#9a32cd" points="146.854,-70.6875 143.372,-80.6936 152.334,-75.0432 146.854,-70.6875"/>
<text text-anchor="middle" x="181.5" y="-53.5" font-family="Helvetica,sans-Serif" font-size="10.00"> Name</text>
</g>
<!-- Node3 -->
<g id="node3" class="node"><title>Node3</title>
<polygon fill="white" stroke="#bfbfbf" points="-0.5,-182.5 -0.5,-201.5 48.5,-201.5 48.5,-182.5 -0.5,-182.5"/>
<text text-anchor="middle" x="24" y="-189.5" font-family="Helvetica,sans-Serif" font-size="10.00">TCHAR</text>
</g>
<!-- Node3&#45;&gt;Node2 -->
<g id="edge2" class="edge"><title>Node3&#45;&gt;Node2</title>
<path fill="none" stroke="#9a32cd" stroke-dasharray="5,2" d="M27.915,-172.343C31.5837,-159.005 38.3086,-141.456 50,-130 58.2205,-121.945 68.6624,-115.777 79.3185,-111.082"/>
<polygon fill="#9a32cd" stroke="#9a32cd" points="24.4482,-171.79 25.5102,-182.332 31.2538,-173.429 24.4482,-171.79"/>
<text text-anchor="middle" x="73" y="-144.5" font-family="Helvetica,sans-Serif" font-size="10.00"> cAbstract</text>
</g>
<!-- Node4 -->
<g id="node4" class="node"><title>Node4</title>
<polygon fill="white" stroke="#bfbfbf" points="67,-182.5 67,-201.5 123,-201.5 123,-182.5 67,-182.5"/>
<text text-anchor="middle" x="95" y="-189.5" font-family="Helvetica,sans-Serif" font-size="10.00">TCHAR *</text>
</g>
<!-- Node4&#45;&gt;Node2 -->
<g id="edge3" class="edge"><title>Node4&#45;&gt;Node2</title>
<path fill="none" stroke="#9a32cd" stroke-dasharray="5,2" d="M97.8455,-172.381C100.15,-160.011 104.014,-143.604 110,-130 112.884,-123.446 117.056,-116.77 120.993,-111.154"/>
<polygon fill="#9a32cd" stroke="#9a32cd" points="94.3659,-171.967 96.1514,-182.411 101.268,-173.133 94.3659,-171.967"/>
<text text-anchor="middle" x="128.5" y="-150" font-family="Helvetica,sans-Serif" font-size="10.00"> pcBufor</text>
<text text-anchor="middle" x="128.5" y="-139" font-family="Helvetica,sans-Serif" font-size="10.00">pcData</text>
</g>
<!-- Node5 -->
<g id="node5" class="node"><title>Node5</title>
<g id="a_node5"><a xlink:href="namespace_3global_scope_4.html#classunsigned" target="_top" xlink:title="unsigned">
<polygon fill="white" stroke="black" points="141,-182.5 141,-201.5 197,-201.5 197,-182.5 141,-182.5"/>
<text text-anchor="middle" x="169" y="-189.5" font-family="Helvetica,sans-Serif" font-size="10.00">unsigned</text>
</a>
</g>
</g>
<!-- Node5&#45;&gt;Node2 -->
<g id="edge4" class="edge"><title>Node5&#45;&gt;Node2</title>
<path fill="none" stroke="#9a32cd" stroke-dasharray="5,2" d="M162.845,-172.738C158.629,-160.542 152.775,-144.195 147,-130 144.439,-123.704 141.369,-116.847 138.675,-111.023"/>
<polygon fill="#9a32cd" stroke="#9a32cd" points="159.542,-173.896 166.085,-182.229 166.166,-171.634 159.542,-173.896"/>
<text text-anchor="middle" x="183" y="-155.5" font-family="Helvetica,sans-Serif" font-size="10.00"> uFormat</text>
<text text-anchor="middle" x="183" y="-144.5" font-family="Helvetica,sans-Serif" font-size="10.00">uDataSize</text>
<text text-anchor="middle" x="183" y="-133.5" font-family="Helvetica,sans-Serif" font-size="10.00">uIlosc</text>
</g>
<!-- Node6 -->
<g id="node6" class="node"><title>Node6</title>
<polygon fill="white" stroke="#bfbfbf" points="215.5,-182.5 215.5,-201.5 272.5,-201.5 272.5,-182.5 215.5,-182.5"/>
<text text-anchor="middle" x="244" y="-189.5" font-family="Helvetica,sans-Serif" font-size="10.00">DCHAR *</text>
</g>
<!-- Node6&#45;&gt;Node2 -->
<g id="edge5" class="edge"><title>Node6&#45;&gt;Node2</title>
<path fill="none" stroke="#9a32cd" stroke-dasharray="5,2" d="M237.588,-172.775C232.079,-159.406 222.96,-141.628 210,-130 201.135,-122.046 190.071,-115.822 179.087,-111.029"/>
<polygon fill="#9a32cd" stroke="#9a32cd" points="234.405,-174.252 241.237,-182.35 240.946,-171.759 234.405,-174.252"/>
<text text-anchor="middle" x="257" y="-144.5" font-family="Helvetica,sans-Serif" font-size="10.00"> pcConvert</text>
</g>
<!-- Node7 -->
<g id="node7" class="node"><title>Node7</title>
<polygon fill="white" stroke="#bfbfbf" points="206.5,-86.5 206.5,-105.5 235.5,-105.5 235.5,-86.5 206.5,-86.5"/>
<text text-anchor="middle" x="221" y="-93.5" font-family="Helvetica,sans-Serif" font-size="10.00">int</text>
</g>
<!-- Node7&#45;&gt;Node1 -->
<g id="edge6" class="edge"><title>Node7&#45;&gt;Node1</title>
<path fill="none" stroke="#9a32cd" stroke-dasharray="5,2" d="M214.73,-76.8856C209.917,-62.9816 203.365,-44.054 198.925,-31.227"/>
<polygon fill="#9a32cd" stroke="#9a32cd" points="211.429,-78.0497 218.007,-86.3546 218.044,-75.7598 211.429,-78.0497"/>
<text text-anchor="middle" x="221" y="-53.5" font-family="Helvetica,sans-Serif" font-size="10.00"> Icon</text>
</g>
</g>
</svg>
