<?xml version="1.0" encoding="UTF-8" standalone="no"?>
<!DOCTYPE svg PUBLIC "-//W3C//DTD SVG 1.1//EN"
 "http://www.w3.org/Graphics/SVG/1.1/DTD/svg11.dtd">
<!-- Generated by graphviz version 2.36.0 (20140111.2315)
 -->
<!-- Title: KuszkAPI::DateTime::Date::DateDsc Pages: 1 -->
<svg width="322pt" height="222pt"
 viewBox="0.00 0.00 322.00 222.00" xmlns="http://www.w3.org/2000/svg" xmlns:xlink="http://www.w3.org/1999/xlink">
<g id="graph0" class="graph" transform="scale(1 1) rotate(0) translate(4 218)">
<title>KuszkAPI::DateTime::Date::DateDsc</title>
<polygon fill="white" stroke="none" points="-4,4 -4,-218 318,-218 318,4 -4,4"/>
<!-- Node1 -->
<g id="node1" class="node"><title>Node1</title>
<polygon fill="#bfbfbf" stroke="black" points="195.5,-1 195.5,-31 302.5,-31 302.5,-1 195.5,-1"/>
<text text-anchor="start" x="203.5" y="-19" font-family="Helvetica,sans-Serif" font-size="10.00">KuszkAPI::DateTime</text>
<text text-anchor="middle" x="249" y="-8" font-family="Helvetica,sans-Serif" font-size="10.00">::Date::DateDsc</text>
</g>
<!-- Node2 -->
<g id="node2" class="node"><title>Node2</title>
<g id="a_node2"><a xlink:href="class_kuszk_a_p_i_1_1_containers_1_1_string.html" target="_top" xlink:title="KuszkAPI::Containers\l::String">
<polygon fill="white" stroke="black" points="112.5,-92 112.5,-122 225.5,-122 225.5,-92 112.5,-92"/>
<text text-anchor="start" x="120.5" y="-110" font-family="Helvetica,sans-Serif" font-size="10.00">KuszkAPI::Containers</text>
<text text-anchor="middle" x="169" y="-99" font-family="Helvetica,sans-Serif" font-size="10.00">::String</text>
</a>
</g>
</g>
<!-- Node2&#45;&gt;Node1 -->
<g id="edge1" class="edge"><title>Node2&#45;&gt;Node1</title>
<path fill="none" stroke="#9a32cd" stroke-dasharray="5,2" d="M188.665,-84.1227C203.478,-67.6428 223.361,-45.5237 236.179,-31.2639"/>
<polygon fill="#9a32cd" stroke="#9a32cd" points="185.935,-81.9237 181.853,-91.7006 191.141,-86.6033 185.935,-81.9237"/>
<text text-anchor="middle" x="245.5" y="-64" font-family="Helvetica,sans-Serif" font-size="10.00"> DayName</text>
<text text-anchor="middle" x="245.5" y="-53" font-family="Helvetica,sans-Serif" font-size="10.00">MonthName</text>
</g>
<!-- Node3 -->
<g id="node3" class="node"><title>Node3</title>
<polygon fill="white" stroke="#bfbfbf" points="74.5,-194.5 74.5,-213.5 123.5,-213.5 123.5,-194.5 74.5,-194.5"/>
<text text-anchor="middle" x="99" y="-201.5" font-family="Helvetica,sans-Serif" font-size="10.00">TCHAR</text>
</g>
<!-- Node3&#45;&gt;Node2 -->
<g id="edge2" class="edge"><title>Node3&#45;&gt;Node2</title>
<path fill="none" stroke="#9a32cd" stroke-dasharray="5,2" d="M102.248,-184.262C105.204,-171.384 110.59,-154.433 120,-142 125.936,-134.157 134.215,-127.452 142.279,-122.122"/>
<polygon fill="#9a32cd" stroke="#9a32cd" points="98.7672,-183.821 100.237,-194.314 105.631,-185.195 98.7672,-183.821"/>
<text text-anchor="middle" x="143" y="-156.5" font-family="Helvetica,sans-Serif" font-size="10.00"> cAbstract</text>
</g>
<!-- Node4 -->
<g id="node4" class="node"><title>Node4</title>
<polygon fill="white" stroke="#bfbfbf" points="0,-194.5 0,-213.5 56,-213.5 56,-194.5 0,-194.5"/>
<text text-anchor="middle" x="28" y="-201.5" font-family="Helvetica,sans-Serif" font-size="10.00">TCHAR *</text>
</g>
<!-- Node4&#45;&gt;Node2 -->
<g id="edge3" class="edge"><title>Node4&#45;&gt;Node2</title>
<path fill="none" stroke="#9a32cd" stroke-dasharray="5,2" d="M34.5826,-184.837C40.3786,-171.245 50.0809,-153.15 64,-142 77.9076,-130.859 95.5676,-123.325 112.418,-118.249"/>
<polygon fill="#9a32cd" stroke="#9a32cd" points="31.3173,-183.576 30.9066,-194.163 37.8298,-186.143 31.3173,-183.576"/>
<text text-anchor="middle" x="82.5" y="-162" font-family="Helvetica,sans-Serif" font-size="10.00"> pcBufor</text>
<text text-anchor="middle" x="82.5" y="-151" font-family="Helvetica,sans-Serif" font-size="10.00">pcData</text>
</g>
<!-- Node5 -->
<g id="node5" class="node"><title>Node5</title>
<g id="a_node5"><a xlink:href="namespace_3global_scope_4.html#classunsigned" target="_top" xlink:title="unsigned">
<polygon fill="white" stroke="black" points="244,-194.5 244,-213.5 300,-213.5 300,-194.5 244,-194.5"/>
<text text-anchor="middle" x="272" y="-201.5" font-family="Helvetica,sans-Serif" font-size="10.00">unsigned</text>
</a>
</g>
</g>
<!-- Node5&#45;&gt;Node1 -->
<g id="edge6" class="edge"><title>Node5&#45;&gt;Node1</title>
<path fill="none" stroke="#9a32cd" stroke-dasharray="5,2" d="M281.845,-185.402C283.15,-182.35 284.282,-179.145 285,-176 292.021,-145.235 281.617,-63.6013 276,-50 273.175,-43.158 268.437,-36.6259 263.711,-31.2056"/>
<polygon fill="#9a32cd" stroke="#9a32cd" points="278.705,-183.856 277.389,-194.369 284.974,-186.972 278.705,-183.856"/>
<text text-anchor="middle" x="300" y="-115.5" font-family="Helvetica,sans-Serif" font-size="10.00"> Day</text>
<text text-anchor="middle" x="300" y="-104.5" font-family="Helvetica,sans-Serif" font-size="10.00">Year</text>
<text text-anchor="middle" x="300" y="-93.5" font-family="Helvetica,sans-Serif" font-size="10.00">Month</text>
</g>
<!-- Node5&#45;&gt;Node2 -->
<g id="edge4" class="edge"><title>Node5&#45;&gt;Node2</title>
<path fill="none" stroke="#9a32cd" stroke-dasharray="5,2" d="M251.548,-187.825C247.191,-184.176 242.771,-180.131 239,-176 226.7,-162.526 228.696,-155.102 216,-142 208.852,-134.623 199.938,-127.727 191.801,-122.1"/>
<polygon fill="#9a32cd" stroke="#9a32cd" points="249.657,-190.792 259.663,-194.274 254.012,-185.312 249.657,-190.792"/>
<text text-anchor="middle" x="262" y="-167.5" font-family="Helvetica,sans-Serif" font-size="10.00"> uFormat</text>
<text text-anchor="middle" x="262" y="-156.5" font-family="Helvetica,sans-Serif" font-size="10.00">uDataSize</text>
<text text-anchor="middle" x="262" y="-145.5" font-family="Helvetica,sans-Serif" font-size="10.00">uIlosc</text>
</g>
<!-- Node6 -->
<g id="node6" class="node"><title>Node6</title>
<polygon fill="white" stroke="#bfbfbf" points="141.5,-194.5 141.5,-213.5 198.5,-213.5 198.5,-194.5 141.5,-194.5"/>
<text text-anchor="middle" x="170" y="-201.5" font-family="Helvetica,sans-Serif" font-size="10.00">DCHAR *</text>
</g>
<!-- Node6&#45;&gt;Node2 -->
<g id="edge5" class="edge"><title>Node6&#45;&gt;Node2</title>
<path fill="none" stroke="#9a32cd" stroke-dasharray="5,2" d="M169.802,-184.232C169.611,-166.012 169.324,-138.755 169.15,-122.248"/>
<polygon fill="#9a32cd" stroke="#9a32cd" points="166.303,-184.27 169.908,-194.233 173.302,-184.197 166.303,-184.27"/>
<text text-anchor="middle" x="193" y="-156.5" font-family="Helvetica,sans-Serif" font-size="10.00"> pcConvert</text>
</g>
</g>
</svg>
