<?xml version="1.0" encoding="UTF-8" standalone="no"?>
<!DOCTYPE svg PUBLIC "-//W3C//DTD SVG 1.1//EN"
 "http://www.w3.org/Graphics/SVG/1.1/DTD/svg11.dtd">
<!-- Generated by graphviz version 2.36.0 (20140111.2315)
 -->
<!-- Title: KuszkAPI::Forms::Window::TCord Pages: 1 -->
<svg width="142pt" height="118pt"
 viewBox="0.00 0.00 142.00 118.00" xmlns="http://www.w3.org/2000/svg" xmlns:xlink="http://www.w3.org/1999/xlink">
<g id="graph0" class="graph" transform="scale(1 1) rotate(0) translate(4 114)">
<title>KuszkAPI::Forms::Window::TCord</title>
<polygon fill="white" stroke="none" points="-4,4 -4,-114 138,-114 138,4 -4,4"/>
<!-- Node1 -->
<g id="node1" class="node"><title>Node1</title>
<polygon fill="#bfbfbf" stroke="black" points="0,-1 0,-31 134,-31 134,-1 0,-1"/>
<text text-anchor="start" x="8" y="-19" font-family="Helvetica,sans-Serif" font-size="10.00">KuszkAPI::Forms::Window</text>
<text text-anchor="middle" x="67" y="-8" font-family="Helvetica,sans-Serif" font-size="10.00">::TCord</text>
</g>
<!-- Node2 -->
<g id="node2" class="node"><title>Node2</title>
<g id="a_node2"><a xlink:href="namespace_3global_scope_4.html#classunsigned" target="_top" xlink:title="unsigned">
<polygon fill="white" stroke="black" points="39,-90.5 39,-109.5 95,-109.5 95,-90.5 39,-90.5"/>
<text text-anchor="middle" x="67" y="-97.5" font-family="Helvetica,sans-Serif" font-size="10.00">unsigned</text>
</a>
</g>
</g>
<!-- Node2&#45;&gt;Node1 -->
<g id="edge1" class="edge"><title>Node2&#45;&gt;Node1</title>
<path fill="none" stroke="#9a32cd" stroke-dasharray="5,2" d="M67,-80.1139C67,-65.2014 67,-44.7195 67,-31.1839"/>
<polygon fill="#9a32cd" stroke="#9a32cd" points="63.5001,-80.2245 67,-90.2246 70.5001,-80.2246 63.5001,-80.2245"/>
<text text-anchor="middle" x="71.5" y="-64" font-family="Helvetica,sans-Serif" font-size="10.00"> X</text>
<text text-anchor="middle" x="71.5" y="-53" font-family="Helvetica,sans-Serif" font-size="10.00">Y</text>
</g>
</g>
</svg>
