<?xml version="1.0" encoding="UTF-8" standalone="no"?>
<!DOCTYPE svg PUBLIC "-//W3C//DTD SVG 1.1//EN"
 "http://www.w3.org/Graphics/SVG/1.1/DTD/svg11.dtd">
<!-- Generated by graphviz version 2.36.0 (20140111.2315)
 -->
<!-- Title: KuszkAPI::Containers::List&lt; tnData &gt;::ItemData Pages: 1 -->
<svg width="188pt" height="108pt"
 viewBox="0.00 0.00 188.00 108.00" xmlns="http://www.w3.org/2000/svg" xmlns:xlink="http://www.w3.org/1999/xlink">
<g id="graph0" class="graph" transform="scale(1 1) rotate(0) translate(4 104)">
<title>KuszkAPI::Containers::List&lt; tnData &gt;::ItemData</title>
<polygon fill="white" stroke="none" points="-4,4 -4,-104 184,-104 184,4 -4,4"/>
<!-- Node1 -->
<g id="node1" class="node"><title>Node1</title>
<polygon fill="#bfbfbf" stroke="black" points="0,-1 0,-31 130,-31 130,-1 0,-1"/>
<text text-anchor="start" x="8" y="-19" font-family="Helvetica,sans-Serif" font-size="10.00">KuszkAPI::Containers</text>
<text text-anchor="middle" x="65" y="-8" font-family="Helvetica,sans-Serif" font-size="10.00">::List&lt; tnData &gt;::ItemData</text>
</g>
<!-- Node1&#45;&gt;Node1 -->
<g id="edge1" class="edge"><title>Node1&#45;&gt;Node1</title>
<path fill="none" stroke="#9a32cd" stroke-dasharray="5,2" d="M140.055,-21.357C145.003,-20.1129 148,-18.3273 148,-16 148,-12.3672 140.697,-10.0541 130.072,-9.06076"/>
<polygon fill="#9a32cd" stroke="#9a32cd" points="139.401,-17.917 130.072,-22.9392 140.496,-24.8307 139.401,-17.917"/>
<text text-anchor="middle" x="164" y="-13.5" font-family="Helvetica,sans-Serif" font-size="10.00"> ptNext</text>
</g>
<!-- Node2 -->
<g id="node2" class="node"><title>Node2</title>
<polygon fill="white" stroke="#bfbfbf" points="39,-80.5 39,-99.5 91,-99.5 91,-80.5 39,-80.5"/>
<text text-anchor="middle" x="65" y="-87.5" font-family="Helvetica,sans-Serif" font-size="10.00">tnData *</text>
</g>
<!-- Node2&#45;&gt;Node1 -->
<g id="edge2" class="edge"><title>Node2&#45;&gt;Node1</title>
<path fill="none" stroke="#9a32cd" stroke-dasharray="5,2" d="M65,-70.0846C65,-57.9148 65,-42.3538 65,-31.2316"/>
<polygon fill="#9a32cd" stroke="#9a32cd" points="61.5001,-70.4579 65,-80.4579 68.5001,-70.4579 61.5001,-70.4579"/>
<text text-anchor="middle" x="81" y="-53.5" font-family="Helvetica,sans-Serif" font-size="10.00"> ptData</text>
</g>
</g>
</svg>
